<?xml version="1.0" encoding="utf-8" standalone="no"?>
<!DOCTYPE svg PUBLIC "-//W3C//DTD SVG 1.1//EN"
  "http://www.w3.org/Graphics/SVG/1.1/DTD/svg11.dtd">
<!-- Created with matplotlib (https://matplotlib.org/) -->
<svg height="504pt" version="1.1" viewBox="0 0 504 504" width="504pt" xmlns="http://www.w3.org/2000/svg" xmlns:xlink="http://www.w3.org/1999/xlink">
 <defs>
  <style type="text/css">
*{stroke-linecap:butt;stroke-linejoin:round;}
  </style>
 </defs>
 <g id="figure_1">
  <g id="patch_1">
   <path d="M 0 504 
L 504 504 
L 504 0 
L 0 0 
z
" style="fill:none;"/>
  </g>
  <g id="axes_1">
   <g id="patch_2">
    <path d="M 50.55 458.2 
L 490.0125 458.2 
L 490.0125 14.8 
L 50.55 14.8 
z
" style="fill:none;"/>
   </g>
   <g id="matplotlib.axis_1">
    <g id="xtick_1">
     <g id="line2d_1">
      <defs>
       <path d="M 0 0 
L 0 3.5 
" id="m97734d1592" style="stroke:#000000;stroke-width:0.8;"/>
      </defs>
      <g>
       <use style="stroke:#000000;stroke-width:0.8;" x="50.55" xlink:href="#m97734d1592" y="458.2"/>
      </g>
     </g>
     <g id="text_1">
      <!-- −4 -->
      <defs>
       <path d="M 10.59375 35.5 
L 73.1875 35.5 
L 73.1875 27.203125 
L 10.59375 27.203125 
z
" id="DejaVuSans-8722"/>
       <path d="M 37.796875 64.3125 
L 12.890625 25.390625 
L 37.796875 25.390625 
z
M 35.203125 72.90625 
L 47.609375 72.90625 
L 47.609375 25.390625 
L 58.015625 25.390625 
L 58.015625 17.1875 
L 47.609375 17.1875 
L 47.609375 0 
L 37.796875 0 
L 37.796875 17.1875 
L 4.890625 17.1875 
L 4.890625 26.703125 
z
" id="DejaVuSans-52"/>
      </defs>
      <g transform="translate(43.178906 472.798437)scale(0.1 -0.1)">
       <use xlink:href="#DejaVuSans-8722"/>
       <use x="83.789062" xlink:href="#DejaVuSans-52"/>
      </g>
     </g>
    </g>
    <g id="xtick_2">
     <g id="line2d_2">
      <g>
       <use style="stroke:#000000;stroke-width:0.8;" x="105.482813" xlink:href="#m97734d1592" y="458.2"/>
      </g>
     </g>
     <g id="text_2">
      <!-- −3 -->
      <defs>
       <path d="M 40.578125 39.3125 
Q 47.65625 37.796875 51.625 33 
Q 55.609375 28.21875 55.609375 21.1875 
Q 55.609375 10.40625 48.1875 4.484375 
Q 40.765625 -1.421875 27.09375 -1.421875 
Q 22.515625 -1.421875 17.65625 -0.515625 
Q 12.796875 0.390625 7.625 2.203125 
L 7.625 11.71875 
Q 11.71875 9.328125 16.59375 8.109375 
Q 21.484375 6.890625 26.8125 6.890625 
Q 36.078125 6.890625 40.9375 10.546875 
Q 45.796875 14.203125 45.796875 21.1875 
Q 45.796875 27.640625 41.28125 31.265625 
Q 36.765625 34.90625 28.71875 34.90625 
L 20.21875 34.90625 
L 20.21875 43.015625 
L 29.109375 43.015625 
Q 36.375 43.015625 40.234375 45.921875 
Q 44.09375 48.828125 44.09375 54.296875 
Q 44.09375 59.90625 40.109375 62.90625 
Q 36.140625 65.921875 28.71875 65.921875 
Q 24.65625 65.921875 20.015625 65.03125 
Q 15.375 64.15625 9.8125 62.3125 
L 9.8125 71.09375 
Q 15.4375 72.65625 20.34375 73.4375 
Q 25.25 74.21875 29.59375 74.21875 
Q 40.828125 74.21875 47.359375 69.109375 
Q 53.90625 64.015625 53.90625 55.328125 
Q 53.90625 49.265625 50.4375 45.09375 
Q 46.96875 40.921875 40.578125 39.3125 
z
" id="DejaVuSans-51"/>
      </defs>
      <g transform="translate(98.111719 472.798437)scale(0.1 -0.1)">
       <use xlink:href="#DejaVuSans-8722"/>
       <use x="83.789062" xlink:href="#DejaVuSans-51"/>
      </g>
     </g>
    </g>
    <g id="xtick_3">
     <g id="line2d_3">
      <g>
       <use style="stroke:#000000;stroke-width:0.8;" x="160.415625" xlink:href="#m97734d1592" y="458.2"/>
      </g>
     </g>
     <g id="text_3">
      <!-- −2 -->
      <defs>
       <path d="M 19.1875 8.296875 
L 53.609375 8.296875 
L 53.609375 0 
L 7.328125 0 
L 7.328125 8.296875 
Q 12.9375 14.109375 22.625 23.890625 
Q 32.328125 33.6875 34.8125 36.53125 
Q 39.546875 41.84375 41.421875 45.53125 
Q 43.3125 49.21875 43.3125 52.78125 
Q 43.3125 58.59375 39.234375 62.25 
Q 35.15625 65.921875 28.609375 65.921875 
Q 23.96875 65.921875 18.8125 64.3125 
Q 13.671875 62.703125 7.8125 59.421875 
L 7.8125 69.390625 
Q 13.765625 71.78125 18.9375 73 
Q 24.125 74.21875 28.421875 74.21875 
Q 39.75 74.21875 46.484375 68.546875 
Q 53.21875 62.890625 53.21875 53.421875 
Q 53.21875 48.921875 51.53125 44.890625 
Q 49.859375 40.875 45.40625 35.40625 
Q 44.1875 33.984375 37.640625 27.21875 
Q 31.109375 20.453125 19.1875 8.296875 
z
" id="DejaVuSans-50"/>
      </defs>
      <g transform="translate(153.044531 472.798437)scale(0.1 -0.1)">
       <use xlink:href="#DejaVuSans-8722"/>
       <use x="83.789062" xlink:href="#DejaVuSans-50"/>
      </g>
     </g>
    </g>
    <g id="xtick_4">
     <g id="line2d_4">
      <g>
       <use style="stroke:#000000;stroke-width:0.8;" x="215.348437" xlink:href="#m97734d1592" y="458.2"/>
      </g>
     </g>
     <g id="text_4">
      <!-- −1 -->
      <defs>
       <path d="M 12.40625 8.296875 
L 28.515625 8.296875 
L 28.515625 63.921875 
L 10.984375 60.40625 
L 10.984375 69.390625 
L 28.421875 72.90625 
L 38.28125 72.90625 
L 38.28125 8.296875 
L 54.390625 8.296875 
L 54.390625 0 
L 12.40625 0 
z
" id="DejaVuSans-49"/>
      </defs>
      <g transform="translate(207.977344 472.798437)scale(0.1 -0.1)">
       <use xlink:href="#DejaVuSans-8722"/>
       <use x="83.789062" xlink:href="#DejaVuSans-49"/>
      </g>
     </g>
    </g>
    <g id="xtick_5">
     <g id="line2d_5">
      <g>
       <use style="stroke:#000000;stroke-width:0.8;" x="270.28125" xlink:href="#m97734d1592" y="458.2"/>
      </g>
     </g>
     <g id="text_5">
      <!-- 0 -->
      <defs>
       <path d="M 31.78125 66.40625 
Q 24.171875 66.40625 20.328125 58.90625 
Q 16.5 51.421875 16.5 36.375 
Q 16.5 21.390625 20.328125 13.890625 
Q 24.171875 6.390625 31.78125 6.390625 
Q 39.453125 6.390625 43.28125 13.890625 
Q 47.125 21.390625 47.125 36.375 
Q 47.125 51.421875 43.28125 58.90625 
Q 39.453125 66.40625 31.78125 66.40625 
z
M 31.78125 74.21875 
Q 44.046875 74.21875 50.515625 64.515625 
Q 56.984375 54.828125 56.984375 36.375 
Q 56.984375 17.96875 50.515625 8.265625 
Q 44.046875 -1.421875 31.78125 -1.421875 
Q 19.53125 -1.421875 13.0625 8.265625 
Q 6.59375 17.96875 6.59375 36.375 
Q 6.59375 54.828125 13.0625 64.515625 
Q 19.53125 74.21875 31.78125 74.21875 
z
" id="DejaVuSans-48"/>
      </defs>
      <g transform="translate(267.1 472.798437)scale(0.1 -0.1)">
       <use xlink:href="#DejaVuSans-48"/>
      </g>
     </g>
    </g>
    <g id="xtick_6">
     <g id="line2d_6">
      <g>
       <use style="stroke:#000000;stroke-width:0.8;" x="325.214063" xlink:href="#m97734d1592" y="458.2"/>
      </g>
     </g>
     <g id="text_6">
      <!-- 1 -->
      <g transform="translate(322.032813 472.798437)scale(0.1 -0.1)">
       <use xlink:href="#DejaVuSans-49"/>
      </g>
     </g>
    </g>
    <g id="xtick_7">
     <g id="line2d_7">
      <g>
       <use style="stroke:#000000;stroke-width:0.8;" x="380.146875" xlink:href="#m97734d1592" y="458.2"/>
      </g>
     </g>
     <g id="text_7">
      <!-- 2 -->
      <g transform="translate(376.965625 472.798437)scale(0.1 -0.1)">
       <use xlink:href="#DejaVuSans-50"/>
      </g>
     </g>
    </g>
    <g id="xtick_8">
     <g id="line2d_8">
      <g>
       <use style="stroke:#000000;stroke-width:0.8;" x="435.079687" xlink:href="#m97734d1592" y="458.2"/>
      </g>
     </g>
     <g id="text_8">
      <!-- 3 -->
      <g transform="translate(431.898438 472.798437)scale(0.1 -0.1)">
       <use xlink:href="#DejaVuSans-51"/>
      </g>
     </g>
    </g>
    <g id="xtick_9">
     <g id="line2d_9">
      <g>
       <use style="stroke:#000000;stroke-width:0.8;" x="490.0125" xlink:href="#m97734d1592" y="458.2"/>
      </g>
     </g>
     <g id="text_9">
      <!-- 4 -->
      <g transform="translate(486.83125 472.798437)scale(0.1 -0.1)">
       <use xlink:href="#DejaVuSans-52"/>
      </g>
     </g>
    </g>
    <g id="text_10">
     <!-- Horizontal displacement, $x$ -->
     <defs>
      <path d="M 9.8125 72.90625 
L 19.671875 72.90625 
L 19.671875 43.015625 
L 55.515625 43.015625 
L 55.515625 72.90625 
L 65.375 72.90625 
L 65.375 0 
L 55.515625 0 
L 55.515625 34.71875 
L 19.671875 34.71875 
L 19.671875 0 
L 9.8125 0 
z
" id="DejaVuSans-72"/>
      <path d="M 30.609375 48.390625 
Q 23.390625 48.390625 19.1875 42.75 
Q 14.984375 37.109375 14.984375 27.296875 
Q 14.984375 17.484375 19.15625 11.84375 
Q 23.34375 6.203125 30.609375 6.203125 
Q 37.796875 6.203125 41.984375 11.859375 
Q 46.1875 17.53125 46.1875 27.296875 
Q 46.1875 37.015625 41.984375 42.703125 
Q 37.796875 48.390625 30.609375 48.390625 
z
M 30.609375 56 
Q 42.328125 56 49.015625 48.375 
Q 55.71875 40.765625 55.71875 27.296875 
Q 55.71875 13.875 49.015625 6.21875 
Q 42.328125 -1.421875 30.609375 -1.421875 
Q 18.84375 -1.421875 12.171875 6.21875 
Q 5.515625 13.875 5.515625 27.296875 
Q 5.515625 40.765625 12.171875 48.375 
Q 18.84375 56 30.609375 56 
z
" id="DejaVuSans-111"/>
      <path d="M 41.109375 46.296875 
Q 39.59375 47.171875 37.8125 47.578125 
Q 36.03125 48 33.890625 48 
Q 26.265625 48 22.1875 43.046875 
Q 18.109375 38.09375 18.109375 28.8125 
L 18.109375 0 
L 9.078125 0 
L 9.078125 54.6875 
L 18.109375 54.6875 
L 18.109375 46.1875 
Q 20.953125 51.171875 25.484375 53.578125 
Q 30.03125 56 36.53125 56 
Q 37.453125 56 38.578125 55.875 
Q 39.703125 55.765625 41.0625 55.515625 
z
" id="DejaVuSans-114"/>
      <path d="M 9.421875 54.6875 
L 18.40625 54.6875 
L 18.40625 0 
L 9.421875 0 
z
M 9.421875 75.984375 
L 18.40625 75.984375 
L 18.40625 64.59375 
L 9.421875 64.59375 
z
" id="DejaVuSans-105"/>
      <path d="M 5.515625 54.6875 
L 48.1875 54.6875 
L 48.1875 46.484375 
L 14.40625 7.171875 
L 48.1875 7.171875 
L 48.1875 0 
L 4.296875 0 
L 4.296875 8.203125 
L 38.09375 47.515625 
L 5.515625 47.515625 
z
" id="DejaVuSans-122"/>
      <path d="M 54.890625 33.015625 
L 54.890625 0 
L 45.90625 0 
L 45.90625 32.71875 
Q 45.90625 40.484375 42.875 44.328125 
Q 39.84375 48.1875 33.796875 48.1875 
Q 26.515625 48.1875 22.3125 43.546875 
Q 18.109375 38.921875 18.109375 30.90625 
L 18.109375 0 
L 9.078125 0 
L 9.078125 54.6875 
L 18.109375 54.6875 
L 18.109375 46.1875 
Q 21.34375 51.125 25.703125 53.5625 
Q 30.078125 56 35.796875 56 
Q 45.21875 56 50.046875 50.171875 
Q 54.890625 44.34375 54.890625 33.015625 
z
" id="DejaVuSans-110"/>
      <path d="M 18.3125 70.21875 
L 18.3125 54.6875 
L 36.8125 54.6875 
L 36.8125 47.703125 
L 18.3125 47.703125 
L 18.3125 18.015625 
Q 18.3125 11.328125 20.140625 9.421875 
Q 21.96875 7.515625 27.59375 7.515625 
L 36.8125 7.515625 
L 36.8125 0 
L 27.59375 0 
Q 17.1875 0 13.234375 3.875 
Q 9.28125 7.765625 9.28125 18.015625 
L 9.28125 47.703125 
L 2.6875 47.703125 
L 2.6875 54.6875 
L 9.28125 54.6875 
L 9.28125 70.21875 
z
" id="DejaVuSans-116"/>
      <path d="M 34.28125 27.484375 
Q 23.390625 27.484375 19.1875 25 
Q 14.984375 22.515625 14.984375 16.5 
Q 14.984375 11.71875 18.140625 8.90625 
Q 21.296875 6.109375 26.703125 6.109375 
Q 34.1875 6.109375 38.703125 11.40625 
Q 43.21875 16.703125 43.21875 25.484375 
L 43.21875 27.484375 
z
M 52.203125 31.203125 
L 52.203125 0 
L 43.21875 0 
L 43.21875 8.296875 
Q 40.140625 3.328125 35.546875 0.953125 
Q 30.953125 -1.421875 24.3125 -1.421875 
Q 15.921875 -1.421875 10.953125 3.296875 
Q 6 8.015625 6 15.921875 
Q 6 25.140625 12.171875 29.828125 
Q 18.359375 34.515625 30.609375 34.515625 
L 43.21875 34.515625 
L 43.21875 35.40625 
Q 43.21875 41.609375 39.140625 45 
Q 35.0625 48.390625 27.6875 48.390625 
Q 23 48.390625 18.546875 47.265625 
Q 14.109375 46.140625 10.015625 43.890625 
L 10.015625 52.203125 
Q 14.9375 54.109375 19.578125 55.046875 
Q 24.21875 56 28.609375 56 
Q 40.484375 56 46.34375 49.84375 
Q 52.203125 43.703125 52.203125 31.203125 
z
" id="DejaVuSans-97"/>
      <path d="M 9.421875 75.984375 
L 18.40625 75.984375 
L 18.40625 0 
L 9.421875 0 
z
" id="DejaVuSans-108"/>
      <path id="DejaVuSans-32"/>
      <path d="M 45.40625 46.390625 
L 45.40625 75.984375 
L 54.390625 75.984375 
L 54.390625 0 
L 45.40625 0 
L 45.40625 8.203125 
Q 42.578125 3.328125 38.25 0.953125 
Q 33.9375 -1.421875 27.875 -1.421875 
Q 17.96875 -1.421875 11.734375 6.484375 
Q 5.515625 14.40625 5.515625 27.296875 
Q 5.515625 40.1875 11.734375 48.09375 
Q 17.96875 56 27.875 56 
Q 33.9375 56 38.25 53.625 
Q 42.578125 51.265625 45.40625 46.390625 
z
M 14.796875 27.296875 
Q 14.796875 17.390625 18.875 11.75 
Q 22.953125 6.109375 30.078125 6.109375 
Q 37.203125 6.109375 41.296875 11.75 
Q 45.40625 17.390625 45.40625 27.296875 
Q 45.40625 37.203125 41.296875 42.84375 
Q 37.203125 48.484375 30.078125 48.484375 
Q 22.953125 48.484375 18.875 42.84375 
Q 14.796875 37.203125 14.796875 27.296875 
z
" id="DejaVuSans-100"/>
      <path d="M 44.28125 53.078125 
L 44.28125 44.578125 
Q 40.484375 46.53125 36.375 47.5 
Q 32.28125 48.484375 27.875 48.484375 
Q 21.1875 48.484375 17.84375 46.4375 
Q 14.5 44.390625 14.5 40.28125 
Q 14.5 37.15625 16.890625 35.375 
Q 19.28125 33.59375 26.515625 31.984375 
L 29.59375 31.296875 
Q 39.15625 29.25 43.1875 25.515625 
Q 47.21875 21.78125 47.21875 15.09375 
Q 47.21875 7.46875 41.1875 3.015625 
Q 35.15625 -1.421875 24.609375 -1.421875 
Q 20.21875 -1.421875 15.453125 -0.5625 
Q 10.6875 0.296875 5.421875 2 
L 5.421875 11.28125 
Q 10.40625 8.6875 15.234375 7.390625 
Q 20.0625 6.109375 24.8125 6.109375 
Q 31.15625 6.109375 34.5625 8.28125 
Q 37.984375 10.453125 37.984375 14.40625 
Q 37.984375 18.0625 35.515625 20.015625 
Q 33.0625 21.96875 24.703125 23.78125 
L 21.578125 24.515625 
Q 13.234375 26.265625 9.515625 29.90625 
Q 5.8125 33.546875 5.8125 39.890625 
Q 5.8125 47.609375 11.28125 51.796875 
Q 16.75 56 26.8125 56 
Q 31.78125 56 36.171875 55.265625 
Q 40.578125 54.546875 44.28125 53.078125 
z
" id="DejaVuSans-115"/>
      <path d="M 18.109375 8.203125 
L 18.109375 -20.796875 
L 9.078125 -20.796875 
L 9.078125 54.6875 
L 18.109375 54.6875 
L 18.109375 46.390625 
Q 20.953125 51.265625 25.265625 53.625 
Q 29.59375 56 35.59375 56 
Q 45.5625 56 51.78125 48.09375 
Q 58.015625 40.1875 58.015625 27.296875 
Q 58.015625 14.40625 51.78125 6.484375 
Q 45.5625 -1.421875 35.59375 -1.421875 
Q 29.59375 -1.421875 25.265625 0.953125 
Q 20.953125 3.328125 18.109375 8.203125 
z
M 48.6875 27.296875 
Q 48.6875 37.203125 44.609375 42.84375 
Q 40.53125 48.484375 33.40625 48.484375 
Q 26.265625 48.484375 22.1875 42.84375 
Q 18.109375 37.203125 18.109375 27.296875 
Q 18.109375 17.390625 22.1875 11.75 
Q 26.265625 6.109375 33.40625 6.109375 
Q 40.53125 6.109375 44.609375 11.75 
Q 48.6875 17.390625 48.6875 27.296875 
z
" id="DejaVuSans-112"/>
      <path d="M 48.78125 52.59375 
L 48.78125 44.1875 
Q 44.96875 46.296875 41.140625 47.34375 
Q 37.3125 48.390625 33.40625 48.390625 
Q 24.65625 48.390625 19.8125 42.84375 
Q 14.984375 37.3125 14.984375 27.296875 
Q 14.984375 17.28125 19.8125 11.734375 
Q 24.65625 6.203125 33.40625 6.203125 
Q 37.3125 6.203125 41.140625 7.25 
Q 44.96875 8.296875 48.78125 10.40625 
L 48.78125 2.09375 
Q 45.015625 0.34375 40.984375 -0.53125 
Q 36.96875 -1.421875 32.421875 -1.421875 
Q 20.0625 -1.421875 12.78125 6.34375 
Q 5.515625 14.109375 5.515625 27.296875 
Q 5.515625 40.671875 12.859375 48.328125 
Q 20.21875 56 33.015625 56 
Q 37.15625 56 41.109375 55.140625 
Q 45.0625 54.296875 48.78125 52.59375 
z
" id="DejaVuSans-99"/>
      <path d="M 56.203125 29.59375 
L 56.203125 25.203125 
L 14.890625 25.203125 
Q 15.484375 15.921875 20.484375 11.0625 
Q 25.484375 6.203125 34.421875 6.203125 
Q 39.59375 6.203125 44.453125 7.46875 
Q 49.3125 8.734375 54.109375 11.28125 
L 54.109375 2.78125 
Q 49.265625 0.734375 44.1875 -0.34375 
Q 39.109375 -1.421875 33.890625 -1.421875 
Q 20.796875 -1.421875 13.15625 6.1875 
Q 5.515625 13.8125 5.515625 26.8125 
Q 5.515625 40.234375 12.765625 48.109375 
Q 20.015625 56 32.328125 56 
Q 43.359375 56 49.78125 48.890625 
Q 56.203125 41.796875 56.203125 29.59375 
z
M 47.21875 32.234375 
Q 47.125 39.59375 43.09375 43.984375 
Q 39.0625 48.390625 32.421875 48.390625 
Q 24.90625 48.390625 20.390625 44.140625 
Q 15.875 39.890625 15.1875 32.171875 
z
" id="DejaVuSans-101"/>
      <path d="M 52 44.1875 
Q 55.375 50.25 60.0625 53.125 
Q 64.75 56 71.09375 56 
Q 79.640625 56 84.28125 50.015625 
Q 88.921875 44.046875 88.921875 33.015625 
L 88.921875 0 
L 79.890625 0 
L 79.890625 32.71875 
Q 79.890625 40.578125 77.09375 44.375 
Q 74.3125 48.1875 68.609375 48.1875 
Q 61.625 48.1875 57.5625 43.546875 
Q 53.515625 38.921875 53.515625 30.90625 
L 53.515625 0 
L 44.484375 0 
L 44.484375 32.71875 
Q 44.484375 40.625 41.703125 44.40625 
Q 38.921875 48.1875 33.109375 48.1875 
Q 26.21875 48.1875 22.15625 43.53125 
Q 18.109375 38.875 18.109375 30.90625 
L 18.109375 0 
L 9.078125 0 
L 9.078125 54.6875 
L 18.109375 54.6875 
L 18.109375 46.1875 
Q 21.1875 51.21875 25.484375 53.609375 
Q 29.78125 56 35.6875 56 
Q 41.65625 56 45.828125 52.96875 
Q 50 49.953125 52 44.1875 
z
" id="DejaVuSans-109"/>
      <path d="M 11.71875 12.40625 
L 22.015625 12.40625 
L 22.015625 4 
L 14.015625 -11.625 
L 7.71875 -11.625 
L 11.71875 4 
z
" id="DejaVuSans-44"/>
      <path d="M 60.015625 54.6875 
L 34.90625 27.875 
L 50.296875 0 
L 39.984375 0 
L 28.421875 21.6875 
L 8.296875 0 
L -2.59375 0 
L 24.3125 28.8125 
L 10.015625 54.6875 
L 20.3125 54.6875 
L 30.8125 34.90625 
L 49.125 54.6875 
z
" id="DejaVuSans-Oblique-120"/>
     </defs>
     <g transform="translate(203.28125 486.478125)scale(0.1 -0.1)">
      <use transform="translate(0 0.015625)" xlink:href="#DejaVuSans-72"/>
      <use transform="translate(75.195312 0.015625)" xlink:href="#DejaVuSans-111"/>
      <use transform="translate(136.376953 0.015625)" xlink:href="#DejaVuSans-114"/>
      <use transform="translate(177.490234 0.015625)" xlink:href="#DejaVuSans-105"/>
      <use transform="translate(205.273438 0.015625)" xlink:href="#DejaVuSans-122"/>
      <use transform="translate(257.763672 0.015625)" xlink:href="#DejaVuSans-111"/>
      <use transform="translate(318.945312 0.015625)" xlink:href="#DejaVuSans-110"/>
      <use transform="translate(382.324219 0.015625)" xlink:href="#DejaVuSans-116"/>
      <use transform="translate(421.533203 0.015625)" xlink:href="#DejaVuSans-97"/>
      <use transform="translate(482.8125 0.015625)" xlink:href="#DejaVuSans-108"/>
      <use transform="translate(510.595703 0.015625)" xlink:href="#DejaVuSans-32"/>
      <use transform="translate(542.382812 0.015625)" xlink:href="#DejaVuSans-100"/>
      <use transform="translate(605.859375 0.015625)" xlink:href="#DejaVuSans-105"/>
      <use transform="translate(633.642578 0.015625)" xlink:href="#DejaVuSans-115"/>
      <use transform="translate(685.742188 0.015625)" xlink:href="#DejaVuSans-112"/>
      <use transform="translate(749.21875 0.015625)" xlink:href="#DejaVuSans-108"/>
      <use transform="translate(777.001953 0.015625)" xlink:href="#DejaVuSans-97"/>
      <use transform="translate(838.28125 0.015625)" xlink:href="#DejaVuSans-99"/>
      <use transform="translate(893.261719 0.015625)" xlink:href="#DejaVuSans-101"/>
      <use transform="translate(954.785156 0.015625)" xlink:href="#DejaVuSans-109"/>
      <use transform="translate(1052.197266 0.015625)" xlink:href="#DejaVuSans-101"/>
      <use transform="translate(1113.720703 0.015625)" xlink:href="#DejaVuSans-110"/>
      <use transform="translate(1177.099609 0.015625)" xlink:href="#DejaVuSans-116"/>
      <use transform="translate(1216.308594 0.015625)" xlink:href="#DejaVuSans-44"/>
      <use transform="translate(1248.095703 0.015625)" xlink:href="#DejaVuSans-32"/>
      <use transform="translate(1279.882812 0.015625)" xlink:href="#DejaVuSans-Oblique-120"/>
     </g>
    </g>
   </g>
   <g id="matplotlib.axis_2">
    <g id="ytick_1">
     <g id="line2d_10">
      <defs>
       <path d="M 0 0 
L -3.5 0 
" id="mc9211d705b" style="stroke:#000000;stroke-width:0.8;"/>
      </defs>
      <g>
       <use style="stroke:#000000;stroke-width:0.8;" x="50.55" xlink:href="#mc9211d705b" y="458.2"/>
      </g>
     </g>
     <g id="text_11">
      <!-- −4 -->
      <g transform="translate(28.807813 461.999219)scale(0.1 -0.1)">
       <use xlink:href="#DejaVuSans-8722"/>
       <use x="83.789062" xlink:href="#DejaVuSans-52"/>
      </g>
     </g>
    </g>
    <g id="ytick_2">
     <g id="line2d_11">
      <g>
       <use style="stroke:#000000;stroke-width:0.8;" x="50.55" xlink:href="#mc9211d705b" y="402.775"/>
      </g>
     </g>
     <g id="text_12">
      <!-- −3 -->
      <g transform="translate(28.807813 406.574219)scale(0.1 -0.1)">
       <use xlink:href="#DejaVuSans-8722"/>
       <use x="83.789062" xlink:href="#DejaVuSans-51"/>
      </g>
     </g>
    </g>
    <g id="ytick_3">
     <g id="line2d_12">
      <g>
       <use style="stroke:#000000;stroke-width:0.8;" x="50.55" xlink:href="#mc9211d705b" y="347.35"/>
      </g>
     </g>
     <g id="text_13">
      <!-- −2 -->
      <g transform="translate(28.807813 351.149219)scale(0.1 -0.1)">
       <use xlink:href="#DejaVuSans-8722"/>
       <use x="83.789062" xlink:href="#DejaVuSans-50"/>
      </g>
     </g>
    </g>
    <g id="ytick_4">
     <g id="line2d_13">
      <g>
       <use style="stroke:#000000;stroke-width:0.8;" x="50.55" xlink:href="#mc9211d705b" y="291.925"/>
      </g>
     </g>
     <g id="text_14">
      <!-- −1 -->
      <g transform="translate(28.807813 295.724219)scale(0.1 -0.1)">
       <use xlink:href="#DejaVuSans-8722"/>
       <use x="83.789062" xlink:href="#DejaVuSans-49"/>
      </g>
     </g>
    </g>
    <g id="ytick_5">
     <g id="line2d_14">
      <g>
       <use style="stroke:#000000;stroke-width:0.8;" x="50.55" xlink:href="#mc9211d705b" y="236.5"/>
      </g>
     </g>
     <g id="text_15">
      <!-- 0 -->
      <g transform="translate(37.1875 240.299219)scale(0.1 -0.1)">
       <use xlink:href="#DejaVuSans-48"/>
      </g>
     </g>
    </g>
    <g id="ytick_6">
     <g id="line2d_15">
      <g>
       <use style="stroke:#000000;stroke-width:0.8;" x="50.55" xlink:href="#mc9211d705b" y="181.075"/>
      </g>
     </g>
     <g id="text_16">
      <!-- 1 -->
      <g transform="translate(37.1875 184.874219)scale(0.1 -0.1)">
       <use xlink:href="#DejaVuSans-49"/>
      </g>
     </g>
    </g>
    <g id="ytick_7">
     <g id="line2d_16">
      <g>
       <use style="stroke:#000000;stroke-width:0.8;" x="50.55" xlink:href="#mc9211d705b" y="125.65"/>
      </g>
     </g>
     <g id="text_17">
      <!-- 2 -->
      <g transform="translate(37.1875 129.449219)scale(0.1 -0.1)">
       <use xlink:href="#DejaVuSans-50"/>
      </g>
     </g>
    </g>
    <g id="ytick_8">
     <g id="line2d_17">
      <g>
       <use style="stroke:#000000;stroke-width:0.8;" x="50.55" xlink:href="#mc9211d705b" y="70.225"/>
      </g>
     </g>
     <g id="text_18">
      <!-- 3 -->
      <g transform="translate(37.1875 74.024219)scale(0.1 -0.1)">
       <use xlink:href="#DejaVuSans-51"/>
      </g>
     </g>
    </g>
    <g id="ytick_9">
     <g id="line2d_18">
      <g>
       <use style="stroke:#000000;stroke-width:0.8;" x="50.55" xlink:href="#mc9211d705b" y="14.8"/>
      </g>
     </g>
     <g id="text_19">
      <!-- 4 -->
      <g transform="translate(37.1875 18.599219)scale(0.1 -0.1)">
       <use xlink:href="#DejaVuSans-52"/>
      </g>
     </g>
    </g>
    <g id="text_20">
     <!-- Vertical displacement, $y$ -->
     <defs>
      <path d="M 28.609375 0 
L 0.78125 72.90625 
L 11.078125 72.90625 
L 34.1875 11.53125 
L 57.328125 72.90625 
L 67.578125 72.90625 
L 39.796875 0 
z
" id="DejaVuSans-86"/>
      <path d="M 24.8125 -5.078125 
Q 18.5625 -15.578125 14.625 -18.1875 
Q 10.6875 -20.796875 4.59375 -20.796875 
L -2.484375 -20.796875 
L -0.984375 -13.28125 
L 4.203125 -13.28125 
Q 7.953125 -13.28125 10.59375 -11.234375 
Q 13.234375 -9.1875 16.5 -3.21875 
L 19.28125 2 
L 7.171875 54.6875 
L 16.703125 54.6875 
L 25.78125 12.796875 
L 50.875 54.6875 
L 60.296875 54.6875 
z
" id="DejaVuSans-Oblique-121"/>
     </defs>
     <g transform="translate(22.707813 297.05)rotate(-90)scale(0.1 -0.1)">
      <use transform="translate(0 0.015625)" xlink:href="#DejaVuSans-86"/>
      <use transform="translate(68.408203 0.015625)" xlink:href="#DejaVuSans-101"/>
      <use transform="translate(129.931641 0.015625)" xlink:href="#DejaVuSans-114"/>
      <use transform="translate(171.044922 0.015625)" xlink:href="#DejaVuSans-116"/>
      <use transform="translate(210.253906 0.015625)" xlink:href="#DejaVuSans-105"/>
      <use transform="translate(238.037109 0.015625)" xlink:href="#DejaVuSans-99"/>
      <use transform="translate(293.017578 0.015625)" xlink:href="#DejaVuSans-97"/>
      <use transform="translate(354.296875 0.015625)" xlink:href="#DejaVuSans-108"/>
      <use transform="translate(382.080078 0.015625)" xlink:href="#DejaVuSans-32"/>
      <use transform="translate(413.867188 0.015625)" xlink:href="#DejaVuSans-100"/>
      <use transform="translate(477.34375 0.015625)" xlink:href="#DejaVuSans-105"/>
      <use transform="translate(505.126953 0.015625)" xlink:href="#DejaVuSans-115"/>
      <use transform="translate(557.226562 0.015625)" xlink:href="#DejaVuSans-112"/>
      <use transform="translate(620.703125 0.015625)" xlink:href="#DejaVuSans-108"/>
      <use transform="translate(648.486328 0.015625)" xlink:href="#DejaVuSans-97"/>
      <use transform="translate(709.765625 0.015625)" xlink:href="#DejaVuSans-99"/>
      <use transform="translate(764.746094 0.015625)" xlink:href="#DejaVuSans-101"/>
      <use transform="translate(826.269531 0.015625)" xlink:href="#DejaVuSans-109"/>
      <use transform="translate(923.681641 0.015625)" xlink:href="#DejaVuSans-101"/>
      <use transform="translate(985.205078 0.015625)" xlink:href="#DejaVuSans-110"/>
      <use transform="translate(1048.583984 0.015625)" xlink:href="#DejaVuSans-116"/>
      <use transform="translate(1087.792969 0.015625)" xlink:href="#DejaVuSans-44"/>
      <use transform="translate(1119.580078 0.015625)" xlink:href="#DejaVuSans-32"/>
      <use transform="translate(1151.367188 0.015625)" xlink:href="#DejaVuSans-Oblique-121"/>
     </g>
    </g>
   </g>
   <g id="line2d_19">
    <path clip-path="url(#p9bc5ebe467)" d="M 270.28125 458.2 
L 270.28125 14.8 
" style="fill:none;stroke:#000000;stroke-linecap:square;stroke-width:0.5;"/>
   </g>
   <g id="line2d_20">
    <path clip-path="url(#p9bc5ebe467)" d="M 50.55 236.5 
L 490.0125 236.5 
" style="fill:none;stroke:#000000;stroke-linecap:square;stroke-width:0.5;"/>
   </g>
   <g id="line2d_21">
    <path clip-path="url(#p9bc5ebe467)" d="M 435.079687 236.5 
L 434.99755 231.250939 
L 434.75122 226.007111 
L 434.340943 220.773742 
L 433.767127 215.55605 
L 433.030345 210.359235 
L 432.131331 205.188478 
L 431.070982 200.048932 
L 429.850354 194.945722 
L 428.470664 189.883934 
L 426.933287 184.868614 
L 425.239756 179.904762 
L 423.391759 174.997324 
L 421.391138 170.151194 
L 419.239888 165.371202 
L 416.940152 160.662112 
L 414.494224 156.02862 
L 411.904541 151.475343 
L 409.173685 147.00682 
L 406.304378 142.627506 
L 403.29948 138.341767 
L 400.161986 134.153873 
L 396.895025 130.068001 
L 393.501852 126.088222 
L 389.98585 122.218504 
L 386.350524 118.462704 
L 382.599498 114.824566 
L 378.73651 111.307718 
L 374.765412 107.915663 
L 370.690162 104.651784 
L 366.514822 101.519335 
L 362.243554 98.521437 
L 357.880617 95.661079 
L 353.430358 92.941112 
L 348.897214 90.364248 
L 344.285705 87.933055 
L 339.600426 85.649957 
L 334.846048 83.51723 
L 330.027311 81.536999 
L 325.149017 79.711239 
L 320.21603 78.041769 
L 315.233267 76.530254 
L 310.205695 75.1782 
L 305.138326 73.986955 
L 300.03621 72.957707 
L 294.904433 72.091481 
L 289.748112 71.389141 
L 284.572386 70.851387 
L 279.382414 70.478756 
L 274.183369 70.271618 
L 268.980435 70.23018 
L 263.778798 70.354483 
L 258.583643 70.644404 
L 253.400148 71.099654 
L 248.23348 71.719778 
L 243.08879 72.504158 
L 237.971206 73.452013 
L 232.88583 74.562398 
L 227.83773 75.834206 
L 222.831939 77.266169 
L 217.873446 78.85686 
L 212.967194 80.604693 
L 208.118074 82.507926 
L 203.33092 84.564661 
L 198.610504 86.772849 
L 193.96153 89.130288 
L 189.388634 91.634628 
L 184.896373 94.283374 
L 180.489226 97.073884 
L 176.171585 100.003377 
L 171.947755 103.068933 
L 167.821945 106.267495 
L 163.79827 109.595877 
L 159.880739 113.050759 
L 156.073257 116.628698 
L 152.379621 120.326127 
L 148.803512 124.139361 
L 145.348494 128.064599 
L 142.018012 132.097927 
L 138.815385 136.235326 
L 135.743807 140.47267 
L 132.806338 144.805737 
L 130.005907 149.230207 
L 127.345306 153.741669 
L 124.827187 158.335626 
L 122.454059 163.007499 
L 120.228289 167.752631 
L 118.152094 172.566292 
L 116.227546 177.443684 
L 114.456561 182.379944 
L 112.840906 187.370152 
L 111.382191 192.409334 
L 110.08187 197.492466 
L 108.941239 202.614482 
L 107.961435 207.770276 
L 107.143435 212.954709 
L 106.488055 218.162611 
L 105.995947 223.388793 
L 105.667602 228.628044 
L 105.503348 233.875143 
L 105.503348 239.124857 
L 105.667602 244.371956 
L 105.995947 249.611207 
L 106.488055 254.837389 
L 107.143435 260.045291 
L 107.961435 265.229724 
L 108.941239 270.385518 
L 110.08187 275.507534 
L 111.382191 280.590666 
L 112.840906 285.629848 
L 114.456561 290.620056 
L 116.227546 295.556316 
L 118.152094 300.433708 
L 120.228289 305.247369 
L 122.454059 309.992501 
L 124.827187 314.664374 
L 127.345306 319.258331 
L 130.005907 323.769793 
L 132.806338 328.194263 
L 135.743807 332.52733 
L 138.815385 336.764674 
L 142.018012 340.902073 
L 145.348494 344.935401 
L 148.803512 348.860639 
L 152.379621 352.673873 
L 156.073257 356.371302 
L 159.880739 359.949241 
L 163.79827 363.404123 
L 167.821945 366.732505 
L 171.947755 369.931067 
L 176.171585 372.996623 
L 180.489226 375.926116 
L 184.896373 378.716626 
L 189.388634 381.365372 
L 193.96153 383.869712 
L 198.610504 386.227151 
L 203.33092 388.435339 
L 208.118074 390.492074 
L 212.967194 392.395307 
L 217.873446 394.14314 
L 222.831939 395.733831 
L 227.83773 397.165794 
L 232.88583 398.437602 
L 237.971206 399.547987 
L 243.08879 400.495842 
L 248.23348 401.280222 
L 253.400148 401.900346 
L 258.583643 402.355596 
L 263.778798 402.645517 
L 268.980435 402.76982 
L 274.183369 402.728382 
L 279.382414 402.521244 
L 284.572386 402.148613 
L 289.748112 401.610859 
L 294.904433 400.908519 
L 300.03621 400.042293 
L 305.138326 399.013045 
L 310.205695 397.8218 
L 315.233267 396.469746 
L 320.21603 394.958231 
L 325.149017 393.288761 
L 330.027311 391.463001 
L 334.846048 389.48277 
L 339.600426 387.350043 
L 344.285705 385.066945 
L 348.897214 382.635752 
L 353.430358 380.058888 
L 357.880617 377.338921 
L 362.243554 374.478563 
L 366.514822 371.480665 
L 370.690162 368.348216 
L 374.765412 365.084337 
L 378.73651 361.692282 
L 382.599498 358.175434 
L 386.350524 354.537296 
L 389.98585 350.781496 
L 393.501852 346.911778 
L 396.895025 342.931999 
L 400.161986 338.846127 
L 403.29948 334.658233 
L 406.304378 330.372494 
L 409.173685 325.99318 
L 411.904541 321.524657 
L 414.494224 316.97138 
L 416.940152 312.337888 
L 419.239888 307.628798 
L 421.391138 302.848806 
L 423.391759 298.002676 
L 425.239756 293.095238 
L 426.933287 288.131386 
L 428.470664 283.116066 
L 429.850354 278.054278 
L 431.070982 272.951068 
L 432.131331 267.811522 
L 433.030345 262.640765 
L 433.767127 257.44395 
L 434.340943 252.226258 
L 434.75122 246.992889 
L 434.99755 241.749061 
L 435.079687 236.5 
L 435.079687 236.5 
" style="fill:none;stroke:#0000ff;stroke-linecap:square;stroke-width:1.5;"/>
   </g>
   <g id="line2d_22">
    <defs>
     <path d="M 0 10 
C 2.652031 10 5.195799 8.946337 7.071068 7.071068 
C 8.946337 5.195799 10 2.652031 10 0 
C 10 -2.652031 8.946337 -5.195799 7.071068 -7.071068 
C 5.195799 -8.946337 2.652031 -10 0 -10 
C -2.652031 -10 -5.195799 -8.946337 -7.071068 -7.071068 
C -8.946337 -5.195799 -10 -2.652031 -10 0 
C -10 2.652031 -8.946337 5.195799 -7.071068 7.071068 
C -5.195799 8.946337 -2.652031 10 0 10 
z
" id="mf7534312e3" style="stroke:#ff0000;"/>
    </defs>
    <g clip-path="url(#p9bc5ebe467)">
     <use style="fill:#ff0000;stroke:#ff0000;" x="344.285705" xlink:href="#mf7534312e3" y="87.933055"/>
    </g>
   </g>
   <g id="patch_3">
    <path d="M 50.55 458.2 
L 50.55 14.8 
" style="fill:none;stroke:#000000;stroke-linecap:square;stroke-linejoin:miter;stroke-width:0.8;"/>
   </g>
   <g id="patch_4">
    <path d="M 490.0125 458.2 
L 490.0125 14.8 
" style="fill:none;stroke:#000000;stroke-linecap:square;stroke-linejoin:miter;stroke-width:0.8;"/>
   </g>
   <g id="patch_5">
    <path d="M 50.55 458.2 
L 490.0125 458.2 
" style="fill:none;stroke:#000000;stroke-linecap:square;stroke-linejoin:miter;stroke-width:0.8;"/>
   </g>
   <g id="patch_6">
    <path d="M 50.55 14.8 
L 490.0125 14.8 
" style="fill:none;stroke:#000000;stroke-linecap:square;stroke-linejoin:miter;stroke-width:0.8;"/>
   </g>
   <g id="patch_7">
    <path d="M 296.925139 56.946517 
Q 319.301942 71.58696 342.614323 86.839523 
" style="fill:none;stroke:#000000;stroke-linecap:round;"/>
    <path d="M 301.429612 64.673724 
L 296.925139 56.946517 
L 305.809589 57.979263 
" style="fill:none;stroke:#000000;stroke-linecap:round;"/>
   </g>
   <g id="text_21">
    <!-- v -->
    <defs>
     <path d="M 2.984375 54.6875 
L 12.5 54.6875 
L 29.59375 8.796875 
L 46.6875 54.6875 
L 56.203125 54.6875 
L 35.6875 0 
L 23.484375 0 
z
" id="DejaVuSans-118"/>
    </defs>
    <g transform="translate(280.478397 55.57713)scale(0.2 -0.2)">
     <use xlink:href="#DejaVuSans-118"/>
    </g>
   </g>
   <g id="patch_8">
    <path d="M 343.394751 89.72168 
Q 307.283692 162.216096 271.172633 234.710512 
" style="fill:none;stroke:#000000;stroke-linecap:round;"/>
   </g>
   <g id="text_22">
    <g id="patch_9">
     <path d="M 303.283477 170.375903 
L 324.964727 170.375903 
L 324.964727 143.019653 
L 303.283477 143.019653 
z
" style="fill:#ffffff;opacity:0.9;stroke:#808080;stroke-linejoin:miter;"/>
    </g>
    <!-- A -->
    <defs>
     <path d="M 34.1875 63.1875 
L 20.796875 26.90625 
L 47.609375 26.90625 
z
M 28.609375 72.90625 
L 39.796875 72.90625 
L 67.578125 0 
L 57.328125 0 
L 50.6875 18.703125 
L 17.828125 18.703125 
L 11.1875 0 
L 0.78125 0 
z
" id="DejaVuSans-65"/>
    </defs>
    <g transform="translate(307.283477 162.216528)scale(0.2 -0.2)">
     <use xlink:href="#DejaVuSans-65"/>
    </g>
   </g>
   <g id="text_23">
    <!-- $θ$ -->
    <defs>
     <path d="M 45.515625 34.671875 
L 14.453125 34.671875 
Q 12.359375 20.0625 14.5 13.875 
Q 17.1875 6.25 24.46875 6.25 
Q 31.78125 6.25 37.359375 13.921875 
Q 42.234375 20.65625 45.515625 34.671875 
z
M 47.015625 42.96875 
Q 48.34375 56.84375 46.625 61.71875 
Q 43.953125 69.4375 36.765625 69.4375 
Q 29.296875 69.4375 23.828125 61.8125 
Q 19.53125 55.671875 16.15625 42.96875 
z
M 38.1875 76.765625 
Q 49.90625 76.765625 54.59375 66.40625 
Q 59.28125 56.109375 55.71875 37.84375 
Q 52.203125 19.625 43.453125 9.28125 
Q 34.765625 -1.125 23.046875 -1.125 
Q 11.28125 -1.125 6.640625 9.28125 
Q 2 19.625 5.515625 37.84375 
Q 9.078125 56.109375 17.71875 66.40625 
Q 26.421875 76.765625 38.1875 76.765625 
z
" id="DejaVuSans-Oblique-952"/>
    </defs>
    <g transform="translate(284.443579 227.997534)scale(0.2 -0.2)">
     <use transform="translate(0 0.234375)" xlink:href="#DejaVuSans-Oblique-952"/>
    </g>
   </g>
  </g>
 </g>
 <defs>
  <clipPath id="p9bc5ebe467">
   <rect height="443.4" width="439.4625" x="50.55" y="14.8"/>
  </clipPath>
 </defs>
</svg>
