<?xml version="1.0" encoding="utf-8" standalone="no"?>
<!DOCTYPE svg PUBLIC "-//W3C//DTD SVG 1.1//EN"
  "http://www.w3.org/Graphics/SVG/1.1/DTD/svg11.dtd">
<!-- Created with matplotlib (https://matplotlib.org/) -->
<svg height="216pt" version="1.1" viewBox="0 0 504 216" width="504pt" xmlns="http://www.w3.org/2000/svg" xmlns:xlink="http://www.w3.org/1999/xlink">
 <defs>
  <style type="text/css">
*{stroke-linecap:butt;stroke-linejoin:round;}
  </style>
 </defs>
 <g id="figure_1">
  <g id="patch_1">
   <path d="M 0 216 
L 504 216 
L 504 0 
L 0 0 
z
" style="fill:none;"/>
  </g>
  <g id="axes_1">
   <g id="patch_2">
    <path d="M 32.55 188.2 
L 482.1375 188.2 
L 482.1375 14.8 
L 32.55 14.8 
z
" style="fill:none;"/>
   </g>
   <g id="matplotlib.axis_1">
    <g id="xtick_1">
     <g id="line2d_1">
      <defs>
       <path d="M 0 0 
L 0 3.5 
" id="mcbfecb8955" style="stroke:#000000;stroke-width:0.8;"/>
      </defs>
      <g>
       <use style="stroke:#000000;stroke-width:0.8;" x="32.55" xlink:href="#mcbfecb8955" y="188.2"/>
      </g>
     </g>
     <g id="text_1">
      <!-- 0.00 -->
      <defs>
       <path d="M 31.78125 66.40625 
Q 24.171875 66.40625 20.328125 58.90625 
Q 16.5 51.421875 16.5 36.375 
Q 16.5 21.390625 20.328125 13.890625 
Q 24.171875 6.390625 31.78125 6.390625 
Q 39.453125 6.390625 43.28125 13.890625 
Q 47.125 21.390625 47.125 36.375 
Q 47.125 51.421875 43.28125 58.90625 
Q 39.453125 66.40625 31.78125 66.40625 
z
M 31.78125 74.21875 
Q 44.046875 74.21875 50.515625 64.515625 
Q 56.984375 54.828125 56.984375 36.375 
Q 56.984375 17.96875 50.515625 8.265625 
Q 44.046875 -1.421875 31.78125 -1.421875 
Q 19.53125 -1.421875 13.0625 8.265625 
Q 6.59375 17.96875 6.59375 36.375 
Q 6.59375 54.828125 13.0625 64.515625 
Q 19.53125 74.21875 31.78125 74.21875 
z
" id="DejaVuSans-48"/>
       <path d="M 10.6875 12.40625 
L 21 12.40625 
L 21 0 
L 10.6875 0 
z
" id="DejaVuSans-46"/>
      </defs>
      <g transform="translate(21.417188 202.798438)scale(0.1 -0.1)">
       <use xlink:href="#DejaVuSans-48"/>
       <use x="63.623047" xlink:href="#DejaVuSans-46"/>
       <use x="95.410156" xlink:href="#DejaVuSans-48"/>
       <use x="159.033203" xlink:href="#DejaVuSans-48"/>
      </g>
     </g>
    </g>
    <g id="xtick_2">
     <g id="line2d_2">
      <g>
       <use style="stroke:#000000;stroke-width:0.8;" x="88.748437" xlink:href="#mcbfecb8955" y="188.2"/>
      </g>
     </g>
     <g id="text_2">
      <!-- 0.25 -->
      <defs>
       <path d="M 19.1875 8.296875 
L 53.609375 8.296875 
L 53.609375 0 
L 7.328125 0 
L 7.328125 8.296875 
Q 12.9375 14.109375 22.625 23.890625 
Q 32.328125 33.6875 34.8125 36.53125 
Q 39.546875 41.84375 41.421875 45.53125 
Q 43.3125 49.21875 43.3125 52.78125 
Q 43.3125 58.59375 39.234375 62.25 
Q 35.15625 65.921875 28.609375 65.921875 
Q 23.96875 65.921875 18.8125 64.3125 
Q 13.671875 62.703125 7.8125 59.421875 
L 7.8125 69.390625 
Q 13.765625 71.78125 18.9375 73 
Q 24.125 74.21875 28.421875 74.21875 
Q 39.75 74.21875 46.484375 68.546875 
Q 53.21875 62.890625 53.21875 53.421875 
Q 53.21875 48.921875 51.53125 44.890625 
Q 49.859375 40.875 45.40625 35.40625 
Q 44.1875 33.984375 37.640625 27.21875 
Q 31.109375 20.453125 19.1875 8.296875 
z
" id="DejaVuSans-50"/>
       <path d="M 10.796875 72.90625 
L 49.515625 72.90625 
L 49.515625 64.59375 
L 19.828125 64.59375 
L 19.828125 46.734375 
Q 21.96875 47.46875 24.109375 47.828125 
Q 26.265625 48.1875 28.421875 48.1875 
Q 40.625 48.1875 47.75 41.5 
Q 54.890625 34.8125 54.890625 23.390625 
Q 54.890625 11.625 47.5625 5.09375 
Q 40.234375 -1.421875 26.90625 -1.421875 
Q 22.3125 -1.421875 17.546875 -0.640625 
Q 12.796875 0.140625 7.71875 1.703125 
L 7.71875 11.625 
Q 12.109375 9.234375 16.796875 8.0625 
Q 21.484375 6.890625 26.703125 6.890625 
Q 35.15625 6.890625 40.078125 11.328125 
Q 45.015625 15.765625 45.015625 23.390625 
Q 45.015625 31 40.078125 35.4375 
Q 35.15625 39.890625 26.703125 39.890625 
Q 22.75 39.890625 18.8125 39.015625 
Q 14.890625 38.140625 10.796875 36.28125 
z
" id="DejaVuSans-53"/>
      </defs>
      <g transform="translate(77.615625 202.798438)scale(0.1 -0.1)">
       <use xlink:href="#DejaVuSans-48"/>
       <use x="63.623047" xlink:href="#DejaVuSans-46"/>
       <use x="95.410156" xlink:href="#DejaVuSans-50"/>
       <use x="159.033203" xlink:href="#DejaVuSans-53"/>
      </g>
     </g>
    </g>
    <g id="xtick_3">
     <g id="line2d_3">
      <g>
       <use style="stroke:#000000;stroke-width:0.8;" x="144.946875" xlink:href="#mcbfecb8955" y="188.2"/>
      </g>
     </g>
     <g id="text_3">
      <!-- 0.50 -->
      <g transform="translate(133.814063 202.798438)scale(0.1 -0.1)">
       <use xlink:href="#DejaVuSans-48"/>
       <use x="63.623047" xlink:href="#DejaVuSans-46"/>
       <use x="95.410156" xlink:href="#DejaVuSans-53"/>
       <use x="159.033203" xlink:href="#DejaVuSans-48"/>
      </g>
     </g>
    </g>
    <g id="xtick_4">
     <g id="line2d_4">
      <g>
       <use style="stroke:#000000;stroke-width:0.8;" x="201.145312" xlink:href="#mcbfecb8955" y="188.2"/>
      </g>
     </g>
     <g id="text_4">
      <!-- 0.75 -->
      <defs>
       <path d="M 8.203125 72.90625 
L 55.078125 72.90625 
L 55.078125 68.703125 
L 28.609375 0 
L 18.3125 0 
L 43.21875 64.59375 
L 8.203125 64.59375 
z
" id="DejaVuSans-55"/>
      </defs>
      <g transform="translate(190.0125 202.798438)scale(0.1 -0.1)">
       <use xlink:href="#DejaVuSans-48"/>
       <use x="63.623047" xlink:href="#DejaVuSans-46"/>
       <use x="95.410156" xlink:href="#DejaVuSans-55"/>
       <use x="159.033203" xlink:href="#DejaVuSans-53"/>
      </g>
     </g>
    </g>
    <g id="xtick_5">
     <g id="line2d_5">
      <g>
       <use style="stroke:#000000;stroke-width:0.8;" x="257.34375" xlink:href="#mcbfecb8955" y="188.2"/>
      </g>
     </g>
     <g id="text_5">
      <!-- 1.00 -->
      <defs>
       <path d="M 12.40625 8.296875 
L 28.515625 8.296875 
L 28.515625 63.921875 
L 10.984375 60.40625 
L 10.984375 69.390625 
L 28.421875 72.90625 
L 38.28125 72.90625 
L 38.28125 8.296875 
L 54.390625 8.296875 
L 54.390625 0 
L 12.40625 0 
z
" id="DejaVuSans-49"/>
      </defs>
      <g transform="translate(246.210938 202.798438)scale(0.1 -0.1)">
       <use xlink:href="#DejaVuSans-49"/>
       <use x="63.623047" xlink:href="#DejaVuSans-46"/>
       <use x="95.410156" xlink:href="#DejaVuSans-48"/>
       <use x="159.033203" xlink:href="#DejaVuSans-48"/>
      </g>
     </g>
    </g>
    <g id="xtick_6">
     <g id="line2d_6">
      <g>
       <use style="stroke:#000000;stroke-width:0.8;" x="313.542188" xlink:href="#mcbfecb8955" y="188.2"/>
      </g>
     </g>
     <g id="text_6">
      <!-- 1.25 -->
      <g transform="translate(302.409375 202.798438)scale(0.1 -0.1)">
       <use xlink:href="#DejaVuSans-49"/>
       <use x="63.623047" xlink:href="#DejaVuSans-46"/>
       <use x="95.410156" xlink:href="#DejaVuSans-50"/>
       <use x="159.033203" xlink:href="#DejaVuSans-53"/>
      </g>
     </g>
    </g>
    <g id="xtick_7">
     <g id="line2d_7">
      <g>
       <use style="stroke:#000000;stroke-width:0.8;" x="369.740625" xlink:href="#mcbfecb8955" y="188.2"/>
      </g>
     </g>
     <g id="text_7">
      <!-- 1.50 -->
      <g transform="translate(358.607812 202.798438)scale(0.1 -0.1)">
       <use xlink:href="#DejaVuSans-49"/>
       <use x="63.623047" xlink:href="#DejaVuSans-46"/>
       <use x="95.410156" xlink:href="#DejaVuSans-53"/>
       <use x="159.033203" xlink:href="#DejaVuSans-48"/>
      </g>
     </g>
    </g>
    <g id="xtick_8">
     <g id="line2d_8">
      <g>
       <use style="stroke:#000000;stroke-width:0.8;" x="425.939062" xlink:href="#mcbfecb8955" y="188.2"/>
      </g>
     </g>
     <g id="text_8">
      <!-- 1.75 -->
      <g transform="translate(414.80625 202.798438)scale(0.1 -0.1)">
       <use xlink:href="#DejaVuSans-49"/>
       <use x="63.623047" xlink:href="#DejaVuSans-46"/>
       <use x="95.410156" xlink:href="#DejaVuSans-55"/>
       <use x="159.033203" xlink:href="#DejaVuSans-53"/>
      </g>
     </g>
    </g>
    <g id="xtick_9">
     <g id="line2d_9">
      <g>
       <use style="stroke:#000000;stroke-width:0.8;" x="482.1375" xlink:href="#mcbfecb8955" y="188.2"/>
      </g>
     </g>
     <g id="text_9">
      <!-- 2.00 -->
      <g transform="translate(471.004687 202.798438)scale(0.1 -0.1)">
       <use xlink:href="#DejaVuSans-50"/>
       <use x="63.623047" xlink:href="#DejaVuSans-46"/>
       <use x="95.410156" xlink:href="#DejaVuSans-48"/>
       <use x="159.033203" xlink:href="#DejaVuSans-48"/>
      </g>
     </g>
    </g>
   </g>
   <g id="matplotlib.axis_2">
    <g id="ytick_1">
     <g id="line2d_10">
      <defs>
       <path d="M 0 0 
L -3.5 0 
" id="mdd3386b985" style="stroke:#000000;stroke-width:0.8;"/>
      </defs>
      <g>
       <use style="stroke:#000000;stroke-width:0.8;" x="32.55" xlink:href="#mdd3386b985" y="188.2"/>
      </g>
     </g>
     <g id="text_10">
      <!-- −4 -->
      <defs>
       <path d="M 10.59375 35.5 
L 73.1875 35.5 
L 73.1875 27.203125 
L 10.59375 27.203125 
z
" id="DejaVuSans-8722"/>
       <path d="M 37.796875 64.3125 
L 12.890625 25.390625 
L 37.796875 25.390625 
z
M 35.203125 72.90625 
L 47.609375 72.90625 
L 47.609375 25.390625 
L 58.015625 25.390625 
L 58.015625 17.1875 
L 47.609375 17.1875 
L 47.609375 0 
L 37.796875 0 
L 37.796875 17.1875 
L 4.890625 17.1875 
L 4.890625 26.703125 
z
" id="DejaVuSans-52"/>
      </defs>
      <g transform="translate(10.807813 191.999219)scale(0.1 -0.1)">
       <use xlink:href="#DejaVuSans-8722"/>
       <use x="83.789062" xlink:href="#DejaVuSans-52"/>
      </g>
     </g>
    </g>
    <g id="ytick_2">
     <g id="line2d_11">
      <g>
       <use style="stroke:#000000;stroke-width:0.8;" x="32.55" xlink:href="#mdd3386b985" y="166.525"/>
      </g>
     </g>
     <g id="text_11">
      <!-- −3 -->
      <defs>
       <path d="M 40.578125 39.3125 
Q 47.65625 37.796875 51.625 33 
Q 55.609375 28.21875 55.609375 21.1875 
Q 55.609375 10.40625 48.1875 4.484375 
Q 40.765625 -1.421875 27.09375 -1.421875 
Q 22.515625 -1.421875 17.65625 -0.515625 
Q 12.796875 0.390625 7.625 2.203125 
L 7.625 11.71875 
Q 11.71875 9.328125 16.59375 8.109375 
Q 21.484375 6.890625 26.8125 6.890625 
Q 36.078125 6.890625 40.9375 10.546875 
Q 45.796875 14.203125 45.796875 21.1875 
Q 45.796875 27.640625 41.28125 31.265625 
Q 36.765625 34.90625 28.71875 34.90625 
L 20.21875 34.90625 
L 20.21875 43.015625 
L 29.109375 43.015625 
Q 36.375 43.015625 40.234375 45.921875 
Q 44.09375 48.828125 44.09375 54.296875 
Q 44.09375 59.90625 40.109375 62.90625 
Q 36.140625 65.921875 28.71875 65.921875 
Q 24.65625 65.921875 20.015625 65.03125 
Q 15.375 64.15625 9.8125 62.3125 
L 9.8125 71.09375 
Q 15.4375 72.65625 20.34375 73.4375 
Q 25.25 74.21875 29.59375 74.21875 
Q 40.828125 74.21875 47.359375 69.109375 
Q 53.90625 64.015625 53.90625 55.328125 
Q 53.90625 49.265625 50.4375 45.09375 
Q 46.96875 40.921875 40.578125 39.3125 
z
" id="DejaVuSans-51"/>
      </defs>
      <g transform="translate(10.807813 170.324219)scale(0.1 -0.1)">
       <use xlink:href="#DejaVuSans-8722"/>
       <use x="83.789062" xlink:href="#DejaVuSans-51"/>
      </g>
     </g>
    </g>
    <g id="ytick_3">
     <g id="line2d_12">
      <g>
       <use style="stroke:#000000;stroke-width:0.8;" x="32.55" xlink:href="#mdd3386b985" y="144.85"/>
      </g>
     </g>
     <g id="text_12">
      <!-- −2 -->
      <g transform="translate(10.807813 148.649219)scale(0.1 -0.1)">
       <use xlink:href="#DejaVuSans-8722"/>
       <use x="83.789062" xlink:href="#DejaVuSans-50"/>
      </g>
     </g>
    </g>
    <g id="ytick_4">
     <g id="line2d_13">
      <g>
       <use style="stroke:#000000;stroke-width:0.8;" x="32.55" xlink:href="#mdd3386b985" y="123.175"/>
      </g>
     </g>
     <g id="text_13">
      <!-- −1 -->
      <g transform="translate(10.807813 126.974219)scale(0.1 -0.1)">
       <use xlink:href="#DejaVuSans-8722"/>
       <use x="83.789062" xlink:href="#DejaVuSans-49"/>
      </g>
     </g>
    </g>
    <g id="ytick_5">
     <g id="line2d_14">
      <g>
       <use style="stroke:#000000;stroke-width:0.8;" x="32.55" xlink:href="#mdd3386b985" y="101.5"/>
      </g>
     </g>
     <g id="text_14">
      <!-- 0 -->
      <g transform="translate(19.1875 105.299219)scale(0.1 -0.1)">
       <use xlink:href="#DejaVuSans-48"/>
      </g>
     </g>
    </g>
    <g id="ytick_6">
     <g id="line2d_15">
      <g>
       <use style="stroke:#000000;stroke-width:0.8;" x="32.55" xlink:href="#mdd3386b985" y="79.825"/>
      </g>
     </g>
     <g id="text_15">
      <!-- 1 -->
      <g transform="translate(19.1875 83.624219)scale(0.1 -0.1)">
       <use xlink:href="#DejaVuSans-49"/>
      </g>
     </g>
    </g>
    <g id="ytick_7">
     <g id="line2d_16">
      <g>
       <use style="stroke:#000000;stroke-width:0.8;" x="32.55" xlink:href="#mdd3386b985" y="58.15"/>
      </g>
     </g>
     <g id="text_16">
      <!-- 2 -->
      <g transform="translate(19.1875 61.949219)scale(0.1 -0.1)">
       <use xlink:href="#DejaVuSans-50"/>
      </g>
     </g>
    </g>
    <g id="ytick_8">
     <g id="line2d_17">
      <g>
       <use style="stroke:#000000;stroke-width:0.8;" x="32.55" xlink:href="#mdd3386b985" y="36.475"/>
      </g>
     </g>
     <g id="text_17">
      <!-- 3 -->
      <g transform="translate(19.1875 40.274219)scale(0.1 -0.1)">
       <use xlink:href="#DejaVuSans-51"/>
      </g>
     </g>
    </g>
    <g id="ytick_9">
     <g id="line2d_18">
      <g>
       <use style="stroke:#000000;stroke-width:0.8;" x="32.55" xlink:href="#mdd3386b985" y="14.8"/>
      </g>
     </g>
     <g id="text_18">
      <!-- 4 -->
      <g transform="translate(19.1875 18.599219)scale(0.1 -0.1)">
       <use xlink:href="#DejaVuSans-52"/>
      </g>
     </g>
    </g>
   </g>
   <g id="line2d_19">
    <path clip-path="url(#pdd43bc5c1d)" d="M 32.55 101.5 
L 37.091288 89.666811 
L 41.632576 78.130899 
L 46.173864 67.18207 
L 50.715152 57.095384 
L 55.256439 48.12424 
L 59.797727 40.494015 
L 64.339015 34.396395 
L 68.880303 29.984567 
L 73.421591 27.369365 
L 77.962879 26.61649 
L 82.504167 27.744855 
L 87.045455 30.726113 
L 91.586742 35.485369 
L 96.12803 41.903059 
L 100.669318 49.817956 
L 105.210606 59.031221 
L 109.751894 69.311397 
L 114.293182 80.400221 
L 118.83447 92.019119 
L 123.375758 103.876198 
L 127.917045 115.673581 
L 132.458333 127.114893 
L 136.999621 137.912701 
L 141.540909 147.795742 
L 146.082197 156.51573 
L 150.623485 163.853601 
L 155.164773 169.625012 
L 159.706061 173.68497 
L 164.247348 175.931481 
L 168.788636 176.308108 
L 173.329924 174.80539 
L 177.871212 171.461077 
L 182.4125 166.359186 
L 186.953788 159.627888 
L 191.495076 151.436289 
L 196.036364 141.990179 
L 200.577652 131.526865 
L 205.118939 120.30921 
L 209.660227 108.619026 
L 214.201515 96.749996 
L 218.742803 85.000297 
L 223.284091 73.665107 
L 227.825379 63.029192 
L 232.366667 53.359748 
L 236.907955 44.899695 
L 241.449242 37.861567 
L 245.99053 32.422178 
L 250.531818 28.718178 
L 255.073106 26.842618 
L 259.614394 26.842618 
L 264.155682 28.718178 
L 268.69697 32.422178 
L 273.238258 37.861567 
L 277.779545 44.899695 
L 282.320833 53.359748 
L 286.862121 63.029192 
L 291.403409 73.665107 
L 295.944697 85.000297 
L 300.485985 96.749996 
L 305.027273 108.619026 
L 309.568561 120.30921 
L 314.109848 131.526865 
L 318.651136 141.990179 
L 323.192424 151.436289 
L 327.733712 159.627888 
L 332.275 166.359186 
L 336.816288 171.461077 
L 341.357576 174.80539 
L 345.898864 176.308108 
L 350.440152 175.931481 
L 354.981439 173.68497 
L 359.522727 169.625012 
L 364.064015 163.853601 
L 368.605303 156.51573 
L 373.146591 147.795742 
L 377.687879 137.912701 
L 382.229167 127.114893 
L 386.770455 115.673581 
L 391.311742 103.876198 
L 395.85303 92.019119 
L 400.394318 80.400221 
L 404.935606 69.311397 
L 409.476894 59.031221 
L 414.018182 49.817956 
L 418.55947 41.903059 
L 423.100758 35.485369 
L 427.642045 30.726113 
L 432.183333 27.744855 
L 436.724621 26.61649 
L 441.265909 27.369365 
L 445.807197 29.984567 
L 450.348485 34.396395 
L 454.889773 40.494015 
L 459.431061 48.12424 
L 463.972348 57.095384 
L 468.513636 67.18207 
L 473.054924 78.130899 
L 477.596212 89.666811 
L 482.1375 101.5 
" style="fill:none;stroke:#0000ff;stroke-linecap:square;stroke-width:2;"/>
   </g>
   <g id="line2d_20">
    <path clip-path="url(#pdd43bc5c1d)" d="M 32.55 101.5 
L 37.091288 94.755301 
L 41.632576 88.180045 
L 46.173864 81.939415 
L 50.715152 76.19019 
L 55.256439 71.076804 
L 59.797727 66.727717 
L 64.339015 63.252186 
L 68.880303 60.737526 
L 73.421591 59.246909 
L 77.962879 58.817784 
L 82.504167 59.460932 
L 87.045455 61.160194 
L 91.586742 63.872881 
L 96.12803 67.530846 
L 100.669318 72.042191 
L 105.210606 77.293582 
L 109.751894 83.153092 
L 114.293182 89.473516 
L 118.83447 96.096073 
L 123.375758 102.854389 
L 127.917045 109.578679 
L 132.458333 116.100015 
L 136.999621 122.254566 
L 141.540909 127.887717 
L 146.082197 132.857949 
L 150.623485 137.0404 
L 155.164773 140.329997 
L 159.706061 142.644098 
L 164.247348 143.924568 
L 168.788636 144.139238 
L 173.329924 143.282716 
L 177.871212 141.37652 
L 182.4125 138.468536 
L 186.953788 134.631821 
L 191.495076 129.962761 
L 196.036364 124.578653 
L 200.577652 118.614758 
L 205.118939 112.220902 
L 209.660227 105.557713 
L 214.201515 98.792586 
L 218.742803 92.095475 
L 223.284091 85.634626 
L 227.825379 79.572351 
L 232.366667 74.060947 
L 236.907955 69.238873 
L 241.449242 65.22727 
L 245.99053 62.126919 
L 250.531818 60.015707 
L 255.073106 58.946673 
L 259.614394 58.946673 
L 264.155682 60.015707 
L 268.69697 62.126919 
L 273.238258 65.22727 
L 277.779545 69.238873 
L 282.320833 74.060947 
L 286.862121 79.572351 
L 291.403409 85.634626 
L 295.944697 92.095475 
L 300.485985 98.792586 
L 305.027273 105.557713 
L 309.568561 112.220902 
L 314.109848 118.614758 
L 318.651136 124.578653 
L 323.192424 129.962761 
L 327.733712 134.631821 
L 332.275 138.468536 
L 336.816288 141.37652 
L 341.357576 143.282716 
L 345.898864 144.139238 
L 350.440152 143.924568 
L 354.981439 142.644098 
L 359.522727 140.329997 
L 364.064015 137.0404 
L 368.605303 132.857949 
L 373.146591 127.887717 
L 377.687879 122.254566 
L 382.229167 116.100015 
L 386.770455 109.578679 
L 391.311742 102.854389 
L 395.85303 96.096073 
L 400.394318 89.473516 
L 404.935606 83.153092 
L 409.476894 77.293582 
L 414.018182 72.042191 
L 418.55947 67.530846 
L 423.100758 63.872881 
L 427.642045 61.160194 
L 432.183333 59.460932 
L 436.724621 58.817784 
L 441.265909 59.246909 
L 445.807197 60.737526 
L 450.348485 63.252186 
L 454.889773 66.727717 
L 459.431061 71.076804 
L 463.972348 76.19019 
L 468.513636 81.939415 
L 473.054924 88.180045 
L 477.596212 94.755301 
L 482.1375 101.5 
" style="fill:none;stroke:#0000ff;stroke-linecap:square;stroke-opacity:0.6;stroke-width:2;"/>
   </g>
   <g id="line2d_21">
    <path clip-path="url(#pdd43bc5c1d)" d="M 32.55 101.5 
L 37.091288 101.680817 
L 41.632576 101.857092 
L 46.173864 102.024396 
L 50.715152 102.178526 
L 55.256439 102.31561 
L 59.797727 102.432204 
L 64.339015 102.525379 
L 68.880303 102.592794 
L 73.421591 102.632756 
L 77.962879 102.64426 
L 82.504167 102.627018 
L 87.045455 102.581463 
L 91.586742 102.508739 
L 96.12803 102.410673 
L 100.669318 102.289729 
L 105.210606 102.148946 
L 109.751894 101.991859 
L 114.293182 101.822416 
L 118.83447 101.644873 
L 123.375758 101.46369 
L 127.917045 101.28342 
L 132.458333 101.108591 
L 136.999621 100.943594 
L 141.540909 100.792576 
L 146.082197 100.65933 
L 150.623485 100.547204 
L 155.164773 100.459013 
L 159.706061 100.396975 
L 164.247348 100.362647 
L 168.788636 100.356892 
L 173.329924 100.379854 
L 177.871212 100.430957 
L 182.4125 100.508917 
L 186.953788 100.611775 
L 191.495076 100.736947 
L 196.036364 100.881288 
L 200.577652 101.041173 
L 205.118939 101.212585 
L 209.660227 101.391217 
L 214.201515 101.572583 
L 218.742803 101.752124 
L 223.284091 101.925332 
L 227.825379 102.087855 
L 232.366667 102.235609 
L 236.907955 102.364883 
L 241.449242 102.472429 
L 245.99053 102.555546 
L 250.531818 102.612145 
L 255.073106 102.640805 
L 259.614394 102.640805 
L 264.155682 102.612145 
L 268.69697 102.555546 
L 273.238258 102.472429 
L 277.779545 102.364883 
L 282.320833 102.235609 
L 286.862121 102.087855 
L 291.403409 101.925332 
L 295.944697 101.752124 
L 300.485985 101.572583 
L 305.027273 101.391217 
L 309.568561 101.212585 
L 314.109848 101.041173 
L 318.651136 100.881288 
L 323.192424 100.736947 
L 327.733712 100.611775 
L 332.275 100.508917 
L 336.816288 100.430957 
L 341.357576 100.379854 
L 345.898864 100.356892 
L 350.440152 100.362647 
L 354.981439 100.396975 
L 359.522727 100.459013 
L 364.064015 100.547204 
L 368.605303 100.65933 
L 373.146591 100.792576 
L 377.687879 100.943594 
L 382.229167 101.108591 
L 386.770455 101.28342 
L 391.311742 101.46369 
L 395.85303 101.644873 
L 400.394318 101.822416 
L 404.935606 101.991859 
L 409.476894 102.148946 
L 414.018182 102.289729 
L 418.55947 102.410673 
L 423.100758 102.508739 
L 427.642045 102.581463 
L 432.183333 102.627018 
L 436.724621 102.64426 
L 441.265909 102.632756 
L 445.807197 102.592794 
L 450.348485 102.525379 
L 454.889773 102.432204 
L 459.431061 102.31561 
L 463.972348 102.178526 
L 468.513636 102.024396 
L 473.054924 101.857092 
L 477.596212 101.680817 
L 482.1375 101.5 
" style="fill:none;stroke:#0000ff;stroke-linecap:square;stroke-opacity:0.4;stroke-width:2;"/>
   </g>
   <g id="line2d_22">
    <path clip-path="url(#pdd43bc5c1d)" d="M 32.55 101.5 
L 37.091288 108.557085 
L 41.632576 115.43688 
L 46.173864 121.96655 
L 50.715152 127.982055 
L 55.256439 133.332272 
L 59.797727 137.882791 
L 64.339015 141.519293 
L 68.880303 144.150422 
L 73.421591 145.710078 
L 77.962879 146.159078 
L 82.504167 145.486143 
L 87.045455 143.708178 
L 91.586742 140.86985 
L 96.12803 137.042464 
L 100.669318 132.322172 
L 105.210606 126.827559 
L 109.751894 120.696661 
L 114.293182 114.0835 
L 118.83447 107.154214 
L 123.375758 100.082881 
L 127.917045 93.04715 
L 132.458333 86.223773 
L 136.999621 79.784168 
L 141.540909 73.890114 
L 146.082197 68.689681 
L 150.623485 64.313517 
L 155.164773 60.87156 
L 159.706061 58.450279 
L 164.247348 57.110503 
L 168.788636 56.88589 
L 173.329924 57.782082 
L 177.871212 59.776566 
L 182.4125 62.819235 
L 186.953788 66.833651 
L 191.495076 71.718962 
L 196.036364 77.35244 
L 200.577652 83.592558 
L 205.118939 90.28255 
L 209.660227 97.25435 
L 214.201515 104.33281 
L 218.742803 111.340104 
L 223.284091 118.100192 
L 227.825379 124.443247 
L 232.366667 130.209916 
L 236.907955 135.255328 
L 241.449242 139.452732 
L 245.99053 142.696678 
L 250.531818 144.905672 
L 255.073106 146.02422 
L 259.614394 146.02422 
L 264.155682 144.905672 
L 268.69697 142.696678 
L 273.238258 139.452732 
L 277.779545 135.255328 
L 282.320833 130.209916 
L 286.862121 124.443247 
L 291.403409 118.100192 
L 295.944697 111.340104 
L 300.485985 104.33281 
L 305.027273 97.25435 
L 309.568561 90.28255 
L 314.109848 83.592558 
L 318.651136 77.35244 
L 323.192424 71.718962 
L 327.733712 66.833651 
L 332.275 62.819235 
L 336.816288 59.776566 
L 341.357576 57.782082 
L 345.898864 56.88589 
L 350.440152 57.110503 
L 354.981439 58.450279 
L 359.522727 60.87156 
L 364.064015 64.313517 
L 368.605303 68.689681 
L 373.146591 73.890114 
L 377.687879 79.784168 
L 382.229167 86.223773 
L 386.770455 93.04715 
L 391.311742 100.082881 
L 395.85303 107.154214 
L 400.394318 114.0835 
L 404.935606 120.696661 
L 409.476894 126.827559 
L 414.018182 132.322172 
L 418.55947 137.042464 
L 423.100758 140.86985 
L 427.642045 143.708178 
L 432.183333 145.486143 
L 436.724621 146.159078 
L 441.265909 145.710078 
L 445.807197 144.150422 
L 450.348485 141.519293 
L 454.889773 137.882791 
L 459.431061 133.332272 
L 463.972348 127.982055 
L 468.513636 121.96655 
L 473.054924 115.43688 
L 477.596212 108.557085 
L 482.1375 101.5 
" style="fill:none;stroke:#0000ff;stroke-linecap:square;stroke-opacity:0.2;stroke-width:2;"/>
   </g>
   <g id="line2d_23">
    <path clip-path="url(#pdd43bc5c1d)" d="M 32.55 101.5 
L 37.091288 113.511243 
L 41.632576 125.220737 
L 46.173864 136.334313 
L 50.715152 146.572774 
L 55.256439 155.678907 
L 59.797727 163.423945 
L 64.339015 169.613316 
L 68.880303 174.091529 
L 73.421591 176.746081 
L 77.962879 177.510285 
L 82.504167 176.364941 
L 87.045455 173.338824 
L 91.586742 168.507956 
L 96.12803 161.993699 
L 100.669318 153.959706 
L 105.210606 144.607808 
L 109.751894 134.172946 
L 114.293182 122.917268 
L 118.83447 111.12354 
L 123.375758 99.088047 
L 127.917045 87.113148 
L 132.458333 75.499679 
L 136.999621 64.539395 
L 141.540909 54.507644 
L 146.082197 45.656446 
L 150.623485 38.208161 
L 155.164773 32.349909 
L 159.706061 28.22886 
L 164.247348 25.948545 
L 168.788636 25.566251 
L 173.329924 27.091581 
L 177.871212 30.486216 
L 182.4125 35.664875 
L 186.953788 42.497459 
L 191.495076 50.812318 
L 196.036364 60.400564 
L 200.577652 71.021319 
L 205.118939 82.407767 
L 209.660227 94.273853 
L 214.201515 106.321477 
L 218.742803 118.247974 
L 223.284091 129.753726 
L 227.825379 140.54968 
L 232.366667 150.36462 
L 236.907955 158.951972 
L 241.449242 166.096003 
L 245.99053 171.617239 
L 250.531818 175.376973 
L 255.073106 177.280754 
L 259.614394 177.280754 
L 264.155682 175.376973 
L 268.69697 171.617239 
L 273.238258 166.096003 
L 277.779545 158.951972 
L 282.320833 150.36462 
L 286.862121 140.54968 
L 291.403409 129.753726 
L 295.944697 118.247974 
L 300.485985 106.321477 
L 305.027273 94.273853 
L 309.568561 82.407767 
L 314.109848 71.021319 
L 318.651136 60.400564 
L 323.192424 50.812318 
L 327.733712 42.497459 
L 332.275 35.664875 
L 336.816288 30.486216 
L 341.357576 27.091581 
L 345.898864 25.566251 
L 350.440152 25.948545 
L 354.981439 28.22886 
L 359.522727 32.349909 
L 364.064015 38.208161 
L 368.605303 45.656446 
L 373.146591 54.507644 
L 377.687879 64.539395 
L 382.229167 75.499679 
L 386.770455 87.113148 
L 391.311742 99.088047 
L 395.85303 111.12354 
L 400.394318 122.917268 
L 404.935606 134.172946 
L 409.476894 144.607808 
L 414.018182 153.959706 
L 418.55947 161.993699 
L 423.100758 168.507956 
L 427.642045 173.338824 
L 432.183333 176.364941 
L 436.724621 177.510285 
L 441.265909 176.746081 
L 445.807197 174.091529 
L 450.348485 169.613316 
L 454.889773 163.423945 
L 459.431061 155.678907 
L 463.972348 146.572774 
L 468.513636 136.334313 
L 473.054924 125.220737 
L 477.596212 113.511243 
L 482.1375 101.5 
" style="fill:none;stroke:#0000ff;stroke-linecap:square;stroke-opacity:0.1;stroke-width:2;"/>
   </g>
   <g id="line2d_24">
    <path clip-path="url(#pdd43bc5c1d)" d="M 122.4675 188.2 
L 122.4675 14.8 
" style="fill:none;stroke:#ff0000;stroke-dasharray:1.85,0.8;stroke-dashoffset:0;stroke-width:0.5;"/>
   </g>
   <g id="line2d_25">
    <path clip-path="url(#pdd43bc5c1d)" d="M 212.385 188.2 
L 212.385 14.8 
" style="fill:none;stroke:#ff0000;stroke-dasharray:1.85,0.8;stroke-dashoffset:0;stroke-width:0.5;"/>
   </g>
   <g id="line2d_26">
    <path clip-path="url(#pdd43bc5c1d)" d="M 302.3025 188.2 
L 302.3025 14.8 
" style="fill:none;stroke:#ff0000;stroke-dasharray:1.85,0.8;stroke-dashoffset:0;stroke-width:0.5;"/>
   </g>
   <g id="line2d_27">
    <path clip-path="url(#pdd43bc5c1d)" d="M 392.22 188.2 
L 392.22 14.8 
" style="fill:none;stroke:#ff0000;stroke-dasharray:1.85,0.8;stroke-dashoffset:0;stroke-width:0.5;"/>
   </g>
   <g id="line2d_28">
    <path clip-path="url(#pdd43bc5c1d)" d="M 77.50875 188.2 
L 77.50875 14.8 
" style="fill:none;stroke:#0000ff;stroke-dasharray:1.85,0.8;stroke-dashoffset:0;stroke-width:0.5;"/>
   </g>
   <g id="line2d_29">
    <path clip-path="url(#pdd43bc5c1d)" d="M 167.42625 188.2 
L 167.42625 14.8 
" style="fill:none;stroke:#0000ff;stroke-dasharray:1.85,0.8;stroke-dashoffset:0;stroke-width:0.5;"/>
   </g>
   <g id="line2d_30">
    <path clip-path="url(#pdd43bc5c1d)" d="M 257.34375 188.2 
L 257.34375 14.8 
" style="fill:none;stroke:#0000ff;stroke-dasharray:1.85,0.8;stroke-dashoffset:0;stroke-width:0.5;"/>
   </g>
   <g id="line2d_31">
    <path clip-path="url(#pdd43bc5c1d)" d="M 347.26125 188.2 
L 347.26125 14.8 
" style="fill:none;stroke:#0000ff;stroke-dasharray:1.85,0.8;stroke-dashoffset:0;stroke-width:0.5;"/>
   </g>
   <g id="line2d_32">
    <path clip-path="url(#pdd43bc5c1d)" d="M 437.17875 188.2 
L 437.17875 14.8 
" style="fill:none;stroke:#0000ff;stroke-dasharray:1.85,0.8;stroke-dashoffset:0;stroke-width:0.5;"/>
   </g>
   <g id="patch_3">
    <path d="M 32.55 188.2 
L 32.55 14.8 
" style="fill:none;stroke:#000000;stroke-linecap:square;stroke-linejoin:miter;stroke-width:0.8;"/>
   </g>
   <g id="patch_4">
    <path d="M 482.1375 188.2 
L 482.1375 14.8 
" style="fill:none;stroke:#000000;stroke-linecap:square;stroke-linejoin:miter;stroke-width:0.8;"/>
   </g>
   <g id="patch_5">
    <path d="M 32.55 188.2 
L 482.1375 188.2 
" style="fill:none;stroke:#000000;stroke-linecap:square;stroke-linejoin:miter;stroke-width:0.8;"/>
   </g>
   <g id="patch_6">
    <path d="M 32.55 14.8 
L 482.1375 14.8 
" style="fill:none;stroke:#000000;stroke-linecap:square;stroke-linejoin:miter;stroke-width:0.8;"/>
   </g>
   <g id="text_19">
    <g id="patch_7">
     <path d="M 116.856562 178.283594 
L 128.078438 178.283594 
Q 132.578438 178.283594 132.578438 173.783594 
L 132.578438 159.266406 
Q 132.578438 154.766406 128.078438 154.766406 
L 116.856562 154.766406 
Q 112.356562 154.766406 112.356562 159.266406 
L 112.356562 173.783594 
Q 112.356562 178.283594 116.856562 178.283594 
z
" style="fill:#ffffff;stroke:#ffffff;stroke-linejoin:miter;stroke-width:2;"/>
    </g>
    <!-- N -->
    <defs>
     <path d="M 9.8125 72.90625 
L 23.09375 72.90625 
L 55.421875 11.921875 
L 55.421875 72.90625 
L 64.984375 72.90625 
L 64.984375 0 
L 51.703125 0 
L 19.390625 60.984375 
L 19.390625 0 
L 9.8125 0 
z
" id="DejaVuSans-78"/>
    </defs>
    <g transform="translate(116.856562 170.664062)scale(0.15 -0.15)">
     <use xlink:href="#DejaVuSans-78"/>
    </g>
   </g>
   <g id="text_20">
    <g id="patch_8">
     <path d="M 206.774063 178.283594 
L 217.995938 178.283594 
Q 222.495938 178.283594 222.495938 173.783594 
L 222.495938 159.266406 
Q 222.495938 154.766406 217.995938 154.766406 
L 206.774063 154.766406 
Q 202.274063 154.766406 202.274063 159.266406 
L 202.274063 173.783594 
Q 202.274063 178.283594 206.774063 178.283594 
z
" style="fill:#ffffff;stroke:#ffffff;stroke-linejoin:miter;stroke-width:2;"/>
    </g>
    <!-- N -->
    <g transform="translate(206.774063 170.664062)scale(0.15 -0.15)">
     <use xlink:href="#DejaVuSans-78"/>
    </g>
   </g>
   <g id="text_21">
    <g id="patch_9">
     <path d="M 296.691563 178.283594 
L 307.913438 178.283594 
Q 312.413438 178.283594 312.413438 173.783594 
L 312.413438 159.266406 
Q 312.413438 154.766406 307.913438 154.766406 
L 296.691563 154.766406 
Q 292.191563 154.766406 292.191563 159.266406 
L 292.191563 173.783594 
Q 292.191563 178.283594 296.691563 178.283594 
z
" style="fill:#ffffff;stroke:#ffffff;stroke-linejoin:miter;stroke-width:2;"/>
    </g>
    <!-- N -->
    <g transform="translate(296.691563 170.664062)scale(0.15 -0.15)">
     <use xlink:href="#DejaVuSans-78"/>
    </g>
   </g>
   <g id="text_22">
    <g id="patch_10">
     <path d="M 386.609063 178.283594 
L 397.830938 178.283594 
Q 402.330938 178.283594 402.330938 173.783594 
L 402.330938 159.266406 
Q 402.330938 154.766406 397.830938 154.766406 
L 386.609063 154.766406 
Q 382.109063 154.766406 382.109063 159.266406 
L 382.109063 173.783594 
Q 382.109063 178.283594 386.609063 178.283594 
z
" style="fill:#ffffff;stroke:#ffffff;stroke-linejoin:miter;stroke-width:2;"/>
    </g>
    <!-- N -->
    <g transform="translate(386.609063 170.664062)scale(0.15 -0.15)">
     <use xlink:href="#DejaVuSans-78"/>
    </g>
   </g>
   <g id="text_23">
    <g id="patch_11">
     <path d="M 72.378281 178.283594 
L 82.639219 178.283594 
Q 87.139219 178.283594 87.139219 173.783594 
L 87.139219 159.266406 
Q 87.139219 154.766406 82.639219 154.766406 
L 72.378281 154.766406 
Q 67.878281 154.766406 67.878281 159.266406 
L 67.878281 173.783594 
Q 67.878281 178.283594 72.378281 178.283594 
z
" style="fill:#ffffff;stroke:#ffffff;stroke-linejoin:miter;stroke-width:2;"/>
    </g>
    <!-- A -->
    <defs>
     <path d="M 34.1875 63.1875 
L 20.796875 26.90625 
L 47.609375 26.90625 
z
M 28.609375 72.90625 
L 39.796875 72.90625 
L 67.578125 0 
L 57.328125 0 
L 50.6875 18.703125 
L 17.828125 18.703125 
L 11.1875 0 
L 0.78125 0 
z
" id="DejaVuSans-65"/>
    </defs>
    <g transform="translate(72.378281 170.664062)scale(0.15 -0.15)">
     <use xlink:href="#DejaVuSans-65"/>
    </g>
   </g>
   <g id="text_24">
    <g id="patch_12">
     <path d="M 162.295781 178.283594 
L 172.556719 178.283594 
Q 177.056719 178.283594 177.056719 173.783594 
L 177.056719 159.266406 
Q 177.056719 154.766406 172.556719 154.766406 
L 162.295781 154.766406 
Q 157.795781 154.766406 157.795781 159.266406 
L 157.795781 173.783594 
Q 157.795781 178.283594 162.295781 178.283594 
z
" style="fill:#ffffff;stroke:#ffffff;stroke-linejoin:miter;stroke-width:2;"/>
    </g>
    <!-- A -->
    <g transform="translate(162.295781 170.664062)scale(0.15 -0.15)">
     <use xlink:href="#DejaVuSans-65"/>
    </g>
   </g>
   <g id="text_25">
    <g id="patch_13">
     <path d="M 252.213281 178.283594 
L 262.474219 178.283594 
Q 266.974219 178.283594 266.974219 173.783594 
L 266.974219 159.266406 
Q 266.974219 154.766406 262.474219 154.766406 
L 252.213281 154.766406 
Q 247.713281 154.766406 247.713281 159.266406 
L 247.713281 173.783594 
Q 247.713281 178.283594 252.213281 178.283594 
z
" style="fill:#ffffff;stroke:#ffffff;stroke-linejoin:miter;stroke-width:2;"/>
    </g>
    <!-- A -->
    <g transform="translate(252.213281 170.664062)scale(0.15 -0.15)">
     <use xlink:href="#DejaVuSans-65"/>
    </g>
   </g>
   <g id="text_26">
    <g id="patch_14">
     <path d="M 342.130781 178.283594 
L 352.391719 178.283594 
Q 356.891719 178.283594 356.891719 173.783594 
L 356.891719 159.266406 
Q 356.891719 154.766406 352.391719 154.766406 
L 342.130781 154.766406 
Q 337.630781 154.766406 337.630781 159.266406 
L 337.630781 173.783594 
Q 337.630781 178.283594 342.130781 178.283594 
z
" style="fill:#ffffff;stroke:#ffffff;stroke-linejoin:miter;stroke-width:2;"/>
    </g>
    <!-- A -->
    <g transform="translate(342.130781 170.664062)scale(0.15 -0.15)">
     <use xlink:href="#DejaVuSans-65"/>
    </g>
   </g>
   <g id="text_27">
    <g id="patch_15">
     <path d="M 432.048281 178.283594 
L 442.309219 178.283594 
Q 446.809219 178.283594 446.809219 173.783594 
L 446.809219 159.266406 
Q 446.809219 154.766406 442.309219 154.766406 
L 432.048281 154.766406 
Q 427.548281 154.766406 427.548281 159.266406 
L 427.548281 173.783594 
Q 427.548281 178.283594 432.048281 178.283594 
z
" style="fill:#ffffff;stroke:#ffffff;stroke-linejoin:miter;stroke-width:2;"/>
    </g>
    <!-- A -->
    <g transform="translate(432.048281 170.664062)scale(0.15 -0.15)">
     <use xlink:href="#DejaVuSans-65"/>
    </g>
   </g>
  </g>
 </g>
 <defs>
  <clipPath id="pdd43bc5c1d">
   <rect height="173.4" width="449.5875" x="32.55" y="14.8"/>
  </clipPath>
 </defs>
</svg>
