<?xml version="1.0" encoding="utf-8" standalone="no"?>
<!DOCTYPE svg PUBLIC "-//W3C//DTD SVG 1.1//EN"
  "http://www.w3.org/Graphics/SVG/1.1/DTD/svg11.dtd">
<!-- Created with matplotlib (https://matplotlib.org/) -->
<svg height="216pt" version="1.1" viewBox="0 0 504 216" width="504pt" xmlns="http://www.w3.org/2000/svg" xmlns:xlink="http://www.w3.org/1999/xlink">
 <defs>
  <style type="text/css">
*{stroke-linecap:butt;stroke-linejoin:round;}
  </style>
 </defs>
 <g id="figure_1">
  <g id="patch_1">
   <path d="M 0 216 
L 504 216 
L 504 0 
L 0 0 
z
" style="fill:none;"/>
  </g>
  <g id="axes_1">
   <g id="patch_2">
    <path d="M 32.55 188.2 
L 482.0125 188.2 
L 482.0125 14.8 
L 32.55 14.8 
z
" style="fill:none;"/>
   </g>
   <g id="matplotlib.axis_1">
    <g id="xtick_1">
     <g id="line2d_1">
      <defs>
       <path d="M 0 0 
L 0 3.5 
" id="m78324742d9" style="stroke:#000000;stroke-width:0.8;"/>
      </defs>
      <g>
       <use style="stroke:#000000;stroke-width:0.8;" x="32.55" xlink:href="#m78324742d9" y="188.2"/>
      </g>
     </g>
     <g id="text_1">
      <!-- 0.00 -->
      <defs>
       <path d="M 31.78125 66.40625 
Q 24.171875 66.40625 20.328125 58.90625 
Q 16.5 51.421875 16.5 36.375 
Q 16.5 21.390625 20.328125 13.890625 
Q 24.171875 6.390625 31.78125 6.390625 
Q 39.453125 6.390625 43.28125 13.890625 
Q 47.125 21.390625 47.125 36.375 
Q 47.125 51.421875 43.28125 58.90625 
Q 39.453125 66.40625 31.78125 66.40625 
z
M 31.78125 74.21875 
Q 44.046875 74.21875 50.515625 64.515625 
Q 56.984375 54.828125 56.984375 36.375 
Q 56.984375 17.96875 50.515625 8.265625 
Q 44.046875 -1.421875 31.78125 -1.421875 
Q 19.53125 -1.421875 13.0625 8.265625 
Q 6.59375 17.96875 6.59375 36.375 
Q 6.59375 54.828125 13.0625 64.515625 
Q 19.53125 74.21875 31.78125 74.21875 
z
" id="DejaVuSans-48"/>
       <path d="M 10.6875 12.40625 
L 21 12.40625 
L 21 0 
L 10.6875 0 
z
" id="DejaVuSans-46"/>
      </defs>
      <g transform="translate(21.417188 202.798438)scale(0.1 -0.1)">
       <use xlink:href="#DejaVuSans-48"/>
       <use x="63.623047" xlink:href="#DejaVuSans-46"/>
       <use x="95.410156" xlink:href="#DejaVuSans-48"/>
       <use x="159.033203" xlink:href="#DejaVuSans-48"/>
      </g>
     </g>
    </g>
    <g id="xtick_2">
     <g id="line2d_2">
      <g>
       <use style="stroke:#000000;stroke-width:0.8;" x="88.732812" xlink:href="#m78324742d9" y="188.2"/>
      </g>
     </g>
     <g id="text_2">
      <!-- 0.25 -->
      <defs>
       <path d="M 19.1875 8.296875 
L 53.609375 8.296875 
L 53.609375 0 
L 7.328125 0 
L 7.328125 8.296875 
Q 12.9375 14.109375 22.625 23.890625 
Q 32.328125 33.6875 34.8125 36.53125 
Q 39.546875 41.84375 41.421875 45.53125 
Q 43.3125 49.21875 43.3125 52.78125 
Q 43.3125 58.59375 39.234375 62.25 
Q 35.15625 65.921875 28.609375 65.921875 
Q 23.96875 65.921875 18.8125 64.3125 
Q 13.671875 62.703125 7.8125 59.421875 
L 7.8125 69.390625 
Q 13.765625 71.78125 18.9375 73 
Q 24.125 74.21875 28.421875 74.21875 
Q 39.75 74.21875 46.484375 68.546875 
Q 53.21875 62.890625 53.21875 53.421875 
Q 53.21875 48.921875 51.53125 44.890625 
Q 49.859375 40.875 45.40625 35.40625 
Q 44.1875 33.984375 37.640625 27.21875 
Q 31.109375 20.453125 19.1875 8.296875 
z
" id="DejaVuSans-50"/>
       <path d="M 10.796875 72.90625 
L 49.515625 72.90625 
L 49.515625 64.59375 
L 19.828125 64.59375 
L 19.828125 46.734375 
Q 21.96875 47.46875 24.109375 47.828125 
Q 26.265625 48.1875 28.421875 48.1875 
Q 40.625 48.1875 47.75 41.5 
Q 54.890625 34.8125 54.890625 23.390625 
Q 54.890625 11.625 47.5625 5.09375 
Q 40.234375 -1.421875 26.90625 -1.421875 
Q 22.3125 -1.421875 17.546875 -0.640625 
Q 12.796875 0.140625 7.71875 1.703125 
L 7.71875 11.625 
Q 12.109375 9.234375 16.796875 8.0625 
Q 21.484375 6.890625 26.703125 6.890625 
Q 35.15625 6.890625 40.078125 11.328125 
Q 45.015625 15.765625 45.015625 23.390625 
Q 45.015625 31 40.078125 35.4375 
Q 35.15625 39.890625 26.703125 39.890625 
Q 22.75 39.890625 18.8125 39.015625 
Q 14.890625 38.140625 10.796875 36.28125 
z
" id="DejaVuSans-53"/>
      </defs>
      <g transform="translate(77.6 202.798438)scale(0.1 -0.1)">
       <use xlink:href="#DejaVuSans-48"/>
       <use x="63.623047" xlink:href="#DejaVuSans-46"/>
       <use x="95.410156" xlink:href="#DejaVuSans-50"/>
       <use x="159.033203" xlink:href="#DejaVuSans-53"/>
      </g>
     </g>
    </g>
    <g id="xtick_3">
     <g id="line2d_3">
      <g>
       <use style="stroke:#000000;stroke-width:0.8;" x="144.915625" xlink:href="#m78324742d9" y="188.2"/>
      </g>
     </g>
     <g id="text_3">
      <!-- 0.50 -->
      <g transform="translate(133.782813 202.798438)scale(0.1 -0.1)">
       <use xlink:href="#DejaVuSans-48"/>
       <use x="63.623047" xlink:href="#DejaVuSans-46"/>
       <use x="95.410156" xlink:href="#DejaVuSans-53"/>
       <use x="159.033203" xlink:href="#DejaVuSans-48"/>
      </g>
     </g>
    </g>
    <g id="xtick_4">
     <g id="line2d_4">
      <g>
       <use style="stroke:#000000;stroke-width:0.8;" x="201.098437" xlink:href="#m78324742d9" y="188.2"/>
      </g>
     </g>
     <g id="text_4">
      <!-- 0.75 -->
      <defs>
       <path d="M 8.203125 72.90625 
L 55.078125 72.90625 
L 55.078125 68.703125 
L 28.609375 0 
L 18.3125 0 
L 43.21875 64.59375 
L 8.203125 64.59375 
z
" id="DejaVuSans-55"/>
      </defs>
      <g transform="translate(189.965625 202.798438)scale(0.1 -0.1)">
       <use xlink:href="#DejaVuSans-48"/>
       <use x="63.623047" xlink:href="#DejaVuSans-46"/>
       <use x="95.410156" xlink:href="#DejaVuSans-55"/>
       <use x="159.033203" xlink:href="#DejaVuSans-53"/>
      </g>
     </g>
    </g>
    <g id="xtick_5">
     <g id="line2d_5">
      <g>
       <use style="stroke:#000000;stroke-width:0.8;" x="257.28125" xlink:href="#m78324742d9" y="188.2"/>
      </g>
     </g>
     <g id="text_5">
      <!-- 1.00 -->
      <defs>
       <path d="M 12.40625 8.296875 
L 28.515625 8.296875 
L 28.515625 63.921875 
L 10.984375 60.40625 
L 10.984375 69.390625 
L 28.421875 72.90625 
L 38.28125 72.90625 
L 38.28125 8.296875 
L 54.390625 8.296875 
L 54.390625 0 
L 12.40625 0 
z
" id="DejaVuSans-49"/>
      </defs>
      <g transform="translate(246.148438 202.798438)scale(0.1 -0.1)">
       <use xlink:href="#DejaVuSans-49"/>
       <use x="63.623047" xlink:href="#DejaVuSans-46"/>
       <use x="95.410156" xlink:href="#DejaVuSans-48"/>
       <use x="159.033203" xlink:href="#DejaVuSans-48"/>
      </g>
     </g>
    </g>
    <g id="xtick_6">
     <g id="line2d_6">
      <g>
       <use style="stroke:#000000;stroke-width:0.8;" x="313.464063" xlink:href="#m78324742d9" y="188.2"/>
      </g>
     </g>
     <g id="text_6">
      <!-- 1.25 -->
      <g transform="translate(302.33125 202.798438)scale(0.1 -0.1)">
       <use xlink:href="#DejaVuSans-49"/>
       <use x="63.623047" xlink:href="#DejaVuSans-46"/>
       <use x="95.410156" xlink:href="#DejaVuSans-50"/>
       <use x="159.033203" xlink:href="#DejaVuSans-53"/>
      </g>
     </g>
    </g>
    <g id="xtick_7">
     <g id="line2d_7">
      <g>
       <use style="stroke:#000000;stroke-width:0.8;" x="369.646875" xlink:href="#m78324742d9" y="188.2"/>
      </g>
     </g>
     <g id="text_7">
      <!-- 1.50 -->
      <g transform="translate(358.514062 202.798438)scale(0.1 -0.1)">
       <use xlink:href="#DejaVuSans-49"/>
       <use x="63.623047" xlink:href="#DejaVuSans-46"/>
       <use x="95.410156" xlink:href="#DejaVuSans-53"/>
       <use x="159.033203" xlink:href="#DejaVuSans-48"/>
      </g>
     </g>
    </g>
    <g id="xtick_8">
     <g id="line2d_8">
      <g>
       <use style="stroke:#000000;stroke-width:0.8;" x="425.829687" xlink:href="#m78324742d9" y="188.2"/>
      </g>
     </g>
     <g id="text_8">
      <!-- 1.75 -->
      <g transform="translate(414.696875 202.798438)scale(0.1 -0.1)">
       <use xlink:href="#DejaVuSans-49"/>
       <use x="63.623047" xlink:href="#DejaVuSans-46"/>
       <use x="95.410156" xlink:href="#DejaVuSans-55"/>
       <use x="159.033203" xlink:href="#DejaVuSans-53"/>
      </g>
     </g>
    </g>
    <g id="xtick_9">
     <g id="line2d_9">
      <g>
       <use style="stroke:#000000;stroke-width:0.8;" x="482.0125" xlink:href="#m78324742d9" y="188.2"/>
      </g>
     </g>
     <g id="text_9">
      <!-- 2.00 -->
      <g transform="translate(470.879687 202.798438)scale(0.1 -0.1)">
       <use xlink:href="#DejaVuSans-50"/>
       <use x="63.623047" xlink:href="#DejaVuSans-46"/>
       <use x="95.410156" xlink:href="#DejaVuSans-48"/>
       <use x="159.033203" xlink:href="#DejaVuSans-48"/>
      </g>
     </g>
    </g>
   </g>
   <g id="matplotlib.axis_2">
    <g id="ytick_1">
     <g id="line2d_10">
      <defs>
       <path d="M 0 0 
L -3.5 0 
" id="mdd012d5575" style="stroke:#000000;stroke-width:0.8;"/>
      </defs>
      <g>
       <use style="stroke:#000000;stroke-width:0.8;" x="32.55" xlink:href="#mdd012d5575" y="188.2"/>
      </g>
     </g>
     <g id="text_10">
      <!-- −4 -->
      <defs>
       <path d="M 10.59375 35.5 
L 73.1875 35.5 
L 73.1875 27.203125 
L 10.59375 27.203125 
z
" id="DejaVuSans-8722"/>
       <path d="M 37.796875 64.3125 
L 12.890625 25.390625 
L 37.796875 25.390625 
z
M 35.203125 72.90625 
L 47.609375 72.90625 
L 47.609375 25.390625 
L 58.015625 25.390625 
L 58.015625 17.1875 
L 47.609375 17.1875 
L 47.609375 0 
L 37.796875 0 
L 37.796875 17.1875 
L 4.890625 17.1875 
L 4.890625 26.703125 
z
" id="DejaVuSans-52"/>
      </defs>
      <g transform="translate(10.807813 191.999219)scale(0.1 -0.1)">
       <use xlink:href="#DejaVuSans-8722"/>
       <use x="83.789062" xlink:href="#DejaVuSans-52"/>
      </g>
     </g>
    </g>
    <g id="ytick_2">
     <g id="line2d_11">
      <g>
       <use style="stroke:#000000;stroke-width:0.8;" x="32.55" xlink:href="#mdd012d5575" y="166.525"/>
      </g>
     </g>
     <g id="text_11">
      <!-- −3 -->
      <defs>
       <path d="M 40.578125 39.3125 
Q 47.65625 37.796875 51.625 33 
Q 55.609375 28.21875 55.609375 21.1875 
Q 55.609375 10.40625 48.1875 4.484375 
Q 40.765625 -1.421875 27.09375 -1.421875 
Q 22.515625 -1.421875 17.65625 -0.515625 
Q 12.796875 0.390625 7.625 2.203125 
L 7.625 11.71875 
Q 11.71875 9.328125 16.59375 8.109375 
Q 21.484375 6.890625 26.8125 6.890625 
Q 36.078125 6.890625 40.9375 10.546875 
Q 45.796875 14.203125 45.796875 21.1875 
Q 45.796875 27.640625 41.28125 31.265625 
Q 36.765625 34.90625 28.71875 34.90625 
L 20.21875 34.90625 
L 20.21875 43.015625 
L 29.109375 43.015625 
Q 36.375 43.015625 40.234375 45.921875 
Q 44.09375 48.828125 44.09375 54.296875 
Q 44.09375 59.90625 40.109375 62.90625 
Q 36.140625 65.921875 28.71875 65.921875 
Q 24.65625 65.921875 20.015625 65.03125 
Q 15.375 64.15625 9.8125 62.3125 
L 9.8125 71.09375 
Q 15.4375 72.65625 20.34375 73.4375 
Q 25.25 74.21875 29.59375 74.21875 
Q 40.828125 74.21875 47.359375 69.109375 
Q 53.90625 64.015625 53.90625 55.328125 
Q 53.90625 49.265625 50.4375 45.09375 
Q 46.96875 40.921875 40.578125 39.3125 
z
" id="DejaVuSans-51"/>
      </defs>
      <g transform="translate(10.807813 170.324219)scale(0.1 -0.1)">
       <use xlink:href="#DejaVuSans-8722"/>
       <use x="83.789062" xlink:href="#DejaVuSans-51"/>
      </g>
     </g>
    </g>
    <g id="ytick_3">
     <g id="line2d_12">
      <g>
       <use style="stroke:#000000;stroke-width:0.8;" x="32.55" xlink:href="#mdd012d5575" y="144.85"/>
      </g>
     </g>
     <g id="text_12">
      <!-- −2 -->
      <g transform="translate(10.807813 148.649219)scale(0.1 -0.1)">
       <use xlink:href="#DejaVuSans-8722"/>
       <use x="83.789062" xlink:href="#DejaVuSans-50"/>
      </g>
     </g>
    </g>
    <g id="ytick_4">
     <g id="line2d_13">
      <g>
       <use style="stroke:#000000;stroke-width:0.8;" x="32.55" xlink:href="#mdd012d5575" y="123.175"/>
      </g>
     </g>
     <g id="text_13">
      <!-- −1 -->
      <g transform="translate(10.807813 126.974219)scale(0.1 -0.1)">
       <use xlink:href="#DejaVuSans-8722"/>
       <use x="83.789062" xlink:href="#DejaVuSans-49"/>
      </g>
     </g>
    </g>
    <g id="ytick_5">
     <g id="line2d_14">
      <g>
       <use style="stroke:#000000;stroke-width:0.8;" x="32.55" xlink:href="#mdd012d5575" y="101.5"/>
      </g>
     </g>
     <g id="text_14">
      <!-- 0 -->
      <g transform="translate(19.1875 105.299219)scale(0.1 -0.1)">
       <use xlink:href="#DejaVuSans-48"/>
      </g>
     </g>
    </g>
    <g id="ytick_6">
     <g id="line2d_15">
      <g>
       <use style="stroke:#000000;stroke-width:0.8;" x="32.55" xlink:href="#mdd012d5575" y="79.825"/>
      </g>
     </g>
     <g id="text_15">
      <!-- 1 -->
      <g transform="translate(19.1875 83.624219)scale(0.1 -0.1)">
       <use xlink:href="#DejaVuSans-49"/>
      </g>
     </g>
    </g>
    <g id="ytick_7">
     <g id="line2d_16">
      <g>
       <use style="stroke:#000000;stroke-width:0.8;" x="32.55" xlink:href="#mdd012d5575" y="58.15"/>
      </g>
     </g>
     <g id="text_16">
      <!-- 2 -->
      <g transform="translate(19.1875 61.949219)scale(0.1 -0.1)">
       <use xlink:href="#DejaVuSans-50"/>
      </g>
     </g>
    </g>
    <g id="ytick_8">
     <g id="line2d_17">
      <g>
       <use style="stroke:#000000;stroke-width:0.8;" x="32.55" xlink:href="#mdd012d5575" y="36.475"/>
      </g>
     </g>
     <g id="text_17">
      <!-- 3 -->
      <g transform="translate(19.1875 40.274219)scale(0.1 -0.1)">
       <use xlink:href="#DejaVuSans-51"/>
      </g>
     </g>
    </g>
    <g id="ytick_9">
     <g id="line2d_18">
      <g>
       <use style="stroke:#000000;stroke-width:0.8;" x="32.55" xlink:href="#mdd012d5575" y="14.8"/>
      </g>
     </g>
     <g id="text_18">
      <!-- 4 -->
      <g transform="translate(19.1875 18.599219)scale(0.1 -0.1)">
       <use xlink:href="#DejaVuSans-52"/>
      </g>
     </g>
    </g>
   </g>
   <g id="line2d_19">
    <path clip-path="url(#p22fe94acf0)" d="M 32.55 101.5 
L 37.090025 96.749996 
L 41.630051 92.019119 
L 46.170076 87.326419 
L 50.710101 82.69079 
L 55.250126 78.130899 
L 59.790152 73.665107 
L 64.330177 69.311397 
L 68.870202 65.087299 
L 73.410227 61.009821 
L 77.950253 57.095384 
L 82.490278 53.359748 
L 87.030303 49.817956 
L 91.570328 46.48427 
L 96.110354 43.372112 
L 100.650379 40.494015 
L 105.190404 37.861567 
L 109.730429 35.485369 
L 114.270455 33.374988 
L 118.81048 31.538923 
L 123.350505 29.984567 
L 127.89053 28.718178 
L 132.430556 27.744855 
L 136.970581 27.068519 
L 141.510606 26.691892 
L 146.050631 26.61649 
L 150.590657 26.842618 
L 155.130682 27.369365 
L 159.670707 28.19461 
L 164.210732 29.31503 
L 168.750758 30.726113 
L 173.290783 32.422178 
L 177.830808 34.396395 
L 182.370833 36.640814 
L 186.910859 39.146399 
L 191.450884 41.903059 
L 195.990909 44.899695 
L 200.530934 48.12424 
L 205.07096 51.563711 
L 209.610985 55.204258 
L 214.15101 59.031221 
L 218.691035 63.029192 
L 223.231061 67.18207 
L 227.771086 71.473135 
L 232.311111 75.885107 
L 236.851136 80.400221 
L 241.391162 85.000297 
L 245.931187 89.666811 
L 250.471212 94.380974 
L 255.011237 99.123802 
L 259.551263 103.876198 
L 264.091288 108.619026 
L 268.631313 113.333189 
L 273.171338 117.999703 
L 277.711364 122.599779 
L 282.251389 127.114893 
L 286.791414 131.526865 
L 291.331439 135.81793 
L 295.871465 139.970808 
L 300.41149 143.968779 
L 304.951515 147.795742 
L 309.49154 151.436289 
L 314.031566 154.87576 
L 318.571591 158.100305 
L 323.111616 161.096941 
L 327.651641 163.853601 
L 332.191667 166.359186 
L 336.731692 168.603605 
L 341.271717 170.577822 
L 345.811742 172.273887 
L 350.351768 173.68497 
L 354.891793 174.80539 
L 359.431818 175.630635 
L 363.971843 176.157382 
L 368.511869 176.38351 
L 373.051894 176.308108 
L 377.591919 175.931481 
L 382.131944 175.255145 
L 386.67197 174.281822 
L 391.211995 173.015433 
L 395.75202 171.461077 
L 400.292045 169.625012 
L 404.832071 167.514631 
L 409.372096 165.138433 
L 413.912121 162.505985 
L 418.452146 159.627888 
L 422.992172 156.51573 
L 427.532197 153.182044 
L 432.072222 149.640252 
L 436.612247 145.904616 
L 441.152273 141.990179 
L 445.692298 137.912701 
L 450.232323 133.688603 
L 454.772348 129.334893 
L 459.312374 124.869101 
L 463.852399 120.30921 
L 468.392424 115.673581 
L 472.932449 110.980881 
L 477.472475 106.250004 
L 482.0125 101.5 
" style="fill:none;stroke:#0000ff;stroke-linecap:square;stroke-width:2;"/>
   </g>
   <g id="line2d_20">
    <path clip-path="url(#p22fe94acf0)" d="M 32.55 101.5 
L 37.090025 98.792586 
L 41.630051 96.096073 
L 46.170076 93.421321 
L 50.710101 90.779098 
L 55.250126 88.180045 
L 59.790152 85.634626 
L 64.330177 83.153092 
L 68.870202 80.745434 
L 73.410227 78.421347 
L 77.950253 76.19019 
L 82.490278 74.060947 
L 87.030303 72.042191 
L 91.570328 70.142051 
L 96.110354 68.368179 
L 100.650379 66.727717 
L 105.190404 65.22727 
L 109.730429 63.872881 
L 114.270455 62.670003 
L 118.81048 61.62348 
L 123.350505 60.737526 
L 127.89053 60.015707 
L 132.430556 59.460932 
L 136.970581 59.075432 
L 141.510606 58.860762 
L 146.050631 58.817784 
L 150.590657 58.946673 
L 155.130682 59.246909 
L 159.670707 59.717284 
L 164.210732 60.355902 
L 168.750758 61.160194 
L 173.290783 62.126919 
L 177.830808 63.252186 
L 182.370833 64.531464 
L 186.910859 65.9596 
L 191.450884 67.530846 
L 195.990909 69.238873 
L 200.530934 71.076804 
L 205.07096 73.037239 
L 209.610985 75.112283 
L 214.15101 77.293582 
L 218.691035 79.572351 
L 223.231061 81.939415 
L 227.771086 84.385242 
L 232.311111 86.899985 
L 236.851136 89.473516 
L 241.391162 92.095475 
L 245.931187 94.755301 
L 250.471212 97.442287 
L 255.011237 100.145611 
L 259.551263 102.854389 
L 264.091288 105.557713 
L 268.631313 108.244699 
L 273.171338 110.904525 
L 277.711364 113.526484 
L 282.251389 116.100015 
L 286.791414 118.614758 
L 291.331439 121.060585 
L 295.871465 123.427649 
L 300.41149 125.706418 
L 304.951515 127.887717 
L 309.49154 129.962761 
L 314.031566 131.923196 
L 318.571591 133.761127 
L 323.111616 135.469154 
L 327.651641 137.0404 
L 332.191667 138.468536 
L 336.731692 139.747814 
L 341.271717 140.873081 
L 345.811742 141.839806 
L 350.351768 142.644098 
L 354.891793 143.282716 
L 359.431818 143.753091 
L 363.971843 144.053327 
L 368.511869 144.182216 
L 373.051894 144.139238 
L 377.591919 143.924568 
L 382.131944 143.539068 
L 386.67197 142.984293 
L 391.211995 142.262474 
L 395.75202 141.37652 
L 400.292045 140.329997 
L 404.832071 139.127119 
L 409.372096 137.77273 
L 413.912121 136.272283 
L 418.452146 134.631821 
L 422.992172 132.857949 
L 427.532197 130.957809 
L 432.072222 128.939053 
L 436.612247 126.80981 
L 441.152273 124.578653 
L 445.692298 122.254566 
L 450.232323 119.846908 
L 454.772348 117.365374 
L 459.312374 114.819955 
L 463.852399 112.220902 
L 468.392424 109.578679 
L 472.932449 106.903927 
L 477.472475 104.207414 
L 482.0125 101.5 
" style="fill:none;stroke:#0000ff;stroke-linecap:square;stroke-opacity:0.6;stroke-width:2;"/>
   </g>
   <g id="line2d_21">
    <path clip-path="url(#p22fe94acf0)" d="M 32.55 101.5 
L 37.090025 101.572583 
L 41.630051 101.644873 
L 46.170076 101.71658 
L 50.710101 101.787415 
L 55.250126 101.857092 
L 59.790152 101.925332 
L 64.330177 101.991859 
L 68.870202 102.056406 
L 73.410227 102.118712 
L 77.950253 102.178526 
L 82.490278 102.235609 
L 87.030303 102.289729 
L 91.570328 102.34067 
L 96.110354 102.388225 
L 100.650379 102.432204 
L 105.190404 102.472429 
L 109.730429 102.508739 
L 114.270455 102.540987 
L 118.81048 102.569043 
L 123.350505 102.592794 
L 127.89053 102.612145 
L 132.430556 102.627018 
L 136.970581 102.637353 
L 141.510606 102.643108 
L 146.050631 102.64426 
L 150.590657 102.640805 
L 155.130682 102.632756 
L 159.670707 102.620146 
L 164.210732 102.603025 
L 168.750758 102.581463 
L 173.290783 102.555546 
L 177.830808 102.525379 
L 182.370833 102.491083 
L 186.910859 102.452796 
L 191.450884 102.410673 
L 195.990909 102.364883 
L 200.530934 102.31561 
L 205.07096 102.263053 
L 209.610985 102.207424 
L 214.15101 102.148946 
L 218.691035 102.087855 
L 223.231061 102.024396 
L 227.771086 101.958827 
L 232.311111 101.891409 
L 236.851136 101.822416 
L 241.391162 101.752124 
L 245.931187 101.680817 
L 250.471212 101.608783 
L 255.011237 101.53631 
L 259.551263 101.46369 
L 264.091288 101.391217 
L 268.631313 101.319183 
L 273.171338 101.247876 
L 277.711364 101.177584 
L 282.251389 101.108591 
L 286.791414 101.041173 
L 291.331439 100.975604 
L 295.871465 100.912145 
L 300.41149 100.851054 
L 304.951515 100.792576 
L 309.49154 100.736947 
L 314.031566 100.68439 
L 318.571591 100.635117 
L 323.111616 100.589327 
L 327.651641 100.547204 
L 332.191667 100.508917 
L 336.731692 100.474621 
L 341.271717 100.444454 
L 345.811742 100.418537 
L 350.351768 100.396975 
L 354.891793 100.379854 
L 359.431818 100.367244 
L 363.971843 100.359195 
L 368.511869 100.35574 
L 373.051894 100.356892 
L 377.591919 100.362647 
L 382.131944 100.372982 
L 386.67197 100.387855 
L 391.211995 100.407206 
L 395.75202 100.430957 
L 400.292045 100.459013 
L 404.832071 100.491261 
L 409.372096 100.527571 
L 413.912121 100.567796 
L 418.452146 100.611775 
L 422.992172 100.65933 
L 427.532197 100.710271 
L 432.072222 100.764391 
L 436.612247 100.821474 
L 441.152273 100.881288 
L 445.692298 100.943594 
L 450.232323 101.008141 
L 454.772348 101.074668 
L 459.312374 101.142908 
L 463.852399 101.212585 
L 468.392424 101.28342 
L 472.932449 101.355127 
L 477.472475 101.427417 
L 482.0125 101.5 
" style="fill:none;stroke:#0000ff;stroke-linecap:square;stroke-opacity:0.4;stroke-width:2;"/>
   </g>
   <g id="line2d_22">
    <path clip-path="url(#p22fe94acf0)" d="M 32.55 101.5 
L 37.090025 104.33281 
L 41.630051 107.154214 
L 46.170076 109.95285 
L 50.710101 112.71745 
L 55.250126 115.43688 
L 59.790152 118.100192 
L 64.330177 120.696661 
L 68.870202 123.215832 
L 73.410227 125.64756 
L 77.950253 127.982055 
L 82.490278 130.209916 
L 87.030303 132.322172 
L 91.570328 134.310319 
L 96.110354 136.166349 
L 100.650379 137.882791 
L 105.190404 139.452732 
L 109.730429 140.86985 
L 114.270455 142.12844 
L 118.81048 143.223434 
L 123.350505 144.150422 
L 127.89053 144.905672 
L 132.430556 145.486143 
L 136.970581 145.889497 
L 141.510606 146.11411 
L 146.050631 146.159078 
L 150.590657 146.02422 
L 155.130682 145.710078 
L 159.670707 145.217918 
L 164.210732 144.549721 
L 168.750758 143.708178 
L 173.290783 142.696678 
L 177.830808 141.519293 
L 182.370833 140.180765 
L 186.910859 138.686483 
L 191.450884 137.042464 
L 195.990909 135.255328 
L 200.530934 133.332272 
L 205.07096 131.281038 
L 209.610985 129.109886 
L 214.15101 126.827559 
L 218.691035 124.443247 
L 223.231061 121.96655 
L 227.771086 119.407442 
L 232.311111 116.776227 
L 236.851136 114.0835 
L 241.391162 111.340104 
L 245.931187 108.557085 
L 250.471212 105.74565 
L 255.011237 102.917119 
L 259.551263 100.082881 
L 264.091288 97.25435 
L 268.631313 94.442915 
L 273.171338 91.659896 
L 277.711364 88.9165 
L 282.251389 86.223773 
L 286.791414 83.592558 
L 291.331439 81.03345 
L 295.871465 78.556753 
L 300.41149 76.172441 
L 304.951515 73.890114 
L 309.49154 71.718962 
L 314.031566 69.667728 
L 318.571591 67.744672 
L 323.111616 65.957536 
L 327.651641 64.313517 
L 332.191667 62.819235 
L 336.731692 61.480707 
L 341.271717 60.303322 
L 345.811742 59.291822 
L 350.351768 58.450279 
L 354.891793 57.782082 
L 359.431818 57.289922 
L 363.971843 56.97578 
L 368.511869 56.840922 
L 373.051894 56.88589 
L 377.591919 57.110503 
L 382.131944 57.513857 
L 386.67197 58.094328 
L 391.211995 58.849578 
L 395.75202 59.776566 
L 400.292045 60.87156 
L 404.832071 62.13015 
L 409.372096 63.547268 
L 413.912121 65.117209 
L 418.452146 66.833651 
L 422.992172 68.689681 
L 427.532197 70.677828 
L 432.072222 72.790084 
L 436.612247 75.017945 
L 441.152273 77.35244 
L 445.692298 79.784168 
L 450.232323 82.303339 
L 454.772348 84.899808 
L 459.312374 87.56312 
L 463.852399 90.28255 
L 468.392424 93.04715 
L 472.932449 95.845786 
L 477.472475 98.66719 
L 482.0125 101.5 
" style="fill:none;stroke:#0000ff;stroke-linecap:square;stroke-opacity:0.2;stroke-width:2;"/>
   </g>
   <g id="line2d_23">
    <path clip-path="url(#p22fe94acf0)" d="M 32.55 101.5 
L 37.090025 106.321477 
L 41.630051 111.12354 
L 46.170076 115.886852 
L 50.710101 120.592233 
L 55.250126 125.220737 
L 59.790152 129.753726 
L 64.330177 134.172946 
L 68.870202 138.460605 
L 73.410227 142.599436 
L 77.950253 146.572774 
L 82.490278 150.36462 
L 87.030303 153.959706 
L 91.570328 157.343554 
L 96.110354 160.502541 
L 100.650379 163.423945 
L 105.190404 166.096003 
L 109.730429 168.507956 
L 114.270455 170.650091 
L 118.81048 172.513784 
L 123.350505 174.091529 
L 127.89053 175.376973 
L 132.430556 176.364941 
L 136.970581 177.051455 
L 141.510606 177.433749 
L 146.050631 177.510285 
L 150.590657 177.280754 
L 155.130682 176.746081 
L 159.670707 175.908419 
L 164.210732 174.77114 
L 168.750758 173.338824 
L 173.290783 171.617239 
L 177.830808 169.613316 
L 182.370833 167.335125 
L 186.910859 164.791839 
L 191.450884 161.993699 
L 195.990909 158.951972 
L 200.530934 155.678907 
L 205.07096 152.187682 
L 209.610985 148.492356 
L 214.15101 144.607808 
L 218.691035 140.54968 
L 223.231061 136.334313 
L 227.771086 131.978681 
L 232.311111 127.500321 
L 236.851136 122.917268 
L 241.391162 118.247974 
L 245.931187 113.511243 
L 250.471212 108.726147 
L 255.011237 103.911953 
L 259.551263 99.088047 
L 264.091288 94.273853 
L 268.631313 89.488757 
L 273.171338 84.752026 
L 277.711364 80.082732 
L 282.251389 75.499679 
L 286.791414 71.021319 
L 291.331439 66.665687 
L 295.871465 62.45032 
L 300.41149 58.392192 
L 304.951515 54.507644 
L 309.49154 50.812318 
L 314.031566 47.321093 
L 318.571591 44.048028 
L 323.111616 41.006301 
L 327.651641 38.208161 
L 332.191667 35.664875 
L 336.731692 33.386684 
L 341.271717 31.382761 
L 345.811742 29.661176 
L 350.351768 28.22886 
L 354.891793 27.091581 
L 359.431818 26.253919 
L 363.971843 25.719246 
L 368.511869 25.489715 
L 373.051894 25.566251 
L 377.591919 25.948545 
L 382.131944 26.635059 
L 386.67197 27.623027 
L 391.211995 28.908471 
L 395.75202 30.486216 
L 400.292045 32.349909 
L 404.832071 34.492044 
L 409.372096 36.903997 
L 413.912121 39.576055 
L 418.452146 42.497459 
L 422.992172 45.656446 
L 427.532197 49.040294 
L 432.072222 52.63538 
L 436.612247 56.427226 
L 441.152273 60.400564 
L 445.692298 64.539395 
L 450.232323 68.827054 
L 454.772348 73.246274 
L 459.312374 77.779263 
L 463.852399 82.407767 
L 468.392424 87.113148 
L 472.932449 91.87646 
L 477.472475 96.678523 
L 482.0125 101.5 
" style="fill:none;stroke:#0000ff;stroke-linecap:square;stroke-opacity:0.1;stroke-width:2;"/>
   </g>
   <g id="line2d_24">
    <path clip-path="url(#p22fe94acf0)" d="M 257.28125 188.2 
L 257.28125 14.8 
" style="fill:none;stroke:#ff0000;stroke-dasharray:1.85,0.8;stroke-dashoffset:0;stroke-width:0.5;"/>
   </g>
   <g id="line2d_25">
    <path clip-path="url(#p22fe94acf0)" d="M 144.915625 188.2 
L 144.915625 14.8 
" style="fill:none;stroke:#0000ff;stroke-dasharray:1.85,0.8;stroke-dashoffset:0;stroke-width:0.5;"/>
   </g>
   <g id="line2d_26">
    <path clip-path="url(#p22fe94acf0)" d="M 369.646875 188.2 
L 369.646875 14.8 
" style="fill:none;stroke:#0000ff;stroke-dasharray:1.85,0.8;stroke-dashoffset:0;stroke-width:0.5;"/>
   </g>
   <g id="patch_3">
    <path d="M 32.55 188.2 
L 32.55 14.8 
" style="fill:none;stroke:#000000;stroke-linecap:square;stroke-linejoin:miter;stroke-width:0.8;"/>
   </g>
   <g id="patch_4">
    <path d="M 482.0125 188.2 
L 482.0125 14.8 
" style="fill:none;stroke:#000000;stroke-linecap:square;stroke-linejoin:miter;stroke-width:0.8;"/>
   </g>
   <g id="patch_5">
    <path d="M 32.55 188.2 
L 482.0125 188.2 
" style="fill:none;stroke:#000000;stroke-linecap:square;stroke-linejoin:miter;stroke-width:0.8;"/>
   </g>
   <g id="patch_6">
    <path d="M 32.55 14.8 
L 482.0125 14.8 
" style="fill:none;stroke:#000000;stroke-linecap:square;stroke-linejoin:miter;stroke-width:0.8;"/>
   </g>
   <g id="text_19">
    <g id="patch_7">
     <path d="M 251.670312 178.283594 
L 262.892187 178.283594 
Q 267.392187 178.283594 267.392187 173.783594 
L 267.392187 159.266406 
Q 267.392187 154.766406 262.892187 154.766406 
L 251.670312 154.766406 
Q 247.170312 154.766406 247.170312 159.266406 
L 247.170312 173.783594 
Q 247.170312 178.283594 251.670312 178.283594 
z
" style="fill:#ffffff;stroke:#ffffff;stroke-linejoin:miter;stroke-width:2;"/>
    </g>
    <!-- N -->
    <defs>
     <path d="M 9.8125 72.90625 
L 23.09375 72.90625 
L 55.421875 11.921875 
L 55.421875 72.90625 
L 64.984375 72.90625 
L 64.984375 0 
L 51.703125 0 
L 19.390625 60.984375 
L 19.390625 0 
L 9.8125 0 
z
" id="DejaVuSans-78"/>
    </defs>
    <g transform="translate(251.670312 170.664062)scale(0.15 -0.15)">
     <use xlink:href="#DejaVuSans-78"/>
    </g>
   </g>
   <g id="text_20">
    <g id="patch_8">
     <path d="M 139.785156 178.283594 
L 150.046094 178.283594 
Q 154.546094 178.283594 154.546094 173.783594 
L 154.546094 159.266406 
Q 154.546094 154.766406 150.046094 154.766406 
L 139.785156 154.766406 
Q 135.285156 154.766406 135.285156 159.266406 
L 135.285156 173.783594 
Q 135.285156 178.283594 139.785156 178.283594 
z
" style="fill:#ffffff;stroke:#ffffff;stroke-linejoin:miter;stroke-width:2;"/>
    </g>
    <!-- A -->
    <defs>
     <path d="M 34.1875 63.1875 
L 20.796875 26.90625 
L 47.609375 26.90625 
z
M 28.609375 72.90625 
L 39.796875 72.90625 
L 67.578125 0 
L 57.328125 0 
L 50.6875 18.703125 
L 17.828125 18.703125 
L 11.1875 0 
L 0.78125 0 
z
" id="DejaVuSans-65"/>
    </defs>
    <g transform="translate(139.785156 170.664062)scale(0.15 -0.15)">
     <use xlink:href="#DejaVuSans-65"/>
    </g>
   </g>
   <g id="text_21">
    <g id="patch_9">
     <path d="M 364.516406 178.283594 
L 374.777344 178.283594 
Q 379.277344 178.283594 379.277344 173.783594 
L 379.277344 159.266406 
Q 379.277344 154.766406 374.777344 154.766406 
L 364.516406 154.766406 
Q 360.016406 154.766406 360.016406 159.266406 
L 360.016406 173.783594 
Q 360.016406 178.283594 364.516406 178.283594 
z
" style="fill:#ffffff;stroke:#ffffff;stroke-linejoin:miter;stroke-width:2;"/>
    </g>
    <!-- A -->
    <g transform="translate(364.516406 170.664062)scale(0.15 -0.15)">
     <use xlink:href="#DejaVuSans-65"/>
    </g>
   </g>
  </g>
 </g>
 <defs>
  <clipPath id="p22fe94acf0">
   <rect height="173.4" width="449.4625" x="32.55" y="14.8"/>
  </clipPath>
 </defs>
</svg>
