<?xml version="1.0" encoding="utf-8" standalone="no"?>
<!DOCTYPE svg PUBLIC "-//W3C//DTD SVG 1.1//EN"
  "http://www.w3.org/Graphics/SVG/1.1/DTD/svg11.dtd">
<!-- Created with matplotlib (https://matplotlib.org/) -->
<svg height="360pt" version="1.1" viewBox="0 0 504 360" width="504pt" xmlns="http://www.w3.org/2000/svg" xmlns:xlink="http://www.w3.org/1999/xlink">
 <defs>
  <style type="text/css">
*{stroke-linecap:butt;stroke-linejoin:round;}
  </style>
 </defs>
 <g id="figure_1">
  <g id="patch_1">
   <path d="M 0 360 
L 504 360 
L 504 0 
L 0 0 
z
" style="fill:none;"/>
  </g>
  <g id="axes_1">
   <g id="patch_2">
    <path d="M 50.8 315.2 
L 493.2 315.2 
L 493.2 10.8 
L 50.8 10.8 
z
" style="fill:none;"/>
   </g>
   <g id="matplotlib.axis_1">
    <g id="xtick_1">
     <g id="line2d_1">
      <defs>
       <path d="M 0 0 
L 0 3.5 
" id="m9b921fa5e3" style="stroke:#000000;stroke-width:0.8;"/>
      </defs>
      <g>
       <use style="stroke:#000000;stroke-width:0.8;" x="70.909091" xlink:href="#m9b921fa5e3" y="315.2"/>
      </g>
     </g>
     <g id="text_1">
      <!-- −2.0 -->
      <defs>
       <path d="M 10.59375 35.5 
L 73.1875 35.5 
L 73.1875 27.203125 
L 10.59375 27.203125 
z
" id="DejaVuSans-8722"/>
       <path d="M 19.1875 8.296875 
L 53.609375 8.296875 
L 53.609375 0 
L 7.328125 0 
L 7.328125 8.296875 
Q 12.9375 14.109375 22.625 23.890625 
Q 32.328125 33.6875 34.8125 36.53125 
Q 39.546875 41.84375 41.421875 45.53125 
Q 43.3125 49.21875 43.3125 52.78125 
Q 43.3125 58.59375 39.234375 62.25 
Q 35.15625 65.921875 28.609375 65.921875 
Q 23.96875 65.921875 18.8125 64.3125 
Q 13.671875 62.703125 7.8125 59.421875 
L 7.8125 69.390625 
Q 13.765625 71.78125 18.9375 73 
Q 24.125 74.21875 28.421875 74.21875 
Q 39.75 74.21875 46.484375 68.546875 
Q 53.21875 62.890625 53.21875 53.421875 
Q 53.21875 48.921875 51.53125 44.890625 
Q 49.859375 40.875 45.40625 35.40625 
Q 44.1875 33.984375 37.640625 27.21875 
Q 31.109375 20.453125 19.1875 8.296875 
z
" id="DejaVuSans-50"/>
       <path d="M 10.6875 12.40625 
L 21 12.40625 
L 21 0 
L 10.6875 0 
z
" id="DejaVuSans-46"/>
       <path d="M 31.78125 66.40625 
Q 24.171875 66.40625 20.328125 58.90625 
Q 16.5 51.421875 16.5 36.375 
Q 16.5 21.390625 20.328125 13.890625 
Q 24.171875 6.390625 31.78125 6.390625 
Q 39.453125 6.390625 43.28125 13.890625 
Q 47.125 21.390625 47.125 36.375 
Q 47.125 51.421875 43.28125 58.90625 
Q 39.453125 66.40625 31.78125 66.40625 
z
M 31.78125 74.21875 
Q 44.046875 74.21875 50.515625 64.515625 
Q 56.984375 54.828125 56.984375 36.375 
Q 56.984375 17.96875 50.515625 8.265625 
Q 44.046875 -1.421875 31.78125 -1.421875 
Q 19.53125 -1.421875 13.0625 8.265625 
Q 6.59375 17.96875 6.59375 36.375 
Q 6.59375 54.828125 13.0625 64.515625 
Q 19.53125 74.21875 31.78125 74.21875 
z
" id="DejaVuSans-48"/>
      </defs>
      <g transform="translate(58.767685 329.798437)scale(0.1 -0.1)">
       <use xlink:href="#DejaVuSans-8722"/>
       <use x="83.789062" xlink:href="#DejaVuSans-50"/>
       <use x="147.412109" xlink:href="#DejaVuSans-46"/>
       <use x="179.199219" xlink:href="#DejaVuSans-48"/>
      </g>
     </g>
    </g>
    <g id="xtick_2">
     <g id="line2d_2">
      <g>
       <use style="stroke:#000000;stroke-width:0.8;" x="121.181818" xlink:href="#m9b921fa5e3" y="315.2"/>
      </g>
     </g>
     <g id="text_2">
      <!-- −1.5 -->
      <defs>
       <path d="M 12.40625 8.296875 
L 28.515625 8.296875 
L 28.515625 63.921875 
L 10.984375 60.40625 
L 10.984375 69.390625 
L 28.421875 72.90625 
L 38.28125 72.90625 
L 38.28125 8.296875 
L 54.390625 8.296875 
L 54.390625 0 
L 12.40625 0 
z
" id="DejaVuSans-49"/>
       <path d="M 10.796875 72.90625 
L 49.515625 72.90625 
L 49.515625 64.59375 
L 19.828125 64.59375 
L 19.828125 46.734375 
Q 21.96875 47.46875 24.109375 47.828125 
Q 26.265625 48.1875 28.421875 48.1875 
Q 40.625 48.1875 47.75 41.5 
Q 54.890625 34.8125 54.890625 23.390625 
Q 54.890625 11.625 47.5625 5.09375 
Q 40.234375 -1.421875 26.90625 -1.421875 
Q 22.3125 -1.421875 17.546875 -0.640625 
Q 12.796875 0.140625 7.71875 1.703125 
L 7.71875 11.625 
Q 12.109375 9.234375 16.796875 8.0625 
Q 21.484375 6.890625 26.703125 6.890625 
Q 35.15625 6.890625 40.078125 11.328125 
Q 45.015625 15.765625 45.015625 23.390625 
Q 45.015625 31 40.078125 35.4375 
Q 35.15625 39.890625 26.703125 39.890625 
Q 22.75 39.890625 18.8125 39.015625 
Q 14.890625 38.140625 10.796875 36.28125 
z
" id="DejaVuSans-53"/>
      </defs>
      <g transform="translate(109.040412 329.798437)scale(0.1 -0.1)">
       <use xlink:href="#DejaVuSans-8722"/>
       <use x="83.789062" xlink:href="#DejaVuSans-49"/>
       <use x="147.412109" xlink:href="#DejaVuSans-46"/>
       <use x="179.199219" xlink:href="#DejaVuSans-53"/>
      </g>
     </g>
    </g>
    <g id="xtick_3">
     <g id="line2d_3">
      <g>
       <use style="stroke:#000000;stroke-width:0.8;" x="171.454545" xlink:href="#m9b921fa5e3" y="315.2"/>
      </g>
     </g>
     <g id="text_3">
      <!-- −1.0 -->
      <g transform="translate(159.313139 329.798437)scale(0.1 -0.1)">
       <use xlink:href="#DejaVuSans-8722"/>
       <use x="83.789062" xlink:href="#DejaVuSans-49"/>
       <use x="147.412109" xlink:href="#DejaVuSans-46"/>
       <use x="179.199219" xlink:href="#DejaVuSans-48"/>
      </g>
     </g>
    </g>
    <g id="xtick_4">
     <g id="line2d_4">
      <g>
       <use style="stroke:#000000;stroke-width:0.8;" x="221.727273" xlink:href="#m9b921fa5e3" y="315.2"/>
      </g>
     </g>
     <g id="text_4">
      <!-- −0.5 -->
      <g transform="translate(209.585866 329.798437)scale(0.1 -0.1)">
       <use xlink:href="#DejaVuSans-8722"/>
       <use x="83.789062" xlink:href="#DejaVuSans-48"/>
       <use x="147.412109" xlink:href="#DejaVuSans-46"/>
       <use x="179.199219" xlink:href="#DejaVuSans-53"/>
      </g>
     </g>
    </g>
    <g id="xtick_5">
     <g id="line2d_5">
      <g>
       <use style="stroke:#000000;stroke-width:0.8;" x="272" xlink:href="#m9b921fa5e3" y="315.2"/>
      </g>
     </g>
     <g id="text_5">
      <!-- 0.0 -->
      <g transform="translate(264.048437 329.798437)scale(0.1 -0.1)">
       <use xlink:href="#DejaVuSans-48"/>
       <use x="63.623047" xlink:href="#DejaVuSans-46"/>
       <use x="95.410156" xlink:href="#DejaVuSans-48"/>
      </g>
     </g>
    </g>
    <g id="xtick_6">
     <g id="line2d_6">
      <g>
       <use style="stroke:#000000;stroke-width:0.8;" x="322.272727" xlink:href="#m9b921fa5e3" y="315.2"/>
      </g>
     </g>
     <g id="text_6">
      <!-- 0.5 -->
      <g transform="translate(314.321165 329.798437)scale(0.1 -0.1)">
       <use xlink:href="#DejaVuSans-48"/>
       <use x="63.623047" xlink:href="#DejaVuSans-46"/>
       <use x="95.410156" xlink:href="#DejaVuSans-53"/>
      </g>
     </g>
    </g>
    <g id="xtick_7">
     <g id="line2d_7">
      <g>
       <use style="stroke:#000000;stroke-width:0.8;" x="372.545455" xlink:href="#m9b921fa5e3" y="315.2"/>
      </g>
     </g>
     <g id="text_7">
      <!-- 1.0 -->
      <g transform="translate(364.593892 329.798437)scale(0.1 -0.1)">
       <use xlink:href="#DejaVuSans-49"/>
       <use x="63.623047" xlink:href="#DejaVuSans-46"/>
       <use x="95.410156" xlink:href="#DejaVuSans-48"/>
      </g>
     </g>
    </g>
    <g id="xtick_8">
     <g id="line2d_8">
      <g>
       <use style="stroke:#000000;stroke-width:0.8;" x="422.818182" xlink:href="#m9b921fa5e3" y="315.2"/>
      </g>
     </g>
     <g id="text_8">
      <!-- 1.5 -->
      <g transform="translate(414.866619 329.798437)scale(0.1 -0.1)">
       <use xlink:href="#DejaVuSans-49"/>
       <use x="63.623047" xlink:href="#DejaVuSans-46"/>
       <use x="95.410156" xlink:href="#DejaVuSans-53"/>
      </g>
     </g>
    </g>
    <g id="xtick_9">
     <g id="line2d_9">
      <g>
       <use style="stroke:#000000;stroke-width:0.8;" x="473.090909" xlink:href="#m9b921fa5e3" y="315.2"/>
      </g>
     </g>
     <g id="text_9">
      <!-- 2.0 -->
      <g transform="translate(465.139347 329.798437)scale(0.1 -0.1)">
       <use xlink:href="#DejaVuSans-50"/>
       <use x="63.623047" xlink:href="#DejaVuSans-46"/>
       <use x="95.410156" xlink:href="#DejaVuSans-48"/>
      </g>
     </g>
    </g>
    <g id="text_10">
     <!-- Time, $t$ /s -->
     <defs>
      <path d="M -0.296875 72.90625 
L 61.375 72.90625 
L 61.375 64.59375 
L 35.5 64.59375 
L 35.5 0 
L 25.59375 0 
L 25.59375 64.59375 
L -0.296875 64.59375 
z
" id="DejaVuSans-84"/>
      <path d="M 9.421875 54.6875 
L 18.40625 54.6875 
L 18.40625 0 
L 9.421875 0 
z
M 9.421875 75.984375 
L 18.40625 75.984375 
L 18.40625 64.59375 
L 9.421875 64.59375 
z
" id="DejaVuSans-105"/>
      <path d="M 52 44.1875 
Q 55.375 50.25 60.0625 53.125 
Q 64.75 56 71.09375 56 
Q 79.640625 56 84.28125 50.015625 
Q 88.921875 44.046875 88.921875 33.015625 
L 88.921875 0 
L 79.890625 0 
L 79.890625 32.71875 
Q 79.890625 40.578125 77.09375 44.375 
Q 74.3125 48.1875 68.609375 48.1875 
Q 61.625 48.1875 57.5625 43.546875 
Q 53.515625 38.921875 53.515625 30.90625 
L 53.515625 0 
L 44.484375 0 
L 44.484375 32.71875 
Q 44.484375 40.625 41.703125 44.40625 
Q 38.921875 48.1875 33.109375 48.1875 
Q 26.21875 48.1875 22.15625 43.53125 
Q 18.109375 38.875 18.109375 30.90625 
L 18.109375 0 
L 9.078125 0 
L 9.078125 54.6875 
L 18.109375 54.6875 
L 18.109375 46.1875 
Q 21.1875 51.21875 25.484375 53.609375 
Q 29.78125 56 35.6875 56 
Q 41.65625 56 45.828125 52.96875 
Q 50 49.953125 52 44.1875 
z
" id="DejaVuSans-109"/>
      <path d="M 56.203125 29.59375 
L 56.203125 25.203125 
L 14.890625 25.203125 
Q 15.484375 15.921875 20.484375 11.0625 
Q 25.484375 6.203125 34.421875 6.203125 
Q 39.59375 6.203125 44.453125 7.46875 
Q 49.3125 8.734375 54.109375 11.28125 
L 54.109375 2.78125 
Q 49.265625 0.734375 44.1875 -0.34375 
Q 39.109375 -1.421875 33.890625 -1.421875 
Q 20.796875 -1.421875 13.15625 6.1875 
Q 5.515625 13.8125 5.515625 26.8125 
Q 5.515625 40.234375 12.765625 48.109375 
Q 20.015625 56 32.328125 56 
Q 43.359375 56 49.78125 48.890625 
Q 56.203125 41.796875 56.203125 29.59375 
z
M 47.21875 32.234375 
Q 47.125 39.59375 43.09375 43.984375 
Q 39.0625 48.390625 32.421875 48.390625 
Q 24.90625 48.390625 20.390625 44.140625 
Q 15.875 39.890625 15.1875 32.171875 
z
" id="DejaVuSans-101"/>
      <path d="M 11.71875 12.40625 
L 22.015625 12.40625 
L 22.015625 4 
L 14.015625 -11.625 
L 7.71875 -11.625 
L 11.71875 4 
z
" id="DejaVuSans-44"/>
      <path id="DejaVuSans-32"/>
      <path d="M 42.28125 54.6875 
L 40.921875 47.703125 
L 23 47.703125 
L 17.1875 18.015625 
Q 16.890625 16.359375 16.75 15.234375 
Q 16.609375 14.109375 16.609375 13.484375 
Q 16.609375 10.359375 18.484375 8.9375 
Q 20.359375 7.515625 24.515625 7.515625 
L 33.59375 7.515625 
L 32.078125 0 
L 23.484375 0 
Q 15.484375 0 11.546875 3.125 
Q 7.625 6.25 7.625 12.59375 
Q 7.625 13.71875 7.765625 15.0625 
Q 7.90625 16.40625 8.203125 18.015625 
L 14.015625 47.703125 
L 6.390625 47.703125 
L 7.8125 54.6875 
L 15.28125 54.6875 
L 18.3125 70.21875 
L 27.296875 70.21875 
L 24.3125 54.6875 
z
" id="DejaVuSans-Oblique-116"/>
      <path d="M 25.390625 72.90625 
L 33.6875 72.90625 
L 8.296875 -9.28125 
L 0 -9.28125 
z
" id="DejaVuSans-47"/>
      <path d="M 44.28125 53.078125 
L 44.28125 44.578125 
Q 40.484375 46.53125 36.375 47.5 
Q 32.28125 48.484375 27.875 48.484375 
Q 21.1875 48.484375 17.84375 46.4375 
Q 14.5 44.390625 14.5 40.28125 
Q 14.5 37.15625 16.890625 35.375 
Q 19.28125 33.59375 26.515625 31.984375 
L 29.59375 31.296875 
Q 39.15625 29.25 43.1875 25.515625 
Q 47.21875 21.78125 47.21875 15.09375 
Q 47.21875 7.46875 41.1875 3.015625 
Q 35.15625 -1.421875 24.609375 -1.421875 
Q 20.21875 -1.421875 15.453125 -0.5625 
Q 10.6875 0.296875 5.421875 2 
L 5.421875 11.28125 
Q 10.40625 8.6875 15.234375 7.390625 
Q 20.0625 6.109375 24.8125 6.109375 
Q 31.15625 6.109375 34.5625 8.28125 
Q 37.984375 10.453125 37.984375 14.40625 
Q 37.984375 18.0625 35.515625 20.015625 
Q 33.0625 21.96875 24.703125 23.78125 
L 21.578125 24.515625 
Q 13.234375 26.265625 9.515625 29.90625 
Q 5.8125 33.546875 5.8125 39.890625 
Q 5.8125 47.609375 11.28125 51.796875 
Q 16.75 56 26.8125 56 
Q 31.78125 56 36.171875 55.265625 
Q 40.578125 54.546875 44.28125 53.078125 
z
" id="DejaVuSans-115"/>
     </defs>
     <g transform="translate(248.55 343.476562)scale(0.1 -0.1)">
      <use transform="translate(0 0.015625)" xlink:href="#DejaVuSans-84"/>
      <use transform="translate(61.083984 0.015625)" xlink:href="#DejaVuSans-105"/>
      <use transform="translate(88.867188 0.015625)" xlink:href="#DejaVuSans-109"/>
      <use transform="translate(186.279297 0.015625)" xlink:href="#DejaVuSans-101"/>
      <use transform="translate(247.802734 0.015625)" xlink:href="#DejaVuSans-44"/>
      <use transform="translate(279.589844 0.015625)" xlink:href="#DejaVuSans-32"/>
      <use transform="translate(311.376953 0.015625)" xlink:href="#DejaVuSans-Oblique-116"/>
      <use transform="translate(350.585938 0.015625)" xlink:href="#DejaVuSans-32"/>
      <use transform="translate(382.373047 0.015625)" xlink:href="#DejaVuSans-47"/>
      <use transform="translate(416.064453 0.015625)" xlink:href="#DejaVuSans-115"/>
     </g>
    </g>
   </g>
   <g id="matplotlib.axis_2">
    <g id="ytick_1">
     <g id="line2d_10">
      <defs>
       <path d="M 0 0 
L -3.5 0 
" id="m93331fc78c" style="stroke:#000000;stroke-width:0.8;"/>
      </defs>
      <g>
       <use style="stroke:#000000;stroke-width:0.8;" x="50.8" xlink:href="#m93331fc78c" y="280.205189"/>
      </g>
     </g>
     <g id="text_11">
      <!-- 0.0 -->
      <g transform="translate(27.896875 284.004408)scale(0.1 -0.1)">
       <use xlink:href="#DejaVuSans-48"/>
       <use x="63.623047" xlink:href="#DejaVuSans-46"/>
       <use x="95.410156" xlink:href="#DejaVuSans-48"/>
      </g>
     </g>
    </g>
    <g id="ytick_2">
     <g id="line2d_11">
      <g>
       <use style="stroke:#000000;stroke-width:0.8;" x="50.8" xlink:href="#m93331fc78c" y="233.326456"/>
      </g>
     </g>
     <g id="text_12">
      <!-- 0.2 -->
      <g transform="translate(27.896875 237.125675)scale(0.1 -0.1)">
       <use xlink:href="#DejaVuSans-48"/>
       <use x="63.623047" xlink:href="#DejaVuSans-46"/>
       <use x="95.410156" xlink:href="#DejaVuSans-50"/>
      </g>
     </g>
    </g>
    <g id="ytick_3">
     <g id="line2d_12">
      <g>
       <use style="stroke:#000000;stroke-width:0.8;" x="50.8" xlink:href="#m93331fc78c" y="186.447723"/>
      </g>
     </g>
     <g id="text_13">
      <!-- 0.4 -->
      <defs>
       <path d="M 37.796875 64.3125 
L 12.890625 25.390625 
L 37.796875 25.390625 
z
M 35.203125 72.90625 
L 47.609375 72.90625 
L 47.609375 25.390625 
L 58.015625 25.390625 
L 58.015625 17.1875 
L 47.609375 17.1875 
L 47.609375 0 
L 37.796875 0 
L 37.796875 17.1875 
L 4.890625 17.1875 
L 4.890625 26.703125 
z
" id="DejaVuSans-52"/>
      </defs>
      <g transform="translate(27.896875 190.246942)scale(0.1 -0.1)">
       <use xlink:href="#DejaVuSans-48"/>
       <use x="63.623047" xlink:href="#DejaVuSans-46"/>
       <use x="95.410156" xlink:href="#DejaVuSans-52"/>
      </g>
     </g>
    </g>
    <g id="ytick_4">
     <g id="line2d_13">
      <g>
       <use style="stroke:#000000;stroke-width:0.8;" x="50.8" xlink:href="#m93331fc78c" y="139.56899"/>
      </g>
     </g>
     <g id="text_14">
      <!-- 0.6 -->
      <defs>
       <path d="M 33.015625 40.375 
Q 26.375 40.375 22.484375 35.828125 
Q 18.609375 31.296875 18.609375 23.390625 
Q 18.609375 15.53125 22.484375 10.953125 
Q 26.375 6.390625 33.015625 6.390625 
Q 39.65625 6.390625 43.53125 10.953125 
Q 47.40625 15.53125 47.40625 23.390625 
Q 47.40625 31.296875 43.53125 35.828125 
Q 39.65625 40.375 33.015625 40.375 
z
M 52.59375 71.296875 
L 52.59375 62.3125 
Q 48.875 64.0625 45.09375 64.984375 
Q 41.3125 65.921875 37.59375 65.921875 
Q 27.828125 65.921875 22.671875 59.328125 
Q 17.53125 52.734375 16.796875 39.40625 
Q 19.671875 43.65625 24.015625 45.921875 
Q 28.375 48.1875 33.59375 48.1875 
Q 44.578125 48.1875 50.953125 41.515625 
Q 57.328125 34.859375 57.328125 23.390625 
Q 57.328125 12.15625 50.6875 5.359375 
Q 44.046875 -1.421875 33.015625 -1.421875 
Q 20.359375 -1.421875 13.671875 8.265625 
Q 6.984375 17.96875 6.984375 36.375 
Q 6.984375 53.65625 15.1875 63.9375 
Q 23.390625 74.21875 37.203125 74.21875 
Q 40.921875 74.21875 44.703125 73.484375 
Q 48.484375 72.75 52.59375 71.296875 
z
" id="DejaVuSans-54"/>
      </defs>
      <g transform="translate(27.896875 143.368209)scale(0.1 -0.1)">
       <use xlink:href="#DejaVuSans-48"/>
       <use x="63.623047" xlink:href="#DejaVuSans-46"/>
       <use x="95.410156" xlink:href="#DejaVuSans-54"/>
      </g>
     </g>
    </g>
    <g id="ytick_5">
     <g id="line2d_14">
      <g>
       <use style="stroke:#000000;stroke-width:0.8;" x="50.8" xlink:href="#m93331fc78c" y="92.690257"/>
      </g>
     </g>
     <g id="text_15">
      <!-- 0.8 -->
      <defs>
       <path d="M 31.78125 34.625 
Q 24.75 34.625 20.71875 30.859375 
Q 16.703125 27.09375 16.703125 20.515625 
Q 16.703125 13.921875 20.71875 10.15625 
Q 24.75 6.390625 31.78125 6.390625 
Q 38.8125 6.390625 42.859375 10.171875 
Q 46.921875 13.96875 46.921875 20.515625 
Q 46.921875 27.09375 42.890625 30.859375 
Q 38.875 34.625 31.78125 34.625 
z
M 21.921875 38.8125 
Q 15.578125 40.375 12.03125 44.71875 
Q 8.5 49.078125 8.5 55.328125 
Q 8.5 64.0625 14.71875 69.140625 
Q 20.953125 74.21875 31.78125 74.21875 
Q 42.671875 74.21875 48.875 69.140625 
Q 55.078125 64.0625 55.078125 55.328125 
Q 55.078125 49.078125 51.53125 44.71875 
Q 48 40.375 41.703125 38.8125 
Q 48.828125 37.15625 52.796875 32.3125 
Q 56.78125 27.484375 56.78125 20.515625 
Q 56.78125 9.90625 50.3125 4.234375 
Q 43.84375 -1.421875 31.78125 -1.421875 
Q 19.734375 -1.421875 13.25 4.234375 
Q 6.78125 9.90625 6.78125 20.515625 
Q 6.78125 27.484375 10.78125 32.3125 
Q 14.796875 37.15625 21.921875 38.8125 
z
M 18.3125 54.390625 
Q 18.3125 48.734375 21.84375 45.5625 
Q 25.390625 42.390625 31.78125 42.390625 
Q 38.140625 42.390625 41.71875 45.5625 
Q 45.3125 48.734375 45.3125 54.390625 
Q 45.3125 60.0625 41.71875 63.234375 
Q 38.140625 66.40625 31.78125 66.40625 
Q 25.390625 66.40625 21.84375 63.234375 
Q 18.3125 60.0625 18.3125 54.390625 
z
" id="DejaVuSans-56"/>
      </defs>
      <g transform="translate(27.896875 96.489476)scale(0.1 -0.1)">
       <use xlink:href="#DejaVuSans-48"/>
       <use x="63.623047" xlink:href="#DejaVuSans-46"/>
       <use x="95.410156" xlink:href="#DejaVuSans-56"/>
      </g>
     </g>
    </g>
    <g id="ytick_6">
     <g id="line2d_15">
      <g>
       <use style="stroke:#000000;stroke-width:0.8;" x="50.8" xlink:href="#m93331fc78c" y="45.811524"/>
      </g>
     </g>
     <g id="text_16">
      <!-- 1.0 -->
      <g transform="translate(27.896875 49.610743)scale(0.1 -0.1)">
       <use xlink:href="#DejaVuSans-49"/>
       <use x="63.623047" xlink:href="#DejaVuSans-46"/>
       <use x="95.410156" xlink:href="#DejaVuSans-48"/>
      </g>
     </g>
    </g>
    <g id="text_17">
     <!-- $P(t)$ -->
     <defs>
      <path d="M 16.890625 72.90625 
L 39.703125 72.90625 
Q 49.65625 72.90625 54.875 68.265625 
Q 60.109375 63.625 60.109375 54.6875 
Q 60.109375 42.671875 52.390625 35.984375 
Q 44.671875 29.296875 30.71875 29.296875 
L 18.3125 29.296875 
L 12.59375 0 
L 2.6875 0 
z
M 25.203125 64.796875 
L 19.921875 37.40625 
L 32.328125 37.40625 
Q 40.71875 37.40625 45.203125 41.703125 
Q 49.703125 46 49.703125 54 
Q 49.703125 59.125 46.65625 61.953125 
Q 43.609375 64.796875 38.09375 64.796875 
z
" id="DejaVuSans-Oblique-80"/>
      <path d="M 31 75.875 
Q 24.46875 64.65625 21.28125 53.65625 
Q 18.109375 42.671875 18.109375 31.390625 
Q 18.109375 20.125 21.3125 9.0625 
Q 24.515625 -2 31 -13.1875 
L 23.1875 -13.1875 
Q 15.875 -1.703125 12.234375 9.375 
Q 8.59375 20.453125 8.59375 31.390625 
Q 8.59375 42.28125 12.203125 53.3125 
Q 15.828125 64.359375 23.1875 75.875 
z
" id="DejaVuSans-40"/>
      <path d="M 8.015625 75.875 
L 15.828125 75.875 
Q 23.140625 64.359375 26.78125 53.3125 
Q 30.421875 42.28125 30.421875 31.390625 
Q 30.421875 20.453125 26.78125 9.375 
Q 23.140625 -1.703125 15.828125 -13.1875 
L 8.015625 -13.1875 
Q 14.5 -2 17.703125 9.0625 
Q 20.90625 20.125 20.90625 31.390625 
Q 20.90625 42.671875 17.703125 53.65625 
Q 14.5 64.65625 8.015625 75.875 
z
" id="DejaVuSans-41"/>
     </defs>
     <g transform="translate(21.817188 171.9)rotate(-90)scale(0.1 -0.1)">
      <use transform="translate(0 0.125)" xlink:href="#DejaVuSans-Oblique-80"/>
      <use transform="translate(60.302734 0.125)" xlink:href="#DejaVuSans-40"/>
      <use transform="translate(99.316406 0.125)" xlink:href="#DejaVuSans-Oblique-116"/>
      <use transform="translate(138.525391 0.125)" xlink:href="#DejaVuSans-41"/>
     </g>
    </g>
   </g>
   <g id="line2d_16">
    <path clip-path="url(#p6566d053a8)" d="M 70.909091 40.508787 
L 71.311675 40.591215 
L 71.71426 40.83599 
L 72.519429 41.778018 
L 73.324597 43.220821 
L 74.934935 46.868639 
L 76.142688 49.39538 
L 76.947857 50.582101 
L 77.350441 50.964622 
L 77.753026 51.188414 
L 78.15561 51.245729 
L 78.558195 51.133858 
L 78.960779 50.855243 
L 79.765948 49.832883 
L 80.571117 48.295773 
L 83.791792 41.120473 
L 84.596961 40.193742 
L 84.999545 39.980948 
L 85.402129 39.948364 
L 85.804714 40.099185 
L 86.207298 40.431035 
L 87.012467 41.600659 
L 87.817636 43.331085 
L 91.038311 51.31536 
L 91.84348 52.314181 
L 92.246064 52.525619 
L 92.648649 52.529212 
L 93.051233 52.320638 
L 93.453817 51.901971 
L 94.258986 50.474867 
L 95.064155 48.39032 
L 98.28483 38.828429 
L 98.687415 38.134618 
L 99.089999 37.665586 
L 99.492583 37.442855 
L 99.895168 37.481108 
L 100.297752 37.787546 
L 100.700337 38.361443 
L 101.505506 40.26788 
L 102.310674 43.032848 
L 103.921012 49.903568 
L 105.128765 54.615479 
L 105.933934 56.732599 
L 106.336518 57.340892 
L 106.739103 57.599686 
L 107.141687 57.482479 
L 107.544272 56.972598 
L 107.946856 56.064165 
L 108.752025 53.086259 
L 109.557194 48.738806 
L 110.764947 40.531515 
L 112.375284 29.704767 
L 113.180453 26.053845 
L 113.583038 25.018687 
L 113.985622 24.636364 
L 114.388206 24.993103 
L 114.790791 26.166083 
L 115.193375 28.221549 
L 115.59596 31.213131 
L 116.401128 40.147641 
L 117.206297 53.098214 
L 118.011466 69.929356 
L 119.219219 101.507933 
L 120.829557 151.526648 
L 123.245063 227.387095 
L 124.452816 258.39225 
L 125.257985 274.754907 
L 126.063154 287.205364 
L 126.868323 295.641655 
L 127.270907 298.394927 
L 127.673492 300.224224 
L 128.076076 301.186476 
L 128.47866 301.350827 
L 128.881245 300.796901 
L 129.283829 299.612877 
L 130.088998 295.737592 
L 131.296751 287.661467 
L 132.907089 276.670826 
L 133.712258 272.477554 
L 134.517427 269.688183 
L 134.920011 268.879318 
L 135.322595 268.468592 
L 135.72518 268.447351 
L 136.127764 268.796365 
L 136.530349 269.486847 
L 137.335517 271.736781 
L 138.543271 276.550854 
L 140.153608 283.3677 
L 140.958777 286.038733 
L 141.763946 287.823473 
L 142.16653 288.331018 
L 142.569115 288.570163 
L 142.971699 288.542193 
L 143.374283 288.25623 
L 143.776868 287.728735 
L 144.582037 286.047382 
L 145.78979 282.458188 
L 147.400127 277.336994 
L 148.205296 275.32367 
L 149.010465 273.990737 
L 149.413049 273.624044 
L 149.815634 273.46857 
L 150.218218 273.524775 
L 150.620803 273.78677 
L 151.023387 274.242613 
L 151.828556 275.660745 
L 153.036309 278.658655 
L 154.646647 282.926411 
L 155.451815 284.596278 
L 156.256984 285.685272 
L 156.659569 285.972393 
L 157.062153 286.077367 
L 157.464737 285.999216 
L 157.867322 285.742508 
L 158.672491 284.738036 
L 159.477659 283.199927 
L 162.698335 276.024794 
L 163.503504 275.076511 
L 163.906088 274.839071 
L 164.308672 274.76947 
L 164.711257 274.868858 
L 165.113841 275.133252 
L 165.91901 276.11646 
L 166.724179 277.593693 
L 169.944854 284.386831 
L 170.750023 285.256812 
L 171.152607 285.461509 
L 171.555192 285.502762 
L 171.957776 285.379316 
L 172.36036 285.094931 
L 173.165529 284.082656 
L 173.970698 282.588511 
L 177.191373 275.818299 
L 177.996542 274.980876 
L 178.399126 274.79817 
L 178.801711 274.783098 
L 179.204295 274.937085 
L 179.60688 275.256404 
L 180.412048 276.350993 
L 181.217217 277.940807 
L 184.035308 284.396719 
L 184.840477 285.55009 
L 185.243061 285.892684 
L 185.645646 286.061025 
L 186.04823 286.047841 
L 186.450814 285.851321 
L 186.853399 285.47524 
L 187.658568 284.226974 
L 188.463736 282.439115 
L 191.281827 275.250111 
L 192.086996 273.991432 
L 192.48958 273.630658 
L 192.892165 273.470434 
L 193.294749 273.519725 
L 193.697334 273.78127 
L 194.099918 274.251376 
L 194.905087 275.770409 
L 195.710256 277.922559 
L 198.528347 286.536784 
L 199.333515 288.021377 
L 199.7361 288.430597 
L 200.138684 288.589176 
L 200.541269 288.484248 
L 200.943853 288.11056 
L 201.346437 287.470867 
L 202.151606 285.445366 
L 202.956775 282.590957 
L 205.774866 271.079681 
L 206.580035 269.101062 
L 206.982619 268.577165 
L 207.385203 268.410251 
L 207.787788 268.62447 
L 208.190372 269.233879 
L 208.592957 270.241528 
L 209.398125 273.405002 
L 210.203294 277.90066 
L 211.813632 289.102296 
L 213.021385 296.863761 
L 213.826554 300.277862 
L 214.229138 301.158315 
L 214.631723 301.363636 
L 215.034307 300.809676 
L 215.436891 299.421819 
L 215.839476 297.136825 
L 216.24206 293.904456 
L 217.047229 284.469687 
L 217.852398 271.021115 
L 218.657567 253.727774 
L 219.86532 221.592218 
L 221.475657 171.21485 
L 223.891164 95.7912 
L 225.098917 65.375267 
L 225.904086 49.486873 
L 226.709255 37.538118 
L 227.514424 29.597508 
L 227.917008 27.07984 
L 228.319592 25.473146 
L 228.722177 24.717292 
L 229.124761 24.740343 
L 229.527346 25.46035 
L 229.92993 26.787313 
L 230.735099 30.874426 
L 231.942852 39.080096 
L 233.55319 49.936393 
L 234.358358 53.969874 
L 235.163527 56.568124 
L 235.566112 57.277253 
L 235.968696 57.589368 
L 236.37128 57.51585 
L 236.773865 57.078423 
L 237.176449 56.308077 
L 237.981618 53.931195 
L 239.189371 49.02531 
L 240.799709 42.274905 
L 241.604878 39.702086 
L 242.410046 38.041426 
L 242.812631 37.60066 
L 243.215215 37.428726 
L 243.6178 37.522346 
L 244.020384 37.870508 
L 244.422968 38.455017 
L 245.228137 40.228944 
L 246.43589 43.888043 
L 248.046228 48.961835 
L 248.851397 50.900472 
L 249.656566 52.137183 
L 250.05915 52.451468 
L 250.461734 52.553814 
L 250.864319 52.445366 
L 251.266903 52.133562 
L 252.072072 50.958892 
L 252.877241 49.19822 
L 256.097916 41.249384 
L 256.903085 40.242849 
L 257.305669 40.000866 
L 257.708254 39.9418 
L 258.110838 40.065232 
L 258.513423 40.365234 
L 259.318591 41.445299 
L 260.12376 43.037274 
L 262.941851 49.490738 
L 263.74702 50.655569 
L 264.149604 51.01504 
L 264.552189 51.210911 
L 264.954773 51.238171 
L 265.357357 51.096959 
L 265.759942 50.792527 
L 266.565111 49.739328 
L 267.370279 48.212288 
L 270.18837 42.097703 
L 270.993539 41.017114 
L 271.396123 40.693661 
L 271.798708 40.529433 
L 272.201292 40.529433 
L 272.603877 40.693661 
L 273.006461 41.017114 
L 273.81163 42.097703 
L 274.616799 43.640328 
L 277.434889 49.739328 
L 278.240058 50.792527 
L 278.642643 51.096959 
L 279.045227 51.238171 
L 279.447811 51.210911 
L 279.850396 51.01504 
L 280.25298 50.655569 
L 281.058149 49.490738 
L 281.863318 47.851189 
L 284.681409 41.445299 
L 285.486577 40.365234 
L 285.889162 40.065232 
L 286.291746 39.9418 
L 286.694331 40.000866 
L 287.096915 40.242849 
L 287.499499 40.662578 
L 288.304668 41.987343 
L 289.109837 43.829386 
L 291.927928 50.958892 
L 292.733097 52.133562 
L 293.135681 52.445366 
L 293.538266 52.553814 
L 293.94085 52.451468 
L 294.343434 52.137183 
L 294.746019 51.616271 
L 295.551188 50.007739 
L 296.356356 47.791754 
L 299.174447 39.251229 
L 299.979616 37.870508 
L 300.3822 37.522346 
L 300.784785 37.428726 
L 301.187369 37.60066 
L 301.589954 38.041426 
L 301.992538 38.746231 
L 302.797707 40.887917 
L 303.602876 43.827065 
L 306.420966 55.243807 
L 307.226135 57.078423 
L 307.62872 57.51585 
L 308.031304 57.589368 
L 308.433888 57.277253 
L 308.836473 56.568124 
L 309.239057 55.461794 
L 310.044226 52.116103 
L 310.849395 47.478578 
L 314.07007 26.787313 
L 314.472654 25.46035 
L 314.875239 24.740343 
L 315.277823 24.717292 
L 315.680408 25.473146 
L 316.082992 27.07984 
L 316.485576 29.597508 
L 316.888161 33.072912 
L 317.69333 43.009472 
L 318.498498 56.953399 
L 319.303667 74.702146 
L 320.511421 107.377615 
L 322.524343 171.21485 
L 324.537265 233.022433 
L 325.745018 262.834002 
L 326.550187 278.242871 
L 327.355355 289.688861 
L 328.160524 297.136825 
L 328.563109 299.421819 
L 328.965693 300.809676 
L 329.368277 301.363636 
L 329.770862 301.158315 
L 330.173446 300.277862 
L 330.576031 298.813969 
L 331.381199 294.527622 
L 332.991537 283.324453 
L 334.19929 275.507253 
L 335.004459 271.6388 
L 335.809628 269.233879 
L 336.212212 268.62447 
L 336.614797 268.410251 
L 337.017381 268.577165 
L 337.419965 269.101062 
L 337.82255 269.948827 
L 338.627719 272.44663 
L 339.835472 277.433921 
L 341.445809 284.105562 
L 342.250978 286.57611 
L 343.056147 288.11056 
L 343.458731 288.484248 
L 343.861316 288.589176 
L 344.2639 288.430597 
L 344.666485 288.021377 
L 345.471653 286.536784 
L 346.276822 284.363631 
L 349.094913 275.770409 
L 349.900082 274.251376 
L 350.302666 273.78127 
L 350.705251 273.519725 
L 351.107835 273.470434 
L 351.51042 273.630658 
L 351.913004 273.991432 
L 352.718173 275.250111 
L 353.523342 277.068741 
L 356.341432 284.226974 
L 357.146601 285.47524 
L 357.549186 285.851321 
L 357.95177 286.047841 
L 358.354354 286.061025 
L 358.756939 285.892684 
L 359.159523 285.55009 
L 359.964692 284.396719 
L 360.769861 282.754081 
L 363.587952 276.350993 
L 364.39312 275.256404 
L 364.795705 274.937085 
L 365.198289 274.783098 
L 365.600874 274.79817 
L 366.003458 274.980876 
L 366.406042 275.324708 
L 367.211211 276.445787 
L 368.01638 278.019641 
L 370.834471 284.082656 
L 371.63964 285.094931 
L 372.042224 285.379316 
L 372.444808 285.502762 
L 372.847393 285.461509 
L 373.249977 285.256812 
L 374.055146 284.386831 
L 374.860315 282.99813 
L 376.068068 280.323258 
L 377.678406 276.803677 
L 378.483574 275.553675 
L 379.288743 274.868858 
L 379.691328 274.76947 
L 380.093912 274.839071 
L 380.496496 275.076511 
L 381.301665 276.024794 
L 382.106834 277.506337 
L 383.717172 281.325055 
L 384.924925 284.024548 
L 385.730094 285.317149 
L 386.132678 285.742508 
L 386.535263 285.999216 
L 386.937847 286.077367 
L 387.340431 285.972393 
L 387.743016 285.685272 
L 388.548185 284.596278 
L 389.353353 282.926411 
L 390.963691 278.658655 
L 392.171444 275.660745 
L 392.976613 274.242613 
L 393.379197 273.78677 
L 393.781782 273.524775 
L 394.184366 273.46857 
L 394.586951 273.624044 
L 394.989535 273.990737 
L 395.794704 275.32367 
L 396.599873 277.336994 
L 398.21021 282.458188 
L 399.417963 286.047382 
L 400.223132 287.728735 
L 400.625717 288.25623 
L 401.028301 288.542193 
L 401.430885 288.570163 
L 401.83347 288.331018 
L 402.236054 287.823473 
L 402.638639 287.054368 
L 403.443807 284.79962 
L 404.248976 281.780637 
L 406.664483 271.736781 
L 407.469651 269.486847 
L 407.872236 268.796365 
L 408.27482 268.447351 
L 408.677405 268.468592 
L 409.079989 268.879318 
L 409.482573 269.688183 
L 409.885158 270.892469 
L 410.690327 274.416649 
L 411.495495 279.189344 
L 414.313586 297.893431 
L 414.716171 299.612877 
L 415.118755 300.796901 
L 415.52134 301.350827 
L 415.923924 301.186476 
L 416.326508 300.224224 
L 416.729093 298.394927 
L 417.131677 295.641655 
L 417.936846 287.205364 
L 418.742015 274.754907 
L 419.547184 258.39225 
L 420.754937 227.387095 
L 422.365274 177.757908 
L 424.780781 101.507933 
L 425.988534 69.929356 
L 426.793703 53.098214 
L 427.598872 40.147641 
L 428.40404 31.213131 
L 428.806625 28.221549 
L 429.209209 26.166083 
L 429.611794 24.993103 
L 430.014378 24.636364 
L 430.416962 25.018687 
L 430.819547 26.053845 
L 431.222131 27.648586 
L 432.0273 32.121532 
L 435.247975 53.086259 
L 436.053144 56.064165 
L 436.455728 56.972598 
L 436.858313 57.482479 
L 437.260897 57.599686 
L 437.663482 57.340892 
L 438.066066 56.732599 
L 438.871235 54.615479 
L 439.676404 51.608391 
L 442.09191 41.558356 
L 442.897079 39.193908 
L 443.299663 38.361443 
L 443.702248 37.787546 
L 444.104832 37.481108 
L 444.507417 37.442855 
L 444.910001 37.665586 
L 445.312585 38.134618 
L 446.117754 39.719476 
L 446.922923 41.958909 
L 449.338429 49.502236 
L 450.143598 51.281752 
L 450.948767 52.320638 
L 451.351351 52.529212 
L 451.753936 52.525619 
L 452.15652 52.314181 
L 452.559105 51.905366 
L 453.364273 50.565486 
L 454.169442 48.692649 
L 456.584949 42.406691 
L 457.390117 40.935972 
L 458.195286 40.099185 
L 458.597871 39.948364 
L 459.000455 39.980948 
L 459.403039 40.193742 
L 459.805624 40.578147 
L 460.610793 41.802407 
L 461.818546 44.446659 
L 463.831468 49.118627 
L 464.636637 50.417431 
L 465.441805 51.133858 
L 465.84439 51.245729 
L 466.246974 51.188414 
L 466.649559 50.964622 
L 467.454727 50.053383 
L 468.259896 48.628858 
L 469.870234 44.989409 
L 471.077987 42.446545 
L 471.883156 41.235652 
L 472.688325 40.591215 
L 473.090909 40.508787 
L 473.090909 40.508787 
" style="fill:none;stroke:#1f77b4;stroke-linecap:square;stroke-width:1.5;"/>
   </g>
   <g id="patch_3">
    <path d="M 50.8 315.2 
L 50.8 10.8 
" style="fill:none;stroke:#000000;stroke-linecap:square;stroke-linejoin:miter;stroke-width:0.8;"/>
   </g>
   <g id="patch_4">
    <path d="M 493.2 315.2 
L 493.2 10.8 
" style="fill:none;stroke:#000000;stroke-linecap:square;stroke-linejoin:miter;stroke-width:0.8;"/>
   </g>
   <g id="patch_5">
    <path d="M 50.8 315.2 
L 493.2 315.2 
" style="fill:none;stroke:#000000;stroke-linecap:square;stroke-linejoin:miter;stroke-width:0.8;"/>
   </g>
   <g id="patch_6">
    <path d="M 50.8 10.8 
L 493.2 10.8 
" style="fill:none;stroke:#000000;stroke-linecap:square;stroke-linejoin:miter;stroke-width:0.8;"/>
   </g>
   <g id="text_18">
    <!-- n= 7 -->
    <defs>
     <path d="M 54.890625 33.015625 
L 54.890625 0 
L 45.90625 0 
L 45.90625 32.71875 
Q 45.90625 40.484375 42.875 44.328125 
Q 39.84375 48.1875 33.796875 48.1875 
Q 26.515625 48.1875 22.3125 43.546875 
Q 18.109375 38.921875 18.109375 30.90625 
L 18.109375 0 
L 9.078125 0 
L 9.078125 54.6875 
L 18.109375 54.6875 
L 18.109375 46.1875 
Q 21.34375 51.125 25.703125 53.5625 
Q 30.078125 56 35.796875 56 
Q 45.21875 56 50.046875 50.171875 
Q 54.890625 44.34375 54.890625 33.015625 
z
" id="DejaVuSans-110"/>
     <path d="M 10.59375 45.40625 
L 73.1875 45.40625 
L 73.1875 37.203125 
L 10.59375 37.203125 
z
M 10.59375 25.484375 
L 73.1875 25.484375 
L 73.1875 17.1875 
L 10.59375 17.1875 
z
" id="DejaVuSans-61"/>
     <path d="M 8.203125 72.90625 
L 55.078125 72.90625 
L 55.078125 68.703125 
L 28.609375 0 
L 18.3125 0 
L 43.21875 64.59375 
L 8.203125 64.59375 
z
" id="DejaVuSans-55"/>
    </defs>
    <g transform="translate(422.818182 280.205189)scale(0.2 -0.2)">
     <use xlink:href="#DejaVuSans-110"/>
     <use x="63.378906" xlink:href="#DejaVuSans-61"/>
     <use x="147.167969" xlink:href="#DejaVuSans-32"/>
     <use x="178.955078" xlink:href="#DejaVuSans-55"/>
    </g>
   </g>
  </g>
 </g>
 <defs>
  <clipPath id="p6566d053a8">
   <rect height="304.4" width="442.4" x="50.8" y="10.8"/>
  </clipPath>
 </defs>
</svg>
