<?xml version="1.0" encoding="utf-8" standalone="no"?>
<!DOCTYPE svg PUBLIC "-//W3C//DTD SVG 1.1//EN"
  "http://www.w3.org/Graphics/SVG/1.1/DTD/svg11.dtd">
<!-- Created with matplotlib (https://matplotlib.org/) -->
<svg height="360pt" version="1.1" viewBox="0 0 504 360" width="504pt" xmlns="http://www.w3.org/2000/svg" xmlns:xlink="http://www.w3.org/1999/xlink">
 <defs>
  <style type="text/css">
*{stroke-linecap:butt;stroke-linejoin:round;}
  </style>
 </defs>
 <g id="figure_1">
  <g id="patch_1">
   <path d="M 0 360 
L 504 360 
L 504 0 
L 0 0 
z
" style="fill:none;"/>
  </g>
  <g id="axes_1">
   <g id="patch_2">
    <path d="M 50.8 315.2 
L 493.2 315.2 
L 493.2 10.8 
L 50.8 10.8 
z
" style="fill:none;"/>
   </g>
   <g id="matplotlib.axis_1">
    <g id="xtick_1">
     <g id="line2d_1">
      <defs>
       <path d="M 0 0 
L 0 3.5 
" id="m42669c3cc4" style="stroke:#000000;stroke-width:0.8;"/>
      </defs>
      <g>
       <use style="stroke:#000000;stroke-width:0.8;" x="70.909091" xlink:href="#m42669c3cc4" y="315.2"/>
      </g>
     </g>
     <g id="text_1">
      <!-- −2.0 -->
      <defs>
       <path d="M 10.59375 35.5 
L 73.1875 35.5 
L 73.1875 27.203125 
L 10.59375 27.203125 
z
" id="DejaVuSans-8722"/>
       <path d="M 19.1875 8.296875 
L 53.609375 8.296875 
L 53.609375 0 
L 7.328125 0 
L 7.328125 8.296875 
Q 12.9375 14.109375 22.625 23.890625 
Q 32.328125 33.6875 34.8125 36.53125 
Q 39.546875 41.84375 41.421875 45.53125 
Q 43.3125 49.21875 43.3125 52.78125 
Q 43.3125 58.59375 39.234375 62.25 
Q 35.15625 65.921875 28.609375 65.921875 
Q 23.96875 65.921875 18.8125 64.3125 
Q 13.671875 62.703125 7.8125 59.421875 
L 7.8125 69.390625 
Q 13.765625 71.78125 18.9375 73 
Q 24.125 74.21875 28.421875 74.21875 
Q 39.75 74.21875 46.484375 68.546875 
Q 53.21875 62.890625 53.21875 53.421875 
Q 53.21875 48.921875 51.53125 44.890625 
Q 49.859375 40.875 45.40625 35.40625 
Q 44.1875 33.984375 37.640625 27.21875 
Q 31.109375 20.453125 19.1875 8.296875 
z
" id="DejaVuSans-50"/>
       <path d="M 10.6875 12.40625 
L 21 12.40625 
L 21 0 
L 10.6875 0 
z
" id="DejaVuSans-46"/>
       <path d="M 31.78125 66.40625 
Q 24.171875 66.40625 20.328125 58.90625 
Q 16.5 51.421875 16.5 36.375 
Q 16.5 21.390625 20.328125 13.890625 
Q 24.171875 6.390625 31.78125 6.390625 
Q 39.453125 6.390625 43.28125 13.890625 
Q 47.125 21.390625 47.125 36.375 
Q 47.125 51.421875 43.28125 58.90625 
Q 39.453125 66.40625 31.78125 66.40625 
z
M 31.78125 74.21875 
Q 44.046875 74.21875 50.515625 64.515625 
Q 56.984375 54.828125 56.984375 36.375 
Q 56.984375 17.96875 50.515625 8.265625 
Q 44.046875 -1.421875 31.78125 -1.421875 
Q 19.53125 -1.421875 13.0625 8.265625 
Q 6.59375 17.96875 6.59375 36.375 
Q 6.59375 54.828125 13.0625 64.515625 
Q 19.53125 74.21875 31.78125 74.21875 
z
" id="DejaVuSans-48"/>
      </defs>
      <g transform="translate(58.767685 329.798437)scale(0.1 -0.1)">
       <use xlink:href="#DejaVuSans-8722"/>
       <use x="83.789062" xlink:href="#DejaVuSans-50"/>
       <use x="147.412109" xlink:href="#DejaVuSans-46"/>
       <use x="179.199219" xlink:href="#DejaVuSans-48"/>
      </g>
     </g>
    </g>
    <g id="xtick_2">
     <g id="line2d_2">
      <g>
       <use style="stroke:#000000;stroke-width:0.8;" x="121.181818" xlink:href="#m42669c3cc4" y="315.2"/>
      </g>
     </g>
     <g id="text_2">
      <!-- −1.5 -->
      <defs>
       <path d="M 12.40625 8.296875 
L 28.515625 8.296875 
L 28.515625 63.921875 
L 10.984375 60.40625 
L 10.984375 69.390625 
L 28.421875 72.90625 
L 38.28125 72.90625 
L 38.28125 8.296875 
L 54.390625 8.296875 
L 54.390625 0 
L 12.40625 0 
z
" id="DejaVuSans-49"/>
       <path d="M 10.796875 72.90625 
L 49.515625 72.90625 
L 49.515625 64.59375 
L 19.828125 64.59375 
L 19.828125 46.734375 
Q 21.96875 47.46875 24.109375 47.828125 
Q 26.265625 48.1875 28.421875 48.1875 
Q 40.625 48.1875 47.75 41.5 
Q 54.890625 34.8125 54.890625 23.390625 
Q 54.890625 11.625 47.5625 5.09375 
Q 40.234375 -1.421875 26.90625 -1.421875 
Q 22.3125 -1.421875 17.546875 -0.640625 
Q 12.796875 0.140625 7.71875 1.703125 
L 7.71875 11.625 
Q 12.109375 9.234375 16.796875 8.0625 
Q 21.484375 6.890625 26.703125 6.890625 
Q 35.15625 6.890625 40.078125 11.328125 
Q 45.015625 15.765625 45.015625 23.390625 
Q 45.015625 31 40.078125 35.4375 
Q 35.15625 39.890625 26.703125 39.890625 
Q 22.75 39.890625 18.8125 39.015625 
Q 14.890625 38.140625 10.796875 36.28125 
z
" id="DejaVuSans-53"/>
      </defs>
      <g transform="translate(109.040412 329.798437)scale(0.1 -0.1)">
       <use xlink:href="#DejaVuSans-8722"/>
       <use x="83.789062" xlink:href="#DejaVuSans-49"/>
       <use x="147.412109" xlink:href="#DejaVuSans-46"/>
       <use x="179.199219" xlink:href="#DejaVuSans-53"/>
      </g>
     </g>
    </g>
    <g id="xtick_3">
     <g id="line2d_3">
      <g>
       <use style="stroke:#000000;stroke-width:0.8;" x="171.454545" xlink:href="#m42669c3cc4" y="315.2"/>
      </g>
     </g>
     <g id="text_3">
      <!-- −1.0 -->
      <g transform="translate(159.313139 329.798437)scale(0.1 -0.1)">
       <use xlink:href="#DejaVuSans-8722"/>
       <use x="83.789062" xlink:href="#DejaVuSans-49"/>
       <use x="147.412109" xlink:href="#DejaVuSans-46"/>
       <use x="179.199219" xlink:href="#DejaVuSans-48"/>
      </g>
     </g>
    </g>
    <g id="xtick_4">
     <g id="line2d_4">
      <g>
       <use style="stroke:#000000;stroke-width:0.8;" x="221.727273" xlink:href="#m42669c3cc4" y="315.2"/>
      </g>
     </g>
     <g id="text_4">
      <!-- −0.5 -->
      <g transform="translate(209.585866 329.798437)scale(0.1 -0.1)">
       <use xlink:href="#DejaVuSans-8722"/>
       <use x="83.789062" xlink:href="#DejaVuSans-48"/>
       <use x="147.412109" xlink:href="#DejaVuSans-46"/>
       <use x="179.199219" xlink:href="#DejaVuSans-53"/>
      </g>
     </g>
    </g>
    <g id="xtick_5">
     <g id="line2d_5">
      <g>
       <use style="stroke:#000000;stroke-width:0.8;" x="272" xlink:href="#m42669c3cc4" y="315.2"/>
      </g>
     </g>
     <g id="text_5">
      <!-- 0.0 -->
      <g transform="translate(264.048437 329.798437)scale(0.1 -0.1)">
       <use xlink:href="#DejaVuSans-48"/>
       <use x="63.623047" xlink:href="#DejaVuSans-46"/>
       <use x="95.410156" xlink:href="#DejaVuSans-48"/>
      </g>
     </g>
    </g>
    <g id="xtick_6">
     <g id="line2d_6">
      <g>
       <use style="stroke:#000000;stroke-width:0.8;" x="322.272727" xlink:href="#m42669c3cc4" y="315.2"/>
      </g>
     </g>
     <g id="text_6">
      <!-- 0.5 -->
      <g transform="translate(314.321165 329.798437)scale(0.1 -0.1)">
       <use xlink:href="#DejaVuSans-48"/>
       <use x="63.623047" xlink:href="#DejaVuSans-46"/>
       <use x="95.410156" xlink:href="#DejaVuSans-53"/>
      </g>
     </g>
    </g>
    <g id="xtick_7">
     <g id="line2d_7">
      <g>
       <use style="stroke:#000000;stroke-width:0.8;" x="372.545455" xlink:href="#m42669c3cc4" y="315.2"/>
      </g>
     </g>
     <g id="text_7">
      <!-- 1.0 -->
      <g transform="translate(364.593892 329.798437)scale(0.1 -0.1)">
       <use xlink:href="#DejaVuSans-49"/>
       <use x="63.623047" xlink:href="#DejaVuSans-46"/>
       <use x="95.410156" xlink:href="#DejaVuSans-48"/>
      </g>
     </g>
    </g>
    <g id="xtick_8">
     <g id="line2d_8">
      <g>
       <use style="stroke:#000000;stroke-width:0.8;" x="422.818182" xlink:href="#m42669c3cc4" y="315.2"/>
      </g>
     </g>
     <g id="text_8">
      <!-- 1.5 -->
      <g transform="translate(414.866619 329.798437)scale(0.1 -0.1)">
       <use xlink:href="#DejaVuSans-49"/>
       <use x="63.623047" xlink:href="#DejaVuSans-46"/>
       <use x="95.410156" xlink:href="#DejaVuSans-53"/>
      </g>
     </g>
    </g>
    <g id="xtick_9">
     <g id="line2d_9">
      <g>
       <use style="stroke:#000000;stroke-width:0.8;" x="473.090909" xlink:href="#m42669c3cc4" y="315.2"/>
      </g>
     </g>
     <g id="text_9">
      <!-- 2.0 -->
      <g transform="translate(465.139347 329.798437)scale(0.1 -0.1)">
       <use xlink:href="#DejaVuSans-50"/>
       <use x="63.623047" xlink:href="#DejaVuSans-46"/>
       <use x="95.410156" xlink:href="#DejaVuSans-48"/>
      </g>
     </g>
    </g>
    <g id="text_10">
     <!-- Time, $t$ /s -->
     <defs>
      <path d="M -0.296875 72.90625 
L 61.375 72.90625 
L 61.375 64.59375 
L 35.5 64.59375 
L 35.5 0 
L 25.59375 0 
L 25.59375 64.59375 
L -0.296875 64.59375 
z
" id="DejaVuSans-84"/>
      <path d="M 9.421875 54.6875 
L 18.40625 54.6875 
L 18.40625 0 
L 9.421875 0 
z
M 9.421875 75.984375 
L 18.40625 75.984375 
L 18.40625 64.59375 
L 9.421875 64.59375 
z
" id="DejaVuSans-105"/>
      <path d="M 52 44.1875 
Q 55.375 50.25 60.0625 53.125 
Q 64.75 56 71.09375 56 
Q 79.640625 56 84.28125 50.015625 
Q 88.921875 44.046875 88.921875 33.015625 
L 88.921875 0 
L 79.890625 0 
L 79.890625 32.71875 
Q 79.890625 40.578125 77.09375 44.375 
Q 74.3125 48.1875 68.609375 48.1875 
Q 61.625 48.1875 57.5625 43.546875 
Q 53.515625 38.921875 53.515625 30.90625 
L 53.515625 0 
L 44.484375 0 
L 44.484375 32.71875 
Q 44.484375 40.625 41.703125 44.40625 
Q 38.921875 48.1875 33.109375 48.1875 
Q 26.21875 48.1875 22.15625 43.53125 
Q 18.109375 38.875 18.109375 30.90625 
L 18.109375 0 
L 9.078125 0 
L 9.078125 54.6875 
L 18.109375 54.6875 
L 18.109375 46.1875 
Q 21.1875 51.21875 25.484375 53.609375 
Q 29.78125 56 35.6875 56 
Q 41.65625 56 45.828125 52.96875 
Q 50 49.953125 52 44.1875 
z
" id="DejaVuSans-109"/>
      <path d="M 56.203125 29.59375 
L 56.203125 25.203125 
L 14.890625 25.203125 
Q 15.484375 15.921875 20.484375 11.0625 
Q 25.484375 6.203125 34.421875 6.203125 
Q 39.59375 6.203125 44.453125 7.46875 
Q 49.3125 8.734375 54.109375 11.28125 
L 54.109375 2.78125 
Q 49.265625 0.734375 44.1875 -0.34375 
Q 39.109375 -1.421875 33.890625 -1.421875 
Q 20.796875 -1.421875 13.15625 6.1875 
Q 5.515625 13.8125 5.515625 26.8125 
Q 5.515625 40.234375 12.765625 48.109375 
Q 20.015625 56 32.328125 56 
Q 43.359375 56 49.78125 48.890625 
Q 56.203125 41.796875 56.203125 29.59375 
z
M 47.21875 32.234375 
Q 47.125 39.59375 43.09375 43.984375 
Q 39.0625 48.390625 32.421875 48.390625 
Q 24.90625 48.390625 20.390625 44.140625 
Q 15.875 39.890625 15.1875 32.171875 
z
" id="DejaVuSans-101"/>
      <path d="M 11.71875 12.40625 
L 22.015625 12.40625 
L 22.015625 4 
L 14.015625 -11.625 
L 7.71875 -11.625 
L 11.71875 4 
z
" id="DejaVuSans-44"/>
      <path id="DejaVuSans-32"/>
      <path d="M 42.28125 54.6875 
L 40.921875 47.703125 
L 23 47.703125 
L 17.1875 18.015625 
Q 16.890625 16.359375 16.75 15.234375 
Q 16.609375 14.109375 16.609375 13.484375 
Q 16.609375 10.359375 18.484375 8.9375 
Q 20.359375 7.515625 24.515625 7.515625 
L 33.59375 7.515625 
L 32.078125 0 
L 23.484375 0 
Q 15.484375 0 11.546875 3.125 
Q 7.625 6.25 7.625 12.59375 
Q 7.625 13.71875 7.765625 15.0625 
Q 7.90625 16.40625 8.203125 18.015625 
L 14.015625 47.703125 
L 6.390625 47.703125 
L 7.8125 54.6875 
L 15.28125 54.6875 
L 18.3125 70.21875 
L 27.296875 70.21875 
L 24.3125 54.6875 
z
" id="DejaVuSans-Oblique-116"/>
      <path d="M 25.390625 72.90625 
L 33.6875 72.90625 
L 8.296875 -9.28125 
L 0 -9.28125 
z
" id="DejaVuSans-47"/>
      <path d="M 44.28125 53.078125 
L 44.28125 44.578125 
Q 40.484375 46.53125 36.375 47.5 
Q 32.28125 48.484375 27.875 48.484375 
Q 21.1875 48.484375 17.84375 46.4375 
Q 14.5 44.390625 14.5 40.28125 
Q 14.5 37.15625 16.890625 35.375 
Q 19.28125 33.59375 26.515625 31.984375 
L 29.59375 31.296875 
Q 39.15625 29.25 43.1875 25.515625 
Q 47.21875 21.78125 47.21875 15.09375 
Q 47.21875 7.46875 41.1875 3.015625 
Q 35.15625 -1.421875 24.609375 -1.421875 
Q 20.21875 -1.421875 15.453125 -0.5625 
Q 10.6875 0.296875 5.421875 2 
L 5.421875 11.28125 
Q 10.40625 8.6875 15.234375 7.390625 
Q 20.0625 6.109375 24.8125 6.109375 
Q 31.15625 6.109375 34.5625 8.28125 
Q 37.984375 10.453125 37.984375 14.40625 
Q 37.984375 18.0625 35.515625 20.015625 
Q 33.0625 21.96875 24.703125 23.78125 
L 21.578125 24.515625 
Q 13.234375 26.265625 9.515625 29.90625 
Q 5.8125 33.546875 5.8125 39.890625 
Q 5.8125 47.609375 11.28125 51.796875 
Q 16.75 56 26.8125 56 
Q 31.78125 56 36.171875 55.265625 
Q 40.578125 54.546875 44.28125 53.078125 
z
" id="DejaVuSans-115"/>
     </defs>
     <g transform="translate(248.55 343.476562)scale(0.1 -0.1)">
      <use transform="translate(0 0.015625)" xlink:href="#DejaVuSans-84"/>
      <use transform="translate(61.083984 0.015625)" xlink:href="#DejaVuSans-105"/>
      <use transform="translate(88.867188 0.015625)" xlink:href="#DejaVuSans-109"/>
      <use transform="translate(186.279297 0.015625)" xlink:href="#DejaVuSans-101"/>
      <use transform="translate(247.802734 0.015625)" xlink:href="#DejaVuSans-44"/>
      <use transform="translate(279.589844 0.015625)" xlink:href="#DejaVuSans-32"/>
      <use transform="translate(311.376953 0.015625)" xlink:href="#DejaVuSans-Oblique-116"/>
      <use transform="translate(350.585938 0.015625)" xlink:href="#DejaVuSans-32"/>
      <use transform="translate(382.373047 0.015625)" xlink:href="#DejaVuSans-47"/>
      <use transform="translate(416.064453 0.015625)" xlink:href="#DejaVuSans-115"/>
     </g>
    </g>
   </g>
   <g id="matplotlib.axis_2">
    <g id="ytick_1">
     <g id="line2d_10">
      <defs>
       <path d="M 0 0 
L -3.5 0 
" id="m6dda2c2e3c" style="stroke:#000000;stroke-width:0.8;"/>
      </defs>
      <g>
       <use style="stroke:#000000;stroke-width:0.8;" x="50.8" xlink:href="#m6dda2c2e3c" y="280.288164"/>
      </g>
     </g>
     <g id="text_11">
      <!-- 0.0 -->
      <g transform="translate(27.896875 284.087383)scale(0.1 -0.1)">
       <use xlink:href="#DejaVuSans-48"/>
       <use x="63.623047" xlink:href="#DejaVuSans-46"/>
       <use x="95.410156" xlink:href="#DejaVuSans-48"/>
      </g>
     </g>
    </g>
    <g id="ytick_2">
     <g id="line2d_11">
      <g>
       <use style="stroke:#000000;stroke-width:0.8;" x="50.8" xlink:href="#m6dda2c2e3c" y="233.37381"/>
      </g>
     </g>
     <g id="text_12">
      <!-- 0.2 -->
      <g transform="translate(27.896875 237.173029)scale(0.1 -0.1)">
       <use xlink:href="#DejaVuSans-48"/>
       <use x="63.623047" xlink:href="#DejaVuSans-46"/>
       <use x="95.410156" xlink:href="#DejaVuSans-50"/>
      </g>
     </g>
    </g>
    <g id="ytick_3">
     <g id="line2d_12">
      <g>
       <use style="stroke:#000000;stroke-width:0.8;" x="50.8" xlink:href="#m6dda2c2e3c" y="186.459456"/>
      </g>
     </g>
     <g id="text_13">
      <!-- 0.4 -->
      <defs>
       <path d="M 37.796875 64.3125 
L 12.890625 25.390625 
L 37.796875 25.390625 
z
M 35.203125 72.90625 
L 47.609375 72.90625 
L 47.609375 25.390625 
L 58.015625 25.390625 
L 58.015625 17.1875 
L 47.609375 17.1875 
L 47.609375 0 
L 37.796875 0 
L 37.796875 17.1875 
L 4.890625 17.1875 
L 4.890625 26.703125 
z
" id="DejaVuSans-52"/>
      </defs>
      <g transform="translate(27.896875 190.258675)scale(0.1 -0.1)">
       <use xlink:href="#DejaVuSans-48"/>
       <use x="63.623047" xlink:href="#DejaVuSans-46"/>
       <use x="95.410156" xlink:href="#DejaVuSans-52"/>
      </g>
     </g>
    </g>
    <g id="ytick_4">
     <g id="line2d_13">
      <g>
       <use style="stroke:#000000;stroke-width:0.8;" x="50.8" xlink:href="#m6dda2c2e3c" y="139.545103"/>
      </g>
     </g>
     <g id="text_14">
      <!-- 0.6 -->
      <defs>
       <path d="M 33.015625 40.375 
Q 26.375 40.375 22.484375 35.828125 
Q 18.609375 31.296875 18.609375 23.390625 
Q 18.609375 15.53125 22.484375 10.953125 
Q 26.375 6.390625 33.015625 6.390625 
Q 39.65625 6.390625 43.53125 10.953125 
Q 47.40625 15.53125 47.40625 23.390625 
Q 47.40625 31.296875 43.53125 35.828125 
Q 39.65625 40.375 33.015625 40.375 
z
M 52.59375 71.296875 
L 52.59375 62.3125 
Q 48.875 64.0625 45.09375 64.984375 
Q 41.3125 65.921875 37.59375 65.921875 
Q 27.828125 65.921875 22.671875 59.328125 
Q 17.53125 52.734375 16.796875 39.40625 
Q 19.671875 43.65625 24.015625 45.921875 
Q 28.375 48.1875 33.59375 48.1875 
Q 44.578125 48.1875 50.953125 41.515625 
Q 57.328125 34.859375 57.328125 23.390625 
Q 57.328125 12.15625 50.6875 5.359375 
Q 44.046875 -1.421875 33.015625 -1.421875 
Q 20.359375 -1.421875 13.671875 8.265625 
Q 6.984375 17.96875 6.984375 36.375 
Q 6.984375 53.65625 15.1875 63.9375 
Q 23.390625 74.21875 37.203125 74.21875 
Q 40.921875 74.21875 44.703125 73.484375 
Q 48.484375 72.75 52.59375 71.296875 
z
" id="DejaVuSans-54"/>
      </defs>
      <g transform="translate(27.896875 143.344321)scale(0.1 -0.1)">
       <use xlink:href="#DejaVuSans-48"/>
       <use x="63.623047" xlink:href="#DejaVuSans-46"/>
       <use x="95.410156" xlink:href="#DejaVuSans-54"/>
      </g>
     </g>
    </g>
    <g id="ytick_5">
     <g id="line2d_14">
      <g>
       <use style="stroke:#000000;stroke-width:0.8;" x="50.8" xlink:href="#m6dda2c2e3c" y="92.630749"/>
      </g>
     </g>
     <g id="text_15">
      <!-- 0.8 -->
      <defs>
       <path d="M 31.78125 34.625 
Q 24.75 34.625 20.71875 30.859375 
Q 16.703125 27.09375 16.703125 20.515625 
Q 16.703125 13.921875 20.71875 10.15625 
Q 24.75 6.390625 31.78125 6.390625 
Q 38.8125 6.390625 42.859375 10.171875 
Q 46.921875 13.96875 46.921875 20.515625 
Q 46.921875 27.09375 42.890625 30.859375 
Q 38.875 34.625 31.78125 34.625 
z
M 21.921875 38.8125 
Q 15.578125 40.375 12.03125 44.71875 
Q 8.5 49.078125 8.5 55.328125 
Q 8.5 64.0625 14.71875 69.140625 
Q 20.953125 74.21875 31.78125 74.21875 
Q 42.671875 74.21875 48.875 69.140625 
Q 55.078125 64.0625 55.078125 55.328125 
Q 55.078125 49.078125 51.53125 44.71875 
Q 48 40.375 41.703125 38.8125 
Q 48.828125 37.15625 52.796875 32.3125 
Q 56.78125 27.484375 56.78125 20.515625 
Q 56.78125 9.90625 50.3125 4.234375 
Q 43.84375 -1.421875 31.78125 -1.421875 
Q 19.734375 -1.421875 13.25 4.234375 
Q 6.78125 9.90625 6.78125 20.515625 
Q 6.78125 27.484375 10.78125 32.3125 
Q 14.796875 37.15625 21.921875 38.8125 
z
M 18.3125 54.390625 
Q 18.3125 48.734375 21.84375 45.5625 
Q 25.390625 42.390625 31.78125 42.390625 
Q 38.140625 42.390625 41.71875 45.5625 
Q 45.3125 48.734375 45.3125 54.390625 
Q 45.3125 60.0625 41.71875 63.234375 
Q 38.140625 66.40625 31.78125 66.40625 
Q 25.390625 66.40625 21.84375 63.234375 
Q 18.3125 60.0625 18.3125 54.390625 
z
" id="DejaVuSans-56"/>
      </defs>
      <g transform="translate(27.896875 96.429967)scale(0.1 -0.1)">
       <use xlink:href="#DejaVuSans-48"/>
       <use x="63.623047" xlink:href="#DejaVuSans-46"/>
       <use x="95.410156" xlink:href="#DejaVuSans-56"/>
      </g>
     </g>
    </g>
    <g id="ytick_6">
     <g id="line2d_15">
      <g>
       <use style="stroke:#000000;stroke-width:0.8;" x="50.8" xlink:href="#m6dda2c2e3c" y="45.716395"/>
      </g>
     </g>
     <g id="text_16">
      <!-- 1.0 -->
      <g transform="translate(27.896875 49.515614)scale(0.1 -0.1)">
       <use xlink:href="#DejaVuSans-49"/>
       <use x="63.623047" xlink:href="#DejaVuSans-46"/>
       <use x="95.410156" xlink:href="#DejaVuSans-48"/>
      </g>
     </g>
    </g>
    <g id="text_17">
     <!-- $P(t)$ -->
     <defs>
      <path d="M 16.890625 72.90625 
L 39.703125 72.90625 
Q 49.65625 72.90625 54.875 68.265625 
Q 60.109375 63.625 60.109375 54.6875 
Q 60.109375 42.671875 52.390625 35.984375 
Q 44.671875 29.296875 30.71875 29.296875 
L 18.3125 29.296875 
L 12.59375 0 
L 2.6875 0 
z
M 25.203125 64.796875 
L 19.921875 37.40625 
L 32.328125 37.40625 
Q 40.71875 37.40625 45.203125 41.703125 
Q 49.703125 46 49.703125 54 
Q 49.703125 59.125 46.65625 61.953125 
Q 43.609375 64.796875 38.09375 64.796875 
z
" id="DejaVuSans-Oblique-80"/>
      <path d="M 31 75.875 
Q 24.46875 64.65625 21.28125 53.65625 
Q 18.109375 42.671875 18.109375 31.390625 
Q 18.109375 20.125 21.3125 9.0625 
Q 24.515625 -2 31 -13.1875 
L 23.1875 -13.1875 
Q 15.875 -1.703125 12.234375 9.375 
Q 8.59375 20.453125 8.59375 31.390625 
Q 8.59375 42.28125 12.203125 53.3125 
Q 15.828125 64.359375 23.1875 75.875 
z
" id="DejaVuSans-40"/>
      <path d="M 8.015625 75.875 
L 15.828125 75.875 
Q 23.140625 64.359375 26.78125 53.3125 
Q 30.421875 42.28125 30.421875 31.390625 
Q 30.421875 20.453125 26.78125 9.375 
Q 23.140625 -1.703125 15.828125 -13.1875 
L 8.015625 -13.1875 
Q 14.5 -2 17.703125 9.0625 
Q 20.90625 20.125 20.90625 31.390625 
Q 20.90625 42.671875 17.703125 53.65625 
Q 14.5 64.65625 8.015625 75.875 
z
" id="DejaVuSans-41"/>
     </defs>
     <g transform="translate(21.817188 171.9)rotate(-90)scale(0.1 -0.1)">
      <use transform="translate(0 0.125)" xlink:href="#DejaVuSans-Oblique-80"/>
      <use transform="translate(60.302734 0.125)" xlink:href="#DejaVuSans-40"/>
      <use transform="translate(99.316406 0.125)" xlink:href="#DejaVuSans-Oblique-116"/>
      <use transform="translate(138.525391 0.125)" xlink:href="#DejaVuSans-41"/>
     </g>
    </g>
   </g>
   <g id="line2d_16">
    <path clip-path="url(#p69f1a5244b)" d="M 70.909091 49.440501 
L 71.311675 49.322973 
L 71.71426 48.977735 
L 72.519429 47.70335 
L 74.934935 42.660466 
L 75.337519 42.207432 
L 75.740104 41.9747 
L 76.142688 41.977722 
L 76.545273 42.217251 
L 76.947857 42.679232 
L 77.753026 44.146046 
L 79.765948 48.589054 
L 80.168532 49.157943 
L 80.571117 49.51296 
L 80.973701 49.630076 
L 81.376285 49.499993 
L 81.77887 49.12884 
L 82.584039 47.762518 
L 84.999545 42.312758 
L 85.402129 41.82067 
L 85.804714 41.570231 
L 86.207298 41.580294 
L 86.609883 41.853587 
L 87.012467 42.376338 
L 87.817636 44.037464 
L 89.830558 49.11522 
L 90.233142 49.770057 
L 90.635727 50.177609 
L 91.038311 50.307666 
L 91.440895 50.146924 
L 91.84348 49.700131 
L 92.648649 48.056728 
L 95.064155 41.417675 
L 95.466739 40.812068 
L 95.869324 40.506413 
L 96.271908 40.52761 
L 96.674493 40.882652 
L 97.077077 41.557688 
L 97.882246 43.711323 
L 99.895168 50.405762 
L 100.297752 51.282045 
L 100.700337 51.827354 
L 101.102921 51.99563 
L 101.505506 51.762981 
L 101.90809 51.129931 
L 102.310674 50.122247 
L 103.115843 47.206641 
L 104.726181 40.354532 
L 105.128765 39.066721 
L 105.53135 38.155408 
L 105.933934 37.697158 
L 106.336518 37.743751 
L 106.739103 38.317821 
L 107.141687 39.410028 
L 107.946856 42.947117 
L 110.362362 56.019667 
L 110.764947 57.009848 
L 111.167531 57.307412 
L 111.570116 56.83809 
L 111.9727 55.569093 
L 112.375284 53.51425 
L 113.180453 47.351042 
L 115.193375 28.344369 
L 115.59596 25.968575 
L 115.998544 24.737791 
L 116.401128 24.919039 
L 116.803713 26.746469 
L 117.206297 30.409791 
L 117.608882 36.044305 
L 118.41405 53.451284 
L 119.219219 78.727128 
L 120.426972 128.212725 
L 122.842479 236.009861 
L 123.647648 263.94844 
L 124.452816 284.394345 
L 124.855401 291.558799 
L 125.257985 296.691125 
L 125.66057 299.880512 
L 126.063154 301.276691 
L 126.465738 301.081487 
L 126.868323 299.538404 
L 127.270907 296.920742 
L 128.076076 289.627112 
L 129.283829 277.758028 
L 130.088998 271.905532 
L 130.491582 270.043171 
L 130.894167 268.974686 
L 131.296751 268.701882 
L 131.699336 269.181044 
L 132.10192 270.32855 
L 132.907089 274.139681 
L 134.920011 285.459615 
L 135.322595 286.914403 
L 135.72518 287.879758 
L 136.127764 288.321554 
L 136.530349 288.238614 
L 136.932933 287.66119 
L 137.335517 286.647722 
L 138.140686 283.657987 
L 139.751024 276.854524 
L 140.556193 274.679807 
L 140.958777 274.145428 
L 141.361361 274.01394 
L 141.763946 274.279628 
L 142.16653 274.912797 
L 142.971699 277.059527 
L 144.984621 283.750542 
L 145.387205 284.64409 
L 145.78979 285.241566 
L 146.192374 285.513627 
L 146.594959 285.451652 
L 146.997543 285.067747 
L 147.400127 284.393502 
L 148.205296 282.38245 
L 149.815634 277.696305 
L 150.620803 276.166859 
L 151.023387 275.790134 
L 151.425971 275.702361 
L 151.828556 275.903727 
L 152.23114 276.376554 
L 153.036309 277.985938 
L 155.049231 283.08972 
L 155.451815 283.780934 
L 155.8544 284.2435 
L 156.256984 284.451635 
L 156.659569 284.395672 
L 157.062153 284.082446 
L 157.464737 283.534665 
L 158.269906 281.895213 
L 159.880244 278.033296 
L 160.685413 276.761244 
L 161.087997 276.448941 
L 161.490581 276.380689 
L 161.893166 276.558746 
L 162.29575 276.970031 
L 163.100919 278.369701 
L 165.113841 282.849246 
L 165.516426 283.460369 
L 165.91901 283.868843 
L 166.321594 284.049991 
L 166.724179 283.993421 
L 167.126763 283.703606 
L 167.529348 283.199551 
L 168.334516 281.689188 
L 169.944854 278.106677 
L 170.750023 276.920113 
L 171.152607 276.63032 
L 171.555192 276.57144 
L 171.957776 276.747155 
L 172.36036 277.146482 
L 173.165529 278.50368 
L 175.581036 283.476631 
L 175.98362 283.876812 
L 176.386204 284.05149 
L 176.788789 283.988828 
L 177.191373 283.691801 
L 177.593958 283.178073 
L 178.399126 281.637546 
L 180.412048 277.25506 
L 180.814633 276.736633 
L 181.217217 276.439393 
L 181.619802 276.383803 
L 182.022386 276.575333 
L 182.42497 277.003998 
L 183.230139 278.459413 
L 185.645646 283.835873 
L 186.04823 284.270156 
L 186.450814 284.456623 
L 186.853399 284.380362 
L 187.255983 284.042776 
L 187.658568 283.461698 
L 188.463736 281.716261 
L 190.476658 276.70468 
L 190.879243 276.107979 
L 191.281827 275.767599 
L 191.684412 275.709689 
L 192.086996 275.943103 
L 192.48958 276.458533 
L 193.294749 278.209958 
L 195.710256 284.76424 
L 196.11284 285.2984 
L 196.515425 285.524114 
L 196.918009 285.419304 
L 197.320593 284.982148 
L 197.723178 284.231708 
L 198.528347 281.966524 
L 200.541269 275.351958 
L 200.943853 274.553009 
L 201.346437 274.098455 
L 201.749022 274.029097 
L 202.151606 274.362878 
L 202.554191 275.092985 
L 203.359359 277.589902 
L 205.774866 287.204328 
L 206.17745 288.008673 
L 206.580035 288.344492 
L 206.982619 288.166938 
L 207.385203 287.461171 
L 207.787788 286.244765 
L 208.592957 282.514078 
L 210.605879 271.117661 
L 211.008463 269.677849 
L 211.411047 268.851837 
L 211.813632 268.740546 
L 212.216216 269.408461 
L 212.618801 270.87712 
L 213.021385 273.120483 
L 213.826554 279.577138 
L 215.839476 298.345995 
L 216.24206 300.461901 
L 216.644645 301.363636 
L 217.047229 300.791246 
L 217.449813 298.520658 
L 217.852398 294.374905 
L 218.254982 288.233614 
L 219.060151 269.807019 
L 219.86532 243.619835 
L 221.073073 193.245824 
L 223.488579 86.14191 
L 224.293748 59.066477 
L 225.098917 39.626173 
L 225.501502 32.97455 
L 225.904086 28.338808 
L 226.30667 25.613956 
L 226.709255 24.636364 
L 227.111839 25.192741 
L 227.514424 27.030979 
L 228.319592 33.424124 
L 230.332514 52.209989 
L 230.735099 54.637119 
L 231.137683 56.303825 
L 231.540268 57.171703 
L 231.942852 57.250748 
L 232.345436 56.595251 
L 232.748021 55.297724 
L 233.55319 51.290626 
L 235.163527 41.918263 
L 235.968696 38.801033 
L 236.37128 37.964664 
L 236.773865 37.65521 
L 237.176449 37.865775 
L 237.579034 38.558697 
L 237.981618 39.669171 
L 238.786787 42.779068 
L 240.397124 49.492735 
L 240.799709 50.67033 
L 241.202293 51.495487 
L 241.604878 51.929977 
L 242.007462 51.960667 
L 242.410046 51.599435 
L 242.812631 50.881618 
L 243.6178 48.616408 
L 245.630722 42.005229 
L 246.033306 41.18185 
L 246.43589 40.663775 
L 246.838475 40.475234 
L 247.241059 40.619618 
L 247.643644 41.079786 
L 248.448812 42.786627 
L 250.864319 49.375915 
L 251.266903 49.958273 
L 251.669488 50.263777 
L 252.072072 50.278571 
L 252.474656 50.007008 
L 252.877241 49.471052 
L 253.68241 47.771007 
L 255.695332 42.722582 
L 256.097916 42.085275 
L 256.500501 41.684513 
L 256.903085 41.542142 
L 257.305669 41.6637 
L 257.708254 42.038285 
L 258.513423 43.426948 
L 260.928929 48.858954 
L 261.331513 49.343565 
L 261.734098 49.595914 
L 262.136682 49.602195 
L 262.539267 49.364018 
L 262.941851 48.898193 
L 263.74702 47.419011 
L 265.759942 42.985384 
L 266.162526 42.421876 
L 266.565111 42.06846 
L 266.967695 41.946345 
L 267.370279 42.062226 
L 267.772864 42.40793 
L 268.578033 43.686032 
L 270.993539 48.725943 
L 271.396123 49.177791 
L 271.798708 49.411003 
L 272.201292 49.411003 
L 272.603877 49.177791 
L 273.006461 48.725943 
L 273.81163 47.291265 
L 275.824552 42.960978 
L 276.227136 42.40793 
L 276.629721 42.062226 
L 277.032305 41.946345 
L 277.434889 42.06846 
L 277.837474 42.421876 
L 278.642643 43.724518 
L 281.058149 48.898193 
L 281.460733 49.364018 
L 281.863318 49.602195 
L 282.265902 49.595914 
L 282.668487 49.343565 
L 283.071071 48.858954 
L 283.87624 47.319987 
L 285.889162 42.639436 
L 286.291746 42.038285 
L 286.694331 41.6637 
L 287.096915 41.542142 
L 287.499499 41.684513 
L 287.902084 42.085275 
L 288.707253 43.559427 
L 291.122759 49.471052 
L 291.525344 50.007008 
L 291.927928 50.278571 
L 292.330512 50.263777 
L 292.733097 49.958273 
L 293.135681 49.375915 
L 293.94085 47.522856 
L 295.953772 41.81961 
L 296.356356 41.079786 
L 296.758941 40.619618 
L 297.161525 40.475234 
L 297.56411 40.663775 
L 297.966694 41.18185 
L 298.369278 42.005229 
L 299.174447 44.373769 
L 300.784785 49.863124 
L 301.589954 51.599435 
L 301.992538 51.960667 
L 302.395122 51.929977 
L 302.797707 51.495487 
L 303.200291 50.67033 
L 304.00546 48.024575 
L 306.018382 39.669171 
L 306.420966 38.558697 
L 306.823551 37.865775 
L 307.226135 37.65521 
L 307.62872 37.964664 
L 308.031304 38.801033 
L 308.433888 40.138469 
L 309.239057 44.050651 
L 311.251979 55.297724 
L 311.654564 56.595251 
L 312.057148 57.250748 
L 312.459732 57.171703 
L 312.862317 56.303825 
L 313.264901 54.637119 
L 314.07007 49.111078 
L 315.277823 37.393072 
L 316.082992 29.872298 
L 316.485576 27.030979 
L 316.888161 25.192741 
L 317.290745 24.636364 
L 317.69333 25.613956 
L 318.095914 28.338808 
L 318.498498 32.97455 
L 318.901083 39.626173 
L 319.706252 59.066477 
L 320.511421 86.14191 
L 321.719174 137.344223 
L 323.732096 228.034518 
L 324.537265 257.616286 
L 325.342433 280.040292 
L 326.147602 294.374905 
L 326.550187 298.520658 
L 326.952771 300.791246 
L 327.355355 301.363636 
L 327.75794 300.461901 
L 328.160524 298.345995 
L 328.965693 291.616008 
L 330.576031 276.062508 
L 331.381199 270.87712 
L 331.783784 269.408461 
L 332.186368 268.740546 
L 332.588953 268.851837 
L 332.991537 269.677849 
L 333.394121 271.117661 
L 334.19929 275.301757 
L 335.809628 284.568309 
L 336.614797 287.461171 
L 337.017381 288.166938 
L 337.419965 288.344492 
L 337.82255 288.008673 
L 338.225134 287.204328 
L 339.030303 284.494147 
L 341.043225 276.187387 
L 341.445809 275.092985 
L 341.848394 274.362878 
L 342.250978 274.029097 
L 342.653563 274.098455 
L 343.056147 274.553009 
L 343.458731 275.351958 
L 344.2639 277.725811 
L 345.874238 283.207287 
L 346.679407 284.982148 
L 347.081991 285.419304 
L 347.484575 285.524114 
L 347.88716 285.2984 
L 348.289744 284.76424 
L 349.094913 282.948101 
L 351.107835 277.22875 
L 351.51042 276.458533 
L 351.913004 275.943103 
L 352.315588 275.709689 
L 352.718173 275.767599 
L 353.120757 276.107979 
L 353.523342 276.70468 
L 354.32851 278.488316 
L 355.938848 282.67051 
L 356.744017 284.042776 
L 357.146601 284.380362 
L 357.549186 284.456623 
L 357.95177 284.270156 
L 358.354354 283.835873 
L 359.159523 282.357428 
L 361.172445 277.644852 
L 361.57503 277.003998 
L 361.977614 276.575333 
L 362.380198 276.383803 
L 362.782783 276.439393 
L 363.185367 276.736633 
L 363.587952 277.25506 
L 364.39312 278.807786 
L 366.003458 282.478961 
L 366.808627 283.691801 
L 367.211211 283.988828 
L 367.613796 284.05149 
L 368.01638 283.876812 
L 368.418964 283.476631 
L 369.224133 282.11558 
L 371.237055 277.744457 
L 372.042224 276.747155 
L 372.444808 276.57144 
L 372.847393 276.63032 
L 373.249977 276.920113 
L 373.652562 277.422708 
L 374.45773 278.929228 
L 376.068068 282.513559 
L 376.873237 283.703606 
L 377.275821 283.993421 
L 377.678406 284.049991 
L 378.08099 283.868843 
L 378.483574 283.460369 
L 379.288743 282.072957 
L 381.70425 276.970031 
L 382.106834 276.558746 
L 382.509419 276.380689 
L 382.912003 276.448941 
L 383.314587 276.761244 
L 383.717172 277.300012 
L 384.522341 278.91665 
L 386.535263 283.534665 
L 386.937847 284.082446 
L 387.340431 284.395672 
L 387.743016 284.451635 
L 388.1456 284.2435 
L 388.548185 283.780934 
L 389.353353 282.210363 
L 391.76886 276.376554 
L 392.171444 275.903727 
L 392.574029 275.702361 
L 392.976613 275.790134 
L 393.379197 276.166859 
L 393.781782 276.814165 
L 394.586951 278.762041 
L 396.599873 284.393502 
L 397.002457 285.067747 
L 397.405041 285.451652 
L 397.807626 285.513627 
L 398.21021 285.241566 
L 398.612795 284.64409 
L 399.417963 282.609707 
L 401.83347 274.912797 
L 402.236054 274.279628 
L 402.638639 274.01394 
L 403.041223 274.145428 
L 403.443807 274.679807 
L 403.846392 275.597617 
L 404.651561 278.383145 
L 406.664483 286.647722 
L 407.067067 287.66119 
L 407.469651 288.238614 
L 407.872236 288.321554 
L 408.27482 287.879758 
L 408.677405 286.914403 
L 409.079989 285.459615 
L 409.885158 281.37891 
L 411.495495 272.028184 
L 411.89808 270.32855 
L 412.300664 269.181044 
L 412.703249 268.701882 
L 413.105833 268.974686 
L 413.508418 270.043171 
L 413.911002 271.905532 
L 414.716171 277.758028 
L 417.131677 299.538404 
L 417.534262 301.081487 
L 417.936846 301.276691 
L 418.33943 299.880512 
L 418.742015 296.691125 
L 419.144599 291.558799 
L 419.547184 284.394345 
L 420.352352 263.94844 
L 421.157521 236.009861 
L 422.365274 184.041286 
L 424.378196 93.938882 
L 425.183365 65.164221 
L 425.988534 43.72302 
L 426.793703 30.409791 
L 427.196287 26.746469 
L 427.598872 24.919039 
L 428.001456 24.737791 
L 428.40404 25.968575 
L 428.806625 28.344369 
L 429.611794 35.374478 
L 431.222131 50.737003 
L 432.0273 55.569093 
L 432.429884 56.83809 
L 432.832469 57.307412 
L 433.235053 57.009848 
L 433.637638 56.019667 
L 434.040222 54.4457 
L 434.845391 50.103924 
L 436.053144 42.947117 
L 436.858313 39.410028 
L 437.260897 38.317821 
L 437.663482 37.743751 
L 438.066066 37.697158 
L 438.46865 38.155408 
L 438.871235 39.066721 
L 439.676404 41.923094 
L 441.286741 48.790255 
L 442.09191 51.129931 
L 442.494494 51.762981 
L 442.897079 51.99563 
L 443.299663 51.827354 
L 443.702248 51.282045 
L 444.104832 50.405762 
L 444.910001 47.933447 
L 446.520339 42.518345 
L 447.325507 40.882652 
L 447.728092 40.52761 
L 448.130676 40.506413 
L 448.533261 40.812068 
L 448.935845 41.417675 
L 449.741014 43.335335 
L 451.753936 48.990119 
L 452.15652 49.700131 
L 452.559105 50.146924 
L 452.961689 50.307666 
L 453.364273 50.177609 
L 453.766858 49.770057 
L 454.572027 48.258077 
L 456.987533 42.376338 
L 457.390117 41.853587 
L 457.792702 41.580294 
L 458.195286 41.570231 
L 458.597871 41.82067 
L 459.000455 42.312758 
L 459.805624 43.874903 
L 461.818546 48.537921 
L 462.22113 49.12884 
L 462.623715 49.499993 
L 463.026299 49.630076 
L 463.428883 49.51296 
L 463.831468 49.157943 
L 464.636637 47.843452 
L 467.052143 42.679232 
L 467.454727 42.217251 
L 467.857312 41.977722 
L 468.259896 41.9747 
L 468.662481 42.207432 
L 469.065065 42.660466 
L 469.870234 44.099037 
L 471.883156 48.426367 
L 472.28574 48.977735 
L 472.688325 49.322973 
L 473.090909 49.440501 
L 473.090909 49.440501 
" style="fill:none;stroke:#1f77b4;stroke-linecap:square;stroke-width:1.5;"/>
   </g>
   <g id="patch_3">
    <path d="M 50.8 315.2 
L 50.8 10.8 
" style="fill:none;stroke:#000000;stroke-linecap:square;stroke-linejoin:miter;stroke-width:0.8;"/>
   </g>
   <g id="patch_4">
    <path d="M 493.2 315.2 
L 493.2 10.8 
" style="fill:none;stroke:#000000;stroke-linecap:square;stroke-linejoin:miter;stroke-width:0.8;"/>
   </g>
   <g id="patch_5">
    <path d="M 50.8 315.2 
L 493.2 315.2 
" style="fill:none;stroke:#000000;stroke-linecap:square;stroke-linejoin:miter;stroke-width:0.8;"/>
   </g>
   <g id="patch_6">
    <path d="M 50.8 10.8 
L 493.2 10.8 
" style="fill:none;stroke:#000000;stroke-linecap:square;stroke-linejoin:miter;stroke-width:0.8;"/>
   </g>
   <g id="text_18">
    <!-- n= 10 -->
    <defs>
     <path d="M 54.890625 33.015625 
L 54.890625 0 
L 45.90625 0 
L 45.90625 32.71875 
Q 45.90625 40.484375 42.875 44.328125 
Q 39.84375 48.1875 33.796875 48.1875 
Q 26.515625 48.1875 22.3125 43.546875 
Q 18.109375 38.921875 18.109375 30.90625 
L 18.109375 0 
L 9.078125 0 
L 9.078125 54.6875 
L 18.109375 54.6875 
L 18.109375 46.1875 
Q 21.34375 51.125 25.703125 53.5625 
Q 30.078125 56 35.796875 56 
Q 45.21875 56 50.046875 50.171875 
Q 54.890625 44.34375 54.890625 33.015625 
z
" id="DejaVuSans-110"/>
     <path d="M 10.59375 45.40625 
L 73.1875 45.40625 
L 73.1875 37.203125 
L 10.59375 37.203125 
z
M 10.59375 25.484375 
L 73.1875 25.484375 
L 73.1875 17.1875 
L 10.59375 17.1875 
z
" id="DejaVuSans-61"/>
    </defs>
    <g transform="translate(422.818182 280.288164)scale(0.2 -0.2)">
     <use xlink:href="#DejaVuSans-110"/>
     <use x="63.378906" xlink:href="#DejaVuSans-61"/>
     <use x="147.167969" xlink:href="#DejaVuSans-32"/>
     <use x="178.955078" xlink:href="#DejaVuSans-49"/>
     <use x="242.578125" xlink:href="#DejaVuSans-48"/>
    </g>
   </g>
  </g>
 </g>
 <defs>
  <clipPath id="p69f1a5244b">
   <rect height="304.4" width="442.4" x="50.8" y="10.8"/>
  </clipPath>
 </defs>
</svg>
