<?xml version="1.0" encoding="utf-8" standalone="no"?>
<!DOCTYPE svg PUBLIC "-//W3C//DTD SVG 1.1//EN"
  "http://www.w3.org/Graphics/SVG/1.1/DTD/svg11.dtd">
<!-- Created with matplotlib (https://matplotlib.org/) -->
<svg height="360pt" version="1.1" viewBox="0 0 504 360" width="504pt" xmlns="http://www.w3.org/2000/svg" xmlns:xlink="http://www.w3.org/1999/xlink">
 <defs>
  <style type="text/css">
*{stroke-linecap:butt;stroke-linejoin:round;}
  </style>
 </defs>
 <g id="figure_1">
  <g id="patch_1">
   <path d="M 0 360 
L 504 360 
L 504 0 
L 0 0 
z
" style="fill:none;"/>
  </g>
  <g id="axes_1">
   <g id="patch_2">
    <path d="M 50.8 315.2 
L 493.2 315.2 
L 493.2 10.8 
L 50.8 10.8 
z
" style="fill:none;"/>
   </g>
   <g id="matplotlib.axis_1">
    <g id="xtick_1">
     <g id="line2d_1">
      <defs>
       <path d="M 0 0 
L 0 3.5 
" id="m6c62e68b73" style="stroke:#000000;stroke-width:0.8;"/>
      </defs>
      <g>
       <use style="stroke:#000000;stroke-width:0.8;" x="70.909091" xlink:href="#m6c62e68b73" y="315.2"/>
      </g>
     </g>
     <g id="text_1">
      <!-- −2.0 -->
      <defs>
       <path d="M 10.59375 35.5 
L 73.1875 35.5 
L 73.1875 27.203125 
L 10.59375 27.203125 
z
" id="DejaVuSans-8722"/>
       <path d="M 19.1875 8.296875 
L 53.609375 8.296875 
L 53.609375 0 
L 7.328125 0 
L 7.328125 8.296875 
Q 12.9375 14.109375 22.625 23.890625 
Q 32.328125 33.6875 34.8125 36.53125 
Q 39.546875 41.84375 41.421875 45.53125 
Q 43.3125 49.21875 43.3125 52.78125 
Q 43.3125 58.59375 39.234375 62.25 
Q 35.15625 65.921875 28.609375 65.921875 
Q 23.96875 65.921875 18.8125 64.3125 
Q 13.671875 62.703125 7.8125 59.421875 
L 7.8125 69.390625 
Q 13.765625 71.78125 18.9375 73 
Q 24.125 74.21875 28.421875 74.21875 
Q 39.75 74.21875 46.484375 68.546875 
Q 53.21875 62.890625 53.21875 53.421875 
Q 53.21875 48.921875 51.53125 44.890625 
Q 49.859375 40.875 45.40625 35.40625 
Q 44.1875 33.984375 37.640625 27.21875 
Q 31.109375 20.453125 19.1875 8.296875 
z
" id="DejaVuSans-50"/>
       <path d="M 10.6875 12.40625 
L 21 12.40625 
L 21 0 
L 10.6875 0 
z
" id="DejaVuSans-46"/>
       <path d="M 31.78125 66.40625 
Q 24.171875 66.40625 20.328125 58.90625 
Q 16.5 51.421875 16.5 36.375 
Q 16.5 21.390625 20.328125 13.890625 
Q 24.171875 6.390625 31.78125 6.390625 
Q 39.453125 6.390625 43.28125 13.890625 
Q 47.125 21.390625 47.125 36.375 
Q 47.125 51.421875 43.28125 58.90625 
Q 39.453125 66.40625 31.78125 66.40625 
z
M 31.78125 74.21875 
Q 44.046875 74.21875 50.515625 64.515625 
Q 56.984375 54.828125 56.984375 36.375 
Q 56.984375 17.96875 50.515625 8.265625 
Q 44.046875 -1.421875 31.78125 -1.421875 
Q 19.53125 -1.421875 13.0625 8.265625 
Q 6.59375 17.96875 6.59375 36.375 
Q 6.59375 54.828125 13.0625 64.515625 
Q 19.53125 74.21875 31.78125 74.21875 
z
" id="DejaVuSans-48"/>
      </defs>
      <g transform="translate(58.767685 329.798437)scale(0.1 -0.1)">
       <use xlink:href="#DejaVuSans-8722"/>
       <use x="83.789062" xlink:href="#DejaVuSans-50"/>
       <use x="147.412109" xlink:href="#DejaVuSans-46"/>
       <use x="179.199219" xlink:href="#DejaVuSans-48"/>
      </g>
     </g>
    </g>
    <g id="xtick_2">
     <g id="line2d_2">
      <g>
       <use style="stroke:#000000;stroke-width:0.8;" x="121.181818" xlink:href="#m6c62e68b73" y="315.2"/>
      </g>
     </g>
     <g id="text_2">
      <!-- −1.5 -->
      <defs>
       <path d="M 12.40625 8.296875 
L 28.515625 8.296875 
L 28.515625 63.921875 
L 10.984375 60.40625 
L 10.984375 69.390625 
L 28.421875 72.90625 
L 38.28125 72.90625 
L 38.28125 8.296875 
L 54.390625 8.296875 
L 54.390625 0 
L 12.40625 0 
z
" id="DejaVuSans-49"/>
       <path d="M 10.796875 72.90625 
L 49.515625 72.90625 
L 49.515625 64.59375 
L 19.828125 64.59375 
L 19.828125 46.734375 
Q 21.96875 47.46875 24.109375 47.828125 
Q 26.265625 48.1875 28.421875 48.1875 
Q 40.625 48.1875 47.75 41.5 
Q 54.890625 34.8125 54.890625 23.390625 
Q 54.890625 11.625 47.5625 5.09375 
Q 40.234375 -1.421875 26.90625 -1.421875 
Q 22.3125 -1.421875 17.546875 -0.640625 
Q 12.796875 0.140625 7.71875 1.703125 
L 7.71875 11.625 
Q 12.109375 9.234375 16.796875 8.0625 
Q 21.484375 6.890625 26.703125 6.890625 
Q 35.15625 6.890625 40.078125 11.328125 
Q 45.015625 15.765625 45.015625 23.390625 
Q 45.015625 31 40.078125 35.4375 
Q 35.15625 39.890625 26.703125 39.890625 
Q 22.75 39.890625 18.8125 39.015625 
Q 14.890625 38.140625 10.796875 36.28125 
z
" id="DejaVuSans-53"/>
      </defs>
      <g transform="translate(109.040412 329.798437)scale(0.1 -0.1)">
       <use xlink:href="#DejaVuSans-8722"/>
       <use x="83.789062" xlink:href="#DejaVuSans-49"/>
       <use x="147.412109" xlink:href="#DejaVuSans-46"/>
       <use x="179.199219" xlink:href="#DejaVuSans-53"/>
      </g>
     </g>
    </g>
    <g id="xtick_3">
     <g id="line2d_3">
      <g>
       <use style="stroke:#000000;stroke-width:0.8;" x="171.454545" xlink:href="#m6c62e68b73" y="315.2"/>
      </g>
     </g>
     <g id="text_3">
      <!-- −1.0 -->
      <g transform="translate(159.313139 329.798437)scale(0.1 -0.1)">
       <use xlink:href="#DejaVuSans-8722"/>
       <use x="83.789062" xlink:href="#DejaVuSans-49"/>
       <use x="147.412109" xlink:href="#DejaVuSans-46"/>
       <use x="179.199219" xlink:href="#DejaVuSans-48"/>
      </g>
     </g>
    </g>
    <g id="xtick_4">
     <g id="line2d_4">
      <g>
       <use style="stroke:#000000;stroke-width:0.8;" x="221.727273" xlink:href="#m6c62e68b73" y="315.2"/>
      </g>
     </g>
     <g id="text_4">
      <!-- −0.5 -->
      <g transform="translate(209.585866 329.798437)scale(0.1 -0.1)">
       <use xlink:href="#DejaVuSans-8722"/>
       <use x="83.789062" xlink:href="#DejaVuSans-48"/>
       <use x="147.412109" xlink:href="#DejaVuSans-46"/>
       <use x="179.199219" xlink:href="#DejaVuSans-53"/>
      </g>
     </g>
    </g>
    <g id="xtick_5">
     <g id="line2d_5">
      <g>
       <use style="stroke:#000000;stroke-width:0.8;" x="272" xlink:href="#m6c62e68b73" y="315.2"/>
      </g>
     </g>
     <g id="text_5">
      <!-- 0.0 -->
      <g transform="translate(264.048437 329.798437)scale(0.1 -0.1)">
       <use xlink:href="#DejaVuSans-48"/>
       <use x="63.623047" xlink:href="#DejaVuSans-46"/>
       <use x="95.410156" xlink:href="#DejaVuSans-48"/>
      </g>
     </g>
    </g>
    <g id="xtick_6">
     <g id="line2d_6">
      <g>
       <use style="stroke:#000000;stroke-width:0.8;" x="322.272727" xlink:href="#m6c62e68b73" y="315.2"/>
      </g>
     </g>
     <g id="text_6">
      <!-- 0.5 -->
      <g transform="translate(314.321165 329.798437)scale(0.1 -0.1)">
       <use xlink:href="#DejaVuSans-48"/>
       <use x="63.623047" xlink:href="#DejaVuSans-46"/>
       <use x="95.410156" xlink:href="#DejaVuSans-53"/>
      </g>
     </g>
    </g>
    <g id="xtick_7">
     <g id="line2d_7">
      <g>
       <use style="stroke:#000000;stroke-width:0.8;" x="372.545455" xlink:href="#m6c62e68b73" y="315.2"/>
      </g>
     </g>
     <g id="text_7">
      <!-- 1.0 -->
      <g transform="translate(364.593892 329.798437)scale(0.1 -0.1)">
       <use xlink:href="#DejaVuSans-49"/>
       <use x="63.623047" xlink:href="#DejaVuSans-46"/>
       <use x="95.410156" xlink:href="#DejaVuSans-48"/>
      </g>
     </g>
    </g>
    <g id="xtick_8">
     <g id="line2d_8">
      <g>
       <use style="stroke:#000000;stroke-width:0.8;" x="422.818182" xlink:href="#m6c62e68b73" y="315.2"/>
      </g>
     </g>
     <g id="text_8">
      <!-- 1.5 -->
      <g transform="translate(414.866619 329.798437)scale(0.1 -0.1)">
       <use xlink:href="#DejaVuSans-49"/>
       <use x="63.623047" xlink:href="#DejaVuSans-46"/>
       <use x="95.410156" xlink:href="#DejaVuSans-53"/>
      </g>
     </g>
    </g>
    <g id="xtick_9">
     <g id="line2d_9">
      <g>
       <use style="stroke:#000000;stroke-width:0.8;" x="473.090909" xlink:href="#m6c62e68b73" y="315.2"/>
      </g>
     </g>
     <g id="text_9">
      <!-- 2.0 -->
      <g transform="translate(465.139347 329.798437)scale(0.1 -0.1)">
       <use xlink:href="#DejaVuSans-50"/>
       <use x="63.623047" xlink:href="#DejaVuSans-46"/>
       <use x="95.410156" xlink:href="#DejaVuSans-48"/>
      </g>
     </g>
    </g>
    <g id="text_10">
     <!-- Time, $t$ /s -->
     <defs>
      <path d="M -0.296875 72.90625 
L 61.375 72.90625 
L 61.375 64.59375 
L 35.5 64.59375 
L 35.5 0 
L 25.59375 0 
L 25.59375 64.59375 
L -0.296875 64.59375 
z
" id="DejaVuSans-84"/>
      <path d="M 9.421875 54.6875 
L 18.40625 54.6875 
L 18.40625 0 
L 9.421875 0 
z
M 9.421875 75.984375 
L 18.40625 75.984375 
L 18.40625 64.59375 
L 9.421875 64.59375 
z
" id="DejaVuSans-105"/>
      <path d="M 52 44.1875 
Q 55.375 50.25 60.0625 53.125 
Q 64.75 56 71.09375 56 
Q 79.640625 56 84.28125 50.015625 
Q 88.921875 44.046875 88.921875 33.015625 
L 88.921875 0 
L 79.890625 0 
L 79.890625 32.71875 
Q 79.890625 40.578125 77.09375 44.375 
Q 74.3125 48.1875 68.609375 48.1875 
Q 61.625 48.1875 57.5625 43.546875 
Q 53.515625 38.921875 53.515625 30.90625 
L 53.515625 0 
L 44.484375 0 
L 44.484375 32.71875 
Q 44.484375 40.625 41.703125 44.40625 
Q 38.921875 48.1875 33.109375 48.1875 
Q 26.21875 48.1875 22.15625 43.53125 
Q 18.109375 38.875 18.109375 30.90625 
L 18.109375 0 
L 9.078125 0 
L 9.078125 54.6875 
L 18.109375 54.6875 
L 18.109375 46.1875 
Q 21.1875 51.21875 25.484375 53.609375 
Q 29.78125 56 35.6875 56 
Q 41.65625 56 45.828125 52.96875 
Q 50 49.953125 52 44.1875 
z
" id="DejaVuSans-109"/>
      <path d="M 56.203125 29.59375 
L 56.203125 25.203125 
L 14.890625 25.203125 
Q 15.484375 15.921875 20.484375 11.0625 
Q 25.484375 6.203125 34.421875 6.203125 
Q 39.59375 6.203125 44.453125 7.46875 
Q 49.3125 8.734375 54.109375 11.28125 
L 54.109375 2.78125 
Q 49.265625 0.734375 44.1875 -0.34375 
Q 39.109375 -1.421875 33.890625 -1.421875 
Q 20.796875 -1.421875 13.15625 6.1875 
Q 5.515625 13.8125 5.515625 26.8125 
Q 5.515625 40.234375 12.765625 48.109375 
Q 20.015625 56 32.328125 56 
Q 43.359375 56 49.78125 48.890625 
Q 56.203125 41.796875 56.203125 29.59375 
z
M 47.21875 32.234375 
Q 47.125 39.59375 43.09375 43.984375 
Q 39.0625 48.390625 32.421875 48.390625 
Q 24.90625 48.390625 20.390625 44.140625 
Q 15.875 39.890625 15.1875 32.171875 
z
" id="DejaVuSans-101"/>
      <path d="M 11.71875 12.40625 
L 22.015625 12.40625 
L 22.015625 4 
L 14.015625 -11.625 
L 7.71875 -11.625 
L 11.71875 4 
z
" id="DejaVuSans-44"/>
      <path id="DejaVuSans-32"/>
      <path d="M 42.28125 54.6875 
L 40.921875 47.703125 
L 23 47.703125 
L 17.1875 18.015625 
Q 16.890625 16.359375 16.75 15.234375 
Q 16.609375 14.109375 16.609375 13.484375 
Q 16.609375 10.359375 18.484375 8.9375 
Q 20.359375 7.515625 24.515625 7.515625 
L 33.59375 7.515625 
L 32.078125 0 
L 23.484375 0 
Q 15.484375 0 11.546875 3.125 
Q 7.625 6.25 7.625 12.59375 
Q 7.625 13.71875 7.765625 15.0625 
Q 7.90625 16.40625 8.203125 18.015625 
L 14.015625 47.703125 
L 6.390625 47.703125 
L 7.8125 54.6875 
L 15.28125 54.6875 
L 18.3125 70.21875 
L 27.296875 70.21875 
L 24.3125 54.6875 
z
" id="DejaVuSans-Oblique-116"/>
      <path d="M 25.390625 72.90625 
L 33.6875 72.90625 
L 8.296875 -9.28125 
L 0 -9.28125 
z
" id="DejaVuSans-47"/>
      <path d="M 44.28125 53.078125 
L 44.28125 44.578125 
Q 40.484375 46.53125 36.375 47.5 
Q 32.28125 48.484375 27.875 48.484375 
Q 21.1875 48.484375 17.84375 46.4375 
Q 14.5 44.390625 14.5 40.28125 
Q 14.5 37.15625 16.890625 35.375 
Q 19.28125 33.59375 26.515625 31.984375 
L 29.59375 31.296875 
Q 39.15625 29.25 43.1875 25.515625 
Q 47.21875 21.78125 47.21875 15.09375 
Q 47.21875 7.46875 41.1875 3.015625 
Q 35.15625 -1.421875 24.609375 -1.421875 
Q 20.21875 -1.421875 15.453125 -0.5625 
Q 10.6875 0.296875 5.421875 2 
L 5.421875 11.28125 
Q 10.40625 8.6875 15.234375 7.390625 
Q 20.0625 6.109375 24.8125 6.109375 
Q 31.15625 6.109375 34.5625 8.28125 
Q 37.984375 10.453125 37.984375 14.40625 
Q 37.984375 18.0625 35.515625 20.015625 
Q 33.0625 21.96875 24.703125 23.78125 
L 21.578125 24.515625 
Q 13.234375 26.265625 9.515625 29.90625 
Q 5.8125 33.546875 5.8125 39.890625 
Q 5.8125 47.609375 11.28125 51.796875 
Q 16.75 56 26.8125 56 
Q 31.78125 56 36.171875 55.265625 
Q 40.578125 54.546875 44.28125 53.078125 
z
" id="DejaVuSans-115"/>
     </defs>
     <g transform="translate(248.55 343.476562)scale(0.1 -0.1)">
      <use transform="translate(0 0.015625)" xlink:href="#DejaVuSans-84"/>
      <use transform="translate(61.083984 0.015625)" xlink:href="#DejaVuSans-105"/>
      <use transform="translate(88.867188 0.015625)" xlink:href="#DejaVuSans-109"/>
      <use transform="translate(186.279297 0.015625)" xlink:href="#DejaVuSans-101"/>
      <use transform="translate(247.802734 0.015625)" xlink:href="#DejaVuSans-44"/>
      <use transform="translate(279.589844 0.015625)" xlink:href="#DejaVuSans-32"/>
      <use transform="translate(311.376953 0.015625)" xlink:href="#DejaVuSans-Oblique-116"/>
      <use transform="translate(350.585938 0.015625)" xlink:href="#DejaVuSans-32"/>
      <use transform="translate(382.373047 0.015625)" xlink:href="#DejaVuSans-47"/>
      <use transform="translate(416.064453 0.015625)" xlink:href="#DejaVuSans-115"/>
     </g>
    </g>
   </g>
   <g id="matplotlib.axis_2">
    <g id="ytick_1">
     <g id="line2d_10">
      <defs>
       <path d="M 0 0 
L -3.5 0 
" id="ma90269f5f7" style="stroke:#000000;stroke-width:0.8;"/>
      </defs>
      <g>
       <use style="stroke:#000000;stroke-width:0.8;" x="50.8" xlink:href="#ma90269f5f7" y="283.177203"/>
      </g>
     </g>
     <g id="text_11">
      <!-- 0.0 -->
      <g transform="translate(27.896875 286.976422)scale(0.1 -0.1)">
       <use xlink:href="#DejaVuSans-48"/>
       <use x="63.623047" xlink:href="#DejaVuSans-46"/>
       <use x="95.410156" xlink:href="#DejaVuSans-48"/>
      </g>
     </g>
    </g>
    <g id="ytick_2">
     <g id="line2d_11">
      <g>
       <use style="stroke:#000000;stroke-width:0.8;" x="50.8" xlink:href="#ma90269f5f7" y="235.71475"/>
      </g>
     </g>
     <g id="text_12">
      <!-- 0.2 -->
      <g transform="translate(27.896875 239.513969)scale(0.1 -0.1)">
       <use xlink:href="#DejaVuSans-48"/>
       <use x="63.623047" xlink:href="#DejaVuSans-46"/>
       <use x="95.410156" xlink:href="#DejaVuSans-50"/>
      </g>
     </g>
    </g>
    <g id="ytick_3">
     <g id="line2d_12">
      <g>
       <use style="stroke:#000000;stroke-width:0.8;" x="50.8" xlink:href="#ma90269f5f7" y="188.252298"/>
      </g>
     </g>
     <g id="text_13">
      <!-- 0.4 -->
      <defs>
       <path d="M 37.796875 64.3125 
L 12.890625 25.390625 
L 37.796875 25.390625 
z
M 35.203125 72.90625 
L 47.609375 72.90625 
L 47.609375 25.390625 
L 58.015625 25.390625 
L 58.015625 17.1875 
L 47.609375 17.1875 
L 47.609375 0 
L 37.796875 0 
L 37.796875 17.1875 
L 4.890625 17.1875 
L 4.890625 26.703125 
z
" id="DejaVuSans-52"/>
      </defs>
      <g transform="translate(27.896875 192.051516)scale(0.1 -0.1)">
       <use xlink:href="#DejaVuSans-48"/>
       <use x="63.623047" xlink:href="#DejaVuSans-46"/>
       <use x="95.410156" xlink:href="#DejaVuSans-52"/>
      </g>
     </g>
    </g>
    <g id="ytick_4">
     <g id="line2d_13">
      <g>
       <use style="stroke:#000000;stroke-width:0.8;" x="50.8" xlink:href="#ma90269f5f7" y="140.789845"/>
      </g>
     </g>
     <g id="text_14">
      <!-- 0.6 -->
      <defs>
       <path d="M 33.015625 40.375 
Q 26.375 40.375 22.484375 35.828125 
Q 18.609375 31.296875 18.609375 23.390625 
Q 18.609375 15.53125 22.484375 10.953125 
Q 26.375 6.390625 33.015625 6.390625 
Q 39.65625 6.390625 43.53125 10.953125 
Q 47.40625 15.53125 47.40625 23.390625 
Q 47.40625 31.296875 43.53125 35.828125 
Q 39.65625 40.375 33.015625 40.375 
z
M 52.59375 71.296875 
L 52.59375 62.3125 
Q 48.875 64.0625 45.09375 64.984375 
Q 41.3125 65.921875 37.59375 65.921875 
Q 27.828125 65.921875 22.671875 59.328125 
Q 17.53125 52.734375 16.796875 39.40625 
Q 19.671875 43.65625 24.015625 45.921875 
Q 28.375 48.1875 33.59375 48.1875 
Q 44.578125 48.1875 50.953125 41.515625 
Q 57.328125 34.859375 57.328125 23.390625 
Q 57.328125 12.15625 50.6875 5.359375 
Q 44.046875 -1.421875 33.015625 -1.421875 
Q 20.359375 -1.421875 13.671875 8.265625 
Q 6.984375 17.96875 6.984375 36.375 
Q 6.984375 53.65625 15.1875 63.9375 
Q 23.390625 74.21875 37.203125 74.21875 
Q 40.921875 74.21875 44.703125 73.484375 
Q 48.484375 72.75 52.59375 71.296875 
z
" id="DejaVuSans-54"/>
      </defs>
      <g transform="translate(27.896875 144.589064)scale(0.1 -0.1)">
       <use xlink:href="#DejaVuSans-48"/>
       <use x="63.623047" xlink:href="#DejaVuSans-46"/>
       <use x="95.410156" xlink:href="#DejaVuSans-54"/>
      </g>
     </g>
    </g>
    <g id="ytick_5">
     <g id="line2d_14">
      <g>
       <use style="stroke:#000000;stroke-width:0.8;" x="50.8" xlink:href="#ma90269f5f7" y="93.327393"/>
      </g>
     </g>
     <g id="text_15">
      <!-- 0.8 -->
      <defs>
       <path d="M 31.78125 34.625 
Q 24.75 34.625 20.71875 30.859375 
Q 16.703125 27.09375 16.703125 20.515625 
Q 16.703125 13.921875 20.71875 10.15625 
Q 24.75 6.390625 31.78125 6.390625 
Q 38.8125 6.390625 42.859375 10.171875 
Q 46.921875 13.96875 46.921875 20.515625 
Q 46.921875 27.09375 42.890625 30.859375 
Q 38.875 34.625 31.78125 34.625 
z
M 21.921875 38.8125 
Q 15.578125 40.375 12.03125 44.71875 
Q 8.5 49.078125 8.5 55.328125 
Q 8.5 64.0625 14.71875 69.140625 
Q 20.953125 74.21875 31.78125 74.21875 
Q 42.671875 74.21875 48.875 69.140625 
Q 55.078125 64.0625 55.078125 55.328125 
Q 55.078125 49.078125 51.53125 44.71875 
Q 48 40.375 41.703125 38.8125 
Q 48.828125 37.15625 52.796875 32.3125 
Q 56.78125 27.484375 56.78125 20.515625 
Q 56.78125 9.90625 50.3125 4.234375 
Q 43.84375 -1.421875 31.78125 -1.421875 
Q 19.734375 -1.421875 13.25 4.234375 
Q 6.78125 9.90625 6.78125 20.515625 
Q 6.78125 27.484375 10.78125 32.3125 
Q 14.796875 37.15625 21.921875 38.8125 
z
M 18.3125 54.390625 
Q 18.3125 48.734375 21.84375 45.5625 
Q 25.390625 42.390625 31.78125 42.390625 
Q 38.140625 42.390625 41.71875 45.5625 
Q 45.3125 48.734375 45.3125 54.390625 
Q 45.3125 60.0625 41.71875 63.234375 
Q 38.140625 66.40625 31.78125 66.40625 
Q 25.390625 66.40625 21.84375 63.234375 
Q 18.3125 60.0625 18.3125 54.390625 
z
" id="DejaVuSans-56"/>
      </defs>
      <g transform="translate(27.896875 97.126611)scale(0.1 -0.1)">
       <use xlink:href="#DejaVuSans-48"/>
       <use x="63.623047" xlink:href="#DejaVuSans-46"/>
       <use x="95.410156" xlink:href="#DejaVuSans-56"/>
      </g>
     </g>
    </g>
    <g id="ytick_6">
     <g id="line2d_15">
      <g>
       <use style="stroke:#000000;stroke-width:0.8;" x="50.8" xlink:href="#ma90269f5f7" y="45.86494"/>
      </g>
     </g>
     <g id="text_16">
      <!-- 1.0 -->
      <g transform="translate(27.896875 49.664159)scale(0.1 -0.1)">
       <use xlink:href="#DejaVuSans-49"/>
       <use x="63.623047" xlink:href="#DejaVuSans-46"/>
       <use x="95.410156" xlink:href="#DejaVuSans-48"/>
      </g>
     </g>
    </g>
    <g id="text_17">
     <!-- $P(t)$ -->
     <defs>
      <path d="M 16.890625 72.90625 
L 39.703125 72.90625 
Q 49.65625 72.90625 54.875 68.265625 
Q 60.109375 63.625 60.109375 54.6875 
Q 60.109375 42.671875 52.390625 35.984375 
Q 44.671875 29.296875 30.71875 29.296875 
L 18.3125 29.296875 
L 12.59375 0 
L 2.6875 0 
z
M 25.203125 64.796875 
L 19.921875 37.40625 
L 32.328125 37.40625 
Q 40.71875 37.40625 45.203125 41.703125 
Q 49.703125 46 49.703125 54 
Q 49.703125 59.125 46.65625 61.953125 
Q 43.609375 64.796875 38.09375 64.796875 
z
" id="DejaVuSans-Oblique-80"/>
      <path d="M 31 75.875 
Q 24.46875 64.65625 21.28125 53.65625 
Q 18.109375 42.671875 18.109375 31.390625 
Q 18.109375 20.125 21.3125 9.0625 
Q 24.515625 -2 31 -13.1875 
L 23.1875 -13.1875 
Q 15.875 -1.703125 12.234375 9.375 
Q 8.59375 20.453125 8.59375 31.390625 
Q 8.59375 42.28125 12.203125 53.3125 
Q 15.828125 64.359375 23.1875 75.875 
z
" id="DejaVuSans-40"/>
      <path d="M 8.015625 75.875 
L 15.828125 75.875 
Q 23.140625 64.359375 26.78125 53.3125 
Q 30.421875 42.28125 30.421875 31.390625 
Q 30.421875 20.453125 26.78125 9.375 
Q 23.140625 -1.703125 15.828125 -13.1875 
L 8.015625 -13.1875 
Q 14.5 -2 17.703125 9.0625 
Q 20.90625 20.125 20.90625 31.390625 
Q 20.90625 42.671875 17.703125 53.65625 
Q 14.5 64.65625 8.015625 75.875 
z
" id="DejaVuSans-41"/>
     </defs>
     <g transform="translate(21.817188 171.9)rotate(-90)scale(0.1 -0.1)">
      <use transform="translate(0 0.125)" xlink:href="#DejaVuSans-Oblique-80"/>
      <use transform="translate(60.302734 0.125)" xlink:href="#DejaVuSans-40"/>
      <use transform="translate(99.316406 0.125)" xlink:href="#DejaVuSans-Oblique-116"/>
      <use transform="translate(138.525391 0.125)" xlink:href="#DejaVuSans-41"/>
     </g>
    </g>
   </g>
   <g id="line2d_16">
    <path clip-path="url(#p38d90e07d9)" d="M 70.909091 46.284587 
L 71.311675 45.596672 
L 71.71426 45.788207 
L 72.116844 46.231516 
L 72.519429 45.47284 
L 72.922013 45.999533 
L 73.324597 46.085442 
L 73.727182 45.447901 
L 74.129766 46.177743 
L 74.934935 45.528631 
L 75.337519 46.277895 
L 75.740104 45.67352 
L 76.142688 45.695609 
L 76.545273 46.274103 
L 76.947857 45.510723 
L 77.753026 46.166066 
L 78.15561 45.435807 
L 78.558195 46.112325 
L 78.960779 45.979445 
L 79.363363 45.469075 
L 79.765948 46.257514 
L 80.168532 45.759917 
L 80.571117 45.604197 
L 80.973701 46.305474 
L 81.376285 45.562266 
L 81.77887 45.809275 
L 82.181454 46.241805 
L 82.584039 45.437041 
L 82.986623 46.034172 
L 83.389207 46.07967 
L 83.791792 45.417978 
L 84.194376 46.222443 
L 84.999545 45.513207 
L 85.402129 46.325119 
L 85.804714 45.629011 
L 86.207298 45.70248 
L 86.609883 46.313043 
L 87.012467 45.45279 
L 87.415051 45.941228 
L 87.817636 46.18477 
L 88.22022 45.375572 
L 88.622805 46.1707 
L 89.025389 45.967971 
L 89.427973 45.421458 
L 89.830558 46.33193 
L 90.233142 45.713801 
L 90.635727 45.584713 
L 91.038311 46.380314 
L 91.440895 45.4853 
L 92.246064 46.297336 
L 92.648649 45.342388 
L 93.051233 46.098668 
L 93.453817 46.0965 
L 93.856402 45.326885 
L 94.258986 46.323842 
L 95.064155 45.45114 
L 95.466739 46.444552 
L 95.869324 45.538686 
L 96.271908 45.693146 
L 96.674493 46.422127 
L 97.077077 45.319393 
L 97.479661 45.999658 
L 97.882246 46.251044 
L 98.28483 45.2256 
L 98.687415 46.297016 
L 99.089999 45.962729 
L 99.492583 45.292524 
L 99.895168 46.507617 
L 100.297752 45.620817 
L 100.700337 45.518149 
L 101.102921 46.568525 
L 101.505506 45.308388 
L 102.310674 46.448092 
L 102.713259 45.109603 
L 103.115843 46.243764 
L 103.518428 46.156623 
L 103.921012 45.089536 
L 104.323596 46.573636 
L 104.726181 45.748261 
L 105.128765 45.276593 
L 105.53135 46.757186 
L 105.933934 45.313036 
L 106.336518 45.651621 
L 106.739103 46.725157 
L 107.141687 44.960106 
L 107.544272 46.146532 
L 107.946856 46.450878 
L 108.34944 44.795174 
L 108.752025 46.653386 
L 109.154609 45.961975 
L 109.557194 44.896407 
L 109.959778 47.04266 
L 110.362362 45.342073 
L 110.764947 45.293684 
L 111.167531 47.187404 
L 111.570116 44.721815 
L 112.375284 46.988561 
L 112.777869 44.261111 
L 113.180453 46.784743 
L 113.583038 46.396178 
L 113.985622 44.127178 
L 114.388206 47.626525 
L 114.790791 45.421694 
L 115.193375 44.476144 
L 115.59596 48.276852 
L 115.998544 44.137706 
L 116.401128 45.451999 
L 116.803713 48.482871 
L 117.206297 42.663234 
L 117.608882 47.238042 
L 118.011466 47.877912 
L 118.41405 41.135577 
L 118.816635 50.310763 
L 119.621804 39.726613 
L 120.024388 57.098239 
L 120.426972 35.433672 
L 120.829557 43.901386 
L 121.634726 299.688708 
L 122.03731 284.446222 
L 122.439894 274.954081 
L 122.842479 291.005236 
L 123.245063 279.946418 
L 123.647648 281.375563 
L 124.050232 287.535055 
L 124.452816 279.595477 
L 124.855401 283.877076 
L 125.257985 285.248516 
L 125.66057 280.175986 
L 126.063154 284.982696 
L 126.465738 283.584704 
L 126.868323 281.137843 
L 127.270907 285.266591 
L 127.673492 282.45359 
L 128.076076 282.2016 
L 128.47866 285.004185 
L 128.881245 281.833215 
L 129.686414 284.411708 
L 130.088998 281.677827 
L 130.491582 283.884832 
L 130.894167 283.68674 
L 131.296751 281.897264 
L 131.699336 284.282522 
L 132.10192 283.00222 
L 132.504505 282.363643 
L 132.907089 284.34724 
L 133.309673 282.489835 
L 133.712258 282.931148 
L 134.114842 284.129408 
L 134.517427 282.225987 
L 134.920011 283.460678 
L 135.322595 283.724685 
L 135.72518 282.226286 
L 136.127764 283.842894 
L 136.530349 283.251172 
L 136.932933 282.450564 
L 137.335517 284.014643 
L 137.738102 282.824339 
L 138.140686 282.817483 
L 138.543271 283.965602 
L 138.945855 282.534589 
L 139.751024 283.734274 
L 140.153608 282.43166 
L 140.556193 283.576463 
L 140.958777 283.394688 
L 141.361361 282.518547 
L 141.763946 283.795073 
L 142.16653 283.037067 
L 142.569115 282.755522 
L 142.971699 283.843699 
L 143.374283 282.746767 
L 143.776868 283.072769 
L 144.179452 283.726724 
L 144.582037 282.585973 
L 144.984621 283.388416 
L 145.387205 283.486057 
L 145.78979 282.581821 
L 146.192374 283.627796 
L 146.997543 282.72304 
L 147.400127 283.739735 
L 147.802712 282.909895 
L 148.205296 282.965334 
L 148.607881 283.706511 
L 149.010465 282.715014 
L 149.413049 283.243773 
L 149.815634 283.545675 
L 150.218218 282.645536 
L 150.620803 283.489081 
L 151.023387 283.303795 
L 151.425971 282.710728 
L 151.828556 283.643953 
L 152.23114 283.043943 
L 152.633725 282.887356 
L 153.036309 283.67576 
L 153.438893 282.830069 
L 153.841478 283.126843 
L 154.244062 283.582917 
L 154.646647 282.711937 
L 155.049231 283.367935 
L 155.451815 283.393777 
L 155.8544 282.714057 
L 156.256984 283.551741 
L 157.062153 282.830966 
L 157.464737 283.635596 
L 157.867322 282.936732 
L 158.269906 283.029712 
L 158.672491 283.602591 
L 159.075075 282.782123 
L 159.477659 283.25871 
L 159.880244 283.4647 
L 160.282828 282.730627 
L 160.685413 283.460697 
L 161.087997 283.258991 
L 161.490581 282.791962 
L 161.893166 283.58664 
L 162.29575 283.038004 
L 162.698335 282.948102 
L 163.100919 283.607309 
L 163.503504 282.856698 
L 164.308672 283.519858 
L 164.711257 282.759134 
L 165.113841 283.369472 
L 165.516426 283.347959 
L 165.91901 282.768033 
L 166.321594 283.52919 
L 167.126763 282.879632 
L 167.529348 283.598478 
L 167.931932 282.936067 
L 168.334516 283.064972 
L 168.737101 283.561062 
L 169.139685 282.798938 
L 169.54227 283.27723 
L 169.944854 283.427105 
L 170.347438 282.757972 
L 170.750023 283.463289 
L 171.152607 283.23053 
L 171.555192 282.823012 
L 171.957776 283.576737 
L 172.36036 283.020611 
L 172.762945 282.977665 
L 173.165529 283.589205 
L 173.568114 282.849892 
L 174.373282 283.497304 
L 174.775867 282.761314 
L 175.178451 283.388692 
L 175.581036 283.32352 
L 175.98362 282.777644 
L 176.386204 283.542131 
L 176.788789 283.110835 
L 177.191373 282.895761 
L 177.593958 283.604532 
L 177.996542 282.912325 
L 178.399126 283.087184 
L 178.801711 283.558968 
L 179.204295 282.778209 
L 179.60688 283.304782 
L 180.009464 283.415167 
L 180.412048 282.743441 
L 180.814633 283.49411 
L 181.619802 282.818835 
L 182.022386 283.60671 
L 182.42497 282.987148 
L 182.827555 282.987914 
L 183.230139 283.612192 
L 183.632724 282.809467 
L 184.437892 283.506174 
L 184.840477 282.720787 
L 185.243061 283.43137 
L 185.645646 283.312067 
L 186.04823 282.746512 
L 186.450814 283.594751 
L 186.853399 283.076128 
L 187.255983 282.884221 
L 187.658568 283.656807 
L 188.061152 282.856783 
L 188.463736 283.103304 
L 188.866321 283.597585 
L 189.268905 282.710621 
L 189.67149 283.351459 
L 190.074074 283.426746 
L 190.476658 282.678315 
L 190.879243 283.566723 
L 191.684412 282.773856 
L 192.086996 283.692366 
L 192.48958 282.923273 
L 192.892165 282.9798 
L 193.294749 283.691183 
L 193.697334 282.714715 
L 194.099918 283.249942 
L 194.502503 283.555732 
L 194.905087 282.613444 
L 195.307671 283.519097 
L 195.710256 283.31191 
L 196.11284 282.652755 
L 196.515425 283.718035 
L 196.918009 283.014646 
L 197.320593 282.832863 
L 197.723178 283.790262 
L 198.125762 282.736342 
L 198.528347 283.118563 
L 198.930931 283.706825 
L 199.333515 282.550347 
L 199.7361 283.445229 
L 200.138684 283.475511 
L 200.541269 282.513068 
L 200.943853 283.732279 
L 201.749022 282.648771 
L 202.151606 283.901435 
L 202.554191 282.781902 
L 202.956775 282.94078 
L 203.359359 283.895918 
L 203.761944 282.485683 
L 204.164528 283.331529 
L 204.567113 283.69626 
L 204.969697 282.338064 
L 205.372281 283.732071 
L 205.774866 283.328948 
L 206.17745 282.397442 
L 206.580035 284.039634 
L 206.982619 282.865444 
L 207.385203 282.679046 
L 207.787788 284.159954 
L 208.190372 282.411148 
L 208.995541 284.029955 
L 209.398125 282.085925 
L 209.80071 283.710508 
L 210.203294 283.63608 
L 210.605879 281.999764 
L 211.008463 284.245845 
L 211.411047 283.024375 
L 211.813632 282.228223 
L 212.216216 284.606415 
L 212.618801 282.300193 
L 213.021385 282.792533 
L 213.423969 284.652423 
L 213.826554 281.617957 
L 214.229138 283.648167 
L 214.631723 284.27297 
L 215.034307 281.164781 
L 215.436891 284.683423 
L 215.839476 283.400497 
L 216.24206 281.14676 
L 216.644645 285.725241 
L 217.047229 282.006419 
L 217.449813 281.798746 
L 217.852398 286.539091 
L 218.254982 280.054792 
L 219.060151 286.763589 
L 219.462735 277.318079 
L 219.86532 287.294052 
L 220.267904 285.30821 
L 220.670489 272.356783 
L 221.073073 301.363636 
L 221.475657 260.216552 
L 221.878242 102.896535 
L 222.280826 24.636364 
L 222.683411 52.305484 
L 223.085995 49.049723 
L 223.488579 38.888527 
L 223.891164 51.33371 
L 224.293748 44.681957 
L 224.696333 43.176941 
L 225.098917 49.832283 
L 225.501502 43.415172 
L 225.904086 45.503044 
L 226.30667 48.314143 
L 226.709255 43.275949 
L 227.111839 46.853432 
L 227.514424 46.918119 
L 227.917008 43.739817 
L 228.319592 47.497662 
L 229.124761 44.51408 
L 229.527346 47.586744 
L 229.92993 44.987529 
L 230.332514 45.37236 
L 230.735099 47.268899 
L 231.137683 44.594479 
L 231.540268 46.133873 
L 231.942852 46.707452 
L 232.345436 44.577156 
L 232.748021 46.671393 
L 233.150605 46.068718 
L 233.55319 44.858861 
L 233.955774 46.92056 
L 234.358358 45.500594 
L 234.760943 45.32356 
L 235.163527 46.881541 
L 235.566112 45.111962 
L 236.37128 46.61057 
L 236.773865 44.958915 
L 237.176449 46.286105 
L 237.579034 46.202494 
L 237.981618 45.041048 
L 238.384202 46.572691 
L 238.786787 45.767771 
L 239.189371 45.308395 
L 239.591956 46.655454 
L 239.99454 45.408545 
L 240.397124 45.677222 
L 240.799709 46.539834 
L 241.202293 45.198495 
L 241.604878 46.051092 
L 242.007462 46.274436 
L 242.410046 45.170224 
L 242.812631 46.342662 
L 243.215215 45.93634 
L 243.6178 45.312227 
L 244.020384 46.491731 
L 244.422968 45.611677 
L 244.825553 45.575424 
L 245.228137 46.476052 
L 245.630722 45.375824 
L 246.43589 46.313123 
L 246.838475 45.277442 
L 247.241059 46.169768 
L 247.643644 46.053144 
L 248.046228 45.329531 
L 248.448812 46.357771 
L 248.851397 45.765238 
L 249.253981 45.509015 
L 249.656566 46.412727 
L 250.05915 45.520336 
L 250.461734 45.764437 
L 250.864319 46.329932 
L 251.266903 45.374708 
L 251.669488 46.029619 
L 252.072072 46.137541 
L 252.474656 45.35778 
L 252.877241 46.239892 
L 253.68241 45.466751 
L 254.084994 46.34713 
L 254.487578 45.645202 
L 254.890163 45.6689 
L 255.292747 46.330229 
L 255.695332 45.467528 
L 256.500501 46.198832 
L 256.903085 45.395663 
L 257.305669 46.131483 
L 257.708254 45.989729 
L 258.110838 45.442992 
L 258.513423 46.277959 
L 258.916007 45.757046 
L 259.318591 45.593599 
L 259.721176 46.316815 
L 260.12376 45.558709 
L 260.526345 45.807094 
L 260.928929 46.241911 
L 261.331513 45.442461 
L 261.734098 46.029059 
L 262.136682 46.074941 
L 262.539267 45.434703 
L 262.941851 46.204523 
L 263.74702 45.534714 
L 264.149604 46.29121 
L 264.552189 45.649796 
L 264.954773 45.715458 
L 265.357357 46.26946 
L 265.759942 45.497801 
L 266.162526 45.930666 
L 266.565111 46.14654 
L 266.967695 45.440233 
L 267.370279 46.126387 
L 267.772864 45.954433 
L 268.175448 45.490135 
L 268.578033 46.254199 
L 268.980617 45.741721 
L 269.383201 45.63396 
L 269.785786 46.282919 
L 270.18837 45.561579 
L 270.993539 46.206044 
L 271.396123 45.458772 
L 271.798708 46.043177 
L 272.201292 46.043177 
L 272.603877 45.458772 
L 273.006461 46.206044 
L 273.81163 45.561579 
L 274.214214 46.282919 
L 274.616799 45.63396 
L 275.019383 45.741721 
L 275.421967 46.254199 
L 275.824552 45.490135 
L 276.227136 45.954433 
L 276.629721 46.126387 
L 277.032305 45.440233 
L 277.434889 46.14654 
L 277.837474 45.930666 
L 278.240058 45.497801 
L 278.642643 46.26946 
L 279.045227 45.715458 
L 279.447811 45.649796 
L 279.850396 46.29121 
L 280.25298 45.534714 
L 281.058149 46.204523 
L 281.460733 45.434703 
L 281.863318 46.074941 
L 282.265902 46.029059 
L 282.668487 45.442461 
L 283.071071 46.241911 
L 283.473655 45.807094 
L 283.87624 45.558709 
L 284.278824 46.316815 
L 284.681409 45.593599 
L 285.083993 45.757046 
L 285.486577 46.277959 
L 285.889162 45.442992 
L 286.291746 45.989729 
L 286.694331 46.131483 
L 287.096915 45.395663 
L 287.499499 46.198832 
L 287.902084 45.910719 
L 288.304668 45.467528 
L 288.707253 46.330229 
L 289.109837 45.6689 
L 289.512422 45.645202 
L 289.915006 46.34713 
L 290.31759 45.466751 
L 291.122759 46.239892 
L 291.525344 45.35778 
L 291.927928 46.137541 
L 292.330512 46.029619 
L 292.733097 45.374708 
L 293.135681 46.329932 
L 293.538266 45.764437 
L 293.94085 45.520336 
L 294.343434 46.412727 
L 294.746019 45.509015 
L 295.148603 45.765238 
L 295.551188 46.357771 
L 295.953772 45.329531 
L 296.356356 46.053144 
L 296.758941 46.169768 
L 297.161525 45.277442 
L 297.56411 46.313123 
L 298.369278 45.375824 
L 298.771863 46.476052 
L 299.174447 45.575424 
L 299.577032 45.611677 
L 299.979616 46.491731 
L 300.3822 45.312227 
L 300.784785 45.93634 
L 301.187369 46.342662 
L 301.589954 45.170224 
L 301.992538 46.274436 
L 302.395122 46.051092 
L 302.797707 45.198495 
L 303.200291 46.539834 
L 303.602876 45.677222 
L 304.00546 45.408545 
L 304.408044 46.655454 
L 304.810629 45.308395 
L 305.213213 45.767771 
L 305.615798 46.572691 
L 306.018382 45.041048 
L 306.420966 46.202494 
L 306.823551 46.286105 
L 307.226135 44.958915 
L 307.62872 46.61057 
L 308.433888 45.111962 
L 308.836473 46.881541 
L 309.239057 45.32356 
L 309.641642 45.500594 
L 310.044226 46.92056 
L 310.44681 44.858861 
L 310.849395 46.068718 
L 311.251979 46.671393 
L 311.654564 44.577156 
L 312.057148 46.707452 
L 312.459732 46.133873 
L 312.862317 44.594479 
L 313.264901 47.268899 
L 313.667486 45.37236 
L 314.07007 44.987529 
L 314.472654 47.586744 
L 314.875239 44.51408 
L 315.277823 45.776384 
L 315.680408 47.497662 
L 316.082992 43.739817 
L 316.485576 46.918119 
L 316.888161 46.853432 
L 317.290745 43.275949 
L 317.69333 48.314143 
L 318.498498 43.415172 
L 318.901083 49.832283 
L 319.303667 43.176941 
L 319.706252 44.681957 
L 320.108836 51.33371 
L 320.511421 38.888527 
L 320.914005 49.049723 
L 321.316589 52.305484 
L 321.719174 24.636364 
L 322.121758 102.896535 
L 322.524343 260.216552 
L 322.926927 301.363636 
L 323.329511 272.356783 
L 323.732096 285.30821 
L 324.13468 287.294052 
L 324.537265 277.318079 
L 324.939849 286.763589 
L 325.745018 280.054792 
L 326.147602 286.539091 
L 326.550187 281.798746 
L 326.952771 282.006419 
L 327.355355 285.725241 
L 327.75794 281.14676 
L 328.160524 283.400497 
L 328.563109 284.683423 
L 328.965693 281.164781 
L 329.368277 284.27297 
L 329.770862 283.648167 
L 330.173446 281.617957 
L 330.576031 284.652423 
L 330.978615 282.792533 
L 331.381199 282.300193 
L 331.783784 284.606415 
L 332.186368 282.228223 
L 332.588953 283.024375 
L 332.991537 284.245845 
L 333.394121 281.999764 
L 333.796706 283.63608 
L 334.19929 283.710508 
L 334.601875 282.085925 
L 335.004459 284.029955 
L 335.809628 282.411148 
L 336.212212 284.159954 
L 336.614797 282.679046 
L 337.017381 282.865444 
L 337.419965 284.039634 
L 337.82255 282.397442 
L 338.225134 283.328948 
L 338.627719 283.732071 
L 339.030303 282.338064 
L 339.432887 283.69626 
L 339.835472 283.331529 
L 340.238056 282.485683 
L 340.640641 283.895918 
L 341.043225 282.94078 
L 341.445809 282.781902 
L 341.848394 283.901435 
L 342.250978 282.648771 
L 343.056147 283.732279 
L 343.458731 282.513068 
L 343.861316 283.475511 
L 344.2639 283.445229 
L 344.666485 282.550347 
L 345.069069 283.706825 
L 345.471653 283.118563 
L 345.874238 282.736342 
L 346.276822 283.790262 
L 346.679407 282.832863 
L 347.081991 283.014646 
L 347.484575 283.718035 
L 347.88716 282.652755 
L 348.289744 283.31191 
L 348.692329 283.519097 
L 349.094913 282.613444 
L 349.497497 283.555732 
L 349.900082 283.249942 
L 350.302666 282.714715 
L 350.705251 283.691183 
L 351.107835 282.9798 
L 351.51042 282.923273 
L 351.913004 283.692366 
L 352.315588 282.773856 
L 353.120757 283.566723 
L 353.523342 282.678315 
L 353.925926 283.426746 
L 354.32851 283.351459 
L 354.731095 282.710621 
L 355.133679 283.597585 
L 355.536264 283.103304 
L 355.938848 282.856783 
L 356.341432 283.656807 
L 356.744017 282.884221 
L 357.146601 283.076128 
L 357.549186 283.594751 
L 357.95177 282.746512 
L 358.354354 283.312067 
L 358.756939 283.43137 
L 359.159523 282.720787 
L 359.562108 283.506174 
L 360.367276 282.809467 
L 360.769861 283.612192 
L 361.172445 282.987914 
L 361.57503 282.987148 
L 361.977614 283.60671 
L 362.380198 282.818835 
L 363.185367 283.49411 
L 363.587952 282.743441 
L 363.990536 283.415167 
L 364.39312 283.304782 
L 364.795705 282.778209 
L 365.198289 283.558968 
L 365.600874 283.087184 
L 366.003458 282.912325 
L 366.406042 283.604532 
L 366.808627 282.895761 
L 367.211211 283.110835 
L 367.613796 283.542131 
L 368.01638 282.777644 
L 368.418964 283.32352 
L 368.821549 283.388692 
L 369.224133 282.761314 
L 369.626718 283.497304 
L 370.431886 282.849892 
L 370.834471 283.589205 
L 371.237055 282.977665 
L 371.63964 283.020611 
L 372.042224 283.576737 
L 372.444808 282.823012 
L 372.847393 283.23053 
L 373.249977 283.463289 
L 373.652562 282.757972 
L 374.055146 283.427105 
L 374.45773 283.27723 
L 374.860315 282.798938 
L 375.262899 283.561062 
L 375.665484 283.064972 
L 376.068068 282.936067 
L 376.470652 283.598478 
L 376.873237 282.879632 
L 377.275821 283.135593 
L 377.678406 283.52919 
L 378.08099 282.768033 
L 378.483574 283.347959 
L 378.886159 283.369472 
L 379.288743 282.759134 
L 379.691328 283.519858 
L 380.496496 282.856698 
L 380.899081 283.607309 
L 381.301665 282.948102 
L 381.70425 283.038004 
L 382.106834 283.58664 
L 382.509419 282.791962 
L 382.912003 283.258991 
L 383.314587 283.460697 
L 383.717172 282.730627 
L 384.119756 283.4647 
L 384.522341 283.25871 
L 384.924925 282.782123 
L 385.327509 283.602591 
L 385.730094 283.029712 
L 386.132678 282.936732 
L 386.535263 283.635596 
L 386.937847 282.830966 
L 387.743016 283.551741 
L 388.1456 282.714057 
L 388.548185 283.393777 
L 388.950769 283.367935 
L 389.353353 282.711937 
L 389.755938 283.582917 
L 390.561107 282.830069 
L 390.963691 283.67576 
L 391.366275 282.887356 
L 391.76886 283.043943 
L 392.171444 283.643953 
L 392.574029 282.710728 
L 392.976613 283.303795 
L 393.379197 283.489081 
L 393.781782 282.645536 
L 394.184366 283.545675 
L 394.586951 283.243773 
L 394.989535 282.715014 
L 395.392119 283.706511 
L 395.794704 282.965334 
L 396.197288 282.909895 
L 396.599873 283.739735 
L 397.002457 282.72304 
L 397.807626 283.627796 
L 398.21021 282.581821 
L 398.612795 283.486057 
L 399.015379 283.388416 
L 399.417963 282.585973 
L 399.820548 283.726724 
L 400.223132 283.072769 
L 400.625717 282.746767 
L 401.028301 283.843699 
L 401.430885 282.755522 
L 401.83347 283.037067 
L 402.236054 283.795073 
L 402.638639 282.518547 
L 403.041223 283.394688 
L 403.443807 283.576463 
L 403.846392 282.43166 
L 404.248976 283.734274 
L 404.651561 283.225597 
L 405.054145 282.534589 
L 405.456729 283.965602 
L 405.859314 282.817483 
L 406.261898 282.824339 
L 406.664483 284.014643 
L 407.067067 282.450564 
L 407.872236 283.842894 
L 408.27482 282.226286 
L 408.677405 283.724685 
L 409.079989 283.460678 
L 409.482573 282.225987 
L 409.885158 284.129408 
L 410.287742 282.931148 
L 410.690327 282.489835 
L 411.092911 284.34724 
L 411.495495 282.363643 
L 411.89808 283.00222 
L 412.300664 284.282522 
L 412.703249 281.897264 
L 413.105833 283.68674 
L 413.508418 283.884832 
L 413.911002 281.677827 
L 414.313586 284.411708 
L 415.118755 281.833215 
L 415.52134 285.004185 
L 415.923924 282.2016 
L 416.326508 282.45359 
L 416.729093 285.266591 
L 417.131677 281.137843 
L 417.534262 283.584704 
L 417.936846 284.982696 
L 418.33943 280.175986 
L 418.742015 285.248516 
L 419.144599 283.877076 
L 419.547184 279.595477 
L 419.949768 287.535055 
L 420.352352 281.375563 
L 420.754937 279.946418 
L 421.157521 291.005236 
L 421.560106 274.954081 
L 421.96269 284.446222 
L 422.365274 299.688708 
L 423.170443 43.901386 
L 423.573028 35.433672 
L 423.975612 57.098239 
L 424.378196 39.726613 
L 425.183365 50.310763 
L 425.58595 41.135577 
L 425.988534 47.877912 
L 426.391118 47.238042 
L 426.793703 42.663234 
L 427.196287 48.482871 
L 427.598872 45.451999 
L 428.001456 44.137706 
L 428.40404 48.276852 
L 428.806625 44.476144 
L 429.209209 45.421694 
L 429.611794 47.626525 
L 430.014378 44.127178 
L 430.416962 46.396178 
L 430.819547 46.784743 
L 431.222131 44.261111 
L 431.624716 46.988561 
L 432.429884 44.721815 
L 432.832469 47.187404 
L 433.235053 45.293684 
L 433.637638 45.342073 
L 434.040222 47.04266 
L 434.442806 44.896407 
L 434.845391 45.961975 
L 435.247975 46.653386 
L 435.65056 44.795174 
L 436.053144 46.450878 
L 436.455728 46.146532 
L 436.858313 44.960106 
L 437.260897 46.725157 
L 437.663482 45.651621 
L 438.066066 45.313036 
L 438.46865 46.757186 
L 438.871235 45.276593 
L 439.273819 45.748261 
L 439.676404 46.573636 
L 440.078988 45.089536 
L 440.481572 46.156623 
L 440.884157 46.243764 
L 441.286741 45.109603 
L 441.689326 46.448092 
L 442.494494 45.308388 
L 442.897079 46.568525 
L 443.299663 45.518149 
L 443.702248 45.620817 
L 444.104832 46.507617 
L 444.507417 45.292524 
L 444.910001 45.962729 
L 445.312585 46.297016 
L 445.71517 45.2256 
L 446.117754 46.251044 
L 446.520339 45.999658 
L 446.922923 45.319393 
L 447.325507 46.422127 
L 447.728092 45.693146 
L 448.130676 45.538686 
L 448.533261 46.444552 
L 448.935845 45.45114 
L 449.741014 46.323842 
L 450.143598 45.326885 
L 450.546183 46.0965 
L 450.948767 46.098668 
L 451.351351 45.342388 
L 451.753936 46.297336 
L 452.559105 45.4853 
L 452.961689 46.380314 
L 453.364273 45.584713 
L 453.766858 45.713801 
L 454.169442 46.33193 
L 454.572027 45.421458 
L 454.974611 45.967971 
L 455.377195 46.1707 
L 455.77978 45.375572 
L 456.182364 46.18477 
L 456.584949 45.941228 
L 456.987533 45.45279 
L 457.390117 46.313043 
L 457.792702 45.70248 
L 458.195286 45.629011 
L 458.597871 46.325119 
L 459.000455 45.513207 
L 459.805624 46.222443 
L 460.208208 45.417978 
L 460.610793 46.07967 
L 461.013377 46.034172 
L 461.415961 45.437041 
L 461.818546 46.241805 
L 462.22113 45.809275 
L 462.623715 45.562266 
L 463.026299 46.305474 
L 463.428883 45.604197 
L 463.831468 45.759917 
L 464.234052 46.257514 
L 464.636637 45.469075 
L 465.039221 45.979445 
L 465.441805 46.112325 
L 465.84439 45.435807 
L 466.246974 46.166066 
L 466.649559 45.90778 
L 467.052143 45.510723 
L 467.454727 46.274103 
L 467.857312 45.695609 
L 468.259896 45.67352 
L 468.662481 46.277895 
L 469.065065 45.528631 
L 469.870234 46.177743 
L 470.272818 45.447901 
L 470.675403 46.085442 
L 471.077987 45.999533 
L 471.480571 45.47284 
L 471.883156 46.231516 
L 472.28574 45.788207 
L 472.688325 45.596672 
L 473.090909 46.284587 
L 473.090909 46.284587 
" style="fill:none;stroke:#1f77b4;stroke-linecap:square;stroke-width:1.5;"/>
   </g>
   <g id="patch_3">
    <path d="M 50.8 315.2 
L 50.8 10.8 
" style="fill:none;stroke:#000000;stroke-linecap:square;stroke-linejoin:miter;stroke-width:0.8;"/>
   </g>
   <g id="patch_4">
    <path d="M 493.2 315.2 
L 493.2 10.8 
" style="fill:none;stroke:#000000;stroke-linecap:square;stroke-linejoin:miter;stroke-width:0.8;"/>
   </g>
   <g id="patch_5">
    <path d="M 50.8 315.2 
L 493.2 315.2 
" style="fill:none;stroke:#000000;stroke-linecap:square;stroke-linejoin:miter;stroke-width:0.8;"/>
   </g>
   <g id="patch_6">
    <path d="M 50.8 10.8 
L 493.2 10.8 
" style="fill:none;stroke:#000000;stroke-linecap:square;stroke-linejoin:miter;stroke-width:0.8;"/>
   </g>
   <g id="text_18">
    <!-- n= 90 -->
    <defs>
     <path d="M 54.890625 33.015625 
L 54.890625 0 
L 45.90625 0 
L 45.90625 32.71875 
Q 45.90625 40.484375 42.875 44.328125 
Q 39.84375 48.1875 33.796875 48.1875 
Q 26.515625 48.1875 22.3125 43.546875 
Q 18.109375 38.921875 18.109375 30.90625 
L 18.109375 0 
L 9.078125 0 
L 9.078125 54.6875 
L 18.109375 54.6875 
L 18.109375 46.1875 
Q 21.34375 51.125 25.703125 53.5625 
Q 30.078125 56 35.796875 56 
Q 45.21875 56 50.046875 50.171875 
Q 54.890625 44.34375 54.890625 33.015625 
z
" id="DejaVuSans-110"/>
     <path d="M 10.59375 45.40625 
L 73.1875 45.40625 
L 73.1875 37.203125 
L 10.59375 37.203125 
z
M 10.59375 25.484375 
L 73.1875 25.484375 
L 73.1875 17.1875 
L 10.59375 17.1875 
z
" id="DejaVuSans-61"/>
     <path d="M 10.984375 1.515625 
L 10.984375 10.5 
Q 14.703125 8.734375 18.5 7.8125 
Q 22.3125 6.890625 25.984375 6.890625 
Q 35.75 6.890625 40.890625 13.453125 
Q 46.046875 20.015625 46.78125 33.40625 
Q 43.953125 29.203125 39.59375 26.953125 
Q 35.25 24.703125 29.984375 24.703125 
Q 19.046875 24.703125 12.671875 31.3125 
Q 6.296875 37.9375 6.296875 49.421875 
Q 6.296875 60.640625 12.9375 67.421875 
Q 19.578125 74.21875 30.609375 74.21875 
Q 43.265625 74.21875 49.921875 64.515625 
Q 56.59375 54.828125 56.59375 36.375 
Q 56.59375 19.140625 48.40625 8.859375 
Q 40.234375 -1.421875 26.421875 -1.421875 
Q 22.703125 -1.421875 18.890625 -0.6875 
Q 15.09375 0.046875 10.984375 1.515625 
z
M 30.609375 32.421875 
Q 37.25 32.421875 41.125 36.953125 
Q 45.015625 41.5 45.015625 49.421875 
Q 45.015625 57.28125 41.125 61.84375 
Q 37.25 66.40625 30.609375 66.40625 
Q 23.96875 66.40625 20.09375 61.84375 
Q 16.21875 57.28125 16.21875 49.421875 
Q 16.21875 41.5 20.09375 36.953125 
Q 23.96875 32.421875 30.609375 32.421875 
z
" id="DejaVuSans-57"/>
    </defs>
    <g transform="translate(422.818182 283.177203)scale(0.2 -0.2)">
     <use xlink:href="#DejaVuSans-110"/>
     <use x="63.378906" xlink:href="#DejaVuSans-61"/>
     <use x="147.167969" xlink:href="#DejaVuSans-32"/>
     <use x="178.955078" xlink:href="#DejaVuSans-57"/>
     <use x="242.578125" xlink:href="#DejaVuSans-48"/>
    </g>
   </g>
  </g>
 </g>
 <defs>
  <clipPath id="p38d90e07d9">
   <rect height="304.4" width="442.4" x="50.8" y="10.8"/>
  </clipPath>
 </defs>
</svg>
