<?xml version="1.0" encoding="utf-8" standalone="no"?>
<!DOCTYPE svg PUBLIC "-//W3C//DTD SVG 1.1//EN"
  "http://www.w3.org/Graphics/SVG/1.1/DTD/svg11.dtd">
<!-- Created with matplotlib (https://matplotlib.org/) -->
<svg height="360pt" version="1.1" viewBox="0 0 504 360" width="504pt" xmlns="http://www.w3.org/2000/svg" xmlns:xlink="http://www.w3.org/1999/xlink">
 <defs>
  <style type="text/css">
*{stroke-linecap:butt;stroke-linejoin:round;}
  </style>
 </defs>
 <g id="figure_1">
  <g id="patch_1">
   <path d="M 0 360 
L 504 360 
L 504 0 
L 0 0 
z
" style="fill:none;"/>
  </g>
  <g id="axes_1">
   <g id="patch_2">
    <path d="M 59.175 315.2 
L 493.2 315.2 
L 493.2 14.745353 
L 59.175 14.745353 
z
" style="fill:none;"/>
   </g>
   <g id="matplotlib.axis_1">
    <g id="xtick_1">
     <g id="line2d_1">
      <defs>
       <path d="M 0 0 
L 0 3.5 
" id="mcb154cfcb2" style="stroke:#000000;stroke-width:0.8;"/>
      </defs>
      <g>
       <use style="stroke:#000000;stroke-width:0.8;" x="78.903409" xlink:href="#mcb154cfcb2" y="315.2"/>
      </g>
     </g>
     <g id="text_1">
      <!-- −2.0 -->
      <defs>
       <path d="M 10.59375 35.5 
L 73.1875 35.5 
L 73.1875 27.203125 
L 10.59375 27.203125 
z
" id="DejaVuSans-8722"/>
       <path d="M 19.1875 8.296875 
L 53.609375 8.296875 
L 53.609375 0 
L 7.328125 0 
L 7.328125 8.296875 
Q 12.9375 14.109375 22.625 23.890625 
Q 32.328125 33.6875 34.8125 36.53125 
Q 39.546875 41.84375 41.421875 45.53125 
Q 43.3125 49.21875 43.3125 52.78125 
Q 43.3125 58.59375 39.234375 62.25 
Q 35.15625 65.921875 28.609375 65.921875 
Q 23.96875 65.921875 18.8125 64.3125 
Q 13.671875 62.703125 7.8125 59.421875 
L 7.8125 69.390625 
Q 13.765625 71.78125 18.9375 73 
Q 24.125 74.21875 28.421875 74.21875 
Q 39.75 74.21875 46.484375 68.546875 
Q 53.21875 62.890625 53.21875 53.421875 
Q 53.21875 48.921875 51.53125 44.890625 
Q 49.859375 40.875 45.40625 35.40625 
Q 44.1875 33.984375 37.640625 27.21875 
Q 31.109375 20.453125 19.1875 8.296875 
z
" id="DejaVuSans-50"/>
       <path d="M 10.6875 12.40625 
L 21 12.40625 
L 21 0 
L 10.6875 0 
z
" id="DejaVuSans-46"/>
       <path d="M 31.78125 66.40625 
Q 24.171875 66.40625 20.328125 58.90625 
Q 16.5 51.421875 16.5 36.375 
Q 16.5 21.390625 20.328125 13.890625 
Q 24.171875 6.390625 31.78125 6.390625 
Q 39.453125 6.390625 43.28125 13.890625 
Q 47.125 21.390625 47.125 36.375 
Q 47.125 51.421875 43.28125 58.90625 
Q 39.453125 66.40625 31.78125 66.40625 
z
M 31.78125 74.21875 
Q 44.046875 74.21875 50.515625 64.515625 
Q 56.984375 54.828125 56.984375 36.375 
Q 56.984375 17.96875 50.515625 8.265625 
Q 44.046875 -1.421875 31.78125 -1.421875 
Q 19.53125 -1.421875 13.0625 8.265625 
Q 6.59375 17.96875 6.59375 36.375 
Q 6.59375 54.828125 13.0625 64.515625 
Q 19.53125 74.21875 31.78125 74.21875 
z
" id="DejaVuSans-48"/>
      </defs>
      <g transform="translate(66.762003 329.798437)scale(0.1 -0.1)">
       <use xlink:href="#DejaVuSans-8722"/>
       <use x="83.789062" xlink:href="#DejaVuSans-50"/>
       <use x="147.412109" xlink:href="#DejaVuSans-46"/>
       <use x="179.199219" xlink:href="#DejaVuSans-48"/>
      </g>
     </g>
    </g>
    <g id="xtick_2">
     <g id="line2d_2">
      <g>
       <use style="stroke:#000000;stroke-width:0.8;" x="128.224432" xlink:href="#mcb154cfcb2" y="315.2"/>
      </g>
     </g>
     <g id="text_2">
      <!-- −1.5 -->
      <defs>
       <path d="M 12.40625 8.296875 
L 28.515625 8.296875 
L 28.515625 63.921875 
L 10.984375 60.40625 
L 10.984375 69.390625 
L 28.421875 72.90625 
L 38.28125 72.90625 
L 38.28125 8.296875 
L 54.390625 8.296875 
L 54.390625 0 
L 12.40625 0 
z
" id="DejaVuSans-49"/>
       <path d="M 10.796875 72.90625 
L 49.515625 72.90625 
L 49.515625 64.59375 
L 19.828125 64.59375 
L 19.828125 46.734375 
Q 21.96875 47.46875 24.109375 47.828125 
Q 26.265625 48.1875 28.421875 48.1875 
Q 40.625 48.1875 47.75 41.5 
Q 54.890625 34.8125 54.890625 23.390625 
Q 54.890625 11.625 47.5625 5.09375 
Q 40.234375 -1.421875 26.90625 -1.421875 
Q 22.3125 -1.421875 17.546875 -0.640625 
Q 12.796875 0.140625 7.71875 1.703125 
L 7.71875 11.625 
Q 12.109375 9.234375 16.796875 8.0625 
Q 21.484375 6.890625 26.703125 6.890625 
Q 35.15625 6.890625 40.078125 11.328125 
Q 45.015625 15.765625 45.015625 23.390625 
Q 45.015625 31 40.078125 35.4375 
Q 35.15625 39.890625 26.703125 39.890625 
Q 22.75 39.890625 18.8125 39.015625 
Q 14.890625 38.140625 10.796875 36.28125 
z
" id="DejaVuSans-53"/>
      </defs>
      <g transform="translate(116.083026 329.798437)scale(0.1 -0.1)">
       <use xlink:href="#DejaVuSans-8722"/>
       <use x="83.789062" xlink:href="#DejaVuSans-49"/>
       <use x="147.412109" xlink:href="#DejaVuSans-46"/>
       <use x="179.199219" xlink:href="#DejaVuSans-53"/>
      </g>
     </g>
    </g>
    <g id="xtick_3">
     <g id="line2d_3">
      <g>
       <use style="stroke:#000000;stroke-width:0.8;" x="177.545455" xlink:href="#mcb154cfcb2" y="315.2"/>
      </g>
     </g>
     <g id="text_3">
      <!-- −1.0 -->
      <g transform="translate(165.404048 329.798437)scale(0.1 -0.1)">
       <use xlink:href="#DejaVuSans-8722"/>
       <use x="83.789062" xlink:href="#DejaVuSans-49"/>
       <use x="147.412109" xlink:href="#DejaVuSans-46"/>
       <use x="179.199219" xlink:href="#DejaVuSans-48"/>
      </g>
     </g>
    </g>
    <g id="xtick_4">
     <g id="line2d_4">
      <g>
       <use style="stroke:#000000;stroke-width:0.8;" x="226.866477" xlink:href="#mcb154cfcb2" y="315.2"/>
      </g>
     </g>
     <g id="text_4">
      <!-- −0.5 -->
      <g transform="translate(214.725071 329.798437)scale(0.1 -0.1)">
       <use xlink:href="#DejaVuSans-8722"/>
       <use x="83.789062" xlink:href="#DejaVuSans-48"/>
       <use x="147.412109" xlink:href="#DejaVuSans-46"/>
       <use x="179.199219" xlink:href="#DejaVuSans-53"/>
      </g>
     </g>
    </g>
    <g id="xtick_5">
     <g id="line2d_5">
      <g>
       <use style="stroke:#000000;stroke-width:0.8;" x="276.1875" xlink:href="#mcb154cfcb2" y="315.2"/>
      </g>
     </g>
     <g id="text_5">
      <!-- 0.0 -->
      <g transform="translate(268.235937 329.798437)scale(0.1 -0.1)">
       <use xlink:href="#DejaVuSans-48"/>
       <use x="63.623047" xlink:href="#DejaVuSans-46"/>
       <use x="95.410156" xlink:href="#DejaVuSans-48"/>
      </g>
     </g>
    </g>
    <g id="xtick_6">
     <g id="line2d_6">
      <g>
       <use style="stroke:#000000;stroke-width:0.8;" x="325.508523" xlink:href="#mcb154cfcb2" y="315.2"/>
      </g>
     </g>
     <g id="text_6">
      <!-- 0.5 -->
      <g transform="translate(317.55696 329.798437)scale(0.1 -0.1)">
       <use xlink:href="#DejaVuSans-48"/>
       <use x="63.623047" xlink:href="#DejaVuSans-46"/>
       <use x="95.410156" xlink:href="#DejaVuSans-53"/>
      </g>
     </g>
    </g>
    <g id="xtick_7">
     <g id="line2d_7">
      <g>
       <use style="stroke:#000000;stroke-width:0.8;" x="374.829545" xlink:href="#mcb154cfcb2" y="315.2"/>
      </g>
     </g>
     <g id="text_7">
      <!-- 1.0 -->
      <g transform="translate(366.877983 329.798437)scale(0.1 -0.1)">
       <use xlink:href="#DejaVuSans-49"/>
       <use x="63.623047" xlink:href="#DejaVuSans-46"/>
       <use x="95.410156" xlink:href="#DejaVuSans-48"/>
      </g>
     </g>
    </g>
    <g id="xtick_8">
     <g id="line2d_8">
      <g>
       <use style="stroke:#000000;stroke-width:0.8;" x="424.150568" xlink:href="#mcb154cfcb2" y="315.2"/>
      </g>
     </g>
     <g id="text_8">
      <!-- 1.5 -->
      <g transform="translate(416.199006 329.798437)scale(0.1 -0.1)">
       <use xlink:href="#DejaVuSans-49"/>
       <use x="63.623047" xlink:href="#DejaVuSans-46"/>
       <use x="95.410156" xlink:href="#DejaVuSans-53"/>
      </g>
     </g>
    </g>
    <g id="xtick_9">
     <g id="line2d_9">
      <g>
       <use style="stroke:#000000;stroke-width:0.8;" x="473.471591" xlink:href="#mcb154cfcb2" y="315.2"/>
      </g>
     </g>
     <g id="text_9">
      <!-- 2.0 -->
      <g transform="translate(465.520028 329.798437)scale(0.1 -0.1)">
       <use xlink:href="#DejaVuSans-50"/>
       <use x="63.623047" xlink:href="#DejaVuSans-46"/>
       <use x="95.410156" xlink:href="#DejaVuSans-48"/>
      </g>
     </g>
    </g>
    <g id="text_10">
     <!-- Time, $t$ /s -->
     <defs>
      <path d="M -0.296875 72.90625 
L 61.375 72.90625 
L 61.375 64.59375 
L 35.5 64.59375 
L 35.5 0 
L 25.59375 0 
L 25.59375 64.59375 
L -0.296875 64.59375 
z
" id="DejaVuSans-84"/>
      <path d="M 9.421875 54.6875 
L 18.40625 54.6875 
L 18.40625 0 
L 9.421875 0 
z
M 9.421875 75.984375 
L 18.40625 75.984375 
L 18.40625 64.59375 
L 9.421875 64.59375 
z
" id="DejaVuSans-105"/>
      <path d="M 52 44.1875 
Q 55.375 50.25 60.0625 53.125 
Q 64.75 56 71.09375 56 
Q 79.640625 56 84.28125 50.015625 
Q 88.921875 44.046875 88.921875 33.015625 
L 88.921875 0 
L 79.890625 0 
L 79.890625 32.71875 
Q 79.890625 40.578125 77.09375 44.375 
Q 74.3125 48.1875 68.609375 48.1875 
Q 61.625 48.1875 57.5625 43.546875 
Q 53.515625 38.921875 53.515625 30.90625 
L 53.515625 0 
L 44.484375 0 
L 44.484375 32.71875 
Q 44.484375 40.625 41.703125 44.40625 
Q 38.921875 48.1875 33.109375 48.1875 
Q 26.21875 48.1875 22.15625 43.53125 
Q 18.109375 38.875 18.109375 30.90625 
L 18.109375 0 
L 9.078125 0 
L 9.078125 54.6875 
L 18.109375 54.6875 
L 18.109375 46.1875 
Q 21.1875 51.21875 25.484375 53.609375 
Q 29.78125 56 35.6875 56 
Q 41.65625 56 45.828125 52.96875 
Q 50 49.953125 52 44.1875 
z
" id="DejaVuSans-109"/>
      <path d="M 56.203125 29.59375 
L 56.203125 25.203125 
L 14.890625 25.203125 
Q 15.484375 15.921875 20.484375 11.0625 
Q 25.484375 6.203125 34.421875 6.203125 
Q 39.59375 6.203125 44.453125 7.46875 
Q 49.3125 8.734375 54.109375 11.28125 
L 54.109375 2.78125 
Q 49.265625 0.734375 44.1875 -0.34375 
Q 39.109375 -1.421875 33.890625 -1.421875 
Q 20.796875 -1.421875 13.15625 6.1875 
Q 5.515625 13.8125 5.515625 26.8125 
Q 5.515625 40.234375 12.765625 48.109375 
Q 20.015625 56 32.328125 56 
Q 43.359375 56 49.78125 48.890625 
Q 56.203125 41.796875 56.203125 29.59375 
z
M 47.21875 32.234375 
Q 47.125 39.59375 43.09375 43.984375 
Q 39.0625 48.390625 32.421875 48.390625 
Q 24.90625 48.390625 20.390625 44.140625 
Q 15.875 39.890625 15.1875 32.171875 
z
" id="DejaVuSans-101"/>
      <path d="M 11.71875 12.40625 
L 22.015625 12.40625 
L 22.015625 4 
L 14.015625 -11.625 
L 7.71875 -11.625 
L 11.71875 4 
z
" id="DejaVuSans-44"/>
      <path id="DejaVuSans-32"/>
      <path d="M 42.28125 54.6875 
L 40.921875 47.703125 
L 23 47.703125 
L 17.1875 18.015625 
Q 16.890625 16.359375 16.75 15.234375 
Q 16.609375 14.109375 16.609375 13.484375 
Q 16.609375 10.359375 18.484375 8.9375 
Q 20.359375 7.515625 24.515625 7.515625 
L 33.59375 7.515625 
L 32.078125 0 
L 23.484375 0 
Q 15.484375 0 11.546875 3.125 
Q 7.625 6.25 7.625 12.59375 
Q 7.625 13.71875 7.765625 15.0625 
Q 7.90625 16.40625 8.203125 18.015625 
L 14.015625 47.703125 
L 6.390625 47.703125 
L 7.8125 54.6875 
L 15.28125 54.6875 
L 18.3125 70.21875 
L 27.296875 70.21875 
L 24.3125 54.6875 
z
" id="DejaVuSans-Oblique-116"/>
      <path d="M 25.390625 72.90625 
L 33.6875 72.90625 
L 8.296875 -9.28125 
L 0 -9.28125 
z
" id="DejaVuSans-47"/>
      <path d="M 44.28125 53.078125 
L 44.28125 44.578125 
Q 40.484375 46.53125 36.375 47.5 
Q 32.28125 48.484375 27.875 48.484375 
Q 21.1875 48.484375 17.84375 46.4375 
Q 14.5 44.390625 14.5 40.28125 
Q 14.5 37.15625 16.890625 35.375 
Q 19.28125 33.59375 26.515625 31.984375 
L 29.59375 31.296875 
Q 39.15625 29.25 43.1875 25.515625 
Q 47.21875 21.78125 47.21875 15.09375 
Q 47.21875 7.46875 41.1875 3.015625 
Q 35.15625 -1.421875 24.609375 -1.421875 
Q 20.21875 -1.421875 15.453125 -0.5625 
Q 10.6875 0.296875 5.421875 2 
L 5.421875 11.28125 
Q 10.40625 8.6875 15.234375 7.390625 
Q 20.0625 6.109375 24.8125 6.109375 
Q 31.15625 6.109375 34.5625 8.28125 
Q 37.984375 10.453125 37.984375 14.40625 
Q 37.984375 18.0625 35.515625 20.015625 
Q 33.0625 21.96875 24.703125 23.78125 
L 21.578125 24.515625 
Q 13.234375 26.265625 9.515625 29.90625 
Q 5.8125 33.546875 5.8125 39.890625 
Q 5.8125 47.609375 11.28125 51.796875 
Q 16.75 56 26.8125 56 
Q 31.78125 56 36.171875 55.265625 
Q 40.578125 54.546875 44.28125 53.078125 
z
" id="DejaVuSans-115"/>
     </defs>
     <g transform="translate(252.7375 343.476562)scale(0.1 -0.1)">
      <use transform="translate(0 0.015625)" xlink:href="#DejaVuSans-84"/>
      <use transform="translate(61.083984 0.015625)" xlink:href="#DejaVuSans-105"/>
      <use transform="translate(88.867188 0.015625)" xlink:href="#DejaVuSans-109"/>
      <use transform="translate(186.279297 0.015625)" xlink:href="#DejaVuSans-101"/>
      <use transform="translate(247.802734 0.015625)" xlink:href="#DejaVuSans-44"/>
      <use transform="translate(279.589844 0.015625)" xlink:href="#DejaVuSans-32"/>
      <use transform="translate(311.376953 0.015625)" xlink:href="#DejaVuSans-Oblique-116"/>
      <use transform="translate(350.585938 0.015625)" xlink:href="#DejaVuSans-32"/>
      <use transform="translate(382.373047 0.015625)" xlink:href="#DejaVuSans-47"/>
      <use transform="translate(416.064453 0.015625)" xlink:href="#DejaVuSans-115"/>
     </g>
    </g>
   </g>
   <g id="matplotlib.axis_2">
    <g id="ytick_1">
     <g id="line2d_10">
      <defs>
       <path d="M 0 0 
L -3.5 0 
" id="m2fff294016" style="stroke:#000000;stroke-width:0.8;"/>
      </defs>
      <g>
       <use style="stroke:#000000;stroke-width:0.8;" x="59.175" xlink:href="#m2fff294016" y="315.140267"/>
      </g>
     </g>
     <g id="text_11">
      <!-- −0.2 -->
      <g transform="translate(27.892188 318.939486)scale(0.1 -0.1)">
       <use xlink:href="#DejaVuSans-8722"/>
       <use x="83.789062" xlink:href="#DejaVuSans-48"/>
       <use x="147.412109" xlink:href="#DejaVuSans-46"/>
       <use x="179.199219" xlink:href="#DejaVuSans-50"/>
      </g>
     </g>
    </g>
    <g id="ytick_2">
     <g id="line2d_11">
      <g>
       <use style="stroke:#000000;stroke-width:0.8;" x="59.175" xlink:href="#m2fff294016" y="272.235337"/>
      </g>
     </g>
     <g id="text_12">
      <!-- 0.0 -->
      <g transform="translate(36.271875 276.034556)scale(0.1 -0.1)">
       <use xlink:href="#DejaVuSans-48"/>
       <use x="63.623047" xlink:href="#DejaVuSans-46"/>
       <use x="95.410156" xlink:href="#DejaVuSans-48"/>
      </g>
     </g>
    </g>
    <g id="ytick_3">
     <g id="line2d_12">
      <g>
       <use style="stroke:#000000;stroke-width:0.8;" x="59.175" xlink:href="#m2fff294016" y="229.330408"/>
      </g>
     </g>
     <g id="text_13">
      <!-- 0.2 -->
      <g transform="translate(36.271875 233.129627)scale(0.1 -0.1)">
       <use xlink:href="#DejaVuSans-48"/>
       <use x="63.623047" xlink:href="#DejaVuSans-46"/>
       <use x="95.410156" xlink:href="#DejaVuSans-50"/>
      </g>
     </g>
    </g>
    <g id="ytick_4">
     <g id="line2d_13">
      <g>
       <use style="stroke:#000000;stroke-width:0.8;" x="59.175" xlink:href="#m2fff294016" y="186.425479"/>
      </g>
     </g>
     <g id="text_14">
      <!-- 0.4 -->
      <defs>
       <path d="M 37.796875 64.3125 
L 12.890625 25.390625 
L 37.796875 25.390625 
z
M 35.203125 72.90625 
L 47.609375 72.90625 
L 47.609375 25.390625 
L 58.015625 25.390625 
L 58.015625 17.1875 
L 47.609375 17.1875 
L 47.609375 0 
L 37.796875 0 
L 37.796875 17.1875 
L 4.890625 17.1875 
L 4.890625 26.703125 
z
" id="DejaVuSans-52"/>
      </defs>
      <g transform="translate(36.271875 190.224697)scale(0.1 -0.1)">
       <use xlink:href="#DejaVuSans-48"/>
       <use x="63.623047" xlink:href="#DejaVuSans-46"/>
       <use x="95.410156" xlink:href="#DejaVuSans-52"/>
      </g>
     </g>
    </g>
    <g id="ytick_5">
     <g id="line2d_14">
      <g>
       <use style="stroke:#000000;stroke-width:0.8;" x="59.175" xlink:href="#m2fff294016" y="143.520549"/>
      </g>
     </g>
     <g id="text_15">
      <!-- 0.6 -->
      <defs>
       <path d="M 33.015625 40.375 
Q 26.375 40.375 22.484375 35.828125 
Q 18.609375 31.296875 18.609375 23.390625 
Q 18.609375 15.53125 22.484375 10.953125 
Q 26.375 6.390625 33.015625 6.390625 
Q 39.65625 6.390625 43.53125 10.953125 
Q 47.40625 15.53125 47.40625 23.390625 
Q 47.40625 31.296875 43.53125 35.828125 
Q 39.65625 40.375 33.015625 40.375 
z
M 52.59375 71.296875 
L 52.59375 62.3125 
Q 48.875 64.0625 45.09375 64.984375 
Q 41.3125 65.921875 37.59375 65.921875 
Q 27.828125 65.921875 22.671875 59.328125 
Q 17.53125 52.734375 16.796875 39.40625 
Q 19.671875 43.65625 24.015625 45.921875 
Q 28.375 48.1875 33.59375 48.1875 
Q 44.578125 48.1875 50.953125 41.515625 
Q 57.328125 34.859375 57.328125 23.390625 
Q 57.328125 12.15625 50.6875 5.359375 
Q 44.046875 -1.421875 33.015625 -1.421875 
Q 20.359375 -1.421875 13.671875 8.265625 
Q 6.984375 17.96875 6.984375 36.375 
Q 6.984375 53.65625 15.1875 63.9375 
Q 23.390625 74.21875 37.203125 74.21875 
Q 40.921875 74.21875 44.703125 73.484375 
Q 48.484375 72.75 52.59375 71.296875 
z
" id="DejaVuSans-54"/>
      </defs>
      <g transform="translate(36.271875 147.319768)scale(0.1 -0.1)">
       <use xlink:href="#DejaVuSans-48"/>
       <use x="63.623047" xlink:href="#DejaVuSans-46"/>
       <use x="95.410156" xlink:href="#DejaVuSans-54"/>
      </g>
     </g>
    </g>
    <g id="ytick_6">
     <g id="line2d_15">
      <g>
       <use style="stroke:#000000;stroke-width:0.8;" x="59.175" xlink:href="#m2fff294016" y="100.61562"/>
      </g>
     </g>
     <g id="text_16">
      <!-- 0.8 -->
      <defs>
       <path d="M 31.78125 34.625 
Q 24.75 34.625 20.71875 30.859375 
Q 16.703125 27.09375 16.703125 20.515625 
Q 16.703125 13.921875 20.71875 10.15625 
Q 24.75 6.390625 31.78125 6.390625 
Q 38.8125 6.390625 42.859375 10.171875 
Q 46.921875 13.96875 46.921875 20.515625 
Q 46.921875 27.09375 42.890625 30.859375 
Q 38.875 34.625 31.78125 34.625 
z
M 21.921875 38.8125 
Q 15.578125 40.375 12.03125 44.71875 
Q 8.5 49.078125 8.5 55.328125 
Q 8.5 64.0625 14.71875 69.140625 
Q 20.953125 74.21875 31.78125 74.21875 
Q 42.671875 74.21875 48.875 69.140625 
Q 55.078125 64.0625 55.078125 55.328125 
Q 55.078125 49.078125 51.53125 44.71875 
Q 48 40.375 41.703125 38.8125 
Q 48.828125 37.15625 52.796875 32.3125 
Q 56.78125 27.484375 56.78125 20.515625 
Q 56.78125 9.90625 50.3125 4.234375 
Q 43.84375 -1.421875 31.78125 -1.421875 
Q 19.734375 -1.421875 13.25 4.234375 
Q 6.78125 9.90625 6.78125 20.515625 
Q 6.78125 27.484375 10.78125 32.3125 
Q 14.796875 37.15625 21.921875 38.8125 
z
M 18.3125 54.390625 
Q 18.3125 48.734375 21.84375 45.5625 
Q 25.390625 42.390625 31.78125 42.390625 
Q 38.140625 42.390625 41.71875 45.5625 
Q 45.3125 48.734375 45.3125 54.390625 
Q 45.3125 60.0625 41.71875 63.234375 
Q 38.140625 66.40625 31.78125 66.40625 
Q 25.390625 66.40625 21.84375 63.234375 
Q 18.3125 60.0625 18.3125 54.390625 
z
" id="DejaVuSans-56"/>
      </defs>
      <g transform="translate(36.271875 104.414839)scale(0.1 -0.1)">
       <use xlink:href="#DejaVuSans-48"/>
       <use x="63.623047" xlink:href="#DejaVuSans-46"/>
       <use x="95.410156" xlink:href="#DejaVuSans-56"/>
      </g>
     </g>
    </g>
    <g id="ytick_7">
     <g id="line2d_16">
      <g>
       <use style="stroke:#000000;stroke-width:0.8;" x="59.175" xlink:href="#m2fff294016" y="57.710691"/>
      </g>
     </g>
     <g id="text_17">
      <!-- 1.0 -->
      <g transform="translate(36.271875 61.509909)scale(0.1 -0.1)">
       <use xlink:href="#DejaVuSans-49"/>
       <use x="63.623047" xlink:href="#DejaVuSans-46"/>
       <use x="95.410156" xlink:href="#DejaVuSans-48"/>
      </g>
     </g>
    </g>
    <g id="ytick_8">
     <g id="line2d_17">
      <g>
       <use style="stroke:#000000;stroke-width:0.8;" x="59.175" xlink:href="#m2fff294016" y="14.805761"/>
      </g>
     </g>
     <g id="text_18">
      <!-- 1.2 -->
      <g transform="translate(36.271875 18.60498)scale(0.1 -0.1)">
       <use xlink:href="#DejaVuSans-49"/>
       <use x="63.623047" xlink:href="#DejaVuSans-46"/>
       <use x="95.410156" xlink:href="#DejaVuSans-50"/>
      </g>
     </g>
    </g>
    <g id="text_19">
     <!-- $P(t)$ -->
     <defs>
      <path d="M 16.890625 72.90625 
L 39.703125 72.90625 
Q 49.65625 72.90625 54.875 68.265625 
Q 60.109375 63.625 60.109375 54.6875 
Q 60.109375 42.671875 52.390625 35.984375 
Q 44.671875 29.296875 30.71875 29.296875 
L 18.3125 29.296875 
L 12.59375 0 
L 2.6875 0 
z
M 25.203125 64.796875 
L 19.921875 37.40625 
L 32.328125 37.40625 
Q 40.71875 37.40625 45.203125 41.703125 
Q 49.703125 46 49.703125 54 
Q 49.703125 59.125 46.65625 61.953125 
Q 43.609375 64.796875 38.09375 64.796875 
z
" id="DejaVuSans-Oblique-80"/>
      <path d="M 31 75.875 
Q 24.46875 64.65625 21.28125 53.65625 
Q 18.109375 42.671875 18.109375 31.390625 
Q 18.109375 20.125 21.3125 9.0625 
Q 24.515625 -2 31 -13.1875 
L 23.1875 -13.1875 
Q 15.875 -1.703125 12.234375 9.375 
Q 8.59375 20.453125 8.59375 31.390625 
Q 8.59375 42.28125 12.203125 53.3125 
Q 15.828125 64.359375 23.1875 75.875 
z
" id="DejaVuSans-40"/>
      <path d="M 8.015625 75.875 
L 15.828125 75.875 
Q 23.140625 64.359375 26.78125 53.3125 
Q 30.421875 42.28125 30.421875 31.390625 
Q 30.421875 20.453125 26.78125 9.375 
Q 23.140625 -1.703125 15.828125 -13.1875 
L 8.015625 -13.1875 
Q 14.5 -2 17.703125 9.0625 
Q 20.90625 20.125 20.90625 31.390625 
Q 20.90625 42.671875 17.703125 53.65625 
Q 14.5 64.65625 8.015625 75.875 
z
" id="DejaVuSans-41"/>
     </defs>
     <g transform="translate(21.8125 173.872676)rotate(-90)scale(0.1 -0.1)">
      <use transform="translate(0 0.125)" xlink:href="#DejaVuSans-Oblique-80"/>
      <use transform="translate(60.302734 0.125)" xlink:href="#DejaVuSans-40"/>
      <use transform="translate(99.316406 0.125)" xlink:href="#DejaVuSans-Oblique-116"/>
      <use transform="translate(138.525391 0.125)" xlink:href="#DejaVuSans-41"/>
     </g>
    </g>
   </g>
   <g id="line2d_18">
    <path clip-path="url(#pd4fa01f1cf)" d="M 78.903409 28.402382 
L 80.088299 28.499614 
L 81.273188 28.79117 
L 82.458077 29.276635 
L 83.642967 29.955319 
L 85.222819 31.159082 
L 86.802672 32.701548 
L 88.382525 34.578813 
L 89.962377 36.786124 
L 91.937193 40.000801 
L 93.912009 43.709674 
L 95.886824 47.898076 
L 98.256603 53.533687 
L 100.626382 59.803786 
L 102.996161 66.672674 
L 105.760903 75.390826 
L 108.920608 86.200164 
L 112.080313 97.806539 
L 115.634982 111.669923 
L 119.979576 129.522233 
L 125.904023 154.889447 
L 137.357955 204.141913 
L 141.702549 221.81303 
L 145.652181 236.94335 
L 148.811886 248.239662 
L 151.971591 258.693468 
L 154.736333 267.066047 
L 157.106112 273.615234 
L 159.475891 279.545857 
L 161.84567 284.824152 
L 163.820485 288.702627 
L 165.795301 292.091819 
L 167.770117 294.978328 
L 169.349969 296.917863 
L 170.929822 298.523427 
L 172.509674 299.790955 
L 174.089527 300.717239 
L 175.274416 301.186568 
L 176.459306 301.461943 
L 177.644195 301.542971 
L 178.829085 301.429536 
L 180.013974 301.121801 
L 181.198864 300.620204 
L 182.383753 299.925459 
L 183.963606 298.700428 
L 185.543458 297.136914 
L 187.123311 295.238874 
L 188.703163 293.011112 
L 190.677979 289.771407 
L 192.652795 286.038193 
L 194.627611 281.826234 
L 196.997389 276.163519 
L 199.367168 269.867734 
L 201.736947 262.974722 
L 204.501689 254.230584 
L 207.661394 243.394638 
L 210.8211 231.765209 
L 214.770731 216.292515 
L 219.115326 198.345712 
L 225.434736 171.198298 
L 235.703778 127.040149 
L 240.443335 107.742766 
L 244.392967 92.638031 
L 247.552672 81.366358 
L 250.712377 70.940632 
L 253.477119 62.595223 
L 255.846898 56.071089 
L 258.216677 50.166997 
L 260.586456 44.916561 
L 262.561271 41.062202 
L 264.536087 37.697842 
L 266.510903 34.836784 
L 268.090756 32.917987 
L 269.670608 31.33344 
L 271.250461 30.087154 
L 272.830313 29.182284 
L 274.015203 28.729097 
L 275.200092 28.469906 
L 276.384982 28.405083 
L 277.569871 28.534719 
L 278.75476 28.85863 
L 279.93965 29.376354 
L 281.124539 30.087154 
L 282.704392 31.33344 
L 284.284244 32.917987 
L 285.864097 34.836784 
L 287.44395 37.084975 
L 289.418765 40.349676 
L 291.393581 44.107194 
L 293.368397 48.342668 
L 295.738176 54.03243 
L 298.107955 60.35384 
L 300.477733 67.270908 
L 303.242475 76.040945 
L 306.402181 86.903392 
L 309.561886 98.55576 
L 313.511517 114.051769 
L 318.251075 133.686649 
L 324.965448 162.610999 
L 334.049601 201.66647 
L 338.789158 221.030882 
L 342.73879 236.211924 
L 345.898495 247.55718 
L 349.0582 258.066835 
L 351.822942 266.493505 
L 354.192721 273.092602 
L 356.5625 279.076112 
L 358.932279 284.409968 
L 360.907095 288.336559 
L 362.88191 291.775315 
L 364.856726 294.712639 
L 366.436579 296.693593 
L 368.016431 298.341142 
L 369.596284 299.651118 
L 371.176136 300.620204 
L 372.361026 301.121801 
L 373.545915 301.429536 
L 374.730805 301.542971 
L 375.915694 301.461943 
L 377.100584 301.186568 
L 378.285473 300.717239 
L 379.470362 300.054624 
L 381.050215 298.87214 
L 382.630068 297.350737 
L 384.20992 295.494267 
L 385.789773 293.307429 
L 387.764588 290.117812 
L 389.739404 286.433317 
L 391.71422 282.268513 
L 394.083999 276.660061 
L 396.453778 270.415711 
L 398.823557 263.571014 
L 401.588299 254.878935 
L 404.748004 244.096312 
L 407.907709 232.513105 
L 411.462377 218.671257 
L 415.806972 200.838376 
L 421.731419 175.484837 
L 433.18535 126.215744 
L 437.529945 108.523793 
L 441.479576 93.368037 
L 444.639281 82.047197 
L 447.798986 71.565414 
L 450.563729 63.165748 
L 452.933507 56.591574 
L 455.303286 50.634478 
L 457.673065 45.328377 
L 459.647881 41.425825 
L 461.622697 38.011833 
L 463.597512 35.099903 
L 465.177365 33.139648 
L 466.757217 31.513084 
L 468.33707 30.224325 
L 469.916923 29.276635 
L 471.101812 28.79117 
L 472.286701 28.499614 
L 473.471591 28.402382 
L 473.471591 28.402382 
" style="fill:none;stroke:#1f77b4;stroke-linecap:square;stroke-width:1.5;"/>
   </g>
   <g id="line2d_19">
    <path clip-path="url(#pd4fa01f1cf)" d="M 78.903409 73.925926 
L 79.693335 73.839547 
L 80.483262 73.581121 
L 81.273188 73.152774 
L 82.458077 72.199758 
L 83.642967 70.890418 
L 84.827856 69.24924 
L 86.407709 66.599133 
L 87.987561 63.504499 
L 90.35734 58.26633 
L 96.281787 44.717287 
L 97.86164 41.703069 
L 99.046529 39.783328 
L 100.231419 38.221309 
L 101.416308 37.072985 
L 102.206235 36.56331 
L 102.996161 36.275365 
L 103.786087 36.222702 
L 104.576014 36.417849 
L 105.36594 36.872227 
L 106.155866 37.596083 
L 106.945792 38.59842 
L 107.735719 39.886936 
L 108.920608 42.369798 
L 110.105498 45.525981 
L 111.290387 49.363612 
L 112.475276 53.883298 
L 114.055129 60.957346 
L 115.634982 69.193163 
L 117.214834 78.5299 
L 119.18965 91.620298 
L 121.559429 109.130603 
L 124.324171 131.477705 
L 128.668765 168.837678 
L 133.408323 209.055343 
L 136.173065 230.522091 
L 138.542844 247.005599 
L 140.51766 259.083875 
L 142.097512 267.53144 
L 143.677365 274.82689 
L 145.257217 280.928311 
L 146.442107 284.709027 
L 147.626996 287.808687 
L 148.811886 290.236037 
L 149.996775 292.007146 
L 150.786701 292.834446 
L 151.576628 293.388743 
L 152.366554 293.679824 
L 153.15648 293.71868 
L 153.946407 293.517431 
L 154.736333 293.089255 
L 155.526259 292.4483 
L 156.711149 291.121014 
L 157.896038 289.402964 
L 159.475891 286.603673 
L 161.450706 282.488157 
L 164.215448 276.089734 
L 167.770117 267.908518 
L 169.744932 263.896276 
L 171.324785 261.155444 
L 172.509674 259.435895 
L 173.694564 258.041043 
L 174.879453 256.997015 
L 176.064343 256.323254 
L 176.854269 256.086246 
L 177.644195 256.021453 
L 178.434122 256.129405 
L 179.224048 256.409217 
L 180.013974 256.858584 
L 181.198864 257.842066 
L 182.383753 259.180085 
L 183.568643 260.847607 
L 185.148495 263.528312 
L 186.728348 266.647352 
L 189.098127 271.908425 
L 194.627611 284.616097 
L 196.207463 287.713967 
L 197.787316 290.307324 
L 198.972205 291.836961 
L 200.157095 292.948391 
L 200.947021 293.431125 
L 201.736947 293.69038 
L 202.526873 293.71273 
L 203.3168 293.48578 
L 204.106726 292.998253 
L 204.896652 292.240053 
L 205.686579 291.202338 
L 206.476505 289.877574 
L 207.661394 287.339093 
L 208.846284 284.12633 
L 210.031173 280.23178 
L 211.216063 275.655467 
L 212.795915 268.507464 
L 214.375768 260.200819 
L 215.95562 250.797812 
L 217.930436 237.633027 
L 220.300215 220.048945 
L 223.064957 197.641337 
L 227.804515 156.818984 
L 232.149109 120.090259 
L 234.913851 98.698252 
L 236.888667 84.888355 
L 238.863483 72.569419 
L 240.443335 63.9124 
L 242.023188 56.397024 
L 243.603041 50.069623 
L 244.78793 46.118154 
L 245.972819 42.848758 
L 247.157709 40.254555 
L 248.342598 38.321284 
L 249.132525 37.389341 
L 249.922451 36.733748 
L 250.712377 36.345186 
L 251.502303 36.213107 
L 252.29223 36.325806 
L 253.082156 36.670492 
L 253.872082 37.233371 
L 255.056972 38.454388 
L 256.241861 40.079999 
L 257.426751 42.053711 
L 259.006603 45.124265 
L 260.981419 49.463244 
L 267.695792 64.710652 
L 269.275645 67.650229 
L 270.855498 70.109523 
L 272.040387 71.588253 
L 273.225276 72.722076 
L 274.410166 73.48985 
L 275.200092 73.791011 
L 275.990018 73.920524 
L 276.779945 73.877323 
L 277.569871 73.661764 
L 278.359797 73.275621 
L 279.544687 72.383903 
L 280.729576 71.132429 
L 281.914466 69.544579 
L 283.494318 66.956719 
L 285.074171 63.912143 
L 287.048986 59.625037 
L 294.158323 43.533775 
L 295.738176 40.7021 
L 296.923065 38.95403 
L 298.107955 37.592068 
L 298.897881 36.925556 
L 299.687807 36.46999 
L 300.477733 36.239634 
L 301.26766 36.247791 
L 302.057586 36.50672 
L 302.847512 37.027554 
L 303.637439 37.820236 
L 304.427365 38.893448 
L 305.217291 40.254555 
L 306.402181 42.848758 
L 307.58707 46.118154 
L 308.771959 50.069623 
L 309.956849 54.70251 
L 311.536701 61.924316 
L 313.116554 70.301545 
L 314.696407 79.770492 
L 316.671222 93.009137 
L 319.041001 110.666222 
L 321.805743 133.13328 
L 326.545301 173.983877 
L 330.494932 207.448086 
L 333.259674 229.061371 
L 335.629453 245.710753 
L 337.604269 257.949919 
L 339.184122 266.537384 
L 340.763974 273.979625 
L 342.343827 280.23178 
L 343.528716 284.12633 
L 344.713606 287.339093 
L 345.898495 289.877574 
L 347.083385 291.756637 
L 347.873311 292.65357 
L 348.663237 293.275248 
L 349.453163 293.631149 
L 350.24309 293.731968 
L 351.033016 293.58955 
L 351.822942 293.216815 
L 352.612869 292.627679 
L 353.797758 291.370867 
L 354.982647 289.714048 
L 356.5625 286.981193 
L 358.142353 283.77975 
L 360.512131 278.419191 
L 365.251689 267.483324 
L 367.226505 263.528312 
L 368.806357 260.847607 
L 369.991247 259.180085 
L 371.176136 257.842066 
L 372.361026 256.858584 
L 373.545915 256.24794 
L 374.335842 256.053858 
L 375.125768 256.032256 
L 375.915694 256.183313 
L 376.70562 256.505784 
L 377.89051 257.304703 
L 379.075399 258.468169 
L 380.260289 259.974478 
L 381.445178 261.795345 
L 383.025031 264.652024 
L 384.999846 268.772151 
L 387.764588 275.154749 
L 391.319257 283.353873 
L 393.294072 287.351385 
L 394.873925 290.015591 
L 396.058814 291.609601 
L 397.243704 292.794455 
L 398.03363 293.330846 
L 398.823557 293.647269 
L 399.613483 293.730048 
L 400.403409 293.566526 
L 401.193335 293.145137 
L 401.983262 292.455484 
L 402.773188 291.488406 
L 403.563114 290.236037 
L 404.748004 287.808687 
L 405.932893 284.709027 
L 407.117783 280.928311 
L 408.302672 276.465301 
L 409.882525 269.465354 
L 411.462377 261.300603 
L 413.04223 252.030463 
L 415.017045 239.014971 
L 417.386824 221.579211 
L 420.151566 199.293666 
L 424.496161 161.966966 
L 429.235719 121.693259 
L 432.000461 100.152749 
L 434.37024 83.585957 
L 436.345055 71.427013 
L 437.924908 62.909368 
L 439.50476 55.540438 
L 441.084613 49.363612 
L 442.269502 45.525981 
L 443.454392 42.369798 
L 444.639281 39.886936 
L 445.824171 38.061929 
L 446.614097 37.199878 
L 447.404023 36.611965 
L 448.19395 36.288559 
L 448.983876 36.218815 
L 449.773802 36.390751 
L 450.563729 36.791316 
L 451.353655 37.406478 
L 452.538544 38.698714 
L 453.723434 40.386347 
L 455.303286 43.152697 
L 457.278102 47.239787 
L 460.042844 53.622571 
L 463.597512 61.823213 
L 465.572328 65.863254 
L 467.152181 68.633606 
L 468.732033 70.890418 
L 469.916923 72.199758 
L 471.101812 73.152774 
L 472.286701 73.73174 
L 473.076628 73.90432 
L 473.471591 73.925926 
L 473.471591 73.925926 
" style="fill:none;stroke:#ff7f0e;stroke-linecap:square;stroke-width:1.5;"/>
   </g>
   <g id="line2d_20">
    <path clip-path="url(#pd4fa01f1cf)" d="M 78.903409 46.6118 
L 79.693335 46.741232 
L 80.483262 47.126827 
L 81.273188 47.760538 
L 82.063114 48.629111 
L 83.248004 50.331235 
L 84.432893 52.439249 
L 86.012746 55.705344 
L 90.35734 65.10732 
L 91.54223 67.171158 
L 92.727119 68.792267 
L 93.517045 69.578211 
L 94.306972 70.10019 
L 95.096898 70.339531 
L 95.886824 70.282925 
L 96.676751 69.922818 
L 97.466677 69.257714 
L 98.256603 68.292371 
L 99.046529 67.037914 
L 100.231419 64.654089 
L 101.416308 61.745694 
L 102.996161 57.254309 
L 107.735719 43.18585 
L 108.920608 40.524446 
L 109.710534 39.148733 
L 110.500461 38.158161 
L 111.290387 37.606516 
L 111.68535 37.511128 
L 112.080313 37.54395 
L 112.475276 37.710552 
L 112.87024 38.016178 
L 113.660166 39.063726 
L 114.450092 40.721252 
L 115.240018 43.016939 
L 116.029945 45.971979 
L 116.819871 49.600149 
L 118.00476 56.315579 
L 119.18965 64.544071 
L 120.374539 74.231778 
L 121.954392 89.251132 
L 123.534244 106.368446 
L 125.50906 130.052398 
L 129.458692 181.030153 
L 132.223434 215.535552 
L 134.198249 237.633569 
L 135.778102 253.074451 
L 137.357955 266.144409 
L 138.542844 274.24831 
L 139.727733 280.836494 
L 140.912623 285.899123 
L 141.702549 288.439974 
L 142.492475 290.333873 
L 143.282402 291.606436 
L 144.072328 292.289961 
L 144.467291 292.422613 
L 144.862254 292.422848 
L 145.257217 292.296314 
L 146.047144 291.686978 
L 146.83707 290.645257 
L 147.626996 289.225331 
L 148.811886 286.511214 
L 150.391738 282.112034 
L 155.526259 266.931474 
L 156.711149 264.229342 
L 157.896038 262.090998 
L 158.685964 261.015592 
L 159.475891 260.237 
L 160.265817 259.762362 
L 161.055743 259.592508 
L 161.84567 259.722128 
L 162.635596 260.140027 
L 163.425522 260.829493 
L 164.215448 261.768739 
L 165.400338 263.587224 
L 166.98019 266.608881 
L 169.349969 271.825097 
L 171.719748 276.927746 
L 173.299601 279.773392 
L 174.48449 281.437756 
L 175.274416 282.277869 
L 176.064343 282.881185 
L 176.854269 283.235092 
L 177.644195 283.332202 
L 178.434122 283.170492 
L 179.224048 282.753333 
L 180.013974 282.089436 
L 180.8039 281.192686 
L 181.98879 279.453364 
L 183.173679 277.315813 
L 185.148495 273.152227 
L 188.703163 265.410755 
L 189.888053 263.253534 
L 191.072942 261.511879 
L 191.862869 260.632777 
L 192.652795 260.009349 
L 193.442721 259.662162 
L 194.232647 259.606586 
L 195.022574 259.852373 
L 195.8125 260.403322 
L 196.602426 261.257036 
L 197.392353 262.404783 
L 198.577242 264.642952 
L 199.762131 267.429854 
L 201.341984 271.809165 
L 206.476505 287.005386 
L 207.661394 289.612697 
L 208.451321 290.943312 
L 209.241247 291.881893 
L 210.031173 292.375063 
L 210.426136 292.438937 
L 210.8211 292.37318 
L 211.216063 292.1723 
L 212.005989 291.344888 
L 212.795915 289.919767 
L 213.585842 287.866259 
L 214.375768 285.160497 
L 215.165694 281.78588 
L 216.350584 275.452367 
L 217.535473 267.598677 
L 218.720362 258.26852 
L 220.300215 243.682169 
L 221.880068 226.928393 
L 223.854883 203.573866 
L 227.014588 163.040443 
L 230.569257 117.944975 
L 232.544072 95.445258 
L 234.123925 79.595061 
L 235.703778 66.0594 
L 236.888667 57.582872 
L 238.073557 50.61325 
L 239.258446 45.170521 
L 240.048372 42.381907 
L 240.838299 40.248028 
L 241.628225 38.745901 
L 242.418151 37.845672 
L 242.813114 37.610193 
L 243.208077 37.511157 
L 243.603041 37.543156 
L 244.392967 37.977073 
L 245.182893 38.862828 
L 245.972819 40.147465 
L 247.157709 42.699308 
L 248.342598 45.825304 
L 250.317414 51.76634 
L 253.082156 60.129592 
L 254.662009 64.203038 
L 255.846898 66.681035 
L 257.031787 68.561355 
L 257.821714 69.452431 
L 258.61164 70.041486 
L 259.401566 70.325336 
L 260.191493 70.307016 
L 260.981419 69.995551 
L 261.771345 69.405631 
L 262.561271 68.557198 
L 263.746161 66.855029 
L 264.93105 64.728125 
L 266.510903 61.434795 
L 270.855498 52.06377 
L 272.040387 50.01692 
L 273.225276 48.390863 
L 274.015203 47.579487 
L 274.805129 47.006763 
L 275.595055 46.684661 
L 276.384982 46.619902 
L 277.174908 46.813839 
L 277.964834 47.262425 
L 278.75476 47.956291 
L 279.93965 49.423894 
L 281.124539 51.340362 
L 282.704392 54.434019 
L 285.864097 61.434795 
L 287.838913 65.477364 
L 289.023802 67.474951 
L 290.208692 69.01229 
L 290.998618 69.734269 
L 291.788544 70.187137 
L 292.578471 70.35352 
L 293.368397 70.221515 
L 294.158323 69.785058 
L 294.948249 69.0442 
L 295.738176 68.005287 
L 296.923065 65.917618 
L 298.107955 63.258951 
L 299.687807 59.003361 
L 302.057586 51.76634 
L 304.427365 44.731907 
L 305.612254 41.775026 
L 306.797144 39.458723 
L 307.58707 38.3667 
L 308.376996 37.700465 
L 308.771959 37.543156 
L 309.166923 37.511157 
L 309.561886 37.610193 
L 309.956849 37.845672 
L 310.746775 38.745901 
L 311.536701 40.248028 
L 312.326628 42.381907 
L 313.116554 45.170521 
L 313.90648 48.629536 
L 315.09137 55.090406 
L 316.276259 63.069366 
L 317.461149 72.51932 
L 319.041001 87.251235 
L 320.620854 104.127835 
L 322.59567 127.594693 
L 326.150338 173.341049 
L 329.310043 213.184707 
L 331.284859 235.552813 
L 332.864711 251.267974 
L 334.444564 264.649349 
L 335.629453 273.002058 
L 336.814343 279.844641 
L 337.999232 285.160497 
L 338.789158 287.866259 
L 339.579085 289.919767 
L 340.369011 291.344888 
L 341.158937 292.1723 
L 341.5539 292.37318 
L 341.948864 292.438937 
L 342.343827 292.375063 
L 343.133753 291.881893 
L 343.923679 290.943312 
L 344.713606 289.612697 
L 345.898495 287.005386 
L 347.478348 282.696573 
L 353.007832 266.445964 
L 354.192721 263.831461 
L 355.377611 261.79495 
L 356.167537 260.79273 
L 356.957463 260.089705 
L 357.747389 259.691429 
L 358.537316 259.597177 
L 359.327242 259.800138 
L 360.117168 260.287702 
L 360.907095 261.041844 
L 362.091984 262.6214 
L 363.276873 264.652507 
L 364.856726 267.865803 
L 369.596284 278.066646 
L 370.781173 280.08189 
L 371.966063 281.669104 
L 372.755989 282.451478 
L 373.545915 282.993423 
L 374.335842 283.283615 
L 375.125768 283.316 
L 375.915694 283.0899 
L 376.70562 282.610035 
L 377.495547 281.886425 
L 378.680436 280.378452 
L 379.865326 278.42841 
L 381.445178 275.303363 
L 386.974662 263.587224 
L 388.159552 261.768739 
L 388.949478 260.829493 
L 389.739404 260.140027 
L 390.52933 259.722128 
L 391.319257 259.592508 
L 392.109183 259.762362 
L 392.899109 260.237 
L 393.689036 261.015592 
L 394.478962 262.090998 
L 395.663851 264.229342 
L 396.848741 266.931474 
L 398.428593 271.229566 
L 401.193335 279.711842 
L 403.168151 285.48012 
L 404.353041 288.391231 
L 405.53793 290.645257 
L 406.327856 291.686978 
L 407.117783 292.296314 
L 407.512746 292.422848 
L 407.907709 292.422613 
L 408.302672 292.289961 
L 408.697635 292.019564 
L 409.487561 291.045953 
L 410.277488 289.466354 
L 411.067414 287.251744 
L 411.85734 284.380032 
L 412.647267 280.836494 
L 413.832156 274.24831 
L 415.017045 266.144409 
L 416.201935 256.575263 
L 417.781787 241.699005 
L 419.36164 224.701217 
L 421.336456 201.124544 
L 424.891124 155.320188 
L 428.050829 115.583113 
L 430.025645 93.348915 
L 431.605498 77.770202 
L 433.18535 64.544071 
L 434.37024 56.315579 
L 435.555129 49.600149 
L 436.740018 44.411001 
L 437.529945 41.787831 
L 438.319871 39.814322 
L 439.109797 38.465726 
L 439.899724 37.710552 
L 440.294687 37.54395 
L 440.68965 37.511128 
L 441.084613 37.606516 
L 441.874539 38.158161 
L 442.664466 39.148733 
L 443.454392 40.524446 
L 444.639281 43.18585 
L 446.219134 47.540777 
L 451.353655 62.766938 
L 452.538544 65.511822 
L 453.723434 67.700338 
L 454.51336 68.812027 
L 455.303286 69.628242 
L 456.093213 70.141048 
L 456.883139 70.348832 
L 457.673065 70.256152 
L 458.462991 69.873484 
L 459.252918 69.216871 
L 460.042844 68.307495 
L 461.227733 66.527064 
L 462.412623 64.340347 
L 464.387439 60.120335 
L 467.547144 53.215254 
L 469.126996 50.331235 
L 470.311886 48.629111 
L 471.101812 47.760538 
L 471.891738 47.126827 
L 472.681665 46.741232 
L 473.471591 46.6118 
L 473.471591 46.6118 
" style="fill:none;stroke:#2ca02c;stroke-linecap:square;stroke-width:1.5;"/>
   </g>
   <g id="patch_3">
    <path d="M 59.175 315.2 
L 59.175 14.745353 
" style="fill:none;stroke:#000000;stroke-linecap:square;stroke-linejoin:miter;stroke-width:0.8;"/>
   </g>
   <g id="patch_4">
    <path d="M 493.2 315.2 
L 493.2 14.745353 
" style="fill:none;stroke:#000000;stroke-linecap:square;stroke-linejoin:miter;stroke-width:0.8;"/>
   </g>
   <g id="patch_5">
    <path d="M 59.175 315.2 
L 493.2 315.2 
" style="fill:none;stroke:#000000;stroke-linecap:square;stroke-linejoin:miter;stroke-width:0.8;"/>
   </g>
   <g id="patch_6">
    <path d="M 59.175 14.745353 
L 493.2 14.745353 
" style="fill:none;stroke:#000000;stroke-linecap:square;stroke-linejoin:miter;stroke-width:0.8;"/>
   </g>
   <g id="legend_1">
    <g id="patch_7">
     <path d="M 426.764062 310.2 
L 486.2 310.2 
Q 488.2 310.2 488.2 308.2 
L 488.2 265.165625 
Q 488.2 263.165625 486.2 263.165625 
L 426.764062 263.165625 
Q 424.764062 263.165625 424.764062 265.165625 
L 424.764062 308.2 
Q 424.764062 310.2 426.764062 310.2 
z
" style="fill:#ffffff;opacity:0.8;stroke:#cccccc;stroke-linejoin:miter;"/>
    </g>
    <g id="line2d_21">
     <path d="M 428.764062 271.264063 
L 448.764062 271.264063 
" style="fill:none;stroke:#1f77b4;stroke-linecap:square;stroke-width:1.5;"/>
    </g>
    <g id="line2d_22"/>
    <g id="text_20">
     <!-- n = 1 -->
     <defs>
      <path d="M 54.890625 33.015625 
L 54.890625 0 
L 45.90625 0 
L 45.90625 32.71875 
Q 45.90625 40.484375 42.875 44.328125 
Q 39.84375 48.1875 33.796875 48.1875 
Q 26.515625 48.1875 22.3125 43.546875 
Q 18.109375 38.921875 18.109375 30.90625 
L 18.109375 0 
L 9.078125 0 
L 9.078125 54.6875 
L 18.109375 54.6875 
L 18.109375 46.1875 
Q 21.34375 51.125 25.703125 53.5625 
Q 30.078125 56 35.796875 56 
Q 45.21875 56 50.046875 50.171875 
Q 54.890625 44.34375 54.890625 33.015625 
z
" id="DejaVuSans-110"/>
      <path d="M 10.59375 45.40625 
L 73.1875 45.40625 
L 73.1875 37.203125 
L 10.59375 37.203125 
z
M 10.59375 25.484375 
L 73.1875 25.484375 
L 73.1875 17.1875 
L 10.59375 17.1875 
z
" id="DejaVuSans-61"/>
     </defs>
     <g transform="translate(456.764062 274.764063)scale(0.1 -0.1)">
      <use xlink:href="#DejaVuSans-110"/>
      <use x="63.378906" xlink:href="#DejaVuSans-32"/>
      <use x="95.166016" xlink:href="#DejaVuSans-61"/>
      <use x="178.955078" xlink:href="#DejaVuSans-32"/>
      <use x="210.742188" xlink:href="#DejaVuSans-49"/>
     </g>
    </g>
    <g id="line2d_23">
     <path d="M 428.764062 285.942187 
L 448.764062 285.942187 
" style="fill:none;stroke:#ff7f0e;stroke-linecap:square;stroke-width:1.5;"/>
    </g>
    <g id="line2d_24"/>
    <g id="text_21">
     <!-- n = 2 -->
     <g transform="translate(456.764062 289.442187)scale(0.1 -0.1)">
      <use xlink:href="#DejaVuSans-110"/>
      <use x="63.378906" xlink:href="#DejaVuSans-32"/>
      <use x="95.166016" xlink:href="#DejaVuSans-61"/>
      <use x="178.955078" xlink:href="#DejaVuSans-32"/>
      <use x="210.742188" xlink:href="#DejaVuSans-50"/>
     </g>
    </g>
    <g id="line2d_25">
     <path d="M 428.764062 300.620313 
L 448.764062 300.620313 
" style="fill:none;stroke:#2ca02c;stroke-linecap:square;stroke-width:1.5;"/>
    </g>
    <g id="line2d_26"/>
    <g id="text_22">
     <!-- n = 3 -->
     <defs>
      <path d="M 40.578125 39.3125 
Q 47.65625 37.796875 51.625 33 
Q 55.609375 28.21875 55.609375 21.1875 
Q 55.609375 10.40625 48.1875 4.484375 
Q 40.765625 -1.421875 27.09375 -1.421875 
Q 22.515625 -1.421875 17.65625 -0.515625 
Q 12.796875 0.390625 7.625 2.203125 
L 7.625 11.71875 
Q 11.71875 9.328125 16.59375 8.109375 
Q 21.484375 6.890625 26.8125 6.890625 
Q 36.078125 6.890625 40.9375 10.546875 
Q 45.796875 14.203125 45.796875 21.1875 
Q 45.796875 27.640625 41.28125 31.265625 
Q 36.765625 34.90625 28.71875 34.90625 
L 20.21875 34.90625 
L 20.21875 43.015625 
L 29.109375 43.015625 
Q 36.375 43.015625 40.234375 45.921875 
Q 44.09375 48.828125 44.09375 54.296875 
Q 44.09375 59.90625 40.109375 62.90625 
Q 36.140625 65.921875 28.71875 65.921875 
Q 24.65625 65.921875 20.015625 65.03125 
Q 15.375 64.15625 9.8125 62.3125 
L 9.8125 71.09375 
Q 15.4375 72.65625 20.34375 73.4375 
Q 25.25 74.21875 29.59375 74.21875 
Q 40.828125 74.21875 47.359375 69.109375 
Q 53.90625 64.015625 53.90625 55.328125 
Q 53.90625 49.265625 50.4375 45.09375 
Q 46.96875 40.921875 40.578125 39.3125 
z
" id="DejaVuSans-51"/>
     </defs>
     <g transform="translate(456.764062 304.120313)scale(0.1 -0.1)">
      <use xlink:href="#DejaVuSans-110"/>
      <use x="63.378906" xlink:href="#DejaVuSans-32"/>
      <use x="95.166016" xlink:href="#DejaVuSans-61"/>
      <use x="178.955078" xlink:href="#DejaVuSans-32"/>
      <use x="210.742188" xlink:href="#DejaVuSans-51"/>
     </g>
    </g>
   </g>
  </g>
 </g>
 <defs>
  <clipPath id="pd4fa01f1cf">
   <rect height="300.454647" width="434.025" x="59.175" y="14.745353"/>
  </clipPath>
 </defs>
</svg>
