<?xml version="1.0" encoding="utf-8" standalone="no"?>
<!DOCTYPE svg PUBLIC "-//W3C//DTD SVG 1.1//EN"
  "http://www.w3.org/Graphics/SVG/1.1/DTD/svg11.dtd">
<!-- Created with matplotlib (https://matplotlib.org/) -->
<svg height="504pt" version="1.1" viewBox="0 0 720 504" width="720pt" xmlns="http://www.w3.org/2000/svg" xmlns:xlink="http://www.w3.org/1999/xlink">
 <defs>
  <style type="text/css">
*{stroke-linecap:butt;stroke-linejoin:round;}
  </style>
 </defs>
 <g id="figure_1">
  <g id="patch_1">
   <path d="M 0 504 
L 720 504 
L 720 0 
L 0 0 
z
" style="fill:none;"/>
  </g>
  <g id="axes_1">
   <g id="patch_2">
    <path d="M 67.55 457.2 
L 709.2 457.2 
L 709.2 10.8 
L 67.55 10.8 
z
" style="fill:none;"/>
   </g>
   <g id="matplotlib.axis_1">
    <g id="xtick_1">
     <g id="line2d_1">
      <defs>
       <path d="M 0 0 
L 0 3.5 
" id="m51b6c55c56" style="stroke:#000000;stroke-width:0.8;"/>
      </defs>
      <g>
       <use style="stroke:#000000;stroke-width:0.8;" x="96.715909" xlink:href="#m51b6c55c56" y="457.2"/>
      </g>
     </g>
     <g id="text_1">
      <!-- 0 -->
      <defs>
       <path d="M 31.78125 66.40625 
Q 24.171875 66.40625 20.328125 58.90625 
Q 16.5 51.421875 16.5 36.375 
Q 16.5 21.390625 20.328125 13.890625 
Q 24.171875 6.390625 31.78125 6.390625 
Q 39.453125 6.390625 43.28125 13.890625 
Q 47.125 21.390625 47.125 36.375 
Q 47.125 51.421875 43.28125 58.90625 
Q 39.453125 66.40625 31.78125 66.40625 
z
M 31.78125 74.21875 
Q 44.046875 74.21875 50.515625 64.515625 
Q 56.984375 54.828125 56.984375 36.375 
Q 56.984375 17.96875 50.515625 8.265625 
Q 44.046875 -1.421875 31.78125 -1.421875 
Q 19.53125 -1.421875 13.0625 8.265625 
Q 6.59375 17.96875 6.59375 36.375 
Q 6.59375 54.828125 13.0625 64.515625 
Q 19.53125 74.21875 31.78125 74.21875 
z
" id="DejaVuSans-48"/>
      </defs>
      <g transform="translate(93.534659 471.798437)scale(0.1 -0.1)">
       <use xlink:href="#DejaVuSans-48"/>
      </g>
     </g>
    </g>
    <g id="xtick_2">
     <g id="line2d_2">
      <g>
       <use style="stroke:#000000;stroke-width:0.8;" x="213.379545" xlink:href="#m51b6c55c56" y="457.2"/>
      </g>
     </g>
     <g id="text_2">
      <!-- 2 -->
      <defs>
       <path d="M 19.1875 8.296875 
L 53.609375 8.296875 
L 53.609375 0 
L 7.328125 0 
L 7.328125 8.296875 
Q 12.9375 14.109375 22.625 23.890625 
Q 32.328125 33.6875 34.8125 36.53125 
Q 39.546875 41.84375 41.421875 45.53125 
Q 43.3125 49.21875 43.3125 52.78125 
Q 43.3125 58.59375 39.234375 62.25 
Q 35.15625 65.921875 28.609375 65.921875 
Q 23.96875 65.921875 18.8125 64.3125 
Q 13.671875 62.703125 7.8125 59.421875 
L 7.8125 69.390625 
Q 13.765625 71.78125 18.9375 73 
Q 24.125 74.21875 28.421875 74.21875 
Q 39.75 74.21875 46.484375 68.546875 
Q 53.21875 62.890625 53.21875 53.421875 
Q 53.21875 48.921875 51.53125 44.890625 
Q 49.859375 40.875 45.40625 35.40625 
Q 44.1875 33.984375 37.640625 27.21875 
Q 31.109375 20.453125 19.1875 8.296875 
z
" id="DejaVuSans-50"/>
      </defs>
      <g transform="translate(210.198295 471.798437)scale(0.1 -0.1)">
       <use xlink:href="#DejaVuSans-50"/>
      </g>
     </g>
    </g>
    <g id="xtick_3">
     <g id="line2d_3">
      <g>
       <use style="stroke:#000000;stroke-width:0.8;" x="330.043182" xlink:href="#m51b6c55c56" y="457.2"/>
      </g>
     </g>
     <g id="text_3">
      <!-- 4 -->
      <defs>
       <path d="M 37.796875 64.3125 
L 12.890625 25.390625 
L 37.796875 25.390625 
z
M 35.203125 72.90625 
L 47.609375 72.90625 
L 47.609375 25.390625 
L 58.015625 25.390625 
L 58.015625 17.1875 
L 47.609375 17.1875 
L 47.609375 0 
L 37.796875 0 
L 37.796875 17.1875 
L 4.890625 17.1875 
L 4.890625 26.703125 
z
" id="DejaVuSans-52"/>
      </defs>
      <g transform="translate(326.861932 471.798437)scale(0.1 -0.1)">
       <use xlink:href="#DejaVuSans-52"/>
      </g>
     </g>
    </g>
    <g id="xtick_4">
     <g id="line2d_4">
      <g>
       <use style="stroke:#000000;stroke-width:0.8;" x="446.706818" xlink:href="#m51b6c55c56" y="457.2"/>
      </g>
     </g>
     <g id="text_4">
      <!-- 6 -->
      <defs>
       <path d="M 33.015625 40.375 
Q 26.375 40.375 22.484375 35.828125 
Q 18.609375 31.296875 18.609375 23.390625 
Q 18.609375 15.53125 22.484375 10.953125 
Q 26.375 6.390625 33.015625 6.390625 
Q 39.65625 6.390625 43.53125 10.953125 
Q 47.40625 15.53125 47.40625 23.390625 
Q 47.40625 31.296875 43.53125 35.828125 
Q 39.65625 40.375 33.015625 40.375 
z
M 52.59375 71.296875 
L 52.59375 62.3125 
Q 48.875 64.0625 45.09375 64.984375 
Q 41.3125 65.921875 37.59375 65.921875 
Q 27.828125 65.921875 22.671875 59.328125 
Q 17.53125 52.734375 16.796875 39.40625 
Q 19.671875 43.65625 24.015625 45.921875 
Q 28.375 48.1875 33.59375 48.1875 
Q 44.578125 48.1875 50.953125 41.515625 
Q 57.328125 34.859375 57.328125 23.390625 
Q 57.328125 12.15625 50.6875 5.359375 
Q 44.046875 -1.421875 33.015625 -1.421875 
Q 20.359375 -1.421875 13.671875 8.265625 
Q 6.984375 17.96875 6.984375 36.375 
Q 6.984375 53.65625 15.1875 63.9375 
Q 23.390625 74.21875 37.203125 74.21875 
Q 40.921875 74.21875 44.703125 73.484375 
Q 48.484375 72.75 52.59375 71.296875 
z
" id="DejaVuSans-54"/>
      </defs>
      <g transform="translate(443.525568 471.798437)scale(0.1 -0.1)">
       <use xlink:href="#DejaVuSans-54"/>
      </g>
     </g>
    </g>
    <g id="xtick_5">
     <g id="line2d_5">
      <g>
       <use style="stroke:#000000;stroke-width:0.8;" x="563.370455" xlink:href="#m51b6c55c56" y="457.2"/>
      </g>
     </g>
     <g id="text_5">
      <!-- 8 -->
      <defs>
       <path d="M 31.78125 34.625 
Q 24.75 34.625 20.71875 30.859375 
Q 16.703125 27.09375 16.703125 20.515625 
Q 16.703125 13.921875 20.71875 10.15625 
Q 24.75 6.390625 31.78125 6.390625 
Q 38.8125 6.390625 42.859375 10.171875 
Q 46.921875 13.96875 46.921875 20.515625 
Q 46.921875 27.09375 42.890625 30.859375 
Q 38.875 34.625 31.78125 34.625 
z
M 21.921875 38.8125 
Q 15.578125 40.375 12.03125 44.71875 
Q 8.5 49.078125 8.5 55.328125 
Q 8.5 64.0625 14.71875 69.140625 
Q 20.953125 74.21875 31.78125 74.21875 
Q 42.671875 74.21875 48.875 69.140625 
Q 55.078125 64.0625 55.078125 55.328125 
Q 55.078125 49.078125 51.53125 44.71875 
Q 48 40.375 41.703125 38.8125 
Q 48.828125 37.15625 52.796875 32.3125 
Q 56.78125 27.484375 56.78125 20.515625 
Q 56.78125 9.90625 50.3125 4.234375 
Q 43.84375 -1.421875 31.78125 -1.421875 
Q 19.734375 -1.421875 13.25 4.234375 
Q 6.78125 9.90625 6.78125 20.515625 
Q 6.78125 27.484375 10.78125 32.3125 
Q 14.796875 37.15625 21.921875 38.8125 
z
M 18.3125 54.390625 
Q 18.3125 48.734375 21.84375 45.5625 
Q 25.390625 42.390625 31.78125 42.390625 
Q 38.140625 42.390625 41.71875 45.5625 
Q 45.3125 48.734375 45.3125 54.390625 
Q 45.3125 60.0625 41.71875 63.234375 
Q 38.140625 66.40625 31.78125 66.40625 
Q 25.390625 66.40625 21.84375 63.234375 
Q 18.3125 60.0625 18.3125 54.390625 
z
" id="DejaVuSans-56"/>
      </defs>
      <g transform="translate(560.189205 471.798437)scale(0.1 -0.1)">
       <use xlink:href="#DejaVuSans-56"/>
      </g>
     </g>
    </g>
    <g id="xtick_6">
     <g id="line2d_6">
      <g>
       <use style="stroke:#000000;stroke-width:0.8;" x="680.034091" xlink:href="#m51b6c55c56" y="457.2"/>
      </g>
     </g>
     <g id="text_6">
      <!-- 10 -->
      <defs>
       <path d="M 12.40625 8.296875 
L 28.515625 8.296875 
L 28.515625 63.921875 
L 10.984375 60.40625 
L 10.984375 69.390625 
L 28.421875 72.90625 
L 38.28125 72.90625 
L 38.28125 8.296875 
L 54.390625 8.296875 
L 54.390625 0 
L 12.40625 0 
z
" id="DejaVuSans-49"/>
      </defs>
      <g transform="translate(673.671591 471.798437)scale(0.1 -0.1)">
       <use xlink:href="#DejaVuSans-49"/>
       <use x="63.623047" xlink:href="#DejaVuSans-48"/>
      </g>
     </g>
    </g>
    <g id="text_7">
     <!-- Time /s  -->
     <defs>
      <path d="M -0.296875 72.90625 
L 61.375 72.90625 
L 61.375 64.59375 
L 35.5 64.59375 
L 35.5 0 
L 25.59375 0 
L 25.59375 64.59375 
L -0.296875 64.59375 
z
" id="DejaVuSans-84"/>
      <path d="M 9.421875 54.6875 
L 18.40625 54.6875 
L 18.40625 0 
L 9.421875 0 
z
M 9.421875 75.984375 
L 18.40625 75.984375 
L 18.40625 64.59375 
L 9.421875 64.59375 
z
" id="DejaVuSans-105"/>
      <path d="M 52 44.1875 
Q 55.375 50.25 60.0625 53.125 
Q 64.75 56 71.09375 56 
Q 79.640625 56 84.28125 50.015625 
Q 88.921875 44.046875 88.921875 33.015625 
L 88.921875 0 
L 79.890625 0 
L 79.890625 32.71875 
Q 79.890625 40.578125 77.09375 44.375 
Q 74.3125 48.1875 68.609375 48.1875 
Q 61.625 48.1875 57.5625 43.546875 
Q 53.515625 38.921875 53.515625 30.90625 
L 53.515625 0 
L 44.484375 0 
L 44.484375 32.71875 
Q 44.484375 40.625 41.703125 44.40625 
Q 38.921875 48.1875 33.109375 48.1875 
Q 26.21875 48.1875 22.15625 43.53125 
Q 18.109375 38.875 18.109375 30.90625 
L 18.109375 0 
L 9.078125 0 
L 9.078125 54.6875 
L 18.109375 54.6875 
L 18.109375 46.1875 
Q 21.1875 51.21875 25.484375 53.609375 
Q 29.78125 56 35.6875 56 
Q 41.65625 56 45.828125 52.96875 
Q 50 49.953125 52 44.1875 
z
" id="DejaVuSans-109"/>
      <path d="M 56.203125 29.59375 
L 56.203125 25.203125 
L 14.890625 25.203125 
Q 15.484375 15.921875 20.484375 11.0625 
Q 25.484375 6.203125 34.421875 6.203125 
Q 39.59375 6.203125 44.453125 7.46875 
Q 49.3125 8.734375 54.109375 11.28125 
L 54.109375 2.78125 
Q 49.265625 0.734375 44.1875 -0.34375 
Q 39.109375 -1.421875 33.890625 -1.421875 
Q 20.796875 -1.421875 13.15625 6.1875 
Q 5.515625 13.8125 5.515625 26.8125 
Q 5.515625 40.234375 12.765625 48.109375 
Q 20.015625 56 32.328125 56 
Q 43.359375 56 49.78125 48.890625 
Q 56.203125 41.796875 56.203125 29.59375 
z
M 47.21875 32.234375 
Q 47.125 39.59375 43.09375 43.984375 
Q 39.0625 48.390625 32.421875 48.390625 
Q 24.90625 48.390625 20.390625 44.140625 
Q 15.875 39.890625 15.1875 32.171875 
z
" id="DejaVuSans-101"/>
      <path id="DejaVuSans-32"/>
      <path d="M 25.390625 72.90625 
L 33.6875 72.90625 
L 8.296875 -9.28125 
L 0 -9.28125 
z
" id="DejaVuSans-47"/>
      <path d="M 44.28125 53.078125 
L 44.28125 44.578125 
Q 40.484375 46.53125 36.375 47.5 
Q 32.28125 48.484375 27.875 48.484375 
Q 21.1875 48.484375 17.84375 46.4375 
Q 14.5 44.390625 14.5 40.28125 
Q 14.5 37.15625 16.890625 35.375 
Q 19.28125 33.59375 26.515625 31.984375 
L 29.59375 31.296875 
Q 39.15625 29.25 43.1875 25.515625 
Q 47.21875 21.78125 47.21875 15.09375 
Q 47.21875 7.46875 41.1875 3.015625 
Q 35.15625 -1.421875 24.609375 -1.421875 
Q 20.21875 -1.421875 15.453125 -0.5625 
Q 10.6875 0.296875 5.421875 2 
L 5.421875 11.28125 
Q 10.40625 8.6875 15.234375 7.390625 
Q 20.0625 6.109375 24.8125 6.109375 
Q 31.15625 6.109375 34.5625 8.28125 
Q 37.984375 10.453125 37.984375 14.40625 
Q 37.984375 18.0625 35.515625 20.015625 
Q 33.0625 21.96875 24.703125 23.78125 
L 21.578125 24.515625 
Q 13.234375 26.265625 9.515625 29.90625 
Q 5.8125 33.546875 5.8125 39.890625 
Q 5.8125 47.609375 11.28125 51.796875 
Q 16.75 56 26.8125 56 
Q 31.78125 56 36.171875 55.265625 
Q 40.578125 54.546875 44.28125 53.078125 
z
" id="DejaVuSans-115"/>
     </defs>
     <g transform="translate(358.823828 489.275781)scale(0.15 -0.15)">
      <use xlink:href="#DejaVuSans-84"/>
      <use x="57.958984" xlink:href="#DejaVuSans-105"/>
      <use x="85.742188" xlink:href="#DejaVuSans-109"/>
      <use x="183.154297" xlink:href="#DejaVuSans-101"/>
      <use x="244.677734" xlink:href="#DejaVuSans-32"/>
      <use x="276.464844" xlink:href="#DejaVuSans-47"/>
      <use x="310.15625" xlink:href="#DejaVuSans-115"/>
      <use x="362.255859" xlink:href="#DejaVuSans-32"/>
     </g>
    </g>
   </g>
   <g id="matplotlib.axis_2">
    <g id="ytick_1">
     <g id="line2d_7">
      <defs>
       <path d="M 0 0 
L -3.5 0 
" id="m7a639f6d0d" style="stroke:#000000;stroke-width:0.8;"/>
      </defs>
      <g>
       <use style="stroke:#000000;stroke-width:0.8;" x="67.55" xlink:href="#m7a639f6d0d" y="436.910094"/>
      </g>
     </g>
     <g id="text_8">
      <!-- −1.00 -->
      <defs>
       <path d="M 10.59375 35.5 
L 73.1875 35.5 
L 73.1875 27.203125 
L 10.59375 27.203125 
z
" id="DejaVuSans-8722"/>
       <path d="M 10.6875 12.40625 
L 21 12.40625 
L 21 0 
L 10.6875 0 
z
" id="DejaVuSans-46"/>
      </defs>
      <g transform="translate(29.904687 440.709313)scale(0.1 -0.1)">
       <use xlink:href="#DejaVuSans-8722"/>
       <use x="83.789062" xlink:href="#DejaVuSans-49"/>
       <use x="147.412109" xlink:href="#DejaVuSans-46"/>
       <use x="179.199219" xlink:href="#DejaVuSans-48"/>
       <use x="242.822266" xlink:href="#DejaVuSans-48"/>
      </g>
     </g>
    </g>
    <g id="ytick_2">
     <g id="line2d_8">
      <g>
       <use style="stroke:#000000;stroke-width:0.8;" x="67.55" xlink:href="#m7a639f6d0d" y="386.182696"/>
      </g>
     </g>
     <g id="text_9">
      <!-- −0.75 -->
      <defs>
       <path d="M 8.203125 72.90625 
L 55.078125 72.90625 
L 55.078125 68.703125 
L 28.609375 0 
L 18.3125 0 
L 43.21875 64.59375 
L 8.203125 64.59375 
z
" id="DejaVuSans-55"/>
       <path d="M 10.796875 72.90625 
L 49.515625 72.90625 
L 49.515625 64.59375 
L 19.828125 64.59375 
L 19.828125 46.734375 
Q 21.96875 47.46875 24.109375 47.828125 
Q 26.265625 48.1875 28.421875 48.1875 
Q 40.625 48.1875 47.75 41.5 
Q 54.890625 34.8125 54.890625 23.390625 
Q 54.890625 11.625 47.5625 5.09375 
Q 40.234375 -1.421875 26.90625 -1.421875 
Q 22.3125 -1.421875 17.546875 -0.640625 
Q 12.796875 0.140625 7.71875 1.703125 
L 7.71875 11.625 
Q 12.109375 9.234375 16.796875 8.0625 
Q 21.484375 6.890625 26.703125 6.890625 
Q 35.15625 6.890625 40.078125 11.328125 
Q 45.015625 15.765625 45.015625 23.390625 
Q 45.015625 31 40.078125 35.4375 
Q 35.15625 39.890625 26.703125 39.890625 
Q 22.75 39.890625 18.8125 39.015625 
Q 14.890625 38.140625 10.796875 36.28125 
z
" id="DejaVuSans-53"/>
      </defs>
      <g transform="translate(29.904687 389.981915)scale(0.1 -0.1)">
       <use xlink:href="#DejaVuSans-8722"/>
       <use x="83.789062" xlink:href="#DejaVuSans-48"/>
       <use x="147.412109" xlink:href="#DejaVuSans-46"/>
       <use x="179.199219" xlink:href="#DejaVuSans-55"/>
       <use x="242.822266" xlink:href="#DejaVuSans-53"/>
      </g>
     </g>
    </g>
    <g id="ytick_3">
     <g id="line2d_9">
      <g>
       <use style="stroke:#000000;stroke-width:0.8;" x="67.55" xlink:href="#m7a639f6d0d" y="335.455298"/>
      </g>
     </g>
     <g id="text_10">
      <!-- −0.50 -->
      <g transform="translate(29.904687 339.254517)scale(0.1 -0.1)">
       <use xlink:href="#DejaVuSans-8722"/>
       <use x="83.789062" xlink:href="#DejaVuSans-48"/>
       <use x="147.412109" xlink:href="#DejaVuSans-46"/>
       <use x="179.199219" xlink:href="#DejaVuSans-53"/>
       <use x="242.822266" xlink:href="#DejaVuSans-48"/>
      </g>
     </g>
    </g>
    <g id="ytick_4">
     <g id="line2d_10">
      <g>
       <use style="stroke:#000000;stroke-width:0.8;" x="67.55" xlink:href="#m7a639f6d0d" y="284.7279"/>
      </g>
     </g>
     <g id="text_11">
      <!-- −0.25 -->
      <g transform="translate(29.904687 288.527119)scale(0.1 -0.1)">
       <use xlink:href="#DejaVuSans-8722"/>
       <use x="83.789062" xlink:href="#DejaVuSans-48"/>
       <use x="147.412109" xlink:href="#DejaVuSans-46"/>
       <use x="179.199219" xlink:href="#DejaVuSans-50"/>
       <use x="242.822266" xlink:href="#DejaVuSans-53"/>
      </g>
     </g>
    </g>
    <g id="ytick_5">
     <g id="line2d_11">
      <g>
       <use style="stroke:#000000;stroke-width:0.8;" x="67.55" xlink:href="#m7a639f6d0d" y="234.000502"/>
      </g>
     </g>
     <g id="text_12">
      <!-- 0.00 -->
      <g transform="translate(38.284375 237.79972)scale(0.1 -0.1)">
       <use xlink:href="#DejaVuSans-48"/>
       <use x="63.623047" xlink:href="#DejaVuSans-46"/>
       <use x="95.410156" xlink:href="#DejaVuSans-48"/>
       <use x="159.033203" xlink:href="#DejaVuSans-48"/>
      </g>
     </g>
    </g>
    <g id="ytick_6">
     <g id="line2d_12">
      <g>
       <use style="stroke:#000000;stroke-width:0.8;" x="67.55" xlink:href="#m7a639f6d0d" y="183.273104"/>
      </g>
     </g>
     <g id="text_13">
      <!-- 0.25 -->
      <g transform="translate(38.284375 187.072322)scale(0.1 -0.1)">
       <use xlink:href="#DejaVuSans-48"/>
       <use x="63.623047" xlink:href="#DejaVuSans-46"/>
       <use x="95.410156" xlink:href="#DejaVuSans-50"/>
       <use x="159.033203" xlink:href="#DejaVuSans-53"/>
      </g>
     </g>
    </g>
    <g id="ytick_7">
     <g id="line2d_13">
      <g>
       <use style="stroke:#000000;stroke-width:0.8;" x="67.55" xlink:href="#m7a639f6d0d" y="132.545705"/>
      </g>
     </g>
     <g id="text_14">
      <!-- 0.50 -->
      <g transform="translate(38.284375 136.344924)scale(0.1 -0.1)">
       <use xlink:href="#DejaVuSans-48"/>
       <use x="63.623047" xlink:href="#DejaVuSans-46"/>
       <use x="95.410156" xlink:href="#DejaVuSans-53"/>
       <use x="159.033203" xlink:href="#DejaVuSans-48"/>
      </g>
     </g>
    </g>
    <g id="ytick_8">
     <g id="line2d_14">
      <g>
       <use style="stroke:#000000;stroke-width:0.8;" x="67.55" xlink:href="#m7a639f6d0d" y="81.818307"/>
      </g>
     </g>
     <g id="text_15">
      <!-- 0.75 -->
      <g transform="translate(38.284375 85.617526)scale(0.1 -0.1)">
       <use xlink:href="#DejaVuSans-48"/>
       <use x="63.623047" xlink:href="#DejaVuSans-46"/>
       <use x="95.410156" xlink:href="#DejaVuSans-55"/>
       <use x="159.033203" xlink:href="#DejaVuSans-53"/>
      </g>
     </g>
    </g>
    <g id="ytick_9">
     <g id="line2d_15">
      <g>
       <use style="stroke:#000000;stroke-width:0.8;" x="67.55" xlink:href="#m7a639f6d0d" y="31.090909"/>
      </g>
     </g>
     <g id="text_16">
      <!-- 1.00 -->
      <g transform="translate(38.284375 34.890128)scale(0.1 -0.1)">
       <use xlink:href="#DejaVuSans-49"/>
       <use x="63.623047" xlink:href="#DejaVuSans-46"/>
       <use x="95.410156" xlink:href="#DejaVuSans-48"/>
       <use x="159.033203" xlink:href="#DejaVuSans-48"/>
      </g>
     </g>
    </g>
    <g id="text_17">
     <!-- Displacement -->
     <defs>
      <path d="M 19.671875 64.796875 
L 19.671875 8.109375 
L 31.59375 8.109375 
Q 46.6875 8.109375 53.6875 14.9375 
Q 60.6875 21.78125 60.6875 36.53125 
Q 60.6875 51.171875 53.6875 57.984375 
Q 46.6875 64.796875 31.59375 64.796875 
z
M 9.8125 72.90625 
L 30.078125 72.90625 
Q 51.265625 72.90625 61.171875 64.09375 
Q 71.09375 55.28125 71.09375 36.53125 
Q 71.09375 17.671875 61.125 8.828125 
Q 51.171875 0 30.078125 0 
L 9.8125 0 
z
" id="DejaVuSans-68"/>
      <path d="M 18.109375 8.203125 
L 18.109375 -20.796875 
L 9.078125 -20.796875 
L 9.078125 54.6875 
L 18.109375 54.6875 
L 18.109375 46.390625 
Q 20.953125 51.265625 25.265625 53.625 
Q 29.59375 56 35.59375 56 
Q 45.5625 56 51.78125 48.09375 
Q 58.015625 40.1875 58.015625 27.296875 
Q 58.015625 14.40625 51.78125 6.484375 
Q 45.5625 -1.421875 35.59375 -1.421875 
Q 29.59375 -1.421875 25.265625 0.953125 
Q 20.953125 3.328125 18.109375 8.203125 
z
M 48.6875 27.296875 
Q 48.6875 37.203125 44.609375 42.84375 
Q 40.53125 48.484375 33.40625 48.484375 
Q 26.265625 48.484375 22.1875 42.84375 
Q 18.109375 37.203125 18.109375 27.296875 
Q 18.109375 17.390625 22.1875 11.75 
Q 26.265625 6.109375 33.40625 6.109375 
Q 40.53125 6.109375 44.609375 11.75 
Q 48.6875 17.390625 48.6875 27.296875 
z
" id="DejaVuSans-112"/>
      <path d="M 9.421875 75.984375 
L 18.40625 75.984375 
L 18.40625 0 
L 9.421875 0 
z
" id="DejaVuSans-108"/>
      <path d="M 34.28125 27.484375 
Q 23.390625 27.484375 19.1875 25 
Q 14.984375 22.515625 14.984375 16.5 
Q 14.984375 11.71875 18.140625 8.90625 
Q 21.296875 6.109375 26.703125 6.109375 
Q 34.1875 6.109375 38.703125 11.40625 
Q 43.21875 16.703125 43.21875 25.484375 
L 43.21875 27.484375 
z
M 52.203125 31.203125 
L 52.203125 0 
L 43.21875 0 
L 43.21875 8.296875 
Q 40.140625 3.328125 35.546875 0.953125 
Q 30.953125 -1.421875 24.3125 -1.421875 
Q 15.921875 -1.421875 10.953125 3.296875 
Q 6 8.015625 6 15.921875 
Q 6 25.140625 12.171875 29.828125 
Q 18.359375 34.515625 30.609375 34.515625 
L 43.21875 34.515625 
L 43.21875 35.40625 
Q 43.21875 41.609375 39.140625 45 
Q 35.0625 48.390625 27.6875 48.390625 
Q 23 48.390625 18.546875 47.265625 
Q 14.109375 46.140625 10.015625 43.890625 
L 10.015625 52.203125 
Q 14.9375 54.109375 19.578125 55.046875 
Q 24.21875 56 28.609375 56 
Q 40.484375 56 46.34375 49.84375 
Q 52.203125 43.703125 52.203125 31.203125 
z
" id="DejaVuSans-97"/>
      <path d="M 48.78125 52.59375 
L 48.78125 44.1875 
Q 44.96875 46.296875 41.140625 47.34375 
Q 37.3125 48.390625 33.40625 48.390625 
Q 24.65625 48.390625 19.8125 42.84375 
Q 14.984375 37.3125 14.984375 27.296875 
Q 14.984375 17.28125 19.8125 11.734375 
Q 24.65625 6.203125 33.40625 6.203125 
Q 37.3125 6.203125 41.140625 7.25 
Q 44.96875 8.296875 48.78125 10.40625 
L 48.78125 2.09375 
Q 45.015625 0.34375 40.984375 -0.53125 
Q 36.96875 -1.421875 32.421875 -1.421875 
Q 20.0625 -1.421875 12.78125 6.34375 
Q 5.515625 14.109375 5.515625 27.296875 
Q 5.515625 40.671875 12.859375 48.328125 
Q 20.21875 56 33.015625 56 
Q 37.15625 56 41.109375 55.140625 
Q 45.0625 54.296875 48.78125 52.59375 
z
" id="DejaVuSans-99"/>
      <path d="M 54.890625 33.015625 
L 54.890625 0 
L 45.90625 0 
L 45.90625 32.71875 
Q 45.90625 40.484375 42.875 44.328125 
Q 39.84375 48.1875 33.796875 48.1875 
Q 26.515625 48.1875 22.3125 43.546875 
Q 18.109375 38.921875 18.109375 30.90625 
L 18.109375 0 
L 9.078125 0 
L 9.078125 54.6875 
L 18.109375 54.6875 
L 18.109375 46.1875 
Q 21.34375 51.125 25.703125 53.5625 
Q 30.078125 56 35.796875 56 
Q 45.21875 56 50.046875 50.171875 
Q 54.890625 44.34375 54.890625 33.015625 
z
" id="DejaVuSans-110"/>
      <path d="M 18.3125 70.21875 
L 18.3125 54.6875 
L 36.8125 54.6875 
L 36.8125 47.703125 
L 18.3125 47.703125 
L 18.3125 18.015625 
Q 18.3125 11.328125 20.140625 9.421875 
Q 21.96875 7.515625 27.59375 7.515625 
L 36.8125 7.515625 
L 36.8125 0 
L 27.59375 0 
Q 17.1875 0 13.234375 3.875 
Q 9.28125 7.765625 9.28125 18.015625 
L 9.28125 47.703125 
L 2.6875 47.703125 
L 2.6875 54.6875 
L 9.28125 54.6875 
L 9.28125 70.21875 
z
" id="DejaVuSans-116"/>
     </defs>
     <g transform="translate(22.785156 285.558984)rotate(-90)scale(0.15 -0.15)">
      <use xlink:href="#DejaVuSans-68"/>
      <use x="77.001953" xlink:href="#DejaVuSans-105"/>
      <use x="104.785156" xlink:href="#DejaVuSans-115"/>
      <use x="156.884766" xlink:href="#DejaVuSans-112"/>
      <use x="220.361328" xlink:href="#DejaVuSans-108"/>
      <use x="248.144531" xlink:href="#DejaVuSans-97"/>
      <use x="309.423828" xlink:href="#DejaVuSans-99"/>
      <use x="364.404297" xlink:href="#DejaVuSans-101"/>
      <use x="425.927734" xlink:href="#DejaVuSans-109"/>
      <use x="523.339844" xlink:href="#DejaVuSans-101"/>
      <use x="584.863281" xlink:href="#DejaVuSans-110"/>
      <use x="648.242188" xlink:href="#DejaVuSans-116"/>
     </g>
    </g>
   </g>
   <g id="line2d_16">
    <path clip-path="url(#p152403dd0d)" d="M 96.715909 234.000502 
L 98.467615 121.987231 
L 99.63542 66.149844 
L 100.219322 47.316863 
L 100.803224 35.572687 
L 101.387126 31.359981 
L 101.971028 34.834369 
L 102.55493 45.858665 
L 103.138832 64.008301 
L 103.722734 88.58774 
L 104.890538 153.068907 
L 108.393951 372.375391 
L 108.977853 397.946188 
L 109.561755 417.260257 
L 110.145657 429.594685 
L 110.729559 434.493472 
L 111.313461 431.784447 
L 111.897363 421.585314 
L 112.481265 404.2986 
L 113.065167 380.595736 
L 114.232972 317.805571 
L 117.736384 101.277589 
L 118.320286 75.629188 
L 118.904188 56.05643 
L 119.48809 43.284064 
L 120.071992 37.775909 
L 120.655895 39.717968 
L 121.239797 49.012211 
L 121.823699 65.281231 
L 122.407601 87.883552 
L 123.575405 148.363033 
L 127.078817 359.813866 
L 127.66272 385.242246 
L 128.246622 404.834075 
L 128.830524 417.871461 
L 129.414426 423.888968 
L 129.998328 422.690253 
L 130.58223 414.354329 
L 131.166132 399.231296 
L 131.750034 377.927721 
L 132.917838 320.332724 
L 136.421251 116.212441 
L 137.005153 91.311048 
L 137.589055 71.953719 
L 138.172957 58.842355 
L 138.756859 52.437205 
L 139.340761 52.940744 
L 139.924663 60.291487 
L 140.508565 74.167933 
L 141.092467 94.002423 
L 142.260272 148.191569 
L 145.763684 342.801297 
L 146.347586 366.863548 
L 146.931488 385.722405 
L 147.51539 398.701427 
L 148.099292 405.352836 
L 148.683195 405.472895 
L 149.267097 399.10783 
L 149.850999 386.550151 
L 150.434901 368.325585 
L 151.602705 318.005512 
L 153.354411 223.547669 
L 154.522215 161.883675 
L 155.69002 112.075609 
L 156.273922 93.985789 
L 156.857824 81.357557 
L 157.441726 74.618541 
L 158.025628 73.968311 
L 158.60953 79.372894 
L 159.193432 90.568287 
L 159.777334 107.072737 
L 160.945138 153.123447 
L 162.696845 240.28572 
L 163.864649 297.524333 
L 165.032453 344.049107 
L 165.616355 361.09671 
L 166.200257 373.147007 
L 166.784159 379.800455 
L 167.368061 380.867553 
L 167.951963 376.373688 
L 168.535865 366.55568 
L 169.119767 351.850249 
L 170.287572 310.402439 
L 172.039278 231.36458 
L 173.207082 179.203369 
L 174.374886 136.584132 
L 174.958788 120.850424 
L 175.54269 109.610261 
L 176.126593 103.227035 
L 176.710495 101.87391 
L 177.294397 105.529829 
L 177.878299 113.983057 
L 178.462201 126.841997 
L 179.630005 163.422916 
L 181.381711 233.609868 
L 182.549515 280.094322 
L 183.71732 318.216686 
L 184.301222 332.3705 
L 184.885124 342.56708 
L 185.469026 348.487251 
L 186.052928 349.980701 
L 186.63683 347.0689 
L 187.220732 339.941329 
L 187.804634 328.945279 
L 188.388536 314.569716 
L 189.55634 278.211974 
L 192.475851 178.66905 
L 193.059753 163.361454 
L 193.643655 151.043676 
L 194.227557 142.121473 
L 194.811459 136.861875 
L 195.395361 135.385698 
L 195.979263 137.665928 
L 196.563165 143.531876 
L 197.147068 152.678866 
L 197.73097 164.682939 
L 198.898774 195.087956 
L 201.818284 278.145803 
L 202.402186 290.876634 
L 202.986088 301.116211 
L 203.56999 308.539845 
L 204.153893 312.940309 
L 204.737795 314.232915 
L 205.321697 312.455642 
L 205.905599 307.764393 
L 206.489501 300.423723 
L 207.073403 290.793483 
L 208.241207 266.476831 
L 210.576815 212.403395 
L 211.74462 190.884504 
L 212.328522 182.947331 
L 212.912424 177.235927 
L 213.496326 173.890488 
L 214.080228 172.953053 
L 214.66413 174.369113 
L 215.248032 177.993087 
L 215.831934 183.597338 
L 216.999738 199.500787 
L 220.503151 256.617769 
L 221.087053 263.542363 
L 221.670955 268.9747 
L 222.254857 272.774578 
L 222.838759 274.875525 
L 223.422661 275.284397 
L 224.006563 274.077851 
L 224.590465 271.395937 
L 225.174368 267.433208 
L 226.342172 256.649047 
L 229.261682 226.095081 
L 229.845584 221.426617 
L 230.429486 217.671503 
L 231.013388 214.92111 
L 231.59729 213.213989 
L 232.181193 212.536877 
L 232.765095 212.828158 
L 233.348997 213.983503 
L 233.932899 215.86337 
L 235.100703 221.116975 
L 236.852409 229.968671 
L 238.020213 234.590874 
L 238.604115 236.170468 
L 239.188018 237.189636 
L 239.77192 237.642787 
L 240.355822 237.562698 
L 240.939724 237.017385 
L 241.523626 236.105053 
L 243.859234 231.401051 
L 244.443136 230.65831 
L 245.027038 230.335082 
L 245.61094 230.515216 
L 246.194843 231.249626 
L 246.778745 232.552171 
L 247.362647 234.397546 
L 248.530451 239.422281 
L 250.866059 250.977064 
L 251.449961 253.158272 
L 252.033863 254.695186 
L 252.617765 255.433936 
L 253.201668 255.251548 
L 253.78557 254.064219 
L 254.369472 251.833935 
L 254.953374 248.573056 
L 255.537276 244.346573 
L 256.70508 233.515794 
L 259.62459 202.956419 
L 260.208493 198.44033 
L 260.792395 195.09069 
L 261.376297 193.125313 
L 261.960199 192.71275 
L 262.544101 193.962322 
L 263.128003 196.916413 
L 263.711905 201.545466 
L 264.295807 207.745993 
L 265.463611 224.088417 
L 268.967024 280.94959 
L 269.550926 287.436205 
L 270.134828 292.083461 
L 270.71873 294.627053 
L 271.302632 294.879043 
L 271.886534 292.73847 
L 272.470436 288.19865 
L 273.054338 281.35075 
L 273.638241 272.383379 
L 274.806045 249.300866 
L 277.725555 182.746789 
L 278.309457 172.131979 
L 278.893359 163.596206 
L 279.477261 157.540865 
L 280.061163 154.280058 
L 280.645066 154.02544 
L 281.228968 156.874839 
L 281.81287 162.805194 
L 282.396772 171.670221 
L 282.980674 183.203019 
L 284.148478 212.651238 
L 287.067988 296.40511 
L 287.651891 309.646575 
L 288.235793 320.281857 
L 288.819695 327.834265 
L 289.403597 331.937353 
L 289.987499 332.3519 
L 290.571401 328.97818 
L 291.155303 321.862933 
L 291.739205 311.20065 
L 292.323107 297.329021 
L 293.490911 261.95693 
L 296.410422 161.700004 
L 296.994324 145.85661 
L 297.578226 133.101606 
L 298.162128 123.987086 
L 298.74603 118.93354 
L 299.329932 118.211015 
L 299.913834 121.925868 
L 300.497736 130.013733 
L 301.081638 142.239082 
L 301.665541 158.201502 
L 302.833345 198.994816 
L 305.752855 314.860119 
L 306.336757 333.244745 
L 306.920659 348.108128 
L 307.504561 358.82379 
L 308.088463 364.916408 
L 308.672366 366.082525 
L 309.256268 362.204838 
L 309.84017 353.359426 
L 310.424072 339.81554 
L 311.007974 322.027842 
L 312.175778 276.3694 
L 315.095288 145.97867 
L 316.263093 108.221742 
L 316.846995 95.8936 
L 317.430897 88.695205 
L 318.014799 86.965256 
L 318.598701 90.835802 
L 319.182603 100.224701 
L 319.766505 114.836306 
L 320.350407 134.170443 
L 321.518211 184.09248 
L 324.437722 327.749622 
L 325.605526 369.806016 
L 326.189428 383.729056 
L 326.77333 392.076042 
L 327.357232 394.472029 
L 327.941134 390.767032 
L 328.525036 381.043975 
L 329.108938 365.617701 
L 329.692841 345.025027 
L 330.860645 291.477853 
L 334.364057 110.689946 
L 334.947959 89.896201 
L 335.531861 74.425544 
L 336.115763 64.912618 
L 336.699666 61.768746 
L 337.283568 65.16435 
L 337.86747 75.020537 
L 338.451372 91.010209 
L 339.035274 112.56876 
L 340.203078 169.074592 
L 343.706491 362.086244 
L 344.290393 384.61606 
L 344.874295 401.557069 
L 345.458197 412.226674 
L 346.042099 416.177962 
L 346.626001 413.218319 
L 347.209903 403.418378 
L 347.793805 387.110905 
L 348.377707 364.879596 
L 349.545511 306.100447 
L 353.048924 102.788899 
L 353.632826 78.696253 
L 354.216728 60.391942 
L 354.80063 48.602211 
L 355.384532 43.807848 
L 355.968434 46.224601 
L 356.552336 55.793679 
L 357.136239 72.182752 
L 357.720141 94.79745 
L 358.887945 155.154999 
L 362.391357 366.70792 
L 362.975259 392.160496 
L 363.559161 411.691976 
L 364.143064 424.537768 
L 364.726966 430.185871 
L 365.310868 428.397306 
L 365.89477 419.216158 
L 366.478672 402.968794 
L 367.062574 380.252253 
L 368.230378 319.011519 
L 371.733791 101.38565 
L 372.317693 74.803636 
L 372.901595 54.20902 
L 373.485497 40.398476 
L 374.069399 33.911635 
L 374.653301 35.009932 
L 375.237203 43.666071 
L 375.821105 59.564523 
L 376.405007 82.113054 
L 377.572811 143.550596 
L 381.076224 364.997427 
L 381.660126 392.453318 
L 382.244028 413.920802 
L 382.82793 428.578285 
L 383.411832 435.862995 
L 383.995734 435.492679 
L 384.579636 427.476579 
L 385.163539 412.115256 
L 385.747441 389.98928 
L 386.915245 329.0236 
L 388.666951 214.250898 
L 389.834755 138.977404 
L 391.002559 78.011723 
L 391.586461 55.885747 
L 392.170364 40.524424 
L 392.754266 32.508324 
L 393.338168 32.138009 
L 393.92207 39.422718 
L 394.505972 54.080201 
L 395.089874 75.547686 
L 396.257678 135.399017 
L 398.009384 249.217992 
L 399.177189 324.450407 
L 400.344993 385.887949 
L 400.928895 408.436481 
L 401.512797 424.334932 
L 402.096699 432.991072 
L 402.680601 434.089369 
L 403.264503 427.602527 
L 403.848405 413.791983 
L 404.432307 393.197368 
L 405.600111 335.06873 
L 407.351818 223.383739 
L 409.103524 116.088762 
L 409.687426 87.74875 
L 410.271328 65.03221 
L 410.85523 48.784845 
L 411.439132 39.603698 
L 412.023034 37.815133 
L 412.606936 43.463235 
L 413.190839 56.309027 
L 413.774741 75.840507 
L 414.358643 101.293084 
L 415.526447 165.828725 
L 418.445957 345.198035 
L 419.029859 373.203554 
L 419.613761 395.818251 
L 420.197664 412.207324 
L 420.781566 421.776403 
L 421.365468 424.193155 
L 421.94937 419.398792 
L 422.533272 407.609062 
L 423.117174 389.30475 
L 423.701076 365.212104 
L 424.86888 303.612741 
L 427.788391 130.462843 
L 428.956195 80.890098 
L 429.540097 64.582626 
L 430.123999 54.782685 
L 430.707901 51.823041 
L 431.291803 55.77433 
L 431.875705 66.443935 
L 432.459607 83.384943 
L 433.043509 105.914759 
L 434.211314 164.004865 
L 437.130824 329.087005 
L 438.298628 376.990795 
L 438.88253 392.980466 
L 439.466432 402.836653 
L 440.050334 406.232258 
L 440.634237 403.088385 
L 441.218139 393.57546 
L 441.802041 378.104803 
L 442.385943 357.311058 
L 443.553747 303.246273 
L 446.473257 147.994883 
L 447.641062 102.383303 
L 448.224964 86.957029 
L 448.808866 77.233971 
L 449.392768 73.528975 
L 449.97667 75.924962 
L 450.560572 84.271947 
L 451.144474 98.194987 
L 451.728376 117.11066 
L 452.89618 166.696527 
L 456.399593 333.83056 
L 456.983495 353.164697 
L 457.567397 367.776303 
L 458.151299 377.165201 
L 458.735201 381.035747 
L 459.319103 379.305799 
L 459.903005 372.107404 
L 460.486907 359.779261 
L 461.070809 342.851339 
L 462.238614 298.130923 
L 465.742026 145.973162 
L 466.325928 128.185464 
L 466.90983 114.641577 
L 467.493732 105.796166 
L 468.077634 101.918479 
L 468.661537 103.084596 
L 469.245439 109.177214 
L 469.829341 119.892875 
L 470.413243 134.756258 
L 471.581047 174.295347 
L 475.084459 309.799501 
L 475.668362 325.761921 
L 476.252264 337.98727 
L 476.836166 346.075135 
L 477.420068 349.789988 
L 478.00397 349.067463 
L 478.587872 344.013918 
L 479.171774 334.899398 
L 479.755676 322.144394 
L 480.92348 288.029304 
L 484.426893 170.671982 
L 485.010795 156.800353 
L 485.594697 146.138071 
L 486.178599 139.022823 
L 486.762501 135.649103 
L 487.346403 136.063651 
L 487.930305 140.166739 
L 488.514207 147.719146 
L 489.098109 158.354429 
L 490.265914 186.877527 
L 493.769326 284.797984 
L 494.353228 296.330782 
L 494.93713 305.19581 
L 495.521032 311.126164 
L 496.104934 313.975563 
L 496.688837 313.720946 
L 497.272739 310.460138 
L 497.856641 304.404797 
L 498.440543 295.869024 
L 499.608347 273.030835 
L 503.111759 195.617625 
L 503.695662 186.650254 
L 504.279564 179.802354 
L 504.863466 175.262533 
L 505.447368 173.12196 
L 506.03127 173.37395 
L 506.615172 175.917543 
L 507.199074 180.564799 
L 507.782976 187.051414 
L 508.95078 204.186174 
L 511.870291 252.659215 
L 513.038095 266.455537 
L 513.621997 271.08459 
L 514.205899 274.038682 
L 514.789801 275.288254 
L 515.373703 274.875691 
L 515.957605 272.910313 
L 516.541507 269.560673 
L 517.12541 265.044585 
L 518.293214 253.559105 
L 520.628822 228.729149 
L 521.796626 219.427948 
L 522.380528 216.167068 
L 522.96443 213.936784 
L 523.548332 212.749456 
L 524.132235 212.567068 
L 524.716137 213.305817 
L 525.300039 214.842732 
L 525.883941 217.02394 
L 527.051745 222.606788 
L 528.803451 231.279663 
L 529.387353 233.603458 
L 529.971255 235.448833 
L 530.555157 236.751377 
L 531.13906 237.485788 
L 531.722962 237.665922 
L 532.306864 237.342693 
L 532.890766 236.599952 
L 534.05857 234.319171 
L 535.226374 231.89595 
L 535.810276 230.983618 
L 536.394178 230.438305 
L 536.97808 230.358217 
L 537.561982 230.811367 
L 538.145885 231.830535 
L 538.729787 233.410129 
L 539.313689 235.505147 
L 540.481493 240.873482 
L 542.233199 249.699069 
L 542.817101 252.137633 
L 543.401003 254.0175 
L 543.984905 255.172845 
L 544.568807 255.464126 
L 545.15271 254.787014 
L 545.736612 253.079893 
L 546.320514 250.329501 
L 546.904416 246.574386 
L 548.07222 236.466757 
L 551.575632 200.567795 
L 552.159535 196.605067 
L 552.743437 193.923153 
L 553.327339 192.716606 
L 553.911241 193.125478 
L 554.495143 195.226425 
L 555.079045 199.026303 
L 555.662947 204.45864 
L 556.830751 219.589002 
L 558.582457 248.868513 
L 559.750262 268.500217 
L 560.918066 284.403665 
L 561.501968 290.007917 
L 562.08587 293.63189 
L 562.669772 295.04795 
L 563.253674 294.110515 
L 563.837576 290.765076 
L 564.421478 285.053673 
L 565.00538 277.116499 
L 566.173185 255.597608 
L 567.924891 215.17795 
L 569.092695 188.688961 
L 570.260499 167.57728 
L 570.844401 160.23661 
L 571.428303 155.545362 
L 572.012205 153.768088 
L 572.596107 155.060695 
L 573.18001 159.461158 
L 573.763912 166.884792 
L 574.347814 177.124369 
L 575.515618 204.645099 
L 579.01903 303.318064 
L 579.602932 315.322138 
L 580.186835 324.469127 
L 580.770737 330.335075 
L 581.354639 332.615305 
L 581.938541 331.139129 
L 582.522443 325.87953 
L 583.106345 316.957328 
L 583.690247 304.639549 
L 584.858051 271.565904 
L 588.361464 153.431287 
L 588.945366 139.055724 
L 589.529268 128.059674 
L 590.11317 120.932103 
L 590.697072 118.020302 
L 591.280974 119.513753 
L 591.864876 125.433924 
L 592.448778 135.630503 
L 593.03268 149.784317 
L 594.200485 187.906681 
L 597.703897 324.448212 
L 598.287799 341.159007 
L 598.871701 354.017947 
L 599.455603 362.471174 
L 600.039505 366.127094 
L 600.623407 364.773969 
L 601.20731 358.390743 
L 601.791212 347.15058 
L 602.375114 331.416872 
L 603.542918 288.797635 
L 607.630233 116.150754 
L 608.214135 101.445324 
L 608.798037 91.627315 
L 609.381939 87.13345 
L 609.965841 88.200549 
L 610.549743 94.853996 
L 611.133645 106.904293 
L 611.717547 123.951896 
L 612.885351 170.47667 
L 614.637058 257.731188 
L 615.804862 314.877556 
L 616.972666 360.928267 
L 617.556568 377.432716 
L 618.14047 388.628109 
L 618.724372 394.032693 
L 619.308274 393.382462 
L 619.892176 386.643446 
L 620.476078 374.015214 
L 621.05998 355.925394 
L 622.227785 306.117328 
L 623.979491 212.003025 
L 625.147295 149.995491 
L 626.315099 99.675419 
L 626.899001 81.450852 
L 627.482903 68.893174 
L 628.066805 62.528108 
L 628.650708 62.648167 
L 629.23461 69.299576 
L 629.818512 82.278598 
L 630.402414 101.137456 
L 631.570218 153.584536 
L 633.321924 253.52652 
L 634.489728 319.809434 
L 635.657533 373.99858 
L 636.241435 393.83307 
L 636.825337 407.709516 
L 637.409239 415.060259 
L 637.993141 415.563799 
L 638.577043 409.158649 
L 639.160945 396.047284 
L 639.744847 376.689956 
L 640.912651 322.261139 
L 642.664358 217.583021 
L 644.416064 116.71871 
L 644.999966 90.073283 
L 645.583868 68.769708 
L 646.16777 53.646675 
L 646.751672 45.310751 
L 647.335574 44.112035 
L 647.919476 50.129543 
L 648.503378 63.166928 
L 649.08728 82.758757 
L 649.671183 108.187137 
L 650.838987 172.5868 
L 653.758497 352.062014 
L 654.342399 380.117451 
L 654.926301 402.719773 
L 655.510203 418.988792 
L 656.094105 428.283036 
L 656.678008 430.225095 
L 657.26191 424.716939 
L 657.845812 411.944573 
L 658.429714 392.371816 
L 659.013616 366.723414 
L 660.18142 301.232656 
L 663.10093 116.610114 
L 664.268735 63.702404 
L 664.852637 46.41569 
L 665.436539 36.216556 
L 666.020441 33.507531 
L 666.604343 38.406318 
L 667.188245 50.740747 
L 667.772147 70.054815 
L 668.356049 95.625612 
L 669.523853 161.483415 
L 672.443364 349.343767 
L 673.611168 403.992702 
L 674.19507 422.142338 
L 674.778972 433.166634 
L 675.362874 436.641022 
L 675.946776 432.428316 
L 676.530678 420.68414 
L 677.11458 401.851159 
L 677.698483 376.642324 
L 678.866287 311.128411 
L 680.034091 234.000502 
L 680.034091 234.000502 
" style="fill:none;stroke:#0000ff;stroke-linecap:square;stroke-width:1.5;"/>
   </g>
   <g id="line2d_17">
    <path clip-path="url(#p152403dd0d)" d="M 96.715909 31.090909 
L 99.63542 31.191233 
L 102.55493 31.492107 
L 105.47444 31.993231 
L 108.393951 32.694112 
L 111.313461 33.594056 
L 114.232972 34.692173 
L 117.736384 36.26996 
L 121.239797 38.129295 
L 124.743209 40.267531 
L 128.246622 42.681623 
L 131.750034 45.368135 
L 135.253447 48.323241 
L 138.756859 51.542732 
L 142.844174 55.626823 
L 146.931488 60.056604 
L 151.018803 64.823488 
L 155.106117 69.918238 
L 159.777334 76.129584 
L 164.448551 82.740523 
L 169.119767 89.734324 
L 174.374886 98.037911 
L 179.630005 106.777027 
L 184.885124 115.923678 
L 190.724145 126.528919 
L 197.147068 138.683882 
L 204.153893 152.461892 
L 211.74462 167.909434 
L 220.503151 186.275507 
L 231.013388 208.860423 
L 268.967024 290.971905 
L 277.141653 307.877066 
L 284.73238 323.064898 
L 291.155303 335.455298 
L 297.578226 347.360282 
L 303.417247 357.713788 
L 308.672366 366.61479 
L 313.927484 375.090988 
L 319.182603 383.115232 
L 323.85382 389.847659 
L 328.525036 396.185615 
L 333.196253 402.113057 
L 337.283568 406.950998 
L 341.370882 411.45376 
L 345.458197 415.612617 
L 349.545511 419.419509 
L 353.048924 422.396813 
L 356.552336 425.105859 
L 360.055749 427.54279 
L 363.559161 429.704135 
L 367.062574 431.586819 
L 370.565986 433.188159 
L 374.069399 434.505875 
L 376.988909 435.38595 
L 379.90842 436.066883 
L 382.82793 436.548002 
L 385.747441 436.82883 
L 388.666951 436.909091 
L 391.586461 436.788704 
L 394.505972 436.467789 
L 397.425482 435.946663 
L 400.344993 435.225841 
L 403.264503 434.306037 
L 406.184014 433.188159 
L 409.687426 431.586819 
L 413.190839 429.704135 
L 416.694251 427.54279 
L 420.197664 425.105859 
L 423.701076 422.396813 
L 427.204489 419.419509 
L 430.707901 416.178187 
L 434.795216 412.069133 
L 438.88253 407.614981 
L 442.969845 402.824364 
L 447.057159 397.706566 
L 451.728376 391.469774 
L 456.399593 384.834405 
L 461.070809 377.817253 
L 466.325928 369.48876 
L 471.581047 360.726256 
L 477.420068 350.515301 
L 483.259089 339.843595 
L 489.682012 327.622967 
L 496.688837 313.782578 
L 504.279564 298.278754 
L 513.038095 279.862811 
L 524.132235 255.971699 
L 558.582457 181.329562 
L 567.340989 163.104455 
L 574.931716 147.813707 
L 581.938541 134.208021 
L 588.361464 122.233435 
L 594.200485 111.810033 
L 599.455603 102.840967 
L 604.710722 94.292045 
L 609.965841 86.19065 
L 614.637058 79.386127 
L 619.308274 72.972955 
L 623.979491 66.967367 
L 628.066805 62.0588 
L 632.15412 57.483457 
L 636.241435 53.250204 
L 640.328749 49.367247 
L 643.832162 46.323526 
L 647.335574 43.547039 
L 650.838987 41.041739 
L 654.342399 38.811193 
L 657.845812 36.858577 
L 661.349224 35.186672 
L 664.852637 33.797858 
L 667.772147 32.858202 
L 670.691658 32.117446 
L 673.611168 31.576324 
L 676.530678 31.235371 
L 679.450189 31.094922 
L 680.034091 31.090909 
L 680.034091 31.090909 
" style="fill:none;stroke:#ff0000;stroke-dasharray:5.55,2.4;stroke-dashoffset:0;stroke-width:1.5;"/>
   </g>
   <g id="patch_3">
    <path d="M 67.55 457.2 
L 67.55 10.8 
" style="fill:none;stroke:#000000;stroke-linecap:square;stroke-linejoin:miter;stroke-width:0.8;"/>
   </g>
   <g id="patch_4">
    <path d="M 709.2 457.2 
L 709.2 10.8 
" style="fill:none;stroke:#000000;stroke-linecap:square;stroke-linejoin:miter;stroke-width:0.8;"/>
   </g>
   <g id="patch_5">
    <path d="M 67.55 457.2 
L 709.2 457.2 
" style="fill:none;stroke:#000000;stroke-linecap:square;stroke-linejoin:miter;stroke-width:0.8;"/>
   </g>
   <g id="patch_6">
    <path d="M 67.55 10.8 
L 709.2 10.8 
" style="fill:none;stroke:#000000;stroke-linecap:square;stroke-linejoin:miter;stroke-width:0.8;"/>
   </g>
   <g id="legend_1">
    <g id="patch_7">
     <path d="M 477.359578 423.954375 
L 594.549422 423.954375 
Q 597.549422 423.954375 597.549422 420.954375 
L 597.549422 378.42 
Q 597.549422 375.42 594.549422 375.42 
L 477.359578 375.42 
Q 474.359578 375.42 474.359578 378.42 
L 474.359578 420.954375 
Q 474.359578 423.954375 477.359578 423.954375 
z
" style="fill:#ffffff;opacity:0.8;stroke:#cccccc;stroke-linejoin:miter;"/>
    </g>
    <g id="line2d_18">
     <path d="M 480.359578 387.567656 
L 510.359578 387.567656 
" style="fill:none;stroke:#0000ff;stroke-linecap:square;stroke-width:1.5;"/>
    </g>
    <g id="line2d_19"/>
    <g id="text_18">
     <!-- Wave -->
     <defs>
      <path d="M 3.328125 72.90625 
L 13.28125 72.90625 
L 28.609375 11.28125 
L 43.890625 72.90625 
L 54.984375 72.90625 
L 70.3125 11.28125 
L 85.59375 72.90625 
L 95.609375 72.90625 
L 77.296875 0 
L 64.890625 0 
L 49.515625 63.28125 
L 33.984375 0 
L 21.578125 0 
z
" id="DejaVuSans-87"/>
      <path d="M 2.984375 54.6875 
L 12.5 54.6875 
L 29.59375 8.796875 
L 46.6875 54.6875 
L 56.203125 54.6875 
L 35.6875 0 
L 23.484375 0 
z
" id="DejaVuSans-118"/>
     </defs>
     <g transform="translate(522.359578 392.817656)scale(0.15 -0.15)">
      <use xlink:href="#DejaVuSans-87"/>
      <use x="92.501953" xlink:href="#DejaVuSans-97"/>
      <use x="153.78125" xlink:href="#DejaVuSans-118"/>
      <use x="212.960938" xlink:href="#DejaVuSans-101"/>
     </g>
    </g>
    <g id="line2d_20">
     <path d="M 480.359578 409.584844 
L 510.359578 409.584844 
" style="fill:none;stroke:#ff0000;stroke-dasharray:5.55,2.4;stroke-dashoffset:0;stroke-width:1.5;"/>
    </g>
    <g id="line2d_21"/>
    <g id="text_19">
     <!-- Envelope -->
     <defs>
      <path d="M 9.8125 72.90625 
L 55.90625 72.90625 
L 55.90625 64.59375 
L 19.671875 64.59375 
L 19.671875 43.015625 
L 54.390625 43.015625 
L 54.390625 34.71875 
L 19.671875 34.71875 
L 19.671875 8.296875 
L 56.78125 8.296875 
L 56.78125 0 
L 9.8125 0 
z
" id="DejaVuSans-69"/>
      <path d="M 30.609375 48.390625 
Q 23.390625 48.390625 19.1875 42.75 
Q 14.984375 37.109375 14.984375 27.296875 
Q 14.984375 17.484375 19.15625 11.84375 
Q 23.34375 6.203125 30.609375 6.203125 
Q 37.796875 6.203125 41.984375 11.859375 
Q 46.1875 17.53125 46.1875 27.296875 
Q 46.1875 37.015625 41.984375 42.703125 
Q 37.796875 48.390625 30.609375 48.390625 
z
M 30.609375 56 
Q 42.328125 56 49.015625 48.375 
Q 55.71875 40.765625 55.71875 27.296875 
Q 55.71875 13.875 49.015625 6.21875 
Q 42.328125 -1.421875 30.609375 -1.421875 
Q 18.84375 -1.421875 12.171875 6.21875 
Q 5.515625 13.875 5.515625 27.296875 
Q 5.515625 40.765625 12.171875 48.375 
Q 18.84375 56 30.609375 56 
z
" id="DejaVuSans-111"/>
     </defs>
     <g transform="translate(522.359578 414.834844)scale(0.15 -0.15)">
      <use xlink:href="#DejaVuSans-69"/>
      <use x="63.183594" xlink:href="#DejaVuSans-110"/>
      <use x="126.5625" xlink:href="#DejaVuSans-118"/>
      <use x="185.742188" xlink:href="#DejaVuSans-101"/>
      <use x="247.265625" xlink:href="#DejaVuSans-108"/>
      <use x="275.048828" xlink:href="#DejaVuSans-111"/>
      <use x="336.230469" xlink:href="#DejaVuSans-112"/>
      <use x="399.707031" xlink:href="#DejaVuSans-101"/>
     </g>
    </g>
   </g>
  </g>
 </g>
 <defs>
  <clipPath id="p152403dd0d">
   <rect height="446.4" width="641.65" x="67.55" y="10.8"/>
  </clipPath>
 </defs>
</svg>
