<?xml version="1.0" encoding="utf-8" standalone="no"?>
<!DOCTYPE svg PUBLIC "-//W3C//DTD SVG 1.1//EN"
  "http://www.w3.org/Graphics/SVG/1.1/DTD/svg11.dtd">
<!-- Created with matplotlib (https://matplotlib.org/) -->
<svg height="360pt" version="1.1" viewBox="0 0 504 360" width="504pt" xmlns="http://www.w3.org/2000/svg" xmlns:xlink="http://www.w3.org/1999/xlink">
 <defs>
  <style type="text/css">
*{stroke-linecap:butt;stroke-linejoin:round;}
  </style>
 </defs>
 <g id="figure_1">
  <g id="patch_1">
   <path d="M 0 360 
L 504 360 
L 504 0 
L 0 0 
z
" style="fill:none;"/>
  </g>
  <g id="axes_1">
   <g id="patch_2">
    <path d="M 12.045455 342.554545 
L 493.2 342.554545 
L 493.2 10.8 
L 12.045455 10.8 
z
" style="fill:none;"/>
   </g>
   <g id="matplotlib.axis_1">
    <g id="text_1">
     <!-- k -->
     <defs>
      <path d="M 9.078125 75.984375 
L 18.109375 75.984375 
L 18.109375 31.109375 
L 44.921875 54.6875 
L 56.390625 54.6875 
L 27.390625 29.109375 
L 57.625 0 
L 45.90625 0 
L 18.109375 26.703125 
L 18.109375 0 
L 9.078125 0 
z
" id="DejaVuSans-107"/>
     </defs>
     <g transform="translate(248.279759 342.87245)scale(0.15 -0.15)">
      <use xlink:href="#DejaVuSans-107"/>
     </g>
    </g>
   </g>
   <g id="matplotlib.axis_2">
    <g id="text_2">
     <!-- $\omega$ -->
     <defs>
      <path d="M 21.390625 -1.421875 
Q 1.125 -1.421875 6.78125 27.59375 
Q 8.984375 39.0625 19.625 54.6875 
L 29.296875 54.6875 
Q 19.234375 39.0625 17 27.34375 
Q 12.796875 6.203125 23.734375 6.203125 
Q 33.84375 6.203125 38.71875 32.46875 
L 47.015625 32.46875 
Q 41.703125 6.0625 51.8125 6.203125 
Q 62.703125 6.296875 66.796875 27.34375 
Q 69.046875 39.0625 65.140625 54.6875 
L 74.8125 54.6875 
Q 79.296875 39.0625 77.09375 27.59375 
Q 71.53125 -1.46875 51.21875 -1.421875 
Q 37.9375 -1.375 39.109375 13.1875 
Q 34.28125 -1.421875 21.390625 -1.421875 
z
" id="DejaVuSans-Oblique-969"/>
     </defs>
     <g transform="translate(26.796584 182.977273)rotate(-90)scale(0.15 -0.15)">
      <use transform="translate(0 0.3125)" xlink:href="#DejaVuSans-Oblique-969"/>
     </g>
    </g>
   </g>
   <g id="line2d_1">
    <path clip-path="url(#p365a55cc64)" d="M 33.916116 327.474793 
L 38.334431 322.689697 
L 42.752746 317.905806 
L 47.171062 313.124324 
L 51.589377 308.346454 
L 56.007693 303.573399 
L 60.426008 298.806362 
L 64.844323 294.046542 
L 69.262639 289.295137 
L 73.680954 284.553344 
L 78.09927 279.822356 
L 82.517585 275.103364 
L 86.9359 270.397557 
L 91.354216 265.706118 
L 95.772531 261.030229 
L 100.190846 256.371067 
L 104.609162 251.729806 
L 109.027477 247.107613 
L 113.445793 242.505651 
L 117.864108 237.925081 
L 122.282423 233.367053 
L 126.700739 228.832717 
L 131.119054 224.323214 
L 135.53737 219.839679 
L 139.955685 215.38324 
L 144.374 210.955019 
L 148.792316 206.556132 
L 153.210631 202.187685 
L 157.628946 197.850779 
L 162.047262 193.546505 
L 166.465577 189.275947 
L 170.883893 185.040179 
L 175.302208 180.840269 
L 179.720523 176.677273 
L 184.138839 172.552239 
L 188.557154 168.466207 
L 192.97547 164.420204 
L 197.393785 160.415249 
L 201.8121 156.45235 
L 206.230416 152.532506 
L 210.648731 148.656702 
L 215.067046 144.825915 
L 219.485362 141.041108 
L 223.903677 137.303236 
L 228.321993 133.613238 
L 232.740308 129.972043 
L 237.158623 126.380569 
L 241.576939 122.839719 
L 245.995254 119.350385 
L 250.41357 115.913446 
L 254.831885 112.529765 
L 259.2502 109.200196 
L 263.668516 105.925577 
L 268.086831 102.706731 
L 272.505147 99.544469 
L 276.923462 96.439588 
L 281.341777 93.392868 
L 285.760093 90.405078 
L 290.178408 87.476968 
L 294.596723 84.609277 
L 299.015039 81.802725 
L 303.433354 79.058021 
L 307.85167 76.375854 
L 312.269985 73.756899 
L 316.6883 71.201817 
L 321.106616 68.71125 
L 325.524931 66.285826 
L 329.943247 63.926154 
L 334.361562 61.63283 
L 338.779877 59.40643 
L 343.198193 57.247514 
L 347.616508 55.156627 
L 352.034823 53.134294 
L 356.453139 51.181025 
L 360.871454 49.297312 
L 365.28977 47.483628 
L 369.708085 45.740431 
L 374.1264 44.068159 
L 378.544716 42.467232 
L 382.963031 40.938055 
L 387.381347 39.481012 
L 391.799662 38.09647 
L 396.217977 36.784778 
L 400.636293 35.546265 
L 405.054608 34.381243 
L 409.472923 33.290007 
L 413.891239 32.272829 
L 418.309554 31.329967 
L 422.72787 30.461658 
L 427.146185 29.668121 
L 431.5645 28.949555 
L 435.982816 28.306141 
L 440.401131 27.738041 
L 444.819447 27.245398 
L 449.237762 26.828336 
L 453.656077 26.48696 
L 458.074393 26.221357 
L 462.492708 26.031592 
L 466.911023 25.917715 
L 471.329339 25.879752 
" style="fill:none;stroke:#0000ff;stroke-linecap:square;stroke-width:1.5;"/>
   </g>
   <g id="line2d_2">
    <path clip-path="url(#p365a55cc64)" d="M 471.329339 325.966818 
L 471.329339 10.8 
" style="fill:none;stroke:#ff0000;stroke-dasharray:1.85,0.8;stroke-dashoffset:0;stroke-width:0.5;"/>
   </g>
   <g id="patch_3">
    <path d="M 33.916116 342.554545 
L 33.916116 10.8 
" style="fill:none;stroke:#000000;stroke-linecap:square;stroke-linejoin:miter;stroke-width:0.8;"/>
   </g>
   <g id="patch_4">
    <path d="M 493.2 342.554545 
L 493.2 10.8 
" style="fill:none;"/>
   </g>
   <g id="patch_5">
    <path d="M 12.045455 327.474793 
L 493.2 327.474793 
" style="fill:none;stroke:#000000;stroke-linecap:square;stroke-linejoin:miter;stroke-width:0.8;"/>
   </g>
   <g id="patch_6">
    <path d="M 12.045455 10.8 
L 493.2 10.8 
" style="fill:none;"/>
   </g>
   <g id="text_3">
    <!-- $\pi/a$ -->
    <defs>
     <path d="M 9.125 54.6875 
L 61.53125 54.6875 
L 59.765625 45.703125 
L 52.875 45.703125 
L 46.34375 12.109375 
Q 45.65625 8.59375 46.578125 7.03125 
Q 47.46875 5.515625 50.140625 5.515625 
Q 50.875 5.515625 51.953125 5.671875 
Q 53.078125 5.765625 53.421875 5.8125 
L 52.15625 -0.6875 
Q 50.34375 -1.3125 48.484375 -1.609375 
Q 46.578125 -1.90625 44.78125 -1.90625 
Q 38.921875 -1.90625 37.3125 1.265625 
Q 35.6875 4.5 37.359375 13.09375 
L 43.703125 45.703125 
L 23.53125 45.703125 
L 14.65625 0 
L 5.46875 0 
L 14.359375 45.703125 
L 7.375 45.703125 
z
" id="DejaVuSans-Oblique-960"/>
     <path d="M 25.390625 72.90625 
L 33.6875 72.90625 
L 8.296875 -9.28125 
L 0 -9.28125 
z
" id="DejaVuSans-47"/>
     <path d="M 53.71875 31.203125 
L 47.609375 0 
L 38.625 0 
L 40.28125 8.296875 
Q 36.328125 3.421875 31.265625 1 
Q 26.21875 -1.421875 20.015625 -1.421875 
Q 13.03125 -1.421875 8.5625 2.84375 
Q 4.109375 7.125 4.109375 13.8125 
Q 4.109375 23.390625 11.75 28.953125 
Q 19.390625 34.515625 32.8125 34.515625 
L 45.3125 34.515625 
L 45.796875 36.921875 
Q 45.90625 37.3125 45.953125 37.765625 
Q 46 38.234375 46 39.203125 
Q 46 43.5625 42.453125 45.96875 
Q 38.921875 48.390625 32.515625 48.390625 
Q 28.125 48.390625 23.5 47.265625 
Q 18.890625 46.140625 14.015625 43.890625 
L 15.578125 52.203125 
Q 20.65625 54.109375 25.515625 55.046875 
Q 30.375 56 34.90625 56 
Q 44.578125 56 49.625 51.796875 
Q 54.6875 47.609375 54.6875 39.59375 
Q 54.6875 37.984375 54.4375 35.8125 
Q 54.203125 33.640625 53.71875 31.203125 
z
M 44 27.484375 
L 35.015625 27.484375 
Q 23.96875 27.484375 18.671875 24.53125 
Q 13.375 21.578125 13.375 15.375 
Q 13.375 11.078125 16.078125 8.640625 
Q 18.796875 6.203125 23.578125 6.203125 
Q 30.90625 6.203125 36.375 11.453125 
Q 41.84375 16.703125 43.609375 25.484375 
z
" id="DejaVuSans-Oblique-97"/>
    </defs>
    <g style="fill:#ff0000;" transform="translate(459.629339 342.554545)scale(0.15 -0.15)">
     <use transform="translate(0 0.09375)" xlink:href="#DejaVuSans-Oblique-960"/>
     <use transform="translate(60.205078 0.09375)" xlink:href="#DejaVuSans-47"/>
     <use transform="translate(93.896484 0.09375)" xlink:href="#DejaVuSans-Oblique-97"/>
    </g>
   </g>
  </g>
 </g>
 <defs>
  <clipPath id="p365a55cc64">
   <rect height="331.754545" width="481.154545" x="12.045455" y="10.8"/>
  </clipPath>
 </defs>
</svg>
