<?xml version="1.0" encoding="utf-8" standalone="no"?>
<!DOCTYPE svg PUBLIC "-//W3C//DTD SVG 1.1//EN"
  "http://www.w3.org/Graphics/SVG/1.1/DTD/svg11.dtd">
<!-- Created with matplotlib (https://matplotlib.org/) -->
<svg height="216pt" version="1.1" viewBox="0 0 504 216" width="504pt" xmlns="http://www.w3.org/2000/svg" xmlns:xlink="http://www.w3.org/1999/xlink">
 <defs>
  <style type="text/css">
*{stroke-linecap:butt;stroke-linejoin:round;}
  </style>
 </defs>
 <g id="figure_1">
  <g id="patch_1">
   <path d="M 0 216 
L 504 216 
L 504 0 
L 0 0 
z
" style="fill:none;"/>
  </g>
  <g id="axes_1">
   <g id="patch_2">
    <path clip-path="url(#p9ccfc6e6f9)" d="M 101.25 175.8375 
C 101.25 175.8375 101.25 175.8375 101.25 175.8375 
C 101.25 175.8375 101.25 175.8375 101.25 175.8375 
C 101.25 175.8375 101.25 175.8375 101.25 175.8375 
C 101.25 175.8375 101.25 175.8375 101.25 175.8375 
" style="fill:none;stroke:#ff0000;stroke-linejoin:miter;"/>
   </g>
   <g id="patch_3">
    <path clip-path="url(#p9ccfc6e6f9)" d="M 131.4 175.8375 
C 131.4 167.84429 128.221323 160.170284 122.569269 154.518231 
C 116.917216 148.866177 109.24321 145.6875 101.25 145.6875 
C 93.25679 145.6875 85.582784 148.866177 79.930731 154.518231 
C 74.278677 160.170284 71.1 167.84429 71.1 175.8375 
" style="fill:none;stroke:#ffa500;stroke-linejoin:miter;"/>
   </g>
   <g id="patch_4">
    <path clip-path="url(#p9ccfc6e6f9)" d="M 161.55 175.8375 
C 161.55 159.851079 155.192645 144.503068 143.888539 133.198961 
C 132.584432 121.894855 117.236421 115.5375 101.25 115.5375 
C 85.263579 115.5375 69.915568 121.894855 58.611461 133.198961 
C 47.307355 144.503068 40.95 159.851079 40.95 175.8375 
" style="fill:none;stroke:#008000;stroke-linejoin:miter;"/>
   </g>
   <g id="patch_5">
    <path clip-path="url(#p9ccfc6e6f9)" d="M 191.7 175.8375 
C 191.7 151.857869 182.163968 128.835852 165.207808 111.879692 
C 148.251648 94.923532 125.229631 85.3875 101.25 85.3875 
C 77.270369 85.3875 54.248352 94.923532 37.292192 111.879692 
C 20.336032 128.835852 10.8 151.857869 10.8 175.8375 
" style="fill:none;stroke:#0000ff;stroke-linejoin:miter;"/>
   </g>
   <g id="patch_6">
    <path clip-path="url(#p9ccfc6e6f9)" d="M 221.85 175.8375 
C 221.85 143.864658 209.135291 113.168635 186.527078 90.560422 
C 163.918865 67.952209 133.222842 55.2375 101.25 55.2375 
C 69.277158 55.2375 38.581135 67.952209 15.972922 90.560422 
C -6.635291 113.168635 -19.35 143.864658 -19.35 175.8375 
" style="fill:none;stroke:#ffc0cb;stroke-linejoin:miter;"/>
   </g>
   <g id="patch_7">
    <path clip-path="url(#p9ccfc6e6f9)" d="M 252 175.8375 
C 252 135.871448 236.106614 97.501419 207.846347 69.241153 
C 179.586081 40.980886 141.216052 25.0875 101.25 25.0875 
C 61.283948 25.0875 22.913919 40.980886 -5.346347 69.241153 
C -33.606614 97.501419 -49.5 135.871448 -49.5 175.8375 
" style="fill:none;stroke:#800080;stroke-linejoin:miter;"/>
   </g>
   <g id="patch_8">
    <path clip-path="url(#p9ccfc6e6f9)" d="M 131.4 175.8375 
C 131.4 175.8375 131.4 175.8375 131.4 175.8375 
C 131.4 175.8375 131.4 175.8375 131.4 175.8375 
C 131.4 175.8375 131.4 175.8375 131.4 175.8375 
C 131.4 175.8375 131.4 175.8375 131.4 175.8375 
" style="fill:none;stroke:#ff0000;stroke-linejoin:miter;"/>
   </g>
   <g id="patch_9">
    <path clip-path="url(#p9ccfc6e6f9)" d="M 161.55 175.8375 
C 161.55 167.84429 158.371323 160.170284 152.719269 154.518231 
C 147.067216 148.866177 139.39321 145.6875 131.4 145.6875 
C 123.40679 145.6875 115.732784 148.866177 110.080731 154.518231 
C 104.428677 160.170284 101.25 167.84429 101.25 175.8375 
" style="fill:none;stroke:#ffa500;stroke-linejoin:miter;"/>
   </g>
   <g id="patch_10">
    <path clip-path="url(#p9ccfc6e6f9)" d="M 191.7 175.8375 
C 191.7 159.851079 185.342645 144.503068 174.038539 133.198961 
C 162.734432 121.894855 147.386421 115.5375 131.4 115.5375 
C 115.413579 115.5375 100.065568 121.894855 88.761461 133.198961 
C 77.457355 144.503068 71.1 159.851079 71.1 175.8375 
" style="fill:none;stroke:#008000;stroke-linejoin:miter;"/>
   </g>
   <g id="patch_11">
    <path clip-path="url(#p9ccfc6e6f9)" d="M 221.85 175.8375 
C 221.85 151.857869 212.313968 128.835852 195.357808 111.879692 
C 178.401648 94.923532 155.379631 85.3875 131.4 85.3875 
C 107.420369 85.3875 84.398352 94.923532 67.442192 111.879692 
C 50.486032 128.835852 40.95 151.857869 40.95 175.8375 
" style="fill:none;stroke:#0000ff;stroke-linejoin:miter;"/>
   </g>
   <g id="patch_12">
    <path clip-path="url(#p9ccfc6e6f9)" d="M 252 175.8375 
C 252 143.864658 239.285291 113.168635 216.677078 90.560422 
C 194.068865 67.952209 163.372842 55.2375 131.4 55.2375 
C 99.427158 55.2375 68.731135 67.952209 46.122922 90.560422 
C 23.514709 113.168635 10.8 143.864658 10.8 175.8375 
" style="fill:none;stroke:#ffc0cb;stroke-linejoin:miter;"/>
   </g>
   <g id="patch_13">
    <path clip-path="url(#p9ccfc6e6f9)" d="M 282.15 175.8375 
C 282.15 135.871448 266.256614 97.501419 237.996347 69.241153 
C 209.736081 40.980886 171.366052 25.0875 131.4 25.0875 
C 91.433948 25.0875 53.063919 40.980886 24.803653 69.241153 
C -3.456614 97.501419 -19.35 135.871448 -19.35 175.8375 
" style="fill:none;stroke:#800080;stroke-linejoin:miter;"/>
   </g>
   <g id="patch_14">
    <path clip-path="url(#p9ccfc6e6f9)" d="M 161.55 175.8375 
C 161.55 175.8375 161.55 175.8375 161.55 175.8375 
C 161.55 175.8375 161.55 175.8375 161.55 175.8375 
C 161.55 175.8375 161.55 175.8375 161.55 175.8375 
C 161.55 175.8375 161.55 175.8375 161.55 175.8375 
" style="fill:none;stroke:#ff0000;stroke-linejoin:miter;"/>
   </g>
   <g id="patch_15">
    <path clip-path="url(#p9ccfc6e6f9)" d="M 191.7 175.8375 
C 191.7 167.84429 188.521323 160.170284 182.869269 154.518231 
C 177.217216 148.866177 169.54321 145.6875 161.55 145.6875 
C 153.55679 145.6875 145.882784 148.866177 140.230731 154.518231 
C 134.578677 160.170284 131.4 167.84429 131.4 175.8375 
" style="fill:none;stroke:#ffa500;stroke-linejoin:miter;"/>
   </g>
   <g id="patch_16">
    <path clip-path="url(#p9ccfc6e6f9)" d="M 221.85 175.8375 
C 221.85 159.851079 215.492645 144.503068 204.188539 133.198961 
C 192.884432 121.894855 177.536421 115.5375 161.55 115.5375 
C 145.563579 115.5375 130.215568 121.894855 118.911461 133.198961 
C 107.607355 144.503068 101.25 159.851079 101.25 175.8375 
" style="fill:none;stroke:#008000;stroke-linejoin:miter;"/>
   </g>
   <g id="patch_17">
    <path clip-path="url(#p9ccfc6e6f9)" d="M 252 175.8375 
C 252 151.857869 242.463968 128.835852 225.507808 111.879692 
C 208.551648 94.923532 185.529631 85.3875 161.55 85.3875 
C 137.570369 85.3875 114.548352 94.923532 97.592192 111.879692 
C 80.636032 128.835852 71.1 151.857869 71.1 175.8375 
" style="fill:none;stroke:#0000ff;stroke-linejoin:miter;"/>
   </g>
   <g id="patch_18">
    <path clip-path="url(#p9ccfc6e6f9)" d="M 282.15 175.8375 
C 282.15 143.864658 269.435291 113.168635 246.827078 90.560422 
C 224.218865 67.952209 193.522842 55.2375 161.55 55.2375 
C 129.577158 55.2375 98.881135 67.952209 76.272922 90.560422 
C 53.664709 113.168635 40.95 143.864658 40.95 175.8375 
" style="fill:none;stroke:#ffc0cb;stroke-linejoin:miter;"/>
   </g>
   <g id="patch_19">
    <path clip-path="url(#p9ccfc6e6f9)" d="M 312.3 175.8375 
C 312.3 135.871448 296.406614 97.501419 268.146347 69.241153 
C 239.886081 40.980886 201.516052 25.0875 161.55 25.0875 
C 121.583948 25.0875 83.213919 40.980886 54.953653 69.241153 
C 26.693386 97.501419 10.8 135.871448 10.8 175.8375 
" style="fill:none;stroke:#800080;stroke-linejoin:miter;"/>
   </g>
   <g id="patch_20">
    <path clip-path="url(#p9ccfc6e6f9)" d="M 191.7 175.8375 
C 191.7 175.8375 191.7 175.8375 191.7 175.8375 
C 191.7 175.8375 191.7 175.8375 191.7 175.8375 
C 191.7 175.8375 191.7 175.8375 191.7 175.8375 
C 191.7 175.8375 191.7 175.8375 191.7 175.8375 
" style="fill:none;stroke:#ff0000;stroke-linejoin:miter;"/>
   </g>
   <g id="patch_21">
    <path clip-path="url(#p9ccfc6e6f9)" d="M 221.85 175.8375 
C 221.85 167.84429 218.671323 160.170284 213.019269 154.518231 
C 207.367216 148.866177 199.69321 145.6875 191.7 145.6875 
C 183.70679 145.6875 176.032784 148.866177 170.380731 154.518231 
C 164.728677 160.170284 161.55 167.84429 161.55 175.8375 
" style="fill:none;stroke:#ffa500;stroke-linejoin:miter;"/>
   </g>
   <g id="patch_22">
    <path clip-path="url(#p9ccfc6e6f9)" d="M 252 175.8375 
C 252 159.851079 245.642645 144.503068 234.338539 133.198961 
C 223.034432 121.894855 207.686421 115.5375 191.7 115.5375 
C 175.713579 115.5375 160.365568 121.894855 149.061461 133.198961 
C 137.757355 144.503068 131.4 159.851079 131.4 175.8375 
" style="fill:none;stroke:#008000;stroke-linejoin:miter;"/>
   </g>
   <g id="patch_23">
    <path clip-path="url(#p9ccfc6e6f9)" d="M 282.15 175.8375 
C 282.15 151.857869 272.613968 128.835852 255.657808 111.879692 
C 238.701648 94.923532 215.679631 85.3875 191.7 85.3875 
C 167.720369 85.3875 144.698352 94.923532 127.742192 111.879692 
C 110.786032 128.835852 101.25 151.857869 101.25 175.8375 
" style="fill:none;stroke:#0000ff;stroke-linejoin:miter;"/>
   </g>
   <g id="patch_24">
    <path clip-path="url(#p9ccfc6e6f9)" d="M 312.3 175.8375 
C 312.3 143.864658 299.585291 113.168635 276.977078 90.560422 
C 254.368865 67.952209 223.672842 55.2375 191.7 55.2375 
C 159.727158 55.2375 129.031135 67.952209 106.422922 90.560422 
C 83.814709 113.168635 71.1 143.864658 71.1 175.8375 
" style="fill:none;stroke:#ffc0cb;stroke-linejoin:miter;"/>
   </g>
   <g id="patch_25">
    <path clip-path="url(#p9ccfc6e6f9)" d="M 342.45 175.8375 
C 342.45 135.871448 326.556614 97.501419 298.296347 69.241153 
C 270.036081 40.980886 231.666052 25.0875 191.7 25.0875 
C 151.733948 25.0875 113.363919 40.980886 85.103653 69.241153 
C 56.843386 97.501419 40.95 135.871448 40.95 175.8375 
" style="fill:none;stroke:#800080;stroke-linejoin:miter;"/>
   </g>
   <g id="patch_26">
    <path clip-path="url(#p9ccfc6e6f9)" d="M 221.85 175.8375 
C 221.85 175.8375 221.85 175.8375 221.85 175.8375 
C 221.85 175.8375 221.85 175.8375 221.85 175.8375 
C 221.85 175.8375 221.85 175.8375 221.85 175.8375 
C 221.85 175.8375 221.85 175.8375 221.85 175.8375 
" style="fill:none;stroke:#ff0000;stroke-linejoin:miter;"/>
   </g>
   <g id="patch_27">
    <path clip-path="url(#p9ccfc6e6f9)" d="M 252 175.8375 
C 252 167.84429 248.821323 160.170284 243.169269 154.518231 
C 237.517216 148.866177 229.84321 145.6875 221.85 145.6875 
C 213.85679 145.6875 206.182784 148.866177 200.530731 154.518231 
C 194.878677 160.170284 191.7 167.84429 191.7 175.8375 
" style="fill:none;stroke:#ffa500;stroke-linejoin:miter;"/>
   </g>
   <g id="patch_28">
    <path clip-path="url(#p9ccfc6e6f9)" d="M 282.15 175.8375 
C 282.15 159.851079 275.792645 144.503068 264.488539 133.198961 
C 253.184432 121.894855 237.836421 115.5375 221.85 115.5375 
C 205.863579 115.5375 190.515568 121.894855 179.211461 133.198961 
C 167.907355 144.503068 161.55 159.851079 161.55 175.8375 
" style="fill:none;stroke:#008000;stroke-linejoin:miter;"/>
   </g>
   <g id="patch_29">
    <path clip-path="url(#p9ccfc6e6f9)" d="M 312.3 175.8375 
C 312.3 151.857869 302.763968 128.835852 285.807808 111.879692 
C 268.851648 94.923532 245.829631 85.3875 221.85 85.3875 
C 197.870369 85.3875 174.848352 94.923532 157.892192 111.879692 
C 140.936032 128.835852 131.4 151.857869 131.4 175.8375 
" style="fill:none;stroke:#0000ff;stroke-linejoin:miter;"/>
   </g>
   <g id="patch_30">
    <path clip-path="url(#p9ccfc6e6f9)" d="M 342.45 175.8375 
C 342.45 143.864658 329.735291 113.168635 307.127078 90.560422 
C 284.518865 67.952209 253.822842 55.2375 221.85 55.2375 
C 189.877158 55.2375 159.181135 67.952209 136.572922 90.560422 
C 113.964709 113.168635 101.25 143.864658 101.25 175.8375 
" style="fill:none;stroke:#ffc0cb;stroke-linejoin:miter;"/>
   </g>
   <g id="patch_31">
    <path clip-path="url(#p9ccfc6e6f9)" d="M 372.6 175.8375 
C 372.6 135.871448 356.706614 97.501419 328.446347 69.241153 
C 300.186081 40.980886 261.816052 25.0875 221.85 25.0875 
C 181.883948 25.0875 143.513919 40.980886 115.253653 69.241153 
C 86.993386 97.501419 71.1 135.871448 71.1 175.8375 
" style="fill:none;stroke:#800080;stroke-linejoin:miter;"/>
   </g>
   <g id="patch_32">
    <path clip-path="url(#p9ccfc6e6f9)" d="M 252 175.8375 
C 252 175.8375 252 175.8375 252 175.8375 
C 252 175.8375 252 175.8375 252 175.8375 
C 252 175.8375 252 175.8375 252 175.8375 
C 252 175.8375 252 175.8375 252 175.8375 
" style="fill:none;stroke:#ff0000;stroke-linejoin:miter;"/>
   </g>
   <g id="patch_33">
    <path clip-path="url(#p9ccfc6e6f9)" d="M 282.15 175.8375 
C 282.15 167.84429 278.971323 160.170284 273.319269 154.518231 
C 267.667216 148.866177 259.99321 145.6875 252 145.6875 
C 244.00679 145.6875 236.332784 148.866177 230.680731 154.518231 
C 225.028677 160.170284 221.85 167.84429 221.85 175.8375 
" style="fill:none;stroke:#ffa500;stroke-linejoin:miter;"/>
   </g>
   <g id="patch_34">
    <path clip-path="url(#p9ccfc6e6f9)" d="M 312.3 175.8375 
C 312.3 159.851079 305.942645 144.503068 294.638539 133.198961 
C 283.334432 121.894855 267.986421 115.5375 252 115.5375 
C 236.013579 115.5375 220.665568 121.894855 209.361461 133.198961 
C 198.057355 144.503068 191.7 159.851079 191.7 175.8375 
" style="fill:none;stroke:#008000;stroke-linejoin:miter;"/>
   </g>
   <g id="patch_35">
    <path clip-path="url(#p9ccfc6e6f9)" d="M 342.45 175.8375 
C 342.45 151.857869 332.913968 128.835852 315.957808 111.879692 
C 299.001648 94.923532 275.979631 85.3875 252 85.3875 
C 228.020369 85.3875 204.998352 94.923532 188.042192 111.879692 
C 171.086032 128.835852 161.55 151.857869 161.55 175.8375 
" style="fill:none;stroke:#0000ff;stroke-linejoin:miter;"/>
   </g>
   <g id="patch_36">
    <path clip-path="url(#p9ccfc6e6f9)" d="M 372.6 175.8375 
C 372.6 143.864658 359.885291 113.168635 337.277078 90.560422 
C 314.668865 67.952209 283.972842 55.2375 252 55.2375 
C 220.027158 55.2375 189.331135 67.952209 166.722922 90.560422 
C 144.114709 113.168635 131.4 143.864658 131.4 175.8375 
" style="fill:none;stroke:#ffc0cb;stroke-linejoin:miter;"/>
   </g>
   <g id="patch_37">
    <path clip-path="url(#p9ccfc6e6f9)" d="M 402.75 175.8375 
C 402.75 135.871448 386.856614 97.501419 358.596347 69.241153 
C 330.336081 40.980886 291.966052 25.0875 252 25.0875 
C 212.033948 25.0875 173.663919 40.980886 145.403653 69.241153 
C 117.143386 97.501419 101.25 135.871448 101.25 175.8375 
" style="fill:none;stroke:#800080;stroke-linejoin:miter;"/>
   </g>
   <g id="patch_38">
    <path clip-path="url(#p9ccfc6e6f9)" d="M 282.15 175.8375 
C 282.15 175.8375 282.15 175.8375 282.15 175.8375 
C 282.15 175.8375 282.15 175.8375 282.15 175.8375 
C 282.15 175.8375 282.15 175.8375 282.15 175.8375 
C 282.15 175.8375 282.15 175.8375 282.15 175.8375 
" style="fill:none;stroke:#ff0000;stroke-linejoin:miter;"/>
   </g>
   <g id="patch_39">
    <path clip-path="url(#p9ccfc6e6f9)" d="M 312.3 175.8375 
C 312.3 167.84429 309.121323 160.170284 303.469269 154.518231 
C 297.817216 148.866177 290.14321 145.6875 282.15 145.6875 
C 274.15679 145.6875 266.482784 148.866177 260.830731 154.518231 
C 255.178677 160.170284 252 167.84429 252 175.8375 
" style="fill:none;stroke:#ffa500;stroke-linejoin:miter;"/>
   </g>
   <g id="patch_40">
    <path clip-path="url(#p9ccfc6e6f9)" d="M 342.45 175.8375 
C 342.45 159.851079 336.092645 144.503068 324.788539 133.198961 
C 313.484432 121.894855 298.136421 115.5375 282.15 115.5375 
C 266.163579 115.5375 250.815568 121.894855 239.511461 133.198961 
C 228.207355 144.503068 221.85 159.851079 221.85 175.8375 
" style="fill:none;stroke:#008000;stroke-linejoin:miter;"/>
   </g>
   <g id="patch_41">
    <path clip-path="url(#p9ccfc6e6f9)" d="M 372.6 175.8375 
C 372.6 151.857869 363.063968 128.835852 346.107808 111.879692 
C 329.151648 94.923532 306.129631 85.3875 282.15 85.3875 
C 258.170369 85.3875 235.148352 94.923532 218.192192 111.879692 
C 201.236032 128.835852 191.7 151.857869 191.7 175.8375 
" style="fill:none;stroke:#0000ff;stroke-linejoin:miter;"/>
   </g>
   <g id="patch_42">
    <path clip-path="url(#p9ccfc6e6f9)" d="M 402.75 175.8375 
C 402.75 143.864658 390.035291 113.168635 367.427078 90.560422 
C 344.818865 67.952209 314.122842 55.2375 282.15 55.2375 
C 250.177158 55.2375 219.481135 67.952209 196.872922 90.560422 
C 174.264709 113.168635 161.55 143.864658 161.55 175.8375 
" style="fill:none;stroke:#ffc0cb;stroke-linejoin:miter;"/>
   </g>
   <g id="patch_43">
    <path clip-path="url(#p9ccfc6e6f9)" d="M 432.9 175.8375 
C 432.9 135.871448 417.006614 97.501419 388.746347 69.241153 
C 360.486081 40.980886 322.116052 25.0875 282.15 25.0875 
C 242.183948 25.0875 203.813919 40.980886 175.553653 69.241153 
C 147.293386 97.501419 131.4 135.871448 131.4 175.8375 
" style="fill:none;stroke:#800080;stroke-linejoin:miter;"/>
   </g>
   <g id="patch_44">
    <path clip-path="url(#p9ccfc6e6f9)" d="M 312.3 175.8375 
C 312.3 175.8375 312.3 175.8375 312.3 175.8375 
C 312.3 175.8375 312.3 175.8375 312.3 175.8375 
C 312.3 175.8375 312.3 175.8375 312.3 175.8375 
C 312.3 175.8375 312.3 175.8375 312.3 175.8375 
" style="fill:none;stroke:#ff0000;stroke-linejoin:miter;"/>
   </g>
   <g id="patch_45">
    <path clip-path="url(#p9ccfc6e6f9)" d="M 342.45 175.8375 
C 342.45 167.84429 339.271323 160.170284 333.619269 154.518231 
C 327.967216 148.866177 320.29321 145.6875 312.3 145.6875 
C 304.30679 145.6875 296.632784 148.866177 290.980731 154.518231 
C 285.328677 160.170284 282.15 167.84429 282.15 175.8375 
" style="fill:none;stroke:#ffa500;stroke-linejoin:miter;"/>
   </g>
   <g id="patch_46">
    <path clip-path="url(#p9ccfc6e6f9)" d="M 372.6 175.8375 
C 372.6 159.851079 366.242645 144.503068 354.938539 133.198961 
C 343.634432 121.894855 328.286421 115.5375 312.3 115.5375 
C 296.313579 115.5375 280.965568 121.894855 269.661461 133.198961 
C 258.357355 144.503068 252 159.851079 252 175.8375 
" style="fill:none;stroke:#008000;stroke-linejoin:miter;"/>
   </g>
   <g id="patch_47">
    <path clip-path="url(#p9ccfc6e6f9)" d="M 402.75 175.8375 
C 402.75 151.857869 393.213968 128.835852 376.257808 111.879692 
C 359.301648 94.923532 336.279631 85.3875 312.3 85.3875 
C 288.320369 85.3875 265.298352 94.923532 248.342192 111.879692 
C 231.386032 128.835852 221.85 151.857869 221.85 175.8375 
" style="fill:none;stroke:#0000ff;stroke-linejoin:miter;"/>
   </g>
   <g id="patch_48">
    <path clip-path="url(#p9ccfc6e6f9)" d="M 432.9 175.8375 
C 432.9 143.864658 420.185291 113.168635 397.577078 90.560422 
C 374.968865 67.952209 344.272842 55.2375 312.3 55.2375 
C 280.327158 55.2375 249.631135 67.952209 227.022922 90.560422 
C 204.414709 113.168635 191.7 143.864658 191.7 175.8375 
" style="fill:none;stroke:#ffc0cb;stroke-linejoin:miter;"/>
   </g>
   <g id="patch_49">
    <path clip-path="url(#p9ccfc6e6f9)" d="M 463.05 175.8375 
C 463.05 135.871448 447.156614 97.501419 418.896347 69.241153 
C 390.636081 40.980886 352.266052 25.0875 312.3 25.0875 
C 272.333948 25.0875 233.963919 40.980886 205.703653 69.241153 
C 177.443386 97.501419 161.55 135.871448 161.55 175.8375 
" style="fill:none;stroke:#800080;stroke-linejoin:miter;"/>
   </g>
   <g id="patch_50">
    <path clip-path="url(#p9ccfc6e6f9)" d="M 342.45 175.8375 
C 342.45 175.8375 342.45 175.8375 342.45 175.8375 
C 342.45 175.8375 342.45 175.8375 342.45 175.8375 
C 342.45 175.8375 342.45 175.8375 342.45 175.8375 
C 342.45 175.8375 342.45 175.8375 342.45 175.8375 
" style="fill:none;stroke:#ff0000;stroke-linejoin:miter;"/>
   </g>
   <g id="patch_51">
    <path clip-path="url(#p9ccfc6e6f9)" d="M 372.6 175.8375 
C 372.6 167.84429 369.421323 160.170284 363.769269 154.518231 
C 358.117216 148.866177 350.44321 145.6875 342.45 145.6875 
C 334.45679 145.6875 326.782784 148.866177 321.130731 154.518231 
C 315.478677 160.170284 312.3 167.84429 312.3 175.8375 
" style="fill:none;stroke:#ffa500;stroke-linejoin:miter;"/>
   </g>
   <g id="patch_52">
    <path clip-path="url(#p9ccfc6e6f9)" d="M 402.75 175.8375 
C 402.75 159.851079 396.392645 144.503068 385.088539 133.198961 
C 373.784432 121.894855 358.436421 115.5375 342.45 115.5375 
C 326.463579 115.5375 311.115568 121.894855 299.811461 133.198961 
C 288.507355 144.503068 282.15 159.851079 282.15 175.8375 
" style="fill:none;stroke:#008000;stroke-linejoin:miter;"/>
   </g>
   <g id="patch_53">
    <path clip-path="url(#p9ccfc6e6f9)" d="M 432.9 175.8375 
C 432.9 151.857869 423.363968 128.835852 406.407808 111.879692 
C 389.451648 94.923532 366.429631 85.3875 342.45 85.3875 
C 318.470369 85.3875 295.448352 94.923532 278.492192 111.879692 
C 261.536032 128.835852 252 151.857869 252 175.8375 
" style="fill:none;stroke:#0000ff;stroke-linejoin:miter;"/>
   </g>
   <g id="patch_54">
    <path clip-path="url(#p9ccfc6e6f9)" d="M 463.05 175.8375 
C 463.05 143.864658 450.335291 113.168635 427.727078 90.560422 
C 405.118865 67.952209 374.422842 55.2375 342.45 55.2375 
C 310.477158 55.2375 279.781135 67.952209 257.172922 90.560422 
C 234.564709 113.168635 221.85 143.864658 221.85 175.8375 
" style="fill:none;stroke:#ffc0cb;stroke-linejoin:miter;"/>
   </g>
   <g id="patch_55">
    <path clip-path="url(#p9ccfc6e6f9)" d="M 493.2 175.8375 
C 493.2 135.871448 477.306614 97.501419 449.046347 69.241153 
C 420.786081 40.980886 382.416052 25.0875 342.45 25.0875 
C 302.483948 25.0875 264.113919 40.980886 235.853653 69.241153 
C 207.593386 97.501419 191.7 135.871448 191.7 175.8375 
" style="fill:none;stroke:#800080;stroke-linejoin:miter;"/>
   </g>
   <g id="patch_56">
    <path clip-path="url(#p9ccfc6e6f9)" d="M 372.6 175.8375 
C 372.6 175.8375 372.6 175.8375 372.6 175.8375 
C 372.6 175.8375 372.6 175.8375 372.6 175.8375 
C 372.6 175.8375 372.6 175.8375 372.6 175.8375 
C 372.6 175.8375 372.6 175.8375 372.6 175.8375 
" style="fill:none;stroke:#ff0000;stroke-linejoin:miter;"/>
   </g>
   <g id="patch_57">
    <path clip-path="url(#p9ccfc6e6f9)" d="M 402.75 175.8375 
C 402.75 167.84429 399.571323 160.170284 393.919269 154.518231 
C 388.267216 148.866177 380.59321 145.6875 372.6 145.6875 
C 364.60679 145.6875 356.932784 148.866177 351.280731 154.518231 
C 345.628677 160.170284 342.45 167.84429 342.45 175.8375 
" style="fill:none;stroke:#ffa500;stroke-linejoin:miter;"/>
   </g>
   <g id="patch_58">
    <path clip-path="url(#p9ccfc6e6f9)" d="M 432.9 175.8375 
C 432.9 159.851079 426.542645 144.503068 415.238539 133.198961 
C 403.934432 121.894855 388.586421 115.5375 372.6 115.5375 
C 356.613579 115.5375 341.265568 121.894855 329.961461 133.198961 
C 318.657355 144.503068 312.3 159.851079 312.3 175.8375 
" style="fill:none;stroke:#008000;stroke-linejoin:miter;"/>
   </g>
   <g id="patch_59">
    <path clip-path="url(#p9ccfc6e6f9)" d="M 463.05 175.8375 
C 463.05 151.857869 453.513968 128.835852 436.557808 111.879692 
C 419.601648 94.923532 396.579631 85.3875 372.6 85.3875 
C 348.620369 85.3875 325.598352 94.923532 308.642192 111.879692 
C 291.686032 128.835852 282.15 151.857869 282.15 175.8375 
" style="fill:none;stroke:#0000ff;stroke-linejoin:miter;"/>
   </g>
   <g id="patch_60">
    <path clip-path="url(#p9ccfc6e6f9)" d="M 493.2 175.8375 
C 493.2 143.864658 480.485291 113.168635 457.877078 90.560422 
C 435.268865 67.952209 404.572842 55.2375 372.6 55.2375 
C 340.627158 55.2375 309.931135 67.952209 287.322922 90.560422 
C 264.714709 113.168635 252 143.864658 252 175.8375 
" style="fill:none;stroke:#ffc0cb;stroke-linejoin:miter;"/>
   </g>
   <g id="patch_61">
    <path clip-path="url(#p9ccfc6e6f9)" d="M 523.35 175.8375 
C 523.35 135.871448 507.456614 97.501419 479.196347 69.241153 
C 450.936081 40.980886 412.566052 25.0875 372.6 25.0875 
C 332.633948 25.0875 294.263919 40.980886 266.003653 69.241153 
C 237.743386 97.501419 221.85 135.871448 221.85 175.8375 
" style="fill:none;stroke:#800080;stroke-linejoin:miter;"/>
   </g>
   <g id="line2d_1">
    <defs>
     <path d="M 0 3 
C 0.795609 3 1.55874 2.683901 2.12132 2.12132 
C 2.683901 1.55874 3 0.795609 3 0 
C 3 -0.795609 2.683901 -1.55874 2.12132 -2.12132 
C 1.55874 -2.683901 0.795609 -3 0 -3 
C -0.795609 -3 -1.55874 -2.683901 -2.12132 -2.12132 
C -2.683901 -1.55874 -3 -0.795609 -3 0 
C -3 0.795609 -2.683901 1.55874 -2.12132 2.12132 
C -1.55874 2.683901 -0.795609 3 0 3 
z
" id="m9e704a16a1" style="stroke:#000000;"/>
    </defs>
    <g clip-path="url(#p9ccfc6e6f9)">
     <use style="stroke:#000000;" x="101.25" xlink:href="#m9e704a16a1" y="175.8375"/>
    </g>
   </g>
   <g id="line2d_2">
    <g clip-path="url(#p9ccfc6e6f9)">
     <use style="stroke:#000000;" x="131.4" xlink:href="#m9e704a16a1" y="175.8375"/>
    </g>
   </g>
   <g id="line2d_3">
    <g clip-path="url(#p9ccfc6e6f9)">
     <use style="stroke:#000000;" x="161.55" xlink:href="#m9e704a16a1" y="175.8375"/>
    </g>
   </g>
   <g id="line2d_4">
    <g clip-path="url(#p9ccfc6e6f9)">
     <use style="stroke:#000000;" x="191.7" xlink:href="#m9e704a16a1" y="175.8375"/>
    </g>
   </g>
   <g id="line2d_5">
    <g clip-path="url(#p9ccfc6e6f9)">
     <use style="stroke:#000000;" x="221.85" xlink:href="#m9e704a16a1" y="175.8375"/>
    </g>
   </g>
   <g id="line2d_6">
    <g clip-path="url(#p9ccfc6e6f9)">
     <use style="stroke:#000000;" x="252" xlink:href="#m9e704a16a1" y="175.8375"/>
    </g>
   </g>
   <g id="line2d_7">
    <g clip-path="url(#p9ccfc6e6f9)">
     <use style="stroke:#000000;" x="282.15" xlink:href="#m9e704a16a1" y="175.8375"/>
    </g>
   </g>
   <g id="line2d_8">
    <g clip-path="url(#p9ccfc6e6f9)">
     <use style="stroke:#000000;" x="312.3" xlink:href="#m9e704a16a1" y="175.8375"/>
    </g>
   </g>
   <g id="line2d_9">
    <g clip-path="url(#p9ccfc6e6f9)">
     <use style="stroke:#000000;" x="342.45" xlink:href="#m9e704a16a1" y="175.8375"/>
    </g>
   </g>
   <g id="line2d_10">
    <g clip-path="url(#p9ccfc6e6f9)">
     <use style="stroke:#000000;" x="372.6" xlink:href="#m9e704a16a1" y="175.8375"/>
    </g>
   </g>
  </g>
 </g>
 <defs>
  <clipPath id="p9ccfc6e6f9">
   <rect height="165.825" width="482.4" x="10.8" y="25.0875"/>
  </clipPath>
 </defs>
</svg>
