<?xml version="1.0" encoding="utf-8" standalone="no"?>
<!DOCTYPE svg PUBLIC "-//W3C//DTD SVG 1.1//EN"
  "http://www.w3.org/Graphics/SVG/1.1/DTD/svg11.dtd">
<!-- Created with matplotlib (https://matplotlib.org/) -->
<svg height="504pt" version="1.1" viewBox="0 0 504 504" width="504pt" xmlns="http://www.w3.org/2000/svg" xmlns:xlink="http://www.w3.org/1999/xlink">
 <defs>
  <style type="text/css">
*{stroke-linecap:butt;stroke-linejoin:round;}
  </style>
 </defs>
 <g id="figure_1">
  <g id="patch_1">
   <path d="M 0 504 
L 504 504 
L 504 0 
L 0 0 
z
" style="fill:none;"/>
  </g>
  <g id="axes_1">
   <g id="patch_2">
    <path clip-path="url(#p187a122a88)" d="M 217.188029 448.472695 
C 228.088971 439.325718 236.855339 427.901166 242.869268 415.004252 
C 248.883197 402.107339 252 388.048351 252 373.818182 
C 252 359.588012 248.883197 345.529025 242.869268 332.632111 
C 236.855339 319.735198 228.088971 308.310645 217.188029 299.163669 
" style="fill:none;stroke:#000000;stroke-linejoin:miter;"/>
   </g>
   <g id="patch_3">
    <path clip-path="url(#p187a122a88)" d="M 217.188029 399.745422 
C 228.088971 390.598446 236.855339 379.173893 242.869268 366.27698 
C 248.883197 353.380066 252 339.321078 252 325.090909 
C 252 310.86074 248.883197 296.801752 242.869268 283.904838 
C 236.855339 271.007925 228.088971 259.583373 217.188029 250.436396 
" style="fill:none;stroke:#000000;stroke-linejoin:miter;"/>
   </g>
   <g id="patch_4">
    <path clip-path="url(#p187a122a88)" d="M 217.188029 351.018149 
C 228.088971 341.871173 236.855339 330.44662 242.869268 317.549707 
C 248.883197 304.652794 252 290.593806 252 276.363636 
C 252 262.133467 248.883197 248.074479 242.869268 235.177566 
C 236.855339 222.280652 228.088971 210.8561 217.188029 201.709123 
" style="fill:none;stroke:#000000;stroke-linejoin:miter;"/>
   </g>
   <g id="patch_5">
    <path clip-path="url(#p187a122a88)" d="M 217.188029 302.290877 
C 228.088971 293.1439 236.855339 281.719348 242.869268 268.822434 
C 248.883197 255.925521 252 241.866533 252 227.636364 
C 252 213.406194 248.883197 199.347206 242.869268 186.450293 
C 236.855339 173.55338 228.088971 162.128827 217.188029 152.981851 
" style="fill:none;stroke:#000000;stroke-linejoin:miter;"/>
   </g>
   <g id="patch_6">
    <path clip-path="url(#p187a122a88)" d="M 217.188029 253.563604 
C 228.088971 244.416627 236.855339 232.992075 242.869268 220.095162 
C 248.883197 207.198248 252 193.13926 252 178.909091 
C 252 164.678922 248.883197 150.619934 242.869268 137.72302 
C 236.855339 124.826107 228.088971 113.401554 217.188029 104.254578 
" style="fill:none;stroke:#000000;stroke-linejoin:miter;"/>
   </g>
   <g id="patch_7">
    <path clip-path="url(#p187a122a88)" d="M 217.188029 204.836331 
C 228.088971 195.689355 236.855339 184.264802 242.869268 171.367889 
C 248.883197 158.470975 252 144.411988 252 130.181818 
C 252 115.951649 248.883197 101.892661 242.869268 88.995748 
C 236.855339 76.098834 228.088971 64.674282 217.188029 55.527305 
" style="fill:none;stroke:#000000;stroke-linejoin:miter;"/>
   </g>
   <g id="patch_8">
    <path clip-path="url(#p187a122a88)" d="M 314.642574 448.472695 
C 325.543516 439.325718 334.309884 427.901166 340.323813 415.004252 
C 346.337743 402.107339 349.454545 388.048351 349.454545 373.818182 
C 349.454545 359.588012 346.337743 345.529025 340.323813 332.632111 
C 334.309884 319.735198 325.543516 308.310645 314.642574 299.163669 
" style="fill:none;stroke:#ff0000;stroke-linejoin:miter;"/>
   </g>
   <g id="patch_9">
    <path clip-path="url(#p187a122a88)" d="M 314.642574 399.745422 
C 325.543516 390.598446 334.309884 379.173893 340.323813 366.27698 
C 346.337743 353.380066 349.454545 339.321078 349.454545 325.090909 
C 349.454545 310.86074 346.337743 296.801752 340.323813 283.904838 
C 334.309884 271.007925 325.543516 259.583373 314.642574 250.436396 
" style="fill:none;stroke:#ff0000;stroke-linejoin:miter;"/>
   </g>
   <g id="patch_10">
    <path clip-path="url(#p187a122a88)" d="M 314.642574 351.018149 
C 325.543516 341.871173 334.309884 330.44662 340.323813 317.549707 
C 346.337743 304.652794 349.454545 290.593806 349.454545 276.363636 
C 349.454545 262.133467 346.337743 248.074479 340.323813 235.177566 
C 334.309884 222.280652 325.543516 210.8561 314.642574 201.709123 
" style="fill:none;stroke:#ff0000;stroke-linejoin:miter;"/>
   </g>
   <g id="patch_11">
    <path clip-path="url(#p187a122a88)" d="M 314.642574 302.290877 
C 325.543516 293.1439 334.309884 281.719348 340.323813 268.822434 
C 346.337743 255.925521 349.454545 241.866533 349.454545 227.636364 
C 349.454545 213.406194 346.337743 199.347206 340.323813 186.450293 
C 334.309884 173.55338 325.543516 162.128827 314.642574 152.981851 
" style="fill:none;stroke:#ff0000;stroke-linejoin:miter;"/>
   </g>
   <g id="patch_12">
    <path clip-path="url(#p187a122a88)" d="M 314.642574 253.563604 
C 325.543516 244.416627 334.309884 232.992075 340.323813 220.095162 
C 346.337743 207.198248 349.454545 193.13926 349.454545 178.909091 
C 349.454545 164.678922 346.337743 150.619934 340.323813 137.72302 
C 334.309884 124.826107 325.543516 113.401554 314.642574 104.254578 
" style="fill:none;stroke:#ff0000;stroke-linejoin:miter;"/>
   </g>
   <g id="patch_13">
    <path clip-path="url(#p187a122a88)" d="M 314.642574 204.836331 
C 325.543516 195.689355 334.309884 184.264802 340.323813 171.367889 
C 346.337743 158.470975 349.454545 144.411988 349.454545 130.181818 
C 349.454545 115.951649 346.337743 101.892661 340.323813 88.995748 
C 334.309884 76.098834 325.543516 64.674282 314.642574 55.527305 
" style="fill:none;stroke:#ff0000;stroke-linejoin:miter;"/>
   </g>
   <g id="patch_14">
    <path clip-path="url(#p187a122a88)" d="M 412.09712 448.472695 
C 422.998062 439.325718 431.764429 427.901166 437.778359 415.004252 
C 443.792288 402.107339 446.909091 388.048351 446.909091 373.818182 
C 446.909091 359.588012 443.792288 345.529025 437.778359 332.632111 
C 431.764429 319.735198 422.998062 308.310645 412.09712 299.163669 
" style="fill:none;stroke:#0000ff;stroke-linejoin:miter;"/>
   </g>
   <g id="patch_15">
    <path clip-path="url(#p187a122a88)" d="M 412.09712 399.745422 
C 422.998062 390.598446 431.764429 379.173893 437.778359 366.27698 
C 443.792288 353.380066 446.909091 339.321078 446.909091 325.090909 
C 446.909091 310.86074 443.792288 296.801752 437.778359 283.904838 
C 431.764429 271.007925 422.998062 259.583373 412.09712 250.436396 
" style="fill:none;stroke:#0000ff;stroke-linejoin:miter;"/>
   </g>
   <g id="patch_16">
    <path clip-path="url(#p187a122a88)" d="M 412.09712 351.018149 
C 422.998062 341.871173 431.764429 330.44662 437.778359 317.549707 
C 443.792288 304.652794 446.909091 290.593806 446.909091 276.363636 
C 446.909091 262.133467 443.792288 248.074479 437.778359 235.177566 
C 431.764429 222.280652 422.998062 210.8561 412.09712 201.709123 
" style="fill:none;stroke:#0000ff;stroke-linejoin:miter;"/>
   </g>
   <g id="patch_17">
    <path clip-path="url(#p187a122a88)" d="M 412.09712 302.290877 
C 422.998062 293.1439 431.764429 281.719348 437.778359 268.822434 
C 443.792288 255.925521 446.909091 241.866533 446.909091 227.636364 
C 446.909091 213.406194 443.792288 199.347206 437.778359 186.450293 
C 431.764429 173.55338 422.998062 162.128827 412.09712 152.981851 
" style="fill:none;stroke:#0000ff;stroke-linejoin:miter;"/>
   </g>
   <g id="patch_18">
    <path clip-path="url(#p187a122a88)" d="M 412.09712 253.563604 
C 422.998062 244.416627 431.764429 232.992075 437.778359 220.095162 
C 443.792288 207.198248 446.909091 193.13926 446.909091 178.909091 
C 446.909091 164.678922 443.792288 150.619934 437.778359 137.72302 
C 431.764429 124.826107 422.998062 113.401554 412.09712 104.254578 
" style="fill:none;stroke:#0000ff;stroke-linejoin:miter;"/>
   </g>
   <g id="patch_19">
    <path clip-path="url(#p187a122a88)" d="M 412.09712 204.836331 
C 422.998062 195.689355 431.764429 184.264802 437.778359 171.367889 
C 443.792288 158.470975 446.909091 144.411988 446.909091 130.181818 
C 446.909091 115.951649 443.792288 101.892661 437.778359 88.995748 
C 431.764429 76.098834 422.998062 64.674282 412.09712 55.527305 
" style="fill:none;stroke:#0000ff;stroke-linejoin:miter;"/>
   </g>
   <g id="line2d_1">
    <path clip-path="url(#p187a122a88)" d="M 154.545455 422.545455 
L 154.545455 81.454545 
" style="fill:none;stroke:#000000;stroke-dasharray:5.55,2.4;stroke-dashoffset:0;stroke-width:1.5;"/>
   </g>
   <g id="line2d_2">
    <defs>
     <path d="M 0 3 
C 0.795609 3 1.55874 2.683901 2.12132 2.12132 
C 2.683901 1.55874 3 0.795609 3 0 
C 3 -0.795609 2.683901 -1.55874 2.12132 -2.12132 
C 1.55874 -2.683901 0.795609 -3 0 -3 
C -0.795609 -3 -1.55874 -2.683901 -2.12132 -2.12132 
C -2.683901 -1.55874 -3 -0.795609 -3 0 
C -3 0.795609 -2.683901 1.55874 -2.12132 2.12132 
C -1.55874 2.683901 -0.795609 3 0 3 
z
" id="mf149c8ea0b" style="stroke:#000000;"/>
    </defs>
    <g clip-path="url(#p187a122a88)">
     <use style="stroke:#000000;" x="154.545455" xlink:href="#mf149c8ea0b" y="373.818182"/>
    </g>
   </g>
   <g id="line2d_3">
    <g clip-path="url(#p187a122a88)">
     <use style="stroke:#000000;" x="154.545455" xlink:href="#mf149c8ea0b" y="325.090909"/>
    </g>
   </g>
   <g id="line2d_4">
    <g clip-path="url(#p187a122a88)">
     <use style="stroke:#000000;" x="154.545455" xlink:href="#mf149c8ea0b" y="276.363636"/>
    </g>
   </g>
   <g id="line2d_5">
    <g clip-path="url(#p187a122a88)">
     <use style="stroke:#000000;" x="154.545455" xlink:href="#mf149c8ea0b" y="227.636364"/>
    </g>
   </g>
   <g id="line2d_6">
    <g clip-path="url(#p187a122a88)">
     <use style="stroke:#000000;" x="154.545455" xlink:href="#mf149c8ea0b" y="178.909091"/>
    </g>
   </g>
   <g id="line2d_7">
    <g clip-path="url(#p187a122a88)">
     <use style="stroke:#000000;" x="154.545455" xlink:href="#mf149c8ea0b" y="130.181818"/>
    </g>
   </g>
   <g id="line2d_8">
    <path clip-path="url(#p187a122a88)" d="M 252 422.545455 
L 252 81.454545 
" style="fill:none;stroke:#ff0000;stroke-dasharray:5.55,2.4;stroke-dashoffset:0;stroke-width:1.5;"/>
   </g>
   <g id="line2d_9">
    <g clip-path="url(#p187a122a88)">
     <use style="stroke:#000000;" x="252" xlink:href="#mf149c8ea0b" y="373.818182"/>
    </g>
   </g>
   <g id="line2d_10">
    <g clip-path="url(#p187a122a88)">
     <use style="stroke:#000000;" x="252" xlink:href="#mf149c8ea0b" y="325.090909"/>
    </g>
   </g>
   <g id="line2d_11">
    <g clip-path="url(#p187a122a88)">
     <use style="stroke:#000000;" x="252" xlink:href="#mf149c8ea0b" y="276.363636"/>
    </g>
   </g>
   <g id="line2d_12">
    <g clip-path="url(#p187a122a88)">
     <use style="stroke:#000000;" x="252" xlink:href="#mf149c8ea0b" y="227.636364"/>
    </g>
   </g>
   <g id="line2d_13">
    <g clip-path="url(#p187a122a88)">
     <use style="stroke:#000000;" x="252" xlink:href="#mf149c8ea0b" y="178.909091"/>
    </g>
   </g>
   <g id="line2d_14">
    <g clip-path="url(#p187a122a88)">
     <use style="stroke:#000000;" x="252" xlink:href="#mf149c8ea0b" y="130.181818"/>
    </g>
   </g>
   <g id="line2d_15">
    <path clip-path="url(#p187a122a88)" d="M 349.454545 422.545455 
L 349.454545 81.454545 
" style="fill:none;stroke:#0000ff;stroke-dasharray:5.55,2.4;stroke-dashoffset:0;stroke-width:1.5;"/>
   </g>
   <g id="line2d_16">
    <g clip-path="url(#p187a122a88)">
     <use style="stroke:#000000;" x="349.454545" xlink:href="#mf149c8ea0b" y="373.818182"/>
    </g>
   </g>
   <g id="line2d_17">
    <g clip-path="url(#p187a122a88)">
     <use style="stroke:#000000;" x="349.454545" xlink:href="#mf149c8ea0b" y="325.090909"/>
    </g>
   </g>
   <g id="line2d_18">
    <g clip-path="url(#p187a122a88)">
     <use style="stroke:#000000;" x="349.454545" xlink:href="#mf149c8ea0b" y="276.363636"/>
    </g>
   </g>
   <g id="line2d_19">
    <g clip-path="url(#p187a122a88)">
     <use style="stroke:#000000;" x="349.454545" xlink:href="#mf149c8ea0b" y="227.636364"/>
    </g>
   </g>
   <g id="line2d_20">
    <g clip-path="url(#p187a122a88)">
     <use style="stroke:#000000;" x="349.454545" xlink:href="#mf149c8ea0b" y="178.909091"/>
    </g>
   </g>
   <g id="line2d_21">
    <g clip-path="url(#p187a122a88)">
     <use style="stroke:#000000;" x="349.454545" xlink:href="#mf149c8ea0b" y="130.181818"/>
    </g>
   </g>
  </g>
 </g>
 <defs>
  <clipPath id="p187a122a88">
   <rect height="482.4" width="428.8" x="37.6" y="10.8"/>
  </clipPath>
 </defs>
</svg>
