<?xml version="1.0" encoding="utf-8" standalone="no"?>
<!DOCTYPE svg PUBLIC "-//W3C//DTD SVG 1.1//EN"
  "http://www.w3.org/Graphics/SVG/1.1/DTD/svg11.dtd">
<!-- Created with matplotlib (https://matplotlib.org/) -->
<svg height="360pt" version="1.1" viewBox="0 0 720 360" width="720pt" xmlns="http://www.w3.org/2000/svg" xmlns:xlink="http://www.w3.org/1999/xlink">
 <defs>
  <style type="text/css">
*{stroke-linecap:butt;stroke-linejoin:round;}
  </style>
 </defs>
 <g id="figure_1">
  <g id="patch_1">
   <path d="M 0 360 
L 720 360 
L 720 0 
L 0 0 
z
" style="fill:none;"/>
  </g>
  <g id="axes_1">
   <g id="patch_2">
    <path d="M 90 315 
L 648 315 
L 648 43.2 
L 90 43.2 
z
" style="fill:none;"/>
   </g>
   <g id="matplotlib.axis_1">
    <g id="xtick_1">
     <g id="line2d_1">
      <defs>
       <path d="M 0 0 
L 0 3.5 
" id="m8b23529794" style="stroke:#000000;stroke-width:0.8;"/>
      </defs>
      <g>
       <use style="stroke:#000000;stroke-width:0.8;" x="115.363636" xlink:href="#m8b23529794" y="302.645455"/>
      </g>
     </g>
     <g id="text_1">
      <!-- −0.02 -->
      <defs>
       <path d="M 10.59375 35.5 
L 73.1875 35.5 
L 73.1875 27.203125 
L 10.59375 27.203125 
z
" id="DejaVuSans-8722"/>
       <path d="M 31.78125 66.40625 
Q 24.171875 66.40625 20.328125 58.90625 
Q 16.5 51.421875 16.5 36.375 
Q 16.5 21.390625 20.328125 13.890625 
Q 24.171875 6.390625 31.78125 6.390625 
Q 39.453125 6.390625 43.28125 13.890625 
Q 47.125 21.390625 47.125 36.375 
Q 47.125 51.421875 43.28125 58.90625 
Q 39.453125 66.40625 31.78125 66.40625 
z
M 31.78125 74.21875 
Q 44.046875 74.21875 50.515625 64.515625 
Q 56.984375 54.828125 56.984375 36.375 
Q 56.984375 17.96875 50.515625 8.265625 
Q 44.046875 -1.421875 31.78125 -1.421875 
Q 19.53125 -1.421875 13.0625 8.265625 
Q 6.59375 17.96875 6.59375 36.375 
Q 6.59375 54.828125 13.0625 64.515625 
Q 19.53125 74.21875 31.78125 74.21875 
z
" id="DejaVuSans-48"/>
       <path d="M 10.6875 12.40625 
L 21 12.40625 
L 21 0 
L 10.6875 0 
z
" id="DejaVuSans-46"/>
       <path d="M 19.1875 8.296875 
L 53.609375 8.296875 
L 53.609375 0 
L 7.328125 0 
L 7.328125 8.296875 
Q 12.9375 14.109375 22.625 23.890625 
Q 32.328125 33.6875 34.8125 36.53125 
Q 39.546875 41.84375 41.421875 45.53125 
Q 43.3125 49.21875 43.3125 52.78125 
Q 43.3125 58.59375 39.234375 62.25 
Q 35.15625 65.921875 28.609375 65.921875 
Q 23.96875 65.921875 18.8125 64.3125 
Q 13.671875 62.703125 7.8125 59.421875 
L 7.8125 69.390625 
Q 13.765625 71.78125 18.9375 73 
Q 24.125 74.21875 28.421875 74.21875 
Q 39.75 74.21875 46.484375 68.546875 
Q 53.21875 62.890625 53.21875 53.421875 
Q 53.21875 48.921875 51.53125 44.890625 
Q 49.859375 40.875 45.40625 35.40625 
Q 44.1875 33.984375 37.640625 27.21875 
Q 31.109375 20.453125 19.1875 8.296875 
z
" id="DejaVuSans-50"/>
      </defs>
      <g transform="translate(100.04098 317.243892)scale(0.1 -0.1)">
       <use xlink:href="#DejaVuSans-8722"/>
       <use x="83.789062" xlink:href="#DejaVuSans-48"/>
       <use x="147.412109" xlink:href="#DejaVuSans-46"/>
       <use x="179.199219" xlink:href="#DejaVuSans-48"/>
       <use x="242.822266" xlink:href="#DejaVuSans-50"/>
      </g>
     </g>
    </g>
    <g id="xtick_2">
     <g id="line2d_2">
      <g>
       <use style="stroke:#000000;stroke-width:0.8;" x="228.090909" xlink:href="#m8b23529794" y="302.645455"/>
      </g>
     </g>
     <g id="text_2">
      <!-- −0.01 -->
      <defs>
       <path d="M 12.40625 8.296875 
L 28.515625 8.296875 
L 28.515625 63.921875 
L 10.984375 60.40625 
L 10.984375 69.390625 
L 28.421875 72.90625 
L 38.28125 72.90625 
L 38.28125 8.296875 
L 54.390625 8.296875 
L 54.390625 0 
L 12.40625 0 
z
" id="DejaVuSans-49"/>
      </defs>
      <g transform="translate(212.768253 317.243892)scale(0.1 -0.1)">
       <use xlink:href="#DejaVuSans-8722"/>
       <use x="83.789062" xlink:href="#DejaVuSans-48"/>
       <use x="147.412109" xlink:href="#DejaVuSans-46"/>
       <use x="179.199219" xlink:href="#DejaVuSans-48"/>
       <use x="242.822266" xlink:href="#DejaVuSans-49"/>
      </g>
     </g>
    </g>
    <g id="xtick_3">
     <g id="line2d_3">
      <g>
       <use style="stroke:#000000;stroke-width:0.8;" x="340.818182" xlink:href="#m8b23529794" y="302.645455"/>
      </g>
     </g>
     <g id="text_3">
      <!-- 0.00 -->
      <g transform="translate(329.685369 317.243892)scale(0.1 -0.1)">
       <use xlink:href="#DejaVuSans-48"/>
       <use x="63.623047" xlink:href="#DejaVuSans-46"/>
       <use x="95.410156" xlink:href="#DejaVuSans-48"/>
       <use x="159.033203" xlink:href="#DejaVuSans-48"/>
      </g>
     </g>
    </g>
    <g id="xtick_4">
     <g id="line2d_4">
      <g>
       <use style="stroke:#000000;stroke-width:0.8;" x="453.545455" xlink:href="#m8b23529794" y="302.645455"/>
      </g>
     </g>
     <g id="text_4">
      <!-- 0.01 -->
      <g transform="translate(442.412642 317.243892)scale(0.1 -0.1)">
       <use xlink:href="#DejaVuSans-48"/>
       <use x="63.623047" xlink:href="#DejaVuSans-46"/>
       <use x="95.410156" xlink:href="#DejaVuSans-48"/>
       <use x="159.033203" xlink:href="#DejaVuSans-49"/>
      </g>
     </g>
    </g>
    <g id="xtick_5">
     <g id="line2d_5">
      <g>
       <use style="stroke:#000000;stroke-width:0.8;" x="566.272727" xlink:href="#m8b23529794" y="302.645455"/>
      </g>
     </g>
     <g id="text_5">
      <!-- 0.02 -->
      <g transform="translate(555.139915 317.243892)scale(0.1 -0.1)">
       <use xlink:href="#DejaVuSans-48"/>
       <use x="63.623047" xlink:href="#DejaVuSans-46"/>
       <use x="95.410156" xlink:href="#DejaVuSans-48"/>
       <use x="159.033203" xlink:href="#DejaVuSans-50"/>
      </g>
     </g>
    </g>
    <g id="text_6">
     <!-- $X$ -->
     <defs>
      <path d="M 13.71875 72.90625 
L 23.6875 72.90625 
L 36.1875 46.578125 
L 58.796875 72.90625 
L 70.3125 72.90625 
L 40.28125 38.09375 
L 58.40625 0 
L 48.484375 0 
L 33.796875 30.71875 
L 7.171875 0 
L -4.296875 0 
L 29.78125 39.203125 
z
" id="DejaVuSans-Oblique-88"/>
     </defs>
     <g transform="translate(363.825 334.721236)scale(0.15 -0.15)">
      <use transform="translate(0 0.09375)" xlink:href="#DejaVuSans-Oblique-88"/>
     </g>
    </g>
   </g>
   <g id="matplotlib.axis_2">
    <g id="ytick_1">
     <g id="line2d_6">
      <defs>
       <path d="M 0 0 
L -3.5 0 
" id="m8671cc1039" style="stroke:#000000;stroke-width:0.8;"/>
      </defs>
      <g>
       <use style="stroke:#000000;stroke-width:0.8;" x="90" xlink:href="#m8671cc1039" y="302.645455"/>
      </g>
     </g>
     <g id="text_7">
      <!-- 0.0 -->
      <g transform="translate(67.096875 306.444673)scale(0.1 -0.1)">
       <use xlink:href="#DejaVuSans-48"/>
       <use x="63.623047" xlink:href="#DejaVuSans-46"/>
       <use x="95.410156" xlink:href="#DejaVuSans-48"/>
      </g>
     </g>
    </g>
    <g id="ytick_2">
     <g id="line2d_7">
      <g>
       <use style="stroke:#000000;stroke-width:0.8;" x="90" xlink:href="#m8671cc1039" y="253.226334"/>
      </g>
     </g>
     <g id="text_8">
      <!-- 0.2 -->
      <g transform="translate(67.096875 257.025553)scale(0.1 -0.1)">
       <use xlink:href="#DejaVuSans-48"/>
       <use x="63.623047" xlink:href="#DejaVuSans-46"/>
       <use x="95.410156" xlink:href="#DejaVuSans-50"/>
      </g>
     </g>
    </g>
    <g id="ytick_3">
     <g id="line2d_8">
      <g>
       <use style="stroke:#000000;stroke-width:0.8;" x="90" xlink:href="#m8671cc1039" y="203.807214"/>
      </g>
     </g>
     <g id="text_9">
      <!-- 0.4 -->
      <defs>
       <path d="M 37.796875 64.3125 
L 12.890625 25.390625 
L 37.796875 25.390625 
z
M 35.203125 72.90625 
L 47.609375 72.90625 
L 47.609375 25.390625 
L 58.015625 25.390625 
L 58.015625 17.1875 
L 47.609375 17.1875 
L 47.609375 0 
L 37.796875 0 
L 37.796875 17.1875 
L 4.890625 17.1875 
L 4.890625 26.703125 
z
" id="DejaVuSans-52"/>
      </defs>
      <g transform="translate(67.096875 207.606433)scale(0.1 -0.1)">
       <use xlink:href="#DejaVuSans-48"/>
       <use x="63.623047" xlink:href="#DejaVuSans-46"/>
       <use x="95.410156" xlink:href="#DejaVuSans-52"/>
      </g>
     </g>
    </g>
    <g id="ytick_4">
     <g id="line2d_9">
      <g>
       <use style="stroke:#000000;stroke-width:0.8;" x="90" xlink:href="#m8671cc1039" y="154.388094"/>
      </g>
     </g>
     <g id="text_10">
      <!-- 0.6 -->
      <defs>
       <path d="M 33.015625 40.375 
Q 26.375 40.375 22.484375 35.828125 
Q 18.609375 31.296875 18.609375 23.390625 
Q 18.609375 15.53125 22.484375 10.953125 
Q 26.375 6.390625 33.015625 6.390625 
Q 39.65625 6.390625 43.53125 10.953125 
Q 47.40625 15.53125 47.40625 23.390625 
Q 47.40625 31.296875 43.53125 35.828125 
Q 39.65625 40.375 33.015625 40.375 
z
M 52.59375 71.296875 
L 52.59375 62.3125 
Q 48.875 64.0625 45.09375 64.984375 
Q 41.3125 65.921875 37.59375 65.921875 
Q 27.828125 65.921875 22.671875 59.328125 
Q 17.53125 52.734375 16.796875 39.40625 
Q 19.671875 43.65625 24.015625 45.921875 
Q 28.375 48.1875 33.59375 48.1875 
Q 44.578125 48.1875 50.953125 41.515625 
Q 57.328125 34.859375 57.328125 23.390625 
Q 57.328125 12.15625 50.6875 5.359375 
Q 44.046875 -1.421875 33.015625 -1.421875 
Q 20.359375 -1.421875 13.671875 8.265625 
Q 6.984375 17.96875 6.984375 36.375 
Q 6.984375 53.65625 15.1875 63.9375 
Q 23.390625 74.21875 37.203125 74.21875 
Q 40.921875 74.21875 44.703125 73.484375 
Q 48.484375 72.75 52.59375 71.296875 
z
" id="DejaVuSans-54"/>
      </defs>
      <g transform="translate(67.096875 158.187313)scale(0.1 -0.1)">
       <use xlink:href="#DejaVuSans-48"/>
       <use x="63.623047" xlink:href="#DejaVuSans-46"/>
       <use x="95.410156" xlink:href="#DejaVuSans-54"/>
      </g>
     </g>
    </g>
    <g id="ytick_5">
     <g id="line2d_10">
      <g>
       <use style="stroke:#000000;stroke-width:0.8;" x="90" xlink:href="#m8671cc1039" y="104.968974"/>
      </g>
     </g>
     <g id="text_11">
      <!-- 0.8 -->
      <defs>
       <path d="M 31.78125 34.625 
Q 24.75 34.625 20.71875 30.859375 
Q 16.703125 27.09375 16.703125 20.515625 
Q 16.703125 13.921875 20.71875 10.15625 
Q 24.75 6.390625 31.78125 6.390625 
Q 38.8125 6.390625 42.859375 10.171875 
Q 46.921875 13.96875 46.921875 20.515625 
Q 46.921875 27.09375 42.890625 30.859375 
Q 38.875 34.625 31.78125 34.625 
z
M 21.921875 38.8125 
Q 15.578125 40.375 12.03125 44.71875 
Q 8.5 49.078125 8.5 55.328125 
Q 8.5 64.0625 14.71875 69.140625 
Q 20.953125 74.21875 31.78125 74.21875 
Q 42.671875 74.21875 48.875 69.140625 
Q 55.078125 64.0625 55.078125 55.328125 
Q 55.078125 49.078125 51.53125 44.71875 
Q 48 40.375 41.703125 38.8125 
Q 48.828125 37.15625 52.796875 32.3125 
Q 56.78125 27.484375 56.78125 20.515625 
Q 56.78125 9.90625 50.3125 4.234375 
Q 43.84375 -1.421875 31.78125 -1.421875 
Q 19.734375 -1.421875 13.25 4.234375 
Q 6.78125 9.90625 6.78125 20.515625 
Q 6.78125 27.484375 10.78125 32.3125 
Q 14.796875 37.15625 21.921875 38.8125 
z
M 18.3125 54.390625 
Q 18.3125 48.734375 21.84375 45.5625 
Q 25.390625 42.390625 31.78125 42.390625 
Q 38.140625 42.390625 41.71875 45.5625 
Q 45.3125 48.734375 45.3125 54.390625 
Q 45.3125 60.0625 41.71875 63.234375 
Q 38.140625 66.40625 31.78125 66.40625 
Q 25.390625 66.40625 21.84375 63.234375 
Q 18.3125 60.0625 18.3125 54.390625 
z
" id="DejaVuSans-56"/>
      </defs>
      <g transform="translate(67.096875 108.768193)scale(0.1 -0.1)">
       <use xlink:href="#DejaVuSans-48"/>
       <use x="63.623047" xlink:href="#DejaVuSans-46"/>
       <use x="95.410156" xlink:href="#DejaVuSans-56"/>
      </g>
     </g>
    </g>
    <g id="ytick_6">
     <g id="line2d_11">
      <g>
       <use style="stroke:#000000;stroke-width:0.8;" x="90" xlink:href="#m8671cc1039" y="55.549854"/>
      </g>
     </g>
     <g id="text_12">
      <!-- 1.0 -->
      <g transform="translate(67.096875 59.349072)scale(0.1 -0.1)">
       <use xlink:href="#DejaVuSans-49"/>
       <use x="63.623047" xlink:href="#DejaVuSans-46"/>
       <use x="95.410156" xlink:href="#DejaVuSans-48"/>
      </g>
     </g>
    </g>
    <g id="text_13">
     <!-- Intensity -->
     <defs>
      <path d="M 9.8125 72.90625 
L 19.671875 72.90625 
L 19.671875 0 
L 9.8125 0 
z
" id="DejaVuSans-73"/>
      <path d="M 54.890625 33.015625 
L 54.890625 0 
L 45.90625 0 
L 45.90625 32.71875 
Q 45.90625 40.484375 42.875 44.328125 
Q 39.84375 48.1875 33.796875 48.1875 
Q 26.515625 48.1875 22.3125 43.546875 
Q 18.109375 38.921875 18.109375 30.90625 
L 18.109375 0 
L 9.078125 0 
L 9.078125 54.6875 
L 18.109375 54.6875 
L 18.109375 46.1875 
Q 21.34375 51.125 25.703125 53.5625 
Q 30.078125 56 35.796875 56 
Q 45.21875 56 50.046875 50.171875 
Q 54.890625 44.34375 54.890625 33.015625 
z
" id="DejaVuSans-110"/>
      <path d="M 18.3125 70.21875 
L 18.3125 54.6875 
L 36.8125 54.6875 
L 36.8125 47.703125 
L 18.3125 47.703125 
L 18.3125 18.015625 
Q 18.3125 11.328125 20.140625 9.421875 
Q 21.96875 7.515625 27.59375 7.515625 
L 36.8125 7.515625 
L 36.8125 0 
L 27.59375 0 
Q 17.1875 0 13.234375 3.875 
Q 9.28125 7.765625 9.28125 18.015625 
L 9.28125 47.703125 
L 2.6875 47.703125 
L 2.6875 54.6875 
L 9.28125 54.6875 
L 9.28125 70.21875 
z
" id="DejaVuSans-116"/>
      <path d="M 56.203125 29.59375 
L 56.203125 25.203125 
L 14.890625 25.203125 
Q 15.484375 15.921875 20.484375 11.0625 
Q 25.484375 6.203125 34.421875 6.203125 
Q 39.59375 6.203125 44.453125 7.46875 
Q 49.3125 8.734375 54.109375 11.28125 
L 54.109375 2.78125 
Q 49.265625 0.734375 44.1875 -0.34375 
Q 39.109375 -1.421875 33.890625 -1.421875 
Q 20.796875 -1.421875 13.15625 6.1875 
Q 5.515625 13.8125 5.515625 26.8125 
Q 5.515625 40.234375 12.765625 48.109375 
Q 20.015625 56 32.328125 56 
Q 43.359375 56 49.78125 48.890625 
Q 56.203125 41.796875 56.203125 29.59375 
z
M 47.21875 32.234375 
Q 47.125 39.59375 43.09375 43.984375 
Q 39.0625 48.390625 32.421875 48.390625 
Q 24.90625 48.390625 20.390625 44.140625 
Q 15.875 39.890625 15.1875 32.171875 
z
" id="DejaVuSans-101"/>
      <path d="M 44.28125 53.078125 
L 44.28125 44.578125 
Q 40.484375 46.53125 36.375 47.5 
Q 32.28125 48.484375 27.875 48.484375 
Q 21.1875 48.484375 17.84375 46.4375 
Q 14.5 44.390625 14.5 40.28125 
Q 14.5 37.15625 16.890625 35.375 
Q 19.28125 33.59375 26.515625 31.984375 
L 29.59375 31.296875 
Q 39.15625 29.25 43.1875 25.515625 
Q 47.21875 21.78125 47.21875 15.09375 
Q 47.21875 7.46875 41.1875 3.015625 
Q 35.15625 -1.421875 24.609375 -1.421875 
Q 20.21875 -1.421875 15.453125 -0.5625 
Q 10.6875 0.296875 5.421875 2 
L 5.421875 11.28125 
Q 10.40625 8.6875 15.234375 7.390625 
Q 20.0625 6.109375 24.8125 6.109375 
Q 31.15625 6.109375 34.5625 8.28125 
Q 37.984375 10.453125 37.984375 14.40625 
Q 37.984375 18.0625 35.515625 20.015625 
Q 33.0625 21.96875 24.703125 23.78125 
L 21.578125 24.515625 
Q 13.234375 26.265625 9.515625 29.90625 
Q 5.8125 33.546875 5.8125 39.890625 
Q 5.8125 47.609375 11.28125 51.796875 
Q 16.75 56 26.8125 56 
Q 31.78125 56 36.171875 55.265625 
Q 40.578125 54.546875 44.28125 53.078125 
z
" id="DejaVuSans-115"/>
      <path d="M 9.421875 54.6875 
L 18.40625 54.6875 
L 18.40625 0 
L 9.421875 0 
z
M 9.421875 75.984375 
L 18.40625 75.984375 
L 18.40625 64.59375 
L 9.421875 64.59375 
z
" id="DejaVuSans-105"/>
      <path d="M 32.171875 -5.078125 
Q 28.375 -14.84375 24.75 -17.8125 
Q 21.140625 -20.796875 15.09375 -20.796875 
L 7.90625 -20.796875 
L 7.90625 -13.28125 
L 13.1875 -13.28125 
Q 16.890625 -13.28125 18.9375 -11.515625 
Q 21 -9.765625 23.484375 -3.21875 
L 25.09375 0.875 
L 2.984375 54.6875 
L 12.5 54.6875 
L 29.59375 11.921875 
L 46.6875 54.6875 
L 56.203125 54.6875 
z
" id="DejaVuSans-121"/>
     </defs>
     <g transform="translate(59.977344 211.74375)rotate(-90)scale(0.15 -0.15)">
      <use xlink:href="#DejaVuSans-73"/>
      <use x="29.492188" xlink:href="#DejaVuSans-110"/>
      <use x="92.871094" xlink:href="#DejaVuSans-116"/>
      <use x="132.080078" xlink:href="#DejaVuSans-101"/>
      <use x="193.603516" xlink:href="#DejaVuSans-110"/>
      <use x="256.982422" xlink:href="#DejaVuSans-115"/>
      <use x="309.082031" xlink:href="#DejaVuSans-105"/>
      <use x="336.865234" xlink:href="#DejaVuSans-116"/>
      <use x="376.074219" xlink:href="#DejaVuSans-121"/>
     </g>
    </g>
   </g>
   <g id="line2d_12">
    <path clip-path="url(#p7aa0df04b1)" d="M 434.757576 302.645455 
" style="fill:none;stroke:#ff0000;stroke-linecap:square;stroke-width:1.5;"/>
    <defs>
     <path d="M 0 3 
C 0.795609 3 1.55874 2.683901 2.12132 2.12132 
C 2.683901 1.55874 3 0.795609 3 0 
C 3 -0.795609 2.683901 -1.55874 2.12132 -2.12132 
C 1.55874 -2.683901 0.795609 -3 0 -3 
C -0.795609 -3 -1.55874 -2.683901 -2.12132 -2.12132 
C -2.683901 -1.55874 -3 -0.795609 -3 0 
C -3 0.795609 -2.683901 1.55874 -2.12132 2.12132 
C -1.55874 2.683901 -0.795609 3 0 3 
z
" id="m77f1d7aae4" style="stroke:#ff0000;"/>
    </defs>
    <g clip-path="url(#p7aa0df04b1)">
     <use style="fill:#ff0000;stroke:#ff0000;" x="434.757576" xlink:href="#m77f1d7aae4" y="302.645455"/>
    </g>
   </g>
   <g id="line2d_13">
    <path clip-path="url(#p7aa0df04b1)" d="M 528.69697 302.645455 
" style="fill:none;stroke:#ff0000;stroke-linecap:square;stroke-width:1.5;"/>
    <g clip-path="url(#p7aa0df04b1)">
     <use style="fill:#ff0000;stroke:#ff0000;" x="528.69697" xlink:href="#m77f1d7aae4" y="302.645455"/>
    </g>
   </g>
   <g id="line2d_14">
    <path clip-path="url(#p7aa0df04b1)" d="M 622.636364 302.645455 
" style="fill:none;stroke:#ff0000;stroke-linecap:square;stroke-width:1.5;"/>
    <g clip-path="url(#p7aa0df04b1)">
     <use style="fill:#ff0000;stroke:#ff0000;" x="622.636364" xlink:href="#m77f1d7aae4" y="302.645455"/>
    </g>
   </g>
   <g id="line2d_15">
    <path clip-path="url(#p7aa0df04b1)" d="M 372.131313 302.645455 
" style="fill:none;stroke:#0000ff;stroke-linecap:square;stroke-width:1.5;"/>
    <defs>
     <path d="M 0 3 
C 0.795609 3 1.55874 2.683901 2.12132 2.12132 
C 2.683901 1.55874 3 0.795609 3 0 
C 3 -0.795609 2.683901 -1.55874 2.12132 -2.12132 
C 1.55874 -2.683901 0.795609 -3 0 -3 
C -0.795609 -3 -1.55874 -2.683901 -2.12132 -2.12132 
C -2.683901 -1.55874 -3 -0.795609 -3 0 
C -3 0.795609 -2.683901 1.55874 -2.12132 2.12132 
C -1.55874 2.683901 -0.795609 3 0 3 
z
" id="m2738bf8180" style="stroke:#0000ff;"/>
    </defs>
    <g clip-path="url(#p7aa0df04b1)">
     <use style="fill:#0000ff;stroke:#0000ff;" x="372.131313" xlink:href="#m2738bf8180" y="302.645455"/>
    </g>
   </g>
   <g id="line2d_16">
    <path clip-path="url(#p7aa0df04b1)" d="M 403.444444 302.645455 
" style="fill:none;stroke:#0000ff;stroke-linecap:square;stroke-width:1.5;"/>
    <g clip-path="url(#p7aa0df04b1)">
     <use style="fill:#0000ff;stroke:#0000ff;" x="403.444444" xlink:href="#m2738bf8180" y="302.645455"/>
    </g>
   </g>
   <g id="line2d_17">
    <path clip-path="url(#p7aa0df04b1)" d="M 434.757576 302.645455 
" style="fill:none;stroke:#0000ff;stroke-linecap:square;stroke-width:1.5;"/>
    <g clip-path="url(#p7aa0df04b1)">
     <use style="fill:#0000ff;stroke:#0000ff;" x="434.757576" xlink:href="#m2738bf8180" y="302.645455"/>
    </g>
   </g>
   <g id="line2d_18">
    <path clip-path="url(#p7aa0df04b1)" d="M 115.363636 298.71398 
L 120.328601 299.070786 
L 126.196287 299.728759 
L 135.223496 301.015617 
L 142.896624 302.03283 
L 147.861589 302.475974 
L 151.923833 302.638315 
L 155.986077 302.578549 
L 159.596961 302.317442 
L 163.207844 301.851494 
L 167.270088 301.08572 
L 171.332332 300.084398 
L 175.845937 298.743509 
L 182.164983 296.612757 
L 190.740832 293.729952 
L 194.803076 292.582171 
L 198.413959 291.777976 
L 201.573483 291.286008 
L 204.733006 291.023293 
L 207.892529 291.01195 
L 210.600692 291.212093 
L 213.308854 291.607768 
L 216.468377 292.309315 
L 219.627901 293.249511 
L 223.238784 294.572138 
L 227.752389 296.487866 
L 236.779598 300.404297 
L 239.939121 301.49696 
L 242.647284 302.18943 
L 244.904086 302.540869 
L 247.160888 302.643213 
L 248.96633 302.51803 
L 250.771772 302.186212 
L 252.577214 301.627401 
L 254.382655 300.821916 
L 256.188097 299.750956 
L 257.993539 298.396807 
L 259.798981 296.743044 
L 261.604423 294.774729 
L 263.409864 292.478596 
L 265.215306 289.843239 
L 267.020748 286.859271 
L 269.27755 282.62832 
L 271.534353 277.832642 
L 273.791155 272.469335 
L 276.047957 266.541839 
L 278.304759 260.060158 
L 281.012922 251.574629 
L 283.721085 242.357256 
L 286.880608 230.753728 
L 290.491491 216.510646 
L 294.553736 199.482344 
L 299.970061 175.709048 
L 309.899991 131.970869 
L 313.962235 115.241237 
L 317.121758 103.134051 
L 319.829921 93.554984 
L 322.538084 84.838784 
L 324.794886 78.313791 
L 327.051688 72.521878 
L 328.85713 68.451005 
L 330.662572 64.905727 
L 332.468013 61.906448 
L 333.822095 60.025847 
L 335.176176 58.468314 
L 336.530258 57.238939 
L 337.884339 56.341743 
L 339.23842 55.779664 
L 340.592502 55.554545 
L 341.495222 55.592077 
L 342.849304 55.929652 
L 344.203385 56.603696 
L 345.557467 57.611998 
L 346.911548 58.951259 
L 348.265629 60.617099 
L 349.619711 62.604079 
L 351.425152 65.741604 
L 353.230594 69.420311 
L 355.036036 73.619049 
L 356.841478 78.313791 
L 359.09828 84.838784 
L 361.355082 92.039278 
L 364.063245 101.48256 
L 367.222768 113.45715 
L 370.833652 128.159956 
L 375.347256 147.606232 
L 390.242151 212.808192 
L 393.853035 227.284516 
L 397.012558 239.131394 
L 400.172081 250.08789 
L 402.880244 258.698671 
L 405.588407 266.541839 
L 407.845209 272.469335 
L 410.102011 277.832642 
L 412.358813 282.62832 
L 414.615616 286.859271 
L 416.872418 290.53443 
L 418.67786 293.08402 
L 420.483301 295.297052 
L 422.288743 297.185418 
L 424.094185 298.762815 
L 425.899627 300.044574 
L 427.705069 301.047459 
L 429.510511 301.789474 
L 431.315952 302.289662 
L 433.121394 302.56789 
L 434.926836 302.644655 
L 437.183638 302.489185 
L 439.44044 302.092888 
L 442.148603 301.357406 
L 445.308126 300.229058 
L 449.37037 298.513056 
L 458.84894 294.394469 
L 462.459823 293.10172 
L 465.619347 292.193865 
L 468.77887 291.528375 
L 471.487032 291.165118 
L 474.195195 290.997592 
L 477.354718 291.045853 
L 480.514242 291.342876 
L 483.673765 291.865307 
L 487.284648 292.698367 
L 491.346892 293.869844 
L 497.214578 295.826957 
L 507.144508 299.167033 
L 511.658113 300.442314 
L 515.720357 301.368545 
L 519.782601 302.050329 
L 523.393484 302.439133 
L 527.004368 302.625055 
L 531.066612 302.6072 
L 535.580217 302.342234 
L 540.545182 301.820465 
L 548.218309 300.750211 
L 558.148239 299.397907 
L 563.564565 298.883023 
L 566.272727 298.71398 
L 566.272727 298.71398 
" style="fill:none;stroke:#ff0000;stroke-dasharray:5.55,2.4;stroke-dashoffset:0;stroke-width:1.5;"/>
   </g>
   <g id="line2d_19">
    <path clip-path="url(#p7aa0df04b1)" d="M 115.363636 300.072271 
L 117.620439 299.43114 
L 119.42588 299.166029 
L 121.231322 299.16248 
L 123.036764 299.412602 
L 125.293566 300.006171 
L 132.515334 302.215732 
L 134.772136 302.540105 
L 137.028938 302.644566 
L 140.639822 302.549195 
L 145.604787 302.45761 
L 156.888798 302.54906 
L 162.305123 302.416278 
L 166.818728 302.599448 
L 169.526891 302.627284 
L 171.332332 302.457229 
L 173.137774 302.050504 
L 174.943216 301.366245 
L 176.748658 300.41272 
L 179.45682 298.639921 
L 182.164983 296.873534 
L 183.970425 295.989127 
L 185.324506 295.596785 
L 186.678588 295.492388 
L 188.032669 295.700323 
L 189.38675 296.215924 
L 190.740832 297.003514 
L 192.546274 298.360045 
L 196.157157 301.24119 
L 197.511239 302.03868 
L 198.86532 302.525805 
L 199.768041 302.643231 
L 200.670762 302.579939 
L 201.573483 302.331639 
L 202.476203 301.90199 
L 203.830285 300.944988 
L 205.184366 299.678316 
L 207.441168 297.167468 
L 209.697971 294.676147 
L 211.052052 293.443126 
L 212.406133 292.541672 
L 213.308854 292.164027 
L 214.211575 291.981684 
L 215.114296 291.999802 
L 216.017017 292.215283 
L 216.919738 292.617044 
L 218.273819 293.526939 
L 219.627901 294.725688 
L 222.336063 297.545209 
L 224.592866 299.780319 
L 225.946947 300.874028 
L 227.301028 301.71121 
L 228.65511 302.27212 
L 230.009191 302.569633 
L 231.363272 302.644546 
L 233.168714 302.504819 
L 238.133679 301.933919 
L 240.390481 302.002949 
L 244.001365 302.445505 
L 246.258167 302.634853 
L 248.063609 302.605724 
L 250.320411 302.330422 
L 254.834016 301.638922 
L 256.639458 301.648609 
L 258.444899 301.907942 
L 262.055783 302.625992 
L 262.958504 302.628232 
L 263.861225 302.455588 
L 264.763946 302.050012 
L 265.666667 301.354867 
L 266.569388 300.318553 
L 267.472108 298.898284 
L 268.374829 297.063806 
L 269.27755 294.800833 
L 270.631632 290.618779 
L 271.985713 285.594051 
L 274.242515 275.993592 
L 276.499317 266.356336 
L 277.853399 261.447682 
L 278.75612 258.839333 
L 279.658841 256.91678 
L 280.110201 256.248689 
L 280.561562 255.79229 
L 281.012922 255.557528 
L 281.464282 255.552318 
L 281.915643 255.78236 
L 282.367003 256.250978 
L 282.818364 256.958971 
L 283.721085 259.082947 
L 284.623806 262.106205 
L 285.526527 265.935273 
L 286.880608 272.87472 
L 290.942852 295.378161 
L 291.845573 298.991853 
L 292.748294 301.486824 
L 293.199654 302.233357 
L 293.651015 302.606482 
L 294.102375 302.579788 
L 294.553736 302.12983 
L 295.005096 301.23648 
L 295.456456 299.883238 
L 295.907817 298.057521 
L 296.810538 292.959429 
L 297.713259 285.928715 
L 298.61598 277.026916 
L 299.970061 260.490321 
L 301.324142 240.859136 
L 306.740468 157.397426 
L 307.643189 147.232043 
L 308.54591 139.290558 
L 309.44863 133.898609 
L 309.899991 132.238694 
L 310.351351 131.300824 
L 310.802712 131.100811 
L 311.254072 131.64797 
L 311.705433 132.944909 
L 312.156793 134.987376 
L 312.608154 137.764169 
L 313.510875 145.441153 
L 314.413595 155.748305 
L 315.316316 168.35283 
L 316.670398 190.606088 
L 321.184002 270.402044 
L 322.086723 282.693748 
L 322.989444 292.400139 
L 323.892165 299.066933 
L 324.343525 301.14597 
L 324.794886 302.341901 
L 325.246246 302.629194 
L 325.697607 301.990412 
L 326.148967 300.416456 
L 326.600328 297.90673 
L 327.051688 294.469232 
L 327.954409 284.885794 
L 328.85713 271.900016 
L 329.759851 255.874934 
L 331.113932 227.218427 
L 333.370734 172.39272 
L 335.627537 118.579134 
L 336.981618 91.549095 
L 337.884339 77.072373 
L 338.78706 66.033712 
L 339.689781 58.819054 
L 340.141141 56.730225 
L 340.592502 55.681199 
L 341.043862 55.681199 
L 341.495222 56.730225 
L 341.946583 58.819054 
L 342.397943 61.929324 
L 343.300664 71.096191 
L 344.203385 83.909932 
L 345.106106 99.92321 
L 346.460187 128.699195 
L 348.71699 183.652765 
L 350.973792 237.291249 
L 352.327873 264.239934 
L 353.230594 278.798424 
L 354.133315 290.120551 
L 355.036036 297.90673 
L 355.487396 300.416456 
L 355.938757 301.990412 
L 356.390117 302.629194 
L 356.841478 302.341901 
L 357.292838 301.14597 
L 357.744199 299.066933 
L 358.195559 296.138093 
L 359.09828 287.900684 
L 360.001001 276.839182 
L 361.355082 256.062279 
L 363.160524 223.66965 
L 365.417326 182.825908 
L 366.771408 161.788083 
L 367.674129 150.284379 
L 368.57685 141.257123 
L 369.47957 134.987376 
L 369.930931 132.944909 
L 370.382291 131.64797 
L 370.833652 131.100811 
L 371.285012 131.300824 
L 371.736373 132.238694 
L 372.187733 133.898609 
L 372.639094 136.258538 
L 373.541815 142.961232 
L 374.444535 152.059856 
L 375.347256 163.19393 
L 376.701338 182.787037 
L 382.117663 266.392754 
L 383.471744 281.704845 
L 384.374465 289.683602 
L 385.277186 295.750922 
L 386.179907 299.883238 
L 386.631268 301.23648 
L 387.082628 302.12983 
L 387.533989 302.579788 
L 387.985349 302.606482 
L 388.436709 302.233357 
L 388.88807 301.486824 
L 389.33943 300.395905 
L 390.242151 297.307759 
L 391.144872 293.238643 
L 392.498953 285.923796 
L 395.658477 268.110381 
L 397.012558 262.106205 
L 397.915279 259.082947 
L 398.818 256.958971 
L 399.26936 256.250978 
L 399.720721 255.78236 
L 400.172081 255.552318 
L 400.623442 255.557528 
L 401.074802 255.79229 
L 401.526163 256.248689 
L 401.977523 256.91678 
L 402.880244 258.839333 
L 403.782965 261.447682 
L 405.137046 266.356336 
L 406.942488 274.004527 
L 409.650651 285.594051 
L 411.004732 290.618779 
L 412.358813 294.800833 
L 413.261534 297.063806 
L 414.164255 298.898284 
L 415.066976 300.318553 
L 415.969697 301.354867 
L 416.872418 302.050012 
L 417.775139 302.455588 
L 418.67786 302.628232 
L 420.031941 302.576995 
L 422.288743 302.10576 
L 424.545546 301.691475 
L 426.350987 301.617683 
L 428.156429 301.781816 
L 434.475475 302.643215 
L 436.732278 302.544921 
L 443.502685 301.933919 
L 445.759487 302.119389 
L 450.273091 302.644546 
L 451.627173 302.569633 
L 452.981254 302.27212 
L 454.335335 301.71121 
L 455.689417 300.874028 
L 457.043498 299.780319 
L 458.84894 298.019122 
L 462.911184 293.899472 
L 464.265265 292.882288 
L 465.619347 292.215283 
L 466.522068 291.999802 
L 467.424788 291.981684 
L 468.327509 292.164027 
L 469.23023 292.541672 
L 470.584312 293.443126 
L 471.938393 294.676147 
L 474.195195 297.167468 
L 476.903358 300.129194 
L 478.257439 301.302607 
L 479.611521 302.138941 
L 480.514242 302.478874 
L 481.416962 302.634627 
L 482.319683 302.606537 
L 483.222404 302.402752 
L 484.576486 301.803128 
L 485.930567 300.922122 
L 488.187369 299.108291 
L 490.444171 297.315973 
L 491.798253 296.450881 
L 493.152334 295.839127 
L 494.506416 295.526597 
L 495.860497 295.528232 
L 497.214578 295.828923 
L 498.56866 296.387456 
L 500.374101 297.426027 
L 506.241787 301.151522 
L 508.047229 301.906086 
L 509.852671 302.380024 
L 511.658113 302.603353 
L 513.914915 302.632709 
L 522.490763 302.457886 
L 530.163891 302.630954 
L 540.093821 302.513204 
L 545.510147 302.625365 
L 547.766949 302.43924 
L 550.023751 302.018382 
L 552.731914 301.229806 
L 558.148239 299.509913 
L 559.953681 299.202476 
L 561.759123 299.140184 
L 563.564565 299.34156 
L 565.370006 299.781754 
L 566.272727 300.072271 
L 566.272727 300.072271 
" style="fill:none;stroke:#0000ff;stroke-linecap:square;stroke-width:1.5;"/>
   </g>
   <g id="patch_3">
    <path d="M 90 315 
L 90 43.2 
" style="fill:none;stroke:#000000;stroke-linecap:square;stroke-linejoin:miter;stroke-width:0.8;"/>
   </g>
   <g id="patch_4">
    <path d="M 90 302.645455 
L 648 302.645455 
" style="fill:none;stroke:#000000;stroke-linecap:square;stroke-linejoin:miter;stroke-width:0.8;"/>
   </g>
   <g id="text_14">
    <!-- $\dfrac{1\lambda L}{a}$ -->
    <defs>
     <path d="M 36.71875 67.4375 
L 48.828125 0 
L 39.3125 0 
L 31.84375 40.4375 
L 5.125 0 
L -4.390625 0 
L 29.734375 52.4375 
L 28.03125 62.109375 
Q 26.953125 68.265625 21.734375 68.265625 
L 17.046875 68.265625 
L 18.5 75.984375 
L 24.21875 75.875 
Q 35.203125 75.734375 36.71875 67.4375 
z
" id="DejaVuSans-Oblique-955"/>
     <path d="M 16.796875 72.90625 
L 26.703125 72.90625 
L 14.203125 8.203125 
L 49.703125 8.203125 
L 48.09375 0 
L 2.6875 0 
z
" id="DejaVuSans-Oblique-76"/>
     <path d="M 53.71875 31.203125 
L 47.609375 0 
L 38.625 0 
L 40.28125 8.296875 
Q 36.328125 3.421875 31.265625 1 
Q 26.21875 -1.421875 20.015625 -1.421875 
Q 13.03125 -1.421875 8.5625 2.84375 
Q 4.109375 7.125 4.109375 13.8125 
Q 4.109375 23.390625 11.75 28.953125 
Q 19.390625 34.515625 32.8125 34.515625 
L 45.3125 34.515625 
L 45.796875 36.921875 
Q 45.90625 37.3125 45.953125 37.765625 
Q 46 38.234375 46 39.203125 
Q 46 43.5625 42.453125 45.96875 
Q 38.921875 48.390625 32.515625 48.390625 
Q 28.125 48.390625 23.5 47.265625 
Q 18.890625 46.140625 14.015625 43.890625 
L 15.578125 52.203125 
Q 20.65625 54.109375 25.515625 55.046875 
Q 30.375 56 34.90625 56 
Q 44.578125 56 49.625 51.796875 
Q 54.6875 47.609375 54.6875 39.59375 
Q 54.6875 37.984375 54.4375 35.8125 
Q 54.203125 33.640625 53.71875 31.203125 
z
M 44 27.484375 
L 35.015625 27.484375 
Q 23.96875 27.484375 18.671875 24.53125 
Q 13.375 21.578125 13.375 15.375 
Q 13.375 11.078125 16.078125 8.640625 
Q 18.796875 6.203125 23.578125 6.203125 
Q 30.90625 6.203125 36.375 11.453125 
Q 41.84375 16.703125 43.609375 25.484375 
z
" id="DejaVuSans-Oblique-97"/>
    </defs>
    <g transform="translate(420.357576 277.935894)scale(0.15 -0.15)">
     <use transform="translate(0 44.015625)" xlink:href="#DejaVuSans-49"/>
     <use transform="translate(63.623047 44.015625)" xlink:href="#DejaVuSans-Oblique-955"/>
     <use transform="translate(122.802734 44.015625)" xlink:href="#DejaVuSans-Oblique-76"/>
     <use transform="translate(59 -43.234375)" xlink:href="#DejaVuSans-Oblique-97"/>
     <path d="M 0 19.015625 
L 0 25.265625 
L 178.515625 25.265625 
L 178.515625 19.015625 
L 0 19.015625 
z
"/>
    </g>
   </g>
   <g id="text_15">
    <!-- $\dfrac{2\lambda L}{a}$ -->
    <g transform="translate(514.29697 277.935894)scale(0.15 -0.15)">
     <use transform="translate(0 44.015625)" xlink:href="#DejaVuSans-50"/>
     <use transform="translate(63.623047 44.015625)" xlink:href="#DejaVuSans-Oblique-955"/>
     <use transform="translate(122.802734 44.015625)" xlink:href="#DejaVuSans-Oblique-76"/>
     <use transform="translate(59 -43.234375)" xlink:href="#DejaVuSans-Oblique-97"/>
     <path d="M 0 19.015625 
L 0 25.265625 
L 178.515625 25.265625 
L 178.515625 19.015625 
L 0 19.015625 
z
"/>
    </g>
   </g>
   <g id="text_16">
    <!-- $\dfrac{3\lambda L}{a}$ -->
    <defs>
     <path d="M 40.578125 39.3125 
Q 47.65625 37.796875 51.625 33 
Q 55.609375 28.21875 55.609375 21.1875 
Q 55.609375 10.40625 48.1875 4.484375 
Q 40.765625 -1.421875 27.09375 -1.421875 
Q 22.515625 -1.421875 17.65625 -0.515625 
Q 12.796875 0.390625 7.625 2.203125 
L 7.625 11.71875 
Q 11.71875 9.328125 16.59375 8.109375 
Q 21.484375 6.890625 26.8125 6.890625 
Q 36.078125 6.890625 40.9375 10.546875 
Q 45.796875 14.203125 45.796875 21.1875 
Q 45.796875 27.640625 41.28125 31.265625 
Q 36.765625 34.90625 28.71875 34.90625 
L 20.21875 34.90625 
L 20.21875 43.015625 
L 29.109375 43.015625 
Q 36.375 43.015625 40.234375 45.921875 
Q 44.09375 48.828125 44.09375 54.296875 
Q 44.09375 59.90625 40.109375 62.90625 
Q 36.140625 65.921875 28.71875 65.921875 
Q 24.65625 65.921875 20.015625 65.03125 
Q 15.375 64.15625 9.8125 62.3125 
L 9.8125 71.09375 
Q 15.4375 72.65625 20.34375 73.4375 
Q 25.25 74.21875 29.59375 74.21875 
Q 40.828125 74.21875 47.359375 69.109375 
Q 53.90625 64.015625 53.90625 55.328125 
Q 53.90625 49.265625 50.4375 45.09375 
Q 46.96875 40.921875 40.578125 39.3125 
z
" id="DejaVuSans-51"/>
    </defs>
    <g transform="translate(608.236364 277.935894)scale(0.15 -0.15)">
     <use transform="translate(0 46.015625)" xlink:href="#DejaVuSans-51"/>
     <use transform="translate(63.623047 46.015625)" xlink:href="#DejaVuSans-Oblique-955"/>
     <use transform="translate(122.802734 46.015625)" xlink:href="#DejaVuSans-Oblique-76"/>
     <use transform="translate(59 -42.65625)" xlink:href="#DejaVuSans-Oblique-97"/>
     <path d="M 0 19.59375 
L 0 25.84375 
L 178.515625 25.84375 
L 178.515625 19.59375 
L 0 19.59375 
z
"/>
    </g>
   </g>
   <g id="text_17">
    <!-- $\dfrac{1\lambda L}{b}$ -->
    <defs>
     <path d="M 49.515625 33.40625 
Q 49.515625 40.484375 46.265625 44.484375 
Q 43.015625 48.484375 37.3125 48.484375 
Q 33.15625 48.484375 29.515625 46.453125 
Q 25.875 44.4375 23.1875 40.578125 
Q 20.359375 36.53125 18.71875 31.171875 
Q 17.09375 25.828125 17.09375 20.515625 
Q 17.09375 13.765625 20.28125 9.9375 
Q 23.484375 6.109375 29.109375 6.109375 
Q 33.34375 6.109375 36.953125 8.078125 
Q 40.578125 10.0625 43.3125 13.921875 
Q 46.09375 17.921875 47.796875 23.234375 
Q 49.515625 28.5625 49.515625 33.40625 
z
M 21.578125 46.390625 
Q 24.90625 50.875 29.90625 53.4375 
Q 34.90625 56 40.375 56 
Q 48.78125 56 53.734375 50.328125 
Q 58.6875 44.671875 58.6875 35.015625 
Q 58.6875 27.09375 55.78125 19.671875 
Q 52.875 12.25 47.515625 6.5 
Q 44 2.6875 39.40625 0.625 
Q 34.8125 -1.421875 29.78125 -1.421875 
Q 24.46875 -1.421875 20.5625 1.015625 
Q 16.65625 3.46875 14.203125 8.296875 
L 12.59375 0 
L 3.609375 0 
L 18.40625 75.984375 
L 27.390625 75.984375 
z
" id="DejaVuSans-Oblique-98"/>
    </defs>
    <g transform="translate(357.731313 277.935894)scale(0.15 -0.15)">
     <use transform="translate(0 44.015625)" xlink:href="#DejaVuSans-49"/>
     <use transform="translate(63.623047 44.015625)" xlink:href="#DejaVuSans-Oblique-955"/>
     <use transform="translate(122.802734 44.015625)" xlink:href="#DejaVuSans-Oblique-76"/>
     <use transform="translate(58 -63.21875)" xlink:href="#DejaVuSans-Oblique-98"/>
     <path d="M 0 19.015625 
L 0 25.265625 
L 178.515625 25.265625 
L 178.515625 19.015625 
L 0 19.015625 
z
"/>
    </g>
   </g>
   <g id="text_18">
    <!-- $\dfrac{2\lambda L}{b}$ -->
    <g transform="translate(389.044444 277.935894)scale(0.15 -0.15)">
     <use transform="translate(0 44.015625)" xlink:href="#DejaVuSans-50"/>
     <use transform="translate(63.623047 44.015625)" xlink:href="#DejaVuSans-Oblique-955"/>
     <use transform="translate(122.802734 44.015625)" xlink:href="#DejaVuSans-Oblique-76"/>
     <use transform="translate(58 -63.21875)" xlink:href="#DejaVuSans-Oblique-98"/>
     <path d="M 0 19.015625 
L 0 25.265625 
L 178.515625 25.265625 
L 178.515625 19.015625 
L 0 19.015625 
z
"/>
    </g>
   </g>
   <g id="text_19">
    <!-- $\dfrac{3\lambda L}{b}$ -->
    <g transform="translate(420.357576 277.935894)scale(0.15 -0.15)">
     <use transform="translate(0 46.015625)" xlink:href="#DejaVuSans-51"/>
     <use transform="translate(63.623047 46.015625)" xlink:href="#DejaVuSans-Oblique-955"/>
     <use transform="translate(122.802734 46.015625)" xlink:href="#DejaVuSans-Oblique-76"/>
     <use transform="translate(58 -62.640625)" xlink:href="#DejaVuSans-Oblique-98"/>
     <path d="M 0 19.59375 
L 0 25.84375 
L 178.515625 25.84375 
L 178.515625 19.59375 
L 0 19.59375 
z
"/>
    </g>
   </g>
  </g>
 </g>
 <defs>
  <clipPath id="p7aa0df04b1">
   <rect height="271.8" width="558" x="90" y="43.2"/>
  </clipPath>
 </defs>
</svg>
