<?xml version="1.0" encoding="utf-8" standalone="no"?>
<!DOCTYPE svg PUBLIC "-//W3C//DTD SVG 1.1//EN"
  "http://www.w3.org/Graphics/SVG/1.1/DTD/svg11.dtd">
<!-- Created with matplotlib (https://matplotlib.org/) -->
<svg height="360pt" version="1.1" viewBox="0 0 504 360" width="504pt" xmlns="http://www.w3.org/2000/svg" xmlns:xlink="http://www.w3.org/1999/xlink">
 <defs>
  <style type="text/css">
*{stroke-linecap:butt;stroke-linejoin:round;}
  </style>
 </defs>
 <g id="figure_1">
  <g id="patch_1">
   <path d="M 0 360 
L 504 360 
L 504 0 
L 0 0 
z
" style="fill:none;"/>
  </g>
  <g id="axes_1">
   <g id="patch_2">
    <path d="M 40.8 349.2 
L 493.2 349.2 
L 493.2 10.8 
L 40.8 10.8 
z
" style="fill:none;"/>
   </g>
   <g id="matplotlib.axis_1">
    <g id="xtick_1">
     <g id="line2d_1">
      <defs>
       <path d="M 0 0 
L 0 3.5 
" id="m1629040912" style="stroke:#000000;stroke-width:0.8;"/>
      </defs>
      <g>
       <use style="stroke:#000000;stroke-width:0.8;" x="40.8" xlink:href="#m1629040912" y="179.996409"/>
      </g>
     </g>
    </g>
    <g id="xtick_2">
     <g id="line2d_2">
      <g>
       <use style="stroke:#000000;stroke-width:0.8;" x="109.373044" xlink:href="#m1629040912" y="179.996409"/>
      </g>
     </g>
    </g>
    <g id="xtick_3">
     <g id="line2d_3">
      <g>
       <use style="stroke:#000000;stroke-width:0.8;" x="177.946088" xlink:href="#m1629040912" y="179.996409"/>
      </g>
     </g>
    </g>
    <g id="xtick_4">
     <g id="line2d_4">
      <g>
       <use style="stroke:#000000;stroke-width:0.8;" x="246.519132" xlink:href="#m1629040912" y="179.996409"/>
      </g>
     </g>
    </g>
    <g id="xtick_5">
     <g id="line2d_5">
      <g>
       <use style="stroke:#000000;stroke-width:0.8;" x="315.092176" xlink:href="#m1629040912" y="179.996409"/>
      </g>
     </g>
    </g>
    <g id="xtick_6">
     <g id="line2d_6">
      <g>
       <use style="stroke:#000000;stroke-width:0.8;" x="383.66522" xlink:href="#m1629040912" y="179.996409"/>
      </g>
     </g>
    </g>
    <g id="xtick_7">
     <g id="line2d_7">
      <g>
       <use style="stroke:#000000;stroke-width:0.8;" x="452.238264" xlink:href="#m1629040912" y="179.996409"/>
      </g>
     </g>
    </g>
    <g id="text_1">
     <!-- $x$ -->
     <defs>
      <path d="M 60.015625 54.6875 
L 34.90625 27.875 
L 50.296875 0 
L 39.984375 0 
L 28.421875 21.6875 
L 8.296875 0 
L -2.59375 0 
L 24.3125 28.8125 
L 10.015625 54.6875 
L 20.3125 54.6875 
L 30.8125 34.90625 
L 49.125 54.6875 
z
" id="DejaVuSans-Oblique-120"/>
     </defs>
     <g transform="translate(443.46 199.857656)scale(0.15 -0.15)">
      <use transform="translate(0 0.3125)" xlink:href="#DejaVuSans-Oblique-120"/>
     </g>
    </g>
   </g>
   <g id="matplotlib.axis_2">
    <g id="ytick_1">
     <g id="line2d_8">
      <defs>
       <path d="M 0 0 
L -3.5 0 
" id="m5effc083fa" style="stroke:#000000;stroke-width:0.8;"/>
      </defs>
      <g>
       <use style="stroke:#000000;stroke-width:0.8;" x="40.8" xlink:href="#m5effc083fa" y="303.055326"/>
      </g>
     </g>
    </g>
    <g id="ytick_2">
     <g id="line2d_9">
      <g>
       <use style="stroke:#000000;stroke-width:0.8;" x="40.8" xlink:href="#m5effc083fa" y="241.525868"/>
      </g>
     </g>
    </g>
    <g id="ytick_3">
     <g id="line2d_10">
      <g>
       <use style="stroke:#000000;stroke-width:0.8;" x="40.8" xlink:href="#m5effc083fa" y="179.996409"/>
      </g>
     </g>
    </g>
    <g id="ytick_4">
     <g id="line2d_11">
      <g>
       <use style="stroke:#000000;stroke-width:0.8;" x="40.8" xlink:href="#m5effc083fa" y="118.46695"/>
      </g>
     </g>
    </g>
    <g id="ytick_5">
     <g id="line2d_12">
      <g>
       <use style="stroke:#000000;stroke-width:0.8;" x="40.8" xlink:href="#m5effc083fa" y="56.937492"/>
      </g>
     </g>
    </g>
    <g id="text_2">
     <!-- Vertical Displacement, $y$ -->
     <defs>
      <path d="M 28.609375 0 
L 0.78125 72.90625 
L 11.078125 72.90625 
L 34.1875 11.53125 
L 57.328125 72.90625 
L 67.578125 72.90625 
L 39.796875 0 
z
" id="DejaVuSans-86"/>
      <path d="M 56.203125 29.59375 
L 56.203125 25.203125 
L 14.890625 25.203125 
Q 15.484375 15.921875 20.484375 11.0625 
Q 25.484375 6.203125 34.421875 6.203125 
Q 39.59375 6.203125 44.453125 7.46875 
Q 49.3125 8.734375 54.109375 11.28125 
L 54.109375 2.78125 
Q 49.265625 0.734375 44.1875 -0.34375 
Q 39.109375 -1.421875 33.890625 -1.421875 
Q 20.796875 -1.421875 13.15625 6.1875 
Q 5.515625 13.8125 5.515625 26.8125 
Q 5.515625 40.234375 12.765625 48.109375 
Q 20.015625 56 32.328125 56 
Q 43.359375 56 49.78125 48.890625 
Q 56.203125 41.796875 56.203125 29.59375 
z
M 47.21875 32.234375 
Q 47.125 39.59375 43.09375 43.984375 
Q 39.0625 48.390625 32.421875 48.390625 
Q 24.90625 48.390625 20.390625 44.140625 
Q 15.875 39.890625 15.1875 32.171875 
z
" id="DejaVuSans-101"/>
      <path d="M 41.109375 46.296875 
Q 39.59375 47.171875 37.8125 47.578125 
Q 36.03125 48 33.890625 48 
Q 26.265625 48 22.1875 43.046875 
Q 18.109375 38.09375 18.109375 28.8125 
L 18.109375 0 
L 9.078125 0 
L 9.078125 54.6875 
L 18.109375 54.6875 
L 18.109375 46.1875 
Q 20.953125 51.171875 25.484375 53.578125 
Q 30.03125 56 36.53125 56 
Q 37.453125 56 38.578125 55.875 
Q 39.703125 55.765625 41.0625 55.515625 
z
" id="DejaVuSans-114"/>
      <path d="M 18.3125 70.21875 
L 18.3125 54.6875 
L 36.8125 54.6875 
L 36.8125 47.703125 
L 18.3125 47.703125 
L 18.3125 18.015625 
Q 18.3125 11.328125 20.140625 9.421875 
Q 21.96875 7.515625 27.59375 7.515625 
L 36.8125 7.515625 
L 36.8125 0 
L 27.59375 0 
Q 17.1875 0 13.234375 3.875 
Q 9.28125 7.765625 9.28125 18.015625 
L 9.28125 47.703125 
L 2.6875 47.703125 
L 2.6875 54.6875 
L 9.28125 54.6875 
L 9.28125 70.21875 
z
" id="DejaVuSans-116"/>
      <path d="M 9.421875 54.6875 
L 18.40625 54.6875 
L 18.40625 0 
L 9.421875 0 
z
M 9.421875 75.984375 
L 18.40625 75.984375 
L 18.40625 64.59375 
L 9.421875 64.59375 
z
" id="DejaVuSans-105"/>
      <path d="M 48.78125 52.59375 
L 48.78125 44.1875 
Q 44.96875 46.296875 41.140625 47.34375 
Q 37.3125 48.390625 33.40625 48.390625 
Q 24.65625 48.390625 19.8125 42.84375 
Q 14.984375 37.3125 14.984375 27.296875 
Q 14.984375 17.28125 19.8125 11.734375 
Q 24.65625 6.203125 33.40625 6.203125 
Q 37.3125 6.203125 41.140625 7.25 
Q 44.96875 8.296875 48.78125 10.40625 
L 48.78125 2.09375 
Q 45.015625 0.34375 40.984375 -0.53125 
Q 36.96875 -1.421875 32.421875 -1.421875 
Q 20.0625 -1.421875 12.78125 6.34375 
Q 5.515625 14.109375 5.515625 27.296875 
Q 5.515625 40.671875 12.859375 48.328125 
Q 20.21875 56 33.015625 56 
Q 37.15625 56 41.109375 55.140625 
Q 45.0625 54.296875 48.78125 52.59375 
z
" id="DejaVuSans-99"/>
      <path d="M 34.28125 27.484375 
Q 23.390625 27.484375 19.1875 25 
Q 14.984375 22.515625 14.984375 16.5 
Q 14.984375 11.71875 18.140625 8.90625 
Q 21.296875 6.109375 26.703125 6.109375 
Q 34.1875 6.109375 38.703125 11.40625 
Q 43.21875 16.703125 43.21875 25.484375 
L 43.21875 27.484375 
z
M 52.203125 31.203125 
L 52.203125 0 
L 43.21875 0 
L 43.21875 8.296875 
Q 40.140625 3.328125 35.546875 0.953125 
Q 30.953125 -1.421875 24.3125 -1.421875 
Q 15.921875 -1.421875 10.953125 3.296875 
Q 6 8.015625 6 15.921875 
Q 6 25.140625 12.171875 29.828125 
Q 18.359375 34.515625 30.609375 34.515625 
L 43.21875 34.515625 
L 43.21875 35.40625 
Q 43.21875 41.609375 39.140625 45 
Q 35.0625 48.390625 27.6875 48.390625 
Q 23 48.390625 18.546875 47.265625 
Q 14.109375 46.140625 10.015625 43.890625 
L 10.015625 52.203125 
Q 14.9375 54.109375 19.578125 55.046875 
Q 24.21875 56 28.609375 56 
Q 40.484375 56 46.34375 49.84375 
Q 52.203125 43.703125 52.203125 31.203125 
z
" id="DejaVuSans-97"/>
      <path d="M 9.421875 75.984375 
L 18.40625 75.984375 
L 18.40625 0 
L 9.421875 0 
z
" id="DejaVuSans-108"/>
      <path id="DejaVuSans-32"/>
      <path d="M 19.671875 64.796875 
L 19.671875 8.109375 
L 31.59375 8.109375 
Q 46.6875 8.109375 53.6875 14.9375 
Q 60.6875 21.78125 60.6875 36.53125 
Q 60.6875 51.171875 53.6875 57.984375 
Q 46.6875 64.796875 31.59375 64.796875 
z
M 9.8125 72.90625 
L 30.078125 72.90625 
Q 51.265625 72.90625 61.171875 64.09375 
Q 71.09375 55.28125 71.09375 36.53125 
Q 71.09375 17.671875 61.125 8.828125 
Q 51.171875 0 30.078125 0 
L 9.8125 0 
z
" id="DejaVuSans-68"/>
      <path d="M 44.28125 53.078125 
L 44.28125 44.578125 
Q 40.484375 46.53125 36.375 47.5 
Q 32.28125 48.484375 27.875 48.484375 
Q 21.1875 48.484375 17.84375 46.4375 
Q 14.5 44.390625 14.5 40.28125 
Q 14.5 37.15625 16.890625 35.375 
Q 19.28125 33.59375 26.515625 31.984375 
L 29.59375 31.296875 
Q 39.15625 29.25 43.1875 25.515625 
Q 47.21875 21.78125 47.21875 15.09375 
Q 47.21875 7.46875 41.1875 3.015625 
Q 35.15625 -1.421875 24.609375 -1.421875 
Q 20.21875 -1.421875 15.453125 -0.5625 
Q 10.6875 0.296875 5.421875 2 
L 5.421875 11.28125 
Q 10.40625 8.6875 15.234375 7.390625 
Q 20.0625 6.109375 24.8125 6.109375 
Q 31.15625 6.109375 34.5625 8.28125 
Q 37.984375 10.453125 37.984375 14.40625 
Q 37.984375 18.0625 35.515625 20.015625 
Q 33.0625 21.96875 24.703125 23.78125 
L 21.578125 24.515625 
Q 13.234375 26.265625 9.515625 29.90625 
Q 5.8125 33.546875 5.8125 39.890625 
Q 5.8125 47.609375 11.28125 51.796875 
Q 16.75 56 26.8125 56 
Q 31.78125 56 36.171875 55.265625 
Q 40.578125 54.546875 44.28125 53.078125 
z
" id="DejaVuSans-115"/>
      <path d="M 18.109375 8.203125 
L 18.109375 -20.796875 
L 9.078125 -20.796875 
L 9.078125 54.6875 
L 18.109375 54.6875 
L 18.109375 46.390625 
Q 20.953125 51.265625 25.265625 53.625 
Q 29.59375 56 35.59375 56 
Q 45.5625 56 51.78125 48.09375 
Q 58.015625 40.1875 58.015625 27.296875 
Q 58.015625 14.40625 51.78125 6.484375 
Q 45.5625 -1.421875 35.59375 -1.421875 
Q 29.59375 -1.421875 25.265625 0.953125 
Q 20.953125 3.328125 18.109375 8.203125 
z
M 48.6875 27.296875 
Q 48.6875 37.203125 44.609375 42.84375 
Q 40.53125 48.484375 33.40625 48.484375 
Q 26.265625 48.484375 22.1875 42.84375 
Q 18.109375 37.203125 18.109375 27.296875 
Q 18.109375 17.390625 22.1875 11.75 
Q 26.265625 6.109375 33.40625 6.109375 
Q 40.53125 6.109375 44.609375 11.75 
Q 48.6875 17.390625 48.6875 27.296875 
z
" id="DejaVuSans-112"/>
      <path d="M 52 44.1875 
Q 55.375 50.25 60.0625 53.125 
Q 64.75 56 71.09375 56 
Q 79.640625 56 84.28125 50.015625 
Q 88.921875 44.046875 88.921875 33.015625 
L 88.921875 0 
L 79.890625 0 
L 79.890625 32.71875 
Q 79.890625 40.578125 77.09375 44.375 
Q 74.3125 48.1875 68.609375 48.1875 
Q 61.625 48.1875 57.5625 43.546875 
Q 53.515625 38.921875 53.515625 30.90625 
L 53.515625 0 
L 44.484375 0 
L 44.484375 32.71875 
Q 44.484375 40.625 41.703125 44.40625 
Q 38.921875 48.1875 33.109375 48.1875 
Q 26.21875 48.1875 22.15625 43.53125 
Q 18.109375 38.875 18.109375 30.90625 
L 18.109375 0 
L 9.078125 0 
L 9.078125 54.6875 
L 18.109375 54.6875 
L 18.109375 46.1875 
Q 21.1875 51.21875 25.484375 53.609375 
Q 29.78125 56 35.6875 56 
Q 41.65625 56 45.828125 52.96875 
Q 50 49.953125 52 44.1875 
z
" id="DejaVuSans-109"/>
      <path d="M 54.890625 33.015625 
L 54.890625 0 
L 45.90625 0 
L 45.90625 32.71875 
Q 45.90625 40.484375 42.875 44.328125 
Q 39.84375 48.1875 33.796875 48.1875 
Q 26.515625 48.1875 22.3125 43.546875 
Q 18.109375 38.921875 18.109375 30.90625 
L 18.109375 0 
L 9.078125 0 
L 9.078125 54.6875 
L 18.109375 54.6875 
L 18.109375 46.1875 
Q 21.34375 51.125 25.703125 53.5625 
Q 30.078125 56 35.796875 56 
Q 45.21875 56 50.046875 50.171875 
Q 54.890625 44.34375 54.890625 33.015625 
z
" id="DejaVuSans-110"/>
      <path d="M 11.71875 12.40625 
L 22.015625 12.40625 
L 22.015625 4 
L 14.015625 -11.625 
L 7.71875 -11.625 
L 11.71875 4 
z
" id="DejaVuSans-44"/>
      <path d="M 24.8125 -5.078125 
Q 18.5625 -15.578125 14.625 -18.1875 
Q 10.6875 -20.796875 4.59375 -20.796875 
L -2.484375 -20.796875 
L -0.984375 -13.28125 
L 4.203125 -13.28125 
Q 7.953125 -13.28125 10.59375 -11.234375 
Q 13.234375 -9.1875 16.5 -3.21875 
L 19.28125 2 
L 7.171875 54.6875 
L 16.703125 54.6875 
L 25.78125 12.796875 
L 50.875 54.6875 
L 60.296875 54.6875 
z
" id="DejaVuSans-Oblique-121"/>
     </defs>
     <g transform="translate(26.65 271.875)rotate(-90)scale(0.15 -0.15)">
      <use transform="translate(0 0.015625)" xlink:href="#DejaVuSans-86"/>
      <use transform="translate(68.408203 0.015625)" xlink:href="#DejaVuSans-101"/>
      <use transform="translate(129.931641 0.015625)" xlink:href="#DejaVuSans-114"/>
      <use transform="translate(171.044922 0.015625)" xlink:href="#DejaVuSans-116"/>
      <use transform="translate(210.253906 0.015625)" xlink:href="#DejaVuSans-105"/>
      <use transform="translate(238.037109 0.015625)" xlink:href="#DejaVuSans-99"/>
      <use transform="translate(293.017578 0.015625)" xlink:href="#DejaVuSans-97"/>
      <use transform="translate(354.296875 0.015625)" xlink:href="#DejaVuSans-108"/>
      <use transform="translate(382.080078 0.015625)" xlink:href="#DejaVuSans-32"/>
      <use transform="translate(413.867188 0.015625)" xlink:href="#DejaVuSans-68"/>
      <use transform="translate(490.869141 0.015625)" xlink:href="#DejaVuSans-105"/>
      <use transform="translate(518.652344 0.015625)" xlink:href="#DejaVuSans-115"/>
      <use transform="translate(570.751953 0.015625)" xlink:href="#DejaVuSans-112"/>
      <use transform="translate(634.228516 0.015625)" xlink:href="#DejaVuSans-108"/>
      <use transform="translate(662.011719 0.015625)" xlink:href="#DejaVuSans-97"/>
      <use transform="translate(723.291016 0.015625)" xlink:href="#DejaVuSans-99"/>
      <use transform="translate(778.271484 0.015625)" xlink:href="#DejaVuSans-101"/>
      <use transform="translate(839.794922 0.015625)" xlink:href="#DejaVuSans-109"/>
      <use transform="translate(937.207031 0.015625)" xlink:href="#DejaVuSans-101"/>
      <use transform="translate(998.730469 0.015625)" xlink:href="#DejaVuSans-110"/>
      <use transform="translate(1062.109375 0.015625)" xlink:href="#DejaVuSans-116"/>
      <use transform="translate(1101.318359 0.015625)" xlink:href="#DejaVuSans-44"/>
      <use transform="translate(1133.105469 0.015625)" xlink:href="#DejaVuSans-32"/>
      <use transform="translate(1164.892578 0.015625)" xlink:href="#DejaVuSans-Oblique-121"/>
     </g>
    </g>
   </g>
   <g id="line2d_13">
    <path clip-path="url(#p6d10fd304d)" d="M 40.8 244.009633 
L 45.130223 225.881625 
L 51.625556 197.412693 
L 64.616224 139.646249 
L 68.946447 121.270527 
L 73.276669 103.830267 
L 77.606892 87.603279 
L 81.937114 72.848047 
L 84.102225 66.096811 
L 86.267337 59.799612 
L 88.432448 53.981552 
L 90.597559 48.665825 
L 92.76267 43.87362 
L 94.927782 39.624041 
L 97.092893 35.934027 
L 99.258004 32.818287 
L 101.423116 30.289243 
L 103.588227 28.356976 
L 105.753338 27.029188 
L 107.918449 26.311172 
L 110.083561 26.20579 
L 112.248672 26.713463 
L 114.413783 27.832167 
L 116.578894 29.557442 
L 118.744006 31.882411 
L 120.909117 34.797806 
L 123.074228 38.292005 
L 125.23934 42.35108 
L 127.404451 46.958849 
L 129.569562 52.096944 
L 131.734673 57.744885 
L 133.899785 63.880156 
L 136.064896 70.4783 
L 138.230007 77.513016 
L 142.56023 92.778363 
L 146.890452 109.433031 
L 151.220675 127.211723 
L 157.716009 155.364012 
L 175.036899 231.925576 
L 179.367121 249.750089 
L 183.697344 266.463477 
L 188.027566 281.799506 
L 190.192678 288.873704 
L 192.357789 295.513885 
L 194.5229 301.69358 
L 196.688011 307.388154 
L 198.853123 312.574907 
L 201.018234 317.233163 
L 203.183345 321.344354 
L 205.348457 324.89209 
L 207.513568 327.862229 
L 209.678679 330.242932 
L 211.84379 332.024708 
L 214.008902 333.200454 
L 216.174013 333.765485 
L 218.339124 333.717546 
L 220.504235 333.05683 
L 222.669347 331.785971 
L 224.834458 329.910034 
L 226.999569 327.436497 
L 229.164681 324.37522 
L 231.329792 320.738408 
L 233.494903 316.540556 
L 235.660014 311.798399 
L 237.825126 306.530841 
L 239.990237 300.75888 
L 242.155348 294.505524 
L 244.320459 287.795701 
L 246.485571 280.656159 
L 250.815793 265.203355 
L 255.146016 248.393267 
L 259.476238 230.493665 
L 265.971572 202.228776 
L 281.127351 134.980415 
L 285.457574 116.811621 
L 289.787796 99.649316 
L 294.118019 83.766882 
L 296.28313 76.385587 
L 298.448241 69.417315 
L 300.613352 62.889844 
L 302.778464 56.829194 
L 304.943575 51.259525 
L 307.108686 46.203039 
L 309.273798 41.679892 
L 311.438909 37.708116 
L 313.60402 34.303542 
L 315.769131 31.479743 
L 317.934243 29.247975 
L 320.099354 27.617134 
L 322.264465 26.593722 
L 324.429576 26.181818 
L 326.594688 26.383064 
L 328.759799 27.196658 
L 330.92491 28.619357 
L 333.090022 30.645489 
L 335.255133 33.266977 
L 337.420244 36.473372 
L 339.585355 40.251892 
L 341.750467 44.587475 
L 343.915578 49.462837 
L 346.080689 54.858545 
L 348.2458 60.753088 
L 350.410912 67.122971 
L 352.576023 73.9428 
L 354.741134 81.18539 
L 359.071357 96.821798 
L 363.401579 113.783117 
L 367.731802 131.799167 
L 374.227136 160.169613 
L 389.382915 227.328782 
L 393.713137 245.387307 
L 398.04336 262.404201 
L 402.373582 278.108399 
L 404.538693 285.389134 
L 406.703805 292.249743 
L 408.868916 298.662877 
L 411.034027 304.602972 
L 413.199139 310.046349 
L 415.36425 314.971308 
L 417.529361 319.358218 
L 419.694472 323.189591 
L 421.859584 326.450153 
L 424.024695 329.126908 
L 426.189806 331.209186 
L 428.354917 332.688684 
L 430.520029 333.559507 
L 432.68514 333.818182 
L 434.850251 333.463678 
L 437.015363 332.497409 
L 439.180474 330.923226 
L 441.345585 328.747404 
L 443.510696 325.978618 
L 445.675808 322.627903 
L 447.840919 318.708617 
L 450.00603 314.236384 
L 452.171141 309.229031 
L 454.336253 303.706519 
L 456.501364 297.690862 
L 458.666475 291.206041 
L 460.831587 284.277905 
L 465.161809 269.203818 
L 469.492032 252.708721 
L 471.657143 244.009633 
L 471.657143 244.009633 
" style="fill:none;stroke:#0000ff;stroke-linecap:square;stroke-width:1.5;"/>
   </g>
   <g id="line2d_14">
    <defs>
     <path d="M 0 2.5 
C 0.663008 2.5 1.29895 2.236584 1.767767 1.767767 
C 2.236584 1.29895 2.5 0.663008 2.5 0 
C 2.5 -0.663008 2.236584 -1.29895 1.767767 -1.767767 
C 1.29895 -2.236584 0.663008 -2.5 0 -2.5 
C -0.663008 -2.5 -1.29895 -2.236584 -1.767767 -1.767767 
C -2.236584 -1.29895 -2.5 -0.663008 -2.5 0 
C -2.5 0.663008 -2.236584 1.29895 -1.767767 1.767767 
C -1.29895 2.236584 -0.663008 2.5 0 2.5 
z
" id="m2a39d07b61" style="stroke:#0000ff;"/>
    </defs>
    <g clip-path="url(#p6d10fd304d)">
     <use style="fill:#0000ff;stroke:#0000ff;" x="149.055564" xlink:href="#m2a39d07b61" y="118.199206"/>
    </g>
   </g>
   <g id="patch_3">
    <path d="M 40.8 349.2 
L 40.8 10.8 
" style="fill:none;stroke:#000000;stroke-linecap:square;stroke-linejoin:miter;stroke-width:0.8;"/>
   </g>
   <g id="patch_4">
    <path d="M 40.8 179.996409 
L 493.2 179.996409 
" style="fill:none;stroke:#000000;stroke-linecap:square;stroke-linejoin:miter;stroke-width:0.8;"/>
   </g>
  </g>
 </g>
 <defs>
  <clipPath id="p6d10fd304d">
   <rect height="338.4" width="452.4" x="40.8" y="10.8"/>
  </clipPath>
 </defs>
</svg>
