<?xml version="1.0" encoding="utf-8" standalone="no"?>
<!DOCTYPE svg PUBLIC "-//W3C//DTD SVG 1.1//EN"
  "http://www.w3.org/Graphics/SVG/1.1/DTD/svg11.dtd">
<!-- Created with matplotlib (https://matplotlib.org/) -->
<svg height="360pt" version="1.1" viewBox="0 0 504 360" width="504pt" xmlns="http://www.w3.org/2000/svg" xmlns:xlink="http://www.w3.org/1999/xlink">
 <defs>
  <style type="text/css">
*{stroke-linecap:butt;stroke-linejoin:round;}
  </style>
 </defs>
 <g id="figure_1">
  <g id="patch_1">
   <path d="M 0 360 
L 504 360 
L 504 0 
L 0 0 
z
" style="fill:none;"/>
  </g>
  <g id="axes_1">
   <g id="patch_2">
    <path d="M 14.3 345.7 
L 493.2 345.7 
L 493.2 10.8 
L 14.3 10.8 
z
" style="fill:none;"/>
   </g>
   <g id="line2d_1">
    <path clip-path="url(#p6394ad6a1d)" d="M 36.068182 26.022727 
L 38.682978 26.139942 
L 41.297775 26.49092 
L 43.912572 27.073662 
L 46.527368 27.884851 
L 49.142165 28.919867 
L 51.756962 30.172819 
L 54.807558 31.900457 
L 57.858154 33.901583 
L 60.90875 36.160693 
L 64.395145 39.03589 
L 67.881541 42.196028 
L 71.803736 46.051862 
L 76.16173 50.651372 
L 81.391323 56.50921 
L 88.799914 65.191025 
L 100.566498 79.006193 
L 105.796092 84.803408 
L 110.154086 89.333902 
L 114.076281 93.114193 
L 117.562676 96.197304 
L 121.049072 98.986988 
L 124.099668 101.16499 
L 127.150264 103.079801 
L 130.20086 104.716584 
L 132.815657 105.88858 
L 135.430453 106.840284 
L 138.04525 107.566277 
L 140.660046 108.062426 
L 143.274843 108.325905 
L 145.88964 108.355215 
L 148.504436 108.15019 
L 151.119233 107.711995 
L 153.734029 107.043126 
L 156.348826 106.147392 
L 158.963623 105.029892 
L 161.578419 103.696988 
L 164.629015 101.879879 
L 167.679611 99.79404 
L 170.730207 97.455632 
L 174.216603 94.497225 
L 178.138798 90.840442 
L 182.060993 86.880957 
L 186.854787 81.704719 
L 192.520179 75.237898 
L 203.415165 62.352852 
L 210.823756 53.785993 
L 216.053349 48.084529 
L 220.411343 43.660115 
L 224.333538 39.994272 
L 227.819934 37.026765 
L 231.306329 34.364527 
L 234.356925 32.306743 
L 237.407521 30.5193 
L 240.458117 29.016046 
L 243.072914 27.962626 
L 245.68771 27.132591 
L 248.302507 26.530667 
L 250.917304 26.160281 
L 253.5321 26.023542 
L 256.146897 26.121228 
L 258.761694 26.452783 
L 261.37649 27.01632 
L 263.991287 27.80863 
L 266.606083 28.825202 
L 269.22088 30.060248 
L 272.271476 31.767813 
L 275.322072 33.749895 
L 278.372668 35.991135 
L 281.859064 38.847525 
L 285.345459 41.990762 
L 289.267654 45.830074 
L 293.625648 50.414564 
L 298.855242 56.259334 
L 305.828033 64.415453 
L 318.466216 79.254044 
L 323.695809 85.037155 
L 328.053804 89.551818 
L 331.975999 93.314908 
L 335.462394 96.380565 
L 338.94879 99.150939 
L 341.999386 101.310678 
L 345.049982 103.206097 
L 348.100578 104.82251 
L 350.715374 105.976386 
L 353.330171 106.90947 
L 355.944968 107.616449 
L 358.559764 108.093298 
L 361.174561 108.337303 
L 363.789358 108.347073 
L 366.404154 108.122553 
L 369.018951 107.665022 
L 371.633747 106.977085 
L 374.248544 106.062657 
L 376.863341 104.926947 
L 379.478137 103.576419 
L 382.528733 101.739623 
L 385.579329 99.635183 
L 388.629925 97.279406 
L 392.116321 94.302827 
L 396.038516 90.627961 
L 400.39651 86.195122 
L 405.190304 80.975104 
L 411.291496 73.964231 
L 430.466671 51.605055 
L 435.260465 46.497938 
L 439.618459 42.196028 
L 443.540654 38.660282 
L 447.02705 35.822811 
L 450.077646 33.599529 
L 453.128242 31.636571 
L 456.178838 29.949147 
L 458.793635 28.732055 
L 461.408431 27.733968 
L 464.023228 26.960568 
L 466.638024 26.416259 
L 469.252821 26.104138 
L 471.431818 26.022727 
L 471.431818 26.022727 
" style="fill:none;stroke:#1f77b4;stroke-linecap:square;stroke-width:1.5;"/>
   </g>
   <g id="line2d_2">
    <path clip-path="url(#p6394ad6a1d)" d="M 36.068182 145.598782 
L 37.37558 145.510923 
L 38.682978 145.248471 
L 40.426176 144.633069 
L 42.169374 143.727501 
L 43.912572 142.552361 
L 45.655769 141.134374 
L 47.834767 139.069981 
L 50.449563 136.262658 
L 54.807558 131.162116 
L 59.165552 126.161747 
L 61.780349 123.505971 
L 63.959346 121.613991 
L 65.702543 120.359817 
L 67.445741 119.367497 
L 69.188939 118.659597 
L 70.932137 118.252216 
L 72.239535 118.149734 
L 73.546933 118.222962 
L 74.854332 118.470962 
L 76.597529 119.067694 
L 78.340727 119.955663 
L 80.083925 121.114677 
L 81.827123 122.518377 
L 84.00612 124.567988 
L 86.620916 127.36276 
L 90.543111 131.938694 
L 95.336905 137.46817 
L 97.951702 140.138931 
L 100.130699 142.047456 
L 101.873897 143.317107 
L 103.617094 144.326519 
L 105.360292 145.052736 
L 107.10349 145.479243 
L 108.410888 145.596339 
L 109.718286 145.537749 
L 111.025685 145.304222 
L 112.768883 144.726215 
L 114.51208 143.855923 
L 116.255278 142.713138 
L 117.998476 141.32385 
L 120.177473 139.289204 
L 122.79227 136.507232 
L 126.714464 131.938694 
L 131.508258 126.398221 
L 134.123055 123.712714 
L 136.302052 121.787814 
L 138.04525 120.502799 
L 139.788448 119.476385 
L 141.531645 118.731915 
L 143.274843 118.28632 
L 144.582241 118.15462 
L 145.88964 118.198567 
L 147.197038 118.417599 
L 148.940236 118.976832 
L 150.683433 119.829369 
L 152.426631 120.955822 
L 154.169829 122.330575 
L 156.348826 124.350075 
L 158.963623 127.119 
L 162.885818 131.679735 
L 167.679611 137.230711 
L 170.294408 139.930726 
L 172.473405 141.871829 
L 174.216603 143.172094 
L 175.959801 144.215419 
L 177.702998 144.978075 
L 179.446196 145.442718 
L 180.753595 145.589011 
L 182.060993 145.559711 
L 183.368391 145.355193 
L 185.111589 144.814785 
L 186.854787 143.980079 
L 188.597984 142.870056 
L 190.341182 141.509962 
L 192.520179 139.505787 
L 195.134976 136.750156 
L 199.057171 132.19763 
L 203.850965 126.636645 
L 206.465761 123.922362 
L 208.644758 121.965228 
L 210.387956 120.649829 
L 212.131154 119.589687 
L 213.874352 118.808913 
L 215.617549 118.325262 
L 216.924948 118.16439 
L 218.232346 118.179041 
L 219.539744 118.369027 
L 221.282942 118.890561 
L 223.02614 119.707362 
L 224.769338 120.800855 
L 226.512535 122.14617 
L 228.691532 124.134841 
L 231.306329 126.876933 
L 234.792725 130.903641 
L 240.458117 137.46817 
L 243.072914 140.138931 
L 245.251911 142.047456 
L 246.995109 143.317107 
L 248.738306 144.326519 
L 250.481504 145.052736 
L 252.224702 145.479243 
L 253.5321 145.596339 
L 254.839499 145.537749 
L 256.146897 145.304222 
L 257.890095 144.726215 
L 259.633292 143.855923 
L 261.37649 142.713138 
L 263.119688 141.32385 
L 265.298685 139.289204 
L 267.913482 136.507232 
L 271.835677 131.938694 
L 276.62947 126.398221 
L 279.244267 123.712714 
L 281.423264 121.787814 
L 283.166462 120.502799 
L 284.90966 119.476385 
L 286.652857 118.731915 
L 288.396055 118.28632 
L 289.703453 118.15462 
L 291.010852 118.198567 
L 292.31825 118.417599 
L 294.061448 118.976832 
L 295.804646 119.829369 
L 297.547843 120.955822 
L 299.291041 122.330575 
L 301.470038 124.350075 
L 304.084835 127.119 
L 308.00703 131.679735 
L 312.800824 137.230711 
L 315.41562 139.930726 
L 317.594617 141.871829 
L 319.337815 143.172094 
L 321.081013 144.215419 
L 322.824211 144.978075 
L 324.567408 145.442718 
L 325.874807 145.589011 
L 327.182205 145.559711 
L 328.489603 145.355193 
L 330.232801 144.814785 
L 331.975999 143.980079 
L 333.719196 142.870056 
L 335.462394 141.509962 
L 337.641391 139.505787 
L 340.256188 136.750156 
L 344.178383 132.19763 
L 348.972177 126.636645 
L 351.586973 123.922362 
L 353.765971 121.965228 
L 355.509168 120.649829 
L 357.252366 119.589687 
L 358.995564 118.808913 
L 360.738761 118.325262 
L 362.04616 118.16439 
L 363.353558 118.179041 
L 364.660956 118.369027 
L 366.404154 118.890561 
L 368.147352 119.707362 
L 369.89055 120.800855 
L 371.633747 122.14617 
L 373.812745 124.134841 
L 376.427541 126.876933 
L 379.913937 130.903641 
L 385.579329 137.46817 
L 388.194126 140.138931 
L 390.373123 142.047456 
L 392.116321 143.317107 
L 393.859519 144.326519 
L 395.602716 145.052736 
L 397.345914 145.479243 
L 398.653312 145.596339 
L 399.960711 145.537749 
L 401.268109 145.304222 
L 403.011307 144.726215 
L 404.754505 143.855923 
L 406.497702 142.713138 
L 408.2409 141.32385 
L 410.419897 139.289204 
L 413.034694 136.507232 
L 416.956889 131.938694 
L 421.750683 126.398221 
L 424.365479 123.712714 
L 426.544476 121.787814 
L 428.287674 120.502799 
L 430.030872 119.476385 
L 431.77407 118.731915 
L 433.517267 118.28632 
L 434.824666 118.15462 
L 436.132064 118.198567 
L 437.439462 118.417599 
L 439.18266 118.976832 
L 440.925858 119.829369 
L 442.669055 120.955822 
L 444.412253 122.330575 
L 446.59125 124.350075 
L 449.206047 127.119 
L 453.128242 131.679735 
L 457.922036 137.230711 
L 460.536832 139.930726 
L 462.715829 141.871829 
L 464.459027 143.172094 
L 466.202225 144.215419 
L 467.945423 144.978075 
L 469.68862 145.442718 
L 470.996019 145.589011 
L 471.431818 145.598782 
L 471.431818 145.598782 
" style="fill:none;stroke:#ff7f0e;stroke-linecap:square;stroke-width:1.5;"/>
   </g>
   <g id="line2d_3">
    <path clip-path="url(#p6394ad6a1d)" d="M 36.068182 188.315791 
L 37.37558 188.461945 
L 38.682978 188.895219 
L 39.990377 189.600234 
L 41.297775 190.551963 
L 43.040973 192.145209 
L 45.21997 194.51329 
L 50.885363 200.978026 
L 52.62856 202.567127 
L 53.935959 203.514999 
L 55.243357 204.215663 
L 56.550755 204.64425 
L 57.858154 204.785546 
L 59.165552 204.634536 
L 60.47295 204.196579 
L 61.780349 203.487222 
L 63.087747 202.531644 
L 64.830945 200.934268 
L 67.009942 198.562987 
L 72.675334 192.101538 
L 74.418532 190.516599 
L 75.72593 189.572594 
L 77.033329 188.876286 
L 78.340727 188.452391 
L 79.648125 188.315954 
L 80.955524 188.47182 
L 82.262922 188.914455 
L 83.57032 189.628148 
L 84.877719 190.587565 
L 86.620916 192.189054 
L 88.799914 194.563513 
L 94.465306 201.021609 
L 96.208504 202.602372 
L 97.515902 203.5425 
L 98.823301 204.234445 
L 100.130699 204.653645 
L 101.438097 204.78522 
L 102.745495 204.624501 
L 104.052894 204.177192 
L 105.360292 203.45917 
L 106.66769 202.495924 
L 108.410888 200.890336 
L 110.589885 198.512724 
L 116.255278 192.058043 
L 117.998476 190.481473 
L 119.305874 189.545231 
L 120.613272 188.857657 
L 121.920671 188.443156 
L 123.228069 188.316443 
L 124.535467 188.482014 
L 125.842866 188.933993 
L 127.150264 189.656336 
L 128.457662 190.623403 
L 130.20086 192.233072 
L 132.379857 194.613814 
L 138.04525 201.065016 
L 139.788448 202.637378 
L 141.095846 203.569725 
L 142.403244 204.252922 
L 143.710642 204.662719 
L 145.018041 204.784569 
L 146.325439 204.614147 
L 147.632837 204.157503 
L 148.940236 203.430846 
L 150.247634 202.459969 
L 151.990832 200.846233 
L 154.169829 198.462384 
L 159.835222 192.014726 
L 161.578419 190.446587 
L 162.885818 189.518145 
L 164.193216 188.839332 
L 165.500614 188.434243 
L 166.808013 188.317257 
L 168.115411 188.492527 
L 169.422809 188.953832 
L 170.730207 189.684797 
L 172.037606 190.659475 
L 173.780804 192.277261 
L 175.959801 194.664193 
L 181.625193 201.108243 
L 183.368391 202.672143 
L 184.675789 203.596672 
L 185.983188 204.271095 
L 187.290586 204.671472 
L 188.597984 204.783592 
L 189.905383 204.603475 
L 191.212781 204.137514 
L 192.520179 203.402249 
L 193.827578 202.42378 
L 195.570775 200.80196 
L 197.749772 198.411968 
L 203.415165 191.971588 
L 205.158363 190.411943 
L 206.465761 189.491337 
L 207.77316 188.821312 
L 209.080558 188.42565 
L 210.387956 188.318397 
L 211.695354 188.503359 
L 213.002753 188.973972 
L 214.310151 189.713529 
L 215.617549 190.69578 
L 217.360747 192.321618 
L 219.539744 194.714645 
L 225.205137 201.151291 
L 226.948335 202.706666 
L 228.255733 203.62334 
L 229.563131 204.288962 
L 230.87053 204.679904 
L 232.177928 204.782289 
L 233.485326 204.592483 
L 234.792725 204.117224 
L 236.100123 203.373381 
L 237.407521 202.387359 
L 239.150719 200.757518 
L 241.329716 198.361479 
L 246.559309 192.366143 
L 248.302507 190.732317 
L 249.609905 189.742532 
L 250.917304 188.994411 
L 252.224702 188.51451 
L 253.5321 188.319863 
L 254.839499 188.417379 
L 256.146897 188.803597 
L 257.454295 189.464808 
L 258.761694 190.377542 
L 260.504891 191.928632 
L 262.683888 194.263424 
L 268.785081 201.194156 
L 270.528278 202.740946 
L 271.835677 203.649729 
L 273.143075 204.306523 
L 274.450473 204.688014 
L 275.757872 204.78066 
L 277.06527 204.581174 
L 278.372668 204.096635 
L 279.680066 203.344244 
L 280.987465 202.350707 
L 282.730662 200.71291 
L 284.90966 198.310918 
L 290.139253 192.321618 
L 291.882451 190.69578 
L 293.189849 189.713529 
L 294.497247 188.973972 
L 295.804646 188.503359 
L 297.112044 188.318397 
L 298.419442 188.42565 
L 299.72684 188.821312 
L 301.034239 189.491337 
L 302.341637 190.411943 
L 304.084835 191.971588 
L 306.263832 194.313224 
L 312.365024 201.236838 
L 314.108222 202.77498 
L 315.41562 203.675837 
L 316.723018 204.323777 
L 318.030417 204.695802 
L 319.337815 204.778706 
L 320.645213 204.569547 
L 321.952612 204.075748 
L 323.26001 203.314837 
L 324.567408 202.313825 
L 326.310606 200.668138 
L 328.489603 198.260287 
L 333.719196 192.277261 
L 335.462394 190.659475 
L 336.769793 189.684797 
L 338.077191 188.953832 
L 339.384589 188.492527 
L 340.691987 188.317257 
L 341.999386 188.434243 
L 343.306784 188.839332 
L 344.614182 189.518145 
L 345.921581 190.446587 
L 347.664778 192.014726 
L 349.843776 194.363113 
L 355.944968 201.279334 
L 357.688165 202.808769 
L 358.995564 203.701663 
L 360.302962 204.340724 
L 361.61036 204.703268 
L 362.917759 204.776427 
L 364.225157 204.557602 
L 365.532555 204.054563 
L 366.839954 203.285163 
L 368.147352 202.276716 
L 369.89055 200.623203 
L 372.069547 198.209589 
L 377.29914 192.233072 
L 379.042338 190.623403 
L 380.349736 189.656336 
L 381.657134 188.933993 
L 382.964533 188.482014 
L 384.271931 188.316443 
L 385.579329 188.443156 
L 386.886728 188.857657 
L 388.194126 189.545231 
L 389.501524 190.481473 
L 391.244722 192.058043 
L 393.423719 194.413088 
L 399.524911 201.321644 
L 401.268109 202.84231 
L 402.575507 203.727206 
L 403.882906 204.357363 
L 405.190304 204.710412 
L 406.497702 204.773822 
L 407.805101 204.545341 
L 409.112499 204.033081 
L 410.419897 203.255223 
L 411.727295 202.23938 
L 413.470493 200.578106 
L 415.64949 198.158825 
L 420.879084 192.189054 
L 422.622281 190.587565 
L 423.92968 189.628148 
L 425.237078 188.914455 
L 426.544476 188.47182 
L 427.851875 188.315954 
L 429.159273 188.452391 
L 430.466671 188.876286 
L 431.77407 189.572594 
L 433.081468 190.516599 
L 434.824666 192.101538 
L 437.003663 194.463148 
L 443.104855 201.363764 
L 444.848053 202.875602 
L 446.155451 203.752465 
L 447.462849 204.373693 
L 448.770248 204.717233 
L 450.077646 204.770892 
L 451.385044 204.532764 
L 452.692442 204.011303 
L 453.999841 203.225018 
L 455.307239 202.201819 
L 457.050437 200.53285 
L 459.229434 198.107998 
L 464.023228 192.591215 
L 465.766426 190.918424 
L 467.073824 189.891562 
L 468.381222 189.101075 
L 469.68862 188.575021 
L 470.996019 188.332073 
L 471.431818 188.315791 
L 471.431818 188.315791 
" style="fill:none;stroke:#2ca02c;stroke-linecap:square;stroke-width:1.5;"/>
   </g>
   <g id="line2d_4">
    <path clip-path="url(#p6394ad6a1d)" d="M 36.068182 267.109495 
L 36.939781 267.01852 
L 37.81138 266.748409 
L 39.118778 266.027095 
L 40.426176 264.972806 
L 42.169374 263.178254 
L 47.398967 257.355195 
L 48.706365 256.333454 
L 50.013764 255.65123 
L 50.885363 255.409487 
L 51.756962 255.347711 
L 52.62856 255.467812 
L 53.500159 255.766076 
L 54.807558 256.525902 
L 56.114956 257.611895 
L 57.858154 259.434413 
L 62.651947 264.828347 
L 63.959346 265.91781 
L 65.266744 266.681878 
L 66.138343 266.983255 
L 67.009942 267.106587 
L 67.881541 267.048059 
L 68.75314 266.809481 
L 69.624738 266.398233 
L 70.932137 265.4868 
L 72.239535 264.279874 
L 73.982733 262.357947 
L 77.904928 257.910663 
L 79.212326 256.757368 
L 80.519724 255.914182 
L 81.391323 255.554246 
L 82.262922 255.369799 
L 83.134521 255.366546 
L 84.00612 255.544587 
L 84.877719 255.898416 
L 86.185117 256.733411 
L 87.492515 257.880176 
L 89.235713 259.754225 
L 93.593707 264.680328 
L 94.901106 265.803886 
L 96.208504 266.609954 
L 97.080103 266.942299 
L 97.951702 267.097865 
L 98.823301 267.071841 
L 99.694899 266.865032 
L 100.566498 266.483835 
L 101.873897 265.612244 
L 103.181295 264.436458 
L 104.924493 262.538885 
L 108.846688 258.065042 
L 110.154086 256.87979 
L 111.461484 255.996154 
L 112.333083 255.605901 
L 113.204682 255.389538 
L 114.076281 255.353759 
L 114.94788 255.49967 
L 115.819479 255.822758 
L 117.126877 256.616307 
L 118.434275 257.729752 
L 120.177473 259.575903 
L 124.971267 264.944206 
L 126.278665 266.005614 
L 127.586063 266.735538 
L 128.457662 267.011924 
L 129.329261 267.109379 
L 130.20086 267.024887 
L 131.072459 266.761062 
L 131.944058 266.326065 
L 133.251456 265.383406 
L 134.558854 264.152426 
L 136.737851 261.698608 
L 139.788448 258.222547 
L 141.095846 257.006511 
L 142.403244 256.0833 
L 143.274843 255.663115 
L 144.146442 255.415051 
L 145.018041 255.346781 
L 145.88964 255.460417 
L 146.761239 255.752444 
L 148.068637 256.503764 
L 149.376035 257.582785 
L 151.119233 259.399214 
L 155.913027 264.799024 
L 157.220425 265.895392 
L 158.527823 266.667923 
L 159.399422 266.975518 
L 160.271021 267.105308 
L 161.14262 267.053277 
L 162.014219 266.821034 
L 162.885818 266.415765 
L 164.193216 265.51223 
L 165.500614 264.311437 
L 167.243812 262.39423 
L 171.166007 257.941281 
L 172.473405 256.781503 
L 173.780804 255.930159 
L 174.652402 255.56413 
L 175.524001 255.373284 
L 176.3956 255.363524 
L 177.267199 255.535153 
L 178.138798 255.88286 
L 179.446196 256.709631 
L 180.753595 257.849822 
L 182.496792 259.718438 
L 186.854787 264.65031 
L 188.162185 265.780555 
L 189.469583 266.594928 
L 190.341182 266.933428 
L 191.212781 267.095424 
L 192.08438 267.075905 
L 192.955979 266.875475 
L 193.827578 266.500334 
L 195.134976 265.636816 
L 196.442374 264.467399 
L 198.185572 262.574923 
L 202.107767 258.096298 
L 203.415165 256.904795 
L 204.722563 256.013172 
L 205.594162 255.616901 
L 206.465761 255.39418 
L 207.33736 255.351898 
L 208.208959 255.491365 
L 209.080558 255.808265 
L 210.387956 256.59343 
L 211.695354 257.700077 
L 213.438552 259.540429 
L 218.232346 264.915459 
L 219.539744 265.983944 
L 220.847143 266.722448 
L 221.718741 267.0051 
L 222.59034 267.10903 
L 223.461939 267.031025 
L 224.333538 266.773496 
L 225.205137 266.344412 
L 226.512535 265.409503 
L 227.819934 264.184465 
L 229.998931 261.735475 
L 233.049527 258.25441 
L 234.356925 257.032361 
L 235.664323 256.101342 
L 236.971722 255.525943 
L 237.843321 255.360735 
L 238.714919 255.377001 
L 239.586518 255.574238 
L 240.458117 255.946345 
L 241.765516 256.805813 
L 243.072914 257.972029 
L 244.816112 259.861929 
L 248.738306 264.342879 
L 250.045705 265.53749 
L 251.353103 266.433092 
L 252.224702 266.832367 
L 253.096301 267.058264 
L 253.9679 267.103796 
L 254.839499 266.967553 
L 255.711097 266.653752 
L 257.018496 265.872791 
L 258.325894 264.769559 
L 260.069092 262.932134 
L 264.862886 257.55382 
L 266.170284 256.481812 
L 267.477682 255.739029 
L 268.349281 255.453249 
L 269.22088 255.346083 
L 270.092479 255.420844 
L 270.964078 255.67522 
L 271.835677 256.101342 
L 273.143075 257.032361 
L 274.450473 258.25441 
L 276.62947 260.70095 
L 279.680066 264.184465 
L 280.987465 265.409503 
L 282.294863 266.344412 
L 283.602261 266.924331 
L 284.47386 267.09275 
L 285.345459 267.079737 
L 286.217058 266.885695 
L 287.088657 266.516625 
L 288.396055 265.661214 
L 289.703453 264.498212 
L 291.446651 262.610907 
L 295.804646 257.700077 
L 297.112044 256.59343 
L 298.419442 255.808265 
L 299.291041 255.491365 
L 300.16264 255.351898 
L 301.034239 255.39418 
L 301.905838 255.616901 
L 302.777437 256.013172 
L 304.084835 256.904795 
L 305.392233 258.096298 
L 307.135431 260.006284 
L 311.057626 264.467399 
L 312.365024 265.636816 
L 313.672422 266.500334 
L 314.544021 266.875475 
L 315.41562 267.075905 
L 316.287219 267.095424 
L 317.158818 266.933428 
L 318.030417 266.594928 
L 319.337815 265.780555 
L 320.645213 264.65031 
L 322.388411 262.78998 
L 326.746405 257.849822 
L 328.053804 256.709631 
L 329.361202 255.88286 
L 330.232801 255.535153 
L 331.1044 255.363524 
L 331.975999 255.373284 
L 332.847598 255.56413 
L 333.719196 255.930159 
L 335.026595 256.781503 
L 336.333993 257.941281 
L 338.077191 259.825972 
L 342.435185 264.739954 
L 343.742583 265.850005 
L 345.049982 266.639366 
L 345.921581 266.959362 
L 346.79318 267.102051 
L 347.664778 267.063021 
L 348.536377 266.843478 
L 349.407976 266.450213 
L 350.715374 265.56258 
L 352.022773 264.374197 
L 353.765971 262.466656 
L 357.688165 258.002906 
L 358.995564 256.830299 
L 360.302962 255.96274 
L 361.174561 255.584569 
L 362.04616 255.380949 
L 362.917759 255.358177 
L 363.789358 255.516959 
L 364.660956 255.852384 
L 365.968355 256.662608 
L 367.275753 257.789515 
L 369.018951 259.647046 
L 373.376945 264.589868 
L 374.684343 265.733352 
L 375.991742 266.564239 
L 376.863341 266.915009 
L 377.734939 267.089845 
L 378.606538 267.083338 
L 379.478137 266.895691 
L 380.349736 266.532707 
L 381.657134 265.685437 
L 382.964533 264.528895 
L 384.70773 262.646837 
L 389.065725 257.729752 
L 390.373123 256.616307 
L 391.680521 255.822758 
L 392.55212 255.49967 
L 393.423719 255.353759 
L 394.295318 255.389538 
L 395.166917 255.605901 
L 396.038516 255.996154 
L 397.345914 256.87979 
L 398.653312 258.065042 
L 400.39651 259.970119 
L 404.318705 264.436458 
L 405.626103 265.612244 
L 406.933502 266.483835 
L 407.805101 266.865032 
L 408.676699 267.071841 
L 409.548298 267.097865 
L 410.419897 266.942299 
L 411.291496 266.609954 
L 412.598894 265.803886 
L 413.906293 264.680328 
L 415.64949 262.825615 
L 420.007485 257.880176 
L 421.314883 256.733411 
L 422.622281 255.898416 
L 423.49388 255.544587 
L 424.365479 255.366546 
L 425.237078 255.369799 
L 426.108677 255.554246 
L 426.980276 255.914182 
L 428.287674 256.757368 
L 429.595072 257.910663 
L 431.33827 259.79007 
L 435.696264 264.71021 
L 437.003663 265.827036 
L 438.311061 266.624767 
L 439.18266 266.950943 
L 440.054259 267.100074 
L 440.925858 267.067547 
L 441.797457 266.854366 
L 442.669055 266.467128 
L 443.976454 265.587498 
L 445.283852 264.40539 
L 447.02705 262.502796 
L 450.949245 258.033911 
L 452.256643 256.854958 
L 453.564041 255.979343 
L 454.43564 255.595124 
L 455.307239 255.385128 
L 456.178838 255.355852 
L 457.050437 255.508202 
L 457.922036 255.837464 
L 459.229434 256.639367 
L 460.536832 257.759564 
L 462.28003 259.611442 
L 466.638024 264.559448 
L 467.945423 265.709483 
L 469.252821 266.548578 
L 470.12442 266.905462 
L 470.996019 267.086707 
L 471.431818 267.109495 
L 471.431818 267.109495 
" style="fill:none;stroke:#d62728;stroke-linecap:square;stroke-width:1.5;"/>
   </g>
   <g id="line2d_5">
    <path clip-path="url(#p6394ad6a1d)" d="M 36.068182 321.329218 
L 36.939781 321.445989 
L 37.81138 321.79034 
L 38.682978 322.344692 
L 39.990377 323.505486 
L 41.733574 325.451712 
L 44.348371 328.412121 
L 45.655769 329.543539 
L 46.527368 330.07298 
L 47.398967 330.389613 
L 48.270566 330.477273 
L 49.142165 330.331485 
L 50.013764 329.959692 
L 50.885363 329.380873 
L 52.192761 328.191633 
L 53.935959 326.227599 
L 56.550755 323.288928 
L 57.858154 322.187793 
L 58.729752 321.683686 
L 59.601351 321.395025 
L 60.47295 321.336546 
L 61.344549 321.511234 
L 62.216148 321.910172 
L 63.087747 322.512994 
L 64.395145 323.729727 
L 66.574142 326.227599 
L 68.75314 328.624575 
L 70.060538 329.694546 
L 70.932137 330.172915 
L 71.803736 330.433372 
L 72.675334 330.462624 
L 73.546933 330.259175 
L 74.418532 329.833412 
L 75.290131 329.20707 
L 76.597529 327.963818 
L 78.776527 325.451712 
L 80.519724 323.505486 
L 81.827123 322.344692 
L 82.698721 321.79034 
L 83.57032 321.445989 
L 84.441919 321.329218 
L 85.313518 321.445989 
L 86.185117 321.79034 
L 87.056716 322.344692 
L 88.364114 323.505486 
L 90.107312 325.451712 
L 92.722108 328.412121 
L 94.029507 329.543539 
L 94.901106 330.07298 
L 95.772705 330.389613 
L 96.644303 330.477273 
L 97.515902 330.331485 
L 98.387501 329.959692 
L 99.2591 329.380873 
L 100.566498 328.191633 
L 102.309696 326.227599 
L 104.924493 323.288928 
L 106.231891 322.187793 
L 107.10349 321.683686 
L 107.975089 321.395025 
L 108.846688 321.336546 
L 109.718286 321.511234 
L 110.589885 321.910172 
L 111.461484 322.512994 
L 112.768883 323.729727 
L 114.94788 326.227599 
L 117.126877 328.624575 
L 118.434275 329.694546 
L 119.305874 330.172915 
L 120.177473 330.433372 
L 121.049072 330.462624 
L 121.920671 330.259175 
L 122.79227 329.833412 
L 123.663868 329.20707 
L 124.971267 327.963818 
L 127.150264 325.451712 
L 128.893462 323.505486 
L 130.20086 322.344692 
L 131.072459 321.79034 
L 131.944058 321.445989 
L 132.815657 321.329218 
L 133.687255 321.445989 
L 134.558854 321.79034 
L 135.430453 322.344692 
L 136.737851 323.505486 
L 138.481049 325.451712 
L 141.095846 328.412121 
L 142.403244 329.543539 
L 143.274843 330.07298 
L 144.146442 330.389613 
L 145.018041 330.477273 
L 145.88964 330.331485 
L 146.761239 329.959692 
L 147.632837 329.380873 
L 148.940236 328.191633 
L 150.683433 326.227599 
L 153.29823 323.288928 
L 154.605628 322.187793 
L 155.477227 321.683686 
L 156.348826 321.395025 
L 157.220425 321.336546 
L 158.092024 321.511234 
L 158.963623 321.910172 
L 159.835222 322.512994 
L 161.14262 323.729727 
L 163.321617 326.227599 
L 165.500614 328.624575 
L 166.808013 329.694546 
L 167.679611 330.172915 
L 168.55121 330.433372 
L 169.422809 330.462624 
L 170.294408 330.259175 
L 171.166007 329.833412 
L 172.037606 329.20707 
L 173.345004 327.963818 
L 175.524001 325.451712 
L 177.267199 323.505486 
L 178.574597 322.344692 
L 179.446196 321.79034 
L 180.317795 321.445989 
L 181.189394 321.329218 
L 182.060993 321.445989 
L 182.932592 321.79034 
L 183.804191 322.344692 
L 185.111589 323.505486 
L 186.854787 325.451712 
L 189.469583 328.412121 
L 190.776982 329.543539 
L 191.64858 330.07298 
L 192.520179 330.389613 
L 193.391778 330.477273 
L 194.263377 330.331485 
L 195.134976 329.959692 
L 196.006575 329.380873 
L 197.313973 328.191633 
L 199.057171 326.227599 
L 201.671967 323.288928 
L 202.979366 322.187793 
L 203.850965 321.683686 
L 204.722563 321.395025 
L 205.594162 321.336546 
L 206.465761 321.511234 
L 207.33736 321.910172 
L 208.208959 322.512994 
L 209.516357 323.729727 
L 211.695354 326.227599 
L 213.874352 328.624575 
L 215.18175 329.694546 
L 216.053349 330.172915 
L 216.924948 330.433372 
L 217.796547 330.462624 
L 218.668145 330.259175 
L 219.539744 329.833412 
L 220.411343 329.20707 
L 221.718741 327.963818 
L 223.897739 325.451712 
L 225.640936 323.505486 
L 226.948335 322.344692 
L 227.819934 321.79034 
L 228.691532 321.445989 
L 229.563131 321.329218 
L 230.43473 321.445989 
L 231.306329 321.79034 
L 232.177928 322.344692 
L 233.485326 323.505486 
L 235.228524 325.451712 
L 237.843321 328.412121 
L 239.150719 329.543539 
L 240.022318 330.07298 
L 240.893917 330.389613 
L 241.765516 330.477273 
L 242.637114 330.331485 
L 243.508713 329.959692 
L 244.380312 329.380873 
L 245.68771 328.191633 
L 247.430908 326.227599 
L 250.045705 323.288928 
L 251.353103 322.187793 
L 252.224702 321.683686 
L 253.096301 321.395025 
L 253.9679 321.336546 
L 254.839499 321.511234 
L 255.711097 321.910172 
L 256.582696 322.512994 
L 257.890095 323.729727 
L 260.069092 326.227599 
L 262.248089 328.624575 
L 263.555487 329.694546 
L 264.427086 330.172915 
L 265.298685 330.433372 
L 266.170284 330.462624 
L 267.041883 330.259175 
L 267.913482 329.833412 
L 268.785081 329.20707 
L 270.092479 327.963818 
L 272.271476 325.451712 
L 274.014674 323.505486 
L 275.322072 322.344692 
L 276.193671 321.79034 
L 277.06527 321.445989 
L 277.936869 321.329218 
L 278.808468 321.445989 
L 279.680066 321.79034 
L 280.551665 322.344692 
L 281.859064 323.505486 
L 283.602261 325.451712 
L 286.217058 328.412121 
L 287.524456 329.543539 
L 288.396055 330.07298 
L 289.267654 330.389613 
L 290.139253 330.477273 
L 291.010852 330.331485 
L 291.882451 329.959692 
L 292.75405 329.380873 
L 294.061448 328.191633 
L 295.804646 326.227599 
L 298.419442 323.288928 
L 299.72684 322.187793 
L 300.598439 321.683686 
L 301.470038 321.395025 
L 302.341637 321.336546 
L 303.213236 321.511234 
L 304.084835 321.910172 
L 304.956434 322.512994 
L 306.263832 323.729727 
L 308.442829 326.227599 
L 310.621826 328.624575 
L 311.929225 329.694546 
L 312.800824 330.172915 
L 313.672422 330.433372 
L 314.544021 330.462624 
L 315.41562 330.259175 
L 316.287219 329.833412 
L 317.158818 329.20707 
L 318.466216 327.963818 
L 320.645213 325.451712 
L 322.388411 323.505486 
L 323.695809 322.344692 
L 324.567408 321.79034 
L 325.439007 321.445989 
L 326.310606 321.329218 
L 327.182205 321.445989 
L 328.053804 321.79034 
L 328.925403 322.344692 
L 330.232801 323.505486 
L 331.975999 325.451712 
L 334.590795 328.412121 
L 335.898194 329.543539 
L 336.769793 330.07298 
L 337.641391 330.389613 
L 338.51299 330.477273 
L 339.384589 330.331485 
L 340.256188 329.959692 
L 341.127787 329.380873 
L 342.435185 328.191633 
L 344.178383 326.227599 
L 346.79318 323.288928 
L 348.100578 322.187793 
L 348.972177 321.683686 
L 349.843776 321.395025 
L 350.715374 321.336546 
L 351.586973 321.511234 
L 352.458572 321.910172 
L 353.330171 322.512994 
L 354.637569 323.729727 
L 356.816567 326.227599 
L 358.995564 328.624575 
L 360.302962 329.694546 
L 361.174561 330.172915 
L 362.04616 330.433372 
L 362.917759 330.462624 
L 363.789358 330.259175 
L 364.660956 329.833412 
L 365.532555 329.20707 
L 366.839954 327.963818 
L 369.018951 325.451712 
L 370.762149 323.505486 
L 372.069547 322.344692 
L 372.941146 321.79034 
L 373.812745 321.445989 
L 374.684343 321.329218 
L 375.555942 321.445989 
L 376.427541 321.79034 
L 377.29914 322.344692 
L 378.606538 323.505486 
L 380.349736 325.451712 
L 382.964533 328.412121 
L 384.271931 329.543539 
L 385.14353 330.07298 
L 386.015129 330.389613 
L 386.886728 330.477273 
L 387.758327 330.331485 
L 388.629925 329.959692 
L 389.501524 329.380873 
L 390.808923 328.191633 
L 392.55212 326.227599 
L 395.166917 323.288928 
L 396.474315 322.187793 
L 397.345914 321.683686 
L 398.217513 321.395025 
L 399.089112 321.336546 
L 399.960711 321.511234 
L 400.83231 321.910172 
L 401.703908 322.512994 
L 403.011307 323.729727 
L 405.190304 326.227599 
L 407.369301 328.624575 
L 408.676699 329.694546 
L 409.548298 330.172915 
L 410.419897 330.433372 
L 411.291496 330.462624 
L 412.163095 330.259175 
L 413.034694 329.833412 
L 413.906293 329.20707 
L 415.213691 327.963818 
L 417.392688 325.451712 
L 419.135886 323.505486 
L 420.443284 322.344692 
L 421.314883 321.79034 
L 422.186482 321.445989 
L 423.058081 321.329218 
L 423.92968 321.445989 
L 424.801279 321.79034 
L 425.672877 322.344692 
L 426.980276 323.505486 
L 428.723473 325.451712 
L 431.33827 328.412121 
L 432.645668 329.543539 
L 433.517267 330.07298 
L 434.388866 330.389613 
L 435.260465 330.477273 
L 436.132064 330.331485 
L 437.003663 329.959692 
L 437.875262 329.380873 
L 439.18266 328.191633 
L 440.925858 326.227599 
L 443.540654 323.288928 
L 444.848053 322.187793 
L 445.719651 321.683686 
L 446.59125 321.395025 
L 447.462849 321.336546 
L 448.334448 321.511234 
L 449.206047 321.910172 
L 450.077646 322.512994 
L 451.385044 323.729727 
L 453.564041 326.227599 
L 455.743038 328.624575 
L 457.050437 329.694546 
L 457.922036 330.172915 
L 458.793635 330.433372 
L 459.665233 330.462624 
L 460.536832 330.259175 
L 461.408431 329.833412 
L 462.28003 329.20707 
L 463.587428 327.963818 
L 465.766426 325.451712 
L 467.509623 323.505486 
L 468.817022 322.344692 
L 469.68862 321.79034 
L 470.560219 321.445989 
L 471.431818 321.329218 
L 471.431818 321.329218 
" style="fill:none;stroke:#9467bd;stroke-linecap:square;stroke-width:1.5;"/>
   </g>
   <g id="patch_3">
    <path d="M 14.3 345.7 
L 14.3 10.8 
" style="fill:none;stroke:#000000;stroke-linecap:square;stroke-linejoin:miter;stroke-width:0.8;"/>
   </g>
   <g id="patch_4">
    <path d="M 493.2 345.7 
L 493.2 10.8 
" style="fill:none;stroke:#000000;stroke-linecap:square;stroke-linejoin:miter;stroke-width:0.8;"/>
   </g>
   <g id="patch_5">
    <path d="M 14.3 345.7 
L 493.2 345.7 
" style="fill:none;stroke:#000000;stroke-linecap:square;stroke-linejoin:miter;stroke-width:0.8;"/>
   </g>
   <g id="patch_6">
    <path d="M 14.3 10.8 
L 493.2 10.8 
" style="fill:none;stroke:#000000;stroke-linecap:square;stroke-linejoin:miter;stroke-width:0.8;"/>
   </g>
   <g id="legend_1">
    <g id="patch_7">
     <path d="M 426.764062 340.7 
L 486.2 340.7 
Q 488.2 340.7 488.2 338.7 
L 488.2 266.309375 
Q 488.2 264.309375 486.2 264.309375 
L 426.764062 264.309375 
Q 424.764062 264.309375 424.764062 266.309375 
L 424.764062 338.7 
Q 424.764062 340.7 426.764062 340.7 
z
" style="fill:#ffffff;opacity:0.8;stroke:#cccccc;stroke-linejoin:miter;"/>
    </g>
    <g id="line2d_6">
     <path d="M 428.764062 272.407812 
L 448.764062 272.407812 
" style="fill:none;stroke:#1f77b4;stroke-linecap:square;stroke-width:1.5;"/>
    </g>
    <g id="line2d_7"/>
    <g id="text_1">
     <!-- n = 1 -->
     <defs>
      <path d="M 54.890625 33.015625 
L 54.890625 0 
L 45.90625 0 
L 45.90625 32.71875 
Q 45.90625 40.484375 42.875 44.328125 
Q 39.84375 48.1875 33.796875 48.1875 
Q 26.515625 48.1875 22.3125 43.546875 
Q 18.109375 38.921875 18.109375 30.90625 
L 18.109375 0 
L 9.078125 0 
L 9.078125 54.6875 
L 18.109375 54.6875 
L 18.109375 46.1875 
Q 21.34375 51.125 25.703125 53.5625 
Q 30.078125 56 35.796875 56 
Q 45.21875 56 50.046875 50.171875 
Q 54.890625 44.34375 54.890625 33.015625 
z
" id="DejaVuSans-110"/>
      <path id="DejaVuSans-32"/>
      <path d="M 10.59375 45.40625 
L 73.1875 45.40625 
L 73.1875 37.203125 
L 10.59375 37.203125 
z
M 10.59375 25.484375 
L 73.1875 25.484375 
L 73.1875 17.1875 
L 10.59375 17.1875 
z
" id="DejaVuSans-61"/>
      <path d="M 12.40625 8.296875 
L 28.515625 8.296875 
L 28.515625 63.921875 
L 10.984375 60.40625 
L 10.984375 69.390625 
L 28.421875 72.90625 
L 38.28125 72.90625 
L 38.28125 8.296875 
L 54.390625 8.296875 
L 54.390625 0 
L 12.40625 0 
z
" id="DejaVuSans-49"/>
     </defs>
     <g transform="translate(456.764062 275.907812)scale(0.1 -0.1)">
      <use xlink:href="#DejaVuSans-110"/>
      <use x="63.378906" xlink:href="#DejaVuSans-32"/>
      <use x="95.166016" xlink:href="#DejaVuSans-61"/>
      <use x="178.955078" xlink:href="#DejaVuSans-32"/>
      <use x="210.742188" xlink:href="#DejaVuSans-49"/>
     </g>
    </g>
    <g id="line2d_8">
     <path d="M 428.764062 287.085938 
L 448.764062 287.085938 
" style="fill:none;stroke:#ff7f0e;stroke-linecap:square;stroke-width:1.5;"/>
    </g>
    <g id="line2d_9"/>
    <g id="text_2">
     <!-- n = 2 -->
     <defs>
      <path d="M 19.1875 8.296875 
L 53.609375 8.296875 
L 53.609375 0 
L 7.328125 0 
L 7.328125 8.296875 
Q 12.9375 14.109375 22.625 23.890625 
Q 32.328125 33.6875 34.8125 36.53125 
Q 39.546875 41.84375 41.421875 45.53125 
Q 43.3125 49.21875 43.3125 52.78125 
Q 43.3125 58.59375 39.234375 62.25 
Q 35.15625 65.921875 28.609375 65.921875 
Q 23.96875 65.921875 18.8125 64.3125 
Q 13.671875 62.703125 7.8125 59.421875 
L 7.8125 69.390625 
Q 13.765625 71.78125 18.9375 73 
Q 24.125 74.21875 28.421875 74.21875 
Q 39.75 74.21875 46.484375 68.546875 
Q 53.21875 62.890625 53.21875 53.421875 
Q 53.21875 48.921875 51.53125 44.890625 
Q 49.859375 40.875 45.40625 35.40625 
Q 44.1875 33.984375 37.640625 27.21875 
Q 31.109375 20.453125 19.1875 8.296875 
z
" id="DejaVuSans-50"/>
     </defs>
     <g transform="translate(456.764062 290.585938)scale(0.1 -0.1)">
      <use xlink:href="#DejaVuSans-110"/>
      <use x="63.378906" xlink:href="#DejaVuSans-32"/>
      <use x="95.166016" xlink:href="#DejaVuSans-61"/>
      <use x="178.955078" xlink:href="#DejaVuSans-32"/>
      <use x="210.742188" xlink:href="#DejaVuSans-50"/>
     </g>
    </g>
    <g id="line2d_10">
     <path d="M 428.764062 301.764063 
L 448.764062 301.764063 
" style="fill:none;stroke:#2ca02c;stroke-linecap:square;stroke-width:1.5;"/>
    </g>
    <g id="line2d_11"/>
    <g id="text_3">
     <!-- n = 3 -->
     <defs>
      <path d="M 40.578125 39.3125 
Q 47.65625 37.796875 51.625 33 
Q 55.609375 28.21875 55.609375 21.1875 
Q 55.609375 10.40625 48.1875 4.484375 
Q 40.765625 -1.421875 27.09375 -1.421875 
Q 22.515625 -1.421875 17.65625 -0.515625 
Q 12.796875 0.390625 7.625 2.203125 
L 7.625 11.71875 
Q 11.71875 9.328125 16.59375 8.109375 
Q 21.484375 6.890625 26.8125 6.890625 
Q 36.078125 6.890625 40.9375 10.546875 
Q 45.796875 14.203125 45.796875 21.1875 
Q 45.796875 27.640625 41.28125 31.265625 
Q 36.765625 34.90625 28.71875 34.90625 
L 20.21875 34.90625 
L 20.21875 43.015625 
L 29.109375 43.015625 
Q 36.375 43.015625 40.234375 45.921875 
Q 44.09375 48.828125 44.09375 54.296875 
Q 44.09375 59.90625 40.109375 62.90625 
Q 36.140625 65.921875 28.71875 65.921875 
Q 24.65625 65.921875 20.015625 65.03125 
Q 15.375 64.15625 9.8125 62.3125 
L 9.8125 71.09375 
Q 15.4375 72.65625 20.34375 73.4375 
Q 25.25 74.21875 29.59375 74.21875 
Q 40.828125 74.21875 47.359375 69.109375 
Q 53.90625 64.015625 53.90625 55.328125 
Q 53.90625 49.265625 50.4375 45.09375 
Q 46.96875 40.921875 40.578125 39.3125 
z
" id="DejaVuSans-51"/>
     </defs>
     <g transform="translate(456.764062 305.264063)scale(0.1 -0.1)">
      <use xlink:href="#DejaVuSans-110"/>
      <use x="63.378906" xlink:href="#DejaVuSans-32"/>
      <use x="95.166016" xlink:href="#DejaVuSans-61"/>
      <use x="178.955078" xlink:href="#DejaVuSans-32"/>
      <use x="210.742188" xlink:href="#DejaVuSans-51"/>
     </g>
    </g>
    <g id="line2d_12">
     <path d="M 428.764062 316.442187 
L 448.764062 316.442187 
" style="fill:none;stroke:#d62728;stroke-linecap:square;stroke-width:1.5;"/>
    </g>
    <g id="line2d_13"/>
    <g id="text_4">
     <!-- n = 4 -->
     <defs>
      <path d="M 37.796875 64.3125 
L 12.890625 25.390625 
L 37.796875 25.390625 
z
M 35.203125 72.90625 
L 47.609375 72.90625 
L 47.609375 25.390625 
L 58.015625 25.390625 
L 58.015625 17.1875 
L 47.609375 17.1875 
L 47.609375 0 
L 37.796875 0 
L 37.796875 17.1875 
L 4.890625 17.1875 
L 4.890625 26.703125 
z
" id="DejaVuSans-52"/>
     </defs>
     <g transform="translate(456.764062 319.942187)scale(0.1 -0.1)">
      <use xlink:href="#DejaVuSans-110"/>
      <use x="63.378906" xlink:href="#DejaVuSans-32"/>
      <use x="95.166016" xlink:href="#DejaVuSans-61"/>
      <use x="178.955078" xlink:href="#DejaVuSans-32"/>
      <use x="210.742188" xlink:href="#DejaVuSans-52"/>
     </g>
    </g>
    <g id="line2d_14">
     <path d="M 428.764062 331.120313 
L 448.764062 331.120313 
" style="fill:none;stroke:#9467bd;stroke-linecap:square;stroke-width:1.5;"/>
    </g>
    <g id="line2d_15"/>
    <g id="text_5">
     <!-- n = 5 -->
     <defs>
      <path d="M 10.796875 72.90625 
L 49.515625 72.90625 
L 49.515625 64.59375 
L 19.828125 64.59375 
L 19.828125 46.734375 
Q 21.96875 47.46875 24.109375 47.828125 
Q 26.265625 48.1875 28.421875 48.1875 
Q 40.625 48.1875 47.75 41.5 
Q 54.890625 34.8125 54.890625 23.390625 
Q 54.890625 11.625 47.5625 5.09375 
Q 40.234375 -1.421875 26.90625 -1.421875 
Q 22.3125 -1.421875 17.546875 -0.640625 
Q 12.796875 0.140625 7.71875 1.703125 
L 7.71875 11.625 
Q 12.109375 9.234375 16.796875 8.0625 
Q 21.484375 6.890625 26.703125 6.890625 
Q 35.15625 6.890625 40.078125 11.328125 
Q 45.015625 15.765625 45.015625 23.390625 
Q 45.015625 31 40.078125 35.4375 
Q 35.15625 39.890625 26.703125 39.890625 
Q 22.75 39.890625 18.8125 39.015625 
Q 14.890625 38.140625 10.796875 36.28125 
z
" id="DejaVuSans-53"/>
     </defs>
     <g transform="translate(456.764062 334.620313)scale(0.1 -0.1)">
      <use xlink:href="#DejaVuSans-110"/>
      <use x="63.378906" xlink:href="#DejaVuSans-32"/>
      <use x="95.166016" xlink:href="#DejaVuSans-61"/>
      <use x="178.955078" xlink:href="#DejaVuSans-32"/>
      <use x="210.742188" xlink:href="#DejaVuSans-53"/>
     </g>
    </g>
   </g>
  </g>
 </g>
 <defs>
  <clipPath id="p6394ad6a1d">
   <rect height="334.9" width="478.9" x="14.3" y="10.8"/>
  </clipPath>
 </defs>
</svg>
