<?xml version="1.0" encoding="utf-8" standalone="no"?>
<!DOCTYPE svg PUBLIC "-//W3C//DTD SVG 1.1//EN"
  "http://www.w3.org/Graphics/SVG/1.1/DTD/svg11.dtd">
<!-- Created with matplotlib (https://matplotlib.org/) -->
<svg height="360pt" version="1.1" viewBox="0 0 360 360" width="360pt" xmlns="http://www.w3.org/2000/svg" xmlns:xlink="http://www.w3.org/1999/xlink">
 <defs>
  <style type="text/css">
*{stroke-linecap:butt;stroke-linejoin:round;}
  </style>
 </defs>
 <g id="figure_1">
  <g id="patch_1">
   <path d="M 0 360 
L 360 360 
L 360 0 
L 0 0 
z
" style="fill:none;"/>
  </g>
  <g id="axes_1">
   <g id="patch_2">
    <path clip-path="url(#p2d9e5b398d)" d="M 222.3 180 
C 222.3 180 222.3 180 222.3 180 
C 222.3 180 222.3 180 222.3 180 
C 222.3 180 222.3 180 222.3 180 
C 222.3 180 222.3 180 222.3 180 
C 222.3 180 222.3 180 222.3 180 
C 222.3 180 222.3 180 222.3 180 
C 222.3 180 222.3 180 222.3 180 
C 222.3 180 222.3 180 222.3 180 
z
" style="fill:none;opacity:0.8;stroke:#0000ff;stroke-linejoin:miter;stroke-width:2;"/>
   </g>
   <g id="patch_3">
    <path clip-path="url(#p2d9e5b398d)" d="M 222.3 182.538 
C 222.973085 182.538 223.618694 182.27058 224.094637 181.794637 
C 224.57058 181.318694 224.838 180.673085 224.838 180 
C 224.838 179.326915 224.57058 178.681306 224.094637 178.205363 
C 223.618694 177.72942 222.973085 177.462 222.3 177.462 
C 221.626915 177.462 220.981306 177.72942 220.505363 178.205363 
C 220.02942 178.681306 219.762 179.326915 219.762 180 
C 219.762 180.673085 220.02942 181.318694 220.505363 181.794637 
C 220.981306 182.27058 221.626915 182.538 222.3 182.538 
z
" style="fill:#ff0000;opacity:0.8;stroke:#ff0000;stroke-linejoin:miter;"/>
   </g>
   <g id="patch_4">
    <path clip-path="url(#p2d9e5b398d)" d="M 211.725 201.15 
C 217.334046 201.15 222.714114 198.921503 226.680308 194.955308 
C 230.646503 190.989114 232.875 185.609046 232.875 180 
C 232.875 174.390954 230.646503 169.010886 226.680308 165.044692 
C 222.714114 161.078497 217.334046 158.85 211.725 158.85 
C 206.115954 158.85 200.735886 161.078497 196.769692 165.044692 
C 192.803497 169.010886 190.575 174.390954 190.575 180 
C 190.575 185.609046 192.803497 190.989114 196.769692 194.955308 
C 200.735886 198.921503 206.115954 201.15 211.725 201.15 
z
" style="fill:none;opacity:0.711674;stroke:#0000ff;stroke-linejoin:miter;stroke-width:2;"/>
   </g>
   <g id="patch_5">
    <path clip-path="url(#p2d9e5b398d)" d="M 209.61 182.538 
C 210.283085 182.538 210.928694 182.27058 211.404637 181.794637 
C 211.88058 181.318694 212.148 180.673085 212.148 180 
C 212.148 179.326915 211.88058 178.681306 211.404637 178.205363 
C 210.928694 177.72942 210.283085 177.462 209.61 177.462 
C 208.936915 177.462 208.291306 177.72942 207.815363 178.205363 
C 207.33942 178.681306 207.072 179.326915 207.072 180 
C 207.072 180.673085 207.33942 181.318694 207.815363 181.794637 
C 208.291306 182.27058 208.936915 182.538 209.61 182.538 
z
" style="fill:#ff0000;opacity:0.711674;stroke:#ff0000;stroke-linejoin:miter;"/>
   </g>
   <g id="patch_6">
    <path clip-path="url(#p2d9e5b398d)" d="M 201.15 222.3 
C 212.368091 222.3 223.128229 217.843005 231.060617 209.910617 
C 238.993005 201.978229 243.45 191.218091 243.45 180 
C 243.45 168.781909 238.993005 158.021771 231.060617 150.089383 
C 223.128229 142.156995 212.368091 137.7 201.15 137.7 
C 189.931909 137.7 179.171771 142.156995 171.239383 150.089383 
C 163.306995 158.021771 158.85 168.781909 158.85 180 
C 158.85 191.218091 163.306995 201.978229 171.239383 209.910617 
C 179.171771 217.843005 189.931909 222.3 201.15 222.3 
z
" style="fill:none;opacity:0.628512;stroke:#0000ff;stroke-linejoin:miter;stroke-width:2;"/>
   </g>
   <g id="patch_7">
    <path clip-path="url(#p2d9e5b398d)" d="M 196.92 182.538 
C 197.593085 182.538 198.238694 182.27058 198.714637 181.794637 
C 199.19058 181.318694 199.458 180.673085 199.458 180 
C 199.458 179.326915 199.19058 178.681306 198.714637 178.205363 
C 198.238694 177.72942 197.593085 177.462 196.92 177.462 
C 196.246915 177.462 195.601306 177.72942 195.125363 178.205363 
C 194.64942 178.681306 194.382 179.326915 194.382 180 
C 194.382 180.673085 194.64942 181.318694 195.125363 181.794637 
C 195.601306 182.27058 196.246915 182.538 196.92 182.538 
z
" style="fill:#ff0000;opacity:0.628512;stroke:#ff0000;stroke-linejoin:miter;"/>
   </g>
   <g id="patch_8">
    <path clip-path="url(#p2d9e5b398d)" d="M 190.575 243.45 
C 207.402137 243.45 223.542343 236.764508 235.440925 224.865925 
C 247.339508 212.967343 254.025 196.827137 254.025 180 
C 254.025 163.172863 247.339508 147.032657 235.440925 135.134075 
C 223.542343 123.235492 207.402137 116.55 190.575 116.55 
C 173.747863 116.55 157.607657 123.235492 145.709075 135.134075 
C 133.810492 147.032657 127.125 163.172863 127.125 180 
C 127.125 196.827137 133.810492 212.967343 145.709075 224.865925 
C 157.607657 236.764508 173.747863 243.45 190.575 243.45 
z
" style="fill:none;opacity:0.550517;stroke:#0000ff;stroke-linejoin:miter;stroke-width:2;"/>
   </g>
   <g id="patch_9">
    <path clip-path="url(#p2d9e5b398d)" d="M 184.23 182.538 
C 184.903085 182.538 185.548694 182.27058 186.024637 181.794637 
C 186.50058 181.318694 186.768 180.673085 186.768 180 
C 186.768 179.326915 186.50058 178.681306 186.024637 178.205363 
C 185.548694 177.72942 184.903085 177.462 184.23 177.462 
C 183.556915 177.462 182.911306 177.72942 182.435363 178.205363 
C 181.95942 178.681306 181.692 179.326915 181.692 180 
C 181.692 180.673085 181.95942 181.318694 182.435363 181.794637 
C 182.911306 182.27058 183.556915 182.538 184.23 182.538 
z
" style="fill:#ff0000;opacity:0.550517;stroke:#ff0000;stroke-linejoin:miter;"/>
   </g>
   <g id="patch_10">
    <path clip-path="url(#p2d9e5b398d)" d="M 180 264.6 
C 202.436182 264.6 223.956457 255.68601 239.821234 239.821234 
C 255.68601 223.956457 264.6 202.436182 264.6 180 
C 264.6 157.563818 255.68601 136.043543 239.821234 120.178766 
C 223.956457 104.31399 202.436182 95.4 180 95.4 
C 157.563818 95.4 136.043543 104.31399 120.178766 120.178766 
C 104.31399 136.043543 95.4 157.563818 95.4 180 
C 95.4 202.436182 104.31399 223.956457 120.178766 239.821234 
C 136.043543 255.68601 157.563818 264.6 180 264.6 
z
" style="fill:none;opacity:0.477686;stroke:#0000ff;stroke-linejoin:miter;stroke-width:2;"/>
   </g>
   <g id="patch_11">
    <path clip-path="url(#p2d9e5b398d)" d="M 171.54 182.538 
C 172.213085 182.538 172.858694 182.27058 173.334637 181.794637 
C 173.81058 181.318694 174.078 180.673085 174.078 180 
C 174.078 179.326915 173.81058 178.681306 173.334637 178.205363 
C 172.858694 177.72942 172.213085 177.462 171.54 177.462 
C 170.866915 177.462 170.221306 177.72942 169.745363 178.205363 
C 169.26942 178.681306 169.002 179.326915 169.002 180 
C 169.002 180.673085 169.26942 181.318694 169.745363 181.794637 
C 170.221306 182.27058 170.866915 182.538 171.54 182.538 
z
" style="fill:#ff0000;opacity:0.477686;stroke:#ff0000;stroke-linejoin:miter;"/>
   </g>
   <g id="patch_12">
    <path clip-path="url(#p2d9e5b398d)" d="M 169.425 285.75 
C 197.470228 285.75 224.370571 274.607513 244.201542 254.776542 
C 264.032513 234.945571 275.175 208.045228 275.175 180 
C 275.175 151.954772 264.032513 125.054429 244.201542 105.223458 
C 224.370571 85.392487 197.470228 74.25 169.425 74.25 
C 141.379772 74.25 114.479429 85.392487 94.648458 105.223458 
C 74.817487 125.054429 63.675 151.954772 63.675 180 
C 63.675 208.045228 74.817487 234.945571 94.648458 254.776542 
C 114.479429 274.607513 141.379772 285.75 169.425 285.75 
z
" style="fill:none;opacity:0.410021;stroke:#0000ff;stroke-linejoin:miter;stroke-width:2;"/>
   </g>
   <g id="patch_13">
    <path clip-path="url(#p2d9e5b398d)" d="M 158.85 182.538 
C 159.523085 182.538 160.168694 182.27058 160.644637 181.794637 
C 161.12058 181.318694 161.388 180.673085 161.388 180 
C 161.388 179.326915 161.12058 178.681306 160.644637 178.205363 
C 160.168694 177.72942 159.523085 177.462 158.85 177.462 
C 158.176915 177.462 157.531306 177.72942 157.055363 178.205363 
C 156.57942 178.681306 156.312 179.326915 156.312 180 
C 156.312 180.673085 156.57942 181.318694 157.055363 181.794637 
C 157.531306 182.27058 158.176915 182.538 158.85 182.538 
z
" style="fill:#ff0000;opacity:0.410021;stroke:#ff0000;stroke-linejoin:miter;"/>
   </g>
   <g id="patch_14">
    <path clip-path="url(#p2d9e5b398d)" d="M 158.85 306.9 
C 192.504273 306.9 224.784686 293.529015 248.581851 269.731851 
C 272.379015 245.934686 285.75 213.654273 285.75 180 
C 285.75 146.345727 272.379015 114.065314 248.581851 90.268149 
C 224.784686 66.470985 192.504273 53.1 158.85 53.1 
C 125.195727 53.1 92.915314 66.470985 69.118149 90.268149 
C 45.320985 114.065314 31.95 146.345727 31.95 180 
C 31.95 213.654273 45.320985 245.934686 69.118149 269.731851 
C 92.915314 293.529015 125.195727 306.9 158.85 306.9 
z
" style="fill:none;opacity:0.347521;stroke:#0000ff;stroke-linejoin:miter;stroke-width:2;"/>
   </g>
   <g id="patch_15">
    <path clip-path="url(#p2d9e5b398d)" d="M 146.16 182.538 
C 146.833085 182.538 147.478694 182.27058 147.954637 181.794637 
C 148.43058 181.318694 148.698 180.673085 148.698 180 
C 148.698 179.326915 148.43058 178.681306 147.954637 178.205363 
C 147.478694 177.72942 146.833085 177.462 146.16 177.462 
C 145.486915 177.462 144.841306 177.72942 144.365363 178.205363 
C 143.88942 178.681306 143.622 179.326915 143.622 180 
C 143.622 180.673085 143.88942 181.318694 144.365363 181.794637 
C 144.841306 182.27058 145.486915 182.538 146.16 182.538 
z
" style="fill:#ff0000;opacity:0.347521;stroke:#ff0000;stroke-linejoin:miter;"/>
   </g>
   <g id="patch_16">
    <path clip-path="url(#p2d9e5b398d)" d="M 148.275 328.05 
C 187.538319 328.05 225.1988 312.450518 252.962159 284.687159 
C 280.725518 256.9238 296.325 219.263319 296.325 180 
C 296.325 140.736681 280.725518 103.0762 252.962159 75.312841 
C 225.1988 47.549482 187.538319 31.95 148.275 31.95 
C 109.011681 31.95 71.3512 47.549482 43.587841 75.312841 
C 15.824482 103.0762 0.225 140.736681 0.225 180 
C 0.225 219.263319 15.824482 256.9238 43.587841 284.687159 
C 71.3512 312.450518 109.011681 328.05 148.275 328.05 
z
" style="fill:none;opacity:0.290186;stroke:#0000ff;stroke-linejoin:miter;stroke-width:2;"/>
   </g>
   <g id="patch_17">
    <path clip-path="url(#p2d9e5b398d)" d="M 133.47 182.538 
C 134.143085 182.538 134.788694 182.27058 135.264637 181.794637 
C 135.74058 181.318694 136.008 180.673085 136.008 180 
C 136.008 179.326915 135.74058 178.681306 135.264637 178.205363 
C 134.788694 177.72942 134.143085 177.462 133.47 177.462 
C 132.796915 177.462 132.151306 177.72942 131.675363 178.205363 
C 131.19942 178.681306 130.932 179.326915 130.932 180 
C 130.932 180.673085 131.19942 181.318694 131.675363 181.794637 
C 132.151306 182.27058 132.796915 182.538 133.47 182.538 
z
" style="fill:#ff0000;opacity:0.290186;stroke:#ff0000;stroke-linejoin:miter;"/>
   </g>
   <g id="patch_18">
    <path clip-path="url(#p2d9e5b398d)" d="M 137.7 349.2 
C 182.572365 349.2 225.612914 331.372021 257.342467 299.642467 
C 289.072021 267.912914 306.9 224.872365 306.9 180 
C 306.9 135.127635 289.072021 92.087086 257.342467 60.357533 
C 225.612914 28.627979 182.572365 10.8 137.7 10.8 
C 92.827635 10.8 49.787086 28.627979 18.057533 60.357533 
C -13.672021 92.087086 -31.5 135.127635 -31.5 180 
C -31.5 224.872365 -13.672021 267.912914 18.057533 299.642467 
C 49.787086 331.372021 92.827635 349.2 137.7 349.2 
z
" style="fill:none;opacity:0.238017;stroke:#0000ff;stroke-linejoin:miter;stroke-width:2;"/>
   </g>
   <g id="patch_19">
    <path clip-path="url(#p2d9e5b398d)" d="M 120.78 182.538 
C 121.453085 182.538 122.098694 182.27058 122.574637 181.794637 
C 123.05058 181.318694 123.318 180.673085 123.318 180 
C 123.318 179.326915 123.05058 178.681306 122.574637 178.205363 
C 122.098694 177.72942 121.453085 177.462 120.78 177.462 
C 120.106915 177.462 119.461306 177.72942 118.985363 178.205363 
C 118.50942 178.681306 118.242 179.326915 118.242 180 
C 118.242 180.673085 118.50942 181.318694 118.985363 181.794637 
C 119.461306 182.27058 120.106915 182.538 120.78 182.538 
z
" style="fill:#ff0000;opacity:0.238017;stroke:#ff0000;stroke-linejoin:miter;"/>
   </g>
   <g id="patch_20">
    <path clip-path="url(#p2d9e5b398d)" d="M 127.125 370.35 
C 177.60641 370.35 226.027028 350.293523 261.722776 314.597776 
C 297.418523 278.902028 317.475 230.48141 317.475 180 
C 317.475 129.51859 297.418523 81.097972 261.722776 45.402224 
C 226.027028 9.706477 177.60641 -10.35 127.125 -10.35 
C 76.64359 -10.35 28.222972 9.706477 -7.472776 45.402224 
C -43.168523 81.097972 -63.225 129.51859 -63.225 180 
C -63.225 230.48141 -43.168523 278.902028 -7.472776 314.597776 
C 28.222972 350.293523 76.64359 370.35 127.125 370.35 
z
" style="fill:none;opacity:0.191012;stroke:#0000ff;stroke-linejoin:miter;stroke-width:2;"/>
   </g>
   <g id="patch_21">
    <path clip-path="url(#p2d9e5b398d)" d="M 108.09 182.538 
C 108.763085 182.538 109.408694 182.27058 109.884637 181.794637 
C 110.36058 181.318694 110.628 180.673085 110.628 180 
C 110.628 179.326915 110.36058 178.681306 109.884637 178.205363 
C 109.408694 177.72942 108.763085 177.462 108.09 177.462 
C 107.416915 177.462 106.771306 177.72942 106.295363 178.205363 
C 105.81942 178.681306 105.552 179.326915 105.552 180 
C 105.552 180.673085 105.81942 181.318694 106.295363 181.794637 
C 106.771306 182.27058 107.416915 182.538 108.09 182.538 
z
" style="fill:#ff0000;opacity:0.191012;stroke:#ff0000;stroke-linejoin:miter;"/>
   </g>
   <g id="patch_22">
    <path clip-path="url(#p2d9e5b398d)" d="M 116.55 391.5 
C 172.640456 391.5 226.441143 369.215026 266.103084 329.553084 
C 305.765026 289.891143 328.05 236.090456 328.05 180 
C 328.05 123.909544 305.765026 70.108857 266.103084 30.446916 
C 226.441143 -9.215026 172.640456 -31.5 116.55 -31.5 
C 60.459544 -31.5 6.658857 -9.215026 -33.003084 30.446916 
C -72.665026 70.108857 -94.95 123.909544 -94.95 180 
C -94.95 236.090456 -72.665026 289.891143 -33.003084 329.553084 
C 6.658857 369.215026 60.459544 391.5 116.55 391.5 
z
" style="fill:none;opacity:0.149174;stroke:#0000ff;stroke-linejoin:miter;stroke-width:2;"/>
   </g>
   <g id="patch_23">
    <path clip-path="url(#p2d9e5b398d)" d="M 95.4 182.538 
C 96.073085 182.538 96.718694 182.27058 97.194637 181.794637 
C 97.67058 181.318694 97.938 180.673085 97.938 180 
C 97.938 179.326915 97.67058 178.681306 97.194637 178.205363 
C 96.718694 177.72942 96.073085 177.462 95.4 177.462 
C 94.726915 177.462 94.081306 177.72942 93.605363 178.205363 
C 93.12942 178.681306 92.862 179.326915 92.862 180 
C 92.862 180.673085 93.12942 181.318694 93.605363 181.794637 
C 94.081306 182.27058 94.726915 182.538 95.4 182.538 
z
" style="fill:#ff0000;opacity:0.149174;stroke:#ff0000;stroke-linejoin:miter;"/>
   </g>
   <g id="patch_24">
    <path clip-path="url(#p2d9e5b398d)" d="M 222.3 183.384 
C 223.197447 183.384 224.058258 183.02744 224.692849 182.392849 
C 225.32744 181.758258 225.684 180.897447 225.684 180 
C 225.684 179.102553 225.32744 178.241742 224.692849 177.607151 
C 224.058258 176.97256 223.197447 176.616 222.3 176.616 
C 221.402553 176.616 220.541742 176.97256 219.907151 177.607151 
C 219.27256 178.241742 218.916 179.102553 218.916 180 
C 218.916 180.897447 219.27256 181.758258 219.907151 182.392849 
C 220.541742 183.02744 221.402553 183.384 222.3 183.384 
z
" style="stroke:#000000;stroke-linejoin:miter;"/>
   </g>
   <g id="patch_25">
    <path d="M 230.76 178 
Q 262.82812 178 294.896239 178 
L 294.896239 174 
Q 300.89812 177 306.9 180 
Q 300.89812 183 294.896239 186 
L 294.896239 182 
Q 262.82812 182 230.76 182 
L 230.76 178 
z
" style="stroke:#000000;stroke-linecap:round;"/>
   </g>
   <g id="text_1">
    <!-- $u_s$ -->
    <defs>
     <path d="M 6.6875 21.6875 
L 13.09375 54.6875 
L 22.125 54.6875 
L 15.71875 22.015625 
Q 15.234375 19.625 15.015625 17.921875 
Q 14.796875 16.21875 14.796875 15.09375 
Q 14.796875 10.9375 17.328125 8.65625 
Q 19.875 6.390625 24.515625 6.390625 
Q 31.734375 6.390625 37 11.265625 
Q 42.28125 16.15625 43.890625 24.421875 
L 49.90625 54.6875 
L 58.890625 54.6875 
L 48.296875 0 
L 39.3125 0 
L 41.109375 8.59375 
Q 37.3125 3.8125 32.0625 1.1875 
Q 26.8125 -1.421875 20.90625 -1.421875 
Q 13.71875 -1.421875 9.71875 2.515625 
Q 5.71875 6.453125 5.71875 13.484375 
Q 5.71875 14.9375 5.953125 17.140625 
Q 6.203125 19.34375 6.6875 21.6875 
z
" id="DejaVuSans-Oblique-117"/>
     <path d="M 50 53.078125 
L 48.296875 44.578125 
Q 44.734375 46.53125 40.765625 47.5 
Q 36.8125 48.484375 32.625 48.484375 
Q 25.53125 48.484375 21.453125 46.0625 
Q 17.390625 43.65625 17.390625 39.5 
Q 17.390625 34.671875 26.859375 32.078125 
Q 27.59375 31.890625 27.9375 31.78125 
L 30.8125 30.90625 
Q 39.796875 28.421875 42.796875 25.6875 
Q 45.796875 22.953125 45.796875 18.21875 
Q 45.796875 9.515625 38.890625 4.046875 
Q 31.984375 -1.421875 20.796875 -1.421875 
Q 16.453125 -1.421875 11.671875 -0.578125 
Q 6.890625 0.25 1.125 2 
L 2.875 11.28125 
Q 7.8125 8.734375 12.59375 7.421875 
Q 17.390625 6.109375 21.78125 6.109375 
Q 28.375 6.109375 32.5 8.9375 
Q 36.625 11.765625 36.625 16.109375 
Q 36.625 20.796875 25.78125 23.6875 
L 24.859375 23.921875 
L 21.78125 24.703125 
Q 14.9375 26.515625 11.765625 29.46875 
Q 8.59375 32.421875 8.59375 37.015625 
Q 8.59375 45.75 15.15625 50.875 
Q 21.734375 56 33.015625 56 
Q 37.453125 56 41.671875 55.265625 
Q 45.90625 54.546875 50 53.078125 
z
" id="DejaVuSans-Oblique-115"/>
    </defs>
    <g transform="translate(306.9 180)scale(0.2 -0.2)">
     <use transform="translate(0 0.3125)" xlink:href="#DejaVuSans-Oblique-117"/>
     <use transform="translate(63.378906 -16.09375)scale(0.7)" xlink:href="#DejaVuSans-Oblique-115"/>
    </g>
   </g>
   <g id="patch_26">
    <path d="M 236.488814 250.580386 
Q 247.008499 261.100072 257.528184 271.619757 
L 260.356611 268.79133 
Q 262.478306 275.155665 264.6 281.52 
Q 258.235665 279.398306 251.87133 277.276611 
L 254.699757 274.448184 
Q 244.180072 263.928499 233.660386 253.408814 
L 236.488814 250.580386 
z
" style="fill:#0000ff;stroke:#000000;stroke-linecap:round;"/>
   </g>
   <g id="patch_27">
    <path d="M 233.660386 106.591186 
Q 244.180072 96.071501 254.699757 85.551816 
L 251.87133 82.723389 
Q 258.235665 80.601694 264.6 78.48 
Q 262.478306 84.844335 260.356611 91.20867 
L 257.528184 88.380243 
Q 247.008499 98.899928 236.488814 109.419614 
L 233.660386 106.591186 
z
" style="fill:#0000ff;stroke:#000000;stroke-linecap:round;"/>
   </g>
   <g id="text_2">
    <!-- $v$ -->
    <defs>
     <path d="M 7.171875 54.6875 
L 16.703125 54.6875 
L 24.703125 8.203125 
L 50.875 54.6875 
L 60.40625 54.6875 
L 29.296875 0 
L 17.1875 0 
z
" id="DejaVuSans-Oblique-118"/>
    </defs>
    <g transform="translate(268.83 281.52)scale(0.2 -0.2)">
     <use transform="translate(0 0.3125)" xlink:href="#DejaVuSans-Oblique-118"/>
    </g>
   </g>
   <g id="text_3">
    <!-- $v$ -->
    <g transform="translate(268.83 78.48)scale(0.2 -0.2)">
     <use transform="translate(0 0.3125)" xlink:href="#DejaVuSans-Oblique-118"/>
    </g>
   </g>
  </g>
 </g>
 <defs>
  <clipPath id="p2d9e5b398d">
   <rect height="338.4" width="338.4" x="10.8" y="10.8"/>
  </clipPath>
 </defs>
</svg>
