<?xml version="1.0" encoding="utf-8" standalone="no"?>
<!DOCTYPE svg PUBLIC "-//W3C//DTD SVG 1.1//EN"
  "http://www.w3.org/Graphics/SVG/1.1/DTD/svg11.dtd">
<!-- Created with matplotlib (https://matplotlib.org/) -->
<svg height="504pt" version="1.1" viewBox="0 0 504 504" width="504pt" xmlns="http://www.w3.org/2000/svg" xmlns:xlink="http://www.w3.org/1999/xlink">
 <defs>
  <style type="text/css">
*{stroke-linecap:butt;stroke-linejoin:round;}
  </style>
 </defs>
 <g id="figure_1">
  <g id="patch_1">
   <path d="M 0 504 
L 504 504 
L 504 0 
L 0 0 
z
" style="fill:none;"/>
  </g>
  <g id="axes_1">
   <g id="patch_2">
    <path clip-path="url(#p5afc09cb49)" d="M 304.259813 284.16075 
C 304.259813 284.16075 304.259813 284.16075 304.259813 284.16075 
C 304.259813 284.16075 304.259813 284.16075 304.259813 284.16075 
C 304.259813 284.16075 304.259813 284.16075 304.259813 284.16075 
C 304.259813 284.16075 304.259813 284.16075 304.259813 284.16075 
C 304.259813 284.16075 304.259813 284.16075 304.259813 284.16075 
C 304.259813 284.16075 304.259813 284.16075 304.259813 284.16075 
C 304.259813 284.16075 304.259813 284.16075 304.259813 284.16075 
C 304.259813 284.16075 304.259813 284.16075 304.259813 284.16075 
z
" style="fill:none;opacity:0.8;stroke:#0000ff;stroke-linejoin:miter;stroke-width:2;"/>
   </g>
   <g id="patch_3">
    <path clip-path="url(#p5afc09cb49)" d="M 304.259813 287.296339 
C 305.09138 287.296339 305.889001 286.965953 306.477009 286.377946 
C 307.065016 285.789939 307.395401 284.992318 307.395401 284.16075 
C 307.395401 283.329182 307.065016 282.531561 306.477009 281.943554 
C 305.889001 281.355547 305.09138 281.025161 304.259813 281.025161 
C 303.428245 281.025161 302.630624 281.355547 302.042616 281.943554 
C 301.454609 282.531561 301.124224 283.329182 301.124224 284.16075 
C 301.124224 284.992318 301.454609 285.789939 302.042616 286.377946 
C 302.630624 286.965953 303.428245 287.296339 304.259813 287.296339 
z
" style="fill:#ff0000;opacity:0.8;stroke:#ff0000;stroke-linejoin:miter;"/>
   </g>
   <g id="patch_4">
    <path clip-path="url(#p5afc09cb49)" d="M 291.194859 310.290656 
C 298.124592 310.290656 304.771433 307.537444 309.671493 302.637384 
C 314.571554 297.737323 317.324766 291.090482 317.324766 284.16075 
C 317.324766 277.231018 314.571554 270.584177 309.671493 265.684116 
C 304.771433 260.784056 298.124592 258.030844 291.194859 258.030844 
C 284.265127 258.030844 277.618286 260.784056 272.718225 265.684116 
C 267.818165 270.584177 265.064953 277.231018 265.064953 284.16075 
C 265.064953 291.090482 267.818165 297.737323 272.718225 302.637384 
C 277.618286 307.537444 284.265127 310.290656 291.194859 310.290656 
z
" style="fill:none;opacity:0.711674;stroke:#0000ff;stroke-linejoin:miter;stroke-width:2;"/>
   </g>
   <g id="patch_5">
    <path clip-path="url(#p5afc09cb49)" d="M 288.581869 287.296339 
C 289.413437 287.296339 290.211058 286.965953 290.799065 286.377946 
C 291.387072 285.789939 291.717458 284.992318 291.717458 284.16075 
C 291.717458 283.329182 291.387072 282.531561 290.799065 281.943554 
C 290.211058 281.355547 289.413437 281.025161 288.581869 281.025161 
C 287.750301 281.025161 286.95268 281.355547 286.364673 281.943554 
C 285.776665 282.531561 285.44628 283.329182 285.44628 284.16075 
C 285.44628 284.992318 285.776665 285.789939 286.364673 286.377946 
C 286.95268 286.965953 287.750301 287.296339 288.581869 287.296339 
z
" style="fill:#ff0000;opacity:0.711674;stroke:#ff0000;stroke-linejoin:miter;"/>
   </g>
   <g id="patch_6">
    <path clip-path="url(#p5afc09cb49)" d="M 278.129906 336.420563 
C 291.989371 336.420563 305.283053 330.914139 315.083174 321.114018 
C 324.883295 311.313897 330.389719 298.020214 330.389719 284.16075 
C 330.389719 270.301286 324.883295 257.007603 315.083174 247.207482 
C 305.283053 237.407361 291.989371 231.900937 278.129906 231.900937 
C 264.270442 231.900937 250.97676 237.407361 241.176638 247.207482 
C 231.376517 257.007603 225.870094 270.301286 225.870094 284.16075 
C 225.870094 298.020214 231.376517 311.313897 241.176638 321.114018 
C 250.97676 330.914139 264.270442 336.420563 278.129906 336.420563 
z
" style="fill:none;opacity:0.628512;stroke:#0000ff;stroke-linejoin:miter;stroke-width:2;"/>
   </g>
   <g id="patch_7">
    <path clip-path="url(#p5afc09cb49)" d="M 272.903925 287.296339 
C 273.735493 287.296339 274.533114 286.965953 275.121121 286.377946 
C 275.709128 285.789939 276.039514 284.992318 276.039514 284.16075 
C 276.039514 283.329182 275.709128 282.531561 275.121121 281.943554 
C 274.533114 281.355547 273.735493 281.025161 272.903925 281.025161 
C 272.072357 281.025161 271.274736 281.355547 270.686729 281.943554 
C 270.098722 282.531561 269.768336 283.329182 269.768336 284.16075 
C 269.768336 284.992318 270.098722 285.789939 270.686729 286.377946 
C 271.274736 286.965953 272.072357 287.296339 272.903925 287.296339 
z
" style="fill:#ff0000;opacity:0.628512;stroke:#ff0000;stroke-linejoin:miter;"/>
   </g>
   <g id="patch_8">
    <path clip-path="url(#p5afc09cb49)" d="M 265.064953 362.550469 
C 285.85415 362.550469 305.794673 354.290833 320.494855 339.590652 
C 335.195037 324.89047 343.454672 304.949946 343.454672 284.16075 
C 343.454672 263.371554 335.195037 243.43103 320.494855 228.730848 
C 305.794673 214.030667 285.85415 205.771031 265.064953 205.771031 
C 244.275757 205.771031 224.335233 214.030667 209.635051 228.730848 
C 194.93487 243.43103 186.675234 263.371554 186.675234 284.16075 
C 186.675234 304.949946 194.93487 324.89047 209.635051 339.590652 
C 224.335233 354.290833 244.275757 362.550469 265.064953 362.550469 
z
" style="fill:none;opacity:0.550517;stroke:#0000ff;stroke-linejoin:miter;stroke-width:2;"/>
   </g>
   <g id="patch_9">
    <path clip-path="url(#p5afc09cb49)" d="M 257.225981 287.296339 
C 258.057549 287.296339 258.85517 286.965953 259.443177 286.377946 
C 260.031185 285.789939 260.36157 284.992318 260.36157 284.16075 
C 260.36157 283.329182 260.031185 282.531561 259.443177 281.943554 
C 258.85517 281.355547 258.057549 281.025161 257.225981 281.025161 
C 256.394413 281.025161 255.596792 281.355547 255.008785 281.943554 
C 254.420778 282.531561 254.090393 283.329182 254.090393 284.16075 
C 254.090393 284.992318 254.420778 285.789939 255.008785 286.377946 
C 255.596792 286.965953 256.394413 287.296339 257.225981 287.296339 
z
" style="fill:#ff0000;opacity:0.550517;stroke:#ff0000;stroke-linejoin:miter;"/>
   </g>
   <g id="patch_10">
    <path clip-path="url(#p5afc09cb49)" d="M 252 388.680375 
C 279.718929 388.680375 306.306293 377.667528 325.906536 358.067286 
C 345.506778 338.467043 356.519625 311.879679 356.519625 284.16075 
C 356.519625 256.441821 345.506778 229.854457 325.906536 210.254214 
C 306.306293 190.653972 279.718929 179.641125 252 179.641125 
C 224.281071 179.641125 197.693707 190.653972 178.093464 210.254214 
C 158.493222 229.854457 147.480375 256.441821 147.480375 284.16075 
C 147.480375 311.879679 158.493222 338.467043 178.093464 358.067286 
C 197.693707 377.667528 224.281071 388.680375 252 388.680375 
z
" style="fill:none;opacity:0.477686;stroke:#0000ff;stroke-linejoin:miter;stroke-width:2;"/>
   </g>
   <g id="patch_11">
    <path clip-path="url(#p5afc09cb49)" d="M 241.548037 287.296339 
C 242.379605 287.296339 243.177226 286.965953 243.765234 286.377946 
C 244.353241 285.789939 244.683626 284.992318 244.683626 284.16075 
C 244.683626 283.329182 244.353241 282.531561 243.765234 281.943554 
C 243.177226 281.355547 242.379605 281.025161 241.548037 281.025161 
C 240.71647 281.025161 239.918849 281.355547 239.330841 281.943554 
C 238.742834 282.531561 238.412449 283.329182 238.412449 284.16075 
C 238.412449 284.992318 238.742834 285.789939 239.330841 286.377946 
C 239.918849 286.965953 240.71647 287.296339 241.548037 287.296339 
z
" style="fill:#ff0000;opacity:0.477686;stroke:#ff0000;stroke-linejoin:miter;"/>
   </g>
   <g id="patch_12">
    <path clip-path="url(#p5afc09cb49)" d="M 238.935047 414.810281 
C 273.583708 414.810281 306.817913 401.044222 331.318216 376.54392 
C 355.818519 352.043617 369.584578 318.809411 369.584578 284.16075 
C 369.584578 249.512089 355.818519 216.277883 331.318216 191.77758 
C 306.817913 167.277278 273.583708 153.511219 238.935047 153.511219 
C 204.286386 153.511219 171.05218 167.277278 146.551877 191.77758 
C 122.051574 216.277883 108.285516 249.512089 108.285516 284.16075 
C 108.285516 318.809411 122.051574 352.043617 146.551877 376.54392 
C 171.05218 401.044222 204.286386 414.810281 238.935047 414.810281 
z
" style="fill:none;opacity:0.410021;stroke:#0000ff;stroke-linejoin:miter;stroke-width:2;"/>
   </g>
   <g id="patch_13">
    <path clip-path="url(#p5afc09cb49)" d="M 225.870094 287.296339 
C 226.701662 287.296339 227.499283 286.965953 228.08729 286.377946 
C 228.675297 285.789939 229.005683 284.992318 229.005683 284.16075 
C 229.005683 283.329182 228.675297 282.531561 228.08729 281.943554 
C 227.499283 281.355547 226.701662 281.025161 225.870094 281.025161 
C 225.038526 281.025161 224.240905 281.355547 223.652898 281.943554 
C 223.06489 282.531561 222.734505 283.329182 222.734505 284.16075 
C 222.734505 284.992318 223.06489 285.789939 223.652898 286.377946 
C 224.240905 286.965953 225.038526 287.296339 225.870094 287.296339 
z
" style="fill:#ff0000;opacity:0.410021;stroke:#ff0000;stroke-linejoin:miter;"/>
   </g>
   <g id="patch_14">
    <path clip-path="url(#p5afc09cb49)" d="M 225.870094 440.940187 
C 267.448487 440.940187 307.329534 424.420917 336.729897 395.020553 
C 366.130261 365.62019 382.649531 325.739143 382.649531 284.16075 
C 382.649531 242.582357 366.130261 202.70131 336.729897 173.300947 
C 307.329534 143.900583 267.448487 127.381313 225.870094 127.381313 
C 184.291701 127.381313 144.410654 143.900583 115.01029 173.300947 
C 85.609927 202.70131 69.090656 242.582357 69.090656 284.16075 
C 69.090656 325.739143 85.609927 365.62019 115.01029 395.020553 
C 144.410654 424.420917 184.291701 440.940187 225.870094 440.940187 
z
" style="fill:none;opacity:0.347521;stroke:#0000ff;stroke-linejoin:miter;stroke-width:2;"/>
   </g>
   <g id="patch_15">
    <path clip-path="url(#p5afc09cb49)" d="M 210.19215 287.296339 
C 211.023718 287.296339 211.821339 286.965953 212.409346 286.377946 
C 212.997353 285.789939 213.327739 284.992318 213.327739 284.16075 
C 213.327739 283.329182 212.997353 282.531561 212.409346 281.943554 
C 211.821339 281.355547 211.023718 281.025161 210.19215 281.025161 
C 209.360582 281.025161 208.562961 281.355547 207.974954 281.943554 
C 207.386947 282.531561 207.056561 283.329182 207.056561 284.16075 
C 207.056561 284.992318 207.386947 285.789939 207.974954 286.377946 
C 208.562961 286.965953 209.360582 287.296339 210.19215 287.296339 
z
" style="fill:#ff0000;opacity:0.347521;stroke:#ff0000;stroke-linejoin:miter;"/>
   </g>
   <g id="patch_16">
    <path clip-path="url(#p5afc09cb49)" d="M 212.805141 467.070094 
C 261.313266 467.070094 307.841154 447.797611 342.141578 413.497187 
C 376.442002 379.196763 395.714484 332.668875 395.714484 284.16075 
C 395.714484 235.652625 376.442002 189.124737 342.141578 154.824313 
C 307.841154 120.523889 261.313266 101.251406 212.805141 101.251406 
C 164.297016 101.251406 117.769127 120.523889 83.468703 154.824313 
C 49.168279 189.124737 29.895797 235.652625 29.895797 284.16075 
C 29.895797 332.668875 49.168279 379.196763 83.468703 413.497187 
C 117.769127 447.797611 164.297016 467.070094 212.805141 467.070094 
z
" style="fill:none;opacity:0.290186;stroke:#0000ff;stroke-linejoin:miter;stroke-width:2;"/>
   </g>
   <g id="patch_17">
    <path clip-path="url(#p5afc09cb49)" d="M 194.514206 287.296339 
C 195.345774 287.296339 196.143395 286.965953 196.731402 286.377946 
C 197.31941 285.789939 197.649795 284.992318 197.649795 284.16075 
C 197.649795 283.329182 197.31941 282.531561 196.731402 281.943554 
C 196.143395 281.355547 195.345774 281.025161 194.514206 281.025161 
C 193.682638 281.025161 192.885017 281.355547 192.29701 281.943554 
C 191.709003 282.531561 191.378617 283.329182 191.378617 284.16075 
C 191.378617 284.992318 191.709003 285.789939 192.29701 286.377946 
C 192.885017 286.965953 193.682638 287.296339 194.514206 287.296339 
z
" style="fill:#ff0000;opacity:0.290186;stroke:#ff0000;stroke-linejoin:miter;"/>
   </g>
   <g id="patch_18">
    <path clip-path="url(#p5afc09cb49)" d="M 199.740187 493.2 
C 255.178045 493.2 308.352774 471.174306 347.553259 431.973821 
C 386.753743 392.773337 408.779438 339.598607 408.779438 284.16075 
C 408.779438 228.722893 386.753743 175.548163 347.553259 136.347679 
C 308.352774 97.147194 255.178045 75.1215 199.740187 75.1215 
C 144.30233 75.1215 91.127601 97.147194 51.927116 136.347679 
C 12.726632 175.548163 -9.299063 228.722893 -9.299063 284.16075 
C -9.299063 339.598607 12.726632 392.773337 51.927116 431.973821 
C 91.127601 471.174306 144.30233 493.2 199.740187 493.2 
z
" style="fill:none;opacity:0.238017;stroke:#0000ff;stroke-linejoin:miter;stroke-width:2;"/>
   </g>
   <g id="patch_19">
    <path clip-path="url(#p5afc09cb49)" d="M 178.836262 287.296339 
C 179.66783 287.296339 180.465451 286.965953 181.053459 286.377946 
C 181.641466 285.789939 181.971851 284.992318 181.971851 284.16075 
C 181.971851 283.329182 181.641466 282.531561 181.053459 281.943554 
C 180.465451 281.355547 179.66783 281.025161 178.836262 281.025161 
C 178.004695 281.025161 177.207074 281.355547 176.619066 281.943554 
C 176.031059 282.531561 175.700674 283.329182 175.700674 284.16075 
C 175.700674 284.992318 176.031059 285.789939 176.619066 286.377946 
C 177.207074 286.965953 178.004695 287.296339 178.836262 287.296339 
z
" style="fill:#ff0000;opacity:0.238017;stroke:#ff0000;stroke-linejoin:miter;"/>
   </g>
   <g id="patch_20">
    <path clip-path="url(#p5afc09cb49)" d="M 186.675234 519.329906 
C 249.042824 519.329906 308.864394 494.551 352.964939 450.450455 
C 397.065485 406.34991 421.844391 346.528339 421.844391 284.16075 
C 421.844391 221.793161 397.065485 161.97159 352.964939 117.871045 
C 308.864394 73.7705 249.042824 48.991594 186.675234 48.991594 
C 124.307645 48.991594 64.486075 73.7705 20.385529 117.871045 
C -23.715016 161.97159 -48.493922 221.793161 -48.493922 284.16075 
C -48.493922 346.528339 -23.715016 406.34991 20.385529 450.450455 
C 64.486075 494.551 124.307645 519.329906 186.675234 519.329906 
z
" style="fill:none;opacity:0.191012;stroke:#0000ff;stroke-linejoin:miter;stroke-width:2;"/>
   </g>
   <g id="patch_21">
    <path clip-path="url(#p5afc09cb49)" d="M 163.158319 287.296339 
C 163.989887 287.296339 164.787508 286.965953 165.375515 286.377946 
C 165.963522 285.789939 166.293908 284.992318 166.293908 284.16075 
C 166.293908 283.329182 165.963522 282.531561 165.375515 281.943554 
C 164.787508 281.355547 163.989887 281.025161 163.158319 281.025161 
C 162.326751 281.025161 161.52913 281.355547 160.941123 281.943554 
C 160.353115 282.531561 160.02273 283.329182 160.02273 284.16075 
C 160.02273 284.992318 160.353115 285.789939 160.941123 286.377946 
C 161.52913 286.965953 162.326751 287.296339 163.158319 287.296339 
z
" style="fill:#ff0000;opacity:0.191012;stroke:#ff0000;stroke-linejoin:miter;"/>
   </g>
   <g id="patch_22">
    <path clip-path="url(#p5afc09cb49)" d="M 173.610281 545.459812 
C 242.907603 545.459812 309.376014 517.927695 358.37662 468.927089 
C 407.377226 419.926483 434.909344 353.458071 434.909344 284.16075 
C 434.909344 214.863429 407.377226 148.395017 358.37662 99.394411 
C 309.376014 50.393805 242.907603 22.861688 173.610281 22.861688 
C 104.31296 22.861688 37.844548 50.393805 -11.156058 99.394411 
C -60.156664 148.395017 -87.688781 214.863429 -87.688781 284.16075 
C -87.688781 353.458071 -60.156664 419.926483 -11.156058 468.927089 
C 37.844548 517.927695 104.31296 545.459812 173.610281 545.459812 
z
" style="fill:none;opacity:0.149174;stroke:#0000ff;stroke-linejoin:miter;stroke-width:2;"/>
   </g>
   <g id="patch_23">
    <path clip-path="url(#p5afc09cb49)" d="M 147.480375 287.296339 
C 148.311943 287.296339 149.109564 286.965953 149.697571 286.377946 
C 150.285578 285.789939 150.615964 284.992318 150.615964 284.16075 
C 150.615964 283.329182 150.285578 282.531561 149.697571 281.943554 
C 149.109564 281.355547 148.311943 281.025161 147.480375 281.025161 
C 146.648807 281.025161 145.851186 281.355547 145.263179 281.943554 
C 144.675172 282.531561 144.344786 283.329182 144.344786 284.16075 
C 144.344786 284.992318 144.675172 285.789939 145.263179 286.377946 
C 145.851186 286.965953 146.648807 287.296339 147.480375 287.296339 
z
" style="fill:#ff0000;opacity:0.149174;stroke:#ff0000;stroke-linejoin:miter;"/>
   </g>
   <g id="patch_24">
    <path clip-path="url(#p5afc09cb49)" d="M 304.259813 288.341535 
C 305.36857 288.341535 306.432064 287.901021 307.216074 287.117011 
C 308.000084 286.333002 308.440598 285.269507 308.440598 284.16075 
C 308.440598 283.051993 308.000084 281.988498 307.216074 281.204489 
C 306.432064 280.420479 305.36857 279.979965 304.259813 279.979965 
C 303.151055 279.979965 302.087561 280.420479 301.303551 281.204489 
C 300.519541 281.988498 300.079027 283.051993 300.079027 284.16075 
C 300.079027 285.269507 300.519541 286.333002 301.303551 287.117011 
C 302.087561 287.901021 303.151055 288.341535 304.259813 288.341535 
z
" style="stroke:#000000;stroke-linejoin:miter;"/>
   </g>
   <g id="text_1">
    <!-- 11 -->
    <defs>
     <path d="M 12.40625 8.296875 
L 28.515625 8.296875 
L 28.515625 63.921875 
L 10.984375 60.40625 
L 10.984375 69.390625 
L 28.421875 72.90625 
L 38.28125 72.90625 
L 38.28125 8.296875 
L 54.390625 8.296875 
L 54.390625 0 
L 12.40625 0 
z
" id="DejaVuSans-49"/>
    </defs>
    <g transform="translate(294.716063 305.064675)scale(0.15 -0.15)">
     <use xlink:href="#DejaVuSans-49"/>
     <use x="63.623047" xlink:href="#DejaVuSans-49"/>
    </g>
   </g>
   <g id="text_2">
    <!-- 11 -->
    <g transform="translate(294.716063 278.934769)scale(0.15 -0.15)">
     <use xlink:href="#DejaVuSans-49"/>
     <use x="63.623047" xlink:href="#DejaVuSans-49"/>
    </g>
   </g>
   <g id="text_3">
    <!-- 10 -->
    <defs>
     <path d="M 31.78125 66.40625 
Q 24.171875 66.40625 20.328125 58.90625 
Q 16.5 51.421875 16.5 36.375 
Q 16.5 21.390625 20.328125 13.890625 
Q 24.171875 6.390625 31.78125 6.390625 
Q 39.453125 6.390625 43.28125 13.890625 
Q 47.125 21.390625 47.125 36.375 
Q 47.125 51.421875 43.28125 58.90625 
Q 39.453125 66.40625 31.78125 66.40625 
z
M 31.78125 74.21875 
Q 44.046875 74.21875 50.515625 64.515625 
Q 56.984375 54.828125 56.984375 36.375 
Q 56.984375 17.96875 50.515625 8.265625 
Q 44.046875 -1.421875 31.78125 -1.421875 
Q 19.53125 -1.421875 13.0625 8.265625 
Q 6.59375 17.96875 6.59375 36.375 
Q 6.59375 54.828125 13.0625 64.515625 
Q 19.53125 74.21875 31.78125 74.21875 
z
" id="DejaVuSans-48"/>
    </defs>
    <g transform="translate(279.038119 305.064675)scale(0.15 -0.15)">
     <use xlink:href="#DejaVuSans-49"/>
     <use x="63.623047" xlink:href="#DejaVuSans-48"/>
    </g>
   </g>
   <g id="text_4">
    <!-- 10 -->
    <g transform="translate(279.038119 252.804862)scale(0.15 -0.15)">
     <use xlink:href="#DejaVuSans-49"/>
     <use x="63.623047" xlink:href="#DejaVuSans-48"/>
    </g>
   </g>
   <g id="text_5">
    <!-- 9 -->
    <defs>
     <path d="M 10.984375 1.515625 
L 10.984375 10.5 
Q 14.703125 8.734375 18.5 7.8125 
Q 22.3125 6.890625 25.984375 6.890625 
Q 35.75 6.890625 40.890625 13.453125 
Q 46.046875 20.015625 46.78125 33.40625 
Q 43.953125 29.203125 39.59375 26.953125 
Q 35.25 24.703125 29.984375 24.703125 
Q 19.046875 24.703125 12.671875 31.3125 
Q 6.296875 37.9375 6.296875 49.421875 
Q 6.296875 60.640625 12.9375 67.421875 
Q 19.578125 74.21875 30.609375 74.21875 
Q 43.265625 74.21875 49.921875 64.515625 
Q 56.59375 54.828125 56.59375 36.375 
Q 56.59375 19.140625 48.40625 8.859375 
Q 40.234375 -1.421875 26.421875 -1.421875 
Q 22.703125 -1.421875 18.890625 -0.6875 
Q 15.09375 0.046875 10.984375 1.515625 
z
M 30.609375 32.421875 
Q 37.25 32.421875 41.125 36.953125 
Q 45.015625 41.5 45.015625 49.421875 
Q 45.015625 57.28125 41.125 61.84375 
Q 37.25 66.40625 30.609375 66.40625 
Q 23.96875 66.40625 20.09375 61.84375 
Q 16.21875 57.28125 16.21875 49.421875 
Q 16.21875 41.5 20.09375 36.953125 
Q 23.96875 32.421875 30.609375 32.421875 
z
" id="DejaVuSans-57"/>
    </defs>
    <g transform="translate(268.13205 305.064675)scale(0.15 -0.15)">
     <use xlink:href="#DejaVuSans-57"/>
    </g>
   </g>
   <g id="text_6">
    <!-- 9 -->
    <g transform="translate(268.13205 226.674956)scale(0.15 -0.15)">
     <use xlink:href="#DejaVuSans-57"/>
    </g>
   </g>
   <g id="text_7">
    <!-- 8 -->
    <defs>
     <path d="M 31.78125 34.625 
Q 24.75 34.625 20.71875 30.859375 
Q 16.703125 27.09375 16.703125 20.515625 
Q 16.703125 13.921875 20.71875 10.15625 
Q 24.75 6.390625 31.78125 6.390625 
Q 38.8125 6.390625 42.859375 10.171875 
Q 46.921875 13.96875 46.921875 20.515625 
Q 46.921875 27.09375 42.890625 30.859375 
Q 38.875 34.625 31.78125 34.625 
z
M 21.921875 38.8125 
Q 15.578125 40.375 12.03125 44.71875 
Q 8.5 49.078125 8.5 55.328125 
Q 8.5 64.0625 14.71875 69.140625 
Q 20.953125 74.21875 31.78125 74.21875 
Q 42.671875 74.21875 48.875 69.140625 
Q 55.078125 64.0625 55.078125 55.328125 
Q 55.078125 49.078125 51.53125 44.71875 
Q 48 40.375 41.703125 38.8125 
Q 48.828125 37.15625 52.796875 32.3125 
Q 56.78125 27.484375 56.78125 20.515625 
Q 56.78125 9.90625 50.3125 4.234375 
Q 43.84375 -1.421875 31.78125 -1.421875 
Q 19.734375 -1.421875 13.25 4.234375 
Q 6.78125 9.90625 6.78125 20.515625 
Q 6.78125 27.484375 10.78125 32.3125 
Q 14.796875 37.15625 21.921875 38.8125 
z
M 18.3125 54.390625 
Q 18.3125 48.734375 21.84375 45.5625 
Q 25.390625 42.390625 31.78125 42.390625 
Q 38.140625 42.390625 41.71875 45.5625 
Q 45.3125 48.734375 45.3125 54.390625 
Q 45.3125 60.0625 41.71875 63.234375 
Q 38.140625 66.40625 31.78125 66.40625 
Q 25.390625 66.40625 21.84375 63.234375 
Q 18.3125 60.0625 18.3125 54.390625 
z
" id="DejaVuSans-56"/>
    </defs>
    <g transform="translate(252.454106 305.064675)scale(0.15 -0.15)">
     <use xlink:href="#DejaVuSans-56"/>
    </g>
   </g>
   <g id="text_8">
    <!-- 8 -->
    <g transform="translate(252.454106 200.54505)scale(0.15 -0.15)">
     <use xlink:href="#DejaVuSans-56"/>
    </g>
   </g>
   <g id="text_9">
    <!-- 7 -->
    <defs>
     <path d="M 8.203125 72.90625 
L 55.078125 72.90625 
L 55.078125 68.703125 
L 28.609375 0 
L 18.3125 0 
L 43.21875 64.59375 
L 8.203125 64.59375 
z
" id="DejaVuSans-55"/>
    </defs>
    <g transform="translate(236.776162 305.064675)scale(0.15 -0.15)">
     <use xlink:href="#DejaVuSans-55"/>
    </g>
   </g>
   <g id="text_10">
    <!-- 7 -->
    <g transform="translate(236.776162 174.415144)scale(0.15 -0.15)">
     <use xlink:href="#DejaVuSans-55"/>
    </g>
   </g>
   <g id="text_11">
    <!-- 6 -->
    <defs>
     <path d="M 33.015625 40.375 
Q 26.375 40.375 22.484375 35.828125 
Q 18.609375 31.296875 18.609375 23.390625 
Q 18.609375 15.53125 22.484375 10.953125 
Q 26.375 6.390625 33.015625 6.390625 
Q 39.65625 6.390625 43.53125 10.953125 
Q 47.40625 15.53125 47.40625 23.390625 
Q 47.40625 31.296875 43.53125 35.828125 
Q 39.65625 40.375 33.015625 40.375 
z
M 52.59375 71.296875 
L 52.59375 62.3125 
Q 48.875 64.0625 45.09375 64.984375 
Q 41.3125 65.921875 37.59375 65.921875 
Q 27.828125 65.921875 22.671875 59.328125 
Q 17.53125 52.734375 16.796875 39.40625 
Q 19.671875 43.65625 24.015625 45.921875 
Q 28.375 48.1875 33.59375 48.1875 
Q 44.578125 48.1875 50.953125 41.515625 
Q 57.328125 34.859375 57.328125 23.390625 
Q 57.328125 12.15625 50.6875 5.359375 
Q 44.046875 -1.421875 33.015625 -1.421875 
Q 20.359375 -1.421875 13.671875 8.265625 
Q 6.984375 17.96875 6.984375 36.375 
Q 6.984375 53.65625 15.1875 63.9375 
Q 23.390625 74.21875 37.203125 74.21875 
Q 40.921875 74.21875 44.703125 73.484375 
Q 48.484375 72.75 52.59375 71.296875 
z
" id="DejaVuSans-54"/>
    </defs>
    <g transform="translate(221.098219 305.064675)scale(0.15 -0.15)">
     <use xlink:href="#DejaVuSans-54"/>
    </g>
   </g>
   <g id="text_12">
    <!-- 6 -->
    <g transform="translate(221.098219 148.285237)scale(0.15 -0.15)">
     <use xlink:href="#DejaVuSans-54"/>
    </g>
   </g>
   <g id="text_13">
    <!-- 5 -->
    <defs>
     <path d="M 10.796875 72.90625 
L 49.515625 72.90625 
L 49.515625 64.59375 
L 19.828125 64.59375 
L 19.828125 46.734375 
Q 21.96875 47.46875 24.109375 47.828125 
Q 26.265625 48.1875 28.421875 48.1875 
Q 40.625 48.1875 47.75 41.5 
Q 54.890625 34.8125 54.890625 23.390625 
Q 54.890625 11.625 47.5625 5.09375 
Q 40.234375 -1.421875 26.90625 -1.421875 
Q 22.3125 -1.421875 17.546875 -0.640625 
Q 12.796875 0.140625 7.71875 1.703125 
L 7.71875 11.625 
Q 12.109375 9.234375 16.796875 8.0625 
Q 21.484375 6.890625 26.703125 6.890625 
Q 35.15625 6.890625 40.078125 11.328125 
Q 45.015625 15.765625 45.015625 23.390625 
Q 45.015625 31 40.078125 35.4375 
Q 35.15625 39.890625 26.703125 39.890625 
Q 22.75 39.890625 18.8125 39.015625 
Q 14.890625 38.140625 10.796875 36.28125 
z
" id="DejaVuSans-53"/>
    </defs>
    <g transform="translate(205.420275 305.064675)scale(0.15 -0.15)">
     <use xlink:href="#DejaVuSans-53"/>
    </g>
   </g>
   <g id="text_14">
    <!-- 5 -->
    <g transform="translate(205.420275 122.155331)scale(0.15 -0.15)">
     <use xlink:href="#DejaVuSans-53"/>
    </g>
   </g>
   <g id="text_15">
    <!-- 4 -->
    <defs>
     <path d="M 37.796875 64.3125 
L 12.890625 25.390625 
L 37.796875 25.390625 
z
M 35.203125 72.90625 
L 47.609375 72.90625 
L 47.609375 25.390625 
L 58.015625 25.390625 
L 58.015625 17.1875 
L 47.609375 17.1875 
L 47.609375 0 
L 37.796875 0 
L 37.796875 17.1875 
L 4.890625 17.1875 
L 4.890625 26.703125 
z
" id="DejaVuSans-52"/>
    </defs>
    <g transform="translate(189.742331 305.064675)scale(0.15 -0.15)">
     <use xlink:href="#DejaVuSans-52"/>
    </g>
   </g>
   <g id="text_16">
    <!-- 4 -->
    <g transform="translate(189.742331 96.025425)scale(0.15 -0.15)">
     <use xlink:href="#DejaVuSans-52"/>
    </g>
   </g>
   <g id="text_17">
    <!-- 3 -->
    <defs>
     <path d="M 40.578125 39.3125 
Q 47.65625 37.796875 51.625 33 
Q 55.609375 28.21875 55.609375 21.1875 
Q 55.609375 10.40625 48.1875 4.484375 
Q 40.765625 -1.421875 27.09375 -1.421875 
Q 22.515625 -1.421875 17.65625 -0.515625 
Q 12.796875 0.390625 7.625 2.203125 
L 7.625 11.71875 
Q 11.71875 9.328125 16.59375 8.109375 
Q 21.484375 6.890625 26.8125 6.890625 
Q 36.078125 6.890625 40.9375 10.546875 
Q 45.796875 14.203125 45.796875 21.1875 
Q 45.796875 27.640625 41.28125 31.265625 
Q 36.765625 34.90625 28.71875 34.90625 
L 20.21875 34.90625 
L 20.21875 43.015625 
L 29.109375 43.015625 
Q 36.375 43.015625 40.234375 45.921875 
Q 44.09375 48.828125 44.09375 54.296875 
Q 44.09375 59.90625 40.109375 62.90625 
Q 36.140625 65.921875 28.71875 65.921875 
Q 24.65625 65.921875 20.015625 65.03125 
Q 15.375 64.15625 9.8125 62.3125 
L 9.8125 71.09375 
Q 15.4375 72.65625 20.34375 73.4375 
Q 25.25 74.21875 29.59375 74.21875 
Q 40.828125 74.21875 47.359375 69.109375 
Q 53.90625 64.015625 53.90625 55.328125 
Q 53.90625 49.265625 50.4375 45.09375 
Q 46.96875 40.921875 40.578125 39.3125 
z
" id="DejaVuSans-51"/>
    </defs>
    <g transform="translate(174.064387 305.064675)scale(0.15 -0.15)">
     <use xlink:href="#DejaVuSans-51"/>
    </g>
   </g>
   <g id="text_18">
    <!-- 2 -->
    <defs>
     <path d="M 19.1875 8.296875 
L 53.609375 8.296875 
L 53.609375 0 
L 7.328125 0 
L 7.328125 8.296875 
Q 12.9375 14.109375 22.625 23.890625 
Q 32.328125 33.6875 34.8125 36.53125 
Q 39.546875 41.84375 41.421875 45.53125 
Q 43.3125 49.21875 43.3125 52.78125 
Q 43.3125 58.59375 39.234375 62.25 
Q 35.15625 65.921875 28.609375 65.921875 
Q 23.96875 65.921875 18.8125 64.3125 
Q 13.671875 62.703125 7.8125 59.421875 
L 7.8125 69.390625 
Q 13.765625 71.78125 18.9375 73 
Q 24.125 74.21875 28.421875 74.21875 
Q 39.75 74.21875 46.484375 68.546875 
Q 53.21875 62.890625 53.21875 53.421875 
Q 53.21875 48.921875 51.53125 44.890625 
Q 49.859375 40.875 45.40625 35.40625 
Q 44.1875 33.984375 37.640625 27.21875 
Q 31.109375 20.453125 19.1875 8.296875 
z
" id="DejaVuSans-50"/>
    </defs>
    <g transform="translate(158.386444 305.064675)scale(0.15 -0.15)">
     <use xlink:href="#DejaVuSans-50"/>
    </g>
   </g>
   <g id="text_19">
    <!-- 1 -->
    <g transform="translate(142.7085 305.064675)scale(0.15 -0.15)">
     <use xlink:href="#DejaVuSans-49"/>
    </g>
   </g>
  </g>
 </g>
 <defs>
  <clipPath id="p5afc09cb49">
   <rect height="418.0785" width="418.0785" x="42.96075" y="75.1215"/>
  </clipPath>
 </defs>
</svg>
