<?xml version="1.0" encoding="utf-8" standalone="no"?>
<!DOCTYPE svg PUBLIC "-//W3C//DTD SVG 1.1//EN"
  "http://www.w3.org/Graphics/SVG/1.1/DTD/svg11.dtd">
<!-- Created with matplotlib (https://matplotlib.org/) -->
<svg height="288pt" version="1.1" viewBox="0 0 432 288" width="432pt" xmlns="http://www.w3.org/2000/svg" xmlns:xlink="http://www.w3.org/1999/xlink">
 <defs>
  <style type="text/css">
*{stroke-linecap:butt;stroke-linejoin:round;}
  </style>
 </defs>
 <g id="figure_1">
  <g id="patch_1">
   <path d="M 0 288 
L 432 288 
L 432 0 
L 0 0 
z
" style="fill:none;"/>
  </g>
  <g id="axes_1">
   <g id="patch_2">
    <path d="M 55.925 243.2 
L 421.2 243.2 
L 421.2 10.8 
L 55.925 10.8 
z
" style="fill:none;"/>
   </g>
   <g id="matplotlib.axis_1">
    <g id="xtick_1">
     <g id="line2d_1">
      <defs>
       <path d="M 0 0 
L 0 3.5 
" id="m1bd4204d8c" style="stroke:#000000;stroke-width:0.8;"/>
      </defs>
      <g>
       <use style="stroke:#000000;stroke-width:0.8;" x="72.528409" xlink:href="#m1bd4204d8c" y="243.2"/>
      </g>
     </g>
     <g id="text_1">
      <!-- 0 -->
      <defs>
       <path d="M 31.78125 66.40625 
Q 24.171875 66.40625 20.328125 58.90625 
Q 16.5 51.421875 16.5 36.375 
Q 16.5 21.390625 20.328125 13.890625 
Q 24.171875 6.390625 31.78125 6.390625 
Q 39.453125 6.390625 43.28125 13.890625 
Q 47.125 21.390625 47.125 36.375 
Q 47.125 51.421875 43.28125 58.90625 
Q 39.453125 66.40625 31.78125 66.40625 
z
M 31.78125 74.21875 
Q 44.046875 74.21875 50.515625 64.515625 
Q 56.984375 54.828125 56.984375 36.375 
Q 56.984375 17.96875 50.515625 8.265625 
Q 44.046875 -1.421875 31.78125 -1.421875 
Q 19.53125 -1.421875 13.0625 8.265625 
Q 6.59375 17.96875 6.59375 36.375 
Q 6.59375 54.828125 13.0625 64.515625 
Q 19.53125 74.21875 31.78125 74.21875 
z
" id="DejaVuSans-48"/>
      </defs>
      <g transform="translate(69.347159 257.798437)scale(0.1 -0.1)">
       <use xlink:href="#DejaVuSans-48"/>
      </g>
     </g>
    </g>
    <g id="xtick_2">
     <g id="line2d_2">
      <g>
       <use style="stroke:#000000;stroke-width:0.8;" x="138.942045" xlink:href="#m1bd4204d8c" y="243.2"/>
      </g>
     </g>
     <g id="text_2">
      <!-- 2 -->
      <defs>
       <path d="M 19.1875 8.296875 
L 53.609375 8.296875 
L 53.609375 0 
L 7.328125 0 
L 7.328125 8.296875 
Q 12.9375 14.109375 22.625 23.890625 
Q 32.328125 33.6875 34.8125 36.53125 
Q 39.546875 41.84375 41.421875 45.53125 
Q 43.3125 49.21875 43.3125 52.78125 
Q 43.3125 58.59375 39.234375 62.25 
Q 35.15625 65.921875 28.609375 65.921875 
Q 23.96875 65.921875 18.8125 64.3125 
Q 13.671875 62.703125 7.8125 59.421875 
L 7.8125 69.390625 
Q 13.765625 71.78125 18.9375 73 
Q 24.125 74.21875 28.421875 74.21875 
Q 39.75 74.21875 46.484375 68.546875 
Q 53.21875 62.890625 53.21875 53.421875 
Q 53.21875 48.921875 51.53125 44.890625 
Q 49.859375 40.875 45.40625 35.40625 
Q 44.1875 33.984375 37.640625 27.21875 
Q 31.109375 20.453125 19.1875 8.296875 
z
" id="DejaVuSans-50"/>
      </defs>
      <g transform="translate(135.760795 257.798437)scale(0.1 -0.1)">
       <use xlink:href="#DejaVuSans-50"/>
      </g>
     </g>
    </g>
    <g id="xtick_3">
     <g id="line2d_3">
      <g>
       <use style="stroke:#000000;stroke-width:0.8;" x="205.355682" xlink:href="#m1bd4204d8c" y="243.2"/>
      </g>
     </g>
     <g id="text_3">
      <!-- 4 -->
      <defs>
       <path d="M 37.796875 64.3125 
L 12.890625 25.390625 
L 37.796875 25.390625 
z
M 35.203125 72.90625 
L 47.609375 72.90625 
L 47.609375 25.390625 
L 58.015625 25.390625 
L 58.015625 17.1875 
L 47.609375 17.1875 
L 47.609375 0 
L 37.796875 0 
L 37.796875 17.1875 
L 4.890625 17.1875 
L 4.890625 26.703125 
z
" id="DejaVuSans-52"/>
      </defs>
      <g transform="translate(202.174432 257.798437)scale(0.1 -0.1)">
       <use xlink:href="#DejaVuSans-52"/>
      </g>
     </g>
    </g>
    <g id="xtick_4">
     <g id="line2d_4">
      <g>
       <use style="stroke:#000000;stroke-width:0.8;" x="271.769318" xlink:href="#m1bd4204d8c" y="243.2"/>
      </g>
     </g>
     <g id="text_4">
      <!-- 6 -->
      <defs>
       <path d="M 33.015625 40.375 
Q 26.375 40.375 22.484375 35.828125 
Q 18.609375 31.296875 18.609375 23.390625 
Q 18.609375 15.53125 22.484375 10.953125 
Q 26.375 6.390625 33.015625 6.390625 
Q 39.65625 6.390625 43.53125 10.953125 
Q 47.40625 15.53125 47.40625 23.390625 
Q 47.40625 31.296875 43.53125 35.828125 
Q 39.65625 40.375 33.015625 40.375 
z
M 52.59375 71.296875 
L 52.59375 62.3125 
Q 48.875 64.0625 45.09375 64.984375 
Q 41.3125 65.921875 37.59375 65.921875 
Q 27.828125 65.921875 22.671875 59.328125 
Q 17.53125 52.734375 16.796875 39.40625 
Q 19.671875 43.65625 24.015625 45.921875 
Q 28.375 48.1875 33.59375 48.1875 
Q 44.578125 48.1875 50.953125 41.515625 
Q 57.328125 34.859375 57.328125 23.390625 
Q 57.328125 12.15625 50.6875 5.359375 
Q 44.046875 -1.421875 33.015625 -1.421875 
Q 20.359375 -1.421875 13.671875 8.265625 
Q 6.984375 17.96875 6.984375 36.375 
Q 6.984375 53.65625 15.1875 63.9375 
Q 23.390625 74.21875 37.203125 74.21875 
Q 40.921875 74.21875 44.703125 73.484375 
Q 48.484375 72.75 52.59375 71.296875 
z
" id="DejaVuSans-54"/>
      </defs>
      <g transform="translate(268.588068 257.798437)scale(0.1 -0.1)">
       <use xlink:href="#DejaVuSans-54"/>
      </g>
     </g>
    </g>
    <g id="xtick_5">
     <g id="line2d_5">
      <g>
       <use style="stroke:#000000;stroke-width:0.8;" x="338.182955" xlink:href="#m1bd4204d8c" y="243.2"/>
      </g>
     </g>
     <g id="text_5">
      <!-- 8 -->
      <defs>
       <path d="M 31.78125 34.625 
Q 24.75 34.625 20.71875 30.859375 
Q 16.703125 27.09375 16.703125 20.515625 
Q 16.703125 13.921875 20.71875 10.15625 
Q 24.75 6.390625 31.78125 6.390625 
Q 38.8125 6.390625 42.859375 10.171875 
Q 46.921875 13.96875 46.921875 20.515625 
Q 46.921875 27.09375 42.890625 30.859375 
Q 38.875 34.625 31.78125 34.625 
z
M 21.921875 38.8125 
Q 15.578125 40.375 12.03125 44.71875 
Q 8.5 49.078125 8.5 55.328125 
Q 8.5 64.0625 14.71875 69.140625 
Q 20.953125 74.21875 31.78125 74.21875 
Q 42.671875 74.21875 48.875 69.140625 
Q 55.078125 64.0625 55.078125 55.328125 
Q 55.078125 49.078125 51.53125 44.71875 
Q 48 40.375 41.703125 38.8125 
Q 48.828125 37.15625 52.796875 32.3125 
Q 56.78125 27.484375 56.78125 20.515625 
Q 56.78125 9.90625 50.3125 4.234375 
Q 43.84375 -1.421875 31.78125 -1.421875 
Q 19.734375 -1.421875 13.25 4.234375 
Q 6.78125 9.90625 6.78125 20.515625 
Q 6.78125 27.484375 10.78125 32.3125 
Q 14.796875 37.15625 21.921875 38.8125 
z
M 18.3125 54.390625 
Q 18.3125 48.734375 21.84375 45.5625 
Q 25.390625 42.390625 31.78125 42.390625 
Q 38.140625 42.390625 41.71875 45.5625 
Q 45.3125 48.734375 45.3125 54.390625 
Q 45.3125 60.0625 41.71875 63.234375 
Q 38.140625 66.40625 31.78125 66.40625 
Q 25.390625 66.40625 21.84375 63.234375 
Q 18.3125 60.0625 18.3125 54.390625 
z
" id="DejaVuSans-56"/>
      </defs>
      <g transform="translate(335.001705 257.798437)scale(0.1 -0.1)">
       <use xlink:href="#DejaVuSans-56"/>
      </g>
     </g>
    </g>
    <g id="xtick_6">
     <g id="line2d_6">
      <g>
       <use style="stroke:#000000;stroke-width:0.8;" x="404.596591" xlink:href="#m1bd4204d8c" y="243.2"/>
      </g>
     </g>
     <g id="text_6">
      <!-- 10 -->
      <defs>
       <path d="M 12.40625 8.296875 
L 28.515625 8.296875 
L 28.515625 63.921875 
L 10.984375 60.40625 
L 10.984375 69.390625 
L 28.421875 72.90625 
L 38.28125 72.90625 
L 38.28125 8.296875 
L 54.390625 8.296875 
L 54.390625 0 
L 12.40625 0 
z
" id="DejaVuSans-49"/>
      </defs>
      <g transform="translate(398.234091 257.798437)scale(0.1 -0.1)">
       <use xlink:href="#DejaVuSans-49"/>
       <use x="63.623047" xlink:href="#DejaVuSans-48"/>
      </g>
     </g>
    </g>
    <g id="text_7">
     <!-- Time, $t$ /s -->
     <defs>
      <path d="M -0.296875 72.90625 
L 61.375 72.90625 
L 61.375 64.59375 
L 35.5 64.59375 
L 35.5 0 
L 25.59375 0 
L 25.59375 64.59375 
L -0.296875 64.59375 
z
" id="DejaVuSans-84"/>
      <path d="M 9.421875 54.6875 
L 18.40625 54.6875 
L 18.40625 0 
L 9.421875 0 
z
M 9.421875 75.984375 
L 18.40625 75.984375 
L 18.40625 64.59375 
L 9.421875 64.59375 
z
" id="DejaVuSans-105"/>
      <path d="M 52 44.1875 
Q 55.375 50.25 60.0625 53.125 
Q 64.75 56 71.09375 56 
Q 79.640625 56 84.28125 50.015625 
Q 88.921875 44.046875 88.921875 33.015625 
L 88.921875 0 
L 79.890625 0 
L 79.890625 32.71875 
Q 79.890625 40.578125 77.09375 44.375 
Q 74.3125 48.1875 68.609375 48.1875 
Q 61.625 48.1875 57.5625 43.546875 
Q 53.515625 38.921875 53.515625 30.90625 
L 53.515625 0 
L 44.484375 0 
L 44.484375 32.71875 
Q 44.484375 40.625 41.703125 44.40625 
Q 38.921875 48.1875 33.109375 48.1875 
Q 26.21875 48.1875 22.15625 43.53125 
Q 18.109375 38.875 18.109375 30.90625 
L 18.109375 0 
L 9.078125 0 
L 9.078125 54.6875 
L 18.109375 54.6875 
L 18.109375 46.1875 
Q 21.1875 51.21875 25.484375 53.609375 
Q 29.78125 56 35.6875 56 
Q 41.65625 56 45.828125 52.96875 
Q 50 49.953125 52 44.1875 
z
" id="DejaVuSans-109"/>
      <path d="M 56.203125 29.59375 
L 56.203125 25.203125 
L 14.890625 25.203125 
Q 15.484375 15.921875 20.484375 11.0625 
Q 25.484375 6.203125 34.421875 6.203125 
Q 39.59375 6.203125 44.453125 7.46875 
Q 49.3125 8.734375 54.109375 11.28125 
L 54.109375 2.78125 
Q 49.265625 0.734375 44.1875 -0.34375 
Q 39.109375 -1.421875 33.890625 -1.421875 
Q 20.796875 -1.421875 13.15625 6.1875 
Q 5.515625 13.8125 5.515625 26.8125 
Q 5.515625 40.234375 12.765625 48.109375 
Q 20.015625 56 32.328125 56 
Q 43.359375 56 49.78125 48.890625 
Q 56.203125 41.796875 56.203125 29.59375 
z
M 47.21875 32.234375 
Q 47.125 39.59375 43.09375 43.984375 
Q 39.0625 48.390625 32.421875 48.390625 
Q 24.90625 48.390625 20.390625 44.140625 
Q 15.875 39.890625 15.1875 32.171875 
z
" id="DejaVuSans-101"/>
      <path d="M 11.71875 12.40625 
L 22.015625 12.40625 
L 22.015625 4 
L 14.015625 -11.625 
L 7.71875 -11.625 
L 11.71875 4 
z
" id="DejaVuSans-44"/>
      <path id="DejaVuSans-32"/>
      <path d="M 42.28125 54.6875 
L 40.921875 47.703125 
L 23 47.703125 
L 17.1875 18.015625 
Q 16.890625 16.359375 16.75 15.234375 
Q 16.609375 14.109375 16.609375 13.484375 
Q 16.609375 10.359375 18.484375 8.9375 
Q 20.359375 7.515625 24.515625 7.515625 
L 33.59375 7.515625 
L 32.078125 0 
L 23.484375 0 
Q 15.484375 0 11.546875 3.125 
Q 7.625 6.25 7.625 12.59375 
Q 7.625 13.71875 7.765625 15.0625 
Q 7.90625 16.40625 8.203125 18.015625 
L 14.015625 47.703125 
L 6.390625 47.703125 
L 7.8125 54.6875 
L 15.28125 54.6875 
L 18.3125 70.21875 
L 27.296875 70.21875 
L 24.3125 54.6875 
z
" id="DejaVuSans-Oblique-116"/>
      <path d="M 25.390625 72.90625 
L 33.6875 72.90625 
L 8.296875 -9.28125 
L 0 -9.28125 
z
" id="DejaVuSans-47"/>
      <path d="M 44.28125 53.078125 
L 44.28125 44.578125 
Q 40.484375 46.53125 36.375 47.5 
Q 32.28125 48.484375 27.875 48.484375 
Q 21.1875 48.484375 17.84375 46.4375 
Q 14.5 44.390625 14.5 40.28125 
Q 14.5 37.15625 16.890625 35.375 
Q 19.28125 33.59375 26.515625 31.984375 
L 29.59375 31.296875 
Q 39.15625 29.25 43.1875 25.515625 
Q 47.21875 21.78125 47.21875 15.09375 
Q 47.21875 7.46875 41.1875 3.015625 
Q 35.15625 -1.421875 24.609375 -1.421875 
Q 20.21875 -1.421875 15.453125 -0.5625 
Q 10.6875 0.296875 5.421875 2 
L 5.421875 11.28125 
Q 10.40625 8.6875 15.234375 7.390625 
Q 20.0625 6.109375 24.8125 6.109375 
Q 31.15625 6.109375 34.5625 8.28125 
Q 37.984375 10.453125 37.984375 14.40625 
Q 37.984375 18.0625 35.515625 20.015625 
Q 33.0625 21.96875 24.703125 23.78125 
L 21.578125 24.515625 
Q 13.234375 26.265625 9.515625 29.90625 
Q 5.8125 33.546875 5.8125 39.890625 
Q 5.8125 47.609375 11.28125 51.796875 
Q 16.75 56 26.8125 56 
Q 31.78125 56 36.171875 55.265625 
Q 40.578125 54.546875 44.28125 53.078125 
z
" id="DejaVuSans-115"/>
     </defs>
     <g transform="translate(215.1125 271.476562)scale(0.1 -0.1)">
      <use transform="translate(0 0.015625)" xlink:href="#DejaVuSans-84"/>
      <use transform="translate(61.083984 0.015625)" xlink:href="#DejaVuSans-105"/>
      <use transform="translate(88.867188 0.015625)" xlink:href="#DejaVuSans-109"/>
      <use transform="translate(186.279297 0.015625)" xlink:href="#DejaVuSans-101"/>
      <use transform="translate(247.802734 0.015625)" xlink:href="#DejaVuSans-44"/>
      <use transform="translate(279.589844 0.015625)" xlink:href="#DejaVuSans-32"/>
      <use transform="translate(311.376953 0.015625)" xlink:href="#DejaVuSans-Oblique-116"/>
      <use transform="translate(350.585938 0.015625)" xlink:href="#DejaVuSans-32"/>
      <use transform="translate(382.373047 0.015625)" xlink:href="#DejaVuSans-47"/>
      <use transform="translate(416.064453 0.015625)" xlink:href="#DejaVuSans-115"/>
     </g>
    </g>
   </g>
   <g id="matplotlib.axis_2">
    <g id="ytick_1">
     <g id="line2d_7">
      <defs>
       <path d="M 0 0 
L -3.5 0 
" id="m688f9922bb" style="stroke:#000000;stroke-width:0.8;"/>
      </defs>
      <g>
       <use style="stroke:#000000;stroke-width:0.8;" x="55.925" xlink:href="#m688f9922bb" y="216.022181"/>
      </g>
     </g>
     <g id="text_8">
      <!-- −75 -->
      <defs>
       <path d="M 10.59375 35.5 
L 73.1875 35.5 
L 73.1875 27.203125 
L 10.59375 27.203125 
z
" id="DejaVuSans-8722"/>
       <path d="M 8.203125 72.90625 
L 55.078125 72.90625 
L 55.078125 68.703125 
L 28.609375 0 
L 18.3125 0 
L 43.21875 64.59375 
L 8.203125 64.59375 
z
" id="DejaVuSans-55"/>
       <path d="M 10.796875 72.90625 
L 49.515625 72.90625 
L 49.515625 64.59375 
L 19.828125 64.59375 
L 19.828125 46.734375 
Q 21.96875 47.46875 24.109375 47.828125 
Q 26.265625 48.1875 28.421875 48.1875 
Q 40.625 48.1875 47.75 41.5 
Q 54.890625 34.8125 54.890625 23.390625 
Q 54.890625 11.625 47.5625 5.09375 
Q 40.234375 -1.421875 26.90625 -1.421875 
Q 22.3125 -1.421875 17.546875 -0.640625 
Q 12.796875 0.140625 7.71875 1.703125 
L 7.71875 11.625 
Q 12.109375 9.234375 16.796875 8.0625 
Q 21.484375 6.890625 26.703125 6.890625 
Q 35.15625 6.890625 40.078125 11.328125 
Q 45.015625 15.765625 45.015625 23.390625 
Q 45.015625 31 40.078125 35.4375 
Q 35.15625 39.890625 26.703125 39.890625 
Q 22.75 39.890625 18.8125 39.015625 
Q 14.890625 38.140625 10.796875 36.28125 
z
" id="DejaVuSans-53"/>
      </defs>
      <g transform="translate(27.820312 219.8214)scale(0.1 -0.1)">
       <use xlink:href="#DejaVuSans-8722"/>
       <use x="83.789062" xlink:href="#DejaVuSans-55"/>
       <use x="147.412109" xlink:href="#DejaVuSans-53"/>
      </g>
     </g>
    </g>
    <g id="ytick_2">
     <g id="line2d_8">
      <g>
       <use style="stroke:#000000;stroke-width:0.8;" x="55.925" xlink:href="#m688f9922bb" y="186.348121"/>
      </g>
     </g>
     <g id="text_9">
      <!-- −50 -->
      <g transform="translate(27.820312 190.147339)scale(0.1 -0.1)">
       <use xlink:href="#DejaVuSans-8722"/>
       <use x="83.789062" xlink:href="#DejaVuSans-53"/>
       <use x="147.412109" xlink:href="#DejaVuSans-48"/>
      </g>
     </g>
    </g>
    <g id="ytick_3">
     <g id="line2d_9">
      <g>
       <use style="stroke:#000000;stroke-width:0.8;" x="55.925" xlink:href="#m688f9922bb" y="156.67406"/>
      </g>
     </g>
     <g id="text_10">
      <!-- −25 -->
      <g transform="translate(27.820312 160.473279)scale(0.1 -0.1)">
       <use xlink:href="#DejaVuSans-8722"/>
       <use x="83.789062" xlink:href="#DejaVuSans-50"/>
       <use x="147.412109" xlink:href="#DejaVuSans-53"/>
      </g>
     </g>
    </g>
    <g id="ytick_4">
     <g id="line2d_10">
      <g>
       <use style="stroke:#000000;stroke-width:0.8;" x="55.925" xlink:href="#m688f9922bb" y="127"/>
      </g>
     </g>
     <g id="text_11">
      <!-- 0 -->
      <g transform="translate(42.5625 130.799219)scale(0.1 -0.1)">
       <use xlink:href="#DejaVuSans-48"/>
      </g>
     </g>
    </g>
    <g id="ytick_5">
     <g id="line2d_11">
      <g>
       <use style="stroke:#000000;stroke-width:0.8;" x="55.925" xlink:href="#m688f9922bb" y="97.32594"/>
      </g>
     </g>
     <g id="text_12">
      <!-- 25 -->
      <g transform="translate(36.2 101.125158)scale(0.1 -0.1)">
       <use xlink:href="#DejaVuSans-50"/>
       <use x="63.623047" xlink:href="#DejaVuSans-53"/>
      </g>
     </g>
    </g>
    <g id="ytick_6">
     <g id="line2d_12">
      <g>
       <use style="stroke:#000000;stroke-width:0.8;" x="55.925" xlink:href="#m688f9922bb" y="67.651879"/>
      </g>
     </g>
     <g id="text_13">
      <!-- 50 -->
      <g transform="translate(36.2 71.451098)scale(0.1 -0.1)">
       <use xlink:href="#DejaVuSans-53"/>
       <use x="63.623047" xlink:href="#DejaVuSans-48"/>
      </g>
     </g>
    </g>
    <g id="ytick_7">
     <g id="line2d_13">
      <g>
       <use style="stroke:#000000;stroke-width:0.8;" x="55.925" xlink:href="#m688f9922bb" y="37.977819"/>
      </g>
     </g>
     <g id="text_14">
      <!-- 75 -->
      <g transform="translate(36.2 41.777038)scale(0.1 -0.1)">
       <use xlink:href="#DejaVuSans-55"/>
       <use x="63.623047" xlink:href="#DejaVuSans-53"/>
      </g>
     </g>
    </g>
    <g id="text_15">
     <!-- $P(t)$ -->
     <defs>
      <path d="M 16.890625 72.90625 
L 39.703125 72.90625 
Q 49.65625 72.90625 54.875 68.265625 
Q 60.109375 63.625 60.109375 54.6875 
Q 60.109375 42.671875 52.390625 35.984375 
Q 44.671875 29.296875 30.71875 29.296875 
L 18.3125 29.296875 
L 12.59375 0 
L 2.6875 0 
z
M 25.203125 64.796875 
L 19.921875 37.40625 
L 32.328125 37.40625 
Q 40.71875 37.40625 45.203125 41.703125 
Q 49.703125 46 49.703125 54 
Q 49.703125 59.125 46.65625 61.953125 
Q 43.609375 64.796875 38.09375 64.796875 
z
" id="DejaVuSans-Oblique-80"/>
      <path d="M 31 75.875 
Q 24.46875 64.65625 21.28125 53.65625 
Q 18.109375 42.671875 18.109375 31.390625 
Q 18.109375 20.125 21.3125 9.0625 
Q 24.515625 -2 31 -13.1875 
L 23.1875 -13.1875 
Q 15.875 -1.703125 12.234375 9.375 
Q 8.59375 20.453125 8.59375 31.390625 
Q 8.59375 42.28125 12.203125 53.3125 
Q 15.828125 64.359375 23.1875 75.875 
z
" id="DejaVuSans-40"/>
      <path d="M 8.015625 75.875 
L 15.828125 75.875 
Q 23.140625 64.359375 26.78125 53.3125 
Q 30.421875 42.28125 30.421875 31.390625 
Q 30.421875 20.453125 26.78125 9.375 
Q 23.140625 -1.703125 15.828125 -13.1875 
L 8.015625 -13.1875 
Q 14.5 -2 17.703125 9.0625 
Q 20.90625 20.125 20.90625 31.390625 
Q 20.90625 42.671875 17.703125 53.65625 
Q 14.5 64.65625 8.015625 75.875 
z
" id="DejaVuSans-41"/>
     </defs>
     <g transform="translate(21.740625 135.9)rotate(-90)scale(0.1 -0.1)">
      <use transform="translate(0 0.125)" xlink:href="#DejaVuSans-Oblique-80"/>
      <use transform="translate(60.302734 0.125)" xlink:href="#DejaVuSans-40"/>
      <use transform="translate(99.316406 0.125)" xlink:href="#DejaVuSans-Oblique-116"/>
      <use transform="translate(138.525391 0.125)" xlink:href="#DejaVuSans-41"/>
     </g>
    </g>
   </g>
   <g id="line2d_14">
    <path clip-path="url(#p13995deb40)" d="M 72.528409 127 
L 79.203146 118.522816 
L 82.540515 114.548431 
L 85.877884 110.883728 
L 89.215252 107.619852 
L 92.552621 104.837977 
L 94.221305 103.649928 
L 95.88999 102.607291 
L 97.558674 101.716557 
L 99.227358 100.983274 
L 100.896043 100.412007 
L 102.564727 100.006316 
L 104.233411 99.768725 
L 105.902096 99.700715 
L 107.57078 99.802709 
L 109.239464 100.074072 
L 110.908149 100.513114 
L 112.576833 101.117101 
L 114.245517 101.882271 
L 115.914202 102.80386 
L 117.582886 103.876129 
L 120.920255 106.445098 
L 124.257623 109.525286 
L 127.594992 113.040086 
L 130.932361 116.902082 
L 135.938414 123.134177 
L 145.95052 135.885791 
L 149.287888 139.833547 
L 152.625257 143.462121 
L 155.962626 146.681268 
L 159.299994 149.410923 
L 160.968679 150.570453 
L 162.637363 151.5832 
L 164.306047 152.442856 
L 165.974732 153.144069 
L 167.643416 153.682473 
L 169.3121 154.054713 
L 170.980785 154.258472 
L 172.649469 154.292481 
L 174.318153 154.156529 
L 175.986838 153.851461 
L 177.655522 153.379179 
L 179.324206 152.742622 
L 180.992891 151.945755 
L 182.661575 150.99354 
L 184.330259 149.891907 
L 187.667628 147.268718 
L 191.004997 144.141427 
L 194.342365 140.587813 
L 197.679734 136.696259 
L 202.685787 130.438717 
L 212.697893 117.707817 
L 216.035262 113.787674 
L 219.37263 110.196132 
L 222.709999 107.022518 
L 226.047368 104.345762 
L 227.716052 103.21504 
L 229.384736 102.232437 
L 231.053421 101.404072 
L 232.722105 100.735103 
L 234.390789 100.229697 
L 236.059474 99.891001 
L 237.728158 99.721124 
L 239.396842 99.721124 
L 241.065526 99.891001 
L 242.734211 100.229697 
L 244.402895 100.735103 
L 246.071579 101.404072 
L 247.740264 102.232437 
L 249.408948 103.21504 
L 251.077632 104.345762 
L 254.415001 107.022518 
L 257.75237 110.196132 
L 261.089738 113.787674 
L 264.427107 117.707817 
L 269.43316 123.989246 
L 277.776582 134.653736 
L 281.11395 138.678399 
L 284.451319 142.41261 
L 287.788688 145.763496 
L 291.126056 148.647717 
L 292.794741 149.891907 
L 294.463425 150.99354 
L 296.132109 151.945755 
L 297.800794 152.742622 
L 299.469478 153.379179 
L 301.138162 153.851461 
L 302.806847 154.156529 
L 304.475531 154.292481 
L 306.144215 154.258472 
L 307.8129 154.054713 
L 309.481584 153.682473 
L 311.150268 153.144069 
L 312.818953 152.442856 
L 314.487637 151.5832 
L 316.156321 150.570453 
L 317.825006 149.410923 
L 321.162374 146.681268 
L 324.499743 143.462121 
L 327.837112 139.833547 
L 331.17448 135.885791 
L 336.180533 129.582042 
L 344.523955 118.933535 
L 347.861324 114.933512 
L 351.198692 111.233594 
L 354.536061 107.925801 
L 357.87343 105.0924 
L 359.542114 103.876129 
L 361.210798 102.80386 
L 362.879483 101.882271 
L 364.548167 101.117101 
L 366.216851 100.513114 
L 367.885536 100.074072 
L 369.55422 99.802709 
L 371.222904 99.700715 
L 372.891589 99.768725 
L 374.560273 100.006316 
L 376.228957 100.412007 
L 377.897642 100.983274 
L 379.566326 101.716557 
L 381.23501 102.607291 
L 382.903695 103.649928 
L 384.572379 104.837977 
L 387.909748 107.619852 
L 391.247116 110.883728 
L 394.584485 114.548431 
L 397.921854 118.522816 
L 402.927907 124.847315 
L 404.596591 127 
L 404.596591 127 
" style="fill:none;stroke:#1f77b4;stroke-linecap:square;stroke-width:1.5;"/>
   </g>
   <g id="line2d_15">
    <path clip-path="url(#p13995deb40)" d="M 72.528409 127 
L 75.865778 94.196982 
L 77.534462 78.817842 
L 79.203146 64.637036 
L 80.871831 52.007252 
L 82.540515 41.242605 
L 84.209199 32.610821 
L 85.877884 26.326581 
L 87.546568 22.546179 
L 89.215252 21.363636 
L 90.883937 22.808365 
L 92.552621 26.844433 
L 94.221305 33.37146 
L 95.88999 42.227112 
L 97.558674 53.191142 
L 99.227358 65.990865 
L 100.896043 80.307939 
L 104.233411 112.040947 
L 109.239464 161.384147 
L 110.908149 176.660246 
L 112.576833 190.701251 
L 114.245517 203.157949 
L 115.914202 213.72053 
L 117.582886 222.126294 
L 119.25157 228.166182 
L 120.920255 231.689976 
L 122.588939 232.610037 
L 124.257623 230.903481 
L 125.926308 226.612753 
L 127.594992 219.844567 
L 129.263676 210.767253 
L 130.932361 199.606572 
L 132.601045 186.640101 
L 134.269729 172.190327 
L 137.607098 140.30634 
L 142.613151 91.043293 
L 144.281835 75.874041 
L 145.95052 61.976337 
L 147.619204 49.695831 
L 149.287888 39.337948 
L 150.956573 31.160298 
L 152.625257 25.366268 
L 154.293941 22.09996 
L 155.962626 21.44261 
L 157.63131 23.410567 
L 159.299994 27.954886 
L 160.968679 34.962545 
L 162.637363 44.259258 
L 164.306047 55.613808 
L 165.974732 68.743796 
L 167.643416 83.322669 
L 170.980785 115.349689 
L 175.986838 164.520306 
L 177.655522 179.57893 
L 179.324206 193.329869 
L 180.992891 205.431124 
L 182.661575 215.581728 
L 184.330259 223.529224 
L 185.998944 229.075952 
L 187.667628 232.08396 
L 189.336312 232.478436 
L 191.004997 230.249568 
L 192.673681 225.452791 
L 194.342365 218.207405 
L 196.01105 208.69361 
L 197.679734 197.148021 
L 199.348418 183.857788 
L 201.017103 169.15345 
L 204.354471 136.991378 
L 209.360524 87.925446 
L 211.029209 72.981203 
L 212.697893 59.380456 
L 214.366577 47.461468 
L 216.035262 37.520674 
L 217.703946 29.805311 
L 219.37263 24.507267 
L 221.041315 21.758309 
L 222.709999 21.626806 
L 224.378683 24.116029 
L 226.047368 29.164068 
L 227.716052 36.645375 
L 229.384736 46.373882 
L 231.053421 58.107633 
L 232.722105 71.554799 
L 234.390789 86.380936 
L 237.728158 118.670044 
L 242.734211 167.619064 
L 244.402895 182.445201 
L 246.071579 195.892367 
L 247.740264 207.626118 
L 249.408948 217.354625 
L 251.077632 224.835932 
L 252.746317 229.883971 
L 254.415001 232.373194 
L 256.083685 232.241691 
L 257.75237 229.492733 
L 259.421054 224.194689 
L 261.089738 216.479326 
L 262.758423 206.538532 
L 264.427107 194.619544 
L 266.095791 181.018797 
L 269.43316 150.158492 
L 276.107897 84.84655 
L 277.776582 70.142212 
L 279.445266 56.851979 
L 281.11395 45.30639 
L 282.782635 35.792595 
L 284.451319 28.547209 
L 286.120003 23.750432 
L 287.788688 21.521564 
L 289.457372 21.91604 
L 291.126056 24.924048 
L 292.794741 30.470776 
L 294.463425 38.418272 
L 296.132109 48.568876 
L 297.800794 60.670131 
L 299.469478 74.42107 
L 302.806847 105.471482 
L 309.481584 170.677331 
L 311.150268 185.256204 
L 312.818953 198.386192 
L 314.487637 209.740742 
L 316.156321 219.037455 
L 317.825006 226.045114 
L 319.49369 230.589433 
L 321.162374 232.55739 
L 322.831059 231.90004 
L 324.499743 228.633732 
L 326.168427 222.839702 
L 327.837112 214.662052 
L 329.505796 204.304169 
L 331.17448 192.023663 
L 332.843165 178.125959 
L 336.180533 146.893179 
L 341.186586 97.38337 
L 342.855271 81.809673 
L 344.523955 67.359899 
L 346.192639 54.393428 
L 347.861324 43.232747 
L 349.530008 34.155433 
L 351.198692 27.387247 
L 352.867377 23.096519 
L 354.536061 21.389963 
L 356.204745 22.310024 
L 357.87343 25.833818 
L 359.542114 31.873706 
L 361.210798 40.27947 
L 362.879483 50.842051 
L 364.548167 63.298749 
L 366.216851 77.339754 
L 369.55422 108.747117 
L 374.560273 158.213713 
L 376.228957 173.692061 
L 377.897642 188.009135 
L 379.566326 200.808858 
L 381.23501 211.772888 
L 382.903695 220.62854 
L 384.572379 227.155567 
L 386.241063 231.191635 
L 387.909748 232.636364 
L 389.578432 231.453821 
L 391.247116 227.673419 
L 392.915801 221.389179 
L 394.584485 212.757395 
L 396.253169 201.992748 
L 397.921854 189.362964 
L 399.590538 175.182158 
L 402.927907 143.608037 
L 404.596591 127 
L 404.596591 127 
" style="fill:none;stroke:#ff7f0e;stroke-linecap:square;stroke-width:1.5;"/>
   </g>
   <g id="line2d_16">
    <path clip-path="url(#p13995deb40)" d="M 72.528409 127 
L 75.865778 105.88647 
L 77.534462 96.81121 
L 79.203146 89.420917 
L 80.871831 84.128075 
L 82.540515 81.228101 
L 84.209199 80.882854 
L 85.877884 83.111606 
L 87.546568 87.789958 
L 89.215252 94.656793 
L 90.883937 103.328842 
L 92.552621 113.322081 
L 97.558674 145.471737 
L 99.227358 154.914031 
L 100.896043 162.798323 
L 102.564727 168.684556 
L 104.233411 172.244193 
L 105.902096 173.278555 
L 107.57078 171.729912 
L 109.239464 167.684698 
L 110.908149 161.368695 
L 112.576833 153.134426 
L 114.245517 143.441482 
L 120.920255 101.472001 
L 122.588939 93.125139 
L 124.257623 86.66898 
L 125.926308 82.46387 
L 127.594992 80.744515 
L 129.263676 81.606878 
L 130.932361 85.002827 
L 132.601045 90.742821 
L 134.269729 98.506485 
L 135.938414 107.860495 
L 139.275782 129.19158 
L 142.613151 150.040205 
L 144.281835 158.816363 
L 145.95052 165.816712 
L 147.619204 170.650532 
L 149.287888 173.048027 
L 150.956573 172.875383 
L 152.625257 170.142234 
L 154.293941 165.001131 
L 155.962626 157.73902 
L 157.63131 148.761232 
L 160.968679 127.730769 
L 164.306047 106.539434 
L 165.974732 97.368964 
L 167.643416 89.85233 
L 169.3121 84.409069 
L 170.980785 81.342991 
L 172.649469 80.82523 
L 174.318153 82.884681 
L 175.986838 87.4064 
L 177.655522 94.138009 
L 179.324206 102.703788 
L 180.992891 112.625644 
L 185.998944 144.799365 
L 187.667628 154.327591 
L 189.336312 162.330546 
L 191.004997 168.36155 
L 192.673681 172.083987 
L 194.342365 173.290092 
L 196.01105 171.912546 
L 197.679734 168.028237 
L 199.348418 161.853964 
L 201.017103 153.73434 
L 202.685787 144.122557 
L 209.360524 102.08479 
L 211.029209 93.627416 
L 212.697893 87.03271 
L 214.366577 82.668752 
L 216.035262 80.779112 
L 217.703946 81.469261 
L 219.37263 84.700677 
L 221.041315 90.293002 
L 222.709999 97.934102 
L 224.378683 107.197497 
L 227.716052 128.461357 
L 231.053421 149.40351 
L 232.722105 158.28159 
L 234.390789 165.413708 
L 236.059474 170.401792 
L 237.728158 172.967433 
L 239.396842 172.967433 
L 241.065526 170.401792 
L 242.734211 165.413708 
L 244.402895 158.28159 
L 246.071579 149.40351 
L 247.740264 139.274994 
L 252.746317 107.197497 
L 254.415001 97.934102 
L 256.083685 90.293002 
L 257.75237 84.700677 
L 259.421054 81.469261 
L 261.089738 80.779112 
L 262.758423 82.668752 
L 264.427107 87.03271 
L 266.095791 93.627416 
L 267.764476 102.08479 
L 269.43316 111.93279 
L 274.439213 144.122557 
L 276.107897 153.73434 
L 277.776582 161.853964 
L 279.445266 168.028237 
L 281.11395 171.912546 
L 282.782635 173.290092 
L 284.451319 172.083987 
L 286.120003 168.36155 
L 287.788688 162.330546 
L 289.457372 154.327591 
L 291.126056 144.799365 
L 297.800794 102.703788 
L 299.469478 94.138009 
L 301.138162 87.4064 
L 302.806847 82.884681 
L 304.475531 80.82523 
L 306.144215 81.342991 
L 307.8129 84.409069 
L 309.481584 89.85233 
L 311.150268 97.368964 
L 312.818953 106.539434 
L 316.156321 127.730769 
L 319.49369 148.761232 
L 321.162374 157.73902 
L 322.831059 165.001131 
L 324.499743 170.142234 
L 326.168427 172.875383 
L 327.837112 173.048027 
L 329.505796 170.650532 
L 331.17448 165.816712 
L 332.843165 158.816363 
L 334.511849 150.040205 
L 336.180533 139.978074 
L 341.186586 107.860495 
L 342.855271 98.506485 
L 344.523955 90.742821 
L 346.192639 85.002827 
L 347.861324 81.606878 
L 349.530008 80.744515 
L 351.198692 82.46387 
L 352.867377 86.66898 
L 354.536061 93.125139 
L 356.204745 101.472001 
L 357.87343 111.24369 
L 364.548167 153.134426 
L 366.216851 161.368695 
L 367.885536 167.684698 
L 369.55422 171.729912 
L 371.222904 173.278555 
L 372.891589 172.244193 
L 374.560273 168.684556 
L 376.228957 162.798323 
L 377.897642 154.914031 
L 379.566326 145.471737 
L 382.903695 124.078744 
L 384.572379 113.322081 
L 386.241063 103.328842 
L 387.909748 94.656793 
L 389.578432 87.789958 
L 391.247116 83.111606 
L 392.915801 80.882854 
L 394.584485 81.228101 
L 396.253169 84.128075 
L 397.921854 89.420917 
L 399.590538 96.81121 
L 401.259222 105.88647 
L 404.596591 127 
L 404.596591 127 
" style="fill:none;stroke:#2ca02c;stroke-linecap:square;stroke-width:1.5;"/>
   </g>
   <g id="line2d_17">
    <path clip-path="url(#p13995deb40)" d="M 72.528409 127 
L 74.197093 109.935059 
L 75.865778 94.557244 
L 77.534462 82.386883 
L 79.203146 74.627199 
L 80.871831 72.045352 
L 82.540515 74.896598 
L 84.209199 82.899048 
L 85.877884 95.26154 
L 87.546568 110.761855 
L 90.883937 144.887483 
L 92.552621 160.138966 
L 94.221305 172.114163 
L 95.88999 179.629149 
L 97.558674 181.940952 
L 99.227358 178.821017 
L 100.896043 170.577796 
L 102.564727 158.026255 
L 104.233411 142.407303 
L 107.57078 108.294432 
L 109.239464 93.173083 
L 110.908149 81.396033 
L 112.576833 74.12762 
L 114.245517 72.086437 
L 115.914202 75.474283 
L 117.582886 83.956221 
L 119.25157 96.693683 
L 120.920255 112.427379 
L 124.257623 146.518991 
L 125.926308 161.506437 
L 127.594992 173.082404 
L 129.263676 180.102434 
L 130.932361 181.87249 
L 132.601045 178.217576 
L 134.269729 169.499035 
L 135.938414 156.578827 
L 137.607098 140.734307 
L 140.944467 106.672451 
L 142.613151 91.822642 
L 144.281835 80.450643 
L 145.95052 73.680747 
L 147.619204 72.18226 
L 149.287888 76.10333 
L 150.956573 85.0563 
L 152.625257 98.156036 
L 154.293941 114.10743 
L 157.63131 148.131041 
L 159.299994 162.839512 
L 160.968679 174.004709 
L 162.637363 180.522785 
L 164.306047 181.749329 
L 165.974732 177.56308 
L 167.643416 168.377911 
L 169.3121 155.101913 
L 170.980785 139.04762 
L 174.318153 105.070733 
L 175.986838 90.507266 
L 177.655522 79.551653 
L 179.324206 73.287022 
L 180.992891 72.332726 
L 182.661575 76.783112 
L 184.330259 86.19819 
L 185.998944 99.647141 
L 187.667628 115.800333 
L 191.004997 149.722027 
L 192.673681 164.136862 
L 194.342365 174.880159 
L 196.01105 180.889784 
L 197.679734 181.571594 
L 199.348418 176.858182 
L 201.017103 167.21554 
L 202.685787 153.596988 
L 206.023156 120.077713 
L 207.69184 103.490875 
L 209.360524 89.228266 
L 211.029209 78.699961 
L 212.697893 72.946841 
L 214.366577 72.537687 
L 216.035262 77.51295 
L 217.703946 87.380752 
L 219.37263 101.165512 
L 222.709999 134.782069 
L 224.378683 151.290364 
L 226.047368 165.397192 
L 227.716052 175.707881 
L 229.384736 181.203064 
L 231.053421 181.33946 
L 232.722105 176.103584 
L 234.390789 166.013081 
L 236.059474 152.065549 
L 241.065526 101.934451 
L 242.734211 87.986919 
L 244.402895 77.896416 
L 246.071579 72.66054 
L 247.740264 72.796936 
L 249.408948 78.292119 
L 251.077632 88.602808 
L 252.746317 102.709636 
L 257.75237 152.834488 
L 259.421054 166.619248 
L 261.089738 176.48705 
L 262.758423 181.462313 
L 264.427107 181.053159 
L 266.095791 175.300039 
L 267.764476 164.771734 
L 269.43316 150.509125 
L 274.439213 100.403012 
L 276.107897 86.78446 
L 277.776582 77.141818 
L 279.445266 72.428406 
L 281.11395 73.110216 
L 282.782635 79.119841 
L 284.451319 89.863138 
L 286.120003 104.277973 
L 291.126056 154.352859 
L 292.794741 167.80181 
L 294.463425 177.216888 
L 296.132109 181.667274 
L 297.800794 180.712978 
L 299.469478 174.448347 
L 301.138162 163.492734 
L 302.806847 148.929267 
L 307.8129 98.898087 
L 309.481584 85.622089 
L 311.150268 76.43692 
L 312.818953 72.250671 
L 314.487637 73.477215 
L 316.156321 79.995291 
L 317.825006 91.160488 
L 319.49369 105.868959 
L 324.499743 155.843964 
L 326.168427 168.9437 
L 327.837112 177.89667 
L 329.505796 181.81774 
L 331.17448 180.319253 
L 332.843165 173.549357 
L 334.511849 162.177358 
L 336.180533 147.327549 
L 341.186586 97.421173 
L 342.855271 84.500965 
L 344.523955 75.782424 
L 346.192639 72.12751 
L 347.861324 73.897566 
L 349.530008 80.917596 
L 351.198692 92.493563 
L 352.867377 107.481009 
L 357.87343 157.306317 
L 359.542114 170.043779 
L 361.210798 178.525717 
L 362.879483 181.913563 
L 364.548167 179.87238 
L 366.216851 172.603967 
L 367.885536 160.826917 
L 369.55422 145.705568 
L 372.891589 111.592697 
L 374.560273 95.973745 
L 376.228957 83.422204 
L 377.897642 75.178983 
L 379.566326 72.059048 
L 381.23501 74.370851 
L 382.903695 81.885837 
L 384.572379 93.861034 
L 386.241063 109.112517 
L 389.578432 143.238145 
L 391.247116 158.73846 
L 392.915801 171.100952 
L 394.584485 179.103402 
L 396.253169 181.954648 
L 397.921854 179.372801 
L 399.590538 171.613117 
L 401.259222 159.442756 
L 402.927907 144.064941 
L 404.596591 127 
L 404.596591 127 
" style="fill:none;stroke:#d62728;stroke-linecap:square;stroke-width:1.5;"/>
   </g>
   <g id="line2d_18">
    <path clip-path="url(#p13995deb40)" d="M 72.528409 127 
L 74.197093 122.43606 
L 75.865778 118.573849 
L 77.534462 116.007199 
L 79.203146 115.130746 
L 80.871831 116.079248 
L 82.540515 118.70687 
L 84.209199 122.609601 
L 87.546568 131.736343 
L 89.215252 135.557073 
L 90.883937 138.062111 
L 92.552621 138.866296 
L 94.221305 137.84598 
L 95.88999 135.158042 
L 97.558674 131.215765 
L 100.896043 122.092435 
L 102.564727 118.314138 
L 104.233411 115.871335 
L 105.902096 115.139619 
L 107.57078 116.231494 
L 109.239464 118.97908 
L 110.908149 122.959921 
L 114.245517 132.077565 
L 115.914202 135.812486 
L 117.582886 138.192444 
L 119.25157 138.85151 
L 120.920255 137.688348 
L 122.588939 134.8818 
L 124.257623 130.863387 
L 127.594992 121.753701 
L 129.263676 118.063086 
L 130.932361 115.746566 
L 132.601045 115.160315 
L 134.269729 116.394474 
L 135.938414 119.259285 
L 137.607098 123.314268 
L 140.944467 132.413726 
L 142.613151 136.059114 
L 144.281835 138.31162 
L 145.95052 138.824909 
L 147.619204 137.520061 
L 149.287888 134.597702 
L 150.956573 130.507159 
L 154.293941 121.420197 
L 155.962626 117.820943 
L 157.63131 115.633013 
L 159.299994 115.192813 
L 160.968679 116.568026 
L 162.637363 119.547206 
L 164.306047 123.672289 
L 167.643416 132.74449 
L 169.3121 136.296713 
L 170.980785 138.41952 
L 172.649469 138.786521 
L 174.318153 137.341287 
L 175.986838 134.30603 
L 177.655522 130.147434 
L 180.992891 121.092255 
L 182.661575 117.587949 
L 184.330259 115.530792 
L 185.998944 115.237081 
L 187.667628 116.751977 
L 189.336312 119.842556 
L 191.004997 124.033627 
L 194.342365 133.069528 
L 196.01105 136.525044 
L 197.679734 138.516037 
L 199.348418 138.736384 
L 201.017103 137.152205 
L 202.685787 134.007075 
L 204.354471 129.784572 
L 207.69184 120.770202 
L 209.360524 117.364338 
L 211.029209 115.440003 
L 212.697893 115.293075 
L 214.366577 116.946143 
L 216.035262 120.145041 
L 217.703946 124.397922 
L 221.041315 133.388515 
L 222.709999 136.74388 
L 224.378683 138.601075 
L 226.047368 138.674548 
L 227.716052 136.953003 
L 229.384736 133.701135 
L 231.053421 129.418935 
L 232.722105 124.764811 
L 234.390789 120.454359 
L 236.059474 117.150331 
L 237.728158 115.360738 
L 239.396842 115.360738 
L 241.065526 117.150331 
L 242.734211 120.454359 
L 244.402895 124.764811 
L 246.071579 129.418935 
L 247.740264 133.701135 
L 249.408948 136.953003 
L 251.077632 138.674548 
L 252.746317 138.601075 
L 254.415001 136.74388 
L 256.083685 133.388515 
L 257.75237 129.050886 
L 259.421054 124.397922 
L 261.089738 120.145041 
L 262.758423 116.946143 
L 264.427107 115.293075 
L 266.095791 115.440003 
L 267.764476 117.364338 
L 269.43316 120.770202 
L 274.439213 134.007075 
L 276.107897 137.152205 
L 277.776582 138.736384 
L 279.445266 138.516037 
L 281.11395 136.525044 
L 282.782635 133.069528 
L 287.788688 119.842556 
L 289.457372 116.751977 
L 291.126056 115.237081 
L 292.794741 115.530792 
L 294.463425 117.587949 
L 296.132109 121.092255 
L 301.138162 134.30603 
L 302.806847 137.341287 
L 304.475531 138.786521 
L 306.144215 138.41952 
L 307.8129 136.296713 
L 309.481584 132.74449 
L 314.487637 119.547206 
L 316.156321 116.568026 
L 317.825006 115.192813 
L 319.49369 115.633013 
L 321.162374 117.820943 
L 322.831059 121.420197 
L 327.837112 134.597702 
L 329.505796 137.520061 
L 331.17448 138.824909 
L 332.843165 138.31162 
L 334.511849 136.059114 
L 336.180533 132.413726 
L 341.186586 119.259285 
L 342.855271 116.394474 
L 344.523955 115.160315 
L 346.192639 115.746566 
L 347.861324 118.063086 
L 349.530008 121.753701 
L 352.867377 130.863387 
L 354.536061 134.8818 
L 356.204745 137.688348 
L 357.87343 138.85151 
L 359.542114 138.192444 
L 361.210798 135.812486 
L 362.879483 132.077565 
L 366.216851 122.959921 
L 367.885536 118.97908 
L 369.55422 116.231494 
L 371.222904 115.139619 
L 372.891589 115.871335 
L 374.560273 118.314138 
L 376.228957 122.092435 
L 379.566326 131.215765 
L 381.23501 135.158042 
L 382.903695 137.84598 
L 384.572379 138.866296 
L 386.241063 138.062111 
L 387.909748 135.557073 
L 389.578432 131.736343 
L 392.915801 122.609601 
L 394.584485 118.70687 
L 396.253169 116.079248 
L 397.921854 115.130746 
L 399.590538 116.007199 
L 401.259222 118.573849 
L 402.927907 122.43606 
L 404.596591 127 
L 404.596591 127 
" style="fill:none;stroke:#9467bd;stroke-linecap:square;stroke-width:1.5;"/>
   </g>
   <g id="line2d_19">
    <path clip-path="url(#p13995deb40)" d="M 72.528409 127 
L 74.197093 116.713921 
L 75.865778 108.692241 
L 77.534462 104.70087 
L 79.203146 105.618475 
L 80.871831 111.243053 
L 82.540515 120.336398 
L 84.209199 130.896683 
L 85.877884 140.599144 
L 87.546568 147.307861 
L 89.215252 149.545963 
L 90.883937 146.82075 
L 92.552621 139.732156 
L 97.558674 110.496863 
L 99.227358 105.302911 
L 100.896043 104.885402 
L 102.564727 109.336246 
L 104.233411 117.675626 
L 107.57078 138.224715 
L 109.239464 145.910706 
L 110.908149 149.433654 
L 112.576833 148.018012 
L 114.245517 141.97542 
L 115.914202 132.636109 
L 117.582886 122.056052 
L 119.25157 112.564367 
L 120.920255 106.250572 
L 122.588939 104.504599 
L 124.257623 107.71081 
L 125.926308 115.163384 
L 129.263676 135.671485 
L 130.932361 144.212317 
L 132.601045 148.963994 
L 134.269729 148.880471 
L 135.938414 143.980136 
L 137.607098 135.341759 
L 140.944467 114.861821 
L 142.613151 107.528756 
L 144.281835 104.482132 
L 145.95052 106.392638 
L 147.619204 112.839691 
L 149.287888 122.404024 
L 150.956573 132.980125 
L 152.625257 142.239749 
L 154.293941 148.144463 
L 155.962626 149.39439 
L 157.63131 145.714371 
L 159.299994 137.914531 
L 162.637363 117.352627 
L 164.306047 109.117103 
L 165.974732 104.818358 
L 167.643416 105.402725 
L 169.3121 110.741561 
L 170.980785 119.659564 
L 174.318153 140.024422 
L 175.986838 146.988115 
L 177.655522 149.551583 
L 179.324206 147.150499 
L 180.992891 140.313442 
L 182.661575 130.545536 
L 184.330259 119.997109 
L 185.998944 110.990312 
L 187.667628 105.507922 
L 189.336312 104.756842 
L 191.004997 108.902417 
L 192.673681 117.032032 
L 196.01105 137.601626 
L 197.679734 145.513372 
L 199.348418 149.349545 
L 201.017103 148.265644 
L 202.685787 142.500279 
L 204.354471 133.322651 
L 206.023156 122.753141 
L 207.69184 113.118544 
L 209.360524 106.539839 
L 211.029209 104.465276 
L 212.697893 107.351555 
L 214.366577 114.563282 
L 219.37263 143.743723 
L 221.041315 148.791495 
L 222.709999 149.042043 
L 224.378683 144.440209 
L 226.047368 135.999051 
L 229.384736 115.467897 
L 231.053421 107.897672 
L 232.722105 104.532673 
L 234.390789 106.113677 
L 236.059474 112.292641 
L 237.728158 121.709313 
L 239.396842 132.290687 
L 241.065526 141.707359 
L 242.734211 147.886323 
L 244.402895 149.467327 
L 246.071579 146.102328 
L 247.740264 138.532103 
L 251.077632 118.000949 
L 252.746317 109.559791 
L 254.415001 104.957957 
L 256.083685 105.208505 
L 257.75237 110.256277 
L 259.421054 118.990047 
L 262.758423 139.436718 
L 264.427107 146.648445 
L 266.095791 149.534724 
L 267.764476 147.460161 
L 269.43316 140.881456 
L 271.101844 131.246859 
L 272.770529 120.677349 
L 274.439213 111.499721 
L 276.107897 105.734356 
L 277.776582 104.650455 
L 279.445266 108.486628 
L 281.11395 116.398374 
L 284.451319 136.967968 
L 286.120003 145.097583 
L 287.788688 149.243158 
L 289.457372 148.492078 
L 291.126056 143.009688 
L 292.794741 134.002891 
L 294.463425 123.454464 
L 296.132109 113.686558 
L 297.800794 106.849501 
L 299.469478 104.448417 
L 301.138162 107.011885 
L 302.806847 113.975578 
L 304.475531 123.806494 
L 306.144215 134.340436 
L 307.8129 143.258439 
L 309.481584 148.597275 
L 311.150268 149.181642 
L 312.818953 144.882897 
L 314.487637 136.647373 
L 317.825006 116.085469 
L 319.49369 108.285629 
L 321.162374 104.60561 
L 322.831059 105.855537 
L 324.499743 111.760251 
L 326.168427 121.019875 
L 327.837112 131.595976 
L 329.505796 141.160309 
L 331.17448 147.607362 
L 332.843165 149.517868 
L 334.511849 146.471244 
L 336.180533 139.138179 
L 339.517902 118.658241 
L 341.186586 110.019864 
L 342.855271 105.119529 
L 344.523955 105.036006 
L 346.192639 109.787683 
L 347.861324 118.328515 
L 351.198692 138.836616 
L 352.867377 146.28919 
L 354.536061 149.495401 
L 356.204745 147.749428 
L 357.87343 141.435633 
L 359.542114 131.943948 
L 361.210798 121.363891 
L 362.879483 112.02458 
L 364.548167 105.981988 
L 366.216851 104.566346 
L 367.885536 108.089294 
L 369.55422 115.775285 
L 372.891589 136.324374 
L 374.560273 144.663754 
L 376.228957 149.114598 
L 377.897642 148.697089 
L 379.566326 143.503137 
L 381.23501 134.676151 
L 384.572379 114.267844 
L 386.241063 107.17925 
L 387.909748 104.454037 
L 389.578432 106.692139 
L 391.247116 113.400856 
L 392.915801 123.103317 
L 394.584485 133.663602 
L 396.253169 142.756947 
L 397.921854 148.381525 
L 399.590538 149.29913 
L 401.259222 145.307759 
L 402.927907 137.286079 
L 404.596591 127 
L 404.596591 127 
" style="fill:none;stroke:#8c564b;stroke-linecap:square;stroke-width:1.5;"/>
   </g>
   <g id="line2d_20">
    <path clip-path="url(#p13995deb40)" d="M 72.528409 127 
L 74.197093 123.075227 
L 75.865778 120.318519 
L 77.534462 119.550307 
L 79.203146 120.999223 
L 80.871831 124.234048 
L 82.540515 128.292058 
L 84.209199 131.965534 
L 85.877884 134.161202 
L 87.546568 134.225601 
L 89.215252 132.139566 
L 90.883937 128.523929 
L 92.552621 124.45475 
L 94.221305 121.143071 
L 95.88999 119.574492 
L 97.558674 120.215841 
L 99.227358 122.876246 
L 102.564727 130.721879 
L 104.233411 133.572143 
L 105.902096 134.466451 
L 107.57078 133.138644 
L 109.239464 129.983896 
L 110.908149 125.941101 
L 112.576833 122.213448 
L 114.245517 119.910336 
L 115.914202 119.717202 
L 117.582886 121.691525 
L 119.25157 125.245719 
L 120.920255 129.322011 
L 122.588939 132.707242 
L 124.257623 134.393922 
L 125.926308 133.880074 
L 127.594992 131.318624 
L 130.932361 123.484724 
L 132.601045 120.543745 
L 134.269729 119.524233 
L 135.938414 120.729608 
L 137.607098 123.801134 
L 140.944467 131.602799 
L 142.613151 134.011059 
L 144.281835 134.332735 
L 145.95052 132.472093 
L 147.619204 128.982884 
L 149.287888 124.903542 
L 150.956573 121.448134 
L 152.625257 119.645034 
L 154.293941 120.03087 
L 155.962626 122.49081 
L 159.299994 130.305168 
L 160.968679 133.33393 
L 162.637363 134.47763 
L 164.306047 133.395889 
L 165.974732 130.410647 
L 169.3121 122.585543 
L 170.980785 120.074535 
L 172.649469 119.624637 
L 174.318153 121.369744 
L 175.986838 124.79049 
L 177.655522 128.868815 
L 179.324206 132.390956 
L 180.992891 134.308677 
L 182.661575 134.05124 
L 184.330259 131.69526 
L 185.998944 127.941909 
L 187.667628 123.908234 
L 189.336312 120.794709 
L 191.004997 119.52796 
L 192.673681 120.484989 
L 194.342365 123.380971 
L 197.679734 131.221715 
L 199.348418 133.832968 
L 201.017103 134.410639 
L 202.685787 132.782806 
L 204.354471 129.433934 
L 206.023156 125.360691 
L 207.69184 121.775328 
L 209.360524 119.744896 
L 211.029209 119.873679 
L 212.697893 122.123349 
L 214.366577 125.824375 
L 216.035262 129.875282 
L 217.703946 133.070467 
L 219.37263 134.459001 
L 221.041315 133.627638 
L 222.709999 130.823802 
L 226.047368 122.975235 
L 227.716052 120.266341 
L 229.384736 119.561472 
L 231.053421 121.070408 
L 232.722105 124.344068 
L 234.390789 128.408169 
L 236.059474 132.05318 
L 237.728158 134.194298 
L 239.396842 134.194298 
L 241.065526 132.05318 
L 242.734211 128.408169 
L 244.402895 124.344068 
L 246.071579 121.070408 
L 247.740264 119.561472 
L 249.408948 120.266341 
L 251.077632 122.975235 
L 254.415001 130.823802 
L 256.083685 133.627638 
L 257.75237 134.459001 
L 259.421054 133.070467 
L 261.089738 129.875282 
L 262.758423 125.824375 
L 264.427107 122.123349 
L 266.095791 119.873679 
L 267.764476 119.744896 
L 269.43316 121.775328 
L 271.101844 125.360691 
L 272.770529 129.433934 
L 274.439213 132.782806 
L 276.107897 134.410639 
L 277.776582 133.832968 
L 279.445266 131.221715 
L 282.782635 123.380971 
L 284.451319 120.484989 
L 286.120003 119.52796 
L 287.788688 120.794709 
L 289.457372 123.908234 
L 292.794741 131.69526 
L 294.463425 134.05124 
L 296.132109 134.308677 
L 297.800794 132.390956 
L 299.469478 128.868815 
L 301.138162 124.79049 
L 302.806847 121.369744 
L 304.475531 119.624637 
L 306.144215 120.074535 
L 307.8129 122.585543 
L 311.150268 130.410647 
L 312.818953 133.395889 
L 314.487637 134.47763 
L 316.156321 133.33393 
L 317.825006 130.305168 
L 321.162374 122.49081 
L 322.831059 120.03087 
L 324.499743 119.645034 
L 326.168427 121.448134 
L 327.837112 124.903542 
L 329.505796 128.982884 
L 331.17448 132.472093 
L 332.843165 134.332735 
L 334.511849 134.011059 
L 336.180533 131.602799 
L 339.517902 123.801134 
L 341.186586 120.729608 
L 342.855271 119.524233 
L 344.523955 120.543745 
L 346.192639 123.484724 
L 349.530008 131.318624 
L 351.198692 133.880074 
L 352.867377 134.393922 
L 354.536061 132.707242 
L 356.204745 129.322011 
L 357.87343 125.245719 
L 359.542114 121.691525 
L 361.210798 119.717202 
L 362.879483 119.910336 
L 364.548167 122.213448 
L 366.216851 125.941101 
L 367.885536 129.983896 
L 369.55422 133.138644 
L 371.222904 134.466451 
L 372.891589 133.572143 
L 374.560273 130.721879 
L 377.897642 122.876246 
L 379.566326 120.215841 
L 381.23501 119.574492 
L 382.903695 121.143071 
L 384.572379 124.45475 
L 386.241063 128.523929 
L 387.909748 132.139566 
L 389.578432 134.225601 
L 391.247116 134.161202 
L 392.915801 131.965534 
L 394.584485 128.292058 
L 396.253169 124.234048 
L 397.921854 120.999223 
L 399.590538 119.550307 
L 401.259222 120.318519 
L 402.927907 123.075227 
L 404.596591 127 
L 404.596591 127 
" style="fill:none;stroke:#e377c2;stroke-linecap:square;stroke-width:1.5;"/>
   </g>
   <g id="line2d_21">
    <path clip-path="url(#p13995deb40)" d="M 72.528409 127 
L 74.197093 118.241157 
L 75.865778 112.860475 
L 77.534462 112.933207 
L 79.203146 118.431301 
L 82.540515 135.946805 
L 84.209199 141.208733 
L 85.877884 140.990555 
L 87.546568 135.376419 
L 90.883937 117.867463 
L 92.552621 112.725599 
L 94.221305 113.089169 
L 95.88999 118.817949 
L 99.227358 136.315993 
L 100.896043 141.33651 
L 102.564727 140.827639 
L 104.233411 134.985644 
L 107.57078 117.502873 
L 109.239464 112.604953 
L 110.908149 113.258998 
L 112.576833 119.212753 
L 115.914202 136.675894 
L 117.582886 141.449996 
L 119.25157 140.65094 
L 120.920255 134.58691 
L 124.257623 117.14775 
L 125.926308 112.498656 
L 127.594992 113.442525 
L 129.263676 119.615319 
L 130.932361 128.63628 
L 132.601045 137.026151 
L 134.269729 141.549078 
L 135.938414 140.460632 
L 137.607098 134.180612 
L 139.275782 125.131132 
L 140.944467 116.802448 
L 142.613151 112.406814 
L 144.281835 113.639565 
L 145.95052 120.025246 
L 147.619204 129.100991 
L 149.287888 137.366413 
L 150.956573 141.633657 
L 152.625257 140.256907 
L 154.293941 133.767157 
L 155.962626 124.667411 
L 157.63131 116.467311 
L 159.299994 112.329519 
L 160.968679 113.849924 
L 162.637363 120.442126 
L 164.306047 129.563607 
L 165.974732 137.696341 
L 167.643416 141.703648 
L 169.3121 140.039967 
L 170.980785 133.346956 
L 172.649469 124.206014 
L 174.318153 116.142673 
L 175.986838 112.266848 
L 177.655522 114.073391 
L 179.324206 120.865543 
L 180.992891 130.023668 
L 182.661575 138.015607 
L 184.330259 141.758983 
L 185.998944 139.810029 
L 187.667628 132.920428 
L 189.336312 123.747403 
L 191.004997 115.828858 
L 192.673681 112.218864 
L 194.342365 114.309744 
L 196.01105 121.295075 
L 197.679734 130.480715 
L 199.348418 138.323893 
L 201.017103 141.799606 
L 202.685787 139.567321 
L 204.354471 132.487999 
L 206.023156 123.292034 
L 207.69184 115.526178 
L 209.360524 112.185613 
L 211.029209 114.558746 
L 212.697893 121.730294 
L 214.366577 130.934293 
L 216.035262 138.620891 
L 217.703946 141.825476 
L 219.37263 139.312086 
L 221.041315 132.050099 
L 222.709999 122.840361 
L 224.378683 115.234936 
L 226.047368 112.16713 
L 227.716052 114.82015 
L 229.384736 122.170766 
L 231.053421 131.383948 
L 232.722105 138.906304 
L 234.390789 141.836568 
L 236.059474 139.044578 
L 237.728158 131.607165 
L 239.396842 122.392835 
L 241.065526 114.955422 
L 242.734211 112.163432 
L 244.402895 115.093696 
L 246.071579 122.616052 
L 247.740264 131.829234 
L 249.408948 139.17985 
L 251.077632 141.83287 
L 252.746317 138.765064 
L 254.415001 131.159639 
L 256.083685 121.949901 
L 257.75237 114.687914 
L 259.421054 112.174524 
L 261.089738 115.379109 
L 262.758423 123.065707 
L 264.427107 132.269706 
L 266.095791 139.441254 
L 267.764476 141.814387 
L 269.43316 138.473822 
L 271.101844 130.707966 
L 272.770529 121.512001 
L 274.439213 114.432679 
L 276.107897 112.200394 
L 277.776582 115.676107 
L 279.445266 123.519285 
L 281.11395 132.704925 
L 282.782635 139.690256 
L 284.451319 141.781136 
L 286.120003 138.171142 
L 287.788688 130.252597 
L 289.457372 121.079572 
L 291.126056 114.189971 
L 292.794741 112.241017 
L 294.463425 115.984393 
L 296.132109 123.976332 
L 297.800794 133.134457 
L 299.469478 139.926609 
L 301.138162 141.733152 
L 302.806847 137.857327 
L 304.475531 129.793986 
L 306.144215 120.653044 
L 307.8129 113.960033 
L 309.481584 112.296352 
L 311.150268 116.303659 
L 312.818953 124.436393 
L 314.487637 133.557874 
L 316.156321 140.150076 
L 317.825006 141.670481 
L 319.49369 137.532689 
L 321.162374 129.332589 
L 322.831059 120.232843 
L 324.499743 113.743093 
L 326.168427 112.366343 
L 327.837112 116.633587 
L 329.505796 124.899009 
L 331.17448 133.974754 
L 332.843165 140.360435 
L 334.511849 141.593186 
L 336.180533 137.197552 
L 337.849218 128.868868 
L 339.517902 119.819388 
L 341.186586 113.539368 
L 342.855271 112.450922 
L 344.523955 116.973849 
L 346.192639 125.36372 
L 347.861324 134.384681 
L 349.530008 140.557475 
L 351.198692 141.501344 
L 352.867377 136.85225 
L 356.204745 119.41309 
L 357.87343 113.34906 
L 359.542114 112.550004 
L 361.210798 117.324106 
L 364.548167 134.787247 
L 366.216851 140.741002 
L 367.885536 141.395047 
L 369.55422 136.497127 
L 372.891589 119.014356 
L 374.560273 113.172361 
L 376.228957 112.66349 
L 377.897642 117.684007 
L 381.23501 135.182051 
L 382.903695 140.910831 
L 384.572379 141.274401 
L 386.241063 136.132537 
L 389.578432 118.623581 
L 391.247116 113.009445 
L 392.915801 112.791267 
L 394.584485 118.053195 
L 397.921854 135.568699 
L 399.590538 141.066793 
L 401.259222 141.139525 
L 402.927907 135.758843 
L 404.596591 127 
L 404.596591 127 
" style="fill:none;stroke:#7f7f7f;stroke-linecap:square;stroke-width:1.5;"/>
   </g>
   <g id="line2d_22">
    <path clip-path="url(#p13995deb40)" d="M 72.528409 127 
L 74.197093 125.064821 
L 75.865778 124.065904 
L 77.534462 124.486536 
L 79.203146 126.12321 
L 80.871831 128.184086 
L 82.540515 129.672087 
L 84.209199 129.867302 
L 85.877884 128.675284 
L 89.215252 124.828535 
L 90.883937 124.034905 
L 92.552621 124.675822 
L 94.221305 126.441203 
L 95.88999 128.476936 
L 97.558674 129.798111 
L 99.227358 129.765528 
L 100.896043 128.394951 
L 102.564727 126.349481 
L 104.233411 124.618739 
L 105.902096 124.040079 
L 107.57078 124.893462 
L 110.908149 128.751769 
L 112.576833 129.889999 
L 114.245517 129.630015 
L 115.914202 128.0976 
L 117.582886 126.034153 
L 119.25157 124.437994 
L 120.920255 124.081363 
L 122.588939 125.136801 
L 125.926308 129.00523 
L 127.594992 129.94663 
L 129.263676 129.462417 
L 130.932361 127.786859 
L 132.601045 125.730609 
L 134.269729 124.288505 
L 135.938414 124.158253 
L 137.607098 125.402871 
L 139.275782 127.420198 
L 140.944467 129.234228 
L 142.613151 129.967314 
L 144.281835 129.264779 
L 145.95052 127.466518 
L 147.619204 125.442551 
L 149.287888 124.172095 
L 150.956573 124.269812 
L 152.625257 125.688425 
L 154.293941 127.741593 
L 155.962626 129.43597 
L 157.63131 129.951797 
L 159.299994 129.03951 
L 162.637363 125.173493 
L 164.306047 124.090184 
L 165.974732 124.414678 
L 167.643416 125.98998 
L 169.3121 128.053941 
L 170.980785 129.607993 
L 172.649469 129.900269 
L 174.318153 128.789361 
L 177.655522 124.926717 
L 179.324206 124.043773 
L 180.992891 124.591084 
L 182.661575 126.303857 
L 184.330259 128.353431 
L 185.998944 129.7482 
L 187.667628 129.813359 
L 189.336312 128.517382 
L 191.004997 126.487279 
L 192.673681 124.705236 
L 194.342365 124.033426 
L 196.01105 124.796879 
L 197.679734 126.626226 
L 199.348418 128.63641 
L 201.017103 129.85488 
L 202.685787 129.692126 
L 204.354471 128.226891 
L 206.023156 126.168072 
L 207.69184 124.511749 
L 209.360524 124.05927 
L 211.029209 125.02955 
L 214.366577 128.899425 
L 216.035262 129.926731 
L 217.703946 129.538051 
L 219.37263 127.921433 
L 221.041315 125.859015 
L 222.709999 124.348619 
L 224.378683 124.120991 
L 226.047368 125.28626 
L 229.384736 129.139268 
L 231.053421 129.962877 
L 232.722105 129.353013 
L 234.390789 127.604734 
L 236.059474 125.563878 
L 237.728158 124.217834 
L 239.396842 124.217834 
L 241.065526 125.563878 
L 242.734211 127.604734 
L 244.402895 129.353013 
L 246.071579 129.962877 
L 247.740264 129.139268 
L 251.077632 125.28626 
L 252.746317 124.120991 
L 254.415001 124.348619 
L 256.083685 125.859015 
L 257.75237 127.921433 
L 259.421054 129.538051 
L 261.089738 129.926731 
L 262.758423 128.899425 
L 266.095791 125.02955 
L 267.764476 124.05927 
L 269.43316 124.511749 
L 271.101844 126.168072 
L 272.770529 128.226891 
L 274.439213 129.692126 
L 276.107897 129.85488 
L 277.776582 128.63641 
L 279.445266 126.626226 
L 281.11395 124.796879 
L 282.782635 124.033426 
L 284.451319 124.705236 
L 286.120003 126.487279 
L 287.788688 128.517382 
L 289.457372 129.813359 
L 291.126056 129.7482 
L 292.794741 128.353431 
L 294.463425 126.303857 
L 296.132109 124.591084 
L 297.800794 124.043773 
L 299.469478 124.926717 
L 302.806847 128.789361 
L 304.475531 129.900269 
L 306.144215 129.607993 
L 307.8129 128.053941 
L 309.481584 125.98998 
L 311.150268 124.414678 
L 312.818953 124.090184 
L 314.487637 125.173493 
L 317.825006 129.03951 
L 319.49369 129.951797 
L 321.162374 129.43597 
L 322.831059 127.741593 
L 324.499743 125.688425 
L 326.168427 124.269812 
L 327.837112 124.172095 
L 329.505796 125.442551 
L 331.17448 127.466518 
L 332.843165 129.264779 
L 334.511849 129.967314 
L 336.180533 129.234228 
L 337.849218 127.420198 
L 339.517902 125.402871 
L 341.186586 124.158253 
L 342.855271 124.288505 
L 344.523955 125.730609 
L 346.192639 127.786859 
L 347.861324 129.462417 
L 349.530008 129.94663 
L 351.198692 129.00523 
L 354.536061 125.136801 
L 356.204745 124.081363 
L 357.87343 124.437994 
L 359.542114 126.034153 
L 361.210798 128.0976 
L 362.879483 129.630015 
L 364.548167 129.889999 
L 366.216851 128.751769 
L 369.55422 124.893462 
L 371.222904 124.040079 
L 372.891589 124.618739 
L 374.560273 126.349481 
L 376.228957 128.394951 
L 377.897642 129.765528 
L 379.566326 129.798111 
L 381.23501 128.476936 
L 382.903695 126.441203 
L 384.572379 124.675822 
L 386.241063 124.034905 
L 387.909748 124.828535 
L 391.247116 128.675284 
L 392.915801 129.867302 
L 394.584485 129.672087 
L 396.253169 128.184086 
L 397.921854 126.12321 
L 399.590538 124.486536 
L 401.259222 124.065904 
L 402.927907 125.064821 
L 404.596591 127 
L 404.596591 127 
" style="fill:none;stroke:#bcbd22;stroke-linecap:square;stroke-width:1.5;"/>
   </g>
   <g id="line2d_23">
    <path clip-path="url(#p13995deb40)" d="M 72.528409 127 
L 74.197093 125.31477 
L 75.865778 124.626149 
L 77.534462 125.341374 
L 80.871831 128.711415 
L 82.540515 129.373259 
L 84.209199 128.631608 
L 87.546568 125.262828 
L 89.215252 124.627924 
L 90.883937 125.395816 
L 94.221305 128.762497 
L 95.88999 129.370302 
L 97.558674 128.57636 
L 100.896043 125.212617 
L 102.564727 124.632063 
L 104.233411 125.451857 
L 107.57078 128.811823 
L 109.239464 129.364982 
L 110.908149 128.51954 
L 114.245517 125.164189 
L 115.914202 124.638563 
L 117.582886 125.509441 
L 120.920255 128.859343 
L 122.588939 129.357304 
L 124.257623 128.461206 
L 125.926308 126.700981 
L 127.594992 125.11759 
L 129.263676 124.647416 
L 130.932361 125.568511 
L 132.601045 127.336158 
L 134.269729 128.905009 
L 135.938414 129.347277 
L 137.607098 128.401415 
L 139.275782 126.626786 
L 140.944467 125.072868 
L 142.613151 124.658615 
L 144.281835 125.629008 
L 145.95052 127.410177 
L 147.619204 128.948776 
L 149.287888 129.33491 
L 150.956573 128.340227 
L 152.625257 126.552962 
L 154.293941 125.030066 
L 155.962626 124.672148 
L 157.63131 125.690872 
L 159.299994 127.483787 
L 160.968679 128.990601 
L 162.637363 129.320215 
L 164.306047 128.277703 
L 165.974732 126.479584 
L 167.643416 124.989229 
L 169.3121 124.688001 
L 170.980785 125.75404 
L 172.649469 127.556914 
L 174.318153 129.030441 
L 175.986838 129.303207 
L 177.655522 128.213906 
L 179.324206 126.406725 
L 180.992891 124.950395 
L 182.661575 124.706158 
L 184.330259 125.818451 
L 185.998944 127.629487 
L 187.667628 129.068257 
L 189.336312 129.283904 
L 191.004997 128.148898 
L 192.673681 126.334458 
L 194.342365 124.913605 
L 196.01105 124.726603 
L 197.679734 125.884039 
L 199.348418 127.701432 
L 201.017103 129.104012 
L 202.685787 129.262324 
L 204.354471 128.082745 
L 206.023156 126.262854 
L 207.69184 124.878895 
L 209.360524 124.749313 
L 211.029209 125.95074 
L 212.697893 127.772677 
L 214.366577 129.13767 
L 216.035262 129.238489 
L 217.703946 128.015513 
L 219.37263 126.191984 
L 221.041315 124.846299 
L 222.709999 124.774267 
L 224.378683 126.018487 
L 226.047368 127.843153 
L 227.716052 129.169196 
L 229.384736 129.212422 
L 231.053421 127.947269 
L 232.722105 126.12192 
L 234.390789 124.81585 
L 236.059474 124.80144 
L 237.728158 126.087212 
L 239.396842 127.912788 
L 241.065526 129.19856 
L 242.734211 129.18415 
L 244.402895 127.87808 
L 246.071579 126.052731 
L 247.740264 124.787578 
L 249.408948 124.830804 
L 251.077632 126.156847 
L 252.746317 127.981513 
L 254.415001 129.225733 
L 256.083685 129.153701 
L 257.75237 127.808016 
L 259.421054 125.984487 
L 261.089738 124.761511 
L 262.758423 124.86233 
L 264.427107 126.227323 
L 266.095791 128.04926 
L 267.764476 129.250687 
L 269.43316 129.121105 
L 271.101844 127.737146 
L 272.770529 125.917255 
L 274.439213 124.737676 
L 276.107897 124.895988 
L 277.776582 126.298568 
L 279.445266 128.115961 
L 281.11395 129.273397 
L 282.782635 129.086395 
L 284.451319 127.665542 
L 286.120003 125.851102 
L 287.788688 124.716096 
L 289.457372 124.931743 
L 291.126056 126.370513 
L 292.794741 128.181549 
L 294.463425 129.293842 
L 296.132109 129.049605 
L 297.800794 127.593275 
L 299.469478 125.786094 
L 301.138162 124.696793 
L 302.806847 124.969559 
L 304.475531 126.443086 
L 306.144215 128.24596 
L 307.8129 129.311999 
L 309.481584 129.010771 
L 311.150268 127.520416 
L 312.818953 125.722297 
L 314.487637 124.679785 
L 316.156321 125.009399 
L 317.825006 126.516213 
L 319.49369 128.309128 
L 321.162374 129.327852 
L 322.831059 128.969934 
L 324.499743 127.447038 
L 326.168427 125.659773 
L 327.837112 124.66509 
L 329.505796 125.051224 
L 331.17448 126.589823 
L 332.843165 128.370992 
L 334.511849 129.341385 
L 336.180533 128.927132 
L 337.849218 127.373214 
L 339.517902 125.598585 
L 341.186586 124.652723 
L 342.855271 125.094991 
L 344.523955 126.663842 
L 346.192639 128.431489 
L 347.861324 129.352584 
L 349.530008 128.88241 
L 351.198692 127.299019 
L 352.867377 125.538794 
L 354.536061 124.642696 
L 356.204745 125.140657 
L 357.87343 126.738195 
L 359.542114 128.490559 
L 361.210798 129.361437 
L 362.879483 128.835811 
L 366.216851 125.48046 
L 367.885536 124.635018 
L 369.55422 125.188177 
L 372.891589 128.548143 
L 374.560273 129.367937 
L 376.228957 128.787383 
L 379.566326 125.42364 
L 381.23501 124.629698 
L 382.903695 125.237503 
L 386.241063 128.604184 
L 387.909748 129.372076 
L 389.578432 128.737172 
L 392.915801 125.368392 
L 394.584485 124.626741 
L 396.253169 125.288585 
L 399.590538 128.658626 
L 401.259222 129.373851 
L 402.927907 128.68523 
L 404.596591 127 
L 404.596591 127 
" style="fill:none;stroke:#17becf;stroke-linecap:square;stroke-width:1.5;"/>
   </g>
   <g id="patch_3">
    <path d="M 55.925 243.2 
L 55.925 10.8 
" style="fill:none;stroke:#000000;stroke-linecap:square;stroke-linejoin:miter;stroke-width:0.8;"/>
   </g>
   <g id="patch_4">
    <path d="M 421.2 243.2 
L 421.2 10.8 
" style="fill:none;stroke:#000000;stroke-linecap:square;stroke-linejoin:miter;stroke-width:0.8;"/>
   </g>
   <g id="patch_5">
    <path d="M 55.925 243.2 
L 421.2 243.2 
" style="fill:none;stroke:#000000;stroke-linecap:square;stroke-linejoin:miter;stroke-width:0.8;"/>
   </g>
   <g id="patch_6">
    <path d="M 55.925 10.8 
L 421.2 10.8 
" style="fill:none;stroke:#000000;stroke-linecap:square;stroke-linejoin:miter;stroke-width:0.8;"/>
   </g>
  </g>
 </g>
 <defs>
  <clipPath id="p13995deb40">
   <rect height="232.4" width="365.275" x="55.925" y="10.8"/>
  </clipPath>
 </defs>
</svg>
