<?xml version="1.0" encoding="utf-8" standalone="no"?>
<!DOCTYPE svg PUBLIC "-//W3C//DTD SVG 1.1//EN"
  "http://www.w3.org/Graphics/SVG/1.1/DTD/svg11.dtd">
<!-- Created with matplotlib (https://matplotlib.org/) -->
<svg height="216pt" version="1.1" viewBox="0 0 504 216" width="504pt" xmlns="http://www.w3.org/2000/svg" xmlns:xlink="http://www.w3.org/1999/xlink">
 <defs>
  <style type="text/css">
*{stroke-linecap:butt;stroke-linejoin:round;}
  </style>
 </defs>
 <g id="figure_1">
  <g id="patch_1">
   <path d="M 0 216 
L 504 216 
L 504 0 
L 0 0 
z
" style="fill:none;"/>
  </g>
  <g id="axes_1">
   <g id="patch_2">
    <path d="M 32.55 188.2 
L 482.0125 188.2 
L 482.0125 14.8 
L 32.55 14.8 
z
" style="fill:none;"/>
   </g>
   <g id="matplotlib.axis_1">
    <g id="xtick_1">
     <g id="line2d_1">
      <defs>
       <path d="M 0 0 
L 0 3.5 
" id="m95eec58b47" style="stroke:#000000;stroke-width:0.8;"/>
      </defs>
      <g>
       <use style="stroke:#000000;stroke-width:0.8;" x="32.55" xlink:href="#m95eec58b47" y="188.2"/>
      </g>
     </g>
     <g id="text_1">
      <!-- 0.00 -->
      <defs>
       <path d="M 31.78125 66.40625 
Q 24.171875 66.40625 20.328125 58.90625 
Q 16.5 51.421875 16.5 36.375 
Q 16.5 21.390625 20.328125 13.890625 
Q 24.171875 6.390625 31.78125 6.390625 
Q 39.453125 6.390625 43.28125 13.890625 
Q 47.125 21.390625 47.125 36.375 
Q 47.125 51.421875 43.28125 58.90625 
Q 39.453125 66.40625 31.78125 66.40625 
z
M 31.78125 74.21875 
Q 44.046875 74.21875 50.515625 64.515625 
Q 56.984375 54.828125 56.984375 36.375 
Q 56.984375 17.96875 50.515625 8.265625 
Q 44.046875 -1.421875 31.78125 -1.421875 
Q 19.53125 -1.421875 13.0625 8.265625 
Q 6.59375 17.96875 6.59375 36.375 
Q 6.59375 54.828125 13.0625 64.515625 
Q 19.53125 74.21875 31.78125 74.21875 
z
" id="DejaVuSans-48"/>
       <path d="M 10.6875 12.40625 
L 21 12.40625 
L 21 0 
L 10.6875 0 
z
" id="DejaVuSans-46"/>
      </defs>
      <g transform="translate(21.417188 202.798438)scale(0.1 -0.1)">
       <use xlink:href="#DejaVuSans-48"/>
       <use x="63.623047" xlink:href="#DejaVuSans-46"/>
       <use x="95.410156" xlink:href="#DejaVuSans-48"/>
       <use x="159.033203" xlink:href="#DejaVuSans-48"/>
      </g>
     </g>
    </g>
    <g id="xtick_2">
     <g id="line2d_2">
      <g>
       <use style="stroke:#000000;stroke-width:0.8;" x="88.732812" xlink:href="#m95eec58b47" y="188.2"/>
      </g>
     </g>
     <g id="text_2">
      <!-- 0.25 -->
      <defs>
       <path d="M 19.1875 8.296875 
L 53.609375 8.296875 
L 53.609375 0 
L 7.328125 0 
L 7.328125 8.296875 
Q 12.9375 14.109375 22.625 23.890625 
Q 32.328125 33.6875 34.8125 36.53125 
Q 39.546875 41.84375 41.421875 45.53125 
Q 43.3125 49.21875 43.3125 52.78125 
Q 43.3125 58.59375 39.234375 62.25 
Q 35.15625 65.921875 28.609375 65.921875 
Q 23.96875 65.921875 18.8125 64.3125 
Q 13.671875 62.703125 7.8125 59.421875 
L 7.8125 69.390625 
Q 13.765625 71.78125 18.9375 73 
Q 24.125 74.21875 28.421875 74.21875 
Q 39.75 74.21875 46.484375 68.546875 
Q 53.21875 62.890625 53.21875 53.421875 
Q 53.21875 48.921875 51.53125 44.890625 
Q 49.859375 40.875 45.40625 35.40625 
Q 44.1875 33.984375 37.640625 27.21875 
Q 31.109375 20.453125 19.1875 8.296875 
z
" id="DejaVuSans-50"/>
       <path d="M 10.796875 72.90625 
L 49.515625 72.90625 
L 49.515625 64.59375 
L 19.828125 64.59375 
L 19.828125 46.734375 
Q 21.96875 47.46875 24.109375 47.828125 
Q 26.265625 48.1875 28.421875 48.1875 
Q 40.625 48.1875 47.75 41.5 
Q 54.890625 34.8125 54.890625 23.390625 
Q 54.890625 11.625 47.5625 5.09375 
Q 40.234375 -1.421875 26.90625 -1.421875 
Q 22.3125 -1.421875 17.546875 -0.640625 
Q 12.796875 0.140625 7.71875 1.703125 
L 7.71875 11.625 
Q 12.109375 9.234375 16.796875 8.0625 
Q 21.484375 6.890625 26.703125 6.890625 
Q 35.15625 6.890625 40.078125 11.328125 
Q 45.015625 15.765625 45.015625 23.390625 
Q 45.015625 31 40.078125 35.4375 
Q 35.15625 39.890625 26.703125 39.890625 
Q 22.75 39.890625 18.8125 39.015625 
Q 14.890625 38.140625 10.796875 36.28125 
z
" id="DejaVuSans-53"/>
      </defs>
      <g transform="translate(77.6 202.798438)scale(0.1 -0.1)">
       <use xlink:href="#DejaVuSans-48"/>
       <use x="63.623047" xlink:href="#DejaVuSans-46"/>
       <use x="95.410156" xlink:href="#DejaVuSans-50"/>
       <use x="159.033203" xlink:href="#DejaVuSans-53"/>
      </g>
     </g>
    </g>
    <g id="xtick_3">
     <g id="line2d_3">
      <g>
       <use style="stroke:#000000;stroke-width:0.8;" x="144.915625" xlink:href="#m95eec58b47" y="188.2"/>
      </g>
     </g>
     <g id="text_3">
      <!-- 0.50 -->
      <g transform="translate(133.782813 202.798438)scale(0.1 -0.1)">
       <use xlink:href="#DejaVuSans-48"/>
       <use x="63.623047" xlink:href="#DejaVuSans-46"/>
       <use x="95.410156" xlink:href="#DejaVuSans-53"/>
       <use x="159.033203" xlink:href="#DejaVuSans-48"/>
      </g>
     </g>
    </g>
    <g id="xtick_4">
     <g id="line2d_4">
      <g>
       <use style="stroke:#000000;stroke-width:0.8;" x="201.098437" xlink:href="#m95eec58b47" y="188.2"/>
      </g>
     </g>
     <g id="text_4">
      <!-- 0.75 -->
      <defs>
       <path d="M 8.203125 72.90625 
L 55.078125 72.90625 
L 55.078125 68.703125 
L 28.609375 0 
L 18.3125 0 
L 43.21875 64.59375 
L 8.203125 64.59375 
z
" id="DejaVuSans-55"/>
      </defs>
      <g transform="translate(189.965625 202.798438)scale(0.1 -0.1)">
       <use xlink:href="#DejaVuSans-48"/>
       <use x="63.623047" xlink:href="#DejaVuSans-46"/>
       <use x="95.410156" xlink:href="#DejaVuSans-55"/>
       <use x="159.033203" xlink:href="#DejaVuSans-53"/>
      </g>
     </g>
    </g>
    <g id="xtick_5">
     <g id="line2d_5">
      <g>
       <use style="stroke:#000000;stroke-width:0.8;" x="257.28125" xlink:href="#m95eec58b47" y="188.2"/>
      </g>
     </g>
     <g id="text_5">
      <!-- 1.00 -->
      <defs>
       <path d="M 12.40625 8.296875 
L 28.515625 8.296875 
L 28.515625 63.921875 
L 10.984375 60.40625 
L 10.984375 69.390625 
L 28.421875 72.90625 
L 38.28125 72.90625 
L 38.28125 8.296875 
L 54.390625 8.296875 
L 54.390625 0 
L 12.40625 0 
z
" id="DejaVuSans-49"/>
      </defs>
      <g transform="translate(246.148438 202.798438)scale(0.1 -0.1)">
       <use xlink:href="#DejaVuSans-49"/>
       <use x="63.623047" xlink:href="#DejaVuSans-46"/>
       <use x="95.410156" xlink:href="#DejaVuSans-48"/>
       <use x="159.033203" xlink:href="#DejaVuSans-48"/>
      </g>
     </g>
    </g>
    <g id="xtick_6">
     <g id="line2d_6">
      <g>
       <use style="stroke:#000000;stroke-width:0.8;" x="313.464063" xlink:href="#m95eec58b47" y="188.2"/>
      </g>
     </g>
     <g id="text_6">
      <!-- 1.25 -->
      <g transform="translate(302.33125 202.798438)scale(0.1 -0.1)">
       <use xlink:href="#DejaVuSans-49"/>
       <use x="63.623047" xlink:href="#DejaVuSans-46"/>
       <use x="95.410156" xlink:href="#DejaVuSans-50"/>
       <use x="159.033203" xlink:href="#DejaVuSans-53"/>
      </g>
     </g>
    </g>
    <g id="xtick_7">
     <g id="line2d_7">
      <g>
       <use style="stroke:#000000;stroke-width:0.8;" x="369.646875" xlink:href="#m95eec58b47" y="188.2"/>
      </g>
     </g>
     <g id="text_7">
      <!-- 1.50 -->
      <g transform="translate(358.514062 202.798438)scale(0.1 -0.1)">
       <use xlink:href="#DejaVuSans-49"/>
       <use x="63.623047" xlink:href="#DejaVuSans-46"/>
       <use x="95.410156" xlink:href="#DejaVuSans-53"/>
       <use x="159.033203" xlink:href="#DejaVuSans-48"/>
      </g>
     </g>
    </g>
    <g id="xtick_8">
     <g id="line2d_8">
      <g>
       <use style="stroke:#000000;stroke-width:0.8;" x="425.829687" xlink:href="#m95eec58b47" y="188.2"/>
      </g>
     </g>
     <g id="text_8">
      <!-- 1.75 -->
      <g transform="translate(414.696875 202.798438)scale(0.1 -0.1)">
       <use xlink:href="#DejaVuSans-49"/>
       <use x="63.623047" xlink:href="#DejaVuSans-46"/>
       <use x="95.410156" xlink:href="#DejaVuSans-55"/>
       <use x="159.033203" xlink:href="#DejaVuSans-53"/>
      </g>
     </g>
    </g>
    <g id="xtick_9">
     <g id="line2d_9">
      <g>
       <use style="stroke:#000000;stroke-width:0.8;" x="482.0125" xlink:href="#m95eec58b47" y="188.2"/>
      </g>
     </g>
     <g id="text_9">
      <!-- 2.00 -->
      <g transform="translate(470.879687 202.798438)scale(0.1 -0.1)">
       <use xlink:href="#DejaVuSans-50"/>
       <use x="63.623047" xlink:href="#DejaVuSans-46"/>
       <use x="95.410156" xlink:href="#DejaVuSans-48"/>
       <use x="159.033203" xlink:href="#DejaVuSans-48"/>
      </g>
     </g>
    </g>
   </g>
   <g id="matplotlib.axis_2">
    <g id="ytick_1">
     <g id="line2d_10">
      <defs>
       <path d="M 0 0 
L -3.5 0 
" id="m1fd961dc6f" style="stroke:#000000;stroke-width:0.8;"/>
      </defs>
      <g>
       <use style="stroke:#000000;stroke-width:0.8;" x="32.55" xlink:href="#m1fd961dc6f" y="188.2"/>
      </g>
     </g>
     <g id="text_10">
      <!-- −4 -->
      <defs>
       <path d="M 10.59375 35.5 
L 73.1875 35.5 
L 73.1875 27.203125 
L 10.59375 27.203125 
z
" id="DejaVuSans-8722"/>
       <path d="M 37.796875 64.3125 
L 12.890625 25.390625 
L 37.796875 25.390625 
z
M 35.203125 72.90625 
L 47.609375 72.90625 
L 47.609375 25.390625 
L 58.015625 25.390625 
L 58.015625 17.1875 
L 47.609375 17.1875 
L 47.609375 0 
L 37.796875 0 
L 37.796875 17.1875 
L 4.890625 17.1875 
L 4.890625 26.703125 
z
" id="DejaVuSans-52"/>
      </defs>
      <g transform="translate(10.807813 191.999219)scale(0.1 -0.1)">
       <use xlink:href="#DejaVuSans-8722"/>
       <use x="83.789062" xlink:href="#DejaVuSans-52"/>
      </g>
     </g>
    </g>
    <g id="ytick_2">
     <g id="line2d_11">
      <g>
       <use style="stroke:#000000;stroke-width:0.8;" x="32.55" xlink:href="#m1fd961dc6f" y="166.525"/>
      </g>
     </g>
     <g id="text_11">
      <!-- −3 -->
      <defs>
       <path d="M 40.578125 39.3125 
Q 47.65625 37.796875 51.625 33 
Q 55.609375 28.21875 55.609375 21.1875 
Q 55.609375 10.40625 48.1875 4.484375 
Q 40.765625 -1.421875 27.09375 -1.421875 
Q 22.515625 -1.421875 17.65625 -0.515625 
Q 12.796875 0.390625 7.625 2.203125 
L 7.625 11.71875 
Q 11.71875 9.328125 16.59375 8.109375 
Q 21.484375 6.890625 26.8125 6.890625 
Q 36.078125 6.890625 40.9375 10.546875 
Q 45.796875 14.203125 45.796875 21.1875 
Q 45.796875 27.640625 41.28125 31.265625 
Q 36.765625 34.90625 28.71875 34.90625 
L 20.21875 34.90625 
L 20.21875 43.015625 
L 29.109375 43.015625 
Q 36.375 43.015625 40.234375 45.921875 
Q 44.09375 48.828125 44.09375 54.296875 
Q 44.09375 59.90625 40.109375 62.90625 
Q 36.140625 65.921875 28.71875 65.921875 
Q 24.65625 65.921875 20.015625 65.03125 
Q 15.375 64.15625 9.8125 62.3125 
L 9.8125 71.09375 
Q 15.4375 72.65625 20.34375 73.4375 
Q 25.25 74.21875 29.59375 74.21875 
Q 40.828125 74.21875 47.359375 69.109375 
Q 53.90625 64.015625 53.90625 55.328125 
Q 53.90625 49.265625 50.4375 45.09375 
Q 46.96875 40.921875 40.578125 39.3125 
z
" id="DejaVuSans-51"/>
      </defs>
      <g transform="translate(10.807813 170.324219)scale(0.1 -0.1)">
       <use xlink:href="#DejaVuSans-8722"/>
       <use x="83.789062" xlink:href="#DejaVuSans-51"/>
      </g>
     </g>
    </g>
    <g id="ytick_3">
     <g id="line2d_12">
      <g>
       <use style="stroke:#000000;stroke-width:0.8;" x="32.55" xlink:href="#m1fd961dc6f" y="144.85"/>
      </g>
     </g>
     <g id="text_12">
      <!-- −2 -->
      <g transform="translate(10.807813 148.649219)scale(0.1 -0.1)">
       <use xlink:href="#DejaVuSans-8722"/>
       <use x="83.789062" xlink:href="#DejaVuSans-50"/>
      </g>
     </g>
    </g>
    <g id="ytick_4">
     <g id="line2d_13">
      <g>
       <use style="stroke:#000000;stroke-width:0.8;" x="32.55" xlink:href="#m1fd961dc6f" y="123.175"/>
      </g>
     </g>
     <g id="text_13">
      <!-- −1 -->
      <g transform="translate(10.807813 126.974219)scale(0.1 -0.1)">
       <use xlink:href="#DejaVuSans-8722"/>
       <use x="83.789062" xlink:href="#DejaVuSans-49"/>
      </g>
     </g>
    </g>
    <g id="ytick_5">
     <g id="line2d_14">
      <g>
       <use style="stroke:#000000;stroke-width:0.8;" x="32.55" xlink:href="#m1fd961dc6f" y="101.5"/>
      </g>
     </g>
     <g id="text_14">
      <!-- 0 -->
      <g transform="translate(19.1875 105.299219)scale(0.1 -0.1)">
       <use xlink:href="#DejaVuSans-48"/>
      </g>
     </g>
    </g>
    <g id="ytick_6">
     <g id="line2d_15">
      <g>
       <use style="stroke:#000000;stroke-width:0.8;" x="32.55" xlink:href="#m1fd961dc6f" y="79.825"/>
      </g>
     </g>
     <g id="text_15">
      <!-- 1 -->
      <g transform="translate(19.1875 83.624219)scale(0.1 -0.1)">
       <use xlink:href="#DejaVuSans-49"/>
      </g>
     </g>
    </g>
    <g id="ytick_7">
     <g id="line2d_16">
      <g>
       <use style="stroke:#000000;stroke-width:0.8;" x="32.55" xlink:href="#m1fd961dc6f" y="58.15"/>
      </g>
     </g>
     <g id="text_16">
      <!-- 2 -->
      <g transform="translate(19.1875 61.949219)scale(0.1 -0.1)">
       <use xlink:href="#DejaVuSans-50"/>
      </g>
     </g>
    </g>
    <g id="ytick_8">
     <g id="line2d_17">
      <g>
       <use style="stroke:#000000;stroke-width:0.8;" x="32.55" xlink:href="#m1fd961dc6f" y="36.475"/>
      </g>
     </g>
     <g id="text_17">
      <!-- 3 -->
      <g transform="translate(19.1875 40.274219)scale(0.1 -0.1)">
       <use xlink:href="#DejaVuSans-51"/>
      </g>
     </g>
    </g>
    <g id="ytick_9">
     <g id="line2d_18">
      <g>
       <use style="stroke:#000000;stroke-width:0.8;" x="32.55" xlink:href="#m1fd961dc6f" y="14.8"/>
      </g>
     </g>
     <g id="text_18">
      <!-- 4 -->
      <g transform="translate(19.1875 18.599219)scale(0.1 -0.1)">
       <use xlink:href="#DejaVuSans-52"/>
      </g>
     </g>
    </g>
   </g>
   <g id="line2d_19">
    <path clip-path="url(#p3f6b14d36c)" d="M 32.55 101.5 
L 37.090025 91.489098 
L 41.630051 81.639275 
L 46.170076 72.109018 
L 50.710101 63.051673 
L 55.250126 54.612976 
L 59.790152 46.928709 
L 64.330177 40.122515 
L 68.870202 34.303907 
L 73.410227 29.56651 
L 77.950253 25.986549 
L 82.490278 23.621628 
L 87.030303 22.509799 
L 91.570328 22.668952 
L 96.110354 24.096526 
L 100.650379 26.769551 
L 105.190404 30.645017 
L 109.730429 35.660566 
L 114.270455 41.735496 
L 118.81048 48.77206 
L 123.350505 56.657036 
L 127.89053 65.263551 
L 132.430556 74.453125 
L 136.970581 84.077893 
L 141.510606 93.98299 
L 146.050631 104.009038 
L 150.590657 113.994714 
L 155.130682 123.779346 
L 159.670707 133.205495 
L 164.210732 142.121491 
L 168.750758 150.383871 
L 173.290783 157.859692 
L 177.830808 164.428665 
L 182.370833 169.985091 
L 186.910859 174.439567 
L 191.450884 177.720418 
L 195.990909 179.774853 
L 200.530934 180.569818 
L 205.07096 180.092519 
L 209.610985 178.350637 
L 214.15101 175.372199 
L 218.691035 171.205131 
L 223.231061 165.91648 
L 227.771086 159.591344 
L 232.311111 152.331497 
L 236.851136 144.253752 
L 241.391162 135.488083 
L 245.931187 126.175534 
L 250.471212 116.465945 
L 255.011237 106.515549 
L 259.551263 96.484451 
L 264.091288 86.534055 
L 268.631313 76.824466 
L 273.171338 67.511917 
L 277.711364 58.746248 
L 282.251389 50.668503 
L 286.791414 43.408656 
L 291.331439 37.08352 
L 295.871465 31.794869 
L 300.41149 27.627801 
L 304.951515 24.649363 
L 309.49154 22.907481 
L 314.031566 22.430182 
L 318.571591 23.225147 
L 323.111616 25.279582 
L 327.651641 28.560433 
L 332.191667 33.014909 
L 336.731692 38.571335 
L 341.271717 45.140308 
L 345.811742 52.616129 
L 350.351768 60.878509 
L 354.891793 69.794505 
L 359.431818 79.220654 
L 363.971843 89.005286 
L 368.511869 98.990962 
L 373.051894 109.01701 
L 377.591919 118.922107 
L 382.131944 128.546875 
L 386.67197 137.736449 
L 391.211995 146.342964 
L 395.75202 154.22794 
L 400.292045 161.264504 
L 404.832071 167.339434 
L 409.372096 172.354983 
L 413.912121 176.230449 
L 418.452146 178.903474 
L 422.992172 180.331048 
L 427.532197 180.490201 
L 432.072222 179.378372 
L 436.612247 177.013451 
L 441.152273 173.43349 
L 445.692298 168.696093 
L 450.232323 162.877485 
L 454.772348 156.071291 
L 459.312374 148.387024 
L 463.852399 139.948327 
L 468.392424 130.890982 
L 472.932449 121.360725 
L 477.472475 111.510902 
L 482.0125 101.5 
" style="fill:none;stroke:#0000ff;stroke-linecap:square;stroke-width:2;"/>
   </g>
   <g id="line2d_20">
    <path clip-path="url(#p3f6b14d36c)" d="M 32.55 101.5 
L 37.090025 96.096073 
L 41.630051 90.779098 
L 46.170076 85.634626 
L 50.710101 80.745434 
L 55.250126 76.19019 
L 59.790152 72.042191 
L 64.330177 68.368179 
L 68.870202 65.22727 
L 73.410227 62.670003 
L 77.950253 60.737526 
L 82.490278 59.460932 
L 87.030303 58.860762 
L 91.570328 58.946673 
L 96.110354 59.717284 
L 100.650379 61.160194 
L 105.190404 63.252186 
L 109.730429 65.9596 
L 114.270455 69.238873 
L 118.81048 73.037239 
L 123.350505 77.293582 
L 127.89053 81.939415 
L 132.430556 86.899985 
L 136.970581 92.095475 
L 141.510606 97.442287 
L 146.050631 102.854389 
L 150.590657 108.244699 
L 155.130682 113.526484 
L 159.670707 118.614758 
L 164.210732 123.427649 
L 168.750758 127.887717 
L 173.290783 131.923196 
L 177.830808 135.469154 
L 182.370833 138.468536 
L 186.910859 140.873081 
L 191.450884 142.644098 
L 195.990909 143.753091 
L 200.530934 144.182216 
L 205.07096 143.924568 
L 209.610985 142.984293 
L 214.15101 141.37652 
L 218.691035 139.127119 
L 223.231061 136.272283 
L 227.771086 132.857949 
L 232.311111 128.939053 
L 236.851136 124.578653 
L 241.391162 119.846908 
L 245.931187 114.819955 
L 250.471212 109.578679 
L 255.011237 104.207414 
L 259.551263 98.792586 
L 264.091288 93.421321 
L 268.631313 88.180045 
L 273.171338 83.153092 
L 277.711364 78.421347 
L 282.251389 74.060947 
L 286.791414 70.142051 
L 291.331439 66.727717 
L 295.871465 63.872881 
L 300.41149 61.62348 
L 304.951515 60.015707 
L 309.49154 59.075432 
L 314.031566 58.817784 
L 318.571591 59.246909 
L 323.111616 60.355902 
L 327.651641 62.126919 
L 332.191667 64.531464 
L 336.731692 67.530846 
L 341.271717 71.076804 
L 345.811742 75.112283 
L 350.351768 79.572351 
L 354.891793 84.385242 
L 359.431818 89.473516 
L 363.971843 94.755301 
L 368.511869 100.145611 
L 373.051894 105.557713 
L 377.591919 110.904525 
L 382.131944 116.100015 
L 386.67197 121.060585 
L 391.211995 125.706418 
L 395.75202 129.962761 
L 400.292045 133.761127 
L 404.832071 137.0404 
L 409.372096 139.747814 
L 413.912121 141.839806 
L 418.452146 143.282716 
L 422.992172 144.053327 
L 427.532197 144.139238 
L 432.072222 143.539068 
L 436.612247 142.262474 
L 441.152273 140.329997 
L 445.692298 137.77273 
L 450.232323 134.631821 
L 454.772348 130.957809 
L 459.312374 126.80981 
L 463.852399 122.254566 
L 468.392424 117.365374 
L 472.932449 112.220902 
L 477.472475 106.903927 
L 482.0125 101.5 
" style="fill:none;stroke:#0000ff;stroke-linecap:square;stroke-opacity:0.6;stroke-width:2;"/>
   </g>
   <g id="line2d_21">
    <path clip-path="url(#p3f6b14d36c)" d="M 32.55 101.5 
L 37.090025 102.800829 
L 41.630051 104.080728 
L 46.170076 105.319101 
L 50.710101 106.496024 
L 55.250126 107.592559 
L 59.790152 108.591062 
L 64.330177 109.475468 
L 68.870202 110.231545 
L 73.410227 110.847128 
L 77.950253 111.312313 
L 82.490278 111.619614 
L 87.030303 111.764086 
L 91.570328 111.743406 
L 96.110354 111.557905 
L 100.650379 111.210569 
L 105.190404 110.706986 
L 109.730429 110.055259 
L 114.270455 109.265875 
L 118.81048 108.351535 
L 123.350505 107.326951 
L 127.89053 106.20861 
L 132.430556 105.014505 
L 136.970581 103.76385 
L 141.510606 102.47677 
L 146.050631 101.173972 
L 150.590657 99.876421 
L 155.130682 98.604994 
L 159.670707 97.380148 
L 164.210732 96.221592 
L 168.750758 95.147968 
L 173.290783 94.176551 
L 177.830808 93.32297 
L 182.370833 92.600961 
L 186.910859 92.022141 
L 191.450884 91.595823 
L 195.990909 91.328867 
L 200.530934 91.225568 
L 205.07096 91.287589 
L 209.610985 91.513931 
L 214.15101 91.900953 
L 218.691035 92.442427 
L 223.231061 93.129641 
L 227.771086 93.951537 
L 232.311111 94.894891 
L 236.851136 95.944524 
L 241.391162 97.083546 
L 245.931187 98.29363 
L 250.471212 99.555306 
L 255.011237 100.848273 
L 259.551263 102.151727 
L 264.091288 103.444694 
L 268.631313 104.70637 
L 273.171338 105.916454 
L 277.711364 107.055476 
L 282.251389 108.105109 
L 286.791414 109.048463 
L 291.331439 109.870359 
L 295.871465 110.557573 
L 300.41149 111.099047 
L 304.951515 111.486069 
L 309.49154 111.712411 
L 314.031566 111.774432 
L 318.571591 111.671133 
L 323.111616 111.404177 
L 327.651641 110.977859 
L 332.191667 110.399039 
L 336.731692 109.67703 
L 341.271717 108.823449 
L 345.811742 107.852032 
L 350.351768 106.778408 
L 354.891793 105.619852 
L 359.431818 104.395006 
L 363.971843 103.123579 
L 368.511869 101.826028 
L 373.051894 100.52323 
L 377.591919 99.23615 
L 382.131944 97.985495 
L 386.67197 96.79139 
L 391.211995 95.673049 
L 395.75202 94.648465 
L 400.292045 93.734125 
L 404.832071 92.944741 
L 409.372096 92.293014 
L 413.912121 91.789431 
L 418.452146 91.442095 
L 422.992172 91.256594 
L 427.532197 91.235914 
L 432.072222 91.380386 
L 436.612247 91.687687 
L 441.152273 92.152872 
L 445.692298 92.768455 
L 450.232323 93.524532 
L 454.772348 94.408938 
L 459.312374 95.407441 
L 463.852399 96.503976 
L 468.392424 97.680899 
L 472.932449 98.919272 
L 477.472475 100.199171 
L 482.0125 101.5 
" style="fill:none;stroke:#0000ff;stroke-linecap:square;stroke-opacity:0.4;stroke-width:2;"/>
   </g>
   <g id="line2d_22">
    <path clip-path="url(#p3f6b14d36c)" d="M 32.55 101.5 
L 37.090025 109.000609 
L 41.630051 116.38053 
L 46.170076 123.521019 
L 50.710101 130.30718 
L 55.250126 136.629824 
L 59.790152 142.387215 
L 64.330177 147.486716 
L 68.870202 151.846273 
L 73.410227 155.39574 
L 77.950253 158.078004 
L 82.490278 159.849907 
L 87.030303 160.682938 
L 91.570328 160.563694 
L 96.110354 159.494093 
L 100.650379 157.491344 
L 105.190404 154.587675 
L 109.730429 150.829804 
L 114.270455 146.278199 
L 118.81048 141.006096 
L 123.350505 135.098324 
L 127.89053 128.649944 
L 132.430556 121.76471 
L 136.970581 114.55341 
L 141.510606 107.132075 
L 146.050631 99.620118 
L 150.590657 92.13841 
L 155.130682 84.807332 
L 159.670707 77.744846 
L 164.210732 71.06459 
L 168.750758 64.87405 
L 173.290783 59.272836 
L 177.830808 54.351072 
L 182.370833 50.187953 
L 186.910859 46.850463 
L 191.450884 44.392305 
L 195.990909 42.853031 
L 200.530934 42.257409 
L 205.07096 42.615023 
L 209.610985 43.920117 
L 214.15101 46.151694 
L 218.691035 49.273845 
L 223.231061 53.236335 
L 227.771086 57.975406 
L 232.311111 63.414803 
L 236.851136 69.467005 
L 241.391162 76.034631 
L 245.931187 83.012003 
L 250.471212 90.286855 
L 255.011237 97.74213 
L 259.551263 105.25787 
L 264.091288 112.713145 
L 268.631313 119.987997 
L 273.171338 126.965369 
L 277.711364 133.532995 
L 282.251389 139.585197 
L 286.791414 145.024594 
L 291.331439 149.763665 
L 295.871465 153.726155 
L 300.41149 156.848306 
L 304.951515 159.079883 
L 309.49154 160.384977 
L 314.031566 160.742591 
L 318.571591 160.146969 
L 323.111616 158.607695 
L 327.651641 156.149537 
L 332.191667 152.812047 
L 336.731692 148.648928 
L 341.271717 143.727164 
L 345.811742 138.12595 
L 350.351768 131.93541 
L 354.891793 125.255154 
L 359.431818 118.192668 
L 363.971843 110.86159 
L 368.511869 103.379882 
L 373.051894 95.867925 
L 377.591919 88.44659 
L 382.131944 81.23529 
L 386.67197 74.350056 
L 391.211995 67.901676 
L 395.75202 61.993904 
L 400.292045 56.721801 
L 404.832071 52.170196 
L 409.372096 48.412325 
L 413.912121 45.508656 
L 418.452146 43.505907 
L 422.992172 42.436306 
L 427.532197 42.317062 
L 432.072222 43.150093 
L 436.612247 44.921996 
L 441.152273 47.60426 
L 445.692298 51.153727 
L 450.232323 55.513284 
L 454.772348 60.612785 
L 459.312374 66.370176 
L 463.852399 72.69282 
L 468.392424 79.478981 
L 472.932449 86.61947 
L 477.472475 93.999391 
L 482.0125 101.5 
" style="fill:none;stroke:#0000ff;stroke-linecap:square;stroke-opacity:0.2;stroke-width:2;"/>
   </g>
   <g id="line2d_23">
    <path clip-path="url(#p3f6b14d36c)" d="M 32.55 101.5 
L 37.090025 112.288686 
L 41.630051 122.903778 
L 46.170076 133.174475 
L 50.710101 142.935518 
L 55.250126 152.029848 
L 59.790152 160.311133 
L 64.330177 167.646126 
L 68.870202 173.916803 
L 73.410227 179.022266 
L 77.950253 182.880367 
L 82.490278 185.429027 
L 87.030303 186.627238 
L 91.570328 186.45572 
L 96.110354 184.917232 
L 100.650379 182.03653 
L 105.190404 177.859965 
L 109.730429 172.45474 
L 114.270455 165.907826 
L 118.81048 158.324566 
L 123.350505 149.826978 
L 127.89053 140.551791 
L 132.430556 130.648245 
L 136.970581 120.275694 
L 141.510606 109.601034 
L 146.050631 98.796026 
L 150.590657 88.034526 
L 155.130682 77.48969 
L 159.670707 67.331189 
L 164.210732 57.722477 
L 168.750758 48.818162 
L 173.290783 40.761517 
L 177.830808 33.682178 
L 182.370833 27.694052 
L 186.910859 22.893492 
L 191.450884 19.35774 
L 195.990909 17.143687 
L 200.530934 16.28696 
L 205.07096 16.801342 
L 209.610985 18.678557 
L 214.15101 21.8884 
L 218.691035 26.379223 
L 223.231061 32.078768 
L 227.771086 38.895327 
L 232.311111 46.719218 
L 236.851136 55.424553 
L 241.391162 64.871258 
L 245.931187 74.907334 
L 250.471212 85.371296 
L 255.011237 96.094775 
L 259.551263 106.905225 
L 264.091288 117.628704 
L 268.631313 128.092666 
L 273.171338 138.128742 
L 277.711364 147.575447 
L 282.251389 156.280782 
L 286.791414 164.104673 
L 291.331439 170.921232 
L 295.871465 176.620777 
L 300.41149 181.1116 
L 304.951515 184.321443 
L 309.49154 186.198658 
L 314.031566 186.71304 
L 318.571591 185.856313 
L 323.111616 183.64226 
L 327.651641 180.106508 
L 332.191667 175.305948 
L 336.731692 169.317822 
L 341.271717 162.238483 
L 345.811742 154.181838 
L 350.351768 145.277523 
L 354.891793 135.668811 
L 359.431818 125.51031 
L 363.971843 114.965474 
L 368.511869 104.203974 
L 373.051894 93.398966 
L 377.591919 82.724306 
L 382.131944 72.351755 
L 386.67197 62.448209 
L 391.211995 53.173022 
L 395.75202 44.675434 
L 400.292045 37.092174 
L 404.832071 30.54526 
L 409.372096 25.140035 
L 413.912121 20.96347 
L 418.452146 18.082768 
L 422.992172 16.54428 
L 427.532197 16.372762 
L 432.072222 17.570973 
L 436.612247 20.119633 
L 441.152273 23.977734 
L 445.692298 29.083197 
L 450.232323 35.353874 
L 454.772348 42.688867 
L 459.312374 50.970152 
L 463.852399 60.064482 
L 468.392424 69.825525 
L 472.932449 80.096222 
L 477.472475 90.711314 
L 482.0125 101.5 
" style="fill:none;stroke:#0000ff;stroke-linecap:square;stroke-opacity:0.1;stroke-width:2;"/>
   </g>
   <g id="line2d_24">
    <path clip-path="url(#p3f6b14d36c)" d="M 144.915625 188.2 
L 144.915625 14.8 
" style="fill:none;stroke:#ff0000;stroke-dasharray:1.85,0.8;stroke-dashoffset:0;stroke-width:0.5;"/>
   </g>
   <g id="line2d_25">
    <path clip-path="url(#p3f6b14d36c)" d="M 257.28125 188.2 
L 257.28125 14.8 
" style="fill:none;stroke:#ff0000;stroke-dasharray:1.85,0.8;stroke-dashoffset:0;stroke-width:0.5;"/>
   </g>
   <g id="line2d_26">
    <path clip-path="url(#p3f6b14d36c)" d="M 369.646875 188.2 
L 369.646875 14.8 
" style="fill:none;stroke:#ff0000;stroke-dasharray:1.85,0.8;stroke-dashoffset:0;stroke-width:0.5;"/>
   </g>
   <g id="line2d_27">
    <path clip-path="url(#p3f6b14d36c)" d="M 88.732812 188.2 
L 88.732812 14.8 
" style="fill:none;stroke:#0000ff;stroke-dasharray:1.85,0.8;stroke-dashoffset:0;stroke-width:0.5;"/>
   </g>
   <g id="line2d_28">
    <path clip-path="url(#p3f6b14d36c)" d="M 201.098437 188.2 
L 201.098437 14.8 
" style="fill:none;stroke:#0000ff;stroke-dasharray:1.85,0.8;stroke-dashoffset:0;stroke-width:0.5;"/>
   </g>
   <g id="line2d_29">
    <path clip-path="url(#p3f6b14d36c)" d="M 313.464063 188.2 
L 313.464063 14.8 
" style="fill:none;stroke:#0000ff;stroke-dasharray:1.85,0.8;stroke-dashoffset:0;stroke-width:0.5;"/>
   </g>
   <g id="line2d_30">
    <path clip-path="url(#p3f6b14d36c)" d="M 425.829687 188.2 
L 425.829687 14.8 
" style="fill:none;stroke:#0000ff;stroke-dasharray:1.85,0.8;stroke-dashoffset:0;stroke-width:0.5;"/>
   </g>
   <g id="patch_3">
    <path d="M 32.55 188.2 
L 32.55 14.8 
" style="fill:none;stroke:#000000;stroke-linecap:square;stroke-linejoin:miter;stroke-width:0.8;"/>
   </g>
   <g id="patch_4">
    <path d="M 482.0125 188.2 
L 482.0125 14.8 
" style="fill:none;stroke:#000000;stroke-linecap:square;stroke-linejoin:miter;stroke-width:0.8;"/>
   </g>
   <g id="patch_5">
    <path d="M 32.55 188.2 
L 482.0125 188.2 
" style="fill:none;stroke:#000000;stroke-linecap:square;stroke-linejoin:miter;stroke-width:0.8;"/>
   </g>
   <g id="patch_6">
    <path d="M 32.55 14.8 
L 482.0125 14.8 
" style="fill:none;stroke:#000000;stroke-linecap:square;stroke-linejoin:miter;stroke-width:0.8;"/>
   </g>
   <g id="text_19">
    <g id="patch_7">
     <path d="M 139.304688 178.283594 
L 150.526563 178.283594 
Q 155.026563 178.283594 155.026563 173.783594 
L 155.026563 159.266406 
Q 155.026563 154.766406 150.526563 154.766406 
L 139.304688 154.766406 
Q 134.804688 154.766406 134.804688 159.266406 
L 134.804688 173.783594 
Q 134.804688 178.283594 139.304688 178.283594 
z
" style="fill:#ffffff;stroke:#ffffff;stroke-linejoin:miter;stroke-width:2;"/>
    </g>
    <!-- N -->
    <defs>
     <path d="M 9.8125 72.90625 
L 23.09375 72.90625 
L 55.421875 11.921875 
L 55.421875 72.90625 
L 64.984375 72.90625 
L 64.984375 0 
L 51.703125 0 
L 19.390625 60.984375 
L 19.390625 0 
L 9.8125 0 
z
" id="DejaVuSans-78"/>
    </defs>
    <g transform="translate(139.304688 170.664062)scale(0.15 -0.15)">
     <use xlink:href="#DejaVuSans-78"/>
    </g>
   </g>
   <g id="text_20">
    <g id="patch_8">
     <path d="M 251.670312 178.283594 
L 262.892187 178.283594 
Q 267.392187 178.283594 267.392187 173.783594 
L 267.392187 159.266406 
Q 267.392187 154.766406 262.892187 154.766406 
L 251.670312 154.766406 
Q 247.170312 154.766406 247.170312 159.266406 
L 247.170312 173.783594 
Q 247.170312 178.283594 251.670312 178.283594 
z
" style="fill:#ffffff;stroke:#ffffff;stroke-linejoin:miter;stroke-width:2;"/>
    </g>
    <!-- N -->
    <g transform="translate(251.670312 170.664062)scale(0.15 -0.15)">
     <use xlink:href="#DejaVuSans-78"/>
    </g>
   </g>
   <g id="text_21">
    <g id="patch_9">
     <path d="M 364.035937 178.283594 
L 375.257812 178.283594 
Q 379.757812 178.283594 379.757812 173.783594 
L 379.757812 159.266406 
Q 379.757812 154.766406 375.257812 154.766406 
L 364.035937 154.766406 
Q 359.535937 154.766406 359.535937 159.266406 
L 359.535937 173.783594 
Q 359.535937 178.283594 364.035937 178.283594 
z
" style="fill:#ffffff;stroke:#ffffff;stroke-linejoin:miter;stroke-width:2;"/>
    </g>
    <!-- N -->
    <g transform="translate(364.035937 170.664062)scale(0.15 -0.15)">
     <use xlink:href="#DejaVuSans-78"/>
    </g>
   </g>
   <g id="text_22">
    <g id="patch_10">
     <path d="M 83.602344 178.283594 
L 93.863281 178.283594 
Q 98.363281 178.283594 98.363281 173.783594 
L 98.363281 159.266406 
Q 98.363281 154.766406 93.863281 154.766406 
L 83.602344 154.766406 
Q 79.102344 154.766406 79.102344 159.266406 
L 79.102344 173.783594 
Q 79.102344 178.283594 83.602344 178.283594 
z
" style="fill:#ffffff;stroke:#ffffff;stroke-linejoin:miter;stroke-width:2;"/>
    </g>
    <!-- A -->
    <defs>
     <path d="M 34.1875 63.1875 
L 20.796875 26.90625 
L 47.609375 26.90625 
z
M 28.609375 72.90625 
L 39.796875 72.90625 
L 67.578125 0 
L 57.328125 0 
L 50.6875 18.703125 
L 17.828125 18.703125 
L 11.1875 0 
L 0.78125 0 
z
" id="DejaVuSans-65"/>
    </defs>
    <g transform="translate(83.602344 170.664062)scale(0.15 -0.15)">
     <use xlink:href="#DejaVuSans-65"/>
    </g>
   </g>
   <g id="text_23">
    <g id="patch_11">
     <path d="M 195.967969 178.283594 
L 206.228906 178.283594 
Q 210.728906 178.283594 210.728906 173.783594 
L 210.728906 159.266406 
Q 210.728906 154.766406 206.228906 154.766406 
L 195.967969 154.766406 
Q 191.467969 154.766406 191.467969 159.266406 
L 191.467969 173.783594 
Q 191.467969 178.283594 195.967969 178.283594 
z
" style="fill:#ffffff;stroke:#ffffff;stroke-linejoin:miter;stroke-width:2;"/>
    </g>
    <!-- A -->
    <g transform="translate(195.967969 170.664062)scale(0.15 -0.15)">
     <use xlink:href="#DejaVuSans-65"/>
    </g>
   </g>
   <g id="text_24">
    <g id="patch_12">
     <path d="M 308.333594 178.283594 
L 318.594531 178.283594 
Q 323.094531 178.283594 323.094531 173.783594 
L 323.094531 159.266406 
Q 323.094531 154.766406 318.594531 154.766406 
L 308.333594 154.766406 
Q 303.833594 154.766406 303.833594 159.266406 
L 303.833594 173.783594 
Q 303.833594 178.283594 308.333594 178.283594 
z
" style="fill:#ffffff;stroke:#ffffff;stroke-linejoin:miter;stroke-width:2;"/>
    </g>
    <!-- A -->
    <g transform="translate(308.333594 170.664062)scale(0.15 -0.15)">
     <use xlink:href="#DejaVuSans-65"/>
    </g>
   </g>
   <g id="text_25">
    <g id="patch_13">
     <path d="M 420.699219 178.283594 
L 430.960156 178.283594 
Q 435.460156 178.283594 435.460156 173.783594 
L 435.460156 159.266406 
Q 435.460156 154.766406 430.960156 154.766406 
L 420.699219 154.766406 
Q 416.199219 154.766406 416.199219 159.266406 
L 416.199219 173.783594 
Q 416.199219 178.283594 420.699219 178.283594 
z
" style="fill:#ffffff;stroke:#ffffff;stroke-linejoin:miter;stroke-width:2;"/>
    </g>
    <!-- A -->
    <g transform="translate(420.699219 170.664062)scale(0.15 -0.15)">
     <use xlink:href="#DejaVuSans-65"/>
    </g>
   </g>
  </g>
 </g>
 <defs>
  <clipPath id="p3f6b14d36c">
   <rect height="173.4" width="449.4625" x="32.55" y="14.8"/>
  </clipPath>
 </defs>
</svg>
