<?xml version="1.0" encoding="utf-8" standalone="no"?>
<!DOCTYPE svg PUBLIC "-//W3C//DTD SVG 1.1//EN"
  "http://www.w3.org/Graphics/SVG/1.1/DTD/svg11.dtd">
<!-- Created with matplotlib (https://matplotlib.org/) -->
<svg height="216pt" version="1.1" viewBox="0 0 504 216" width="504pt" xmlns="http://www.w3.org/2000/svg" xmlns:xlink="http://www.w3.org/1999/xlink">
 <defs>
  <style type="text/css">
*{stroke-linecap:butt;stroke-linejoin:round;}
  </style>
 </defs>
 <g id="figure_1">
  <g id="patch_1">
   <path d="M 0 216 
L 504 216 
L 504 0 
L 0 0 
z
" style="fill:none;"/>
  </g>
  <g id="axes_1">
   <g id="patch_2">
    <path d="M 32.55 188.2 
L 482.0125 188.2 
L 482.0125 14.8 
L 32.55 14.8 
z
" style="fill:none;"/>
   </g>
   <g id="matplotlib.axis_1">
    <g id="xtick_1">
     <g id="line2d_1">
      <defs>
       <path d="M 0 0 
L 0 3.5 
" id="ma67bc642a5" style="stroke:#000000;stroke-width:0.8;"/>
      </defs>
      <g>
       <use style="stroke:#000000;stroke-width:0.8;" x="32.55" xlink:href="#ma67bc642a5" y="188.2"/>
      </g>
     </g>
     <g id="text_1">
      <!-- 0.00 -->
      <defs>
       <path d="M 31.78125 66.40625 
Q 24.171875 66.40625 20.328125 58.90625 
Q 16.5 51.421875 16.5 36.375 
Q 16.5 21.390625 20.328125 13.890625 
Q 24.171875 6.390625 31.78125 6.390625 
Q 39.453125 6.390625 43.28125 13.890625 
Q 47.125 21.390625 47.125 36.375 
Q 47.125 51.421875 43.28125 58.90625 
Q 39.453125 66.40625 31.78125 66.40625 
z
M 31.78125 74.21875 
Q 44.046875 74.21875 50.515625 64.515625 
Q 56.984375 54.828125 56.984375 36.375 
Q 56.984375 17.96875 50.515625 8.265625 
Q 44.046875 -1.421875 31.78125 -1.421875 
Q 19.53125 -1.421875 13.0625 8.265625 
Q 6.59375 17.96875 6.59375 36.375 
Q 6.59375 54.828125 13.0625 64.515625 
Q 19.53125 74.21875 31.78125 74.21875 
z
" id="DejaVuSans-48"/>
       <path d="M 10.6875 12.40625 
L 21 12.40625 
L 21 0 
L 10.6875 0 
z
" id="DejaVuSans-46"/>
      </defs>
      <g transform="translate(21.417188 202.798438)scale(0.1 -0.1)">
       <use xlink:href="#DejaVuSans-48"/>
       <use x="63.623047" xlink:href="#DejaVuSans-46"/>
       <use x="95.410156" xlink:href="#DejaVuSans-48"/>
       <use x="159.033203" xlink:href="#DejaVuSans-48"/>
      </g>
     </g>
    </g>
    <g id="xtick_2">
     <g id="line2d_2">
      <g>
       <use style="stroke:#000000;stroke-width:0.8;" x="88.732812" xlink:href="#ma67bc642a5" y="188.2"/>
      </g>
     </g>
     <g id="text_2">
      <!-- 0.25 -->
      <defs>
       <path d="M 19.1875 8.296875 
L 53.609375 8.296875 
L 53.609375 0 
L 7.328125 0 
L 7.328125 8.296875 
Q 12.9375 14.109375 22.625 23.890625 
Q 32.328125 33.6875 34.8125 36.53125 
Q 39.546875 41.84375 41.421875 45.53125 
Q 43.3125 49.21875 43.3125 52.78125 
Q 43.3125 58.59375 39.234375 62.25 
Q 35.15625 65.921875 28.609375 65.921875 
Q 23.96875 65.921875 18.8125 64.3125 
Q 13.671875 62.703125 7.8125 59.421875 
L 7.8125 69.390625 
Q 13.765625 71.78125 18.9375 73 
Q 24.125 74.21875 28.421875 74.21875 
Q 39.75 74.21875 46.484375 68.546875 
Q 53.21875 62.890625 53.21875 53.421875 
Q 53.21875 48.921875 51.53125 44.890625 
Q 49.859375 40.875 45.40625 35.40625 
Q 44.1875 33.984375 37.640625 27.21875 
Q 31.109375 20.453125 19.1875 8.296875 
z
" id="DejaVuSans-50"/>
       <path d="M 10.796875 72.90625 
L 49.515625 72.90625 
L 49.515625 64.59375 
L 19.828125 64.59375 
L 19.828125 46.734375 
Q 21.96875 47.46875 24.109375 47.828125 
Q 26.265625 48.1875 28.421875 48.1875 
Q 40.625 48.1875 47.75 41.5 
Q 54.890625 34.8125 54.890625 23.390625 
Q 54.890625 11.625 47.5625 5.09375 
Q 40.234375 -1.421875 26.90625 -1.421875 
Q 22.3125 -1.421875 17.546875 -0.640625 
Q 12.796875 0.140625 7.71875 1.703125 
L 7.71875 11.625 
Q 12.109375 9.234375 16.796875 8.0625 
Q 21.484375 6.890625 26.703125 6.890625 
Q 35.15625 6.890625 40.078125 11.328125 
Q 45.015625 15.765625 45.015625 23.390625 
Q 45.015625 31 40.078125 35.4375 
Q 35.15625 39.890625 26.703125 39.890625 
Q 22.75 39.890625 18.8125 39.015625 
Q 14.890625 38.140625 10.796875 36.28125 
z
" id="DejaVuSans-53"/>
      </defs>
      <g transform="translate(77.6 202.798438)scale(0.1 -0.1)">
       <use xlink:href="#DejaVuSans-48"/>
       <use x="63.623047" xlink:href="#DejaVuSans-46"/>
       <use x="95.410156" xlink:href="#DejaVuSans-50"/>
       <use x="159.033203" xlink:href="#DejaVuSans-53"/>
      </g>
     </g>
    </g>
    <g id="xtick_3">
     <g id="line2d_3">
      <g>
       <use style="stroke:#000000;stroke-width:0.8;" x="144.915625" xlink:href="#ma67bc642a5" y="188.2"/>
      </g>
     </g>
     <g id="text_3">
      <!-- 0.50 -->
      <g transform="translate(133.782813 202.798438)scale(0.1 -0.1)">
       <use xlink:href="#DejaVuSans-48"/>
       <use x="63.623047" xlink:href="#DejaVuSans-46"/>
       <use x="95.410156" xlink:href="#DejaVuSans-53"/>
       <use x="159.033203" xlink:href="#DejaVuSans-48"/>
      </g>
     </g>
    </g>
    <g id="xtick_4">
     <g id="line2d_4">
      <g>
       <use style="stroke:#000000;stroke-width:0.8;" x="201.098437" xlink:href="#ma67bc642a5" y="188.2"/>
      </g>
     </g>
     <g id="text_4">
      <!-- 0.75 -->
      <defs>
       <path d="M 8.203125 72.90625 
L 55.078125 72.90625 
L 55.078125 68.703125 
L 28.609375 0 
L 18.3125 0 
L 43.21875 64.59375 
L 8.203125 64.59375 
z
" id="DejaVuSans-55"/>
      </defs>
      <g transform="translate(189.965625 202.798438)scale(0.1 -0.1)">
       <use xlink:href="#DejaVuSans-48"/>
       <use x="63.623047" xlink:href="#DejaVuSans-46"/>
       <use x="95.410156" xlink:href="#DejaVuSans-55"/>
       <use x="159.033203" xlink:href="#DejaVuSans-53"/>
      </g>
     </g>
    </g>
    <g id="xtick_5">
     <g id="line2d_5">
      <g>
       <use style="stroke:#000000;stroke-width:0.8;" x="257.28125" xlink:href="#ma67bc642a5" y="188.2"/>
      </g>
     </g>
     <g id="text_5">
      <!-- 1.00 -->
      <defs>
       <path d="M 12.40625 8.296875 
L 28.515625 8.296875 
L 28.515625 63.921875 
L 10.984375 60.40625 
L 10.984375 69.390625 
L 28.421875 72.90625 
L 38.28125 72.90625 
L 38.28125 8.296875 
L 54.390625 8.296875 
L 54.390625 0 
L 12.40625 0 
z
" id="DejaVuSans-49"/>
      </defs>
      <g transform="translate(246.148438 202.798438)scale(0.1 -0.1)">
       <use xlink:href="#DejaVuSans-49"/>
       <use x="63.623047" xlink:href="#DejaVuSans-46"/>
       <use x="95.410156" xlink:href="#DejaVuSans-48"/>
       <use x="159.033203" xlink:href="#DejaVuSans-48"/>
      </g>
     </g>
    </g>
    <g id="xtick_6">
     <g id="line2d_6">
      <g>
       <use style="stroke:#000000;stroke-width:0.8;" x="313.464063" xlink:href="#ma67bc642a5" y="188.2"/>
      </g>
     </g>
     <g id="text_6">
      <!-- 1.25 -->
      <g transform="translate(302.33125 202.798438)scale(0.1 -0.1)">
       <use xlink:href="#DejaVuSans-49"/>
       <use x="63.623047" xlink:href="#DejaVuSans-46"/>
       <use x="95.410156" xlink:href="#DejaVuSans-50"/>
       <use x="159.033203" xlink:href="#DejaVuSans-53"/>
      </g>
     </g>
    </g>
    <g id="xtick_7">
     <g id="line2d_7">
      <g>
       <use style="stroke:#000000;stroke-width:0.8;" x="369.646875" xlink:href="#ma67bc642a5" y="188.2"/>
      </g>
     </g>
     <g id="text_7">
      <!-- 1.50 -->
      <g transform="translate(358.514062 202.798438)scale(0.1 -0.1)">
       <use xlink:href="#DejaVuSans-49"/>
       <use x="63.623047" xlink:href="#DejaVuSans-46"/>
       <use x="95.410156" xlink:href="#DejaVuSans-53"/>
       <use x="159.033203" xlink:href="#DejaVuSans-48"/>
      </g>
     </g>
    </g>
    <g id="xtick_8">
     <g id="line2d_8">
      <g>
       <use style="stroke:#000000;stroke-width:0.8;" x="425.829687" xlink:href="#ma67bc642a5" y="188.2"/>
      </g>
     </g>
     <g id="text_8">
      <!-- 1.75 -->
      <g transform="translate(414.696875 202.798438)scale(0.1 -0.1)">
       <use xlink:href="#DejaVuSans-49"/>
       <use x="63.623047" xlink:href="#DejaVuSans-46"/>
       <use x="95.410156" xlink:href="#DejaVuSans-55"/>
       <use x="159.033203" xlink:href="#DejaVuSans-53"/>
      </g>
     </g>
    </g>
    <g id="xtick_9">
     <g id="line2d_9">
      <g>
       <use style="stroke:#000000;stroke-width:0.8;" x="482.0125" xlink:href="#ma67bc642a5" y="188.2"/>
      </g>
     </g>
     <g id="text_9">
      <!-- 2.00 -->
      <g transform="translate(470.879687 202.798438)scale(0.1 -0.1)">
       <use xlink:href="#DejaVuSans-50"/>
       <use x="63.623047" xlink:href="#DejaVuSans-46"/>
       <use x="95.410156" xlink:href="#DejaVuSans-48"/>
       <use x="159.033203" xlink:href="#DejaVuSans-48"/>
      </g>
     </g>
    </g>
   </g>
   <g id="matplotlib.axis_2">
    <g id="ytick_1">
     <g id="line2d_10">
      <defs>
       <path d="M 0 0 
L -3.5 0 
" id="mae596c7d33" style="stroke:#000000;stroke-width:0.8;"/>
      </defs>
      <g>
       <use style="stroke:#000000;stroke-width:0.8;" x="32.55" xlink:href="#mae596c7d33" y="188.2"/>
      </g>
     </g>
     <g id="text_10">
      <!-- −4 -->
      <defs>
       <path d="M 10.59375 35.5 
L 73.1875 35.5 
L 73.1875 27.203125 
L 10.59375 27.203125 
z
" id="DejaVuSans-8722"/>
       <path d="M 37.796875 64.3125 
L 12.890625 25.390625 
L 37.796875 25.390625 
z
M 35.203125 72.90625 
L 47.609375 72.90625 
L 47.609375 25.390625 
L 58.015625 25.390625 
L 58.015625 17.1875 
L 47.609375 17.1875 
L 47.609375 0 
L 37.796875 0 
L 37.796875 17.1875 
L 4.890625 17.1875 
L 4.890625 26.703125 
z
" id="DejaVuSans-52"/>
      </defs>
      <g transform="translate(10.807813 191.999219)scale(0.1 -0.1)">
       <use xlink:href="#DejaVuSans-8722"/>
       <use x="83.789062" xlink:href="#DejaVuSans-52"/>
      </g>
     </g>
    </g>
    <g id="ytick_2">
     <g id="line2d_11">
      <g>
       <use style="stroke:#000000;stroke-width:0.8;" x="32.55" xlink:href="#mae596c7d33" y="166.525"/>
      </g>
     </g>
     <g id="text_11">
      <!-- −3 -->
      <defs>
       <path d="M 40.578125 39.3125 
Q 47.65625 37.796875 51.625 33 
Q 55.609375 28.21875 55.609375 21.1875 
Q 55.609375 10.40625 48.1875 4.484375 
Q 40.765625 -1.421875 27.09375 -1.421875 
Q 22.515625 -1.421875 17.65625 -0.515625 
Q 12.796875 0.390625 7.625 2.203125 
L 7.625 11.71875 
Q 11.71875 9.328125 16.59375 8.109375 
Q 21.484375 6.890625 26.8125 6.890625 
Q 36.078125 6.890625 40.9375 10.546875 
Q 45.796875 14.203125 45.796875 21.1875 
Q 45.796875 27.640625 41.28125 31.265625 
Q 36.765625 34.90625 28.71875 34.90625 
L 20.21875 34.90625 
L 20.21875 43.015625 
L 29.109375 43.015625 
Q 36.375 43.015625 40.234375 45.921875 
Q 44.09375 48.828125 44.09375 54.296875 
Q 44.09375 59.90625 40.109375 62.90625 
Q 36.140625 65.921875 28.71875 65.921875 
Q 24.65625 65.921875 20.015625 65.03125 
Q 15.375 64.15625 9.8125 62.3125 
L 9.8125 71.09375 
Q 15.4375 72.65625 20.34375 73.4375 
Q 25.25 74.21875 29.59375 74.21875 
Q 40.828125 74.21875 47.359375 69.109375 
Q 53.90625 64.015625 53.90625 55.328125 
Q 53.90625 49.265625 50.4375 45.09375 
Q 46.96875 40.921875 40.578125 39.3125 
z
" id="DejaVuSans-51"/>
      </defs>
      <g transform="translate(10.807813 170.324219)scale(0.1 -0.1)">
       <use xlink:href="#DejaVuSans-8722"/>
       <use x="83.789062" xlink:href="#DejaVuSans-51"/>
      </g>
     </g>
    </g>
    <g id="ytick_3">
     <g id="line2d_12">
      <g>
       <use style="stroke:#000000;stroke-width:0.8;" x="32.55" xlink:href="#mae596c7d33" y="144.85"/>
      </g>
     </g>
     <g id="text_12">
      <!-- −2 -->
      <g transform="translate(10.807813 148.649219)scale(0.1 -0.1)">
       <use xlink:href="#DejaVuSans-8722"/>
       <use x="83.789062" xlink:href="#DejaVuSans-50"/>
      </g>
     </g>
    </g>
    <g id="ytick_4">
     <g id="line2d_13">
      <g>
       <use style="stroke:#000000;stroke-width:0.8;" x="32.55" xlink:href="#mae596c7d33" y="123.175"/>
      </g>
     </g>
     <g id="text_13">
      <!-- −1 -->
      <g transform="translate(10.807813 126.974219)scale(0.1 -0.1)">
       <use xlink:href="#DejaVuSans-8722"/>
       <use x="83.789062" xlink:href="#DejaVuSans-49"/>
      </g>
     </g>
    </g>
    <g id="ytick_5">
     <g id="line2d_14">
      <g>
       <use style="stroke:#000000;stroke-width:0.8;" x="32.55" xlink:href="#mae596c7d33" y="101.5"/>
      </g>
     </g>
     <g id="text_14">
      <!-- 0 -->
      <g transform="translate(19.1875 105.299219)scale(0.1 -0.1)">
       <use xlink:href="#DejaVuSans-48"/>
      </g>
     </g>
    </g>
    <g id="ytick_6">
     <g id="line2d_15">
      <g>
       <use style="stroke:#000000;stroke-width:0.8;" x="32.55" xlink:href="#mae596c7d33" y="79.825"/>
      </g>
     </g>
     <g id="text_15">
      <!-- 1 -->
      <g transform="translate(19.1875 83.624219)scale(0.1 -0.1)">
       <use xlink:href="#DejaVuSans-49"/>
      </g>
     </g>
    </g>
    <g id="ytick_7">
     <g id="line2d_16">
      <g>
       <use style="stroke:#000000;stroke-width:0.8;" x="32.55" xlink:href="#mae596c7d33" y="58.15"/>
      </g>
     </g>
     <g id="text_16">
      <!-- 2 -->
      <g transform="translate(19.1875 61.949219)scale(0.1 -0.1)">
       <use xlink:href="#DejaVuSans-50"/>
      </g>
     </g>
    </g>
    <g id="ytick_8">
     <g id="line2d_17">
      <g>
       <use style="stroke:#000000;stroke-width:0.8;" x="32.55" xlink:href="#mae596c7d33" y="36.475"/>
      </g>
     </g>
     <g id="text_17">
      <!-- 3 -->
      <g transform="translate(19.1875 40.274219)scale(0.1 -0.1)">
       <use xlink:href="#DejaVuSans-51"/>
      </g>
     </g>
    </g>
    <g id="ytick_9">
     <g id="line2d_18">
      <g>
       <use style="stroke:#000000;stroke-width:0.8;" x="32.55" xlink:href="#mae596c7d33" y="14.8"/>
      </g>
     </g>
     <g id="text_18">
      <!-- 4 -->
      <g transform="translate(19.1875 18.599219)scale(0.1 -0.1)">
       <use xlink:href="#DejaVuSans-52"/>
      </g>
     </g>
    </g>
   </g>
   <g id="line2d_19">
    <path clip-path="url(#pc1d5ae8e8f)" d="M 32.55 101.5 
L 37.090025 94.171769 
L 41.630051 86.909904 
L 46.170076 79.780169 
L 50.710101 72.847132 
L 55.250126 66.17358 
L 59.790152 59.81995 
L 64.330177 53.84378 
L 68.870202 48.299193 
L 73.410227 43.2364 
L 77.950253 38.701252 
L 82.490278 34.734818 
L 87.030303 31.373021 
L 91.570328 28.646304 
L 96.110354 26.579362 
L 100.650379 25.190912 
L 105.190404 24.49353 
L 109.730429 24.49353 
L 114.270455 25.190912 
L 118.81048 26.579362 
L 123.350505 28.646304 
L 127.89053 31.373021 
L 132.430556 34.734818 
L 136.970581 38.701252 
L 141.510606 43.2364 
L 146.050631 48.299193 
L 150.590657 53.84378 
L 155.130682 59.81995 
L 159.670707 66.17358 
L 164.210732 72.847132 
L 168.750758 79.780169 
L 173.290783 86.909904 
L 177.830808 94.171769 
L 182.370833 101.5 
L 186.910859 108.828231 
L 191.450884 116.090096 
L 195.990909 123.219831 
L 200.530934 130.152868 
L 205.07096 136.82642 
L 209.610985 143.18005 
L 214.15101 149.15622 
L 218.691035 154.700807 
L 223.231061 159.7636 
L 227.771086 164.298748 
L 232.311111 168.265182 
L 236.851136 171.626979 
L 241.391162 174.353696 
L 245.931187 176.420638 
L 250.471212 177.809088 
L 255.011237 178.50647 
L 259.551263 178.50647 
L 264.091288 177.809088 
L 268.631313 176.420638 
L 273.171338 174.353696 
L 277.711364 171.626979 
L 282.251389 168.265182 
L 286.791414 164.298748 
L 291.331439 159.7636 
L 295.871465 154.700807 
L 300.41149 149.15622 
L 304.951515 143.18005 
L 309.49154 136.82642 
L 314.031566 130.152868 
L 318.571591 123.219831 
L 323.111616 116.090096 
L 327.651641 108.828231 
L 332.191667 101.5 
L 336.731692 94.171769 
L 341.271717 86.909904 
L 345.811742 79.780169 
L 350.351768 72.847132 
L 354.891793 66.17358 
L 359.431818 59.81995 
L 363.971843 53.84378 
L 368.511869 48.299193 
L 373.051894 43.2364 
L 377.591919 38.701252 
L 382.131944 34.734818 
L 386.67197 31.373021 
L 391.211995 28.646304 
L 395.75202 26.579362 
L 400.292045 25.190912 
L 404.832071 24.49353 
L 409.372096 24.49353 
L 413.912121 25.190912 
L 418.452146 26.579362 
L 422.992172 28.646304 
L 427.532197 31.373021 
L 432.072222 34.734818 
L 436.612247 38.701252 
L 441.152273 43.2364 
L 445.692298 48.299193 
L 450.232323 53.84378 
L 454.772348 59.81995 
L 459.312374 66.17358 
L 463.852399 72.847132 
L 468.392424 79.780169 
L 472.932449 86.909904 
L 477.472475 94.171769 
L 482.0125 101.5 
" style="fill:none;stroke:#0000ff;stroke-linecap:square;stroke-width:2;"/>
   </g>
   <g id="line2d_20">
    <path clip-path="url(#pc1d5ae8e8f)" d="M 32.55 101.5 
L 37.090025 96.708808 
L 41.630051 91.961005 
L 46.170076 87.29959 
L 50.710101 82.766775 
L 55.250126 78.403611 
L 59.790152 74.249612 
L 64.330177 70.342396 
L 68.870202 66.717349 
L 73.410227 63.407299 
L 77.950253 60.442222 
L 82.490278 57.84897 
L 87.030303 55.65103 
L 91.570328 53.868304 
L 96.110354 52.516939 
L 100.650379 51.609171 
L 105.190404 51.153223 
L 109.730429 51.153223 
L 114.270455 51.609171 
L 118.81048 52.516939 
L 123.350505 53.868304 
L 127.89053 55.65103 
L 132.430556 57.84897 
L 136.970581 60.442222 
L 141.510606 63.407299 
L 146.050631 66.717349 
L 150.590657 70.342396 
L 155.130682 74.249612 
L 159.670707 78.403611 
L 164.210732 82.766775 
L 168.750758 87.29959 
L 173.290783 91.961005 
L 177.830808 96.708808 
L 182.370833 101.5 
L 186.910859 106.291192 
L 191.450884 111.038995 
L 195.990909 115.70041 
L 200.530934 120.233225 
L 205.07096 124.596389 
L 209.610985 128.750388 
L 214.15101 132.657604 
L 218.691035 136.282651 
L 223.231061 139.592701 
L 227.771086 142.557778 
L 232.311111 145.15103 
L 236.851136 147.34897 
L 241.391162 149.131696 
L 245.931187 150.483061 
L 250.471212 151.390829 
L 255.011237 151.846777 
L 259.551263 151.846777 
L 264.091288 151.390829 
L 268.631313 150.483061 
L 273.171338 149.131696 
L 277.711364 147.34897 
L 282.251389 145.15103 
L 286.791414 142.557778 
L 291.331439 139.592701 
L 295.871465 136.282651 
L 300.41149 132.657604 
L 304.951515 128.750388 
L 309.49154 124.596389 
L 314.031566 120.233225 
L 318.571591 115.70041 
L 323.111616 111.038995 
L 327.651641 106.291192 
L 332.191667 101.5 
L 336.731692 96.708808 
L 341.271717 91.961005 
L 345.811742 87.29959 
L 350.351768 82.766775 
L 354.891793 78.403611 
L 359.431818 74.249612 
L 363.971843 70.342396 
L 368.511869 66.717349 
L 373.051894 63.407299 
L 377.591919 60.442222 
L 382.131944 57.84897 
L 386.67197 55.65103 
L 391.211995 53.868304 
L 395.75202 52.516939 
L 400.292045 51.609171 
L 404.832071 51.153223 
L 409.372096 51.153223 
L 413.912121 51.609171 
L 418.452146 52.516939 
L 422.992172 53.868304 
L 427.532197 55.65103 
L 432.072222 57.84897 
L 436.612247 60.442222 
L 441.152273 63.407299 
L 445.692298 66.717349 
L 450.232323 70.342396 
L 454.772348 74.249612 
L 459.312374 78.403611 
L 463.852399 82.766775 
L 468.392424 87.29959 
L 472.932449 91.961005 
L 477.472475 96.708808 
L 482.0125 101.5 
" style="fill:none;stroke:#0000ff;stroke-linecap:square;stroke-opacity:0.6;stroke-width:2;"/>
   </g>
   <g id="line2d_21">
    <path clip-path="url(#pc1d5ae8e8f)" d="M 32.55 101.5 
L 37.090025 100.307558 
L 41.630051 99.125915 
L 46.170076 97.965771 
L 50.710101 96.837635 
L 55.250126 95.751721 
L 59.790152 94.717865 
L 64.330177 93.745429 
L 68.870202 92.843219 
L 73.410227 92.019407 
L 77.950253 91.281452 
L 82.490278 90.636038 
L 87.030303 90.08901 
L 91.570328 89.645322 
L 96.110354 89.308991 
L 100.650379 89.083064 
L 105.190404 88.969586 
L 109.730429 88.969586 
L 114.270455 89.083064 
L 118.81048 89.308991 
L 123.350505 89.645322 
L 127.89053 90.08901 
L 132.430556 90.636038 
L 136.970581 91.281452 
L 141.510606 92.019407 
L 146.050631 92.843219 
L 150.590657 93.745429 
L 155.130682 94.717865 
L 159.670707 95.751721 
L 164.210732 96.837635 
L 168.750758 97.965771 
L 173.290783 99.125915 
L 177.830808 100.307558 
L 182.370833 101.5 
L 186.910859 102.692442 
L 191.450884 103.874085 
L 195.990909 105.034229 
L 200.530934 106.162365 
L 205.07096 107.248279 
L 209.610985 108.282135 
L 214.15101 109.254571 
L 218.691035 110.156781 
L 223.231061 110.980593 
L 227.771086 111.718548 
L 232.311111 112.363962 
L 236.851136 112.91099 
L 241.391162 113.354678 
L 245.931187 113.691009 
L 250.471212 113.916936 
L 255.011237 114.030414 
L 259.551263 114.030414 
L 264.091288 113.916936 
L 268.631313 113.691009 
L 273.171338 113.354678 
L 277.711364 112.91099 
L 282.251389 112.363962 
L 286.791414 111.718548 
L 291.331439 110.980593 
L 295.871465 110.156781 
L 300.41149 109.254571 
L 304.951515 108.282135 
L 309.49154 107.248279 
L 314.031566 106.162365 
L 318.571591 105.034229 
L 323.111616 103.874085 
L 327.651641 102.692442 
L 332.191667 101.5 
L 336.731692 100.307558 
L 341.271717 99.125915 
L 345.811742 97.965771 
L 350.351768 96.837635 
L 354.891793 95.751721 
L 359.431818 94.717865 
L 363.971843 93.745429 
L 368.511869 92.843219 
L 373.051894 92.019407 
L 377.591919 91.281452 
L 382.131944 90.636038 
L 386.67197 90.08901 
L 391.211995 89.645322 
L 395.75202 89.308991 
L 400.292045 89.083064 
L 404.832071 88.969586 
L 409.372096 88.969586 
L 413.912121 89.083064 
L 418.452146 89.308991 
L 422.992172 89.645322 
L 427.532197 90.08901 
L 432.072222 90.636038 
L 436.612247 91.281452 
L 441.152273 92.019407 
L 445.692298 92.843219 
L 450.232323 93.745429 
L 454.772348 94.717865 
L 459.312374 95.751721 
L 463.852399 96.837635 
L 468.392424 97.965771 
L 472.932449 99.125915 
L 477.472475 100.307558 
L 482.0125 101.5 
" style="fill:none;stroke:#0000ff;stroke-linecap:square;stroke-opacity:0.4;stroke-width:2;"/>
   </g>
   <g id="line2d_22">
    <path clip-path="url(#pc1d5ae8e8f)" d="M 32.55 101.5 
L 37.090025 104.170549 
L 41.630051 106.816913 
L 46.170076 109.415126 
L 50.710101 111.941659 
L 55.250126 114.37363 
L 59.790152 116.689016 
L 64.330177 118.866847 
L 68.870202 120.887402 
L 73.410227 122.732382 
L 77.950253 124.385077 
L 82.490278 125.830522 
L 87.030303 127.055626 
L 91.570328 128.049295 
L 96.110354 128.802528 
L 100.650379 129.308506 
L 105.190404 129.562646 
L 109.730429 129.562646 
L 114.270455 129.308506 
L 118.81048 128.802528 
L 123.350505 128.049295 
L 127.89053 127.055626 
L 132.430556 125.830522 
L 136.970581 124.385077 
L 141.510606 122.732382 
L 146.050631 120.887402 
L 150.590657 118.866847 
L 155.130682 116.689016 
L 159.670707 114.37363 
L 164.210732 111.941659 
L 168.750758 109.415126 
L 173.290783 106.816913 
L 177.830808 104.170549 
L 182.370833 101.5 
L 186.910859 98.829451 
L 191.450884 96.183087 
L 195.990909 93.584874 
L 200.530934 91.058341 
L 205.07096 88.62637 
L 209.610985 86.310984 
L 214.15101 84.133153 
L 218.691035 82.112598 
L 223.231061 80.267618 
L 227.771086 78.614923 
L 232.311111 77.169478 
L 236.851136 75.944374 
L 241.391162 74.950705 
L 245.931187 74.197472 
L 250.471212 73.691494 
L 255.011237 73.437354 
L 259.551263 73.437354 
L 264.091288 73.691494 
L 268.631313 74.197472 
L 273.171338 74.950705 
L 277.711364 75.944374 
L 282.251389 77.169478 
L 286.791414 78.614923 
L 291.331439 80.267618 
L 295.871465 82.112598 
L 300.41149 84.133153 
L 304.951515 86.310984 
L 309.49154 88.62637 
L 314.031566 91.058341 
L 318.571591 93.584874 
L 323.111616 96.183087 
L 327.651641 98.829451 
L 332.191667 101.5 
L 336.731692 104.170549 
L 341.271717 106.816913 
L 345.811742 109.415126 
L 350.351768 111.941659 
L 354.891793 114.37363 
L 359.431818 116.689016 
L 363.971843 118.866847 
L 368.511869 120.887402 
L 373.051894 122.732382 
L 377.591919 124.385077 
L 382.131944 125.830522 
L 386.67197 127.055626 
L 391.211995 128.049295 
L 395.75202 128.802528 
L 400.292045 129.308506 
L 404.832071 129.562646 
L 409.372096 129.562646 
L 413.912121 129.308506 
L 418.452146 128.802528 
L 422.992172 128.049295 
L 427.532197 127.055626 
L 432.072222 125.830522 
L 436.612247 124.385077 
L 441.152273 122.732382 
L 445.692298 120.887402 
L 450.232323 118.866847 
L 454.772348 116.689016 
L 459.312374 114.37363 
L 463.852399 111.941659 
L 468.392424 109.415126 
L 472.932449 106.816913 
L 477.472475 104.170549 
L 482.0125 101.5 
" style="fill:none;stroke:#0000ff;stroke-linecap:square;stroke-opacity:0.2;stroke-width:2;"/>
   </g>
   <g id="line2d_23">
    <path clip-path="url(#pc1d5ae8e8f)" d="M 32.55 101.5 
L 37.090025 107.441756 
L 41.630051 113.329702 
L 46.170076 119.110516 
L 50.710101 124.731847 
L 55.250126 130.142787 
L 59.790152 135.294333 
L 64.330177 140.139833 
L 68.870202 144.635404 
L 73.410227 148.740335 
L 77.950253 152.417449 
L 82.490278 155.633447 
L 87.030303 158.359205 
L 91.570328 160.570036 
L 96.110354 162.245921 
L 100.650379 163.37168 
L 105.190404 163.937121 
L 109.730429 163.937121 
L 114.270455 163.37168 
L 118.81048 162.245921 
L 123.350505 160.570036 
L 127.89053 158.359205 
L 132.430556 155.633447 
L 136.970581 152.417449 
L 141.510606 148.740335 
L 146.050631 144.635404 
L 150.590657 140.139833 
L 155.130682 135.294333 
L 159.670707 130.142787 
L 164.210732 124.731847 
L 168.750758 119.110516 
L 173.290783 113.329702 
L 177.830808 107.441756 
L 182.370833 101.5 
L 186.910859 95.558244 
L 191.450884 89.670298 
L 195.990909 83.889484 
L 200.530934 78.268153 
L 205.07096 72.857213 
L 209.610985 67.705667 
L 214.15101 62.860167 
L 218.691035 58.364596 
L 223.231061 54.259665 
L 227.771086 50.582551 
L 232.311111 47.366553 
L 236.851136 44.640795 
L 241.391162 42.429964 
L 245.931187 40.754079 
L 250.471212 39.62832 
L 255.011237 39.062879 
L 259.551263 39.062879 
L 264.091288 39.62832 
L 268.631313 40.754079 
L 273.171338 42.429964 
L 277.711364 44.640795 
L 282.251389 47.366553 
L 286.791414 50.582551 
L 291.331439 54.259665 
L 295.871465 58.364596 
L 300.41149 62.860167 
L 304.951515 67.705667 
L 309.49154 72.857213 
L 314.031566 78.268153 
L 318.571591 83.889484 
L 323.111616 89.670298 
L 327.651641 95.558244 
L 332.191667 101.5 
L 336.731692 107.441756 
L 341.271717 113.329702 
L 345.811742 119.110516 
L 350.351768 124.731847 
L 354.891793 130.142787 
L 359.431818 135.294333 
L 363.971843 140.139833 
L 368.511869 144.635404 
L 373.051894 148.740335 
L 377.591919 152.417449 
L 382.131944 155.633447 
L 386.67197 158.359205 
L 391.211995 160.570036 
L 395.75202 162.245921 
L 400.292045 163.37168 
L 404.832071 163.937121 
L 409.372096 163.937121 
L 413.912121 163.37168 
L 418.452146 162.245921 
L 422.992172 160.570036 
L 427.532197 158.359205 
L 432.072222 155.633447 
L 436.612247 152.417449 
L 441.152273 148.740335 
L 445.692298 144.635404 
L 450.232323 140.139833 
L 454.772348 135.294333 
L 459.312374 130.142787 
L 463.852399 124.731847 
L 468.392424 119.110516 
L 472.932449 113.329702 
L 477.472475 107.441756 
L 482.0125 101.5 
" style="fill:none;stroke:#0000ff;stroke-linecap:square;stroke-opacity:0.1;stroke-width:2;"/>
   </g>
   <g id="line2d_24">
    <path clip-path="url(#pc1d5ae8e8f)" d="M 182.370833 188.2 
L 182.370833 14.8 
" style="fill:none;stroke:#ff0000;stroke-dasharray:1.85,0.8;stroke-dashoffset:0;stroke-width:0.5;"/>
   </g>
   <g id="line2d_25">
    <path clip-path="url(#pc1d5ae8e8f)" d="M 332.191667 188.2 
L 332.191667 14.8 
" style="fill:none;stroke:#ff0000;stroke-dasharray:1.85,0.8;stroke-dashoffset:0;stroke-width:0.5;"/>
   </g>
   <g id="line2d_26">
    <path clip-path="url(#pc1d5ae8e8f)" d="M 107.460417 188.2 
L 107.460417 14.8 
" style="fill:none;stroke:#0000ff;stroke-dasharray:1.85,0.8;stroke-dashoffset:0;stroke-width:0.5;"/>
   </g>
   <g id="line2d_27">
    <path clip-path="url(#pc1d5ae8e8f)" d="M 257.28125 188.2 
L 257.28125 14.8 
" style="fill:none;stroke:#0000ff;stroke-dasharray:1.85,0.8;stroke-dashoffset:0;stroke-width:0.5;"/>
   </g>
   <g id="line2d_28">
    <path clip-path="url(#pc1d5ae8e8f)" d="M 407.102083 188.2 
L 407.102083 14.8 
" style="fill:none;stroke:#0000ff;stroke-dasharray:1.85,0.8;stroke-dashoffset:0;stroke-width:0.5;"/>
   </g>
   <g id="patch_3">
    <path d="M 32.55 188.2 
L 32.55 14.8 
" style="fill:none;stroke:#000000;stroke-linecap:square;stroke-linejoin:miter;stroke-width:0.8;"/>
   </g>
   <g id="patch_4">
    <path d="M 482.0125 188.2 
L 482.0125 14.8 
" style="fill:none;stroke:#000000;stroke-linecap:square;stroke-linejoin:miter;stroke-width:0.8;"/>
   </g>
   <g id="patch_5">
    <path d="M 32.55 188.2 
L 482.0125 188.2 
" style="fill:none;stroke:#000000;stroke-linecap:square;stroke-linejoin:miter;stroke-width:0.8;"/>
   </g>
   <g id="patch_6">
    <path d="M 32.55 14.8 
L 482.0125 14.8 
" style="fill:none;stroke:#000000;stroke-linecap:square;stroke-linejoin:miter;stroke-width:0.8;"/>
   </g>
   <g id="text_19">
    <g id="patch_7">
     <path d="M 176.759896 178.283594 
L 187.981771 178.283594 
Q 192.481771 178.283594 192.481771 173.783594 
L 192.481771 159.266406 
Q 192.481771 154.766406 187.981771 154.766406 
L 176.759896 154.766406 
Q 172.259896 154.766406 172.259896 159.266406 
L 172.259896 173.783594 
Q 172.259896 178.283594 176.759896 178.283594 
z
" style="fill:#ffffff;stroke:#ffffff;stroke-linejoin:miter;stroke-width:2;"/>
    </g>
    <!-- N -->
    <defs>
     <path d="M 9.8125 72.90625 
L 23.09375 72.90625 
L 55.421875 11.921875 
L 55.421875 72.90625 
L 64.984375 72.90625 
L 64.984375 0 
L 51.703125 0 
L 19.390625 60.984375 
L 19.390625 0 
L 9.8125 0 
z
" id="DejaVuSans-78"/>
    </defs>
    <g transform="translate(176.759896 170.664062)scale(0.15 -0.15)">
     <use xlink:href="#DejaVuSans-78"/>
    </g>
   </g>
   <g id="text_20">
    <g id="patch_8">
     <path d="M 326.580729 178.283594 
L 337.802604 178.283594 
Q 342.302604 178.283594 342.302604 173.783594 
L 342.302604 159.266406 
Q 342.302604 154.766406 337.802604 154.766406 
L 326.580729 154.766406 
Q 322.080729 154.766406 322.080729 159.266406 
L 322.080729 173.783594 
Q 322.080729 178.283594 326.580729 178.283594 
z
" style="fill:#ffffff;stroke:#ffffff;stroke-linejoin:miter;stroke-width:2;"/>
    </g>
    <!-- N -->
    <g transform="translate(326.580729 170.664062)scale(0.15 -0.15)">
     <use xlink:href="#DejaVuSans-78"/>
    </g>
   </g>
   <g id="text_21">
    <g id="patch_9">
     <path d="M 102.329948 178.283594 
L 112.590885 178.283594 
Q 117.090885 178.283594 117.090885 173.783594 
L 117.090885 159.266406 
Q 117.090885 154.766406 112.590885 154.766406 
L 102.329948 154.766406 
Q 97.829948 154.766406 97.829948 159.266406 
L 97.829948 173.783594 
Q 97.829948 178.283594 102.329948 178.283594 
z
" style="fill:#ffffff;stroke:#ffffff;stroke-linejoin:miter;stroke-width:2;"/>
    </g>
    <!-- A -->
    <defs>
     <path d="M 34.1875 63.1875 
L 20.796875 26.90625 
L 47.609375 26.90625 
z
M 28.609375 72.90625 
L 39.796875 72.90625 
L 67.578125 0 
L 57.328125 0 
L 50.6875 18.703125 
L 17.828125 18.703125 
L 11.1875 0 
L 0.78125 0 
z
" id="DejaVuSans-65"/>
    </defs>
    <g transform="translate(102.329948 170.664062)scale(0.15 -0.15)">
     <use xlink:href="#DejaVuSans-65"/>
    </g>
   </g>
   <g id="text_22">
    <g id="patch_10">
     <path d="M 252.150781 178.283594 
L 262.411719 178.283594 
Q 266.911719 178.283594 266.911719 173.783594 
L 266.911719 159.266406 
Q 266.911719 154.766406 262.411719 154.766406 
L 252.150781 154.766406 
Q 247.650781 154.766406 247.650781 159.266406 
L 247.650781 173.783594 
Q 247.650781 178.283594 252.150781 178.283594 
z
" style="fill:#ffffff;stroke:#ffffff;stroke-linejoin:miter;stroke-width:2;"/>
    </g>
    <!-- A -->
    <g transform="translate(252.150781 170.664062)scale(0.15 -0.15)">
     <use xlink:href="#DejaVuSans-65"/>
    </g>
   </g>
   <g id="text_23">
    <g id="patch_11">
     <path d="M 401.971615 178.283594 
L 412.232552 178.283594 
Q 416.732552 178.283594 416.732552 173.783594 
L 416.732552 159.266406 
Q 416.732552 154.766406 412.232552 154.766406 
L 401.971615 154.766406 
Q 397.471615 154.766406 397.471615 159.266406 
L 397.471615 173.783594 
Q 397.471615 178.283594 401.971615 178.283594 
z
" style="fill:#ffffff;stroke:#ffffff;stroke-linejoin:miter;stroke-width:2;"/>
    </g>
    <!-- A -->
    <g transform="translate(401.971615 170.664062)scale(0.15 -0.15)">
     <use xlink:href="#DejaVuSans-65"/>
    </g>
   </g>
  </g>
 </g>
 <defs>
  <clipPath id="pc1d5ae8e8f">
   <rect height="173.4" width="449.4625" x="32.55" y="14.8"/>
  </clipPath>
 </defs>
</svg>
