<?xml version="1.0" encoding="utf-8" standalone="no"?>
<!DOCTYPE svg PUBLIC "-//W3C//DTD SVG 1.1//EN"
  "http://www.w3.org/Graphics/SVG/1.1/DTD/svg11.dtd">
<!-- Created with matplotlib (https://matplotlib.org/) -->
<svg height="216pt" version="1.1" viewBox="0 0 504 216" width="504pt" xmlns="http://www.w3.org/2000/svg" xmlns:xlink="http://www.w3.org/1999/xlink">
 <defs>
  <style type="text/css">
*{stroke-linecap:butt;stroke-linejoin:round;}
  </style>
 </defs>
 <g id="figure_1">
  <g id="patch_1">
   <path d="M 0 216 
L 504 216 
L 504 0 
L 0 0 
z
" style="fill:none;"/>
  </g>
  <g id="axes_1">
   <g id="patch_2">
    <path d="M 32.55 188.2 
L 482.0125 188.2 
L 482.0125 14.8 
L 32.55 14.8 
z
" style="fill:none;"/>
   </g>
   <g id="matplotlib.axis_1">
    <g id="xtick_1">
     <g id="line2d_1">
      <defs>
       <path d="M 0 0 
L 0 3.5 
" id="m28852b8eab" style="stroke:#000000;stroke-width:0.8;"/>
      </defs>
      <g>
       <use style="stroke:#000000;stroke-width:0.8;" x="32.55" xlink:href="#m28852b8eab" y="188.2"/>
      </g>
     </g>
     <g id="text_1">
      <!-- 0.00 -->
      <defs>
       <path d="M 31.78125 66.40625 
Q 24.171875 66.40625 20.328125 58.90625 
Q 16.5 51.421875 16.5 36.375 
Q 16.5 21.390625 20.328125 13.890625 
Q 24.171875 6.390625 31.78125 6.390625 
Q 39.453125 6.390625 43.28125 13.890625 
Q 47.125 21.390625 47.125 36.375 
Q 47.125 51.421875 43.28125 58.90625 
Q 39.453125 66.40625 31.78125 66.40625 
z
M 31.78125 74.21875 
Q 44.046875 74.21875 50.515625 64.515625 
Q 56.984375 54.828125 56.984375 36.375 
Q 56.984375 17.96875 50.515625 8.265625 
Q 44.046875 -1.421875 31.78125 -1.421875 
Q 19.53125 -1.421875 13.0625 8.265625 
Q 6.59375 17.96875 6.59375 36.375 
Q 6.59375 54.828125 13.0625 64.515625 
Q 19.53125 74.21875 31.78125 74.21875 
z
" id="DejaVuSans-48"/>
       <path d="M 10.6875 12.40625 
L 21 12.40625 
L 21 0 
L 10.6875 0 
z
" id="DejaVuSans-46"/>
      </defs>
      <g transform="translate(21.417188 202.798438)scale(0.1 -0.1)">
       <use xlink:href="#DejaVuSans-48"/>
       <use x="63.623047" xlink:href="#DejaVuSans-46"/>
       <use x="95.410156" xlink:href="#DejaVuSans-48"/>
       <use x="159.033203" xlink:href="#DejaVuSans-48"/>
      </g>
     </g>
    </g>
    <g id="xtick_2">
     <g id="line2d_2">
      <g>
       <use style="stroke:#000000;stroke-width:0.8;" x="88.732812" xlink:href="#m28852b8eab" y="188.2"/>
      </g>
     </g>
     <g id="text_2">
      <!-- 0.25 -->
      <defs>
       <path d="M 19.1875 8.296875 
L 53.609375 8.296875 
L 53.609375 0 
L 7.328125 0 
L 7.328125 8.296875 
Q 12.9375 14.109375 22.625 23.890625 
Q 32.328125 33.6875 34.8125 36.53125 
Q 39.546875 41.84375 41.421875 45.53125 
Q 43.3125 49.21875 43.3125 52.78125 
Q 43.3125 58.59375 39.234375 62.25 
Q 35.15625 65.921875 28.609375 65.921875 
Q 23.96875 65.921875 18.8125 64.3125 
Q 13.671875 62.703125 7.8125 59.421875 
L 7.8125 69.390625 
Q 13.765625 71.78125 18.9375 73 
Q 24.125 74.21875 28.421875 74.21875 
Q 39.75 74.21875 46.484375 68.546875 
Q 53.21875 62.890625 53.21875 53.421875 
Q 53.21875 48.921875 51.53125 44.890625 
Q 49.859375 40.875 45.40625 35.40625 
Q 44.1875 33.984375 37.640625 27.21875 
Q 31.109375 20.453125 19.1875 8.296875 
z
" id="DejaVuSans-50"/>
       <path d="M 10.796875 72.90625 
L 49.515625 72.90625 
L 49.515625 64.59375 
L 19.828125 64.59375 
L 19.828125 46.734375 
Q 21.96875 47.46875 24.109375 47.828125 
Q 26.265625 48.1875 28.421875 48.1875 
Q 40.625 48.1875 47.75 41.5 
Q 54.890625 34.8125 54.890625 23.390625 
Q 54.890625 11.625 47.5625 5.09375 
Q 40.234375 -1.421875 26.90625 -1.421875 
Q 22.3125 -1.421875 17.546875 -0.640625 
Q 12.796875 0.140625 7.71875 1.703125 
L 7.71875 11.625 
Q 12.109375 9.234375 16.796875 8.0625 
Q 21.484375 6.890625 26.703125 6.890625 
Q 35.15625 6.890625 40.078125 11.328125 
Q 45.015625 15.765625 45.015625 23.390625 
Q 45.015625 31 40.078125 35.4375 
Q 35.15625 39.890625 26.703125 39.890625 
Q 22.75 39.890625 18.8125 39.015625 
Q 14.890625 38.140625 10.796875 36.28125 
z
" id="DejaVuSans-53"/>
      </defs>
      <g transform="translate(77.6 202.798438)scale(0.1 -0.1)">
       <use xlink:href="#DejaVuSans-48"/>
       <use x="63.623047" xlink:href="#DejaVuSans-46"/>
       <use x="95.410156" xlink:href="#DejaVuSans-50"/>
       <use x="159.033203" xlink:href="#DejaVuSans-53"/>
      </g>
     </g>
    </g>
    <g id="xtick_3">
     <g id="line2d_3">
      <g>
       <use style="stroke:#000000;stroke-width:0.8;" x="144.915625" xlink:href="#m28852b8eab" y="188.2"/>
      </g>
     </g>
     <g id="text_3">
      <!-- 0.50 -->
      <g transform="translate(133.782813 202.798438)scale(0.1 -0.1)">
       <use xlink:href="#DejaVuSans-48"/>
       <use x="63.623047" xlink:href="#DejaVuSans-46"/>
       <use x="95.410156" xlink:href="#DejaVuSans-53"/>
       <use x="159.033203" xlink:href="#DejaVuSans-48"/>
      </g>
     </g>
    </g>
    <g id="xtick_4">
     <g id="line2d_4">
      <g>
       <use style="stroke:#000000;stroke-width:0.8;" x="201.098437" xlink:href="#m28852b8eab" y="188.2"/>
      </g>
     </g>
     <g id="text_4">
      <!-- 0.75 -->
      <defs>
       <path d="M 8.203125 72.90625 
L 55.078125 72.90625 
L 55.078125 68.703125 
L 28.609375 0 
L 18.3125 0 
L 43.21875 64.59375 
L 8.203125 64.59375 
z
" id="DejaVuSans-55"/>
      </defs>
      <g transform="translate(189.965625 202.798438)scale(0.1 -0.1)">
       <use xlink:href="#DejaVuSans-48"/>
       <use x="63.623047" xlink:href="#DejaVuSans-46"/>
       <use x="95.410156" xlink:href="#DejaVuSans-55"/>
       <use x="159.033203" xlink:href="#DejaVuSans-53"/>
      </g>
     </g>
    </g>
    <g id="xtick_5">
     <g id="line2d_5">
      <g>
       <use style="stroke:#000000;stroke-width:0.8;" x="257.28125" xlink:href="#m28852b8eab" y="188.2"/>
      </g>
     </g>
     <g id="text_5">
      <!-- 1.00 -->
      <defs>
       <path d="M 12.40625 8.296875 
L 28.515625 8.296875 
L 28.515625 63.921875 
L 10.984375 60.40625 
L 10.984375 69.390625 
L 28.421875 72.90625 
L 38.28125 72.90625 
L 38.28125 8.296875 
L 54.390625 8.296875 
L 54.390625 0 
L 12.40625 0 
z
" id="DejaVuSans-49"/>
      </defs>
      <g transform="translate(246.148438 202.798438)scale(0.1 -0.1)">
       <use xlink:href="#DejaVuSans-49"/>
       <use x="63.623047" xlink:href="#DejaVuSans-46"/>
       <use x="95.410156" xlink:href="#DejaVuSans-48"/>
       <use x="159.033203" xlink:href="#DejaVuSans-48"/>
      </g>
     </g>
    </g>
    <g id="xtick_6">
     <g id="line2d_6">
      <g>
       <use style="stroke:#000000;stroke-width:0.8;" x="313.464063" xlink:href="#m28852b8eab" y="188.2"/>
      </g>
     </g>
     <g id="text_6">
      <!-- 1.25 -->
      <g transform="translate(302.33125 202.798438)scale(0.1 -0.1)">
       <use xlink:href="#DejaVuSans-49"/>
       <use x="63.623047" xlink:href="#DejaVuSans-46"/>
       <use x="95.410156" xlink:href="#DejaVuSans-50"/>
       <use x="159.033203" xlink:href="#DejaVuSans-53"/>
      </g>
     </g>
    </g>
    <g id="xtick_7">
     <g id="line2d_7">
      <g>
       <use style="stroke:#000000;stroke-width:0.8;" x="369.646875" xlink:href="#m28852b8eab" y="188.2"/>
      </g>
     </g>
     <g id="text_7">
      <!-- 1.50 -->
      <g transform="translate(358.514062 202.798438)scale(0.1 -0.1)">
       <use xlink:href="#DejaVuSans-49"/>
       <use x="63.623047" xlink:href="#DejaVuSans-46"/>
       <use x="95.410156" xlink:href="#DejaVuSans-53"/>
       <use x="159.033203" xlink:href="#DejaVuSans-48"/>
      </g>
     </g>
    </g>
    <g id="xtick_8">
     <g id="line2d_8">
      <g>
       <use style="stroke:#000000;stroke-width:0.8;" x="425.829687" xlink:href="#m28852b8eab" y="188.2"/>
      </g>
     </g>
     <g id="text_8">
      <!-- 1.75 -->
      <g transform="translate(414.696875 202.798438)scale(0.1 -0.1)">
       <use xlink:href="#DejaVuSans-49"/>
       <use x="63.623047" xlink:href="#DejaVuSans-46"/>
       <use x="95.410156" xlink:href="#DejaVuSans-55"/>
       <use x="159.033203" xlink:href="#DejaVuSans-53"/>
      </g>
     </g>
    </g>
    <g id="xtick_9">
     <g id="line2d_9">
      <g>
       <use style="stroke:#000000;stroke-width:0.8;" x="482.0125" xlink:href="#m28852b8eab" y="188.2"/>
      </g>
     </g>
     <g id="text_9">
      <!-- 2.00 -->
      <g transform="translate(470.879687 202.798438)scale(0.1 -0.1)">
       <use xlink:href="#DejaVuSans-50"/>
       <use x="63.623047" xlink:href="#DejaVuSans-46"/>
       <use x="95.410156" xlink:href="#DejaVuSans-48"/>
       <use x="159.033203" xlink:href="#DejaVuSans-48"/>
      </g>
     </g>
    </g>
   </g>
   <g id="matplotlib.axis_2">
    <g id="ytick_1">
     <g id="line2d_10">
      <defs>
       <path d="M 0 0 
L -3.5 0 
" id="ma2a92bf3a6" style="stroke:#000000;stroke-width:0.8;"/>
      </defs>
      <g>
       <use style="stroke:#000000;stroke-width:0.8;" x="32.55" xlink:href="#ma2a92bf3a6" y="188.2"/>
      </g>
     </g>
     <g id="text_10">
      <!-- −4 -->
      <defs>
       <path d="M 10.59375 35.5 
L 73.1875 35.5 
L 73.1875 27.203125 
L 10.59375 27.203125 
z
" id="DejaVuSans-8722"/>
       <path d="M 37.796875 64.3125 
L 12.890625 25.390625 
L 37.796875 25.390625 
z
M 35.203125 72.90625 
L 47.609375 72.90625 
L 47.609375 25.390625 
L 58.015625 25.390625 
L 58.015625 17.1875 
L 47.609375 17.1875 
L 47.609375 0 
L 37.796875 0 
L 37.796875 17.1875 
L 4.890625 17.1875 
L 4.890625 26.703125 
z
" id="DejaVuSans-52"/>
      </defs>
      <g transform="translate(10.807813 191.999219)scale(0.1 -0.1)">
       <use xlink:href="#DejaVuSans-8722"/>
       <use x="83.789062" xlink:href="#DejaVuSans-52"/>
      </g>
     </g>
    </g>
    <g id="ytick_2">
     <g id="line2d_11">
      <g>
       <use style="stroke:#000000;stroke-width:0.8;" x="32.55" xlink:href="#ma2a92bf3a6" y="166.525"/>
      </g>
     </g>
     <g id="text_11">
      <!-- −3 -->
      <defs>
       <path d="M 40.578125 39.3125 
Q 47.65625 37.796875 51.625 33 
Q 55.609375 28.21875 55.609375 21.1875 
Q 55.609375 10.40625 48.1875 4.484375 
Q 40.765625 -1.421875 27.09375 -1.421875 
Q 22.515625 -1.421875 17.65625 -0.515625 
Q 12.796875 0.390625 7.625 2.203125 
L 7.625 11.71875 
Q 11.71875 9.328125 16.59375 8.109375 
Q 21.484375 6.890625 26.8125 6.890625 
Q 36.078125 6.890625 40.9375 10.546875 
Q 45.796875 14.203125 45.796875 21.1875 
Q 45.796875 27.640625 41.28125 31.265625 
Q 36.765625 34.90625 28.71875 34.90625 
L 20.21875 34.90625 
L 20.21875 43.015625 
L 29.109375 43.015625 
Q 36.375 43.015625 40.234375 45.921875 
Q 44.09375 48.828125 44.09375 54.296875 
Q 44.09375 59.90625 40.109375 62.90625 
Q 36.140625 65.921875 28.71875 65.921875 
Q 24.65625 65.921875 20.015625 65.03125 
Q 15.375 64.15625 9.8125 62.3125 
L 9.8125 71.09375 
Q 15.4375 72.65625 20.34375 73.4375 
Q 25.25 74.21875 29.59375 74.21875 
Q 40.828125 74.21875 47.359375 69.109375 
Q 53.90625 64.015625 53.90625 55.328125 
Q 53.90625 49.265625 50.4375 45.09375 
Q 46.96875 40.921875 40.578125 39.3125 
z
" id="DejaVuSans-51"/>
      </defs>
      <g transform="translate(10.807813 170.324219)scale(0.1 -0.1)">
       <use xlink:href="#DejaVuSans-8722"/>
       <use x="83.789062" xlink:href="#DejaVuSans-51"/>
      </g>
     </g>
    </g>
    <g id="ytick_3">
     <g id="line2d_12">
      <g>
       <use style="stroke:#000000;stroke-width:0.8;" x="32.55" xlink:href="#ma2a92bf3a6" y="144.85"/>
      </g>
     </g>
     <g id="text_12">
      <!-- −2 -->
      <g transform="translate(10.807813 148.649219)scale(0.1 -0.1)">
       <use xlink:href="#DejaVuSans-8722"/>
       <use x="83.789062" xlink:href="#DejaVuSans-50"/>
      </g>
     </g>
    </g>
    <g id="ytick_4">
     <g id="line2d_13">
      <g>
       <use style="stroke:#000000;stroke-width:0.8;" x="32.55" xlink:href="#ma2a92bf3a6" y="123.175"/>
      </g>
     </g>
     <g id="text_13">
      <!-- −1 -->
      <g transform="translate(10.807813 126.974219)scale(0.1 -0.1)">
       <use xlink:href="#DejaVuSans-8722"/>
       <use x="83.789062" xlink:href="#DejaVuSans-49"/>
      </g>
     </g>
    </g>
    <g id="ytick_5">
     <g id="line2d_14">
      <g>
       <use style="stroke:#000000;stroke-width:0.8;" x="32.55" xlink:href="#ma2a92bf3a6" y="101.5"/>
      </g>
     </g>
     <g id="text_14">
      <!-- 0 -->
      <g transform="translate(19.1875 105.299219)scale(0.1 -0.1)">
       <use xlink:href="#DejaVuSans-48"/>
      </g>
     </g>
    </g>
    <g id="ytick_6">
     <g id="line2d_15">
      <g>
       <use style="stroke:#000000;stroke-width:0.8;" x="32.55" xlink:href="#ma2a92bf3a6" y="79.825"/>
      </g>
     </g>
     <g id="text_15">
      <!-- 1 -->
      <g transform="translate(19.1875 83.624219)scale(0.1 -0.1)">
       <use xlink:href="#DejaVuSans-49"/>
      </g>
     </g>
    </g>
    <g id="ytick_7">
     <g id="line2d_16">
      <g>
       <use style="stroke:#000000;stroke-width:0.8;" x="32.55" xlink:href="#ma2a92bf3a6" y="58.15"/>
      </g>
     </g>
     <g id="text_16">
      <!-- 2 -->
      <g transform="translate(19.1875 61.949219)scale(0.1 -0.1)">
       <use xlink:href="#DejaVuSans-50"/>
      </g>
     </g>
    </g>
    <g id="ytick_8">
     <g id="line2d_17">
      <g>
       <use style="stroke:#000000;stroke-width:0.8;" x="32.55" xlink:href="#ma2a92bf3a6" y="36.475"/>
      </g>
     </g>
     <g id="text_17">
      <!-- 3 -->
      <g transform="translate(19.1875 40.274219)scale(0.1 -0.1)">
       <use xlink:href="#DejaVuSans-51"/>
      </g>
     </g>
    </g>
    <g id="ytick_9">
     <g id="line2d_18">
      <g>
       <use style="stroke:#000000;stroke-width:0.8;" x="32.55" xlink:href="#ma2a92bf3a6" y="14.8"/>
      </g>
     </g>
     <g id="text_18">
      <!-- 4 -->
      <g transform="translate(19.1875 18.599219)scale(0.1 -0.1)">
       <use xlink:href="#DejaVuSans-52"/>
      </g>
     </g>
    </g>
   </g>
   <g id="line2d_19">
    <path clip-path="url(#pc525e2f514)" d="M 32.55 101.5 
L 37.090025 99.123802 
L 41.630051 96.749996 
L 46.170076 94.380974 
L 50.710101 92.019119 
L 55.250126 89.666811 
L 59.790152 87.326419 
L 64.330177 85.000297 
L 68.870202 82.69079 
L 73.410227 80.400221 
L 77.950253 78.130899 
L 82.490278 75.885107 
L 87.030303 73.665107 
L 91.570328 71.473135 
L 96.110354 69.311397 
L 100.650379 67.18207 
L 105.190404 65.087299 
L 109.730429 63.029192 
L 114.270455 61.009821 
L 118.81048 59.031221 
L 123.350505 57.095384 
L 127.89053 55.204258 
L 132.430556 53.359748 
L 136.970581 51.563711 
L 141.510606 49.817956 
L 146.050631 48.12424 
L 150.590657 46.48427 
L 155.130682 44.899695 
L 159.670707 43.372112 
L 164.210732 41.903059 
L 168.750758 40.494015 
L 173.290783 39.146399 
L 177.830808 37.861567 
L 182.370833 36.640814 
L 186.910859 35.485369 
L 191.450884 34.396395 
L 195.990909 33.374988 
L 200.530934 32.422178 
L 205.07096 31.538923 
L 209.610985 30.726113 
L 214.15101 29.984567 
L 218.691035 29.31503 
L 223.231061 28.718178 
L 227.771086 28.19461 
L 232.311111 27.744855 
L 236.851136 27.369365 
L 241.391162 27.068519 
L 245.931187 26.842618 
L 250.471212 26.691892 
L 255.011237 26.61649 
L 259.551263 26.61649 
L 264.091288 26.691892 
L 268.631313 26.842618 
L 273.171338 27.068519 
L 277.711364 27.369365 
L 282.251389 27.744855 
L 286.791414 28.19461 
L 291.331439 28.718178 
L 295.871465 29.31503 
L 300.41149 29.984567 
L 304.951515 30.726113 
L 309.49154 31.538923 
L 314.031566 32.422178 
L 318.571591 33.374988 
L 323.111616 34.396395 
L 327.651641 35.485369 
L 332.191667 36.640814 
L 336.731692 37.861567 
L 341.271717 39.146399 
L 345.811742 40.494015 
L 350.351768 41.903059 
L 354.891793 43.372112 
L 359.431818 44.899695 
L 363.971843 46.48427 
L 368.511869 48.12424 
L 373.051894 49.817956 
L 377.591919 51.563711 
L 382.131944 53.359748 
L 386.67197 55.204258 
L 391.211995 57.095384 
L 395.75202 59.031221 
L 400.292045 61.009821 
L 404.832071 63.029192 
L 409.372096 65.087299 
L 413.912121 67.18207 
L 418.452146 69.311397 
L 422.992172 71.473135 
L 427.532197 73.665107 
L 432.072222 75.885107 
L 436.612247 78.130899 
L 441.152273 80.400221 
L 445.692298 82.69079 
L 450.232323 85.000297 
L 454.772348 87.326419 
L 459.312374 89.666811 
L 463.852399 92.019119 
L 468.392424 94.380974 
L 472.932449 96.749996 
L 477.472475 99.123802 
L 482.0125 101.5 
" style="fill:none;stroke:#0000ff;stroke-linecap:square;stroke-width:2;"/>
   </g>
   <g id="line2d_20">
    <path clip-path="url(#pc525e2f514)" d="M 32.55 101.5 
L 37.090025 100.145611 
L 41.630051 98.792586 
L 46.170076 97.442287 
L 50.710101 96.096073 
L 55.250126 94.755301 
L 59.790152 93.421321 
L 64.330177 92.095475 
L 68.870202 90.779098 
L 73.410227 89.473516 
L 77.950253 88.180045 
L 82.490278 86.899985 
L 87.030303 85.634626 
L 91.570328 84.385242 
L 96.110354 83.153092 
L 100.650379 81.939415 
L 105.190404 80.745434 
L 109.730429 79.572351 
L 114.270455 78.421347 
L 118.81048 77.293582 
L 123.350505 76.19019 
L 127.89053 75.112283 
L 132.430556 74.060947 
L 136.970581 73.037239 
L 141.510606 72.042191 
L 146.050631 71.076804 
L 150.590657 70.142051 
L 155.130682 69.238873 
L 159.670707 68.368179 
L 164.210732 67.530846 
L 168.750758 66.727717 
L 173.290783 65.9596 
L 177.830808 65.22727 
L 182.370833 64.531464 
L 186.910859 63.872881 
L 191.450884 63.252186 
L 195.990909 62.670003 
L 200.530934 62.126919 
L 205.07096 61.62348 
L 209.610985 61.160194 
L 214.15101 60.737526 
L 218.691035 60.355902 
L 223.231061 60.015707 
L 227.771086 59.717284 
L 232.311111 59.460932 
L 236.851136 59.246909 
L 241.391162 59.075432 
L 245.931187 58.946673 
L 250.471212 58.860762 
L 255.011237 58.817784 
L 259.551263 58.817784 
L 264.091288 58.860762 
L 268.631313 58.946673 
L 273.171338 59.075432 
L 277.711364 59.246909 
L 282.251389 59.460932 
L 286.791414 59.717284 
L 291.331439 60.015707 
L 295.871465 60.355902 
L 300.41149 60.737526 
L 304.951515 61.160194 
L 309.49154 61.62348 
L 314.031566 62.126919 
L 318.571591 62.670003 
L 323.111616 63.252186 
L 327.651641 63.872881 
L 332.191667 64.531464 
L 336.731692 65.22727 
L 341.271717 65.9596 
L 345.811742 66.727717 
L 350.351768 67.530846 
L 354.891793 68.368179 
L 359.431818 69.238873 
L 363.971843 70.142051 
L 368.511869 71.076804 
L 373.051894 72.042191 
L 377.591919 73.037239 
L 382.131944 74.060947 
L 386.67197 75.112283 
L 391.211995 76.19019 
L 395.75202 77.293582 
L 400.292045 78.421347 
L 404.832071 79.572351 
L 409.372096 80.745434 
L 413.912121 81.939415 
L 418.452146 83.153092 
L 422.992172 84.385242 
L 427.532197 85.634626 
L 432.072222 86.899985 
L 436.612247 88.180045 
L 441.152273 89.473516 
L 445.692298 90.779098 
L 450.232323 92.095475 
L 454.772348 93.421321 
L 459.312374 94.755301 
L 463.852399 96.096073 
L 468.392424 97.442287 
L 472.932449 98.792586 
L 477.472475 100.145611 
L 482.0125 101.5 
" style="fill:none;stroke:#0000ff;stroke-linecap:square;stroke-opacity:0.6;stroke-width:2;"/>
   </g>
   <g id="line2d_21">
    <path clip-path="url(#pc525e2f514)" d="M 32.55 101.5 
L 37.090025 101.53631 
L 41.630051 101.572583 
L 46.170076 101.608783 
L 50.710101 101.644873 
L 55.250126 101.680817 
L 59.790152 101.71658 
L 64.330177 101.752124 
L 68.870202 101.787415 
L 73.410227 101.822416 
L 77.950253 101.857092 
L 82.490278 101.891409 
L 87.030303 101.925332 
L 91.570328 101.958827 
L 96.110354 101.991859 
L 100.650379 102.024396 
L 105.190404 102.056406 
L 109.730429 102.087855 
L 114.270455 102.118712 
L 118.81048 102.148946 
L 123.350505 102.178526 
L 127.89053 102.207424 
L 132.430556 102.235609 
L 136.970581 102.263053 
L 141.510606 102.289729 
L 146.050631 102.31561 
L 150.590657 102.34067 
L 155.130682 102.364883 
L 159.670707 102.388225 
L 164.210732 102.410673 
L 168.750758 102.432204 
L 173.290783 102.452796 
L 177.830808 102.472429 
L 182.370833 102.491083 
L 186.910859 102.508739 
L 191.450884 102.525379 
L 195.990909 102.540987 
L 200.530934 102.555546 
L 205.07096 102.569043 
L 209.610985 102.581463 
L 214.15101 102.592794 
L 218.691035 102.603025 
L 223.231061 102.612145 
L 227.771086 102.620146 
L 232.311111 102.627018 
L 236.851136 102.632756 
L 241.391162 102.637353 
L 245.931187 102.640805 
L 250.471212 102.643108 
L 255.011237 102.64426 
L 259.551263 102.64426 
L 264.091288 102.643108 
L 268.631313 102.640805 
L 273.171338 102.637353 
L 277.711364 102.632756 
L 282.251389 102.627018 
L 286.791414 102.620146 
L 291.331439 102.612145 
L 295.871465 102.603025 
L 300.41149 102.592794 
L 304.951515 102.581463 
L 309.49154 102.569043 
L 314.031566 102.555546 
L 318.571591 102.540987 
L 323.111616 102.525379 
L 327.651641 102.508739 
L 332.191667 102.491083 
L 336.731692 102.472429 
L 341.271717 102.452796 
L 345.811742 102.432204 
L 350.351768 102.410673 
L 354.891793 102.388225 
L 359.431818 102.364883 
L 363.971843 102.34067 
L 368.511869 102.31561 
L 373.051894 102.289729 
L 377.591919 102.263053 
L 382.131944 102.235609 
L 386.67197 102.207424 
L 391.211995 102.178526 
L 395.75202 102.148946 
L 400.292045 102.118712 
L 404.832071 102.087855 
L 409.372096 102.056406 
L 413.912121 102.024396 
L 418.452146 101.991859 
L 422.992172 101.958827 
L 427.532197 101.925332 
L 432.072222 101.891409 
L 436.612247 101.857092 
L 441.152273 101.822416 
L 445.692298 101.787415 
L 450.232323 101.752124 
L 454.772348 101.71658 
L 459.312374 101.680817 
L 463.852399 101.644873 
L 468.392424 101.608783 
L 472.932449 101.572583 
L 477.472475 101.53631 
L 482.0125 101.5 
" style="fill:none;stroke:#0000ff;stroke-linecap:square;stroke-opacity:0.4;stroke-width:2;"/>
   </g>
   <g id="line2d_22">
    <path clip-path="url(#pc525e2f514)" d="M 32.55 101.5 
L 37.090025 102.917119 
L 41.630051 104.33281 
L 46.170076 105.74565 
L 50.710101 107.154214 
L 55.250126 108.557085 
L 59.790152 109.95285 
L 64.330177 111.340104 
L 68.870202 112.71745 
L 73.410227 114.0835 
L 77.950253 115.43688 
L 82.490278 116.776227 
L 87.030303 118.100192 
L 91.570328 119.407442 
L 96.110354 120.696661 
L 100.650379 121.96655 
L 105.190404 123.215832 
L 109.730429 124.443247 
L 114.270455 125.64756 
L 118.81048 126.827559 
L 123.350505 127.982055 
L 127.89053 129.109886 
L 132.430556 130.209916 
L 136.970581 131.281038 
L 141.510606 132.322172 
L 146.050631 133.332272 
L 150.590657 134.310319 
L 155.130682 135.255328 
L 159.670707 136.166349 
L 164.210732 137.042464 
L 168.750758 137.882791 
L 173.290783 138.686483 
L 177.830808 139.452732 
L 182.370833 140.180765 
L 186.910859 140.86985 
L 191.450884 141.519293 
L 195.990909 142.12844 
L 200.530934 142.696678 
L 205.07096 143.223434 
L 209.610985 143.708178 
L 214.15101 144.150422 
L 218.691035 144.549721 
L 223.231061 144.905672 
L 227.771086 145.217918 
L 232.311111 145.486143 
L 236.851136 145.710078 
L 241.391162 145.889497 
L 245.931187 146.02422 
L 250.471212 146.11411 
L 255.011237 146.159078 
L 259.551263 146.159078 
L 264.091288 146.11411 
L 268.631313 146.02422 
L 273.171338 145.889497 
L 277.711364 145.710078 
L 282.251389 145.486143 
L 286.791414 145.217918 
L 291.331439 144.905672 
L 295.871465 144.549721 
L 300.41149 144.150422 
L 304.951515 143.708178 
L 309.49154 143.223434 
L 314.031566 142.696678 
L 318.571591 142.12844 
L 323.111616 141.519293 
L 327.651641 140.86985 
L 332.191667 140.180765 
L 336.731692 139.452732 
L 341.271717 138.686483 
L 345.811742 137.882791 
L 350.351768 137.042464 
L 354.891793 136.166349 
L 359.431818 135.255328 
L 363.971843 134.310319 
L 368.511869 133.332272 
L 373.051894 132.322172 
L 377.591919 131.281038 
L 382.131944 130.209916 
L 386.67197 129.109886 
L 391.211995 127.982055 
L 395.75202 126.827559 
L 400.292045 125.64756 
L 404.832071 124.443247 
L 409.372096 123.215832 
L 413.912121 121.96655 
L 418.452146 120.696661 
L 422.992172 119.407442 
L 427.532197 118.100192 
L 432.072222 116.776227 
L 436.612247 115.43688 
L 441.152273 114.0835 
L 445.692298 112.71745 
L 450.232323 111.340104 
L 454.772348 109.95285 
L 459.312374 108.557085 
L 463.852399 107.154214 
L 468.392424 105.74565 
L 472.932449 104.33281 
L 477.472475 102.917119 
L 482.0125 101.5 
" style="fill:none;stroke:#0000ff;stroke-linecap:square;stroke-opacity:0.2;stroke-width:2;"/>
   </g>
   <g id="line2d_23">
    <path clip-path="url(#pc525e2f514)" d="M 32.55 101.5 
L 37.090025 103.911953 
L 41.630051 106.321477 
L 46.170076 108.726147 
L 50.710101 111.12354 
L 55.250126 113.511243 
L 59.790152 115.886852 
L 64.330177 118.247974 
L 68.870202 120.592233 
L 73.410227 122.917268 
L 77.950253 125.220737 
L 82.490278 127.500321 
L 87.030303 129.753726 
L 91.570328 131.978681 
L 96.110354 134.172946 
L 100.650379 136.334313 
L 105.190404 138.460605 
L 109.730429 140.54968 
L 114.270455 142.599436 
L 118.81048 144.607808 
L 123.350505 146.572774 
L 127.89053 148.492356 
L 132.430556 150.36462 
L 136.970581 152.187682 
L 141.510606 153.959706 
L 146.050631 155.678907 
L 150.590657 157.343554 
L 155.130682 158.951972 
L 159.670707 160.502541 
L 164.210732 161.993699 
L 168.750758 163.423945 
L 173.290783 164.791839 
L 177.830808 166.096003 
L 182.370833 167.335125 
L 186.910859 168.507956 
L 191.450884 169.613316 
L 195.990909 170.650091 
L 200.530934 171.617239 
L 205.07096 172.513784 
L 209.610985 173.338824 
L 214.15101 174.091529 
L 218.691035 174.77114 
L 223.231061 175.376973 
L 227.771086 175.908419 
L 232.311111 176.364941 
L 236.851136 176.746081 
L 241.391162 177.051455 
L 245.931187 177.280754 
L 250.471212 177.433749 
L 255.011237 177.510285 
L 259.551263 177.510285 
L 264.091288 177.433749 
L 268.631313 177.280754 
L 273.171338 177.051455 
L 277.711364 176.746081 
L 282.251389 176.364941 
L 286.791414 175.908419 
L 291.331439 175.376973 
L 295.871465 174.77114 
L 300.41149 174.091529 
L 304.951515 173.338824 
L 309.49154 172.513784 
L 314.031566 171.617239 
L 318.571591 170.650091 
L 323.111616 169.613316 
L 327.651641 168.507956 
L 332.191667 167.335125 
L 336.731692 166.096003 
L 341.271717 164.791839 
L 345.811742 163.423945 
L 350.351768 161.993699 
L 354.891793 160.502541 
L 359.431818 158.951972 
L 363.971843 157.343554 
L 368.511869 155.678907 
L 373.051894 153.959706 
L 377.591919 152.187682 
L 382.131944 150.36462 
L 386.67197 148.492356 
L 391.211995 146.572774 
L 395.75202 144.607808 
L 400.292045 142.599436 
L 404.832071 140.54968 
L 409.372096 138.460605 
L 413.912121 136.334313 
L 418.452146 134.172946 
L 422.992172 131.978681 
L 427.532197 129.753726 
L 432.072222 127.500321 
L 436.612247 125.220737 
L 441.152273 122.917268 
L 445.692298 120.592233 
L 450.232323 118.247974 
L 454.772348 115.886852 
L 459.312374 113.511243 
L 463.852399 111.12354 
L 468.392424 108.726147 
L 472.932449 106.321477 
L 477.472475 103.911953 
L 482.0125 101.5 
" style="fill:none;stroke:#0000ff;stroke-linecap:square;stroke-opacity:0.1;stroke-width:2;"/>
   </g>
   <g id="line2d_24">
    <path clip-path="url(#pc525e2f514)" d="M 257.28125 188.2 
L 257.28125 14.8 
" style="fill:none;stroke:#0000ff;stroke-dasharray:1.85,0.8;stroke-dashoffset:0;stroke-width:0.5;"/>
   </g>
   <g id="patch_3">
    <path d="M 32.55 188.2 
L 32.55 14.8 
" style="fill:none;stroke:#000000;stroke-linecap:square;stroke-linejoin:miter;stroke-width:0.8;"/>
   </g>
   <g id="patch_4">
    <path d="M 482.0125 188.2 
L 482.0125 14.8 
" style="fill:none;stroke:#000000;stroke-linecap:square;stroke-linejoin:miter;stroke-width:0.8;"/>
   </g>
   <g id="patch_5">
    <path d="M 32.55 188.2 
L 482.0125 188.2 
" style="fill:none;stroke:#000000;stroke-linecap:square;stroke-linejoin:miter;stroke-width:0.8;"/>
   </g>
   <g id="patch_6">
    <path d="M 32.55 14.8 
L 482.0125 14.8 
" style="fill:none;stroke:#000000;stroke-linecap:square;stroke-linejoin:miter;stroke-width:0.8;"/>
   </g>
   <g id="text_19">
    <g id="patch_7">
     <path d="M 252.150781 178.283594 
L 262.411719 178.283594 
Q 266.911719 178.283594 266.911719 173.783594 
L 266.911719 159.266406 
Q 266.911719 154.766406 262.411719 154.766406 
L 252.150781 154.766406 
Q 247.650781 154.766406 247.650781 159.266406 
L 247.650781 173.783594 
Q 247.650781 178.283594 252.150781 178.283594 
z
" style="fill:#ffffff;stroke:#ffffff;stroke-linejoin:miter;stroke-width:2;"/>
    </g>
    <!-- A -->
    <defs>
     <path d="M 34.1875 63.1875 
L 20.796875 26.90625 
L 47.609375 26.90625 
z
M 28.609375 72.90625 
L 39.796875 72.90625 
L 67.578125 0 
L 57.328125 0 
L 50.6875 18.703125 
L 17.828125 18.703125 
L 11.1875 0 
L 0.78125 0 
z
" id="DejaVuSans-65"/>
    </defs>
    <g transform="translate(252.150781 170.664062)scale(0.15 -0.15)">
     <use xlink:href="#DejaVuSans-65"/>
    </g>
   </g>
  </g>
 </g>
 <defs>
  <clipPath id="pc525e2f514">
   <rect height="173.4" width="449.4625" x="32.55" y="14.8"/>
  </clipPath>
 </defs>
</svg>
