<?xml version="1.0" encoding="utf-8" standalone="no"?>
<!DOCTYPE svg PUBLIC "-//W3C//DTD SVG 1.1//EN"
  "http://www.w3.org/Graphics/SVG/1.1/DTD/svg11.dtd">
<!-- Created with matplotlib (https://matplotlib.org/) -->
<svg height="360pt" version="1.1" viewBox="0 0 504 360" width="504pt" xmlns="http://www.w3.org/2000/svg" xmlns:xlink="http://www.w3.org/1999/xlink">
 <defs>
  <style type="text/css">
*{stroke-linecap:butt;stroke-linejoin:round;}
  </style>
 </defs>
 <g id="figure_1">
  <g id="patch_1">
   <path d="M 0 360 
L 504 360 
L 504 0 
L 0 0 
z
" style="fill:none;"/>
  </g>
  <g id="axes_1">
   <g id="patch_2">
    <path d="M 50.8 315.2 
L 481.215909 315.2 
L 481.215909 10.8 
L 50.8 10.8 
z
" style="fill:none;"/>
   </g>
   <g id="matplotlib.axis_1">
    <g id="xtick_1">
     <g id="line2d_1">
      <defs>
       <path d="M 0 0 
L 0 3.5 
" id="md1efb6481c" style="stroke:#000000;stroke-width:0.8;"/>
      </defs>
      <g>
       <use style="stroke:#000000;stroke-width:0.8;" x="70.36436" xlink:href="#md1efb6481c" y="315.2"/>
      </g>
     </g>
     <g id="text_1">
      <!-- −2.0 -->
      <defs>
       <path d="M 10.59375 35.5 
L 73.1875 35.5 
L 73.1875 27.203125 
L 10.59375 27.203125 
z
" id="DejaVuSans-8722"/>
       <path d="M 19.1875 8.296875 
L 53.609375 8.296875 
L 53.609375 0 
L 7.328125 0 
L 7.328125 8.296875 
Q 12.9375 14.109375 22.625 23.890625 
Q 32.328125 33.6875 34.8125 36.53125 
Q 39.546875 41.84375 41.421875 45.53125 
Q 43.3125 49.21875 43.3125 52.78125 
Q 43.3125 58.59375 39.234375 62.25 
Q 35.15625 65.921875 28.609375 65.921875 
Q 23.96875 65.921875 18.8125 64.3125 
Q 13.671875 62.703125 7.8125 59.421875 
L 7.8125 69.390625 
Q 13.765625 71.78125 18.9375 73 
Q 24.125 74.21875 28.421875 74.21875 
Q 39.75 74.21875 46.484375 68.546875 
Q 53.21875 62.890625 53.21875 53.421875 
Q 53.21875 48.921875 51.53125 44.890625 
Q 49.859375 40.875 45.40625 35.40625 
Q 44.1875 33.984375 37.640625 27.21875 
Q 31.109375 20.453125 19.1875 8.296875 
z
" id="DejaVuSans-50"/>
       <path d="M 10.6875 12.40625 
L 21 12.40625 
L 21 0 
L 10.6875 0 
z
" id="DejaVuSans-46"/>
       <path d="M 31.78125 66.40625 
Q 24.171875 66.40625 20.328125 58.90625 
Q 16.5 51.421875 16.5 36.375 
Q 16.5 21.390625 20.328125 13.890625 
Q 24.171875 6.390625 31.78125 6.390625 
Q 39.453125 6.390625 43.28125 13.890625 
Q 47.125 21.390625 47.125 36.375 
Q 47.125 51.421875 43.28125 58.90625 
Q 39.453125 66.40625 31.78125 66.40625 
z
M 31.78125 74.21875 
Q 44.046875 74.21875 50.515625 64.515625 
Q 56.984375 54.828125 56.984375 36.375 
Q 56.984375 17.96875 50.515625 8.265625 
Q 44.046875 -1.421875 31.78125 -1.421875 
Q 19.53125 -1.421875 13.0625 8.265625 
Q 6.59375 17.96875 6.59375 36.375 
Q 6.59375 54.828125 13.0625 64.515625 
Q 19.53125 74.21875 31.78125 74.21875 
z
" id="DejaVuSans-48"/>
      </defs>
      <g transform="translate(58.222953 329.798437)scale(0.1 -0.1)">
       <use xlink:href="#DejaVuSans-8722"/>
       <use x="83.789062" xlink:href="#DejaVuSans-50"/>
       <use x="147.412109" xlink:href="#DejaVuSans-46"/>
       <use x="179.199219" xlink:href="#DejaVuSans-48"/>
      </g>
     </g>
    </g>
    <g id="xtick_2">
     <g id="line2d_2">
      <g>
       <use style="stroke:#000000;stroke-width:0.8;" x="119.275258" xlink:href="#md1efb6481c" y="315.2"/>
      </g>
     </g>
     <g id="text_2">
      <!-- −1.5 -->
      <defs>
       <path d="M 12.40625 8.296875 
L 28.515625 8.296875 
L 28.515625 63.921875 
L 10.984375 60.40625 
L 10.984375 69.390625 
L 28.421875 72.90625 
L 38.28125 72.90625 
L 38.28125 8.296875 
L 54.390625 8.296875 
L 54.390625 0 
L 12.40625 0 
z
" id="DejaVuSans-49"/>
       <path d="M 10.796875 72.90625 
L 49.515625 72.90625 
L 49.515625 64.59375 
L 19.828125 64.59375 
L 19.828125 46.734375 
Q 21.96875 47.46875 24.109375 47.828125 
Q 26.265625 48.1875 28.421875 48.1875 
Q 40.625 48.1875 47.75 41.5 
Q 54.890625 34.8125 54.890625 23.390625 
Q 54.890625 11.625 47.5625 5.09375 
Q 40.234375 -1.421875 26.90625 -1.421875 
Q 22.3125 -1.421875 17.546875 -0.640625 
Q 12.796875 0.140625 7.71875 1.703125 
L 7.71875 11.625 
Q 12.109375 9.234375 16.796875 8.0625 
Q 21.484375 6.890625 26.703125 6.890625 
Q 35.15625 6.890625 40.078125 11.328125 
Q 45.015625 15.765625 45.015625 23.390625 
Q 45.015625 31 40.078125 35.4375 
Q 35.15625 39.890625 26.703125 39.890625 
Q 22.75 39.890625 18.8125 39.015625 
Q 14.890625 38.140625 10.796875 36.28125 
z
" id="DejaVuSans-53"/>
      </defs>
      <g transform="translate(107.133852 329.798437)scale(0.1 -0.1)">
       <use xlink:href="#DejaVuSans-8722"/>
       <use x="83.789062" xlink:href="#DejaVuSans-49"/>
       <use x="147.412109" xlink:href="#DejaVuSans-46"/>
       <use x="179.199219" xlink:href="#DejaVuSans-53"/>
      </g>
     </g>
    </g>
    <g id="xtick_3">
     <g id="line2d_3">
      <g>
       <use style="stroke:#000000;stroke-width:0.8;" x="168.186157" xlink:href="#md1efb6481c" y="315.2"/>
      </g>
     </g>
     <g id="text_3">
      <!-- −1.0 -->
      <g transform="translate(156.044751 329.798437)scale(0.1 -0.1)">
       <use xlink:href="#DejaVuSans-8722"/>
       <use x="83.789062" xlink:href="#DejaVuSans-49"/>
       <use x="147.412109" xlink:href="#DejaVuSans-46"/>
       <use x="179.199219" xlink:href="#DejaVuSans-48"/>
      </g>
     </g>
    </g>
    <g id="xtick_4">
     <g id="line2d_4">
      <g>
       <use style="stroke:#000000;stroke-width:0.8;" x="217.097056" xlink:href="#md1efb6481c" y="315.2"/>
      </g>
     </g>
     <g id="text_4">
      <!-- −0.5 -->
      <g transform="translate(204.95565 329.798437)scale(0.1 -0.1)">
       <use xlink:href="#DejaVuSans-8722"/>
       <use x="83.789062" xlink:href="#DejaVuSans-48"/>
       <use x="147.412109" xlink:href="#DejaVuSans-46"/>
       <use x="179.199219" xlink:href="#DejaVuSans-53"/>
      </g>
     </g>
    </g>
    <g id="xtick_5">
     <g id="line2d_5">
      <g>
       <use style="stroke:#000000;stroke-width:0.8;" x="266.007955" xlink:href="#md1efb6481c" y="315.2"/>
      </g>
     </g>
     <g id="text_5">
      <!-- 0.0 -->
      <g transform="translate(258.056392 329.798437)scale(0.1 -0.1)">
       <use xlink:href="#DejaVuSans-48"/>
       <use x="63.623047" xlink:href="#DejaVuSans-46"/>
       <use x="95.410156" xlink:href="#DejaVuSans-48"/>
      </g>
     </g>
    </g>
    <g id="xtick_6">
     <g id="line2d_6">
      <g>
       <use style="stroke:#000000;stroke-width:0.8;" x="314.918853" xlink:href="#md1efb6481c" y="315.2"/>
      </g>
     </g>
     <g id="text_6">
      <!-- 0.5 -->
      <g transform="translate(306.967291 329.798437)scale(0.1 -0.1)">
       <use xlink:href="#DejaVuSans-48"/>
       <use x="63.623047" xlink:href="#DejaVuSans-46"/>
       <use x="95.410156" xlink:href="#DejaVuSans-53"/>
      </g>
     </g>
    </g>
    <g id="xtick_7">
     <g id="line2d_7">
      <g>
       <use style="stroke:#000000;stroke-width:0.8;" x="363.829752" xlink:href="#md1efb6481c" y="315.2"/>
      </g>
     </g>
     <g id="text_7">
      <!-- 1.0 -->
      <g transform="translate(355.87819 329.798437)scale(0.1 -0.1)">
       <use xlink:href="#DejaVuSans-49"/>
       <use x="63.623047" xlink:href="#DejaVuSans-46"/>
       <use x="95.410156" xlink:href="#DejaVuSans-48"/>
      </g>
     </g>
    </g>
    <g id="xtick_8">
     <g id="line2d_8">
      <g>
       <use style="stroke:#000000;stroke-width:0.8;" x="412.740651" xlink:href="#md1efb6481c" y="315.2"/>
      </g>
     </g>
     <g id="text_8">
      <!-- 1.5 -->
      <g transform="translate(404.789088 329.798437)scale(0.1 -0.1)">
       <use xlink:href="#DejaVuSans-49"/>
       <use x="63.623047" xlink:href="#DejaVuSans-46"/>
       <use x="95.410156" xlink:href="#DejaVuSans-53"/>
      </g>
     </g>
    </g>
    <g id="xtick_9">
     <g id="line2d_9">
      <g>
       <use style="stroke:#000000;stroke-width:0.8;" x="461.65155" xlink:href="#md1efb6481c" y="315.2"/>
      </g>
     </g>
     <g id="text_9">
      <!-- 2.0 -->
      <g transform="translate(453.699987 329.798437)scale(0.1 -0.1)">
       <use xlink:href="#DejaVuSans-50"/>
       <use x="63.623047" xlink:href="#DejaVuSans-46"/>
       <use x="95.410156" xlink:href="#DejaVuSans-48"/>
      </g>
     </g>
    </g>
    <g id="text_10">
     <!-- Time, $t$ /s -->
     <defs>
      <path d="M -0.296875 72.90625 
L 61.375 72.90625 
L 61.375 64.59375 
L 35.5 64.59375 
L 35.5 0 
L 25.59375 0 
L 25.59375 64.59375 
L -0.296875 64.59375 
z
" id="DejaVuSans-84"/>
      <path d="M 9.421875 54.6875 
L 18.40625 54.6875 
L 18.40625 0 
L 9.421875 0 
z
M 9.421875 75.984375 
L 18.40625 75.984375 
L 18.40625 64.59375 
L 9.421875 64.59375 
z
" id="DejaVuSans-105"/>
      <path d="M 52 44.1875 
Q 55.375 50.25 60.0625 53.125 
Q 64.75 56 71.09375 56 
Q 79.640625 56 84.28125 50.015625 
Q 88.921875 44.046875 88.921875 33.015625 
L 88.921875 0 
L 79.890625 0 
L 79.890625 32.71875 
Q 79.890625 40.578125 77.09375 44.375 
Q 74.3125 48.1875 68.609375 48.1875 
Q 61.625 48.1875 57.5625 43.546875 
Q 53.515625 38.921875 53.515625 30.90625 
L 53.515625 0 
L 44.484375 0 
L 44.484375 32.71875 
Q 44.484375 40.625 41.703125 44.40625 
Q 38.921875 48.1875 33.109375 48.1875 
Q 26.21875 48.1875 22.15625 43.53125 
Q 18.109375 38.875 18.109375 30.90625 
L 18.109375 0 
L 9.078125 0 
L 9.078125 54.6875 
L 18.109375 54.6875 
L 18.109375 46.1875 
Q 21.1875 51.21875 25.484375 53.609375 
Q 29.78125 56 35.6875 56 
Q 41.65625 56 45.828125 52.96875 
Q 50 49.953125 52 44.1875 
z
" id="DejaVuSans-109"/>
      <path d="M 56.203125 29.59375 
L 56.203125 25.203125 
L 14.890625 25.203125 
Q 15.484375 15.921875 20.484375 11.0625 
Q 25.484375 6.203125 34.421875 6.203125 
Q 39.59375 6.203125 44.453125 7.46875 
Q 49.3125 8.734375 54.109375 11.28125 
L 54.109375 2.78125 
Q 49.265625 0.734375 44.1875 -0.34375 
Q 39.109375 -1.421875 33.890625 -1.421875 
Q 20.796875 -1.421875 13.15625 6.1875 
Q 5.515625 13.8125 5.515625 26.8125 
Q 5.515625 40.234375 12.765625 48.109375 
Q 20.015625 56 32.328125 56 
Q 43.359375 56 49.78125 48.890625 
Q 56.203125 41.796875 56.203125 29.59375 
z
M 47.21875 32.234375 
Q 47.125 39.59375 43.09375 43.984375 
Q 39.0625 48.390625 32.421875 48.390625 
Q 24.90625 48.390625 20.390625 44.140625 
Q 15.875 39.890625 15.1875 32.171875 
z
" id="DejaVuSans-101"/>
      <path d="M 11.71875 12.40625 
L 22.015625 12.40625 
L 22.015625 4 
L 14.015625 -11.625 
L 7.71875 -11.625 
L 11.71875 4 
z
" id="DejaVuSans-44"/>
      <path id="DejaVuSans-32"/>
      <path d="M 42.28125 54.6875 
L 40.921875 47.703125 
L 23 47.703125 
L 17.1875 18.015625 
Q 16.890625 16.359375 16.75 15.234375 
Q 16.609375 14.109375 16.609375 13.484375 
Q 16.609375 10.359375 18.484375 8.9375 
Q 20.359375 7.515625 24.515625 7.515625 
L 33.59375 7.515625 
L 32.078125 0 
L 23.484375 0 
Q 15.484375 0 11.546875 3.125 
Q 7.625 6.25 7.625 12.59375 
Q 7.625 13.71875 7.765625 15.0625 
Q 7.90625 16.40625 8.203125 18.015625 
L 14.015625 47.703125 
L 6.390625 47.703125 
L 7.8125 54.6875 
L 15.28125 54.6875 
L 18.3125 70.21875 
L 27.296875 70.21875 
L 24.3125 54.6875 
z
" id="DejaVuSans-Oblique-116"/>
      <path d="M 25.390625 72.90625 
L 33.6875 72.90625 
L 8.296875 -9.28125 
L 0 -9.28125 
z
" id="DejaVuSans-47"/>
      <path d="M 44.28125 53.078125 
L 44.28125 44.578125 
Q 40.484375 46.53125 36.375 47.5 
Q 32.28125 48.484375 27.875 48.484375 
Q 21.1875 48.484375 17.84375 46.4375 
Q 14.5 44.390625 14.5 40.28125 
Q 14.5 37.15625 16.890625 35.375 
Q 19.28125 33.59375 26.515625 31.984375 
L 29.59375 31.296875 
Q 39.15625 29.25 43.1875 25.515625 
Q 47.21875 21.78125 47.21875 15.09375 
Q 47.21875 7.46875 41.1875 3.015625 
Q 35.15625 -1.421875 24.609375 -1.421875 
Q 20.21875 -1.421875 15.453125 -0.5625 
Q 10.6875 0.296875 5.421875 2 
L 5.421875 11.28125 
Q 10.40625 8.6875 15.234375 7.390625 
Q 20.0625 6.109375 24.8125 6.109375 
Q 31.15625 6.109375 34.5625 8.28125 
Q 37.984375 10.453125 37.984375 14.40625 
Q 37.984375 18.0625 35.515625 20.015625 
Q 33.0625 21.96875 24.703125 23.78125 
L 21.578125 24.515625 
Q 13.234375 26.265625 9.515625 29.90625 
Q 5.8125 33.546875 5.8125 39.890625 
Q 5.8125 47.609375 11.28125 51.796875 
Q 16.75 56 26.8125 56 
Q 31.78125 56 36.171875 55.265625 
Q 40.578125 54.546875 44.28125 53.078125 
z
" id="DejaVuSans-115"/>
     </defs>
     <g transform="translate(242.557955 343.476562)scale(0.1 -0.1)">
      <use transform="translate(0 0.015625)" xlink:href="#DejaVuSans-84"/>
      <use transform="translate(61.083984 0.015625)" xlink:href="#DejaVuSans-105"/>
      <use transform="translate(88.867188 0.015625)" xlink:href="#DejaVuSans-109"/>
      <use transform="translate(186.279297 0.015625)" xlink:href="#DejaVuSans-101"/>
      <use transform="translate(247.802734 0.015625)" xlink:href="#DejaVuSans-44"/>
      <use transform="translate(279.589844 0.015625)" xlink:href="#DejaVuSans-32"/>
      <use transform="translate(311.376953 0.015625)" xlink:href="#DejaVuSans-Oblique-116"/>
      <use transform="translate(350.585938 0.015625)" xlink:href="#DejaVuSans-32"/>
      <use transform="translate(382.373047 0.015625)" xlink:href="#DejaVuSans-47"/>
      <use transform="translate(416.064453 0.015625)" xlink:href="#DejaVuSans-115"/>
     </g>
    </g>
   </g>
   <g id="matplotlib.axis_2">
    <g id="ytick_1">
     <g id="line2d_10">
      <defs>
       <path d="M 0 0 
L -3.5 0 
" id="m1252a5b68e" style="stroke:#000000;stroke-width:0.8;"/>
      </defs>
      <g>
       <use style="stroke:#000000;stroke-width:0.8;" x="50.8" xlink:href="#m1252a5b68e" y="281.414057"/>
      </g>
     </g>
     <g id="text_11">
      <!-- 0.0 -->
      <g transform="translate(27.896875 285.213275)scale(0.1 -0.1)">
       <use xlink:href="#DejaVuSans-48"/>
       <use x="63.623047" xlink:href="#DejaVuSans-46"/>
       <use x="95.410156" xlink:href="#DejaVuSans-48"/>
      </g>
     </g>
    </g>
    <g id="ytick_2">
     <g id="line2d_11">
      <g>
       <use style="stroke:#000000;stroke-width:0.8;" x="50.8" xlink:href="#m1252a5b68e" y="234.07055"/>
      </g>
     </g>
     <g id="text_12">
      <!-- 0.2 -->
      <g transform="translate(27.896875 237.869769)scale(0.1 -0.1)">
       <use xlink:href="#DejaVuSans-48"/>
       <use x="63.623047" xlink:href="#DejaVuSans-46"/>
       <use x="95.410156" xlink:href="#DejaVuSans-50"/>
      </g>
     </g>
    </g>
    <g id="ytick_3">
     <g id="line2d_12">
      <g>
       <use style="stroke:#000000;stroke-width:0.8;" x="50.8" xlink:href="#m1252a5b68e" y="186.727043"/>
      </g>
     </g>
     <g id="text_13">
      <!-- 0.4 -->
      <defs>
       <path d="M 37.796875 64.3125 
L 12.890625 25.390625 
L 37.796875 25.390625 
z
M 35.203125 72.90625 
L 47.609375 72.90625 
L 47.609375 25.390625 
L 58.015625 25.390625 
L 58.015625 17.1875 
L 47.609375 17.1875 
L 47.609375 0 
L 37.796875 0 
L 37.796875 17.1875 
L 4.890625 17.1875 
L 4.890625 26.703125 
z
" id="DejaVuSans-52"/>
      </defs>
      <g transform="translate(27.896875 190.526262)scale(0.1 -0.1)">
       <use xlink:href="#DejaVuSans-48"/>
       <use x="63.623047" xlink:href="#DejaVuSans-46"/>
       <use x="95.410156" xlink:href="#DejaVuSans-52"/>
      </g>
     </g>
    </g>
    <g id="ytick_4">
     <g id="line2d_13">
      <g>
       <use style="stroke:#000000;stroke-width:0.8;" x="50.8" xlink:href="#m1252a5b68e" y="139.383536"/>
      </g>
     </g>
     <g id="text_14">
      <!-- 0.6 -->
      <defs>
       <path d="M 33.015625 40.375 
Q 26.375 40.375 22.484375 35.828125 
Q 18.609375 31.296875 18.609375 23.390625 
Q 18.609375 15.53125 22.484375 10.953125 
Q 26.375 6.390625 33.015625 6.390625 
Q 39.65625 6.390625 43.53125 10.953125 
Q 47.40625 15.53125 47.40625 23.390625 
Q 47.40625 31.296875 43.53125 35.828125 
Q 39.65625 40.375 33.015625 40.375 
z
M 52.59375 71.296875 
L 52.59375 62.3125 
Q 48.875 64.0625 45.09375 64.984375 
Q 41.3125 65.921875 37.59375 65.921875 
Q 27.828125 65.921875 22.671875 59.328125 
Q 17.53125 52.734375 16.796875 39.40625 
Q 19.671875 43.65625 24.015625 45.921875 
Q 28.375 48.1875 33.59375 48.1875 
Q 44.578125 48.1875 50.953125 41.515625 
Q 57.328125 34.859375 57.328125 23.390625 
Q 57.328125 12.15625 50.6875 5.359375 
Q 44.046875 -1.421875 33.015625 -1.421875 
Q 20.359375 -1.421875 13.671875 8.265625 
Q 6.984375 17.96875 6.984375 36.375 
Q 6.984375 53.65625 15.1875 63.9375 
Q 23.390625 74.21875 37.203125 74.21875 
Q 40.921875 74.21875 44.703125 73.484375 
Q 48.484375 72.75 52.59375 71.296875 
z
" id="DejaVuSans-54"/>
      </defs>
      <g transform="translate(27.896875 143.182755)scale(0.1 -0.1)">
       <use xlink:href="#DejaVuSans-48"/>
       <use x="63.623047" xlink:href="#DejaVuSans-46"/>
       <use x="95.410156" xlink:href="#DejaVuSans-54"/>
      </g>
     </g>
    </g>
    <g id="ytick_5">
     <g id="line2d_14">
      <g>
       <use style="stroke:#000000;stroke-width:0.8;" x="50.8" xlink:href="#m1252a5b68e" y="92.04003"/>
      </g>
     </g>
     <g id="text_15">
      <!-- 0.8 -->
      <defs>
       <path d="M 31.78125 34.625 
Q 24.75 34.625 20.71875 30.859375 
Q 16.703125 27.09375 16.703125 20.515625 
Q 16.703125 13.921875 20.71875 10.15625 
Q 24.75 6.390625 31.78125 6.390625 
Q 38.8125 6.390625 42.859375 10.171875 
Q 46.921875 13.96875 46.921875 20.515625 
Q 46.921875 27.09375 42.890625 30.859375 
Q 38.875 34.625 31.78125 34.625 
z
M 21.921875 38.8125 
Q 15.578125 40.375 12.03125 44.71875 
Q 8.5 49.078125 8.5 55.328125 
Q 8.5 64.0625 14.71875 69.140625 
Q 20.953125 74.21875 31.78125 74.21875 
Q 42.671875 74.21875 48.875 69.140625 
Q 55.078125 64.0625 55.078125 55.328125 
Q 55.078125 49.078125 51.53125 44.71875 
Q 48 40.375 41.703125 38.8125 
Q 48.828125 37.15625 52.796875 32.3125 
Q 56.78125 27.484375 56.78125 20.515625 
Q 56.78125 9.90625 50.3125 4.234375 
Q 43.84375 -1.421875 31.78125 -1.421875 
Q 19.734375 -1.421875 13.25 4.234375 
Q 6.78125 9.90625 6.78125 20.515625 
Q 6.78125 27.484375 10.78125 32.3125 
Q 14.796875 37.15625 21.921875 38.8125 
z
M 18.3125 54.390625 
Q 18.3125 48.734375 21.84375 45.5625 
Q 25.390625 42.390625 31.78125 42.390625 
Q 38.140625 42.390625 41.71875 45.5625 
Q 45.3125 48.734375 45.3125 54.390625 
Q 45.3125 60.0625 41.71875 63.234375 
Q 38.140625 66.40625 31.78125 66.40625 
Q 25.390625 66.40625 21.84375 63.234375 
Q 18.3125 60.0625 18.3125 54.390625 
z
" id="DejaVuSans-56"/>
      </defs>
      <g transform="translate(27.896875 95.839248)scale(0.1 -0.1)">
       <use xlink:href="#DejaVuSans-48"/>
       <use x="63.623047" xlink:href="#DejaVuSans-46"/>
       <use x="95.410156" xlink:href="#DejaVuSans-56"/>
      </g>
     </g>
    </g>
    <g id="ytick_6">
     <g id="line2d_15">
      <g>
       <use style="stroke:#000000;stroke-width:0.8;" x="50.8" xlink:href="#m1252a5b68e" y="44.696523"/>
      </g>
     </g>
     <g id="text_16">
      <!-- 1.0 -->
      <g transform="translate(27.896875 48.495742)scale(0.1 -0.1)">
       <use xlink:href="#DejaVuSans-49"/>
       <use x="63.623047" xlink:href="#DejaVuSans-46"/>
       <use x="95.410156" xlink:href="#DejaVuSans-48"/>
      </g>
     </g>
    </g>
    <g id="text_17">
     <!-- $P(t)$ -->
     <defs>
      <path d="M 16.890625 72.90625 
L 39.703125 72.90625 
Q 49.65625 72.90625 54.875 68.265625 
Q 60.109375 63.625 60.109375 54.6875 
Q 60.109375 42.671875 52.390625 35.984375 
Q 44.671875 29.296875 30.71875 29.296875 
L 18.3125 29.296875 
L 12.59375 0 
L 2.6875 0 
z
M 25.203125 64.796875 
L 19.921875 37.40625 
L 32.328125 37.40625 
Q 40.71875 37.40625 45.203125 41.703125 
Q 49.703125 46 49.703125 54 
Q 49.703125 59.125 46.65625 61.953125 
Q 43.609375 64.796875 38.09375 64.796875 
z
" id="DejaVuSans-Oblique-80"/>
      <path d="M 31 75.875 
Q 24.46875 64.65625 21.28125 53.65625 
Q 18.109375 42.671875 18.109375 31.390625 
Q 18.109375 20.125 21.3125 9.0625 
Q 24.515625 -2 31 -13.1875 
L 23.1875 -13.1875 
Q 15.875 -1.703125 12.234375 9.375 
Q 8.59375 20.453125 8.59375 31.390625 
Q 8.59375 42.28125 12.203125 53.3125 
Q 15.828125 64.359375 23.1875 75.875 
z
" id="DejaVuSans-40"/>
      <path d="M 8.015625 75.875 
L 15.828125 75.875 
Q 23.140625 64.359375 26.78125 53.3125 
Q 30.421875 42.28125 30.421875 31.390625 
Q 30.421875 20.453125 26.78125 9.375 
Q 23.140625 -1.703125 15.828125 -13.1875 
L 8.015625 -13.1875 
Q 14.5 -2 17.703125 9.0625 
Q 20.90625 20.125 20.90625 31.390625 
Q 20.90625 42.671875 17.703125 53.65625 
Q 14.5 64.65625 8.015625 75.875 
z
" id="DejaVuSans-41"/>
     </defs>
     <g transform="translate(21.817188 171.9)rotate(-90)scale(0.1 -0.1)">
      <use transform="translate(0 0.125)" xlink:href="#DejaVuSans-Oblique-80"/>
      <use transform="translate(60.302734 0.125)" xlink:href="#DejaVuSans-40"/>
      <use transform="translate(99.316406 0.125)" xlink:href="#DejaVuSans-Oblique-116"/>
      <use transform="translate(138.525391 0.125)" xlink:href="#DejaVuSans-41"/>
     </g>
    </g>
   </g>
   <g id="line2d_16">
    <path clip-path="url(#p10527b34ba)" d="M 70.36436 45.073261 
L 70.756038 44.391141 
L 71.147717 44.814825 
L 71.539396 44.810247 
L 71.931075 44.393652 
L 72.322754 45.073976 
L 72.714433 44.387466 
L 73.106112 44.819868 
L 73.49779 44.806079 
L 73.889469 44.395027 
L 74.281148 45.076135 
L 74.672827 44.382576 
L 75.064506 44.825439 
L 75.456185 44.802275 
L 75.847864 44.39527 
L 76.239543 45.079781 
L 76.631221 44.376397 
L 77.0229 44.831614 
L 77.414579 44.798794 
L 77.806258 44.394363 
L 78.197937 45.084987 
L 78.589616 44.368824 
L 78.981295 44.838483 
L 79.372973 44.795601 
L 79.764652 44.392267 
L 80.156331 45.091863 
L 80.54801 44.359721 
L 80.939689 44.846156 
L 81.331368 44.792664 
L 81.723047 44.388913 
L 82.114726 45.100558 
L 82.506404 44.348911 
L 82.898083 44.854765 
L 83.289762 44.789954 
L 83.681441 44.384202 
L 84.07312 45.11127 
L 84.464799 44.33617 
L 84.856478 44.864472 
L 85.248157 44.787446 
L 85.639835 44.377999 
L 86.031514 45.124257 
L 86.423193 44.321207 
L 86.814872 44.875482 
L 87.206551 44.785114 
L 87.59823 44.370122 
L 87.989909 45.139856 
L 88.381587 44.303654 
L 88.773266 44.888049 
L 89.164945 44.782933 
L 89.556624 44.36033 
L 89.948303 45.158504 
L 90.339982 44.283032 
L 90.731661 44.9025 
L 91.12334 44.780877 
L 91.515018 44.348303 
L 91.906697 45.180776 
L 92.298376 44.25872 
L 92.690055 44.919259 
L 93.081734 44.778919 
L 93.473413 44.333617 
L 93.865092 45.20743 
L 94.256771 44.229891 
L 94.648449 44.938887 
L 95.040128 44.777023 
L 95.431807 44.315697 
L 95.823486 45.239492 
L 96.215165 44.195435 
L 96.606844 44.962141 
L 96.998523 44.775148 
L 97.390201 44.293759 
L 97.78188 45.278364 
L 98.173559 44.153819 
L 98.565238 44.990065 
L 98.956917 44.773236 
L 99.348596 44.266703 
L 99.740275 45.326022 
L 100.131954 44.102877 
L 100.523632 45.024148 
L 100.915311 44.7712 
L 101.30699 44.23295 
L 101.698669 45.385325 
L 102.090348 44.039448 
L 102.482027 45.066581 
L 102.873706 44.768909 
L 103.265384 44.19015 
L 103.657063 45.460572 
L 104.048742 43.958735 
L 104.440421 45.120729 
L 104.8321 44.76614 
L 105.223779 44.134657 
L 105.615458 45.558523 
L 106.007137 43.853093 
L 106.398815 45.192036 
L 106.790494 44.762486 
L 107.182173 44.060503 
L 107.573852 45.690447 
L 107.965531 43.709559 
L 108.35721 45.289917 
L 108.748889 44.757138 
L 109.140568 43.957207 
L 109.532246 45.876619 
L 109.923925 43.504269 
L 110.315604 45.432191 
L 110.707283 44.748273 
L 111.098962 43.804546 
L 111.490641 46.157542 
L 111.88232 43.187968 
L 112.273998 45.657114 
L 113.057356 43.557857 
L 113.449035 46.627456 
L 113.840714 42.640121 
L 114.232393 46.064308 
L 115.015751 43.095453 
L 115.407429 47.567279 
L 115.799108 41.467696 
L 116.190787 47.018381 
L 116.974145 41.931989 
L 117.365824 50.34982 
L 117.757503 37.266441 
L 118.149182 51.633093 
L 118.54086 41.940865 
L 118.932539 35.856471 
L 119.715897 301.363636 
L 120.107576 275.341967 
L 120.890934 286.094097 
L 121.282612 275.79764 
L 121.674291 285.963287 
L 122.06597 279.078176 
L 122.849328 283.395051 
L 123.241007 278.587597 
L 123.632686 283.971854 
L 124.024365 279.962568 
L 124.807722 282.652055 
L 125.199401 279.528925 
L 125.59108 283.200301 
L 125.982759 280.350205 
L 126.766117 282.307038 
L 127.157796 279.999524 
L 127.549474 282.792318 
L 127.941153 280.566646 
L 128.724511 282.108454 
L 129.11619 280.280936 
L 129.507869 282.540835 
L 129.899548 280.704154 
L 130.291226 281.476239 
L 130.682905 281.979727 
L 131.074584 280.467562 
L 131.466263 282.370927 
L 131.857942 280.798788 
L 132.249621 281.48105 
L 132.6413 281.889715 
L 133.032979 280.599957 
L 133.424657 282.248931 
L 133.816336 280.867527 
L 134.208015 281.484429 
L 134.599694 281.823378 
L 134.991373 280.698421 
L 135.383052 282.157486 
L 135.774731 280.919402 
L 136.166409 281.48705 
L 136.558088 281.772566 
L 136.949767 280.774236 
L 137.341446 282.086738 
L 137.733125 280.959662 
L 138.124804 281.489261 
L 138.516483 281.732479 
L 138.908162 280.834172 
L 139.29984 282.03068 
L 139.691519 280.991557 
L 140.083198 281.491255 
L 140.474877 281.700108 
L 140.866556 280.882533 
L 141.258235 281.985446 
L 141.649914 281.017207 
L 142.041593 281.493152 
L 142.433271 281.67347 
L 142.82495 280.922185 
L 143.216629 281.948435 
L 143.608308 281.038052 
L 143.999987 281.495027 
L 144.391666 281.651208 
L 144.783345 280.955111 
L 145.175023 281.917839 
L 145.566702 281.0551 
L 145.958381 281.496935 
L 146.35006 281.632359 
L 146.741739 280.982719 
L 147.133418 281.892364 
L 147.525097 281.069074 
L 147.916776 281.498915 
L 148.308454 281.616223 
L 148.700133 281.00604 
L 149.091812 281.871061 
L 149.483491 281.080507 
L 149.87517 281.500999 
L 150.266849 281.602278 
L 150.658528 281.025843 
L 151.050207 281.853223 
L 151.441885 281.089794 
L 151.833564 281.503215 
L 152.225243 281.590128 
L 152.616922 281.042708 
L 153.008601 281.838314 
L 153.40028 281.097232 
L 153.791959 281.505589 
L 154.183637 281.579466 
L 154.575316 281.057085 
L 154.966995 281.825924 
L 155.358674 281.103047 
L 155.750353 281.508145 
L 156.142032 281.57005 
L 156.533711 281.069319 
L 156.92539 281.815738 
L 157.317068 281.107408 
L 157.708747 281.510909 
L 158.100426 281.56169 
L 158.492105 281.079683 
L 158.883784 281.807514 
L 159.275463 281.11044 
L 159.667142 281.513908 
L 160.05882 281.554229 
L 160.450499 281.088388 
L 160.842178 281.801068 
L 161.233857 281.112233 
L 161.625536 281.51717 
L 162.017215 281.547543 
L 162.408894 281.095601 
L 162.800573 281.79626 
L 163.192251 281.112849 
L 163.58393 281.520728 
L 163.975609 281.541527 
L 164.367288 281.10145 
L 164.758967 281.792992 
L 165.150646 281.112323 
L 165.542325 281.524619 
L 165.934004 281.536094 
L 166.325682 281.10603 
L 166.717361 281.791197 
L 167.10904 281.110665 
L 167.500719 281.528885 
L 167.892398 281.531173 
L 168.284077 281.10941 
L 168.675756 281.790839 
L 169.067434 281.107867 
L 169.459113 281.533574 
L 169.850792 281.526702 
L 170.242471 281.111636 
L 170.63415 281.791913 
L 171.025829 281.103893 
L 171.417508 281.538742 
L 171.809187 281.52263 
L 172.200865 281.112728 
L 172.592544 281.794438 
L 172.984223 281.098689 
L 173.375902 281.544457 
L 173.767581 281.51891 
L 174.15926 281.112686 
L 174.550939 281.798466 
L 174.942618 281.092173 
L 175.334296 281.550796 
L 175.725975 281.515504 
L 176.117654 281.111487 
L 176.509333 281.804079 
L 176.901012 281.084231 
L 177.292691 281.557855 
L 177.68437 281.512377 
L 178.076048 281.109083 
L 178.467727 281.811394 
L 178.859406 281.07472 
L 179.251085 281.565749 
L 179.642764 281.5095 
L 180.034443 281.1054 
L 180.426122 281.820572 
L 180.817801 281.063451 
L 181.209479 281.574615 
L 181.601158 281.506843 
L 181.992837 281.100331 
L 182.384516 281.831825 
L 182.776195 281.050184 
L 183.167874 281.584627 
L 183.559553 281.504381 
L 183.951232 281.093728 
L 184.34291 281.84543 
L 184.734589 281.034612 
L 185.126268 281.596 
L 185.517947 281.502089 
L 185.909626 281.085398 
L 186.301305 281.861746 
L 186.692984 281.016341 
L 187.084662 281.609004 
L 187.476341 281.499942 
L 187.86802 281.075081 
L 188.259699 281.88124 
L 188.651378 280.994862 
L 189.043057 281.623988 
L 189.434736 281.497914 
L 189.826415 281.062434 
L 190.218093 281.904527 
L 190.609772 280.969508 
L 191.001451 281.641406 
L 191.39313 281.495974 
L 191.784809 281.047 
L 192.176488 281.932426 
L 192.568167 280.93939 
L 192.959845 281.66186 
L 193.351524 281.494088 
L 193.743203 281.02816 
L 194.134882 281.96604 
L 194.526561 280.903308 
L 194.91824 281.686168 
L 195.309919 281.49221 
L 195.701598 281.00506 
L 196.093276 282.006895 
L 196.484955 280.859594 
L 196.876634 281.715471 
L 197.268313 281.490276 
L 197.659992 280.976502 
L 198.051671 282.057152 
L 198.44335 280.805877 
L 198.835029 281.751401 
L 199.226707 281.488192 
L 199.618386 280.940747 
L 200.010065 282.119965 
L 200.401744 280.738661 
L 200.793423 281.796386 
L 201.185102 281.485807 
L 201.576781 280.895183 
L 201.968459 282.200124 
L 202.360138 280.652584 
L 202.751817 281.854202 
L 203.143496 281.482865 
L 203.535175 280.83571 
L 203.926854 282.305266 
L 204.318533 280.538977 
L 204.710212 281.931048 
L 205.10189 281.478888 
L 205.493569 280.755506 
L 205.885248 282.448336 
L 206.276927 280.382873 
L 206.668606 282.037862 
L 207.060285 281.472896 
L 207.451964 280.642345 
L 207.843643 282.653171 
L 208.235321 280.156018 
L 208.627 282.195919 
L 209.018679 281.462603 
L 209.410358 280.471933 
L 209.802037 282.968955 
L 210.193716 279.797969 
L 210.585395 282.45277 
L 211.368752 280.188244 
L 211.760431 283.516012 
L 212.15211 279.152152 
L 212.543789 282.940661 
L 213.327147 279.627135 
L 213.718826 284.686406 
L 214.110504 277.650329 
L 214.502183 284.212389 
L 215.285541 278.026365 
L 215.67722 288.873402 
L 216.068899 270.502124 
L 216.460578 294.246888 
L 216.852256 266.417278 
L 217.243935 95.391412 
L 217.635614 24.636364 
L 218.027293 55.615961 
L 218.418972 40.329519 
L 219.20233 48.206156 
L 219.594009 40.187707 
L 219.985687 48.502596 
L 220.377366 42.67267 
L 221.160724 46.421851 
L 221.552403 42.183567 
L 221.944082 47.003671 
L 222.335761 43.367953 
L 223.119118 45.826507 
L 223.510797 42.956288 
L 223.902476 46.358797 
L 224.294155 43.697576 
L 225.077513 45.530432 
L 225.469192 43.364879 
L 225.86087 46.001303 
L 226.252549 43.888968 
L 227.035907 45.353832 
L 227.427586 43.616834 
L 227.819265 45.77491 
L 228.210944 44.013435 
L 228.602623 44.760101 
L 228.994301 45.23682 
L 229.38598 43.787197 
L 229.777659 45.619263 
L 230.169338 44.100423 
L 230.561017 44.76446 
L 230.952696 45.153776 
L 231.344375 43.909673 
L 231.736054 45.506146 
L 232.127732 44.164291 
L 232.519411 44.767604 
L 232.91109 45.091915 
L 233.302769 44.001643 
L 233.694448 45.420608 
L 234.086127 44.21287 
L 234.477806 44.770098 
L 234.869484 45.044146 
L 235.261163 44.072975 
L 235.652842 45.353992 
L 236.044521 44.250788 
L 236.4362 44.77224 
L 236.827879 45.00622 
L 237.219558 44.129682 
L 237.611237 45.300942 
L 238.002915 44.280956 
L 238.394594 44.774201 
L 238.786273 44.975438 
L 239.177952 44.175639 
L 239.569631 45.25797 
L 239.96131 44.30529 
L 240.352989 44.776086 
L 240.744667 44.950004 
L 241.136346 44.213451 
L 241.528025 45.222708 
L 241.919704 44.325104 
L 242.311383 44.777966 
L 242.703062 44.928673 
L 243.094741 44.244932 
L 243.48642 45.193498 
L 243.878098 44.341324 
L 244.269777 44.779888 
L 244.661456 44.91056 
L 245.053135 44.271383 
L 245.444814 45.169145 
L 245.836493 44.354619 
L 246.228172 44.781891 
L 246.619851 44.895015 
L 247.011529 44.293761 
L 247.403208 45.148767 
L 247.794887 44.365483 
L 248.186566 44.784006 
L 248.578245 44.881552 
L 248.969924 44.312781 
L 249.361603 45.131705 
L 249.753281 44.374283 
L 250.14496 44.786259 
L 250.536639 44.8698 
L 250.928318 44.328987 
L 251.319997 45.11746 
L 251.711676 44.381297 
L 252.103355 44.788676 
L 252.495034 44.859469 
L 252.886712 44.342798 
L 253.278391 45.105647 
L 253.67007 44.386734 
L 254.061749 44.791282 
L 254.453428 44.850334 
L 254.845107 44.354542 
L 255.236786 45.095972 
L 255.628465 44.390752 
L 256.020143 44.794102 
L 256.411822 44.842212 
L 256.803501 44.364473 
L 257.19518 45.088208 
L 257.586859 44.393468 
L 257.978538 44.797163 
L 258.370217 44.834956 
L 258.761895 44.372792 
L 259.153574 45.082183 
L 259.545253 44.394962 
L 259.936932 44.800496 
L 260.328611 44.828446 
L 260.72029 44.379653 
L 261.111969 45.077768 
L 261.503648 44.39529 
L 261.895326 44.804134 
L 262.287005 44.822583 
L 262.678684 44.385177 
L 263.070363 45.074873 
L 263.462042 44.394481 
L 263.853721 44.808115 
L 264.2454 44.817285 
L 264.637079 44.389451 
L 265.028757 45.07344 
L 265.420436 44.39254 
L 265.812115 44.812482 
L 266.203794 44.812482 
L 266.595473 44.39254 
L 266.987152 45.07344 
L 267.378831 44.389451 
L 267.770509 44.817285 
L 268.162188 44.808115 
L 268.553867 44.394481 
L 268.945546 45.074873 
L 269.337225 44.385177 
L 269.728904 44.822583 
L 270.120583 44.804134 
L 270.512262 44.39529 
L 270.90394 45.077768 
L 271.295619 44.379653 
L 271.687298 44.828446 
L 272.078977 44.800496 
L 272.470656 44.394962 
L 272.862335 45.082183 
L 273.254014 44.372792 
L 273.645692 44.834956 
L 274.037371 44.797163 
L 274.42905 44.393468 
L 274.820729 45.088208 
L 275.212408 44.364473 
L 275.604087 44.842212 
L 275.995766 44.794102 
L 276.387445 44.390752 
L 276.779123 45.095972 
L 277.170802 44.354542 
L 277.562481 44.850334 
L 277.95416 44.791282 
L 278.345839 44.386734 
L 278.737518 45.105647 
L 279.129197 44.342798 
L 279.520876 44.859469 
L 279.912554 44.788676 
L 280.304233 44.381297 
L 280.695912 45.11746 
L 281.087591 44.328987 
L 281.47927 44.8698 
L 281.870949 44.786259 
L 282.262628 44.374283 
L 282.654306 45.131705 
L 283.045985 44.312781 
L 283.437664 44.881552 
L 283.829343 44.784006 
L 284.221022 44.365483 
L 284.612701 45.148767 
L 285.00438 44.293761 
L 285.396059 44.895015 
L 285.787737 44.781891 
L 286.179416 44.354619 
L 286.571095 45.169145 
L 286.962774 44.271383 
L 287.354453 44.91056 
L 287.746132 44.779888 
L 288.137811 44.341324 
L 288.52949 45.193498 
L 288.921168 44.244932 
L 289.312847 44.928673 
L 289.704526 44.777966 
L 290.096205 44.325104 
L 290.487884 45.222708 
L 290.879563 44.213451 
L 291.271242 44.950004 
L 291.66292 44.776086 
L 292.054599 44.30529 
L 292.446278 45.25797 
L 292.837957 44.175639 
L 293.229636 44.975438 
L 293.621315 44.774201 
L 294.012994 44.280956 
L 294.404673 45.300942 
L 294.796351 44.129682 
L 295.18803 45.00622 
L 295.579709 44.77224 
L 295.971388 44.250788 
L 296.363067 45.353992 
L 296.754746 44.072975 
L 297.146425 45.044146 
L 297.538103 44.770098 
L 297.929782 44.21287 
L 298.321461 45.420608 
L 298.71314 44.001643 
L 299.104819 45.091915 
L 299.496498 44.767604 
L 299.888177 44.164291 
L 300.279856 45.506146 
L 300.671534 43.909673 
L 301.063213 45.153776 
L 301.454892 44.76446 
L 301.846571 44.100423 
L 302.23825 45.619263 
L 302.629929 43.787197 
L 303.021608 45.23682 
L 303.413287 44.760101 
L 303.804965 44.013435 
L 304.196644 45.77491 
L 304.588323 43.616834 
L 304.980002 45.353832 
L 305.371681 44.753334 
L 305.76336 43.888968 
L 306.155039 46.001303 
L 306.546717 43.364879 
L 306.938396 45.530432 
L 307.330075 44.741254 
L 307.721754 43.697576 
L 308.113433 46.358797 
L 308.505112 42.956288 
L 308.896791 45.826507 
L 309.680148 43.367953 
L 310.071827 47.003671 
L 310.463506 42.183567 
L 310.855185 46.421851 
L 311.638543 42.67267 
L 312.030222 48.502596 
L 312.421901 40.187707 
L 312.813579 48.206156 
L 313.596937 40.329519 
L 313.988616 55.615961 
L 314.380295 24.636364 
L 314.771974 95.391412 
L 315.163653 266.417278 
L 315.555331 294.246888 
L 315.94701 270.502124 
L 316.338689 288.873402 
L 316.730368 278.026365 
L 317.513726 284.212389 
L 317.905405 277.650329 
L 318.297084 284.686406 
L 318.688762 279.627135 
L 319.47212 282.940661 
L 319.863799 279.152152 
L 320.255478 283.516012 
L 320.647157 280.188244 
L 321.430515 282.45277 
L 321.822193 279.797969 
L 322.213872 282.968955 
L 322.605551 280.471933 
L 323.388909 282.195919 
L 323.780588 280.156018 
L 324.172267 282.653171 
L 324.563945 280.642345 
L 324.955624 281.472896 
L 325.347303 282.037862 
L 325.738982 280.382873 
L 326.130661 282.448336 
L 326.52234 280.755506 
L 326.914019 281.478888 
L 327.305698 281.931048 
L 327.697376 280.538977 
L 328.089055 282.305266 
L 328.480734 280.83571 
L 328.872413 281.482865 
L 329.264092 281.854202 
L 329.655771 280.652584 
L 330.04745 282.200124 
L 330.439128 280.895183 
L 330.830807 281.485807 
L 331.222486 281.796386 
L 331.614165 280.738661 
L 332.005844 282.119965 
L 332.397523 280.940747 
L 332.789202 281.488192 
L 333.180881 281.751401 
L 333.572559 280.805877 
L 333.964238 282.057152 
L 334.355917 280.976502 
L 334.747596 281.490276 
L 335.139275 281.715471 
L 335.530954 280.859594 
L 335.922633 282.006895 
L 336.314312 281.00506 
L 336.70599 281.49221 
L 337.097669 281.686168 
L 337.489348 280.903308 
L 337.881027 281.96604 
L 338.272706 281.02816 
L 338.664385 281.494088 
L 339.056064 281.66186 
L 339.447742 280.93939 
L 339.839421 281.932426 
L 340.2311 281.047 
L 340.622779 281.495974 
L 341.014458 281.641406 
L 341.406137 280.969508 
L 341.797816 281.904527 
L 342.189495 281.062434 
L 342.581173 281.497914 
L 342.972852 281.623988 
L 343.364531 280.994862 
L 343.75621 281.88124 
L 344.147889 281.075081 
L 344.539568 281.499942 
L 344.931247 281.609004 
L 345.322926 281.016341 
L 345.714604 281.861746 
L 346.106283 281.085398 
L 346.497962 281.502089 
L 346.889641 281.596 
L 347.28132 281.034612 
L 347.672999 281.84543 
L 348.064678 281.093728 
L 348.456356 281.504381 
L 348.848035 281.584627 
L 349.239714 281.050184 
L 349.631393 281.831825 
L 350.023072 281.100331 
L 350.414751 281.506843 
L 350.80643 281.574615 
L 351.198109 281.063451 
L 351.589787 281.820572 
L 351.981466 281.1054 
L 352.373145 281.5095 
L 352.764824 281.565749 
L 353.156503 281.07472 
L 353.548182 281.811394 
L 353.939861 281.109083 
L 354.331539 281.512377 
L 354.723218 281.557855 
L 355.114897 281.084231 
L 355.506576 281.804079 
L 355.898255 281.111487 
L 356.289934 281.515504 
L 356.681613 281.550796 
L 357.073292 281.092173 
L 357.46497 281.798466 
L 357.856649 281.112686 
L 358.248328 281.51891 
L 358.640007 281.544457 
L 359.031686 281.098689 
L 359.423365 281.794438 
L 359.815044 281.112728 
L 360.206723 281.52263 
L 360.598401 281.538742 
L 360.99008 281.103893 
L 361.381759 281.791913 
L 361.773438 281.111636 
L 362.165117 281.526702 
L 362.556796 281.533574 
L 362.948475 281.107867 
L 363.340153 281.790839 
L 363.731832 281.10941 
L 364.123511 281.531173 
L 364.51519 281.528885 
L 364.906869 281.110665 
L 365.298548 281.791197 
L 365.690227 281.10603 
L 366.081906 281.536094 
L 366.473584 281.524619 
L 366.865263 281.112323 
L 367.256942 281.792992 
L 367.648621 281.10145 
L 368.0403 281.541527 
L 368.431979 281.520728 
L 368.823658 281.112849 
L 369.215337 281.79626 
L 369.607015 281.095601 
L 369.998694 281.547543 
L 370.390373 281.51717 
L 370.782052 281.112233 
L 371.173731 281.801068 
L 371.56541 281.088388 
L 371.957089 281.554229 
L 372.348767 281.513908 
L 372.740446 281.11044 
L 373.132125 281.807514 
L 373.523804 281.079683 
L 373.915483 281.56169 
L 374.307162 281.510909 
L 374.698841 281.107408 
L 375.09052 281.815738 
L 375.482198 281.069319 
L 375.873877 281.57005 
L 376.265556 281.508145 
L 376.657235 281.103047 
L 377.048914 281.825924 
L 377.440593 281.057085 
L 377.832272 281.579466 
L 378.223951 281.505589 
L 378.615629 281.097232 
L 379.007308 281.838314 
L 379.398987 281.042708 
L 379.790666 281.590128 
L 380.182345 281.503215 
L 380.574024 281.089794 
L 380.965703 281.853223 
L 381.357381 281.025843 
L 381.74906 281.602278 
L 382.140739 281.500999 
L 382.532418 281.080507 
L 382.924097 281.871061 
L 383.315776 281.00604 
L 383.707455 281.616223 
L 384.099134 281.498915 
L 384.490812 281.069074 
L 384.882491 281.892364 
L 385.27417 280.982719 
L 385.665849 281.632359 
L 386.057528 281.496935 
L 386.449207 281.0551 
L 386.840886 281.917839 
L 387.232564 280.955111 
L 387.624243 281.651208 
L 388.015922 281.495027 
L 388.407601 281.038052 
L 388.79928 281.948435 
L 389.190959 280.922185 
L 389.582638 281.67347 
L 389.974317 281.493152 
L 390.365995 281.017207 
L 390.757674 281.985446 
L 391.149353 280.882533 
L 391.541032 281.700108 
L 391.932711 281.491255 
L 392.32439 280.991557 
L 392.716069 282.03068 
L 393.107748 280.834172 
L 393.499426 281.732479 
L 393.891105 281.489261 
L 394.282784 280.959662 
L 394.674463 282.086738 
L 395.066142 280.774236 
L 395.457821 281.772566 
L 395.8495 281.48705 
L 396.241178 280.919402 
L 396.632857 282.157486 
L 397.024536 280.698421 
L 397.416215 281.823378 
L 397.807894 281.484429 
L 398.199573 280.867527 
L 398.591252 282.248931 
L 398.982931 280.599957 
L 399.374609 281.889715 
L 399.766288 281.48105 
L 400.157967 280.798788 
L 400.549646 282.370927 
L 400.941325 280.467562 
L 401.333004 281.979727 
L 401.724683 281.476239 
L 402.116362 280.704154 
L 402.50804 282.540835 
L 402.899719 280.280936 
L 403.291398 282.108454 
L 403.683077 281.468529 
L 404.074756 280.566646 
L 404.466435 282.792318 
L 404.858114 279.999524 
L 405.249792 282.307038 
L 406.03315 280.350205 
L 406.424829 283.200301 
L 406.816508 279.528925 
L 407.208187 282.652055 
L 407.991545 279.962568 
L 408.383223 283.971854 
L 408.774902 278.587597 
L 409.166581 283.395051 
L 409.949939 279.078176 
L 410.341618 285.963287 
L 410.733297 275.79764 
L 411.124975 286.094097 
L 411.908333 275.341967 
L 412.300012 301.363636 
L 412.691691 186.620942 
L 413.08337 35.856471 
L 413.475049 41.940865 
L 413.866728 51.633093 
L 414.258406 37.266441 
L 414.650085 50.34982 
L 415.041764 41.931989 
L 415.825122 47.018381 
L 416.216801 41.467696 
L 416.60848 47.567279 
L 417.000159 43.095453 
L 417.783516 46.064308 
L 418.175195 42.640121 
L 418.566874 46.627456 
L 418.958553 43.557857 
L 419.741911 45.657114 
L 420.133589 43.187968 
L 420.525268 46.157542 
L 420.916947 43.804546 
L 421.700305 45.432191 
L 422.091984 43.504269 
L 422.483663 45.876619 
L 422.875342 43.957207 
L 423.26702 44.757138 
L 423.658699 45.289917 
L 424.050378 43.709559 
L 424.442057 45.690447 
L 424.833736 44.060503 
L 425.225415 44.762486 
L 425.617094 45.192036 
L 426.008773 43.853093 
L 426.400451 45.558523 
L 426.79213 44.134657 
L 427.183809 44.76614 
L 427.575488 45.120729 
L 427.967167 43.958735 
L 428.358846 45.460572 
L 428.750525 44.19015 
L 429.142203 44.768909 
L 429.533882 45.066581 
L 429.925561 44.039448 
L 430.31724 45.385325 
L 430.708919 44.23295 
L 431.100598 44.7712 
L 431.492277 45.024148 
L 431.883956 44.102877 
L 432.275634 45.326022 
L 432.667313 44.266703 
L 433.058992 44.773236 
L 433.450671 44.990065 
L 433.84235 44.153819 
L 434.234029 45.278364 
L 434.625708 44.293759 
L 435.017386 44.775148 
L 435.409065 44.962141 
L 435.800744 44.195435 
L 436.192423 45.239492 
L 436.584102 44.315697 
L 436.975781 44.777023 
L 437.36746 44.938887 
L 437.759139 44.229891 
L 438.150817 45.20743 
L 438.542496 44.333617 
L 438.934175 44.778919 
L 439.325854 44.919259 
L 439.717533 44.25872 
L 440.109212 45.180776 
L 440.500891 44.348303 
L 440.89257 44.780877 
L 441.284248 44.9025 
L 441.675927 44.283032 
L 442.067606 45.158504 
L 442.459285 44.36033 
L 442.850964 44.782933 
L 443.242643 44.888049 
L 443.634322 44.303654 
L 444.026 45.139856 
L 444.417679 44.370122 
L 444.809358 44.785114 
L 445.201037 44.875482 
L 445.592716 44.321207 
L 445.984395 45.124257 
L 446.376074 44.377999 
L 446.767753 44.787446 
L 447.159431 44.864472 
L 447.55111 44.33617 
L 447.942789 45.11127 
L 448.334468 44.384202 
L 448.726147 44.789954 
L 449.117826 44.854765 
L 449.509505 44.348911 
L 449.901184 45.100558 
L 450.292862 44.388913 
L 450.684541 44.792664 
L 451.07622 44.846156 
L 451.467899 44.359721 
L 451.859578 45.091863 
L 452.251257 44.392267 
L 452.642936 44.795601 
L 453.034614 44.838483 
L 453.426293 44.368824 
L 453.817972 45.084987 
L 454.209651 44.394363 
L 454.60133 44.798794 
L 454.993009 44.831614 
L 455.384688 44.376397 
L 455.776367 45.079781 
L 456.168045 44.39527 
L 456.559724 44.802275 
L 456.951403 44.825439 
L 457.343082 44.382576 
L 457.734761 45.076135 
L 458.12644 44.395027 
L 458.518119 44.806079 
L 458.909798 44.819868 
L 459.301476 44.387466 
L 459.693155 45.073976 
L 460.084834 44.393652 
L 460.476513 44.810247 
L 460.868192 44.814825 
L 461.259871 44.391141 
L 461.65155 45.073261 
L 461.65155 45.073261 
" style="fill:none;stroke:#1f77b4;stroke-linecap:square;stroke-width:1.5;"/>
   </g>
   <g id="patch_3">
    <path d="M 50.8 315.2 
L 50.8 10.8 
" style="fill:none;stroke:#000000;stroke-linecap:square;stroke-linejoin:miter;stroke-width:0.8;"/>
   </g>
   <g id="patch_4">
    <path d="M 481.215909 315.2 
L 481.215909 10.8 
" style="fill:none;stroke:#000000;stroke-linecap:square;stroke-linejoin:miter;stroke-width:0.8;"/>
   </g>
   <g id="patch_5">
    <path d="M 50.8 315.2 
L 481.215909 315.2 
" style="fill:none;stroke:#000000;stroke-linecap:square;stroke-linejoin:miter;stroke-width:0.8;"/>
   </g>
   <g id="patch_6">
    <path d="M 50.8 10.8 
L 481.215909 10.8 
" style="fill:none;stroke:#000000;stroke-linecap:square;stroke-linejoin:miter;stroke-width:0.8;"/>
   </g>
   <g id="text_18">
    <!-- n= 100 -->
    <defs>
     <path d="M 54.890625 33.015625 
L 54.890625 0 
L 45.90625 0 
L 45.90625 32.71875 
Q 45.90625 40.484375 42.875 44.328125 
Q 39.84375 48.1875 33.796875 48.1875 
Q 26.515625 48.1875 22.3125 43.546875 
Q 18.109375 38.921875 18.109375 30.90625 
L 18.109375 0 
L 9.078125 0 
L 9.078125 54.6875 
L 18.109375 54.6875 
L 18.109375 46.1875 
Q 21.34375 51.125 25.703125 53.5625 
Q 30.078125 56 35.796875 56 
Q 45.21875 56 50.046875 50.171875 
Q 54.890625 44.34375 54.890625 33.015625 
z
" id="DejaVuSans-110"/>
     <path d="M 10.59375 45.40625 
L 73.1875 45.40625 
L 73.1875 37.203125 
L 10.59375 37.203125 
z
M 10.59375 25.484375 
L 73.1875 25.484375 
L 73.1875 17.1875 
L 10.59375 17.1875 
z
" id="DejaVuSans-61"/>
    </defs>
    <g transform="translate(412.740651 281.414057)scale(0.2 -0.2)">
     <use xlink:href="#DejaVuSans-110"/>
     <use x="63.378906" xlink:href="#DejaVuSans-61"/>
     <use x="147.167969" xlink:href="#DejaVuSans-32"/>
     <use x="178.955078" xlink:href="#DejaVuSans-49"/>
     <use x="242.578125" xlink:href="#DejaVuSans-48"/>
     <use x="306.201172" xlink:href="#DejaVuSans-48"/>
    </g>
   </g>
  </g>
 </g>
 <defs>
  <clipPath id="p10527b34ba">
   <rect height="304.4" width="430.415909" x="50.8" y="10.8"/>
  </clipPath>
 </defs>
</svg>
