<?xml version="1.0" encoding="utf-8" standalone="no"?>
<!DOCTYPE svg PUBLIC "-//W3C//DTD SVG 1.1//EN"
  "http://www.w3.org/Graphics/SVG/1.1/DTD/svg11.dtd">
<!-- Created with matplotlib (https://matplotlib.org/) -->
<svg height="360pt" version="1.1" viewBox="0 0 504 360" width="504pt" xmlns="http://www.w3.org/2000/svg" xmlns:xlink="http://www.w3.org/1999/xlink">
 <defs>
  <style type="text/css">
*{stroke-linecap:butt;stroke-linejoin:round;}
  </style>
 </defs>
 <g id="figure_1">
  <g id="patch_1">
   <path d="M 0 360 
L 504 360 
L 504 0 
L 0 0 
z
" style="fill:none;"/>
  </g>
  <g id="axes_1">
   <g id="patch_2">
    <path d="M 50.8 315.2 
L 493.2 315.2 
L 493.2 10.8 
L 50.8 10.8 
z
" style="fill:none;"/>
   </g>
   <g id="matplotlib.axis_1">
    <g id="xtick_1">
     <g id="line2d_1">
      <defs>
       <path d="M 0 0 
L 0 3.5 
" id="m8eff5268b7" style="stroke:#000000;stroke-width:0.8;"/>
      </defs>
      <g>
       <use style="stroke:#000000;stroke-width:0.8;" x="70.909091" xlink:href="#m8eff5268b7" y="315.2"/>
      </g>
     </g>
     <g id="text_1">
      <!-- −2.0 -->
      <defs>
       <path d="M 10.59375 35.5 
L 73.1875 35.5 
L 73.1875 27.203125 
L 10.59375 27.203125 
z
" id="DejaVuSans-8722"/>
       <path d="M 19.1875 8.296875 
L 53.609375 8.296875 
L 53.609375 0 
L 7.328125 0 
L 7.328125 8.296875 
Q 12.9375 14.109375 22.625 23.890625 
Q 32.328125 33.6875 34.8125 36.53125 
Q 39.546875 41.84375 41.421875 45.53125 
Q 43.3125 49.21875 43.3125 52.78125 
Q 43.3125 58.59375 39.234375 62.25 
Q 35.15625 65.921875 28.609375 65.921875 
Q 23.96875 65.921875 18.8125 64.3125 
Q 13.671875 62.703125 7.8125 59.421875 
L 7.8125 69.390625 
Q 13.765625 71.78125 18.9375 73 
Q 24.125 74.21875 28.421875 74.21875 
Q 39.75 74.21875 46.484375 68.546875 
Q 53.21875 62.890625 53.21875 53.421875 
Q 53.21875 48.921875 51.53125 44.890625 
Q 49.859375 40.875 45.40625 35.40625 
Q 44.1875 33.984375 37.640625 27.21875 
Q 31.109375 20.453125 19.1875 8.296875 
z
" id="DejaVuSans-50"/>
       <path d="M 10.6875 12.40625 
L 21 12.40625 
L 21 0 
L 10.6875 0 
z
" id="DejaVuSans-46"/>
       <path d="M 31.78125 66.40625 
Q 24.171875 66.40625 20.328125 58.90625 
Q 16.5 51.421875 16.5 36.375 
Q 16.5 21.390625 20.328125 13.890625 
Q 24.171875 6.390625 31.78125 6.390625 
Q 39.453125 6.390625 43.28125 13.890625 
Q 47.125 21.390625 47.125 36.375 
Q 47.125 51.421875 43.28125 58.90625 
Q 39.453125 66.40625 31.78125 66.40625 
z
M 31.78125 74.21875 
Q 44.046875 74.21875 50.515625 64.515625 
Q 56.984375 54.828125 56.984375 36.375 
Q 56.984375 17.96875 50.515625 8.265625 
Q 44.046875 -1.421875 31.78125 -1.421875 
Q 19.53125 -1.421875 13.0625 8.265625 
Q 6.59375 17.96875 6.59375 36.375 
Q 6.59375 54.828125 13.0625 64.515625 
Q 19.53125 74.21875 31.78125 74.21875 
z
" id="DejaVuSans-48"/>
      </defs>
      <g transform="translate(58.767685 329.798437)scale(0.1 -0.1)">
       <use xlink:href="#DejaVuSans-8722"/>
       <use x="83.789062" xlink:href="#DejaVuSans-50"/>
       <use x="147.412109" xlink:href="#DejaVuSans-46"/>
       <use x="179.199219" xlink:href="#DejaVuSans-48"/>
      </g>
     </g>
    </g>
    <g id="xtick_2">
     <g id="line2d_2">
      <g>
       <use style="stroke:#000000;stroke-width:0.8;" x="121.181818" xlink:href="#m8eff5268b7" y="315.2"/>
      </g>
     </g>
     <g id="text_2">
      <!-- −1.5 -->
      <defs>
       <path d="M 12.40625 8.296875 
L 28.515625 8.296875 
L 28.515625 63.921875 
L 10.984375 60.40625 
L 10.984375 69.390625 
L 28.421875 72.90625 
L 38.28125 72.90625 
L 38.28125 8.296875 
L 54.390625 8.296875 
L 54.390625 0 
L 12.40625 0 
z
" id="DejaVuSans-49"/>
       <path d="M 10.796875 72.90625 
L 49.515625 72.90625 
L 49.515625 64.59375 
L 19.828125 64.59375 
L 19.828125 46.734375 
Q 21.96875 47.46875 24.109375 47.828125 
Q 26.265625 48.1875 28.421875 48.1875 
Q 40.625 48.1875 47.75 41.5 
Q 54.890625 34.8125 54.890625 23.390625 
Q 54.890625 11.625 47.5625 5.09375 
Q 40.234375 -1.421875 26.90625 -1.421875 
Q 22.3125 -1.421875 17.546875 -0.640625 
Q 12.796875 0.140625 7.71875 1.703125 
L 7.71875 11.625 
Q 12.109375 9.234375 16.796875 8.0625 
Q 21.484375 6.890625 26.703125 6.890625 
Q 35.15625 6.890625 40.078125 11.328125 
Q 45.015625 15.765625 45.015625 23.390625 
Q 45.015625 31 40.078125 35.4375 
Q 35.15625 39.890625 26.703125 39.890625 
Q 22.75 39.890625 18.8125 39.015625 
Q 14.890625 38.140625 10.796875 36.28125 
z
" id="DejaVuSans-53"/>
      </defs>
      <g transform="translate(109.040412 329.798437)scale(0.1 -0.1)">
       <use xlink:href="#DejaVuSans-8722"/>
       <use x="83.789062" xlink:href="#DejaVuSans-49"/>
       <use x="147.412109" xlink:href="#DejaVuSans-46"/>
       <use x="179.199219" xlink:href="#DejaVuSans-53"/>
      </g>
     </g>
    </g>
    <g id="xtick_3">
     <g id="line2d_3">
      <g>
       <use style="stroke:#000000;stroke-width:0.8;" x="171.454545" xlink:href="#m8eff5268b7" y="315.2"/>
      </g>
     </g>
     <g id="text_3">
      <!-- −1.0 -->
      <g transform="translate(159.313139 329.798437)scale(0.1 -0.1)">
       <use xlink:href="#DejaVuSans-8722"/>
       <use x="83.789062" xlink:href="#DejaVuSans-49"/>
       <use x="147.412109" xlink:href="#DejaVuSans-46"/>
       <use x="179.199219" xlink:href="#DejaVuSans-48"/>
      </g>
     </g>
    </g>
    <g id="xtick_4">
     <g id="line2d_4">
      <g>
       <use style="stroke:#000000;stroke-width:0.8;" x="221.727273" xlink:href="#m8eff5268b7" y="315.2"/>
      </g>
     </g>
     <g id="text_4">
      <!-- −0.5 -->
      <g transform="translate(209.585866 329.798437)scale(0.1 -0.1)">
       <use xlink:href="#DejaVuSans-8722"/>
       <use x="83.789062" xlink:href="#DejaVuSans-48"/>
       <use x="147.412109" xlink:href="#DejaVuSans-46"/>
       <use x="179.199219" xlink:href="#DejaVuSans-53"/>
      </g>
     </g>
    </g>
    <g id="xtick_5">
     <g id="line2d_5">
      <g>
       <use style="stroke:#000000;stroke-width:0.8;" x="272" xlink:href="#m8eff5268b7" y="315.2"/>
      </g>
     </g>
     <g id="text_5">
      <!-- 0.0 -->
      <g transform="translate(264.048437 329.798437)scale(0.1 -0.1)">
       <use xlink:href="#DejaVuSans-48"/>
       <use x="63.623047" xlink:href="#DejaVuSans-46"/>
       <use x="95.410156" xlink:href="#DejaVuSans-48"/>
      </g>
     </g>
    </g>
    <g id="xtick_6">
     <g id="line2d_6">
      <g>
       <use style="stroke:#000000;stroke-width:0.8;" x="322.272727" xlink:href="#m8eff5268b7" y="315.2"/>
      </g>
     </g>
     <g id="text_6">
      <!-- 0.5 -->
      <g transform="translate(314.321165 329.798437)scale(0.1 -0.1)">
       <use xlink:href="#DejaVuSans-48"/>
       <use x="63.623047" xlink:href="#DejaVuSans-46"/>
       <use x="95.410156" xlink:href="#DejaVuSans-53"/>
      </g>
     </g>
    </g>
    <g id="xtick_7">
     <g id="line2d_7">
      <g>
       <use style="stroke:#000000;stroke-width:0.8;" x="372.545455" xlink:href="#m8eff5268b7" y="315.2"/>
      </g>
     </g>
     <g id="text_7">
      <!-- 1.0 -->
      <g transform="translate(364.593892 329.798437)scale(0.1 -0.1)">
       <use xlink:href="#DejaVuSans-49"/>
       <use x="63.623047" xlink:href="#DejaVuSans-46"/>
       <use x="95.410156" xlink:href="#DejaVuSans-48"/>
      </g>
     </g>
    </g>
    <g id="xtick_8">
     <g id="line2d_8">
      <g>
       <use style="stroke:#000000;stroke-width:0.8;" x="422.818182" xlink:href="#m8eff5268b7" y="315.2"/>
      </g>
     </g>
     <g id="text_8">
      <!-- 1.5 -->
      <g transform="translate(414.866619 329.798437)scale(0.1 -0.1)">
       <use xlink:href="#DejaVuSans-49"/>
       <use x="63.623047" xlink:href="#DejaVuSans-46"/>
       <use x="95.410156" xlink:href="#DejaVuSans-53"/>
      </g>
     </g>
    </g>
    <g id="xtick_9">
     <g id="line2d_9">
      <g>
       <use style="stroke:#000000;stroke-width:0.8;" x="473.090909" xlink:href="#m8eff5268b7" y="315.2"/>
      </g>
     </g>
     <g id="text_9">
      <!-- 2.0 -->
      <g transform="translate(465.139347 329.798437)scale(0.1 -0.1)">
       <use xlink:href="#DejaVuSans-50"/>
       <use x="63.623047" xlink:href="#DejaVuSans-46"/>
       <use x="95.410156" xlink:href="#DejaVuSans-48"/>
      </g>
     </g>
    </g>
    <g id="text_10">
     <!-- Time, $t$ /s -->
     <defs>
      <path d="M -0.296875 72.90625 
L 61.375 72.90625 
L 61.375 64.59375 
L 35.5 64.59375 
L 35.5 0 
L 25.59375 0 
L 25.59375 64.59375 
L -0.296875 64.59375 
z
" id="DejaVuSans-84"/>
      <path d="M 9.421875 54.6875 
L 18.40625 54.6875 
L 18.40625 0 
L 9.421875 0 
z
M 9.421875 75.984375 
L 18.40625 75.984375 
L 18.40625 64.59375 
L 9.421875 64.59375 
z
" id="DejaVuSans-105"/>
      <path d="M 52 44.1875 
Q 55.375 50.25 60.0625 53.125 
Q 64.75 56 71.09375 56 
Q 79.640625 56 84.28125 50.015625 
Q 88.921875 44.046875 88.921875 33.015625 
L 88.921875 0 
L 79.890625 0 
L 79.890625 32.71875 
Q 79.890625 40.578125 77.09375 44.375 
Q 74.3125 48.1875 68.609375 48.1875 
Q 61.625 48.1875 57.5625 43.546875 
Q 53.515625 38.921875 53.515625 30.90625 
L 53.515625 0 
L 44.484375 0 
L 44.484375 32.71875 
Q 44.484375 40.625 41.703125 44.40625 
Q 38.921875 48.1875 33.109375 48.1875 
Q 26.21875 48.1875 22.15625 43.53125 
Q 18.109375 38.875 18.109375 30.90625 
L 18.109375 0 
L 9.078125 0 
L 9.078125 54.6875 
L 18.109375 54.6875 
L 18.109375 46.1875 
Q 21.1875 51.21875 25.484375 53.609375 
Q 29.78125 56 35.6875 56 
Q 41.65625 56 45.828125 52.96875 
Q 50 49.953125 52 44.1875 
z
" id="DejaVuSans-109"/>
      <path d="M 56.203125 29.59375 
L 56.203125 25.203125 
L 14.890625 25.203125 
Q 15.484375 15.921875 20.484375 11.0625 
Q 25.484375 6.203125 34.421875 6.203125 
Q 39.59375 6.203125 44.453125 7.46875 
Q 49.3125 8.734375 54.109375 11.28125 
L 54.109375 2.78125 
Q 49.265625 0.734375 44.1875 -0.34375 
Q 39.109375 -1.421875 33.890625 -1.421875 
Q 20.796875 -1.421875 13.15625 6.1875 
Q 5.515625 13.8125 5.515625 26.8125 
Q 5.515625 40.234375 12.765625 48.109375 
Q 20.015625 56 32.328125 56 
Q 43.359375 56 49.78125 48.890625 
Q 56.203125 41.796875 56.203125 29.59375 
z
M 47.21875 32.234375 
Q 47.125 39.59375 43.09375 43.984375 
Q 39.0625 48.390625 32.421875 48.390625 
Q 24.90625 48.390625 20.390625 44.140625 
Q 15.875 39.890625 15.1875 32.171875 
z
" id="DejaVuSans-101"/>
      <path d="M 11.71875 12.40625 
L 22.015625 12.40625 
L 22.015625 4 
L 14.015625 -11.625 
L 7.71875 -11.625 
L 11.71875 4 
z
" id="DejaVuSans-44"/>
      <path id="DejaVuSans-32"/>
      <path d="M 42.28125 54.6875 
L 40.921875 47.703125 
L 23 47.703125 
L 17.1875 18.015625 
Q 16.890625 16.359375 16.75 15.234375 
Q 16.609375 14.109375 16.609375 13.484375 
Q 16.609375 10.359375 18.484375 8.9375 
Q 20.359375 7.515625 24.515625 7.515625 
L 33.59375 7.515625 
L 32.078125 0 
L 23.484375 0 
Q 15.484375 0 11.546875 3.125 
Q 7.625 6.25 7.625 12.59375 
Q 7.625 13.71875 7.765625 15.0625 
Q 7.90625 16.40625 8.203125 18.015625 
L 14.015625 47.703125 
L 6.390625 47.703125 
L 7.8125 54.6875 
L 15.28125 54.6875 
L 18.3125 70.21875 
L 27.296875 70.21875 
L 24.3125 54.6875 
z
" id="DejaVuSans-Oblique-116"/>
      <path d="M 25.390625 72.90625 
L 33.6875 72.90625 
L 8.296875 -9.28125 
L 0 -9.28125 
z
" id="DejaVuSans-47"/>
      <path d="M 44.28125 53.078125 
L 44.28125 44.578125 
Q 40.484375 46.53125 36.375 47.5 
Q 32.28125 48.484375 27.875 48.484375 
Q 21.1875 48.484375 17.84375 46.4375 
Q 14.5 44.390625 14.5 40.28125 
Q 14.5 37.15625 16.890625 35.375 
Q 19.28125 33.59375 26.515625 31.984375 
L 29.59375 31.296875 
Q 39.15625 29.25 43.1875 25.515625 
Q 47.21875 21.78125 47.21875 15.09375 
Q 47.21875 7.46875 41.1875 3.015625 
Q 35.15625 -1.421875 24.609375 -1.421875 
Q 20.21875 -1.421875 15.453125 -0.5625 
Q 10.6875 0.296875 5.421875 2 
L 5.421875 11.28125 
Q 10.40625 8.6875 15.234375 7.390625 
Q 20.0625 6.109375 24.8125 6.109375 
Q 31.15625 6.109375 34.5625 8.28125 
Q 37.984375 10.453125 37.984375 14.40625 
Q 37.984375 18.0625 35.515625 20.015625 
Q 33.0625 21.96875 24.703125 23.78125 
L 21.578125 24.515625 
Q 13.234375 26.265625 9.515625 29.90625 
Q 5.8125 33.546875 5.8125 39.890625 
Q 5.8125 47.609375 11.28125 51.796875 
Q 16.75 56 26.8125 56 
Q 31.78125 56 36.171875 55.265625 
Q 40.578125 54.546875 44.28125 53.078125 
z
" id="DejaVuSans-115"/>
     </defs>
     <g transform="translate(248.55 343.476562)scale(0.1 -0.1)">
      <use transform="translate(0 0.015625)" xlink:href="#DejaVuSans-84"/>
      <use transform="translate(61.083984 0.015625)" xlink:href="#DejaVuSans-105"/>
      <use transform="translate(88.867188 0.015625)" xlink:href="#DejaVuSans-109"/>
      <use transform="translate(186.279297 0.015625)" xlink:href="#DejaVuSans-101"/>
      <use transform="translate(247.802734 0.015625)" xlink:href="#DejaVuSans-44"/>
      <use transform="translate(279.589844 0.015625)" xlink:href="#DejaVuSans-32"/>
      <use transform="translate(311.376953 0.015625)" xlink:href="#DejaVuSans-Oblique-116"/>
      <use transform="translate(350.585938 0.015625)" xlink:href="#DejaVuSans-32"/>
      <use transform="translate(382.373047 0.015625)" xlink:href="#DejaVuSans-47"/>
      <use transform="translate(416.064453 0.015625)" xlink:href="#DejaVuSans-115"/>
     </g>
    </g>
   </g>
   <g id="matplotlib.axis_2">
    <g id="ytick_1">
     <g id="line2d_10">
      <defs>
       <path d="M 0 0 
L -3.5 0 
" id="md7d205b3d6" style="stroke:#000000;stroke-width:0.8;"/>
      </defs>
      <g>
       <use style="stroke:#000000;stroke-width:0.8;" x="50.8" xlink:href="#md7d205b3d6" y="280.030217"/>
      </g>
     </g>
     <g id="text_11">
      <!-- 0.0 -->
      <g transform="translate(27.896875 283.829436)scale(0.1 -0.1)">
       <use xlink:href="#DejaVuSans-48"/>
       <use x="63.623047" xlink:href="#DejaVuSans-46"/>
       <use x="95.410156" xlink:href="#DejaVuSans-48"/>
      </g>
     </g>
    </g>
    <g id="ytick_2">
     <g id="line2d_11">
      <g>
       <use style="stroke:#000000;stroke-width:0.8;" x="50.8" xlink:href="#md7d205b3d6" y="233.218603"/>
      </g>
     </g>
     <g id="text_12">
      <!-- 0.2 -->
      <g transform="translate(27.896875 237.017821)scale(0.1 -0.1)">
       <use xlink:href="#DejaVuSans-48"/>
       <use x="63.623047" xlink:href="#DejaVuSans-46"/>
       <use x="95.410156" xlink:href="#DejaVuSans-50"/>
      </g>
     </g>
    </g>
    <g id="ytick_3">
     <g id="line2d_12">
      <g>
       <use style="stroke:#000000;stroke-width:0.8;" x="50.8" xlink:href="#md7d205b3d6" y="186.406988"/>
      </g>
     </g>
     <g id="text_13">
      <!-- 0.4 -->
      <defs>
       <path d="M 37.796875 64.3125 
L 12.890625 25.390625 
L 37.796875 25.390625 
z
M 35.203125 72.90625 
L 47.609375 72.90625 
L 47.609375 25.390625 
L 58.015625 25.390625 
L 58.015625 17.1875 
L 47.609375 17.1875 
L 47.609375 0 
L 37.796875 0 
L 37.796875 17.1875 
L 4.890625 17.1875 
L 4.890625 26.703125 
z
" id="DejaVuSans-52"/>
      </defs>
      <g transform="translate(27.896875 190.206207)scale(0.1 -0.1)">
       <use xlink:href="#DejaVuSans-48"/>
       <use x="63.623047" xlink:href="#DejaVuSans-46"/>
       <use x="95.410156" xlink:href="#DejaVuSans-52"/>
      </g>
     </g>
    </g>
    <g id="ytick_4">
     <g id="line2d_13">
      <g>
       <use style="stroke:#000000;stroke-width:0.8;" x="50.8" xlink:href="#md7d205b3d6" y="139.595374"/>
      </g>
     </g>
     <g id="text_14">
      <!-- 0.6 -->
      <defs>
       <path d="M 33.015625 40.375 
Q 26.375 40.375 22.484375 35.828125 
Q 18.609375 31.296875 18.609375 23.390625 
Q 18.609375 15.53125 22.484375 10.953125 
Q 26.375 6.390625 33.015625 6.390625 
Q 39.65625 6.390625 43.53125 10.953125 
Q 47.40625 15.53125 47.40625 23.390625 
Q 47.40625 31.296875 43.53125 35.828125 
Q 39.65625 40.375 33.015625 40.375 
z
M 52.59375 71.296875 
L 52.59375 62.3125 
Q 48.875 64.0625 45.09375 64.984375 
Q 41.3125 65.921875 37.59375 65.921875 
Q 27.828125 65.921875 22.671875 59.328125 
Q 17.53125 52.734375 16.796875 39.40625 
Q 19.671875 43.65625 24.015625 45.921875 
Q 28.375 48.1875 33.59375 48.1875 
Q 44.578125 48.1875 50.953125 41.515625 
Q 57.328125 34.859375 57.328125 23.390625 
Q 57.328125 12.15625 50.6875 5.359375 
Q 44.046875 -1.421875 33.015625 -1.421875 
Q 20.359375 -1.421875 13.671875 8.265625 
Q 6.984375 17.96875 6.984375 36.375 
Q 6.984375 53.65625 15.1875 63.9375 
Q 23.390625 74.21875 37.203125 74.21875 
Q 40.921875 74.21875 44.703125 73.484375 
Q 48.484375 72.75 52.59375 71.296875 
z
" id="DejaVuSans-54"/>
      </defs>
      <g transform="translate(27.896875 143.394593)scale(0.1 -0.1)">
       <use xlink:href="#DejaVuSans-48"/>
       <use x="63.623047" xlink:href="#DejaVuSans-46"/>
       <use x="95.410156" xlink:href="#DejaVuSans-54"/>
      </g>
     </g>
    </g>
    <g id="ytick_5">
     <g id="line2d_14">
      <g>
       <use style="stroke:#000000;stroke-width:0.8;" x="50.8" xlink:href="#md7d205b3d6" y="92.78376"/>
      </g>
     </g>
     <g id="text_15">
      <!-- 0.8 -->
      <defs>
       <path d="M 31.78125 34.625 
Q 24.75 34.625 20.71875 30.859375 
Q 16.703125 27.09375 16.703125 20.515625 
Q 16.703125 13.921875 20.71875 10.15625 
Q 24.75 6.390625 31.78125 6.390625 
Q 38.8125 6.390625 42.859375 10.171875 
Q 46.921875 13.96875 46.921875 20.515625 
Q 46.921875 27.09375 42.890625 30.859375 
Q 38.875 34.625 31.78125 34.625 
z
M 21.921875 38.8125 
Q 15.578125 40.375 12.03125 44.71875 
Q 8.5 49.078125 8.5 55.328125 
Q 8.5 64.0625 14.71875 69.140625 
Q 20.953125 74.21875 31.78125 74.21875 
Q 42.671875 74.21875 48.875 69.140625 
Q 55.078125 64.0625 55.078125 55.328125 
Q 55.078125 49.078125 51.53125 44.71875 
Q 48 40.375 41.703125 38.8125 
Q 48.828125 37.15625 52.796875 32.3125 
Q 56.78125 27.484375 56.78125 20.515625 
Q 56.78125 9.90625 50.3125 4.234375 
Q 43.84375 -1.421875 31.78125 -1.421875 
Q 19.734375 -1.421875 13.25 4.234375 
Q 6.78125 9.90625 6.78125 20.515625 
Q 6.78125 27.484375 10.78125 32.3125 
Q 14.796875 37.15625 21.921875 38.8125 
z
M 18.3125 54.390625 
Q 18.3125 48.734375 21.84375 45.5625 
Q 25.390625 42.390625 31.78125 42.390625 
Q 38.140625 42.390625 41.71875 45.5625 
Q 45.3125 48.734375 45.3125 54.390625 
Q 45.3125 60.0625 41.71875 63.234375 
Q 38.140625 66.40625 31.78125 66.40625 
Q 25.390625 66.40625 21.84375 63.234375 
Q 18.3125 60.0625 18.3125 54.390625 
z
" id="DejaVuSans-56"/>
      </defs>
      <g transform="translate(27.896875 96.582979)scale(0.1 -0.1)">
       <use xlink:href="#DejaVuSans-48"/>
       <use x="63.623047" xlink:href="#DejaVuSans-46"/>
       <use x="95.410156" xlink:href="#DejaVuSans-56"/>
      </g>
     </g>
    </g>
    <g id="ytick_6">
     <g id="line2d_15">
      <g>
       <use style="stroke:#000000;stroke-width:0.8;" x="50.8" xlink:href="#md7d205b3d6" y="45.972146"/>
      </g>
     </g>
     <g id="text_16">
      <!-- 1.0 -->
      <g transform="translate(27.896875 49.771364)scale(0.1 -0.1)">
       <use xlink:href="#DejaVuSans-49"/>
       <use x="63.623047" xlink:href="#DejaVuSans-46"/>
       <use x="95.410156" xlink:href="#DejaVuSans-48"/>
      </g>
     </g>
    </g>
    <g id="text_17">
     <!-- $P(t)$ -->
     <defs>
      <path d="M 16.890625 72.90625 
L 39.703125 72.90625 
Q 49.65625 72.90625 54.875 68.265625 
Q 60.109375 63.625 60.109375 54.6875 
Q 60.109375 42.671875 52.390625 35.984375 
Q 44.671875 29.296875 30.71875 29.296875 
L 18.3125 29.296875 
L 12.59375 0 
L 2.6875 0 
z
M 25.203125 64.796875 
L 19.921875 37.40625 
L 32.328125 37.40625 
Q 40.71875 37.40625 45.203125 41.703125 
Q 49.703125 46 49.703125 54 
Q 49.703125 59.125 46.65625 61.953125 
Q 43.609375 64.796875 38.09375 64.796875 
z
" id="DejaVuSans-Oblique-80"/>
      <path d="M 31 75.875 
Q 24.46875 64.65625 21.28125 53.65625 
Q 18.109375 42.671875 18.109375 31.390625 
Q 18.109375 20.125 21.3125 9.0625 
Q 24.515625 -2 31 -13.1875 
L 23.1875 -13.1875 
Q 15.875 -1.703125 12.234375 9.375 
Q 8.59375 20.453125 8.59375 31.390625 
Q 8.59375 42.28125 12.203125 53.3125 
Q 15.828125 64.359375 23.1875 75.875 
z
" id="DejaVuSans-40"/>
      <path d="M 8.015625 75.875 
L 15.828125 75.875 
Q 23.140625 64.359375 26.78125 53.3125 
Q 30.421875 42.28125 30.421875 31.390625 
Q 30.421875 20.453125 26.78125 9.375 
Q 23.140625 -1.703125 15.828125 -13.1875 
L 8.015625 -13.1875 
Q 14.5 -2 17.703125 9.0625 
Q 20.90625 20.125 20.90625 31.390625 
Q 20.90625 42.671875 17.703125 53.65625 
Q 14.5 64.65625 8.015625 75.875 
z
" id="DejaVuSans-41"/>
     </defs>
     <g transform="translate(21.817188 171.9)rotate(-90)scale(0.1 -0.1)">
      <use transform="translate(0 0.125)" xlink:href="#DejaVuSans-Oblique-80"/>
      <use transform="translate(60.302734 0.125)" xlink:href="#DejaVuSans-40"/>
      <use transform="translate(99.316406 0.125)" xlink:href="#DejaVuSans-Oblique-116"/>
      <use transform="translate(138.525391 0.125)" xlink:href="#DejaVuSans-41"/>
     </g>
    </g>
   </g>
   <g id="line2d_16">
    <path clip-path="url(#pb4c2a2ca43)" d="M 70.909091 38.593001 
L 71.311675 38.651868 
L 72.116844 39.117408 
L 72.922013 40.020032 
L 73.727182 41.304498 
L 74.934935 43.769483 
L 78.15561 50.936654 
L 78.960779 52.250287 
L 79.765948 53.178538 
L 80.571117 53.657848 
L 80.973701 53.716498 
L 81.376285 53.651328 
L 82.181454 53.151369 
L 82.986623 52.180568 
L 83.791792 50.790909 
L 84.999545 48.099767 
L 88.622805 39.312747 
L 89.427973 38.021588 
L 90.233142 37.205825 
L 90.635727 36.998659 
L 91.038311 36.933541 
L 91.440895 37.014088 
L 91.84348 37.241755 
L 92.648649 38.133124 
L 93.453817 39.574509 
L 94.258986 41.497541 
L 95.466739 45.056418 
L 98.28483 53.963492 
L 99.089999 55.92373 
L 99.895168 57.335126 
L 100.297752 57.794351 
L 100.700337 58.071377 
L 101.102921 58.155617 
L 101.505506 58.039011 
L 101.90809 57.716228 
L 102.310674 57.184827 
L 103.115843 55.501636 
L 103.921012 53.031936 
L 104.726181 49.869263 
L 105.933934 44.152577 
L 108.752025 30.163003 
L 109.557194 27.223037 
L 110.362362 25.288028 
L 110.764947 24.7853 
L 111.167531 24.636364 
L 111.570116 24.871651 
L 111.9727 25.519139 
L 112.375284 26.604005 
L 112.777869 28.14831 
L 113.583038 32.686196 
L 114.388206 39.236829 
L 115.193375 47.839578 
L 115.998544 58.46537 
L 117.206297 77.963285 
L 118.41405 101.163668 
L 120.426972 145.482928 
L 124.050232 226.893014 
L 125.257985 249.815878 
L 126.465738 268.973148 
L 127.270907 279.350028 
L 128.076076 287.696428 
L 128.881245 293.991942 
L 129.686414 298.284283 
L 130.088998 299.711841 
L 130.491582 300.685167 
L 130.894167 301.22713 
L 131.296751 301.363636 
L 131.699336 301.123311 
L 132.10192 300.537145 
L 132.504505 299.638128 
L 133.309673 297.041185 
L 134.114842 293.621548 
L 135.72518 285.491026 
L 137.335517 277.470007 
L 138.543271 272.621409 
L 139.348439 270.245954 
L 140.153608 268.665107 
L 140.556193 268.185926 
L 140.958777 267.915031 
L 141.361361 267.849246 
L 141.763946 267.98254 
L 142.16653 268.306203 
L 142.971699 269.477637 
L 143.776868 271.248592 
L 144.984621 274.712291 
L 148.205296 284.768381 
L 149.010465 286.636097 
L 149.815634 288.011763 
L 150.620803 288.831313 
L 151.023387 289.022185 
L 151.425971 289.066093 
L 151.828556 288.965041 
L 152.23114 288.723174 
L 153.036309 287.843674 
L 153.841478 286.499242 
L 155.049231 283.828557 
L 158.672491 275.017296 
L 159.477659 273.6762 
L 160.282828 272.761997 
L 161.087997 272.3231 
L 161.490581 272.288961 
L 161.893166 272.378342 
L 162.698335 272.916366 
L 163.503504 273.896773 
L 164.308672 275.252933 
L 165.516426 277.793301 
L 168.334516 284.133169 
L 169.139685 285.541643 
L 169.944854 286.595282 
L 170.750023 287.229555 
L 171.555192 287.405679 
L 171.957776 287.317448 
L 172.762945 286.795144 
L 173.568114 285.841248 
L 174.373282 284.514155 
L 175.581036 282.007037 
L 178.801711 274.883183 
L 179.60688 273.613429 
L 180.412048 272.738333 
L 181.217217 272.318316 
L 181.619802 272.290516 
L 182.022386 272.386717 
L 182.827555 272.947386 
L 183.632724 273.973968 
L 184.437892 275.410955 
L 185.645646 278.150644 
L 188.866321 286.101392 
L 189.67149 287.547751 
L 190.476658 288.551292 
L 191.281827 289.033477 
L 191.684412 289.062435 
L 192.086996 288.945159 
L 192.48958 288.680744 
L 193.294749 287.718074 
L 194.099918 286.212043 
L 194.905087 284.235279 
L 196.11284 280.624388 
L 198.930931 271.768787 
L 199.7361 269.869334 
L 200.541269 268.536018 
L 200.943853 268.121219 
L 201.346437 267.891492 
L 201.749022 267.856812 
L 202.151606 268.024573 
L 202.554191 268.399398 
L 202.956775 268.982982 
L 203.761944 270.767854 
L 204.567113 273.330336 
L 205.774866 278.399912 
L 207.787788 288.640186 
L 208.995541 294.537407 
L 209.80071 297.779053 
L 210.605879 300.124613 
L 211.008463 300.871438 
L 211.411047 301.288692 
L 211.813632 301.344336 
L 212.216216 301.008517 
L 212.618801 300.253929 
L 213.021385 299.056143 
L 213.423969 297.393925 
L 214.229138 292.60886 
L 215.034307 285.802486 
L 215.839476 276.943841 
L 216.644645 266.070679 
L 217.852398 246.236392 
L 219.060151 222.764847 
L 221.073073 178.195231 
L 224.293748 105.330284 
L 225.904086 74.43601 
L 227.111839 55.623469 
L 227.917008 45.496906 
L 228.722177 37.407173 
L 229.527346 31.366028 
L 230.332514 27.317479 
L 230.735099 26.005444 
L 231.137683 25.142227 
L 231.540268 24.704169 
L 231.942852 24.664653 
L 232.345436 24.994428 
L 232.748021 25.66197 
L 233.55319 27.87511 
L 234.358358 31.020814 
L 235.566112 36.84324 
L 237.981618 48.986074 
L 239.189371 53.718852 
L 239.99454 55.9987 
L 240.799709 57.47664 
L 241.202293 57.903613 
L 241.604878 58.122819 
L 242.007462 58.138161 
L 242.410046 57.956357 
L 242.812631 57.586758 
L 243.6178 56.333449 
L 244.422968 54.497105 
L 245.630722 50.97202 
L 248.448812 42.042381 
L 249.253981 40.013528 
L 250.05915 38.443988 
L 250.864319 37.410606 
L 251.266903 37.109527 
L 251.669488 36.955464 
L 252.072072 36.948068 
L 252.474656 37.084795 
L 253.279825 37.76993 
L 254.084994 38.950149 
L 254.890163 40.537234 
L 256.097916 43.436461 
L 258.513423 49.520292 
L 259.721176 51.869775 
L 260.526345 52.951268 
L 261.331513 53.572232 
L 261.734098 53.699436 
L 262.136682 53.702576 
L 262.539267 53.582612 
L 263.344435 52.98651 
L 264.149604 51.954993 
L 264.954773 50.557697 
L 266.162526 47.979319 
L 268.980617 41.6765 
L 269.785786 40.308057 
L 270.590955 39.303807 
L 271.396123 38.725241 
L 271.798708 38.607732 
L 272.201292 38.607732 
L 273.006461 38.958459 
L 273.81163 39.755988 
L 274.616799 40.951529 
L 275.824552 43.32514 
L 279.447811 51.296821 
L 280.25298 52.521384 
L 281.058149 53.342376 
L 281.863318 53.702576 
L 282.265902 53.699436 
L 282.668487 53.572232 
L 283.473655 52.951268 
L 284.278824 51.869775 
L 285.083993 50.386746 
L 286.291746 47.601056 
L 289.512422 39.699266 
L 290.31759 38.303087 
L 291.122759 37.360976 
L 291.525344 37.084795 
L 291.927928 36.948068 
L 292.330512 36.955464 
L 292.733097 37.109527 
L 293.135681 37.410606 
L 293.94085 38.443988 
L 294.746019 40.013528 
L 295.551188 42.042381 
L 296.758941 45.702044 
L 299.174447 53.404904 
L 299.979616 55.47959 
L 300.784785 57.041135 
L 301.589954 57.956357 
L 301.992538 58.138161 
L 302.395122 58.122819 
L 302.797707 57.903613 
L 303.200291 57.47664 
L 304.00546 55.9987 
L 304.810629 53.718852 
L 305.615798 50.71788 
L 306.823551 45.164477 
L 310.044226 29.349694 
L 310.849395 26.633846 
L 311.251979 25.66197 
L 311.654564 24.994428 
L 312.057148 24.664653 
L 312.459732 24.704169 
L 312.862317 25.142227 
L 313.264901 26.005444 
L 313.667486 27.317479 
L 314.472654 31.366028 
L 315.277823 37.407173 
L 316.082992 45.496906 
L 316.888161 55.623469 
L 318.095914 74.43601 
L 319.303667 97.075156 
L 320.914005 131.6836 
L 325.342433 230.940684 
L 326.550187 253.290075 
L 327.75794 271.753994 
L 328.563109 281.62897 
L 329.368277 289.461855 
L 330.173446 295.249512 
L 330.978615 299.056143 
L 331.381199 300.253929 
L 331.783784 301.008517 
L 332.186368 301.344336 
L 332.588953 301.288692 
L 332.991537 300.871438 
L 333.394121 300.124613 
L 334.19929 297.779053 
L 335.004459 294.537407 
L 336.212212 288.640186 
L 338.627719 276.570538 
L 339.835472 271.956945 
L 340.640641 269.773968 
L 341.445809 268.399398 
L 341.848394 268.024573 
L 342.250978 267.856812 
L 342.653563 267.891492 
L 343.056147 268.121219 
L 343.458731 268.536018 
L 344.2639 269.869334 
L 345.069069 271.768787 
L 346.276822 275.351385 
L 349.094913 284.235279 
L 349.900082 286.212043 
L 350.705251 287.718074 
L 351.51042 288.680744 
L 351.913004 288.945159 
L 352.315588 289.062435 
L 352.718173 289.033477 
L 353.120757 288.861369 
L 353.925926 288.110414 
L 354.731095 286.874008 
L 355.536264 285.243413 
L 357.146601 281.261157 
L 359.159523 276.25868 
L 360.367276 273.973968 
L 361.172445 272.947386 
L 361.977614 272.386717 
L 362.380198 272.290516 
L 362.782783 272.318316 
L 363.185367 272.468685 
L 363.990536 273.122177 
L 364.795705 274.20371 
L 365.600874 275.640713 
L 366.808627 278.254528 
L 369.224133 283.735328 
L 370.431886 285.841248 
L 371.237055 286.795144 
L 372.042224 287.317448 
L 372.444808 287.405679 
L 372.847393 287.376231 
L 373.652562 286.967901 
L 374.45773 286.117416 
L 375.262899 284.876815 
L 376.470652 282.456347 
L 380.093912 274.532965 
L 380.899081 273.354865 
L 381.70425 272.588876 
L 382.509419 272.288961 
L 382.912003 272.3231 
L 383.314587 272.481249 
L 384.119756 273.162037 
L 384.924925 274.297515 
L 385.730094 275.825254 
L 386.937847 278.654343 
L 389.755938 285.682183 
L 390.561107 287.224034 
L 391.366275 288.346681 
L 392.171444 288.965041 
L 392.574029 289.066093 
L 392.976613 289.022185 
L 393.379197 288.831313 
L 394.184366 288.011763 
L 394.989535 286.636097 
L 395.794704 284.768381 
L 397.002457 281.26469 
L 400.223132 271.248592 
L 401.028301 269.477637 
L 401.83347 268.306203 
L 402.236054 267.98254 
L 402.638639 267.849246 
L 403.041223 267.915031 
L 403.443807 268.185926 
L 403.846392 268.665107 
L 404.651561 270.245954 
L 405.456729 272.621409 
L 406.261898 275.704308 
L 407.469651 281.341642 
L 410.287742 295.415727 
L 411.092911 298.460867 
L 411.89808 300.537145 
L 412.300664 301.123311 
L 412.703249 301.363636 
L 413.105833 301.22713 
L 413.508418 300.685167 
L 413.911002 299.711841 
L 414.313586 298.284283 
L 415.118755 293.991942 
L 415.923924 287.696428 
L 416.729093 279.350028 
L 417.534262 268.973148 
L 418.742015 249.815878 
L 419.949768 226.893014 
L 421.560106 192.039954 
L 425.988534 93.069491 
L 427.196287 71.015729 
L 428.40404 52.904131 
L 429.209209 43.281877 
L 430.014378 35.705885 
L 430.819547 30.170708 
L 431.624716 26.604005 
L 432.0273 25.519139 
L 432.429884 24.871651 
L 432.832469 24.636364 
L 433.235053 24.7853 
L 433.637638 25.288028 
L 434.040222 26.112019 
L 434.845391 28.585524 
L 435.65056 31.918483 
L 437.260897 39.984897 
L 438.871235 48.071026 
L 440.078988 53.031936 
L 440.884157 55.501636 
L 441.689326 57.184827 
L 442.09191 57.716228 
L 442.494494 58.039011 
L 442.897079 58.155617 
L 443.299663 58.071377 
L 443.702248 57.794351 
L 444.104832 57.335126 
L 444.910001 55.92373 
L 445.71517 53.963492 
L 446.922923 50.32728 
L 449.741014 41.497541 
L 450.546183 39.574509 
L 451.351351 38.133124 
L 452.15652 37.241755 
L 452.559105 37.014088 
L 452.961689 36.933541 
L 453.364273 36.998659 
L 453.766858 37.205825 
L 454.572027 38.021588 
L 455.377195 39.312747 
L 456.584949 41.929145 
L 460.208208 50.790909 
L 461.013377 52.180568 
L 461.818546 53.151369 
L 462.623715 53.651328 
L 463.026299 53.716498 
L 463.428883 53.657848 
L 464.234052 53.178538 
L 465.039221 52.250287 
L 465.84439 50.936654 
L 467.052143 48.436833 
L 470.272818 41.304498 
L 471.077987 40.020032 
L 471.883156 39.117408 
L 472.688325 38.651868 
L 473.090909 38.593001 
L 473.090909 38.593001 
" style="fill:none;stroke:#1f77b4;stroke-linecap:square;stroke-width:1.5;"/>
   </g>
   <g id="patch_3">
    <path d="M 50.8 315.2 
L 50.8 10.8 
" style="fill:none;stroke:#000000;stroke-linecap:square;stroke-linejoin:miter;stroke-width:0.8;"/>
   </g>
   <g id="patch_4">
    <path d="M 493.2 315.2 
L 493.2 10.8 
" style="fill:none;stroke:#000000;stroke-linecap:square;stroke-linejoin:miter;stroke-width:0.8;"/>
   </g>
   <g id="patch_5">
    <path d="M 50.8 315.2 
L 493.2 315.2 
" style="fill:none;stroke:#000000;stroke-linecap:square;stroke-linejoin:miter;stroke-width:0.8;"/>
   </g>
   <g id="patch_6">
    <path d="M 50.8 10.8 
L 493.2 10.8 
" style="fill:none;stroke:#000000;stroke-linecap:square;stroke-linejoin:miter;stroke-width:0.8;"/>
   </g>
  </g>
 </g>
 <defs>
  <clipPath id="pb4c2a2ca43">
   <rect height="304.4" width="442.4" x="50.8" y="10.8"/>
  </clipPath>
 </defs>
</svg>
