<?xml version="1.0" encoding="utf-8" standalone="no"?>
<!DOCTYPE svg PUBLIC "-//W3C//DTD SVG 1.1//EN"
  "http://www.w3.org/Graphics/SVG/1.1/DTD/svg11.dtd">
<!-- Created with matplotlib (https://matplotlib.org/) -->
<svg height="288pt" version="1.1" viewBox="0 0 360 288" width="360pt" xmlns="http://www.w3.org/2000/svg" xmlns:xlink="http://www.w3.org/1999/xlink">
 <defs>
  <style type="text/css">
*{stroke-linecap:butt;stroke-linejoin:round;}
  </style>
 </defs>
 <g id="figure_1">
  <g id="patch_1">
   <path d="M 0 288 
L 360 288 
L 360 0 
L 0 0 
z
" style="fill:none;"/>
  </g>
  <g id="axes_1">
   <g id="patch_2">
    <path d="M 17.118182 268.083636 
L 349.2 268.083636 
L 349.2 10.8 
L 17.118182 10.8 
z
" style="fill:none;"/>
   </g>
   <g id="matplotlib.axis_1">
    <g id="text_1">
     <!-- k -->
     <defs>
      <path d="M 9.078125 75.984375 
L 18.109375 75.984375 
L 18.109375 31.109375 
L 44.921875 54.6875 
L 56.390625 54.6875 
L 27.390625 29.109375 
L 57.625 0 
L 45.90625 0 
L 18.109375 26.703125 
L 18.109375 0 
L 9.078125 0 
z
" id="DejaVuSans-107"/>
     </defs>
     <g transform="translate(178.816122 271.786582)scale(0.15 -0.15)">
      <use xlink:href="#DejaVuSans-107"/>
     </g>
    </g>
   </g>
   <g id="matplotlib.axis_2">
    <g id="text_2">
     <!-- $\omega$ -->
     <defs>
      <path d="M 21.390625 -1.421875 
Q 1.125 -1.421875 6.78125 27.59375 
Q 8.984375 39.0625 19.625 54.6875 
L 29.296875 54.6875 
Q 19.234375 39.0625 17 27.34375 
Q 12.796875 6.203125 23.734375 6.203125 
Q 33.84375 6.203125 38.71875 32.46875 
L 47.015625 32.46875 
Q 41.703125 6.0625 51.8125 6.203125 
Q 62.703125 6.296875 66.796875 27.34375 
Q 69.046875 39.0625 65.140625 54.6875 
L 74.8125 54.6875 
Q 79.296875 39.0625 77.09375 27.59375 
Q 71.53125 -1.46875 51.21875 -1.421875 
Q 37.9375 -1.375 39.109375 13.1875 
Q 34.28125 -1.421875 21.390625 -1.421875 
z
" id="DejaVuSans-Oblique-969"/>
     </defs>
     <g transform="translate(25.093279 145.741818)rotate(-90)scale(0.15 -0.15)">
      <use transform="translate(0 0.3125)" xlink:href="#DejaVuSans-Oblique-969"/>
     </g>
    </g>
   </g>
   <g id="line2d_1">
    <path clip-path="url(#p5a192fbf50)" d="M 32.21281 256.388926 
L 35.26223 252.677968 
L 38.31165 248.967946 
L 41.361069 245.259791 
L 44.410489 241.554438 
L 47.459909 237.852819 
L 50.509329 234.155867 
L 53.558749 230.464512 
L 56.608168 226.779683 
L 59.657588 223.102308 
L 62.707008 219.433313 
L 65.756428 215.773621 
L 68.805848 212.124154 
L 71.855268 208.485831 
L 74.904687 204.859567 
L 77.954107 201.246274 
L 81.003527 197.646864 
L 84.052947 194.062242 
L 87.102367 190.49331 
L 90.151786 186.940968 
L 93.201206 183.406108 
L 96.250626 179.889621 
L 99.300046 176.392393 
L 102.349466 172.915303 
L 105.398886 169.459227 
L 108.448305 166.025036 
L 111.497725 162.613593 
L 114.547145 159.225757 
L 117.596565 155.862382 
L 120.645985 152.524314 
L 123.695404 149.212393 
L 126.744824 145.927453 
L 129.794244 142.670322 
L 132.843664 139.441818 
L 135.893084 136.242755 
L 138.942504 133.073939 
L 141.991923 129.936166 
L 145.041343 126.830227 
L 148.090763 123.756904 
L 151.140183 120.71697 
L 154.189603 117.711191 
L 157.239022 114.740323 
L 160.288442 111.805115 
L 163.337862 108.906305 
L 166.387282 106.044622 
L 169.436702 103.220788 
L 172.486122 100.435514 
L 175.535541 97.6895 
L 178.584961 94.983437 
L 181.634381 92.318008 
L 184.683801 89.693882 
L 187.733221 87.111721 
L 190.78264 84.572175 
L 193.83206 82.075882 
L 196.88148 79.623472 
L 199.9309 77.215562 
L 202.98032 74.852758 
L 206.02974 72.535654 
L 209.079159 70.264835 
L 212.128579 68.040871 
L 215.177999 65.864323 
L 218.227419 63.735738 
L 221.276839 61.655653 
L 224.326258 59.624591 
L 227.375678 57.643063 
L 230.425098 55.711569 
L 233.474518 53.830594 
L 236.523938 52.000612 
L 239.573358 50.222083 
L 242.622777 48.495456 
L 245.672197 46.821165 
L 248.721617 45.199632 
L 251.771037 43.631264 
L 254.820457 42.116457 
L 257.869876 40.655592 
L 260.919296 39.249037 
L 263.968716 37.897145 
L 267.018136 36.600258 
L 270.067556 35.358701 
L 273.116976 34.172787 
L 276.166395 33.042816 
L 279.215815 31.96907 
L 282.265235 30.951821 
L 285.314655 29.991324 
L 288.364075 29.087822 
L 291.413494 28.241541 
L 294.462914 27.452696 
L 297.512334 26.721484 
L 300.561754 26.048089 
L 303.611174 25.432682 
L 306.660594 24.875417 
L 309.710013 24.376433 
L 312.759433 23.935858 
L 315.808853 23.553802 
L 318.858273 23.23036 
L 321.907693 22.965615 
L 324.957112 22.759634 
L 328.006532 22.612467 
L 331.055952 22.524152 
L 334.105372 22.494711 
" style="fill:none;stroke:#0000ff;stroke-linecap:square;stroke-width:1.5;"/>
   </g>
   <g id="line2d_2">
    <path clip-path="url(#p5a192fbf50)" d="M 334.105372 255.219455 
L 334.105372 10.8 
" style="fill:none;stroke:#ff0000;stroke-dasharray:1.85,0.8;stroke-dashoffset:0;stroke-width:0.5;"/>
   </g>
   <g id="patch_3">
    <path d="M 32.21281 268.083636 
L 32.21281 10.8 
" style="fill:none;stroke:#000000;stroke-linecap:square;stroke-linejoin:miter;stroke-width:0.8;"/>
   </g>
   <g id="patch_4">
    <path d="M 349.2 268.083636 
L 349.2 10.8 
" style="fill:none;"/>
   </g>
   <g id="patch_5">
    <path d="M 17.118182 256.388926 
L 349.2 256.388926 
" style="fill:none;stroke:#000000;stroke-linecap:square;stroke-linejoin:miter;stroke-width:0.8;"/>
   </g>
   <g id="patch_6">
    <path d="M 17.118182 10.8 
L 349.2 10.8 
" style="fill:none;"/>
   </g>
   <g id="text_3">
    <!-- $\pi/a$ -->
    <defs>
     <path d="M 9.125 54.6875 
L 61.53125 54.6875 
L 59.765625 45.703125 
L 52.875 45.703125 
L 46.34375 12.109375 
Q 45.65625 8.59375 46.578125 7.03125 
Q 47.46875 5.515625 50.140625 5.515625 
Q 50.875 5.515625 51.953125 5.671875 
Q 53.078125 5.765625 53.421875 5.8125 
L 52.15625 -0.6875 
Q 50.34375 -1.3125 48.484375 -1.609375 
Q 46.578125 -1.90625 44.78125 -1.90625 
Q 38.921875 -1.90625 37.3125 1.265625 
Q 35.6875 4.5 37.359375 13.09375 
L 43.703125 45.703125 
L 23.53125 45.703125 
L 14.65625 0 
L 5.46875 0 
L 14.359375 45.703125 
L 7.375 45.703125 
z
" id="DejaVuSans-Oblique-960"/>
     <path d="M 25.390625 72.90625 
L 33.6875 72.90625 
L 8.296875 -9.28125 
L 0 -9.28125 
z
" id="DejaVuSans-47"/>
     <path d="M 53.71875 31.203125 
L 47.609375 0 
L 38.625 0 
L 40.28125 8.296875 
Q 36.328125 3.421875 31.265625 1 
Q 26.21875 -1.421875 20.015625 -1.421875 
Q 13.03125 -1.421875 8.5625 2.84375 
Q 4.109375 7.125 4.109375 13.8125 
Q 4.109375 23.390625 11.75 28.953125 
Q 19.390625 34.515625 32.8125 34.515625 
L 45.3125 34.515625 
L 45.796875 36.921875 
Q 45.90625 37.3125 45.953125 37.765625 
Q 46 38.234375 46 39.203125 
Q 46 43.5625 42.453125 45.96875 
Q 38.921875 48.390625 32.515625 48.390625 
Q 28.125 48.390625 23.5 47.265625 
Q 18.890625 46.140625 14.015625 43.890625 
L 15.578125 52.203125 
Q 20.65625 54.109375 25.515625 55.046875 
Q 30.375 56 34.90625 56 
Q 44.578125 56 49.625 51.796875 
Q 54.6875 47.609375 54.6875 39.59375 
Q 54.6875 37.984375 54.4375 35.8125 
Q 54.203125 33.640625 53.71875 31.203125 
z
M 44 27.484375 
L 35.015625 27.484375 
Q 23.96875 27.484375 18.671875 24.53125 
Q 13.375 21.578125 13.375 15.375 
Q 13.375 11.078125 16.078125 8.640625 
Q 18.796875 6.203125 23.578125 6.203125 
Q 30.90625 6.203125 36.375 11.453125 
Q 41.84375 16.703125 43.609375 25.484375 
z
" id="DejaVuSans-Oblique-97"/>
    </defs>
    <g style="fill:#ff0000;" transform="translate(322.405372 268.083636)scale(0.15 -0.15)">
     <use transform="translate(0 0.09375)" xlink:href="#DejaVuSans-Oblique-960"/>
     <use transform="translate(60.205078 0.09375)" xlink:href="#DejaVuSans-47"/>
     <use transform="translate(93.896484 0.09375)" xlink:href="#DejaVuSans-Oblique-97"/>
    </g>
   </g>
  </g>
 </g>
 <defs>
  <clipPath id="p5a192fbf50">
   <rect height="257.283636" width="332.081818" x="17.118182" y="10.8"/>
  </clipPath>
 </defs>
</svg>
