<?xml version="1.0" encoding="utf-8" standalone="no"?>
<!DOCTYPE svg PUBLIC "-//W3C//DTD SVG 1.1//EN"
  "http://www.w3.org/Graphics/SVG/1.1/DTD/svg11.dtd">
<!-- Created with matplotlib (https://matplotlib.org/) -->
<svg height="288pt" version="1.1" viewBox="0 0 720 288" width="720pt" xmlns="http://www.w3.org/2000/svg" xmlns:xlink="http://www.w3.org/1999/xlink">
 <defs>
  <style type="text/css">
*{stroke-linecap:butt;stroke-linejoin:round;}
  </style>
 </defs>
 <g id="figure_1">
  <g id="patch_1">
   <path d="M 0 288 
L 720 288 
L 720 0 
L 0 0 
z
" style="fill:none;"/>
  </g>
  <g id="axes_1">
   <g id="patch_2">
    <path d="M 24.8 78.4 
L 709.2 78.4 
L 709.2 13.198529 
L 24.8 13.198529 
z
" style="fill:none;"/>
   </g>
   <g id="matplotlib.axis_1">
    <g id="text_1">
     <!-- Distance -->
     <defs>
      <path d="M 19.671875 64.796875 
L 19.671875 8.109375 
L 31.59375 8.109375 
Q 46.6875 8.109375 53.6875 14.9375 
Q 60.6875 21.78125 60.6875 36.53125 
Q 60.6875 51.171875 53.6875 57.984375 
Q 46.6875 64.796875 31.59375 64.796875 
z
M 9.8125 72.90625 
L 30.078125 72.90625 
Q 51.265625 72.90625 61.171875 64.09375 
Q 71.09375 55.28125 71.09375 36.53125 
Q 71.09375 17.671875 61.125 8.828125 
Q 51.171875 0 30.078125 0 
L 9.8125 0 
z
" id="DejaVuSans-68"/>
      <path d="M 9.421875 54.6875 
L 18.40625 54.6875 
L 18.40625 0 
L 9.421875 0 
z
M 9.421875 75.984375 
L 18.40625 75.984375 
L 18.40625 64.59375 
L 9.421875 64.59375 
z
" id="DejaVuSans-105"/>
      <path d="M 44.28125 53.078125 
L 44.28125 44.578125 
Q 40.484375 46.53125 36.375 47.5 
Q 32.28125 48.484375 27.875 48.484375 
Q 21.1875 48.484375 17.84375 46.4375 
Q 14.5 44.390625 14.5 40.28125 
Q 14.5 37.15625 16.890625 35.375 
Q 19.28125 33.59375 26.515625 31.984375 
L 29.59375 31.296875 
Q 39.15625 29.25 43.1875 25.515625 
Q 47.21875 21.78125 47.21875 15.09375 
Q 47.21875 7.46875 41.1875 3.015625 
Q 35.15625 -1.421875 24.609375 -1.421875 
Q 20.21875 -1.421875 15.453125 -0.5625 
Q 10.6875 0.296875 5.421875 2 
L 5.421875 11.28125 
Q 10.40625 8.6875 15.234375 7.390625 
Q 20.0625 6.109375 24.8125 6.109375 
Q 31.15625 6.109375 34.5625 8.28125 
Q 37.984375 10.453125 37.984375 14.40625 
Q 37.984375 18.0625 35.515625 20.015625 
Q 33.0625 21.96875 24.703125 23.78125 
L 21.578125 24.515625 
Q 13.234375 26.265625 9.515625 29.90625 
Q 5.8125 33.546875 5.8125 39.890625 
Q 5.8125 47.609375 11.28125 51.796875 
Q 16.75 56 26.8125 56 
Q 31.78125 56 36.171875 55.265625 
Q 40.578125 54.546875 44.28125 53.078125 
z
" id="DejaVuSans-115"/>
      <path d="M 18.3125 70.21875 
L 18.3125 54.6875 
L 36.8125 54.6875 
L 36.8125 47.703125 
L 18.3125 47.703125 
L 18.3125 18.015625 
Q 18.3125 11.328125 20.140625 9.421875 
Q 21.96875 7.515625 27.59375 7.515625 
L 36.8125 7.515625 
L 36.8125 0 
L 27.59375 0 
Q 17.1875 0 13.234375 3.875 
Q 9.28125 7.765625 9.28125 18.015625 
L 9.28125 47.703125 
L 2.6875 47.703125 
L 2.6875 54.6875 
L 9.28125 54.6875 
L 9.28125 70.21875 
z
" id="DejaVuSans-116"/>
      <path d="M 34.28125 27.484375 
Q 23.390625 27.484375 19.1875 25 
Q 14.984375 22.515625 14.984375 16.5 
Q 14.984375 11.71875 18.140625 8.90625 
Q 21.296875 6.109375 26.703125 6.109375 
Q 34.1875 6.109375 38.703125 11.40625 
Q 43.21875 16.703125 43.21875 25.484375 
L 43.21875 27.484375 
z
M 52.203125 31.203125 
L 52.203125 0 
L 43.21875 0 
L 43.21875 8.296875 
Q 40.140625 3.328125 35.546875 0.953125 
Q 30.953125 -1.421875 24.3125 -1.421875 
Q 15.921875 -1.421875 10.953125 3.296875 
Q 6 8.015625 6 15.921875 
Q 6 25.140625 12.171875 29.828125 
Q 18.359375 34.515625 30.609375 34.515625 
L 43.21875 34.515625 
L 43.21875 35.40625 
Q 43.21875 41.609375 39.140625 45 
Q 35.0625 48.390625 27.6875 48.390625 
Q 23 48.390625 18.546875 47.265625 
Q 14.109375 46.140625 10.015625 43.890625 
L 10.015625 52.203125 
Q 14.9375 54.109375 19.578125 55.046875 
Q 24.21875 56 28.609375 56 
Q 40.484375 56 46.34375 49.84375 
Q 52.203125 43.703125 52.203125 31.203125 
z
" id="DejaVuSans-97"/>
      <path d="M 54.890625 33.015625 
L 54.890625 0 
L 45.90625 0 
L 45.90625 32.71875 
Q 45.90625 40.484375 42.875 44.328125 
Q 39.84375 48.1875 33.796875 48.1875 
Q 26.515625 48.1875 22.3125 43.546875 
Q 18.109375 38.921875 18.109375 30.90625 
L 18.109375 0 
L 9.078125 0 
L 9.078125 54.6875 
L 18.109375 54.6875 
L 18.109375 46.1875 
Q 21.34375 51.125 25.703125 53.5625 
Q 30.078125 56 35.796875 56 
Q 45.21875 56 50.046875 50.171875 
Q 54.890625 44.34375 54.890625 33.015625 
z
" id="DejaVuSans-110"/>
      <path d="M 48.78125 52.59375 
L 48.78125 44.1875 
Q 44.96875 46.296875 41.140625 47.34375 
Q 37.3125 48.390625 33.40625 48.390625 
Q 24.65625 48.390625 19.8125 42.84375 
Q 14.984375 37.3125 14.984375 27.296875 
Q 14.984375 17.28125 19.8125 11.734375 
Q 24.65625 6.203125 33.40625 6.203125 
Q 37.3125 6.203125 41.140625 7.25 
Q 44.96875 8.296875 48.78125 10.40625 
L 48.78125 2.09375 
Q 45.015625 0.34375 40.984375 -0.53125 
Q 36.96875 -1.421875 32.421875 -1.421875 
Q 20.0625 -1.421875 12.78125 6.34375 
Q 5.515625 14.109375 5.515625 27.296875 
Q 5.515625 40.671875 12.859375 48.328125 
Q 20.21875 56 33.015625 56 
Q 37.15625 56 41.109375 55.140625 
Q 45.0625 54.296875 48.78125 52.59375 
z
" id="DejaVuSans-99"/>
      <path d="M 56.203125 29.59375 
L 56.203125 25.203125 
L 14.890625 25.203125 
Q 15.484375 15.921875 20.484375 11.0625 
Q 25.484375 6.203125 34.421875 6.203125 
Q 39.59375 6.203125 44.453125 7.46875 
Q 49.3125 8.734375 54.109375 11.28125 
L 54.109375 2.78125 
Q 49.265625 0.734375 44.1875 -0.34375 
Q 39.109375 -1.421875 33.890625 -1.421875 
Q 20.796875 -1.421875 13.15625 6.1875 
Q 5.515625 13.8125 5.515625 26.8125 
Q 5.515625 40.234375 12.765625 48.109375 
Q 20.015625 56 32.328125 56 
Q 43.359375 56 49.78125 48.890625 
Q 56.203125 41.796875 56.203125 29.59375 
z
M 47.21875 32.234375 
Q 47.125 39.59375 43.09375 43.984375 
Q 39.0625 48.390625 32.421875 48.390625 
Q 24.90625 48.390625 20.390625 44.140625 
Q 15.875 39.890625 15.1875 32.171875 
z
" id="DejaVuSans-101"/>
     </defs>
     <g transform="translate(345.1375 89.998437)scale(0.1 -0.1)">
      <use xlink:href="#DejaVuSans-68"/>
      <use x="77.001953" xlink:href="#DejaVuSans-105"/>
      <use x="104.785156" xlink:href="#DejaVuSans-115"/>
      <use x="156.884766" xlink:href="#DejaVuSans-116"/>
      <use x="196.09375" xlink:href="#DejaVuSans-97"/>
      <use x="257.373047" xlink:href="#DejaVuSans-110"/>
      <use x="320.751953" xlink:href="#DejaVuSans-99"/>
      <use x="375.732422" xlink:href="#DejaVuSans-101"/>
     </g>
    </g>
   </g>
   <g id="matplotlib.axis_2">
    <g id="text_2">
     <!-- Displacement -->
     <defs>
      <path d="M 18.109375 8.203125 
L 18.109375 -20.796875 
L 9.078125 -20.796875 
L 9.078125 54.6875 
L 18.109375 54.6875 
L 18.109375 46.390625 
Q 20.953125 51.265625 25.265625 53.625 
Q 29.59375 56 35.59375 56 
Q 45.5625 56 51.78125 48.09375 
Q 58.015625 40.1875 58.015625 27.296875 
Q 58.015625 14.40625 51.78125 6.484375 
Q 45.5625 -1.421875 35.59375 -1.421875 
Q 29.59375 -1.421875 25.265625 0.953125 
Q 20.953125 3.328125 18.109375 8.203125 
z
M 48.6875 27.296875 
Q 48.6875 37.203125 44.609375 42.84375 
Q 40.53125 48.484375 33.40625 48.484375 
Q 26.265625 48.484375 22.1875 42.84375 
Q 18.109375 37.203125 18.109375 27.296875 
Q 18.109375 17.390625 22.1875 11.75 
Q 26.265625 6.109375 33.40625 6.109375 
Q 40.53125 6.109375 44.609375 11.75 
Q 48.6875 17.390625 48.6875 27.296875 
z
" id="DejaVuSans-112"/>
      <path d="M 9.421875 75.984375 
L 18.40625 75.984375 
L 18.40625 0 
L 9.421875 0 
z
" id="DejaVuSans-108"/>
      <path d="M 52 44.1875 
Q 55.375 50.25 60.0625 53.125 
Q 64.75 56 71.09375 56 
Q 79.640625 56 84.28125 50.015625 
Q 88.921875 44.046875 88.921875 33.015625 
L 88.921875 0 
L 79.890625 0 
L 79.890625 32.71875 
Q 79.890625 40.578125 77.09375 44.375 
Q 74.3125 48.1875 68.609375 48.1875 
Q 61.625 48.1875 57.5625 43.546875 
Q 53.515625 38.921875 53.515625 30.90625 
L 53.515625 0 
L 44.484375 0 
L 44.484375 32.71875 
Q 44.484375 40.625 41.703125 44.40625 
Q 38.921875 48.1875 33.109375 48.1875 
Q 26.21875 48.1875 22.15625 43.53125 
Q 18.109375 38.875 18.109375 30.90625 
L 18.109375 0 
L 9.078125 0 
L 9.078125 54.6875 
L 18.109375 54.6875 
L 18.109375 46.1875 
Q 21.1875 51.21875 25.484375 53.609375 
Q 29.78125 56 35.6875 56 
Q 41.65625 56 45.828125 52.96875 
Q 50 49.953125 52 44.1875 
z
" id="DejaVuSans-109"/>
     </defs>
     <g transform="translate(18.720312 80.171921)rotate(-90)scale(0.1 -0.1)">
      <use xlink:href="#DejaVuSans-68"/>
      <use x="77.001953" xlink:href="#DejaVuSans-105"/>
      <use x="104.785156" xlink:href="#DejaVuSans-115"/>
      <use x="156.884766" xlink:href="#DejaVuSans-112"/>
      <use x="220.361328" xlink:href="#DejaVuSans-108"/>
      <use x="248.144531" xlink:href="#DejaVuSans-97"/>
      <use x="309.423828" xlink:href="#DejaVuSans-99"/>
      <use x="364.404297" xlink:href="#DejaVuSans-101"/>
      <use x="425.927734" xlink:href="#DejaVuSans-109"/>
      <use x="523.339844" xlink:href="#DejaVuSans-101"/>
      <use x="584.863281" xlink:href="#DejaVuSans-110"/>
      <use x="648.242188" xlink:href="#DejaVuSans-116"/>
     </g>
    </g>
   </g>
   <g id="line2d_1">
    <path clip-path="url(#p60d34b40c6)" d="M 55.909091 45.799265 
L 125.040404 45.799265 
L 194.171717 45.799265 
L 263.30303 45.799265 
L 332.434343 45.799265 
L 401.565657 45.799265 
L 470.69697 45.799265 
L 539.828283 45.799265 
L 608.959596 45.799265 
L 678.090909 45.799265 
" style="fill:none;stroke:#0000ff;stroke-dasharray:5.55,2.4;stroke-dashoffset:0;stroke-width:1.5;"/>
    <defs>
     <path d="M 0 3 
C 0.795609 3 1.55874 2.683901 2.12132 2.12132 
C 2.683901 1.55874 3 0.795609 3 0 
C 3 -0.795609 2.683901 -1.55874 2.12132 -2.12132 
C 1.55874 -2.683901 0.795609 -3 0 -3 
C -0.795609 -3 -1.55874 -2.683901 -2.12132 -2.12132 
C -2.683901 -1.55874 -3 -0.795609 -3 0 
C -3 0.795609 -2.683901 1.55874 -2.12132 2.12132 
C -1.55874 2.683901 -0.795609 3 0 3 
z
" id="m6bed01bec3" style="stroke:#0000ff;"/>
    </defs>
    <g clip-path="url(#p60d34b40c6)">
     <use style="fill:#0000ff;stroke:#0000ff;" x="55.909091" xlink:href="#m6bed01bec3" y="45.799265"/>
     <use style="fill:#0000ff;stroke:#0000ff;" x="125.040404" xlink:href="#m6bed01bec3" y="45.799265"/>
     <use style="fill:#0000ff;stroke:#0000ff;" x="194.171717" xlink:href="#m6bed01bec3" y="45.799265"/>
     <use style="fill:#0000ff;stroke:#0000ff;" x="263.30303" xlink:href="#m6bed01bec3" y="45.799265"/>
     <use style="fill:#0000ff;stroke:#0000ff;" x="332.434343" xlink:href="#m6bed01bec3" y="45.799265"/>
     <use style="fill:#0000ff;stroke:#0000ff;" x="401.565657" xlink:href="#m6bed01bec3" y="45.799265"/>
     <use style="fill:#0000ff;stroke:#0000ff;" x="470.69697" xlink:href="#m6bed01bec3" y="45.799265"/>
     <use style="fill:#0000ff;stroke:#0000ff;" x="539.828283" xlink:href="#m6bed01bec3" y="45.799265"/>
     <use style="fill:#0000ff;stroke:#0000ff;" x="608.959596" xlink:href="#m6bed01bec3" y="45.799265"/>
     <use style="fill:#0000ff;stroke:#0000ff;" x="678.090909" xlink:href="#m6bed01bec3" y="45.799265"/>
    </g>
   </g>
   <g id="line2d_2">
    <path clip-path="url(#p60d34b40c6)" d="M 24.8 45.799265 
L 709.2 45.799265 
" style="fill:none;stroke:#000000;stroke-dasharray:1.85,0.8;stroke-dashoffset:0;stroke-width:0.5;"/>
   </g>
   <g id="patch_3">
    <path d="M 24.8 78.4 
L 24.8 13.198529 
" style="fill:none;stroke:#000000;stroke-linecap:square;stroke-linejoin:miter;stroke-width:0.8;"/>
   </g>
   <g id="patch_4">
    <path d="M 709.2 78.4 
L 709.2 13.198529 
" style="fill:none;stroke:#000000;stroke-linecap:square;stroke-linejoin:miter;stroke-width:0.8;"/>
   </g>
   <g id="patch_5">
    <path d="M 24.8 78.4 
L 709.2 78.4 
" style="fill:none;stroke:#000000;stroke-linecap:square;stroke-linejoin:miter;stroke-width:0.8;"/>
   </g>
   <g id="patch_6">
    <path d="M 24.8 13.198529 
L 709.2 13.198529 
" style="fill:none;stroke:#000000;stroke-linecap:square;stroke-linejoin:miter;stroke-width:0.8;"/>
   </g>
   <g id="patch_7">
    <path d="M 195.892354 39.279118 
Q 161.679808 39.279118 127.467262 39.279118 
" style="fill:none;stroke:#000000;stroke-linecap:round;"/>
    <path d="M 191.892354 37.279118 
L 195.892354 39.279118 
L 191.892354 41.279118 
" style="fill:none;stroke:#000000;stroke-linecap:round;"/>
    <path d="M 131.467262 41.279118 
L 127.467262 39.279118 
L 131.467262 37.279118 
" style="fill:none;stroke:#000000;stroke-linecap:round;"/>
   </g>
   <g id="text_3">
    <!-- $a$ -->
    <defs>
     <path d="M 53.71875 31.203125 
L 47.609375 0 
L 38.625 0 
L 40.28125 8.296875 
Q 36.328125 3.421875 31.265625 1 
Q 26.21875 -1.421875 20.015625 -1.421875 
Q 13.03125 -1.421875 8.5625 2.84375 
Q 4.109375 7.125 4.109375 13.8125 
Q 4.109375 23.390625 11.75 28.953125 
Q 19.390625 34.515625 32.8125 34.515625 
L 45.3125 34.515625 
L 45.796875 36.921875 
Q 45.90625 37.3125 45.953125 37.765625 
Q 46 38.234375 46 39.203125 
Q 46 43.5625 42.453125 45.96875 
Q 38.921875 48.390625 32.515625 48.390625 
Q 28.125 48.390625 23.5 47.265625 
Q 18.890625 46.140625 14.015625 43.890625 
L 15.578125 52.203125 
Q 20.65625 54.109375 25.515625 55.046875 
Q 30.375 56 34.90625 56 
Q 44.578125 56 49.625 51.796875 
Q 54.6875 47.609375 54.6875 39.59375 
Q 54.6875 37.984375 54.4375 35.8125 
Q 54.203125 33.640625 53.71875 31.203125 
z
M 44 27.484375 
L 35.015625 27.484375 
Q 23.96875 27.484375 18.671875 24.53125 
Q 13.375 21.578125 13.375 15.375 
Q 13.375 11.078125 16.078125 8.640625 
Q 18.796875 6.203125 23.578125 6.203125 
Q 30.90625 6.203125 36.375 11.453125 
Q 41.84375 16.703125 43.609375 25.484375 
z
" id="DejaVuSans-Oblique-97"/>
    </defs>
    <g transform="translate(157.03 36.019044)scale(0.15 -0.15)">
     <use xlink:href="#DejaVuSans-Oblique-97"/>
    </g>
   </g>
   <g id="text_4">
    <g id="patch_8">
     <path d="M 520.787784 40.378502 
L 678.090909 40.378502 
Q 682.590909 40.378502 682.590909 35.878502 
L 682.590909 21.361314 
Q 682.590909 16.861314 678.090909 16.861314 
L 520.787784 16.861314 
Q 516.287784 16.861314 516.287784 21.361314 
L 516.287784 35.878502 
Q 516.287784 40.378502 520.787784 40.378502 
z
" style="fill:#ffffff;opacity:0.9;stroke:#808080;stroke-linejoin:miter;"/>
    </g>
    <!-- Lattice rest structure -->
    <defs>
     <path d="M 9.8125 72.90625 
L 19.671875 72.90625 
L 19.671875 8.296875 
L 55.171875 8.296875 
L 55.171875 0 
L 9.8125 0 
z
" id="DejaVuSans-76"/>
     <path id="DejaVuSans-32"/>
     <path d="M 41.109375 46.296875 
Q 39.59375 47.171875 37.8125 47.578125 
Q 36.03125 48 33.890625 48 
Q 26.265625 48 22.1875 43.046875 
Q 18.109375 38.09375 18.109375 28.8125 
L 18.109375 0 
L 9.078125 0 
L 9.078125 54.6875 
L 18.109375 54.6875 
L 18.109375 46.1875 
Q 20.953125 51.171875 25.484375 53.578125 
Q 30.03125 56 36.53125 56 
Q 37.453125 56 38.578125 55.875 
Q 39.703125 55.765625 41.0625 55.515625 
z
" id="DejaVuSans-114"/>
     <path d="M 8.5 21.578125 
L 8.5 54.6875 
L 17.484375 54.6875 
L 17.484375 21.921875 
Q 17.484375 14.15625 20.5 10.265625 
Q 23.53125 6.390625 29.59375 6.390625 
Q 36.859375 6.390625 41.078125 11.03125 
Q 45.3125 15.671875 45.3125 23.6875 
L 45.3125 54.6875 
L 54.296875 54.6875 
L 54.296875 0 
L 45.3125 0 
L 45.3125 8.40625 
Q 42.046875 3.421875 37.71875 1 
Q 33.40625 -1.421875 27.6875 -1.421875 
Q 18.265625 -1.421875 13.375 4.4375 
Q 8.5 10.296875 8.5 21.578125 
z
M 31.109375 56 
z
" id="DejaVuSans-117"/>
    </defs>
    <g transform="translate(520.787784 32.758971)scale(0.15 -0.15)">
     <use xlink:href="#DejaVuSans-76"/>
     <use x="55.712891" xlink:href="#DejaVuSans-97"/>
     <use x="116.992188" xlink:href="#DejaVuSans-116"/>
     <use x="156.201172" xlink:href="#DejaVuSans-116"/>
     <use x="195.410156" xlink:href="#DejaVuSans-105"/>
     <use x="223.193359" xlink:href="#DejaVuSans-99"/>
     <use x="278.173828" xlink:href="#DejaVuSans-101"/>
     <use x="339.697266" xlink:href="#DejaVuSans-32"/>
     <use x="371.484375" xlink:href="#DejaVuSans-114"/>
     <use x="410.347656" xlink:href="#DejaVuSans-101"/>
     <use x="471.871094" xlink:href="#DejaVuSans-115"/>
     <use x="523.970703" xlink:href="#DejaVuSans-116"/>
     <use x="563.179688" xlink:href="#DejaVuSans-32"/>
     <use x="594.966797" xlink:href="#DejaVuSans-115"/>
     <use x="647.066406" xlink:href="#DejaVuSans-116"/>
     <use x="686.275391" xlink:href="#DejaVuSans-114"/>
     <use x="727.388672" xlink:href="#DejaVuSans-117"/>
     <use x="790.767578" xlink:href="#DejaVuSans-99"/>
     <use x="845.748047" xlink:href="#DejaVuSans-116"/>
     <use x="884.957031" xlink:href="#DejaVuSans-117"/>
     <use x="948.335938" xlink:href="#DejaVuSans-114"/>
     <use x="987.199219" xlink:href="#DejaVuSans-101"/>
    </g>
   </g>
  </g>
  <g id="axes_2">
   <g id="patch_9">
    <path d="M 24.8 170.8 
L 709.2 170.8 
L 709.2 105.598529 
L 24.8 105.598529 
z
" style="fill:none;"/>
   </g>
   <g id="matplotlib.axis_3">
    <g id="text_5">
     <!-- Distance -->
     <g transform="translate(345.1375 182.398438)scale(0.1 -0.1)">
      <use xlink:href="#DejaVuSans-68"/>
      <use x="77.001953" xlink:href="#DejaVuSans-105"/>
      <use x="104.785156" xlink:href="#DejaVuSans-115"/>
      <use x="156.884766" xlink:href="#DejaVuSans-116"/>
      <use x="196.09375" xlink:href="#DejaVuSans-97"/>
      <use x="257.373047" xlink:href="#DejaVuSans-110"/>
      <use x="320.751953" xlink:href="#DejaVuSans-99"/>
      <use x="375.732422" xlink:href="#DejaVuSans-101"/>
     </g>
    </g>
   </g>
   <g id="matplotlib.axis_4">
    <g id="text_6">
     <!-- Displacement -->
     <g transform="translate(18.720312 172.571921)rotate(-90)scale(0.1 -0.1)">
      <use xlink:href="#DejaVuSans-68"/>
      <use x="77.001953" xlink:href="#DejaVuSans-105"/>
      <use x="104.785156" xlink:href="#DejaVuSans-115"/>
      <use x="156.884766" xlink:href="#DejaVuSans-112"/>
      <use x="220.361328" xlink:href="#DejaVuSans-108"/>
      <use x="248.144531" xlink:href="#DejaVuSans-97"/>
      <use x="309.423828" xlink:href="#DejaVuSans-99"/>
      <use x="364.404297" xlink:href="#DejaVuSans-101"/>
      <use x="425.927734" xlink:href="#DejaVuSans-109"/>
      <use x="523.339844" xlink:href="#DejaVuSans-101"/>
      <use x="584.863281" xlink:href="#DejaVuSans-110"/>
      <use x="648.242188" xlink:href="#DejaVuSans-116"/>
     </g>
    </g>
   </g>
   <g id="line2d_3">
    <path clip-path="url(#p6afa0eaeaa)" d="M 55.909091 146.014077 
L 125.040404 134.990734 
L 194.171717 125.468698 
L 263.30303 121.903436 
L 332.434343 125.963173 
L 401.565657 135.748313 
L 470.69697 146.680281 
L 539.828283 153.643887 
L 608.959596 153.380783 
L 678.090909 146.014077 
" style="fill:none;stroke:#ff0000;stroke-dasharray:5.55,2.4;stroke-dashoffset:0;stroke-width:1.5;"/>
    <defs>
     <path d="M 0 3 
C 0.795609 3 1.55874 2.683901 2.12132 2.12132 
C 2.683901 1.55874 3 0.795609 3 0 
C 3 -0.795609 2.683901 -1.55874 2.12132 -2.12132 
C 1.55874 -2.683901 0.795609 -3 0 -3 
C -0.795609 -3 -1.55874 -2.683901 -2.12132 -2.12132 
C -2.683901 -1.55874 -3 -0.795609 -3 0 
C -3 0.795609 -2.683901 1.55874 -2.12132 2.12132 
C -1.55874 2.683901 -0.795609 3 0 3 
z
" id="m65dce9ff6a" style="stroke:#ff0000;"/>
    </defs>
    <g clip-path="url(#p6afa0eaeaa)">
     <use style="fill:#ff0000;stroke:#ff0000;" x="55.909091" xlink:href="#m65dce9ff6a" y="146.014077"/>
     <use style="fill:#ff0000;stroke:#ff0000;" x="125.040404" xlink:href="#m65dce9ff6a" y="134.990734"/>
     <use style="fill:#ff0000;stroke:#ff0000;" x="194.171717" xlink:href="#m65dce9ff6a" y="125.468698"/>
     <use style="fill:#ff0000;stroke:#ff0000;" x="263.30303" xlink:href="#m65dce9ff6a" y="121.903436"/>
     <use style="fill:#ff0000;stroke:#ff0000;" x="332.434343" xlink:href="#m65dce9ff6a" y="125.963173"/>
     <use style="fill:#ff0000;stroke:#ff0000;" x="401.565657" xlink:href="#m65dce9ff6a" y="135.748313"/>
     <use style="fill:#ff0000;stroke:#ff0000;" x="470.69697" xlink:href="#m65dce9ff6a" y="146.680281"/>
     <use style="fill:#ff0000;stroke:#ff0000;" x="539.828283" xlink:href="#m65dce9ff6a" y="153.643887"/>
     <use style="fill:#ff0000;stroke:#ff0000;" x="608.959596" xlink:href="#m65dce9ff6a" y="153.380783"/>
     <use style="fill:#ff0000;stroke:#ff0000;" x="678.090909" xlink:href="#m65dce9ff6a" y="146.014077"/>
    </g>
   </g>
   <g id="line2d_4">
    <path clip-path="url(#p6afa0eaeaa)" d="M 24.8 138.199265 
L 709.2 138.199265 
" style="fill:none;stroke:#000000;stroke-dasharray:1.85,0.8;stroke-dashoffset:0;stroke-width:0.5;"/>
   </g>
   <g id="patch_10">
    <path d="M 24.8 170.8 
L 24.8 105.598529 
" style="fill:none;stroke:#000000;stroke-linecap:square;stroke-linejoin:miter;stroke-width:0.8;"/>
   </g>
   <g id="patch_11">
    <path d="M 709.2 170.8 
L 709.2 105.598529 
" style="fill:none;stroke:#000000;stroke-linecap:square;stroke-linejoin:miter;stroke-width:0.8;"/>
   </g>
   <g id="patch_12">
    <path d="M 24.8 170.8 
L 709.2 170.8 
" style="fill:none;stroke:#000000;stroke-linecap:square;stroke-linejoin:miter;stroke-width:0.8;"/>
   </g>
   <g id="patch_13">
    <path d="M 24.8 105.598529 
L 709.2 105.598529 
" style="fill:none;stroke:#000000;stroke-linecap:square;stroke-linejoin:miter;stroke-width:0.8;"/>
   </g>
   <g id="patch_14">
    <path d="M 363.880685 118.638824 
Q 335.891801 118.638824 306.784883 118.638824 
" style="fill:none;stroke:#000000;stroke-linecap:round;"/>
    <path d="M 359.880685 116.638824 
L 363.880685 118.638824 
L 359.880685 120.638824 
" style="fill:none;stroke:#000000;stroke-linecap:round;"/>
   </g>
   <g id="text_7">
    <!-- $v_p$ -->
    <defs>
     <path d="M 7.171875 54.6875 
L 16.703125 54.6875 
L 24.703125 8.203125 
L 50.875 54.6875 
L 60.40625 54.6875 
L 29.296875 0 
L 17.1875 0 
z
" id="DejaVuSans-Oblique-118"/>
     <path d="M 49.609375 33.6875 
Q 49.609375 40.875 46.484375 44.671875 
Q 43.359375 48.484375 37.5 48.484375 
Q 33.5 48.484375 29.859375 46.4375 
Q 26.21875 44.390625 23.390625 40.484375 
Q 20.609375 36.625 18.9375 31.15625 
Q 17.28125 25.6875 17.28125 20.3125 
Q 17.28125 13.484375 20.40625 9.796875 
Q 23.53125 6.109375 29.296875 6.109375 
Q 33.546875 6.109375 37.1875 8.109375 
Q 40.828125 10.109375 43.40625 13.921875 
Q 46.1875 17.921875 47.890625 23.34375 
Q 49.609375 28.765625 49.609375 33.6875 
z
M 21.78125 46.390625 
Q 25.390625 51.125 30.296875 53.5625 
Q 35.203125 56 41.21875 56 
Q 49.609375 56 54.25 50.5 
Q 58.890625 45.015625 58.890625 35.109375 
Q 58.890625 27 56 19.65625 
Q 53.125 12.3125 47.703125 6.5 
Q 44.09375 2.640625 39.546875 0.609375 
Q 35.015625 -1.421875 29.984375 -1.421875 
Q 24.171875 -1.421875 20.21875 1 
Q 16.265625 3.421875 14.3125 8.203125 
L 8.6875 -20.796875 
L -0.296875 -20.796875 
L 14.40625 54.6875 
L 23.390625 54.6875 
z
" id="DejaVuSans-Oblique-112"/>
    </defs>
    <g transform="translate(367 118.638824)scale(0.15 -0.15)">
     <use transform="translate(0 0.3125)" xlink:href="#DejaVuSans-Oblique-118"/>
     <use transform="translate(59.179688 -16.09375)scale(0.7)" xlink:href="#DejaVuSans-Oblique-112"/>
    </g>
   </g>
   <g id="patch_15">
    <path d="M 696.756364 121.757791 
Q 696.756364 138.200592 696.756364 154.643393 
" style="fill:none;stroke:#000000;stroke-linecap:round;"/>
    <path d="M 694.756364 125.757791 
L 696.756364 121.757791 
L 698.756364 125.757791 
" style="fill:none;stroke:#000000;stroke-linecap:round;"/>
    <path d="M 698.756364 150.643393 
L 696.756364 154.643393 
L 694.756364 150.643393 
" style="fill:none;stroke:#000000;stroke-linecap:round;"/>
   </g>
   <g id="text_8">
    <g id="patch_16">
     <path d="M 525.719034 132.778502 
L 678.090909 132.778502 
Q 682.590909 132.778502 682.590909 128.278502 
L 682.590909 113.761314 
Q 682.590909 109.261314 678.090909 109.261314 
L 525.719034 109.261314 
Q 521.219034 109.261314 521.219034 113.761314 
L 521.219034 128.278502 
Q 521.219034 132.778502 525.719034 132.778502 
z
" style="fill:#ffffff;opacity:0.9;stroke:#808080;stroke-linejoin:miter;"/>
    </g>
    <!-- Transverse vibration -->
    <defs>
     <path d="M -0.296875 72.90625 
L 61.375 72.90625 
L 61.375 64.59375 
L 35.5 64.59375 
L 35.5 0 
L 25.59375 0 
L 25.59375 64.59375 
L -0.296875 64.59375 
z
" id="DejaVuSans-84"/>
     <path d="M 2.984375 54.6875 
L 12.5 54.6875 
L 29.59375 8.796875 
L 46.6875 54.6875 
L 56.203125 54.6875 
L 35.6875 0 
L 23.484375 0 
z
" id="DejaVuSans-118"/>
     <path d="M 48.6875 27.296875 
Q 48.6875 37.203125 44.609375 42.84375 
Q 40.53125 48.484375 33.40625 48.484375 
Q 26.265625 48.484375 22.1875 42.84375 
Q 18.109375 37.203125 18.109375 27.296875 
Q 18.109375 17.390625 22.1875 11.75 
Q 26.265625 6.109375 33.40625 6.109375 
Q 40.53125 6.109375 44.609375 11.75 
Q 48.6875 17.390625 48.6875 27.296875 
z
M 18.109375 46.390625 
Q 20.953125 51.265625 25.265625 53.625 
Q 29.59375 56 35.59375 56 
Q 45.5625 56 51.78125 48.09375 
Q 58.015625 40.1875 58.015625 27.296875 
Q 58.015625 14.40625 51.78125 6.484375 
Q 45.5625 -1.421875 35.59375 -1.421875 
Q 29.59375 -1.421875 25.265625 0.953125 
Q 20.953125 3.328125 18.109375 8.203125 
L 18.109375 0 
L 9.078125 0 
L 9.078125 75.984375 
L 18.109375 75.984375 
z
" id="DejaVuSans-98"/>
     <path d="M 30.609375 48.390625 
Q 23.390625 48.390625 19.1875 42.75 
Q 14.984375 37.109375 14.984375 27.296875 
Q 14.984375 17.484375 19.15625 11.84375 
Q 23.34375 6.203125 30.609375 6.203125 
Q 37.796875 6.203125 41.984375 11.859375 
Q 46.1875 17.53125 46.1875 27.296875 
Q 46.1875 37.015625 41.984375 42.703125 
Q 37.796875 48.390625 30.609375 48.390625 
z
M 30.609375 56 
Q 42.328125 56 49.015625 48.375 
Q 55.71875 40.765625 55.71875 27.296875 
Q 55.71875 13.875 49.015625 6.21875 
Q 42.328125 -1.421875 30.609375 -1.421875 
Q 18.84375 -1.421875 12.171875 6.21875 
Q 5.515625 13.875 5.515625 27.296875 
Q 5.515625 40.765625 12.171875 48.375 
Q 18.84375 56 30.609375 56 
z
" id="DejaVuSans-111"/>
    </defs>
    <g transform="translate(525.719034 125.158971)scale(0.15 -0.15)">
     <use xlink:href="#DejaVuSans-84"/>
     <use x="46.333984" xlink:href="#DejaVuSans-114"/>
     <use x="87.447266" xlink:href="#DejaVuSans-97"/>
     <use x="148.726562" xlink:href="#DejaVuSans-110"/>
     <use x="212.105469" xlink:href="#DejaVuSans-115"/>
     <use x="264.205078" xlink:href="#DejaVuSans-118"/>
     <use x="323.384766" xlink:href="#DejaVuSans-101"/>
     <use x="384.908203" xlink:href="#DejaVuSans-114"/>
     <use x="426.021484" xlink:href="#DejaVuSans-115"/>
     <use x="478.121094" xlink:href="#DejaVuSans-101"/>
     <use x="539.644531" xlink:href="#DejaVuSans-32"/>
     <use x="571.431641" xlink:href="#DejaVuSans-118"/>
     <use x="630.611328" xlink:href="#DejaVuSans-105"/>
     <use x="658.394531" xlink:href="#DejaVuSans-98"/>
     <use x="721.871094" xlink:href="#DejaVuSans-114"/>
     <use x="762.984375" xlink:href="#DejaVuSans-97"/>
     <use x="824.263672" xlink:href="#DejaVuSans-116"/>
     <use x="863.472656" xlink:href="#DejaVuSans-105"/>
     <use x="891.255859" xlink:href="#DejaVuSans-111"/>
     <use x="952.4375" xlink:href="#DejaVuSans-110"/>
    </g>
   </g>
  </g>
  <g id="axes_3">
   <g id="patch_17">
    <path d="M 24.8 263.2 
L 709.2 263.2 
L 709.2 197.998529 
L 24.8 197.998529 
z
" style="fill:none;"/>
   </g>
   <g id="matplotlib.axis_5">
    <g id="text_9">
     <!-- Distance -->
     <g transform="translate(345.1375 274.798437)scale(0.1 -0.1)">
      <use xlink:href="#DejaVuSans-68"/>
      <use x="77.001953" xlink:href="#DejaVuSans-105"/>
      <use x="104.785156" xlink:href="#DejaVuSans-115"/>
      <use x="156.884766" xlink:href="#DejaVuSans-116"/>
      <use x="196.09375" xlink:href="#DejaVuSans-97"/>
      <use x="257.373047" xlink:href="#DejaVuSans-110"/>
      <use x="320.751953" xlink:href="#DejaVuSans-99"/>
      <use x="375.732422" xlink:href="#DejaVuSans-101"/>
     </g>
    </g>
   </g>
   <g id="matplotlib.axis_6">
    <g id="text_10">
     <!-- Displacement -->
     <g transform="translate(18.720312 264.971921)rotate(-90)scale(0.1 -0.1)">
      <use xlink:href="#DejaVuSans-68"/>
      <use x="77.001953" xlink:href="#DejaVuSans-105"/>
      <use x="104.785156" xlink:href="#DejaVuSans-115"/>
      <use x="156.884766" xlink:href="#DejaVuSans-112"/>
      <use x="220.361328" xlink:href="#DejaVuSans-108"/>
      <use x="248.144531" xlink:href="#DejaVuSans-97"/>
      <use x="309.423828" xlink:href="#DejaVuSans-99"/>
      <use x="364.404297" xlink:href="#DejaVuSans-101"/>
      <use x="425.927734" xlink:href="#DejaVuSans-109"/>
      <use x="523.339844" xlink:href="#DejaVuSans-101"/>
      <use x="584.863281" xlink:href="#DejaVuSans-110"/>
      <use x="648.242188" xlink:href="#DejaVuSans-116"/>
     </g>
    </g>
   </g>
   <g id="line2d_5">
    <path clip-path="url(#pe54b2a7a5d)" d="M 55.909091 230.599265 
L 167.116287 230.599265 
L 272.593024 230.599265 
L 355.332874 230.599265 
L 408.96825 230.599265 
L 440.749875 230.599265 
L 468.154082 230.599265 
L 510.705449 230.599265 
L 580.841026 230.599265 
L 678.090909 230.599265 
" style="fill:none;stroke:#008000;stroke-dasharray:5.55,2.4;stroke-dashoffset:0;stroke-width:1.5;"/>
    <defs>
     <path d="M 0 3 
C 0.795609 3 1.55874 2.683901 2.12132 2.12132 
C 2.683901 1.55874 3 0.795609 3 0 
C 3 -0.795609 2.683901 -1.55874 2.12132 -2.12132 
C 1.55874 -2.683901 0.795609 -3 0 -3 
C -0.795609 -3 -1.55874 -2.683901 -2.12132 -2.12132 
C -2.683901 -1.55874 -3 -0.795609 -3 0 
C -3 0.795609 -2.683901 1.55874 -2.12132 2.12132 
C -1.55874 2.683901 -0.795609 3 0 3 
z
" id="m98e6301b26" style="stroke:#008000;"/>
    </defs>
    <g clip-path="url(#pe54b2a7a5d)">
     <use style="fill:#008000;stroke:#008000;" x="55.909091" xlink:href="#m98e6301b26" y="230.599265"/>
     <use style="fill:#008000;stroke:#008000;" x="167.116287" xlink:href="#m98e6301b26" y="230.599265"/>
     <use style="fill:#008000;stroke:#008000;" x="272.593024" xlink:href="#m98e6301b26" y="230.599265"/>
     <use style="fill:#008000;stroke:#008000;" x="355.332874" xlink:href="#m98e6301b26" y="230.599265"/>
     <use style="fill:#008000;stroke:#008000;" x="408.96825" xlink:href="#m98e6301b26" y="230.599265"/>
     <use style="fill:#008000;stroke:#008000;" x="440.749875" xlink:href="#m98e6301b26" y="230.599265"/>
     <use style="fill:#008000;stroke:#008000;" x="468.154082" xlink:href="#m98e6301b26" y="230.599265"/>
     <use style="fill:#008000;stroke:#008000;" x="510.705449" xlink:href="#m98e6301b26" y="230.599265"/>
     <use style="fill:#008000;stroke:#008000;" x="580.841026" xlink:href="#m98e6301b26" y="230.599265"/>
     <use style="fill:#008000;stroke:#008000;" x="678.090909" xlink:href="#m98e6301b26" y="230.599265"/>
    </g>
   </g>
   <g id="line2d_6">
    <path clip-path="url(#pe54b2a7a5d)" d="M 24.8 230.599265 
L 709.2 230.599265 
" style="fill:none;stroke:#000000;stroke-dasharray:1.85,0.8;stroke-dashoffset:0;stroke-width:0.5;"/>
   </g>
   <g id="patch_18">
    <path d="M 24.8 263.2 
L 24.8 197.998529 
" style="fill:none;stroke:#000000;stroke-linecap:square;stroke-linejoin:miter;stroke-width:0.8;"/>
   </g>
   <g id="patch_19">
    <path d="M 709.2 263.2 
L 709.2 197.998529 
" style="fill:none;stroke:#000000;stroke-linecap:square;stroke-linejoin:miter;stroke-width:0.8;"/>
   </g>
   <g id="patch_20">
    <path d="M 24.8 263.2 
L 709.2 263.2 
" style="fill:none;stroke:#000000;stroke-linecap:square;stroke-linejoin:miter;stroke-width:0.8;"/>
   </g>
   <g id="patch_21">
    <path d="M 24.8 197.998529 
L 709.2 197.998529 
" style="fill:none;stroke:#000000;stroke-linecap:square;stroke-linejoin:miter;stroke-width:0.8;"/>
   </g>
   <g id="patch_22">
    <path d="M 300.382398 224.079118 
Q 272.393514 224.079118 244.404629 224.079118 
" style="fill:none;stroke:#000000;stroke-linecap:round;"/>
    <path d="M 296.382398 222.079118 
L 300.382398 224.079118 
L 296.382398 226.079118 
" style="fill:none;stroke:#000000;stroke-linecap:round;"/>
    <path d="M 248.404629 226.079118 
L 244.404629 224.079118 
L 248.404629 222.079118 
" style="fill:none;stroke:#000000;stroke-linecap:round;"/>
   </g>
   <g id="patch_23">
    <path d="M 393.709671 214.298897 
Q 365.720786 214.298897 336.613868 214.298897 
" style="fill:none;stroke:#000000;stroke-linecap:round;"/>
    <path d="M 389.709671 212.298897 
L 393.709671 214.298897 
L 389.709671 216.298897 
" style="fill:none;stroke:#000000;stroke-linecap:round;"/>
   </g>
   <g id="text_11">
    <!-- $v_p$ -->
    <g transform="translate(396.828985 214.298897)scale(0.15 -0.15)">
     <use transform="translate(0 0.3125)" xlink:href="#DejaVuSans-Oblique-118"/>
     <use transform="translate(59.179688 -16.09375)scale(0.7)" xlink:href="#DejaVuSans-Oblique-112"/>
    </g>
   </g>
   <g id="text_12">
    <g id="patch_24">
     <path d="M 519.195122 225.178502 
L 683.032622 225.178502 
Q 687.532622 225.178502 687.532622 220.678502 
L 687.532622 206.161314 
Q 687.532622 201.661314 683.032622 201.661314 
L 519.195122 201.661314 
Q 514.695122 201.661314 514.695122 206.161314 
L 514.695122 220.678502 
Q 514.695122 225.178502 519.195122 225.178502 
z
" style="fill:#ffffff;opacity:0.9;stroke:#808080;stroke-linejoin:miter;"/>
    </g>
    <!-- Longitudinal vibration -->
    <defs>
     <path d="M 45.40625 27.984375 
Q 45.40625 37.75 41.375 43.109375 
Q 37.359375 48.484375 30.078125 48.484375 
Q 22.859375 48.484375 18.828125 43.109375 
Q 14.796875 37.75 14.796875 27.984375 
Q 14.796875 18.265625 18.828125 12.890625 
Q 22.859375 7.515625 30.078125 7.515625 
Q 37.359375 7.515625 41.375 12.890625 
Q 45.40625 18.265625 45.40625 27.984375 
z
M 54.390625 6.78125 
Q 54.390625 -7.171875 48.1875 -13.984375 
Q 42 -20.796875 29.203125 -20.796875 
Q 24.46875 -20.796875 20.265625 -20.09375 
Q 16.0625 -19.390625 12.109375 -17.921875 
L 12.109375 -9.1875 
Q 16.0625 -11.328125 19.921875 -12.34375 
Q 23.78125 -13.375 27.78125 -13.375 
Q 36.625 -13.375 41.015625 -8.765625 
Q 45.40625 -4.15625 45.40625 5.171875 
L 45.40625 9.625 
Q 42.625 4.78125 38.28125 2.390625 
Q 33.9375 0 27.875 0 
Q 17.828125 0 11.671875 7.65625 
Q 5.515625 15.328125 5.515625 27.984375 
Q 5.515625 40.671875 11.671875 48.328125 
Q 17.828125 56 27.875 56 
Q 33.9375 56 38.28125 53.609375 
Q 42.625 51.21875 45.40625 46.390625 
L 45.40625 54.6875 
L 54.390625 54.6875 
z
" id="DejaVuSans-103"/>
     <path d="M 45.40625 46.390625 
L 45.40625 75.984375 
L 54.390625 75.984375 
L 54.390625 0 
L 45.40625 0 
L 45.40625 8.203125 
Q 42.578125 3.328125 38.25 0.953125 
Q 33.9375 -1.421875 27.875 -1.421875 
Q 17.96875 -1.421875 11.734375 6.484375 
Q 5.515625 14.40625 5.515625 27.296875 
Q 5.515625 40.1875 11.734375 48.09375 
Q 17.96875 56 27.875 56 
Q 33.9375 56 38.25 53.625 
Q 42.578125 51.265625 45.40625 46.390625 
z
M 14.796875 27.296875 
Q 14.796875 17.390625 18.875 11.75 
Q 22.953125 6.109375 30.078125 6.109375 
Q 37.203125 6.109375 41.296875 11.75 
Q 45.40625 17.390625 45.40625 27.296875 
Q 45.40625 37.203125 41.296875 42.84375 
Q 37.203125 48.484375 30.078125 48.484375 
Q 22.953125 48.484375 18.875 42.84375 
Q 14.796875 37.203125 14.796875 27.296875 
z
" id="DejaVuSans-100"/>
    </defs>
    <g transform="translate(519.195122 217.558971)scale(0.15 -0.15)">
     <use xlink:href="#DejaVuSans-76"/>
     <use x="53.962891" xlink:href="#DejaVuSans-111"/>
     <use x="115.144531" xlink:href="#DejaVuSans-110"/>
     <use x="178.523438" xlink:href="#DejaVuSans-103"/>
     <use x="242" xlink:href="#DejaVuSans-105"/>
     <use x="269.783203" xlink:href="#DejaVuSans-116"/>
     <use x="308.992188" xlink:href="#DejaVuSans-117"/>
     <use x="372.371094" xlink:href="#DejaVuSans-100"/>
     <use x="435.847656" xlink:href="#DejaVuSans-105"/>
     <use x="463.630859" xlink:href="#DejaVuSans-110"/>
     <use x="527.009766" xlink:href="#DejaVuSans-97"/>
     <use x="588.289062" xlink:href="#DejaVuSans-108"/>
     <use x="616.072266" xlink:href="#DejaVuSans-32"/>
     <use x="647.859375" xlink:href="#DejaVuSans-118"/>
     <use x="707.039062" xlink:href="#DejaVuSans-105"/>
     <use x="734.822266" xlink:href="#DejaVuSans-98"/>
     <use x="798.298828" xlink:href="#DejaVuSans-114"/>
     <use x="839.412109" xlink:href="#DejaVuSans-97"/>
     <use x="900.691406" xlink:href="#DejaVuSans-116"/>
     <use x="939.900391" xlink:href="#DejaVuSans-105"/>
     <use x="967.683594" xlink:href="#DejaVuSans-111"/>
     <use x="1028.865234" xlink:href="#DejaVuSans-110"/>
    </g>
   </g>
  </g>
 </g>
 <defs>
  <clipPath id="p60d34b40c6">
   <rect height="65.201471" width="684.4" x="24.8" y="13.198529"/>
  </clipPath>
  <clipPath id="p6afa0eaeaa">
   <rect height="65.201471" width="684.4" x="24.8" y="105.598529"/>
  </clipPath>
  <clipPath id="pe54b2a7a5d">
   <rect height="65.201471" width="684.4" x="24.8" y="197.998529"/>
  </clipPath>
 </defs>
</svg>
