<?xml version="1.0" encoding="utf-8" standalone="no"?>
<!DOCTYPE svg PUBLIC "-//W3C//DTD SVG 1.1//EN"
  "http://www.w3.org/Graphics/SVG/1.1/DTD/svg11.dtd">
<!-- Created with matplotlib (https://matplotlib.org/) -->
<svg height="144pt" version="1.1" viewBox="0 0 576 144" width="576pt" xmlns="http://www.w3.org/2000/svg" xmlns:xlink="http://www.w3.org/1999/xlink">
 <defs>
  <style type="text/css">
*{stroke-linecap:butt;stroke-linejoin:round;}
  </style>
 </defs>
 <g id="figure_1">
  <g id="patch_1">
   <path d="M 0 144 
L 576 144 
L 576 0 
L 0 0 
z
" style="fill:none;"/>
  </g>
  <g id="axes_1">
   <g id="patch_2">
    <path d="M 24.8 98.2 
L 565.2 98.2 
L 565.2 10.8 
L 24.8 10.8 
z
" style="fill:none;"/>
   </g>
   <g id="matplotlib.axis_1">
    <g id="xtick_1">
     <g id="line2d_1">
      <defs>
       <path d="M 0 0 
L 0 3.5 
" id="m01134888ef" style="stroke:#000000;stroke-width:0.8;"/>
      </defs>
      <g>
       <use style="stroke:#000000;stroke-width:0.8;" x="295" xlink:href="#m01134888ef" y="98.2"/>
      </g>
     </g>
     <g id="text_1">
      <!-- 0 -->
      <defs>
       <path d="M 31.78125 66.40625 
Q 24.171875 66.40625 20.328125 58.90625 
Q 16.5 51.421875 16.5 36.375 
Q 16.5 21.390625 20.328125 13.890625 
Q 24.171875 6.390625 31.78125 6.390625 
Q 39.453125 6.390625 43.28125 13.890625 
Q 47.125 21.390625 47.125 36.375 
Q 47.125 51.421875 43.28125 58.90625 
Q 39.453125 66.40625 31.78125 66.40625 
z
M 31.78125 74.21875 
Q 44.046875 74.21875 50.515625 64.515625 
Q 56.984375 54.828125 56.984375 36.375 
Q 56.984375 17.96875 50.515625 8.265625 
Q 44.046875 -1.421875 31.78125 -1.421875 
Q 19.53125 -1.421875 13.0625 8.265625 
Q 6.59375 17.96875 6.59375 36.375 
Q 6.59375 54.828125 13.0625 64.515625 
Q 19.53125 74.21875 31.78125 74.21875 
z
" id="DejaVuSans-48"/>
      </defs>
      <g transform="translate(291.81875 112.798438)scale(0.1 -0.1)">
       <use xlink:href="#DejaVuSans-48"/>
      </g>
     </g>
    </g>
    <g id="text_2">
     <!-- Image coordinate $X$  -->
     <defs>
      <path d="M 9.8125 72.90625 
L 19.671875 72.90625 
L 19.671875 0 
L 9.8125 0 
z
" id="DejaVuSans-73"/>
      <path d="M 52 44.1875 
Q 55.375 50.25 60.0625 53.125 
Q 64.75 56 71.09375 56 
Q 79.640625 56 84.28125 50.015625 
Q 88.921875 44.046875 88.921875 33.015625 
L 88.921875 0 
L 79.890625 0 
L 79.890625 32.71875 
Q 79.890625 40.578125 77.09375 44.375 
Q 74.3125 48.1875 68.609375 48.1875 
Q 61.625 48.1875 57.5625 43.546875 
Q 53.515625 38.921875 53.515625 30.90625 
L 53.515625 0 
L 44.484375 0 
L 44.484375 32.71875 
Q 44.484375 40.625 41.703125 44.40625 
Q 38.921875 48.1875 33.109375 48.1875 
Q 26.21875 48.1875 22.15625 43.53125 
Q 18.109375 38.875 18.109375 30.90625 
L 18.109375 0 
L 9.078125 0 
L 9.078125 54.6875 
L 18.109375 54.6875 
L 18.109375 46.1875 
Q 21.1875 51.21875 25.484375 53.609375 
Q 29.78125 56 35.6875 56 
Q 41.65625 56 45.828125 52.96875 
Q 50 49.953125 52 44.1875 
z
" id="DejaVuSans-109"/>
      <path d="M 34.28125 27.484375 
Q 23.390625 27.484375 19.1875 25 
Q 14.984375 22.515625 14.984375 16.5 
Q 14.984375 11.71875 18.140625 8.90625 
Q 21.296875 6.109375 26.703125 6.109375 
Q 34.1875 6.109375 38.703125 11.40625 
Q 43.21875 16.703125 43.21875 25.484375 
L 43.21875 27.484375 
z
M 52.203125 31.203125 
L 52.203125 0 
L 43.21875 0 
L 43.21875 8.296875 
Q 40.140625 3.328125 35.546875 0.953125 
Q 30.953125 -1.421875 24.3125 -1.421875 
Q 15.921875 -1.421875 10.953125 3.296875 
Q 6 8.015625 6 15.921875 
Q 6 25.140625 12.171875 29.828125 
Q 18.359375 34.515625 30.609375 34.515625 
L 43.21875 34.515625 
L 43.21875 35.40625 
Q 43.21875 41.609375 39.140625 45 
Q 35.0625 48.390625 27.6875 48.390625 
Q 23 48.390625 18.546875 47.265625 
Q 14.109375 46.140625 10.015625 43.890625 
L 10.015625 52.203125 
Q 14.9375 54.109375 19.578125 55.046875 
Q 24.21875 56 28.609375 56 
Q 40.484375 56 46.34375 49.84375 
Q 52.203125 43.703125 52.203125 31.203125 
z
" id="DejaVuSans-97"/>
      <path d="M 45.40625 27.984375 
Q 45.40625 37.75 41.375 43.109375 
Q 37.359375 48.484375 30.078125 48.484375 
Q 22.859375 48.484375 18.828125 43.109375 
Q 14.796875 37.75 14.796875 27.984375 
Q 14.796875 18.265625 18.828125 12.890625 
Q 22.859375 7.515625 30.078125 7.515625 
Q 37.359375 7.515625 41.375 12.890625 
Q 45.40625 18.265625 45.40625 27.984375 
z
M 54.390625 6.78125 
Q 54.390625 -7.171875 48.1875 -13.984375 
Q 42 -20.796875 29.203125 -20.796875 
Q 24.46875 -20.796875 20.265625 -20.09375 
Q 16.0625 -19.390625 12.109375 -17.921875 
L 12.109375 -9.1875 
Q 16.0625 -11.328125 19.921875 -12.34375 
Q 23.78125 -13.375 27.78125 -13.375 
Q 36.625 -13.375 41.015625 -8.765625 
Q 45.40625 -4.15625 45.40625 5.171875 
L 45.40625 9.625 
Q 42.625 4.78125 38.28125 2.390625 
Q 33.9375 0 27.875 0 
Q 17.828125 0 11.671875 7.65625 
Q 5.515625 15.328125 5.515625 27.984375 
Q 5.515625 40.671875 11.671875 48.328125 
Q 17.828125 56 27.875 56 
Q 33.9375 56 38.28125 53.609375 
Q 42.625 51.21875 45.40625 46.390625 
L 45.40625 54.6875 
L 54.390625 54.6875 
z
" id="DejaVuSans-103"/>
      <path d="M 56.203125 29.59375 
L 56.203125 25.203125 
L 14.890625 25.203125 
Q 15.484375 15.921875 20.484375 11.0625 
Q 25.484375 6.203125 34.421875 6.203125 
Q 39.59375 6.203125 44.453125 7.46875 
Q 49.3125 8.734375 54.109375 11.28125 
L 54.109375 2.78125 
Q 49.265625 0.734375 44.1875 -0.34375 
Q 39.109375 -1.421875 33.890625 -1.421875 
Q 20.796875 -1.421875 13.15625 6.1875 
Q 5.515625 13.8125 5.515625 26.8125 
Q 5.515625 40.234375 12.765625 48.109375 
Q 20.015625 56 32.328125 56 
Q 43.359375 56 49.78125 48.890625 
Q 56.203125 41.796875 56.203125 29.59375 
z
M 47.21875 32.234375 
Q 47.125 39.59375 43.09375 43.984375 
Q 39.0625 48.390625 32.421875 48.390625 
Q 24.90625 48.390625 20.390625 44.140625 
Q 15.875 39.890625 15.1875 32.171875 
z
" id="DejaVuSans-101"/>
      <path id="DejaVuSans-32"/>
      <path d="M 48.78125 52.59375 
L 48.78125 44.1875 
Q 44.96875 46.296875 41.140625 47.34375 
Q 37.3125 48.390625 33.40625 48.390625 
Q 24.65625 48.390625 19.8125 42.84375 
Q 14.984375 37.3125 14.984375 27.296875 
Q 14.984375 17.28125 19.8125 11.734375 
Q 24.65625 6.203125 33.40625 6.203125 
Q 37.3125 6.203125 41.140625 7.25 
Q 44.96875 8.296875 48.78125 10.40625 
L 48.78125 2.09375 
Q 45.015625 0.34375 40.984375 -0.53125 
Q 36.96875 -1.421875 32.421875 -1.421875 
Q 20.0625 -1.421875 12.78125 6.34375 
Q 5.515625 14.109375 5.515625 27.296875 
Q 5.515625 40.671875 12.859375 48.328125 
Q 20.21875 56 33.015625 56 
Q 37.15625 56 41.109375 55.140625 
Q 45.0625 54.296875 48.78125 52.59375 
z
" id="DejaVuSans-99"/>
      <path d="M 30.609375 48.390625 
Q 23.390625 48.390625 19.1875 42.75 
Q 14.984375 37.109375 14.984375 27.296875 
Q 14.984375 17.484375 19.15625 11.84375 
Q 23.34375 6.203125 30.609375 6.203125 
Q 37.796875 6.203125 41.984375 11.859375 
Q 46.1875 17.53125 46.1875 27.296875 
Q 46.1875 37.015625 41.984375 42.703125 
Q 37.796875 48.390625 30.609375 48.390625 
z
M 30.609375 56 
Q 42.328125 56 49.015625 48.375 
Q 55.71875 40.765625 55.71875 27.296875 
Q 55.71875 13.875 49.015625 6.21875 
Q 42.328125 -1.421875 30.609375 -1.421875 
Q 18.84375 -1.421875 12.171875 6.21875 
Q 5.515625 13.875 5.515625 27.296875 
Q 5.515625 40.765625 12.171875 48.375 
Q 18.84375 56 30.609375 56 
z
" id="DejaVuSans-111"/>
      <path d="M 41.109375 46.296875 
Q 39.59375 47.171875 37.8125 47.578125 
Q 36.03125 48 33.890625 48 
Q 26.265625 48 22.1875 43.046875 
Q 18.109375 38.09375 18.109375 28.8125 
L 18.109375 0 
L 9.078125 0 
L 9.078125 54.6875 
L 18.109375 54.6875 
L 18.109375 46.1875 
Q 20.953125 51.171875 25.484375 53.578125 
Q 30.03125 56 36.53125 56 
Q 37.453125 56 38.578125 55.875 
Q 39.703125 55.765625 41.0625 55.515625 
z
" id="DejaVuSans-114"/>
      <path d="M 45.40625 46.390625 
L 45.40625 75.984375 
L 54.390625 75.984375 
L 54.390625 0 
L 45.40625 0 
L 45.40625 8.203125 
Q 42.578125 3.328125 38.25 0.953125 
Q 33.9375 -1.421875 27.875 -1.421875 
Q 17.96875 -1.421875 11.734375 6.484375 
Q 5.515625 14.40625 5.515625 27.296875 
Q 5.515625 40.1875 11.734375 48.09375 
Q 17.96875 56 27.875 56 
Q 33.9375 56 38.25 53.625 
Q 42.578125 51.265625 45.40625 46.390625 
z
M 14.796875 27.296875 
Q 14.796875 17.390625 18.875 11.75 
Q 22.953125 6.109375 30.078125 6.109375 
Q 37.203125 6.109375 41.296875 11.75 
Q 45.40625 17.390625 45.40625 27.296875 
Q 45.40625 37.203125 41.296875 42.84375 
Q 37.203125 48.484375 30.078125 48.484375 
Q 22.953125 48.484375 18.875 42.84375 
Q 14.796875 37.203125 14.796875 27.296875 
z
" id="DejaVuSans-100"/>
      <path d="M 9.421875 54.6875 
L 18.40625 54.6875 
L 18.40625 0 
L 9.421875 0 
z
M 9.421875 75.984375 
L 18.40625 75.984375 
L 18.40625 64.59375 
L 9.421875 64.59375 
z
" id="DejaVuSans-105"/>
      <path d="M 54.890625 33.015625 
L 54.890625 0 
L 45.90625 0 
L 45.90625 32.71875 
Q 45.90625 40.484375 42.875 44.328125 
Q 39.84375 48.1875 33.796875 48.1875 
Q 26.515625 48.1875 22.3125 43.546875 
Q 18.109375 38.921875 18.109375 30.90625 
L 18.109375 0 
L 9.078125 0 
L 9.078125 54.6875 
L 18.109375 54.6875 
L 18.109375 46.1875 
Q 21.34375 51.125 25.703125 53.5625 
Q 30.078125 56 35.796875 56 
Q 45.21875 56 50.046875 50.171875 
Q 54.890625 44.34375 54.890625 33.015625 
z
" id="DejaVuSans-110"/>
      <path d="M 18.3125 70.21875 
L 18.3125 54.6875 
L 36.8125 54.6875 
L 36.8125 47.703125 
L 18.3125 47.703125 
L 18.3125 18.015625 
Q 18.3125 11.328125 20.140625 9.421875 
Q 21.96875 7.515625 27.59375 7.515625 
L 36.8125 7.515625 
L 36.8125 0 
L 27.59375 0 
Q 17.1875 0 13.234375 3.875 
Q 9.28125 7.765625 9.28125 18.015625 
L 9.28125 47.703125 
L 2.6875 47.703125 
L 2.6875 54.6875 
L 9.28125 54.6875 
L 9.28125 70.21875 
z
" id="DejaVuSans-116"/>
      <path d="M 13.71875 72.90625 
L 23.6875 72.90625 
L 36.1875 46.578125 
L 58.796875 72.90625 
L 70.3125 72.90625 
L 40.28125 38.09375 
L 58.40625 0 
L 48.484375 0 
L 33.796875 30.71875 
L 7.171875 0 
L -4.296875 0 
L 29.78125 39.203125 
z
" id="DejaVuSans-Oblique-88"/>
     </defs>
     <g transform="translate(242.0275 126.858125)scale(0.105 -0.105)">
      <use transform="translate(0 0.015625)" xlink:href="#DejaVuSans-73"/>
      <use transform="translate(25.867188 0.015625)" xlink:href="#DejaVuSans-109"/>
      <use transform="translate(123.279297 0.015625)" xlink:href="#DejaVuSans-97"/>
      <use transform="translate(184.558594 0.015625)" xlink:href="#DejaVuSans-103"/>
      <use transform="translate(248.035156 0.015625)" xlink:href="#DejaVuSans-101"/>
      <use transform="translate(309.558594 0.015625)" xlink:href="#DejaVuSans-32"/>
      <use transform="translate(341.345703 0.015625)" xlink:href="#DejaVuSans-99"/>
      <use transform="translate(396.326172 0.015625)" xlink:href="#DejaVuSans-111"/>
      <use transform="translate(457.507812 0.015625)" xlink:href="#DejaVuSans-111"/>
      <use transform="translate(518.689453 0.015625)" xlink:href="#DejaVuSans-114"/>
      <use transform="translate(559.802734 0.015625)" xlink:href="#DejaVuSans-100"/>
      <use transform="translate(623.279297 0.015625)" xlink:href="#DejaVuSans-105"/>
      <use transform="translate(651.0625 0.015625)" xlink:href="#DejaVuSans-110"/>
      <use transform="translate(714.441406 0.015625)" xlink:href="#DejaVuSans-97"/>
      <use transform="translate(775.720703 0.015625)" xlink:href="#DejaVuSans-116"/>
      <use transform="translate(814.929688 0.015625)" xlink:href="#DejaVuSans-101"/>
      <use transform="translate(876.453125 0.015625)" xlink:href="#DejaVuSans-32"/>
      <use transform="translate(908.240234 0.015625)" xlink:href="#DejaVuSans-Oblique-88"/>
      <use transform="translate(976.746094 0.015625)" xlink:href="#DejaVuSans-32"/>
     </g>
    </g>
   </g>
   <g id="matplotlib.axis_2">
    <g id="text_3">
     <!-- Relative intensity -->
     <defs>
      <path d="M 44.390625 34.1875 
Q 47.5625 33.109375 50.5625 29.59375 
Q 53.5625 26.078125 56.59375 19.921875 
L 66.609375 0 
L 56 0 
L 46.6875 18.703125 
Q 43.0625 26.03125 39.671875 28.421875 
Q 36.28125 30.8125 30.421875 30.8125 
L 19.671875 30.8125 
L 19.671875 0 
L 9.8125 0 
L 9.8125 72.90625 
L 32.078125 72.90625 
Q 44.578125 72.90625 50.734375 67.671875 
Q 56.890625 62.453125 56.890625 51.90625 
Q 56.890625 45.015625 53.6875 40.46875 
Q 50.484375 35.9375 44.390625 34.1875 
z
M 19.671875 64.796875 
L 19.671875 38.921875 
L 32.078125 38.921875 
Q 39.203125 38.921875 42.84375 42.21875 
Q 46.484375 45.515625 46.484375 51.90625 
Q 46.484375 58.296875 42.84375 61.546875 
Q 39.203125 64.796875 32.078125 64.796875 
z
" id="DejaVuSans-82"/>
      <path d="M 9.421875 75.984375 
L 18.40625 75.984375 
L 18.40625 0 
L 9.421875 0 
z
" id="DejaVuSans-108"/>
      <path d="M 2.984375 54.6875 
L 12.5 54.6875 
L 29.59375 8.796875 
L 46.6875 54.6875 
L 56.203125 54.6875 
L 35.6875 0 
L 23.484375 0 
z
" id="DejaVuSans-118"/>
      <path d="M 44.28125 53.078125 
L 44.28125 44.578125 
Q 40.484375 46.53125 36.375 47.5 
Q 32.28125 48.484375 27.875 48.484375 
Q 21.1875 48.484375 17.84375 46.4375 
Q 14.5 44.390625 14.5 40.28125 
Q 14.5 37.15625 16.890625 35.375 
Q 19.28125 33.59375 26.515625 31.984375 
L 29.59375 31.296875 
Q 39.15625 29.25 43.1875 25.515625 
Q 47.21875 21.78125 47.21875 15.09375 
Q 47.21875 7.46875 41.1875 3.015625 
Q 35.15625 -1.421875 24.609375 -1.421875 
Q 20.21875 -1.421875 15.453125 -0.5625 
Q 10.6875 0.296875 5.421875 2 
L 5.421875 11.28125 
Q 10.40625 8.6875 15.234375 7.390625 
Q 20.0625 6.109375 24.8125 6.109375 
Q 31.15625 6.109375 34.5625 8.28125 
Q 37.984375 10.453125 37.984375 14.40625 
Q 37.984375 18.0625 35.515625 20.015625 
Q 33.0625 21.96875 24.703125 23.78125 
L 21.578125 24.515625 
Q 13.234375 26.265625 9.515625 29.90625 
Q 5.8125 33.546875 5.8125 39.890625 
Q 5.8125 47.609375 11.28125 51.796875 
Q 16.75 56 26.8125 56 
Q 31.78125 56 36.171875 55.265625 
Q 40.578125 54.546875 44.28125 53.078125 
z
" id="DejaVuSans-115"/>
      <path d="M 32.171875 -5.078125 
Q 28.375 -14.84375 24.75 -17.8125 
Q 21.140625 -20.796875 15.09375 -20.796875 
L 7.90625 -20.796875 
L 7.90625 -13.28125 
L 13.1875 -13.28125 
Q 16.890625 -13.28125 18.9375 -11.515625 
Q 21 -9.765625 23.484375 -3.21875 
L 25.09375 0.875 
L 2.984375 54.6875 
L 12.5 54.6875 
L 29.59375 11.921875 
L 46.6875 54.6875 
L 56.203125 54.6875 
z
" id="DejaVuSans-121"/>
     </defs>
     <g transform="translate(18.616328 100.101172)rotate(-90)scale(0.105 -0.105)">
      <use xlink:href="#DejaVuSans-82"/>
      <use x="64.982422" xlink:href="#DejaVuSans-101"/>
      <use x="126.505859" xlink:href="#DejaVuSans-108"/>
      <use x="154.289062" xlink:href="#DejaVuSans-97"/>
      <use x="215.568359" xlink:href="#DejaVuSans-116"/>
      <use x="254.777344" xlink:href="#DejaVuSans-105"/>
      <use x="282.560547" xlink:href="#DejaVuSans-118"/>
      <use x="341.740234" xlink:href="#DejaVuSans-101"/>
      <use x="403.263672" xlink:href="#DejaVuSans-32"/>
      <use x="435.050781" xlink:href="#DejaVuSans-105"/>
      <use x="462.833984" xlink:href="#DejaVuSans-110"/>
      <use x="526.212891" xlink:href="#DejaVuSans-116"/>
      <use x="565.421875" xlink:href="#DejaVuSans-101"/>
      <use x="626.945312" xlink:href="#DejaVuSans-110"/>
      <use x="690.324219" xlink:href="#DejaVuSans-115"/>
      <use x="742.423828" xlink:href="#DejaVuSans-105"/>
      <use x="770.207031" xlink:href="#DejaVuSans-116"/>
      <use x="809.416016" xlink:href="#DejaVuSans-121"/>
     </g>
    </g>
   </g>
   <g id="line2d_2">
    <path clip-path="url(#p780c114521)" d="M 49.363636 93.570197 
L 60.444976 93.637258 
L 76.451356 94.021514 
L 88.763955 94.22432 
L 97.382775 94.15912 
L 107.232855 93.849899 
L 130.626794 92.947712 
L 138.014354 92.940574 
L 145.401914 93.138016 
L 156.483254 93.689419 
L 166.333333 94.134493 
L 172.489633 94.227115 
L 178.645933 94.095933 
L 184.802233 93.715333 
L 190.958533 93.109842 
L 203.271132 91.578444 
L 209.427432 90.922479 
L 214.352472 90.584615 
L 219.277512 90.47889 
L 224.202552 90.639933 
L 229.127592 91.067559 
L 234.052632 91.719859 
L 248.827751 93.944509 
L 252.521531 94.200381 
L 256.215311 94.169489 
L 258.677831 93.946582 
L 261.140351 93.532904 
L 263.602871 92.905407 
L 266.065391 92.043273 
L 268.527911 90.92851 
L 270.990431 89.546518 
L 273.452951 87.886605 
L 275.91547 85.942444 
L 278.37799 83.712451 
L 280.84051 81.200081 
L 283.30303 78.414028 
L 285.76555 75.368319 
L 289.45933 70.356652 
L 293.15311 64.892485 
L 298.07815 57.098263 
L 310.39075 37.174795 
L 314.08453 31.732786 
L 316.547049 28.392756 
L 319.009569 25.335686 
L 321.472089 22.603161 
L 323.934609 20.232821 
L 326.397129 18.257654 
L 328.859649 16.70538 
L 331.322169 15.597926 
L 332.553429 15.21617 
L 333.784689 14.95101 
L 335.015949 14.803392 
L 336.247209 14.773842 
L 337.478469 14.862466 
L 338.709729 15.068947 
L 339.940989 15.392549 
L 342.403509 16.386092 
L 344.866029 17.82898 
L 347.328549 19.700804 
L 349.791069 21.975248 
L 352.253589 24.620585 
L 354.716108 27.600276 
L 357.178628 30.873652 
L 360.872408 36.237307 
L 364.566188 42.003477 
L 371.953748 54.08309 
L 378.110048 63.945275 
L 381.803828 69.474664 
L 385.497608 74.568473 
L 387.960128 77.676278 
L 390.422648 80.528769 
L 392.885167 83.110582 
L 395.347687 85.411696 
L 397.810207 87.427359 
L 400.272727 89.15792 
L 402.735247 90.608553 
L 405.197767 91.788898 
L 407.660287 92.712626 
L 410.122807 93.396931 
L 412.585327 93.86198 
L 415.047847 94.13032 
L 417.510367 94.226266 
L 421.204147 94.102798 
L 424.897927 93.736393 
L 429.822967 93.017553 
L 440.904306 91.289517 
L 445.829346 90.770341 
L 450.754386 90.507184 
L 455.679426 90.515244 
L 460.604466 90.771949 
L 466.760766 91.361849 
L 488.923445 93.855281 
L 495.079745 94.161208 
L 501.236045 94.220517 
L 508.623604 94.023245 
L 523.398724 93.270928 
L 532.017544 92.971562 
L 539.405104 92.926555 
L 540.636364 92.939285 
L 540.636364 92.939285 
" style="fill:none;stroke:#0000ff;stroke-dasharray:1.5,2.475;stroke-dashoffset:0;stroke-width:1.5;"/>
   </g>
   <g id="line2d_3">
    <path clip-path="url(#p780c114521)" d="M 49.363636 92.939285 
L 56.751196 92.949458 
L 65.370016 93.214879 
L 89.995215 94.227118 
L 96.151515 94.12022 
L 102.307815 93.764339 
L 108.464115 93.178701 
L 118.314195 91.961889 
L 126.933014 90.978253 
L 131.858054 90.615181 
L 136.783094 90.477927 
L 141.708134 90.604841 
L 146.633174 91.000532 
L 151.558214 91.628568 
L 167.564593 94.003342 
L 171.258373 94.217519 
L 173.720893 94.198271 
L 176.183413 94.019253 
L 178.645933 93.655502 
L 181.108453 93.083509 
L 183.570973 92.281841 
L 186.033493 91.231746 
L 188.496013 89.917725 
L 190.958533 88.328063 
L 193.421053 86.455304 
L 195.883573 84.296645 
L 198.346093 81.854262 
L 200.808612 79.135524 
L 203.271132 76.153121 
L 206.964912 71.226016 
L 210.658692 65.830165 
L 215.583732 58.095214 
L 229.127592 36.237307 
L 232.821372 30.873652 
L 235.283892 27.600276 
L 237.746411 24.620585 
L 240.208931 21.975248 
L 242.671451 19.700804 
L 245.133971 17.82898 
L 247.596491 16.386092 
L 250.059011 15.392549 
L 251.290271 15.068947 
L 252.521531 14.862466 
L 253.752791 14.773842 
L 254.984051 14.803392 
L 256.215311 14.95101 
L 257.446571 15.21617 
L 259.909091 16.094918 
L 262.371611 17.427143 
L 264.834131 19.193978 
L 267.296651 21.370539 
L 269.759171 23.926402 
L 272.221691 26.826168 
L 274.684211 30.030133 
L 278.37799 35.311013 
L 282.07177 41.021468 
L 288.22807 51.04617 
L 295.61563 62.989112 
L 299.30941 68.580523 
L 303.00319 73.753935 
L 306.69697 78.414028 
L 309.15949 81.200081 
L 311.62201 83.712451 
L 314.08453 85.942444 
L 316.547049 87.886605 
L 319.009569 89.546518 
L 321.472089 90.92851 
L 323.934609 92.043273 
L 326.397129 92.905407 
L 328.859649 93.532904 
L 331.322169 93.946582 
L 333.784689 94.169489 
L 336.247209 94.226283 
L 339.940989 94.056239 
L 343.634769 93.657797 
L 349.791069 92.714689 
L 358.409888 91.36999 
L 363.334928 90.822007 
L 368.259968 90.525165 
L 373.185008 90.499856 
L 378.110048 90.727806 
L 384.266348 91.292821 
L 394.116427 92.513902 
L 402.735247 93.496939 
L 408.891547 93.973449 
L 415.047847 94.203956 
L 421.204147 94.194973 
L 428.591707 93.94149 
L 450.754386 92.959793 
L 458.141946 92.932225 
L 466.760766 93.143397 
L 497.542265 94.221189 
L 507.392344 94.156185 
L 527.092504 93.68192 
L 538.173844 93.564707 
L 540.636364 93.570197 
L 540.636364 93.570197 
" style="fill:none;stroke:#ffa500;stroke-dasharray:1.5,2.475;stroke-dashoffset:0;stroke-width:1.5;"/>
   </g>
   <g id="line2d_4">
    <path clip-path="url(#p780c114521)" d="M 49.363636 92.282085 
L 55.519936 92.284366 
L 61.676236 92.502127 
L 69.063796 92.991064 
L 83.838915 94.063966 
L 89.995215 94.226993 
L 94.920255 94.132351 
L 99.845295 93.812434 
L 104.770335 93.274246 
L 110.926635 92.355311 
L 126.933014 89.776183 
L 131.858054 89.320009 
L 135.551834 89.180767 
L 139.245614 89.239579 
L 142.939394 89.503044 
L 146.633174 89.961375 
L 151.558214 90.825389 
L 166.333333 93.787237 
L 170.027113 94.161905 
L 172.489633 94.225984 
L 174.952153 94.106879 
L 177.414673 93.776557 
L 179.877193 93.209285 
L 182.339713 92.382365 
L 184.802233 91.276834 
L 187.264753 89.878095 
L 189.727273 88.176469 
L 192.189793 86.167651 
L 194.652313 83.853055 
L 197.114833 81.240026 
L 199.577352 78.341934 
L 202.039872 75.178107 
L 205.733652 69.990504 
L 209.427432 64.3698 
L 214.352472 56.430108 
L 224.202552 40.399046 
L 227.896332 34.832518 
L 231.590112 29.749411 
L 234.052632 26.695398 
L 236.515152 23.948575 
L 238.977671 21.536346 
L 241.440191 19.479744 
L 243.902711 17.792938 
L 246.365231 16.482899 
L 248.827751 15.54923 
L 251.290271 14.984162 
L 253.752791 14.772727 
L 256.215311 14.893102 
L 258.677831 15.317111 
L 261.140351 16.010886 
L 263.602871 16.935663 
L 267.296651 18.66161 
L 272.221691 21.350575 
L 279.60925 25.438543 
L 283.30303 27.178713 
L 285.76555 28.137964 
L 288.22807 28.901076 
L 290.69059 29.444636 
L 293.15311 29.752065 
L 295.61563 29.814021 
L 298.07815 29.628624 
L 300.54067 29.201502 
L 303.00319 28.545655 
L 305.46571 27.68114 
L 307.92823 26.634584 
L 311.62201 24.796067 
L 317.778309 21.350575 
L 322.703349 18.66161 
L 326.397129 16.935663 
L 328.859649 16.010886 
L 331.322169 15.317111 
L 333.784689 14.893102 
L 336.247209 14.772727 
L 338.709729 14.984162 
L 341.172249 15.54923 
L 343.634769 16.482899 
L 346.097289 17.792938 
L 348.559809 19.479744 
L 351.022329 21.536346 
L 353.484848 23.948575 
L 355.947368 26.695398 
L 358.409888 29.749411 
L 360.872408 33.077468 
L 364.566188 38.498812 
L 369.491228 46.298488 
L 381.803828 66.283865 
L 385.497608 71.77364 
L 389.191388 76.7918 
L 391.653907 79.825543 
L 394.116427 82.58315 
L 396.578947 85.048257 
L 399.041467 87.210508 
L 401.503987 89.065542 
L 403.966507 90.614842 
L 406.429027 91.865447 
L 408.891547 92.829561 
L 411.354067 93.524038 
L 413.816587 93.969791 
L 416.279107 94.191127 
L 418.741627 94.215021 
L 421.204147 94.070374 
L 424.897927 93.603257 
L 429.822967 92.672364 
L 440.904306 90.362335 
L 445.829346 89.635156 
L 449.523126 89.30479 
L 453.216906 89.177723 
L 456.910686 89.252609 
L 460.604466 89.513113 
L 465.529506 90.098363 
L 471.685805 91.080426 
L 483.998405 93.109373 
L 488.923445 93.697396 
L 493.848485 94.07374 
L 498.773525 94.223712 
L 503.698565 94.162286 
L 509.854864 93.850703 
L 533.248804 92.311178 
L 539.405104 92.26515 
L 540.636364 92.282085 
L 540.636364 92.282085 
" style="fill:none;stroke:#800080;stroke-linecap:square;stroke-width:1.5;"/>
   </g>
   <g id="line2d_5">
    <path clip-path="url(#p780c114521)" d="M 335.939394 98.2 
L 335.939394 10.8 
" style="fill:none;stroke:#ff0000;stroke-dasharray:1.5,2.475;stroke-dashoffset:0;stroke-width:1.5;"/>
   </g>
   <g id="line2d_6">
    <path clip-path="url(#p780c114521)" d="M 254.060606 98.2 
L 254.060606 10.8 
" style="fill:none;stroke:#ff0000;stroke-dasharray:1.5,2.475;stroke-dashoffset:0;stroke-width:1.5;"/>
   </g>
   <g id="patch_3">
    <path d="M 24.8 98.2 
L 24.8 10.8 
" style="fill:none;stroke:#000000;stroke-linecap:square;stroke-linejoin:miter;stroke-width:0.8;"/>
   </g>
   <g id="patch_4">
    <path d="M 565.2 98.2 
L 565.2 10.8 
" style="fill:none;stroke:#000000;stroke-linecap:square;stroke-linejoin:miter;stroke-width:0.8;"/>
   </g>
   <g id="patch_5">
    <path d="M 24.8 98.2 
L 565.2 98.2 
" style="fill:none;stroke:#000000;stroke-linecap:square;stroke-linejoin:miter;stroke-width:0.8;"/>
   </g>
   <g id="patch_6">
    <path d="M 24.8 10.8 
L 565.2 10.8 
" style="fill:none;stroke:#000000;stroke-linecap:square;stroke-linejoin:miter;stroke-width:0.8;"/>
   </g>
   <g id="legend_1">
    <g id="patch_7">
     <path d="M 448.95 62.834375 
L 558.2 62.834375 
Q 560.2 62.834375 560.2 60.834375 
L 560.2 17.8 
Q 560.2 15.8 558.2 15.8 
L 448.95 15.8 
Q 446.95 15.8 446.95 17.8 
L 446.95 60.834375 
Q 446.95 62.834375 448.95 62.834375 
z
" style="fill:#ffffff;opacity:0.8;stroke:#cccccc;stroke-linejoin:miter;"/>
    </g>
    <g id="line2d_7">
     <path d="M 450.95 23.898438 
L 470.95 23.898438 
" style="fill:none;stroke:#0000ff;stroke-dasharray:1.5,2.475;stroke-dashoffset:0;stroke-width:1.5;"/>
    </g>
    <g id="line2d_8"/>
    <g id="text_4">
     <!-- Source A -->
     <defs>
      <path d="M 53.515625 70.515625 
L 53.515625 60.890625 
Q 47.90625 63.578125 42.921875 64.890625 
Q 37.9375 66.21875 33.296875 66.21875 
Q 25.25 66.21875 20.875 63.09375 
Q 16.5 59.96875 16.5 54.203125 
Q 16.5 49.359375 19.40625 46.890625 
Q 22.3125 44.4375 30.421875 42.921875 
L 36.375 41.703125 
Q 47.40625 39.59375 52.65625 34.296875 
Q 57.90625 29 57.90625 20.125 
Q 57.90625 9.515625 50.796875 4.046875 
Q 43.703125 -1.421875 29.984375 -1.421875 
Q 24.8125 -1.421875 18.96875 -0.25 
Q 13.140625 0.921875 6.890625 3.21875 
L 6.890625 13.375 
Q 12.890625 10.015625 18.65625 8.296875 
Q 24.421875 6.59375 29.984375 6.59375 
Q 38.421875 6.59375 43.015625 9.90625 
Q 47.609375 13.234375 47.609375 19.390625 
Q 47.609375 24.75 44.3125 27.78125 
Q 41.015625 30.8125 33.5 32.328125 
L 27.484375 33.5 
Q 16.453125 35.6875 11.515625 40.375 
Q 6.59375 45.0625 6.59375 53.421875 
Q 6.59375 63.09375 13.40625 68.65625 
Q 20.21875 74.21875 32.171875 74.21875 
Q 37.3125 74.21875 42.625 73.28125 
Q 47.953125 72.359375 53.515625 70.515625 
z
" id="DejaVuSans-83"/>
      <path d="M 8.5 21.578125 
L 8.5 54.6875 
L 17.484375 54.6875 
L 17.484375 21.921875 
Q 17.484375 14.15625 20.5 10.265625 
Q 23.53125 6.390625 29.59375 6.390625 
Q 36.859375 6.390625 41.078125 11.03125 
Q 45.3125 15.671875 45.3125 23.6875 
L 45.3125 54.6875 
L 54.296875 54.6875 
L 54.296875 0 
L 45.3125 0 
L 45.3125 8.40625 
Q 42.046875 3.421875 37.71875 1 
Q 33.40625 -1.421875 27.6875 -1.421875 
Q 18.265625 -1.421875 13.375 4.4375 
Q 8.5 10.296875 8.5 21.578125 
z
M 31.109375 56 
z
" id="DejaVuSans-117"/>
      <path d="M 34.1875 63.1875 
L 20.796875 26.90625 
L 47.609375 26.90625 
z
M 28.609375 72.90625 
L 39.796875 72.90625 
L 67.578125 0 
L 57.328125 0 
L 50.6875 18.703125 
L 17.828125 18.703125 
L 11.1875 0 
L 0.78125 0 
z
" id="DejaVuSans-65"/>
     </defs>
     <g transform="translate(478.95 27.398438)scale(0.1 -0.1)">
      <use xlink:href="#DejaVuSans-83"/>
      <use x="63.476562" xlink:href="#DejaVuSans-111"/>
      <use x="124.658203" xlink:href="#DejaVuSans-117"/>
      <use x="188.037109" xlink:href="#DejaVuSans-114"/>
      <use x="226.900391" xlink:href="#DejaVuSans-99"/>
      <use x="281.880859" xlink:href="#DejaVuSans-101"/>
      <use x="343.404297" xlink:href="#DejaVuSans-32"/>
      <use x="375.191406" xlink:href="#DejaVuSans-65"/>
     </g>
    </g>
    <g id="line2d_9">
     <path d="M 450.95 38.576562 
L 470.95 38.576562 
" style="fill:none;stroke:#ffa500;stroke-dasharray:1.5,2.475;stroke-dashoffset:0;stroke-width:1.5;"/>
    </g>
    <g id="line2d_10"/>
    <g id="text_5">
     <!-- Source B -->
     <defs>
      <path d="M 19.671875 34.8125 
L 19.671875 8.109375 
L 35.5 8.109375 
Q 43.453125 8.109375 47.28125 11.40625 
Q 51.125 14.703125 51.125 21.484375 
Q 51.125 28.328125 47.28125 31.5625 
Q 43.453125 34.8125 35.5 34.8125 
z
M 19.671875 64.796875 
L 19.671875 42.828125 
L 34.28125 42.828125 
Q 41.5 42.828125 45.03125 45.53125 
Q 48.578125 48.25 48.578125 53.8125 
Q 48.578125 59.328125 45.03125 62.0625 
Q 41.5 64.796875 34.28125 64.796875 
z
M 9.8125 72.90625 
L 35.015625 72.90625 
Q 46.296875 72.90625 52.390625 68.21875 
Q 58.5 63.53125 58.5 54.890625 
Q 58.5 48.1875 55.375 44.234375 
Q 52.25 40.28125 46.1875 39.3125 
Q 53.46875 37.75 57.5 32.78125 
Q 61.53125 27.828125 61.53125 20.40625 
Q 61.53125 10.640625 54.890625 5.3125 
Q 48.25 0 35.984375 0 
L 9.8125 0 
z
" id="DejaVuSans-66"/>
     </defs>
     <g transform="translate(478.95 42.076562)scale(0.1 -0.1)">
      <use xlink:href="#DejaVuSans-83"/>
      <use x="63.476562" xlink:href="#DejaVuSans-111"/>
      <use x="124.658203" xlink:href="#DejaVuSans-117"/>
      <use x="188.037109" xlink:href="#DejaVuSans-114"/>
      <use x="226.900391" xlink:href="#DejaVuSans-99"/>
      <use x="281.880859" xlink:href="#DejaVuSans-101"/>
      <use x="343.404297" xlink:href="#DejaVuSans-32"/>
      <use x="375.191406" xlink:href="#DejaVuSans-66"/>
     </g>
    </g>
    <g id="line2d_11">
     <path d="M 450.95 53.254688 
L 470.95 53.254688 
" style="fill:none;stroke:#800080;stroke-linecap:square;stroke-width:1.5;"/>
    </g>
    <g id="line2d_12"/>
    <g id="text_6">
     <!-- Signal intensity -->
     <g transform="translate(478.95 56.754688)scale(0.1 -0.1)">
      <use xlink:href="#DejaVuSans-83"/>
      <use x="63.476562" xlink:href="#DejaVuSans-105"/>
      <use x="91.259766" xlink:href="#DejaVuSans-103"/>
      <use x="154.736328" xlink:href="#DejaVuSans-110"/>
      <use x="218.115234" xlink:href="#DejaVuSans-97"/>
      <use x="279.394531" xlink:href="#DejaVuSans-108"/>
      <use x="307.177734" xlink:href="#DejaVuSans-32"/>
      <use x="338.964844" xlink:href="#DejaVuSans-105"/>
      <use x="366.748047" xlink:href="#DejaVuSans-110"/>
      <use x="430.126953" xlink:href="#DejaVuSans-116"/>
      <use x="469.335938" xlink:href="#DejaVuSans-101"/>
      <use x="530.859375" xlink:href="#DejaVuSans-110"/>
      <use x="594.238281" xlink:href="#DejaVuSans-115"/>
      <use x="646.337891" xlink:href="#DejaVuSans-105"/>
      <use x="674.121094" xlink:href="#DejaVuSans-116"/>
      <use x="713.330078" xlink:href="#DejaVuSans-121"/>
     </g>
    </g>
   </g>
  </g>
 </g>
 <defs>
  <clipPath id="p780c114521">
   <rect height="87.4" width="540.4" x="24.8" y="10.8"/>
  </clipPath>
 </defs>
</svg>
