<?xml version="1.0" encoding="utf-8" standalone="no"?>
<!DOCTYPE svg PUBLIC "-//W3C//DTD SVG 1.1//EN"
  "http://www.w3.org/Graphics/SVG/1.1/DTD/svg11.dtd">
<!-- Created with matplotlib (https://matplotlib.org/) -->
<svg height="504pt" version="1.1" viewBox="0 0 504 504" width="504pt" xmlns="http://www.w3.org/2000/svg" xmlns:xlink="http://www.w3.org/1999/xlink">
 <defs>
  <style type="text/css">
*{stroke-linecap:butt;stroke-linejoin:round;}
  </style>
 </defs>
 <g id="figure_1">
  <g id="patch_1">
   <path d="M 0 504 
L 504 504 
L 504 0 
L 0 0 
z
" style="fill:none;"/>
  </g>
  <g id="axes_1">
   <g id="patch_2">
    <path clip-path="url(#p89e11511c7)" d="M 168.460756 448.472695 
C 179.361698 439.325718 188.128066 427.901166 194.141995 415.004252 
C 200.155925 402.107339 203.272727 388.048351 203.272727 373.818182 
C 203.272727 359.588012 200.155925 345.529025 194.141995 332.632111 
C 188.128066 319.735198 179.361698 308.310645 168.460756 299.163669 
" style="fill:none;stroke:#000000;stroke-linejoin:miter;"/>
   </g>
   <g id="patch_3">
    <path clip-path="url(#p89e11511c7)" d="M 168.460756 399.745422 
C 179.361698 390.598446 188.128066 379.173893 194.141995 366.27698 
C 200.155925 353.380066 203.272727 339.321078 203.272727 325.090909 
C 203.272727 310.86074 200.155925 296.801752 194.141995 283.904838 
C 188.128066 271.007925 179.361698 259.583373 168.460756 250.436396 
" style="fill:none;stroke:#000000;stroke-linejoin:miter;"/>
   </g>
   <g id="patch_4">
    <path clip-path="url(#p89e11511c7)" d="M 168.460756 351.018149 
C 179.361698 341.871173 188.128066 330.44662 194.141995 317.549707 
C 200.155925 304.652794 203.272727 290.593806 203.272727 276.363636 
C 203.272727 262.133467 200.155925 248.074479 194.141995 235.177566 
C 188.128066 222.280652 179.361698 210.8561 168.460756 201.709123 
" style="fill:none;stroke:#000000;stroke-linejoin:miter;"/>
   </g>
   <g id="patch_5">
    <path clip-path="url(#p89e11511c7)" d="M 168.460756 302.290877 
C 179.361698 293.1439 188.128066 281.719348 194.141995 268.822434 
C 200.155925 255.925521 203.272727 241.866533 203.272727 227.636364 
C 203.272727 213.406194 200.155925 199.347206 194.141995 186.450293 
C 188.128066 173.55338 179.361698 162.128827 168.460756 152.981851 
" style="fill:none;stroke:#000000;stroke-linejoin:miter;"/>
   </g>
   <g id="patch_6">
    <path clip-path="url(#p89e11511c7)" d="M 168.460756 253.563604 
C 179.361698 244.416627 188.128066 232.992075 194.141995 220.095162 
C 200.155925 207.198248 203.272727 193.13926 203.272727 178.909091 
C 203.272727 164.678922 200.155925 150.619934 194.141995 137.72302 
C 188.128066 124.826107 179.361698 113.401554 168.460756 104.254578 
" style="fill:none;stroke:#000000;stroke-linejoin:miter;"/>
   </g>
   <g id="patch_7">
    <path clip-path="url(#p89e11511c7)" d="M 168.460756 204.836331 
C 179.361698 195.689355 188.128066 184.264802 194.141995 171.367889 
C 200.155925 158.470975 203.272727 144.411988 203.272727 130.181818 
C 203.272727 115.951649 200.155925 101.892661 194.141995 88.995748 
C 188.128066 76.098834 179.361698 64.674282 168.460756 55.527305 
" style="fill:none;stroke:#000000;stroke-linejoin:miter;"/>
   </g>
   <g id="patch_8">
    <path clip-path="url(#p89e11511c7)" d="M 265.915302 448.472695 
C 276.816244 439.325718 285.582611 427.901166 291.596541 415.004252 
C 297.61047 402.107339 300.727273 388.048351 300.727273 373.818182 
C 300.727273 359.588012 297.61047 345.529025 291.596541 332.632111 
C 285.582611 319.735198 276.816244 308.310645 265.915302 299.163669 
" style="fill:none;stroke:#ff0000;stroke-linejoin:miter;"/>
   </g>
   <g id="patch_9">
    <path clip-path="url(#p89e11511c7)" d="M 265.915302 399.745422 
C 276.816244 390.598446 285.582611 379.173893 291.596541 366.27698 
C 297.61047 353.380066 300.727273 339.321078 300.727273 325.090909 
C 300.727273 310.86074 297.61047 296.801752 291.596541 283.904838 
C 285.582611 271.007925 276.816244 259.583373 265.915302 250.436396 
" style="fill:none;stroke:#ff0000;stroke-linejoin:miter;"/>
   </g>
   <g id="patch_10">
    <path clip-path="url(#p89e11511c7)" d="M 265.915302 351.018149 
C 276.816244 341.871173 285.582611 330.44662 291.596541 317.549707 
C 297.61047 304.652794 300.727273 290.593806 300.727273 276.363636 
C 300.727273 262.133467 297.61047 248.074479 291.596541 235.177566 
C 285.582611 222.280652 276.816244 210.8561 265.915302 201.709123 
" style="fill:none;stroke:#ff0000;stroke-linejoin:miter;"/>
   </g>
   <g id="patch_11">
    <path clip-path="url(#p89e11511c7)" d="M 265.915302 302.290877 
C 276.816244 293.1439 285.582611 281.719348 291.596541 268.822434 
C 297.61047 255.925521 300.727273 241.866533 300.727273 227.636364 
C 300.727273 213.406194 297.61047 199.347206 291.596541 186.450293 
C 285.582611 173.55338 276.816244 162.128827 265.915302 152.981851 
" style="fill:none;stroke:#ff0000;stroke-linejoin:miter;"/>
   </g>
   <g id="patch_12">
    <path clip-path="url(#p89e11511c7)" d="M 265.915302 253.563604 
C 276.816244 244.416627 285.582611 232.992075 291.596541 220.095162 
C 297.61047 207.198248 300.727273 193.13926 300.727273 178.909091 
C 300.727273 164.678922 297.61047 150.619934 291.596541 137.72302 
C 285.582611 124.826107 276.816244 113.401554 265.915302 104.254578 
" style="fill:none;stroke:#ff0000;stroke-linejoin:miter;"/>
   </g>
   <g id="patch_13">
    <path clip-path="url(#p89e11511c7)" d="M 265.915302 204.836331 
C 276.816244 195.689355 285.582611 184.264802 291.596541 171.367889 
C 297.61047 158.470975 300.727273 144.411988 300.727273 130.181818 
C 300.727273 115.951649 297.61047 101.892661 291.596541 88.995748 
C 285.582611 76.098834 276.816244 64.674282 265.915302 55.527305 
" style="fill:none;stroke:#ff0000;stroke-linejoin:miter;"/>
   </g>
   <g id="patch_14">
    <path clip-path="url(#p89e11511c7)" d="M 363.369847 448.472695 
C 374.270789 439.325718 383.037157 427.901166 389.051086 415.004252 
C 395.065016 402.107339 398.181818 388.048351 398.181818 373.818182 
C 398.181818 359.588012 395.065016 345.529025 389.051086 332.632111 
C 383.037157 319.735198 374.270789 308.310645 363.369847 299.163669 
" style="fill:none;stroke:#0000ff;stroke-linejoin:miter;"/>
   </g>
   <g id="patch_15">
    <path clip-path="url(#p89e11511c7)" d="M 363.369847 399.745422 
C 374.270789 390.598446 383.037157 379.173893 389.051086 366.27698 
C 395.065016 353.380066 398.181818 339.321078 398.181818 325.090909 
C 398.181818 310.86074 395.065016 296.801752 389.051086 283.904838 
C 383.037157 271.007925 374.270789 259.583373 363.369847 250.436396 
" style="fill:none;stroke:#0000ff;stroke-linejoin:miter;"/>
   </g>
   <g id="patch_16">
    <path clip-path="url(#p89e11511c7)" d="M 363.369847 351.018149 
C 374.270789 341.871173 383.037157 330.44662 389.051086 317.549707 
C 395.065016 304.652794 398.181818 290.593806 398.181818 276.363636 
C 398.181818 262.133467 395.065016 248.074479 389.051086 235.177566 
C 383.037157 222.280652 374.270789 210.8561 363.369847 201.709123 
" style="fill:none;stroke:#0000ff;stroke-linejoin:miter;"/>
   </g>
   <g id="patch_17">
    <path clip-path="url(#p89e11511c7)" d="M 363.369847 302.290877 
C 374.270789 293.1439 383.037157 281.719348 389.051086 268.822434 
C 395.065016 255.925521 398.181818 241.866533 398.181818 227.636364 
C 398.181818 213.406194 395.065016 199.347206 389.051086 186.450293 
C 383.037157 173.55338 374.270789 162.128827 363.369847 152.981851 
" style="fill:none;stroke:#0000ff;stroke-linejoin:miter;"/>
   </g>
   <g id="patch_18">
    <path clip-path="url(#p89e11511c7)" d="M 363.369847 253.563604 
C 374.270789 244.416627 383.037157 232.992075 389.051086 220.095162 
C 395.065016 207.198248 398.181818 193.13926 398.181818 178.909091 
C 398.181818 164.678922 395.065016 150.619934 389.051086 137.72302 
C 383.037157 124.826107 374.270789 113.401554 363.369847 104.254578 
" style="fill:none;stroke:#0000ff;stroke-linejoin:miter;"/>
   </g>
   <g id="patch_19">
    <path clip-path="url(#p89e11511c7)" d="M 363.369847 204.836331 
C 374.270789 195.689355 383.037157 184.264802 389.051086 171.367889 
C 395.065016 158.470975 398.181818 144.411988 398.181818 130.181818 
C 398.181818 115.951649 395.065016 101.892661 389.051086 88.995748 
C 383.037157 76.098834 374.270789 64.674282 363.369847 55.527305 
" style="fill:none;stroke:#0000ff;stroke-linejoin:miter;"/>
   </g>
   <g id="line2d_1">
    <path clip-path="url(#p89e11511c7)" d="M 105.818182 422.545455 
L 105.818182 81.454545 
" style="fill:none;stroke:#000000;stroke-dasharray:5.55,2.4;stroke-dashoffset:0;stroke-width:1.5;"/>
   </g>
   <g id="line2d_2">
    <defs>
     <path d="M 0 3 
C 0.795609 3 1.55874 2.683901 2.12132 2.12132 
C 2.683901 1.55874 3 0.795609 3 0 
C 3 -0.795609 2.683901 -1.55874 2.12132 -2.12132 
C 1.55874 -2.683901 0.795609 -3 0 -3 
C -0.795609 -3 -1.55874 -2.683901 -2.12132 -2.12132 
C -2.683901 -1.55874 -3 -0.795609 -3 0 
C -3 0.795609 -2.683901 1.55874 -2.12132 2.12132 
C -1.55874 2.683901 -0.795609 3 0 3 
z
" id="m88979f765f" style="stroke:#000000;"/>
    </defs>
    <g clip-path="url(#p89e11511c7)">
     <use style="stroke:#000000;" x="105.818182" xlink:href="#m88979f765f" y="373.818182"/>
    </g>
   </g>
   <g id="line2d_3">
    <g clip-path="url(#p89e11511c7)">
     <use style="stroke:#000000;" x="105.818182" xlink:href="#m88979f765f" y="325.090909"/>
    </g>
   </g>
   <g id="line2d_4">
    <g clip-path="url(#p89e11511c7)">
     <use style="stroke:#000000;" x="105.818182" xlink:href="#m88979f765f" y="276.363636"/>
    </g>
   </g>
   <g id="line2d_5">
    <g clip-path="url(#p89e11511c7)">
     <use style="stroke:#000000;" x="105.818182" xlink:href="#m88979f765f" y="227.636364"/>
    </g>
   </g>
   <g id="line2d_6">
    <g clip-path="url(#p89e11511c7)">
     <use style="stroke:#000000;" x="105.818182" xlink:href="#m88979f765f" y="178.909091"/>
    </g>
   </g>
   <g id="line2d_7">
    <g clip-path="url(#p89e11511c7)">
     <use style="stroke:#000000;" x="105.818182" xlink:href="#m88979f765f" y="130.181818"/>
    </g>
   </g>
   <g id="line2d_8">
    <path clip-path="url(#p89e11511c7)" d="M 203.272727 422.545455 
L 203.272727 81.454545 
" style="fill:none;stroke:#ff0000;stroke-dasharray:5.55,2.4;stroke-dashoffset:0;stroke-width:1.5;"/>
   </g>
   <g id="line2d_9">
    <g clip-path="url(#p89e11511c7)">
     <use style="stroke:#000000;" x="203.272727" xlink:href="#m88979f765f" y="373.818182"/>
    </g>
   </g>
   <g id="line2d_10">
    <g clip-path="url(#p89e11511c7)">
     <use style="stroke:#000000;" x="203.272727" xlink:href="#m88979f765f" y="325.090909"/>
    </g>
   </g>
   <g id="line2d_11">
    <g clip-path="url(#p89e11511c7)">
     <use style="stroke:#000000;" x="203.272727" xlink:href="#m88979f765f" y="276.363636"/>
    </g>
   </g>
   <g id="line2d_12">
    <g clip-path="url(#p89e11511c7)">
     <use style="stroke:#000000;" x="203.272727" xlink:href="#m88979f765f" y="227.636364"/>
    </g>
   </g>
   <g id="line2d_13">
    <g clip-path="url(#p89e11511c7)">
     <use style="stroke:#000000;" x="203.272727" xlink:href="#m88979f765f" y="178.909091"/>
    </g>
   </g>
   <g id="line2d_14">
    <g clip-path="url(#p89e11511c7)">
     <use style="stroke:#000000;" x="203.272727" xlink:href="#m88979f765f" y="130.181818"/>
    </g>
   </g>
   <g id="line2d_15">
    <path clip-path="url(#p89e11511c7)" d="M 300.727273 422.545455 
L 300.727273 81.454545 
" style="fill:none;stroke:#0000ff;stroke-dasharray:5.55,2.4;stroke-dashoffset:0;stroke-width:1.5;"/>
   </g>
   <g id="line2d_16">
    <g clip-path="url(#p89e11511c7)">
     <use style="stroke:#000000;" x="300.727273" xlink:href="#m88979f765f" y="373.818182"/>
    </g>
   </g>
   <g id="line2d_17">
    <g clip-path="url(#p89e11511c7)">
     <use style="stroke:#000000;" x="300.727273" xlink:href="#m88979f765f" y="325.090909"/>
    </g>
   </g>
   <g id="line2d_18">
    <g clip-path="url(#p89e11511c7)">
     <use style="stroke:#000000;" x="300.727273" xlink:href="#m88979f765f" y="276.363636"/>
    </g>
   </g>
   <g id="line2d_19">
    <g clip-path="url(#p89e11511c7)">
     <use style="stroke:#000000;" x="300.727273" xlink:href="#m88979f765f" y="227.636364"/>
    </g>
   </g>
   <g id="line2d_20">
    <g clip-path="url(#p89e11511c7)">
     <use style="stroke:#000000;" x="300.727273" xlink:href="#m88979f765f" y="178.909091"/>
    </g>
   </g>
   <g id="line2d_21">
    <g clip-path="url(#p89e11511c7)">
     <use style="stroke:#000000;" x="300.727273" xlink:href="#m88979f765f" y="130.181818"/>
    </g>
   </g>
  </g>
 </g>
 <defs>
  <clipPath id="p89e11511c7">
   <rect height="482.4" width="341.090909" x="81.454545" y="10.8"/>
  </clipPath>
 </defs>
</svg>
