<?xml version="1.0" encoding="utf-8" standalone="no"?>
<!DOCTYPE svg PUBLIC "-//W3C//DTD SVG 1.1//EN"
  "http://www.w3.org/Graphics/SVG/1.1/DTD/svg11.dtd">
<!-- Created with matplotlib (https://matplotlib.org/) -->
<svg height="360pt" version="1.1" viewBox="0 0 720 360" width="720pt" xmlns="http://www.w3.org/2000/svg" xmlns:xlink="http://www.w3.org/1999/xlink">
 <defs>
  <style type="text/css">
*{stroke-linecap:butt;stroke-linejoin:round;}
  </style>
 </defs>
 <g id="figure_1">
  <g id="patch_1">
   <path d="M 0 360 
L 720 360 
L 720 0 
L 0 0 
z
" style="fill:none;"/>
  </g>
  <g id="axes_1">
   <g id="patch_2">
    <path d="M 21.6 349.2 
L 698.4 349.2 
L 698.4 10.8 
L 21.6 10.8 
z
" style="fill:none;"/>
   </g>
   <g id="patch_3">
    <path clip-path="url(#pc0adf53aef)" d="M 21.6 349.2 
L 360 349.2 
L 360 10.8 
L 21.6 10.8 
z
" style="fill:#0000ff;opacity:0.1;stroke:#000000;stroke-linejoin:miter;"/>
   </g>
   <g id="patch_4">
    <path clip-path="url(#pc0adf53aef)" d="M 411.015075 349.2 
L 749.415075 349.2 
L 749.415075 10.8 
L 411.015075 10.8 
z
" style="fill:#0000ff;opacity:0.1;stroke:#000000;stroke-linejoin:miter;"/>
   </g>
   <g id="matplotlib.axis_1"/>
   <g id="matplotlib.axis_2"/>
   <g id="line2d_1">
    <path clip-path="url(#pc0adf53aef)" d="M 21.6 67.2 
L 23.300503 67.705651 
L 25.001005 69.218069 
L 26.701508 71.723695 
L 28.40201 75.200066 
L 30.102513 79.616013 
L 31.803015 84.931947 
L 33.503518 91.100207 
L 35.20402 98.065492 
L 36.904523 105.765356 
L 38.605025 114.130766 
L 42.00603 132.55293 
L 45.407035 152.672815 
L 57.310553 225.82566 
L 60.711558 244.415479 
L 62.41206 252.884673 
L 64.112563 260.700424 
L 65.813065 267.792661 
L 67.513568 274.097798 
L 69.21407 279.559308 
L 70.914573 284.128225 
L 72.615075 287.763587 
L 74.315578 290.432802 
L 76.01608 292.111939 
L 77.716583 292.785944 
L 79.417085 292.448774 
L 81.117588 291.103451 
L 82.81809 288.762038 
L 84.518593 285.445526 
L 86.219095 281.183648 
L 87.919598 276.014616 
L 89.620101 269.98477 
L 91.320603 263.148172 
L 93.021106 255.566115 
L 94.721608 247.306574 
L 98.122613 229.056655 
L 101.523618 209.051423 
L 108.325628 166.675468 
L 111.726633 145.821016 
L 115.127638 126.189534 
L 118.528643 108.483463 
L 120.229146 100.553773 
L 121.929648 93.336352 
L 123.630151 86.895909 
L 125.330653 81.290184 
L 127.031156 76.569436 
L 128.731658 72.775987 
L 130.432161 69.943849 
L 132.132663 68.098412 
L 133.833166 67.256221 
L 135.533668 67.424827 
L 137.234171 68.602719 
L 138.934673 70.779335 
L 140.635176 73.935163 
L 142.335678 78.041907 
L 144.036181 83.062751 
L 145.736683 88.952679 
L 147.437186 95.658886 
L 149.137688 103.121247 
L 150.838191 111.27286 
L 154.239196 129.345985 
L 157.640201 149.23158 
L 162.741709 180.890372 
L 167.843216 212.477749 
L 171.244221 232.23875 
L 174.645226 250.130577 
L 176.345729 258.172231 
L 178.046231 265.513037 
L 179.746734 272.087181 
L 181.447236 277.835724 
L 183.147739 282.707127 
L 184.848241 286.657716 
L 186.548744 289.652072 
L 188.249246 291.663349 
L 189.949749 292.673516 
L 191.650251 292.673516 
L 193.350754 291.663349 
L 195.051256 289.652072 
L 196.751759 286.657716 
L 198.452261 282.707127 
L 200.152764 277.835724 
L 201.853266 272.087181 
L 203.553769 265.513037 
L 205.254271 258.172231 
L 206.954774 250.130577 
L 210.355779 232.23875 
L 213.756784 212.477749 
L 218.858291 180.890372 
L 223.959799 149.23158 
L 227.360804 129.345985 
L 230.761809 111.27286 
L 232.462312 103.121247 
L 234.162814 95.658886 
L 235.863317 88.952679 
L 237.563819 83.062751 
L 239.264322 78.041907 
L 240.964824 73.935163 
L 242.665327 70.779335 
L 244.365829 68.602719 
L 246.066332 67.424827 
L 247.766834 67.256221 
L 249.467337 68.098412 
L 251.167839 69.943849 
L 252.868342 72.775987 
L 254.568844 76.569436 
L 256.269347 81.290184 
L 257.969849 86.895909 
L 259.670352 93.336352 
L 261.370854 100.553773 
L 263.071357 108.483463 
L 266.472362 126.189534 
L 269.873367 145.821016 
L 274.974874 177.329107 
L 280.076382 209.051423 
L 283.477387 229.056655 
L 286.878392 247.306574 
L 288.578894 255.566115 
L 290.279397 263.148172 
L 291.979899 269.98477 
L 293.680402 276.014616 
L 295.380905 281.183648 
L 297.081407 285.445526 
L 298.78191 288.762038 
L 300.482412 291.103451 
L 302.182915 292.448774 
L 303.883417 292.785944 
L 305.58392 292.111939 
L 307.284422 290.432802 
L 308.984925 287.763587 
L 310.685427 284.128225 
L 312.38593 279.559308 
L 314.086432 274.097798 
L 315.786935 267.792661 
L 317.487437 260.700424 
L 319.18794 252.884673 
L 320.888442 244.415479 
L 324.289447 225.82566 
L 327.690452 205.596137 
L 339.59397 132.55293 
L 342.994975 114.130766 
L 344.695477 105.765356 
L 346.39598 98.065492 
L 348.096482 91.100207 
L 349.796985 84.931947 
L 351.497487 79.616013 
L 353.19799 75.200066 
L 354.898492 71.723695 
L 356.598995 69.218069 
L 358.299497 67.705651 
L 360 67.2 
L 360 67.2 
" style="fill:none;stroke:#0000ff;stroke-linecap:square;stroke-width:2;"/>
   </g>
   <g id="line2d_2">
    <path clip-path="url(#pc0adf53aef)" d="M 360 67.2 
L 361.700503 72.417753 
L 363.401005 77.39415 
L 365.101508 82.140355 
L 366.80201 86.667017 
L 368.502513 90.98429 
L 370.203015 95.10186 
L 371.903518 99.028966 
L 373.60402 102.774417 
L 375.304523 106.346615 
L 377.005025 109.753576 
L 378.705528 113.002942 
L 380.40603 116.102003 
L 382.106533 119.057711 
L 383.807035 121.876699 
L 385.507538 124.56529 
L 387.20804 127.129515 
L 388.908543 129.575128 
L 390.609045 131.907614 
L 392.309548 134.132208 
L 394.01005 136.2539 
L 395.710553 138.277449 
L 397.411055 140.207395 
L 399.111558 142.048069 
L 400.81206 143.803599 
L 402.512563 145.477924 
L 404.213065 147.0748 
L 405.913568 148.59781 
L 407.61407 150.050371 
L 409.314573 151.435741 
" style="fill:none;stroke:#0000ff;stroke-linecap:square;stroke-width:2;"/>
   </g>
   <g id="line2d_3">
    <path clip-path="url(#pc0adf53aef)" d="M 411.015075 152.757029 
L 412.715578 152.879152 
L 414.41608 153.244424 
L 416.116583 153.849572 
L 417.817085 154.68917 
L 419.517588 155.755691 
L 421.21809 157.039573 
L 422.918593 158.529304 
L 424.619095 160.21153 
L 428.020101 164.091546 
L 431.421106 168.540788 
L 434.822111 173.400056 
L 446.725628 191.067616 
L 450.126633 195.557349 
L 453.527638 199.490419 
L 455.228141 201.203306 
L 456.928643 202.726096 
L 458.629146 204.045136 
L 460.329648 205.148601 
L 462.030151 206.026598 
L 463.730653 206.671256 
L 465.431156 207.076793 
L 467.131658 207.239576 
L 468.832161 207.158144 
L 470.532663 206.833228 
L 472.233166 206.26774 
L 473.933668 205.46675 
L 475.634171 204.43744 
L 477.334673 203.189037 
L 479.035176 201.732735 
L 480.735678 200.081589 
L 482.436181 198.250403 
L 485.837186 194.115047 
L 489.238191 189.474636 
L 494.339698 181.933741 
L 501.141709 171.745239 
L 504.542714 167.003928 
L 507.943719 162.727634 
L 509.644221 160.812489 
L 511.344724 159.069368 
L 513.045226 157.5139 
L 514.745729 156.16003 
L 516.446231 155.019895 
L 518.146734 154.103718 
L 519.847236 153.419712 
L 521.547739 152.97401 
L 523.248241 152.770607 
L 524.948744 152.811328 
L 526.649246 153.095808 
L 528.349749 153.621495 
L 530.050251 154.383677 
L 531.750754 155.37552 
L 533.451256 156.588132 
L 535.151759 158.010642 
L 536.852261 159.630297 
L 538.552764 161.432574 
L 541.953769 165.518874 
L 545.354774 170.123328 
L 550.456281 177.63752 
L 557.258291 187.843886 
L 560.659296 192.616478 
L 564.060302 196.937635 
L 565.760804 198.879821 
L 567.461307 200.652741 
L 569.161809 202.2405 
L 570.862312 203.628863 
L 572.562814 204.805384 
L 574.263317 205.759513 
L 575.963819 206.482697 
L 577.664322 206.968452 
L 579.364824 207.212423 
L 581.065327 207.212423 
L 582.765829 206.968452 
L 584.466332 206.482697 
L 586.166834 205.759513 
L 587.867337 204.805384 
L 589.567839 203.628863 
L 591.268342 202.2405 
L 592.968844 200.652741 
L 594.669347 198.879821 
L 598.070352 194.843597 
L 601.471357 190.276248 
L 606.572864 182.790629 
L 613.374874 172.568943 
L 616.775879 167.76626 
L 620.176884 163.401317 
L 623.577889 159.630297 
L 625.278392 158.010642 
L 626.978894 156.588132 
L 628.679397 155.37552 
L 630.379899 154.383677 
L 632.080402 153.621495 
L 633.780905 153.095808 
L 635.481407 152.811328 
L 637.18191 152.770607 
L 638.882412 152.97401 
L 640.582915 153.419712 
L 642.283417 154.103718 
L 643.98392 155.019895 
L 645.684422 156.16003 
L 647.384925 157.5139 
L 649.085427 159.069368 
L 650.78593 160.812489 
L 654.186935 164.797633 
L 657.58794 169.326738 
L 660.988945 174.237747 
L 672.892462 191.847952 
L 676.293467 196.255594 
L 679.694472 200.081589 
L 681.394975 201.732735 
L 683.095477 203.189037 
L 684.79598 204.43744 
L 686.496482 205.46675 
L 688.196985 206.26774 
L 689.897487 206.833228 
L 691.59799 207.158144 
L 693.298492 207.239576 
L 694.998995 207.076793 
L 696.699497 206.671256 
L 698.4 206.026598 
L 698.4 206.026598 
" style="fill:none;stroke:#0000ff;stroke-linecap:square;stroke-width:2;"/>
   </g>
   <g id="line2d_4">
    <path clip-path="url(#pc0adf53aef)" d="M 360 349.2 
L 360 10.8 
" style="fill:none;stroke:#000000;stroke-dasharray:1,1.65;stroke-dashoffset:0;"/>
   </g>
   <g id="line2d_5">
    <path clip-path="url(#pc0adf53aef)" d="M 411.015075 349.2 
L 411.015075 10.8 
" style="fill:none;stroke:#000000;stroke-dasharray:1,1.65;stroke-dashoffset:0;"/>
   </g>
   <g id="patch_5">
    <path d="M 360 349.2 
L 360 10.8 
" style="fill:none;"/>
   </g>
   <g id="patch_6">
    <path d="M 698.4 349.2 
L 698.4 10.8 
" style="fill:none;"/>
   </g>
   <g id="patch_7">
    <path d="M 21.6 180 
L 698.4 180 
" style="fill:none;stroke:#000000;stroke-linecap:square;stroke-linejoin:miter;stroke-width:0.8;"/>
   </g>
   <g id="patch_8">
    <path d="M 21.6 10.8 
L 698.4 10.8 
" style="fill:none;"/>
   </g>
   <g id="text_1">
    <!-- $n_1$ -->
    <defs>
     <path d="M 55.71875 33.015625 
L 49.3125 0 
L 40.28125 0 
L 46.6875 32.671875 
Q 47.125 34.96875 47.359375 36.71875 
Q 47.609375 38.484375 47.609375 39.5 
Q 47.609375 43.609375 45.015625 45.890625 
Q 42.4375 48.1875 37.796875 48.1875 
Q 30.5625 48.1875 25.34375 43.375 
Q 20.125 38.578125 18.5 30.328125 
L 12.5 0 
L 3.515625 0 
L 14.109375 54.6875 
L 23.09375 54.6875 
L 21.296875 46.09375 
Q 25.046875 50.828125 30.3125 53.40625 
Q 35.59375 56 41.40625 56 
Q 48.640625 56 52.609375 52.09375 
Q 56.59375 48.1875 56.59375 41.109375 
Q 56.59375 39.359375 56.375 37.359375 
Q 56.15625 35.359375 55.71875 33.015625 
z
" id="DejaVuSans-Oblique-110"/>
     <path d="M 12.40625 8.296875 
L 28.515625 8.296875 
L 28.515625 63.921875 
L 10.984375 60.40625 
L 10.984375 69.390625 
L 28.421875 72.90625 
L 38.28125 72.90625 
L 38.28125 8.296875 
L 54.390625 8.296875 
L 54.390625 0 
L 12.40625 0 
z
" id="DejaVuSans-49"/>
    </defs>
    <g transform="translate(38.52 27.72)scale(0.15 -0.15)">
     <use xlink:href="#DejaVuSans-Oblique-110"/>
     <use transform="translate(63.378906 -16.40625)scale(0.7)" xlink:href="#DejaVuSans-49"/>
    </g>
   </g>
   <g id="text_2">
    <!-- $n_1$ -->
    <g transform="translate(309.24 27.72)scale(0.15 -0.15)">
     <use xlink:href="#DejaVuSans-Oblique-110"/>
     <use transform="translate(63.378906 -16.40625)scale(0.7)" xlink:href="#DejaVuSans-49"/>
    </g>
   </g>
   <g id="text_3">
    <!-- $n_2$ -->
    <defs>
     <path d="M 19.1875 8.296875 
L 53.609375 8.296875 
L 53.609375 0 
L 7.328125 0 
L 7.328125 8.296875 
Q 12.9375 14.109375 22.625 23.890625 
Q 32.328125 33.6875 34.8125 36.53125 
Q 39.546875 41.84375 41.421875 45.53125 
Q 43.3125 49.21875 43.3125 52.78125 
Q 43.3125 58.59375 39.234375 62.25 
Q 35.15625 65.921875 28.609375 65.921875 
Q 23.96875 65.921875 18.8125 64.3125 
Q 13.671875 62.703125 7.8125 59.421875 
L 7.8125 69.390625 
Q 13.765625 71.78125 18.9375 73 
Q 24.125 74.21875 28.421875 74.21875 
Q 39.75 74.21875 46.484375 68.546875 
Q 53.21875 62.890625 53.21875 53.421875 
Q 53.21875 48.921875 51.53125 44.890625 
Q 49.859375 40.875 45.40625 35.40625 
Q 44.1875 33.984375 37.640625 27.21875 
Q 31.109375 20.453125 19.1875 8.296875 
z
" id="DejaVuSans-50"/>
    </defs>
    <g transform="translate(368.587538 27.72)scale(0.15 -0.15)">
     <use xlink:href="#DejaVuSans-Oblique-110"/>
     <use transform="translate(63.378906 -16.40625)scale(0.7)" xlink:href="#DejaVuSans-50"/>
    </g>
   </g>
   <g id="text_4">
    <!-- $n_1$ -->
    <g transform="translate(411.015075 27.72)scale(0.15 -0.15)">
     <use xlink:href="#DejaVuSans-Oblique-110"/>
     <use transform="translate(63.378906 -16.40625)scale(0.7)" xlink:href="#DejaVuSans-49"/>
    </g>
   </g>
  </g>
 </g>
 <defs>
  <clipPath id="pc0adf53aef">
   <rect height="338.4" width="676.8" x="21.6" y="10.8"/>
  </clipPath>
 </defs>
</svg>
