<?xml version="1.0" encoding="utf-8" standalone="no"?>
<!DOCTYPE svg PUBLIC "-//W3C//DTD SVG 1.1//EN"
  "http://www.w3.org/Graphics/SVG/1.1/DTD/svg11.dtd">
<!-- Created with matplotlib (https://matplotlib.org/) -->
<svg height="360pt" version="1.1" viewBox="0 0 504 360" width="504pt" xmlns="http://www.w3.org/2000/svg" xmlns:xlink="http://www.w3.org/1999/xlink">
 <defs>
  <style type="text/css">
*{stroke-linecap:butt;stroke-linejoin:round;}
  </style>
 </defs>
 <g id="figure_1">
  <g id="patch_1">
   <path d="M 0 360 
L 504 360 
L 504 0 
L 0 0 
z
" style="fill:none;"/>
  </g>
  <g id="axes_1">
   <g id="patch_2">
    <path d="M 35.8 326.2 
L 493.2 326.2 
L 493.2 10.8 
L 35.8 10.8 
z
" style="fill:none;"/>
   </g>
   <g id="matplotlib.axis_1">
    <g id="xtick_1">
     <g id="line2d_1">
      <defs>
       <path d="M 0 0 
L 0 3.5 
" id="mb8ee7db634" style="stroke:#000000;stroke-width:0.8;"/>
      </defs>
      <g>
       <use style="stroke:#000000;stroke-width:0.8;" x="35.8" xlink:href="#mb8ee7db634" y="326.2"/>
      </g>
     </g>
    </g>
    <g id="xtick_2">
     <g id="line2d_2">
      <g>
       <use style="stroke:#000000;stroke-width:0.8;" x="134.844178" xlink:href="#mb8ee7db634" y="326.2"/>
      </g>
     </g>
    </g>
    <g id="xtick_3">
     <g id="line2d_3">
      <g>
       <use style="stroke:#000000;stroke-width:0.8;" x="233.888356" xlink:href="#mb8ee7db634" y="326.2"/>
      </g>
     </g>
    </g>
    <g id="xtick_4">
     <g id="line2d_4">
      <g>
       <use style="stroke:#000000;stroke-width:0.8;" x="332.932535" xlink:href="#mb8ee7db634" y="326.2"/>
      </g>
     </g>
    </g>
    <g id="xtick_5">
     <g id="line2d_5">
      <g>
       <use style="stroke:#000000;stroke-width:0.8;" x="431.976713" xlink:href="#mb8ee7db634" y="326.2"/>
      </g>
     </g>
    </g>
    <g id="text_1">
     <!-- Time $t$ -->
     <defs>
      <path d="M -0.296875 72.90625 
L 61.375 72.90625 
L 61.375 64.59375 
L 35.5 64.59375 
L 35.5 0 
L 25.59375 0 
L 25.59375 64.59375 
L -0.296875 64.59375 
z
" id="DejaVuSans-84"/>
      <path d="M 9.421875 54.6875 
L 18.40625 54.6875 
L 18.40625 0 
L 9.421875 0 
z
M 9.421875 75.984375 
L 18.40625 75.984375 
L 18.40625 64.59375 
L 9.421875 64.59375 
z
" id="DejaVuSans-105"/>
      <path d="M 52 44.1875 
Q 55.375 50.25 60.0625 53.125 
Q 64.75 56 71.09375 56 
Q 79.640625 56 84.28125 50.015625 
Q 88.921875 44.046875 88.921875 33.015625 
L 88.921875 0 
L 79.890625 0 
L 79.890625 32.71875 
Q 79.890625 40.578125 77.09375 44.375 
Q 74.3125 48.1875 68.609375 48.1875 
Q 61.625 48.1875 57.5625 43.546875 
Q 53.515625 38.921875 53.515625 30.90625 
L 53.515625 0 
L 44.484375 0 
L 44.484375 32.71875 
Q 44.484375 40.625 41.703125 44.40625 
Q 38.921875 48.1875 33.109375 48.1875 
Q 26.21875 48.1875 22.15625 43.53125 
Q 18.109375 38.875 18.109375 30.90625 
L 18.109375 0 
L 9.078125 0 
L 9.078125 54.6875 
L 18.109375 54.6875 
L 18.109375 46.1875 
Q 21.1875 51.21875 25.484375 53.609375 
Q 29.78125 56 35.6875 56 
Q 41.65625 56 45.828125 52.96875 
Q 50 49.953125 52 44.1875 
z
" id="DejaVuSans-109"/>
      <path d="M 56.203125 29.59375 
L 56.203125 25.203125 
L 14.890625 25.203125 
Q 15.484375 15.921875 20.484375 11.0625 
Q 25.484375 6.203125 34.421875 6.203125 
Q 39.59375 6.203125 44.453125 7.46875 
Q 49.3125 8.734375 54.109375 11.28125 
L 54.109375 2.78125 
Q 49.265625 0.734375 44.1875 -0.34375 
Q 39.109375 -1.421875 33.890625 -1.421875 
Q 20.796875 -1.421875 13.15625 6.1875 
Q 5.515625 13.8125 5.515625 26.8125 
Q 5.515625 40.234375 12.765625 48.109375 
Q 20.015625 56 32.328125 56 
Q 43.359375 56 49.78125 48.890625 
Q 56.203125 41.796875 56.203125 29.59375 
z
M 47.21875 32.234375 
Q 47.125 39.59375 43.09375 43.984375 
Q 39.0625 48.390625 32.421875 48.390625 
Q 24.90625 48.390625 20.390625 44.140625 
Q 15.875 39.890625 15.1875 32.171875 
z
" id="DejaVuSans-101"/>
      <path id="DejaVuSans-32"/>
      <path d="M 42.28125 54.6875 
L 40.921875 47.703125 
L 23 47.703125 
L 17.1875 18.015625 
Q 16.890625 16.359375 16.75 15.234375 
Q 16.609375 14.109375 16.609375 13.484375 
Q 16.609375 10.359375 18.484375 8.9375 
Q 20.359375 7.515625 24.515625 7.515625 
L 33.59375 7.515625 
L 32.078125 0 
L 23.484375 0 
Q 15.484375 0 11.546875 3.125 
Q 7.625 6.25 7.625 12.59375 
Q 7.625 13.71875 7.765625 15.0625 
Q 7.90625 16.40625 8.203125 18.015625 
L 14.015625 47.703125 
L 6.390625 47.703125 
L 7.8125 54.6875 
L 15.28125 54.6875 
L 18.3125 70.21875 
L 27.296875 70.21875 
L 24.3125 54.6875 
z
" id="DejaVuSans-Oblique-116"/>
     </defs>
     <g transform="translate(248.55 344.798437)scale(0.1 -0.1)">
      <use transform="translate(0 0.015625)" xlink:href="#DejaVuSans-84"/>
      <use transform="translate(61.083984 0.015625)" xlink:href="#DejaVuSans-105"/>
      <use transform="translate(88.867188 0.015625)" xlink:href="#DejaVuSans-109"/>
      <use transform="translate(186.279297 0.015625)" xlink:href="#DejaVuSans-101"/>
      <use transform="translate(247.802734 0.015625)" xlink:href="#DejaVuSans-32"/>
      <use transform="translate(279.589844 0.015625)" xlink:href="#DejaVuSans-Oblique-116"/>
     </g>
    </g>
   </g>
   <g id="matplotlib.axis_2">
    <g id="ytick_1">
     <g id="line2d_6">
      <defs>
       <path d="M 0 0 
L -3.5 0 
" id="m783aa35a0e" style="stroke:#000000;stroke-width:0.8;"/>
      </defs>
      <g>
       <use style="stroke:#000000;stroke-width:0.8;" x="35.8" xlink:href="#m783aa35a0e" y="305.194566"/>
      </g>
     </g>
    </g>
    <g id="ytick_2">
     <g id="line2d_7">
      <g>
       <use style="stroke:#000000;stroke-width:0.8;" x="35.8" xlink:href="#m783aa35a0e" y="248.878469"/>
      </g>
     </g>
    </g>
    <g id="ytick_3">
     <g id="line2d_8">
      <g>
       <use style="stroke:#000000;stroke-width:0.8;" x="35.8" xlink:href="#m783aa35a0e" y="192.562372"/>
      </g>
     </g>
    </g>
    <g id="ytick_4">
     <g id="line2d_9">
      <g>
       <use style="stroke:#000000;stroke-width:0.8;" x="35.8" xlink:href="#m783aa35a0e" y="136.246275"/>
      </g>
     </g>
    </g>
    <g id="ytick_5">
     <g id="line2d_10">
      <g>
       <use style="stroke:#000000;stroke-width:0.8;" x="35.8" xlink:href="#m783aa35a0e" y="79.930178"/>
      </g>
     </g>
    </g>
    <g id="ytick_6">
     <g id="line2d_11">
      <g>
       <use style="stroke:#000000;stroke-width:0.8;" x="35.8" xlink:href="#m783aa35a0e" y="23.614081"/>
      </g>
     </g>
    </g>
    <g id="text_2">
     <!-- Displacement, $x$ -->
     <defs>
      <path d="M 19.671875 64.796875 
L 19.671875 8.109375 
L 31.59375 8.109375 
Q 46.6875 8.109375 53.6875 14.9375 
Q 60.6875 21.78125 60.6875 36.53125 
Q 60.6875 51.171875 53.6875 57.984375 
Q 46.6875 64.796875 31.59375 64.796875 
z
M 9.8125 72.90625 
L 30.078125 72.90625 
Q 51.265625 72.90625 61.171875 64.09375 
Q 71.09375 55.28125 71.09375 36.53125 
Q 71.09375 17.671875 61.125 8.828125 
Q 51.171875 0 30.078125 0 
L 9.8125 0 
z
" id="DejaVuSans-68"/>
      <path d="M 44.28125 53.078125 
L 44.28125 44.578125 
Q 40.484375 46.53125 36.375 47.5 
Q 32.28125 48.484375 27.875 48.484375 
Q 21.1875 48.484375 17.84375 46.4375 
Q 14.5 44.390625 14.5 40.28125 
Q 14.5 37.15625 16.890625 35.375 
Q 19.28125 33.59375 26.515625 31.984375 
L 29.59375 31.296875 
Q 39.15625 29.25 43.1875 25.515625 
Q 47.21875 21.78125 47.21875 15.09375 
Q 47.21875 7.46875 41.1875 3.015625 
Q 35.15625 -1.421875 24.609375 -1.421875 
Q 20.21875 -1.421875 15.453125 -0.5625 
Q 10.6875 0.296875 5.421875 2 
L 5.421875 11.28125 
Q 10.40625 8.6875 15.234375 7.390625 
Q 20.0625 6.109375 24.8125 6.109375 
Q 31.15625 6.109375 34.5625 8.28125 
Q 37.984375 10.453125 37.984375 14.40625 
Q 37.984375 18.0625 35.515625 20.015625 
Q 33.0625 21.96875 24.703125 23.78125 
L 21.578125 24.515625 
Q 13.234375 26.265625 9.515625 29.90625 
Q 5.8125 33.546875 5.8125 39.890625 
Q 5.8125 47.609375 11.28125 51.796875 
Q 16.75 56 26.8125 56 
Q 31.78125 56 36.171875 55.265625 
Q 40.578125 54.546875 44.28125 53.078125 
z
" id="DejaVuSans-115"/>
      <path d="M 18.109375 8.203125 
L 18.109375 -20.796875 
L 9.078125 -20.796875 
L 9.078125 54.6875 
L 18.109375 54.6875 
L 18.109375 46.390625 
Q 20.953125 51.265625 25.265625 53.625 
Q 29.59375 56 35.59375 56 
Q 45.5625 56 51.78125 48.09375 
Q 58.015625 40.1875 58.015625 27.296875 
Q 58.015625 14.40625 51.78125 6.484375 
Q 45.5625 -1.421875 35.59375 -1.421875 
Q 29.59375 -1.421875 25.265625 0.953125 
Q 20.953125 3.328125 18.109375 8.203125 
z
M 48.6875 27.296875 
Q 48.6875 37.203125 44.609375 42.84375 
Q 40.53125 48.484375 33.40625 48.484375 
Q 26.265625 48.484375 22.1875 42.84375 
Q 18.109375 37.203125 18.109375 27.296875 
Q 18.109375 17.390625 22.1875 11.75 
Q 26.265625 6.109375 33.40625 6.109375 
Q 40.53125 6.109375 44.609375 11.75 
Q 48.6875 17.390625 48.6875 27.296875 
z
" id="DejaVuSans-112"/>
      <path d="M 9.421875 75.984375 
L 18.40625 75.984375 
L 18.40625 0 
L 9.421875 0 
z
" id="DejaVuSans-108"/>
      <path d="M 34.28125 27.484375 
Q 23.390625 27.484375 19.1875 25 
Q 14.984375 22.515625 14.984375 16.5 
Q 14.984375 11.71875 18.140625 8.90625 
Q 21.296875 6.109375 26.703125 6.109375 
Q 34.1875 6.109375 38.703125 11.40625 
Q 43.21875 16.703125 43.21875 25.484375 
L 43.21875 27.484375 
z
M 52.203125 31.203125 
L 52.203125 0 
L 43.21875 0 
L 43.21875 8.296875 
Q 40.140625 3.328125 35.546875 0.953125 
Q 30.953125 -1.421875 24.3125 -1.421875 
Q 15.921875 -1.421875 10.953125 3.296875 
Q 6 8.015625 6 15.921875 
Q 6 25.140625 12.171875 29.828125 
Q 18.359375 34.515625 30.609375 34.515625 
L 43.21875 34.515625 
L 43.21875 35.40625 
Q 43.21875 41.609375 39.140625 45 
Q 35.0625 48.390625 27.6875 48.390625 
Q 23 48.390625 18.546875 47.265625 
Q 14.109375 46.140625 10.015625 43.890625 
L 10.015625 52.203125 
Q 14.9375 54.109375 19.578125 55.046875 
Q 24.21875 56 28.609375 56 
Q 40.484375 56 46.34375 49.84375 
Q 52.203125 43.703125 52.203125 31.203125 
z
" id="DejaVuSans-97"/>
      <path d="M 48.78125 52.59375 
L 48.78125 44.1875 
Q 44.96875 46.296875 41.140625 47.34375 
Q 37.3125 48.390625 33.40625 48.390625 
Q 24.65625 48.390625 19.8125 42.84375 
Q 14.984375 37.3125 14.984375 27.296875 
Q 14.984375 17.28125 19.8125 11.734375 
Q 24.65625 6.203125 33.40625 6.203125 
Q 37.3125 6.203125 41.140625 7.25 
Q 44.96875 8.296875 48.78125 10.40625 
L 48.78125 2.09375 
Q 45.015625 0.34375 40.984375 -0.53125 
Q 36.96875 -1.421875 32.421875 -1.421875 
Q 20.0625 -1.421875 12.78125 6.34375 
Q 5.515625 14.109375 5.515625 27.296875 
Q 5.515625 40.671875 12.859375 48.328125 
Q 20.21875 56 33.015625 56 
Q 37.15625 56 41.109375 55.140625 
Q 45.0625 54.296875 48.78125 52.59375 
z
" id="DejaVuSans-99"/>
      <path d="M 54.890625 33.015625 
L 54.890625 0 
L 45.90625 0 
L 45.90625 32.71875 
Q 45.90625 40.484375 42.875 44.328125 
Q 39.84375 48.1875 33.796875 48.1875 
Q 26.515625 48.1875 22.3125 43.546875 
Q 18.109375 38.921875 18.109375 30.90625 
L 18.109375 0 
L 9.078125 0 
L 9.078125 54.6875 
L 18.109375 54.6875 
L 18.109375 46.1875 
Q 21.34375 51.125 25.703125 53.5625 
Q 30.078125 56 35.796875 56 
Q 45.21875 56 50.046875 50.171875 
Q 54.890625 44.34375 54.890625 33.015625 
z
" id="DejaVuSans-110"/>
      <path d="M 18.3125 70.21875 
L 18.3125 54.6875 
L 36.8125 54.6875 
L 36.8125 47.703125 
L 18.3125 47.703125 
L 18.3125 18.015625 
Q 18.3125 11.328125 20.140625 9.421875 
Q 21.96875 7.515625 27.59375 7.515625 
L 36.8125 7.515625 
L 36.8125 0 
L 27.59375 0 
Q 17.1875 0 13.234375 3.875 
Q 9.28125 7.765625 9.28125 18.015625 
L 9.28125 47.703125 
L 2.6875 47.703125 
L 2.6875 54.6875 
L 9.28125 54.6875 
L 9.28125 70.21875 
z
" id="DejaVuSans-116"/>
      <path d="M 11.71875 12.40625 
L 22.015625 12.40625 
L 22.015625 4 
L 14.015625 -11.625 
L 7.71875 -11.625 
L 11.71875 4 
z
" id="DejaVuSans-44"/>
      <path d="M 60.015625 54.6875 
L 34.90625 27.875 
L 50.296875 0 
L 39.984375 0 
L 28.421875 21.6875 
L 8.296875 0 
L -2.59375 0 
L 24.3125 28.8125 
L 10.015625 54.6875 
L 20.3125 54.6875 
L 30.8125 34.90625 
L 49.125 54.6875 
z
" id="DejaVuSans-Oblique-120"/>
     </defs>
     <g transform="translate(22.7 209.05)rotate(-90)scale(0.1 -0.1)">
      <use transform="translate(0 0.015625)" xlink:href="#DejaVuSans-68"/>
      <use transform="translate(77.001953 0.015625)" xlink:href="#DejaVuSans-105"/>
      <use transform="translate(104.785156 0.015625)" xlink:href="#DejaVuSans-115"/>
      <use transform="translate(156.884766 0.015625)" xlink:href="#DejaVuSans-112"/>
      <use transform="translate(220.361328 0.015625)" xlink:href="#DejaVuSans-108"/>
      <use transform="translate(248.144531 0.015625)" xlink:href="#DejaVuSans-97"/>
      <use transform="translate(309.423828 0.015625)" xlink:href="#DejaVuSans-99"/>
      <use transform="translate(364.404297 0.015625)" xlink:href="#DejaVuSans-101"/>
      <use transform="translate(425.927734 0.015625)" xlink:href="#DejaVuSans-109"/>
      <use transform="translate(523.339844 0.015625)" xlink:href="#DejaVuSans-101"/>
      <use transform="translate(584.863281 0.015625)" xlink:href="#DejaVuSans-110"/>
      <use transform="translate(648.242188 0.015625)" xlink:href="#DejaVuSans-116"/>
      <use transform="translate(687.451172 0.015625)" xlink:href="#DejaVuSans-44"/>
      <use transform="translate(719.238281 0.015625)" xlink:href="#DejaVuSans-32"/>
      <use transform="translate(751.025391 0.015625)" xlink:href="#DejaVuSans-Oblique-120"/>
     </g>
    </g>
   </g>
   <g id="line2d_12">
    <path clip-path="url(#p040bc67fd5)" d="M 35.8 192.562372 
L 37.98904 195.686289 
L 40.178081 126.746509 
L 42.367121 47.309329 
L 44.556162 25.136364 
L 46.745202 74.080308 
L 48.934243 145.35474 
L 51.123283 174.578855 
L 53.312324 139.541262 
L 55.501364 77.067081 
L 57.690404 46.741124 
L 59.879445 76.880702 
L 62.068485 141.53088 
L 64.257526 186.774873 
L 66.446566 179.999616 
L 68.635607 137.209106 
L 70.824647 105.713643 
L 73.013687 120.321028 
L 77.391768 224.050167 
L 79.580809 236.511 
L 81.769849 210.943406 
L 83.95889 181.049471 
L 86.14793 182.058589 
L 88.336971 219.464242 
L 90.526011 265.98625 
L 92.715051 287.627203 
L 94.904092 273.984811 
L 97.093132 245.823073 
L 99.282173 234.687049 
L 101.471213 254.328599 
L 103.660254 289.662112 
L 105.849294 311.863636 
L 108.038335 304.624517 
L 110.227375 277.697623 
L 112.416415 256.608581 
L 114.605456 259.132573 
L 116.794496 280.125293 
L 118.983537 297.546001 
L 121.172577 293.002598 
L 123.361618 267.772937 
L 125.550658 240.466739 
L 127.739698 229.566746 
L 129.928739 237.211206 
L 132.117779 248.435551 
L 134.30682 245.549117 
L 136.49586 223.999489 
L 138.684901 195.640934 
L 140.873941 177.332174 
L 143.062982 175.856335 
L 145.252022 182.69324 
L 147.441062 182.619732 
L 149.630103 167.667034 
L 151.819143 143.784523 
L 154.008184 124.801374 
L 156.197224 119.823559 
L 158.386265 125.597739 
L 160.575305 130.254781 
L 162.764346 124.401327 
L 164.953386 109.308093 
L 167.142426 95.161066 
L 169.331467 91.55427 
L 171.520507 99.10345 
L 173.709548 109.502227 
L 175.898588 113.429304 
L 178.087629 108.831436 
L 180.276669 102.255292 
L 182.465709 102.50005 
L 184.65475 112.679932 
L 186.84379 127.797272 
L 189.032831 139.612871 
L 191.221871 144.05219 
L 193.410912 144.455728 
L 195.599952 148.075399 
L 197.788993 159.340217 
L 199.978033 176.037029 
L 202.167073 191.58774 
L 204.356114 201.025403 
L 208.734195 209.404252 
L 210.923235 218.569759 
L 215.301316 246.76759 
L 217.490357 256.130702 
L 219.679397 259.731224 
L 221.868437 261.143231 
L 224.057478 264.942447 
L 226.246518 272.538452 
L 228.435559 281.075108 
L 230.624599 286.172533 
L 232.81364 285.847309 
L 235.00268 282.079495 
L 237.191721 278.796202 
L 239.380761 278.279611 
L 241.569801 279.267487 
L 243.758842 278.312223 
L 245.947882 272.990919 
L 248.136923 264.01717 
L 250.325963 254.462644 
L 252.515004 246.959542 
L 254.704044 241.479189 
L 256.893084 235.607476 
L 259.082125 226.913131 
L 261.271165 215.185504 
L 263.460206 202.576118 
L 265.649246 191.652481 
L 267.838287 183.212721 
L 270.027327 175.801859 
L 272.216368 167.24574 
L 274.405408 156.719464 
L 276.594448 145.491101 
L 278.783489 135.768698 
L 280.972529 128.787613 
L 283.16157 123.872074 
L 285.35061 119.234777 
L 287.539651 113.697048 
L 289.728691 107.753029 
L 291.917732 103.080935 
L 294.106772 101.031248 
L 296.295812 101.489862 
L 298.484853 103.09403 
L 300.673893 104.523677 
L 302.862934 105.66048 
L 305.051974 107.601288 
L 307.241015 111.587737 
L 309.430055 117.86561 
L 315.997176 140.339494 
L 318.186217 147.60257 
L 320.375257 155.958268 
L 322.564298 165.856862 
L 326.942379 187.447424 
L 329.131419 197.261313 
L 333.5095 215.380012 
L 340.076621 244.331592 
L 342.265662 252.403929 
L 344.454702 259.033402 
L 346.643743 264.751226 
L 351.021823 275.286347 
L 353.210864 279.612004 
L 355.399904 282.442612 
L 357.588945 283.535074 
L 359.777985 283.246586 
L 361.967026 282.166449 
L 364.156066 280.578613 
L 366.345106 278.239691 
L 368.534147 274.647819 
L 370.723187 269.533581 
L 372.912228 263.125533 
L 377.290309 248.492919 
L 379.479349 240.703285 
L 381.66839 232.293612 
L 383.85743 223.018519 
L 394.802632 173.282996 
L 401.369754 144.978865 
L 403.558794 136.534734 
L 405.747834 129.086043 
L 407.936875 122.571679 
L 410.125915 116.787872 
L 412.314956 111.648823 
L 414.503996 107.317468 
L 416.693037 104.098651 
L 418.882077 102.203484 
L 421.071117 101.600409 
L 423.260158 102.078323 
L 425.449198 103.452268 
L 427.638239 105.721093 
L 429.827279 109.041214 
L 432.01632 113.551585 
L 434.20536 119.214079 
L 436.394401 125.809486 
L 438.583441 133.083265 
L 440.772481 140.903662 
L 442.961522 149.292841 
L 445.150562 158.312648 
L 449.528643 177.898885 
L 456.095765 207.822669 
L 460.473845 227.045828 
L 462.662886 236.247401 
L 464.851926 244.894763 
L 467.040967 252.790535 
L 469.230007 259.852163 
L 471.419048 266.094008 
L 471.419048 266.094008 
" style="fill:none;stroke:#0000ff;stroke-linecap:square;stroke-width:1.5;"/>
   </g>
   <g id="line2d_13">
    <path clip-path="url(#p040bc67fd5)" d="M 35.8 192.562372 
L 37.98904 220.001034 
L 40.178081 222.300052 
L 42.367121 144.53131 
L 44.556162 177.373136 
L 46.745202 199.691328 
L 48.934243 177.043863 
L 51.123283 235.791432 
L 53.312324 210.831902 
L 55.501364 155.018929 
L 57.690404 197.220391 
L 59.879445 175.761078 
L 62.068485 176.997816 
L 64.257526 240.959956 
L 66.446566 193.068557 
L 68.635607 176.386139 
L 70.824647 206.005625 
L 73.013687 156.331095 
L 75.202728 189.033136 
L 77.391768 231.907764 
L 79.580809 179.166334 
L 81.769849 201.886502 
L 83.95889 201.182869 
L 86.14793 149.060358 
L 88.336971 204.727217 
L 90.526011 211.089038 
L 92.715051 176.395424 
L 94.904092 222.204513 
L 97.093132 186.849567 
L 99.282173 156.940512 
L 101.471213 214.666062 
L 103.660254 186.247639 
L 105.849294 186.036813 
L 108.038335 229.702964 
L 110.227375 171.52554 
L 112.416415 176.634888 
L 114.605456 212.818894 
L 116.794496 167.098244 
L 118.983537 203.061707 
L 121.172577 221.997528 
L 123.361618 163.986617 
L 125.550658 199.761579 
L 127.739698 199.25965 
L 129.928739 160.993547 
L 132.117779 218.70871 
L 134.30682 203.163595 
L 136.49586 169.074313 
L 138.684901 216.552133 
L 140.873941 180.010503 
L 143.062982 169.59921 
L 145.252022 224.745043 
L 147.441062 181.982702 
L 149.630103 185.406347 
L 151.819143 220.203644 
L 154.008184 164.109882 
L 156.197224 188.136587 
L 158.386265 217.429277 
L 160.575305 168.014977 
L 162.764346 206.028687 
L 164.953386 209.910599 
L 167.142426 159.285994 
L 169.331467 207.564688 
L 171.520507 199.340013 
L 173.709548 167.299299 
L 175.898588 221.686837 
L 178.087629 191.167458 
L 180.276669 168.255363 
L 182.465709 218.70941 
L 184.65475 178.229603 
L 186.84379 179.662714 
L 189.032831 225.182654 
L 191.221871 173.193377 
L 193.410912 187.36949 
L 195.599952 216.442528 
L 197.788993 163.443753 
L 199.978033 198.881097 
L 202.167073 214.783582 
L 204.356114 164.662121 
L 206.545154 208.239075 
L 208.734195 201.986012 
L 210.923235 161.576805 
L 213.112276 215.616444 
L 215.301316 195.094298 
L 217.490357 169.705477 
L 219.679397 221.581516 
L 221.868437 182.281928 
L 224.057478 173.38619 
L 226.246518 221.772657 
L 228.435559 174.980621 
L 230.624599 186.032795 
L 232.81364 221.504625 
L 235.00268 166.724443 
L 237.191721 193.404475 
L 239.380761 214.256116 
L 241.569801 163.504794 
L 243.758842 206.030488 
L 245.947882 208.236184 
L 248.136923 162.76992 
L 250.325963 212.435392 
L 252.515004 196.403812 
L 254.704044 165.755405 
L 256.893084 220.32642 
L 259.082125 188.028957 
L 261.271165 172.45885 
L 263.460206 221.78165 
L 265.649246 176.422542 
L 267.838287 180.505745 
L 270.027327 222.163902 
L 272.216368 170.280201 
L 274.405408 191.459436 
L 276.594448 217.24792 
L 278.783489 163.567015 
L 280.972529 200.788156 
L 283.16157 210.556581 
L 285.35061 163.196441 
L 287.539651 211.073365 
L 289.728691 201.064978 
L 291.917732 163.831536 
L 294.106772 217.121007 
L 296.295812 190.761838 
L 298.484853 170.009456 
L 300.673893 222.271445 
L 302.862934 180.843174 
L 305.051974 177.154293 
L 307.241015 221.895662 
L 309.430055 171.853912 
L 311.619095 187.495084 
L 313.808136 219.88631 
L 315.997176 166.039282 
L 318.186217 197.431272 
L 320.375257 212.892897 
L 322.564298 162.522575 
L 324.753338 207.480193 
L 326.942379 205.017068 
L 329.131419 163.572668 
L 331.320459 215.333987 
L 333.5095 194.301162 
L 335.69854 167.04572 
L 337.887581 220.639201 
L 340.076621 184.529899 
L 342.265662 174.620832 
L 344.454702 222.625262 
L 346.643743 174.766161 
L 348.832783 183.303665 
L 351.021823 220.82103 
L 353.210864 167.884935 
L 355.399904 194.07792 
L 357.588945 215.97265 
L 359.777985 163.376452 
L 361.967026 203.756658 
L 364.156066 207.901925 
L 366.345106 162.759284 
L 368.534147 212.92596 
L 370.723187 198.491625 
L 372.912228 165.445765 
L 375.101268 218.93362 
L 377.290309 187.842838 
L 379.479349 171.494324 
L 381.66839 222.419069 
L 383.85743 178.302679 
L 386.04647 180.046586 
L 388.235511 221.816174 
L 390.424551 169.925538 
L 392.613592 190.013736 
L 394.802632 218.141027 
L 396.991673 164.770234 
L 399.180713 200.437784 
L 401.369754 211.086819 
L 403.558794 162.448947 
L 405.747834 209.713934 
L 407.936875 202.055541 
L 410.125915 164.16568 
L 412.314956 217.187774 
L 414.503996 191.736235 
L 416.693037 168.880628 
L 418.882077 221.451232 
L 421.071117 181.598953 
L 423.260158 176.763854 
L 425.449198 222.54552 
L 427.638239 172.748353 
L 429.827279 186.247269 
L 432.01632 219.778432 
L 434.20536 166.235883 
L 436.394401 196.718124 
L 438.583441 214.033426 
L 440.772481 162.935838 
L 442.961522 206.510295 
L 445.150562 205.467922 
L 447.339603 163.07407 
L 449.528643 214.771796 
L 451.717684 195.596804 
L 453.906724 166.855728 
L 456.095765 220.289279 
L 458.284805 185.152356 
L 460.473845 173.570747 
L 462.662886 222.549244 
L 464.851926 175.776979 
L 467.040967 182.697737 
L 469.230007 221.207713 
L 471.419048 168.249642 
L 471.419048 168.249642 
" style="fill:none;stroke:#ffa500;stroke-linecap:square;stroke-width:1.5;"/>
   </g>
   <g id="line2d_14">
    <path clip-path="url(#p040bc67fd5)" d="M 35.8 326.2 
L 35.8 10.8 
" style="fill:none;stroke:#000000;stroke-dasharray:1.85,0.8;stroke-dashoffset:0;stroke-width:0.5;"/>
   </g>
   <g id="line2d_15">
    <path clip-path="url(#p040bc67fd5)" d="M 35.8 192.562372 
L 493.2 192.562372 
" style="fill:none;stroke:#000000;stroke-dasharray:1.85,0.8;stroke-dashoffset:0;stroke-width:0.5;"/>
   </g>
   <g id="patch_3">
    <path d="M 35.8 326.2 
L 35.8 10.8 
" style="fill:none;stroke:#000000;stroke-linecap:square;stroke-linejoin:miter;stroke-width:0.8;"/>
   </g>
   <g id="patch_4">
    <path d="M 493.2 326.2 
L 493.2 10.8 
" style="fill:none;stroke:#000000;stroke-linecap:square;stroke-linejoin:miter;stroke-width:0.8;"/>
   </g>
   <g id="patch_5">
    <path d="M 35.8 326.2 
L 493.2 326.2 
" style="fill:none;stroke:#000000;stroke-linecap:square;stroke-linejoin:miter;stroke-width:0.8;"/>
   </g>
   <g id="patch_6">
    <path d="M 35.8 10.8 
L 493.2 10.8 
" style="fill:none;stroke:#000000;stroke-linecap:square;stroke-linejoin:miter;stroke-width:0.8;"/>
   </g>
   <g id="legend_1">
    <g id="patch_7">
     <path d="M 418.3 48.15625 
L 486.2 48.15625 
Q 488.2 48.15625 488.2 46.15625 
L 488.2 17.8 
Q 488.2 15.8 486.2 15.8 
L 418.3 15.8 
Q 416.3 15.8 416.3 17.8 
L 416.3 46.15625 
Q 416.3 48.15625 418.3 48.15625 
z
" style="fill:#ffffff;opacity:0.8;stroke:#cccccc;stroke-linejoin:miter;"/>
    </g>
    <g id="line2d_16">
     <path d="M 420.3 23.898438 
L 440.3 23.898438 
" style="fill:none;stroke:#0000ff;stroke-linecap:square;stroke-width:1.5;"/>
    </g>
    <g id="line2d_17"/>
    <g id="text_3">
     <!-- $\omega \ll \omega_0$ -->
     <defs>
      <path d="M 21.390625 -1.421875 
Q 1.125 -1.421875 6.78125 27.59375 
Q 8.984375 39.0625 19.625 54.6875 
L 29.296875 54.6875 
Q 19.234375 39.0625 17 27.34375 
Q 12.796875 6.203125 23.734375 6.203125 
Q 33.84375 6.203125 38.71875 32.46875 
L 47.015625 32.46875 
Q 41.703125 6.0625 51.8125 6.203125 
Q 62.703125 6.296875 66.796875 27.34375 
Q 69.046875 39.0625 65.140625 54.6875 
L 74.8125 54.6875 
Q 79.296875 39.0625 77.09375 27.59375 
Q 71.53125 -1.46875 51.21875 -1.421875 
Q 37.9375 -1.375 39.109375 13.1875 
Q 34.28125 -1.421875 21.390625 -1.421875 
z
" id="DejaVuSans-Oblique-969"/>
      <path d="M 97.46875 50.828125 
L 57.125 31.296875 
L 97.46875 11.859375 
L 97.46875 2.25 
L 44.828125 27.640625 
L 44.828125 35.40625 
L 97.46875 60.890625 
z
M 59.859375 50.828125 
L 19.53125 31.296875 
L 59.859375 11.859375 
L 59.859375 2.25 
L 7.234375 27.640625 
L 7.234375 35.40625 
L 59.859375 60.890625 
z
" id="DejaVuSans-8810"/>
      <path d="M 31.78125 66.40625 
Q 24.171875 66.40625 20.328125 58.90625 
Q 16.5 51.421875 16.5 36.375 
Q 16.5 21.390625 20.328125 13.890625 
Q 24.171875 6.390625 31.78125 6.390625 
Q 39.453125 6.390625 43.28125 13.890625 
Q 47.125 21.390625 47.125 36.375 
Q 47.125 51.421875 43.28125 58.90625 
Q 39.453125 66.40625 31.78125 66.40625 
z
M 31.78125 74.21875 
Q 44.046875 74.21875 50.515625 64.515625 
Q 56.984375 54.828125 56.984375 36.375 
Q 56.984375 17.96875 50.515625 8.265625 
Q 44.046875 -1.421875 31.78125 -1.421875 
Q 19.53125 -1.421875 13.0625 8.265625 
Q 6.59375 17.96875 6.59375 36.375 
Q 6.59375 54.828125 13.0625 64.515625 
Q 19.53125 74.21875 31.78125 74.21875 
z
" id="DejaVuSans-48"/>
     </defs>
     <g transform="translate(448.3 27.398438)scale(0.1 -0.1)">
      <use transform="translate(0 0.109375)" xlink:href="#DejaVuSans-Oblique-969"/>
      <use transform="translate(103.222656 0.109375)" xlink:href="#DejaVuSans-8810"/>
      <use transform="translate(227.392578 0.109375)" xlink:href="#DejaVuSans-Oblique-969"/>
      <use transform="translate(311.132812 -16.296875)scale(0.7)" xlink:href="#DejaVuSans-48"/>
     </g>
    </g>
    <g id="line2d_18">
     <path d="M 420.3 38.576563 
L 440.3 38.576563 
" style="fill:none;stroke:#ffa500;stroke-linecap:square;stroke-width:1.5;"/>
    </g>
    <g id="line2d_19"/>
    <g id="text_4">
     <!-- $\omega \gg \omega_0$ -->
     <defs>
      <path d="M 7.234375 50.828125 
L 7.234375 60.890625 
L 59.859375 35.40625 
L 59.859375 27.640625 
L 7.234375 2.25 
L 7.234375 11.859375 
L 47.5625 31.296875 
z
M 44.828125 50.828125 
L 44.828125 60.890625 
L 97.46875 35.40625 
L 97.46875 27.640625 
L 44.828125 2.25 
L 44.828125 11.859375 
L 85.15625 31.296875 
z
" id="DejaVuSans-8811"/>
     </defs>
     <g transform="translate(448.3 42.076563)scale(0.1 -0.1)">
      <use transform="translate(0 0.109375)" xlink:href="#DejaVuSans-Oblique-969"/>
      <use transform="translate(103.222656 0.109375)" xlink:href="#DejaVuSans-8811"/>
      <use transform="translate(227.392578 0.109375)" xlink:href="#DejaVuSans-Oblique-969"/>
      <use transform="translate(311.132812 -16.296875)scale(0.7)" xlink:href="#DejaVuSans-48"/>
     </g>
    </g>
   </g>
  </g>
 </g>
 <defs>
  <clipPath id="p040bc67fd5">
   <rect height="315.4" width="457.4" x="35.8" y="10.8"/>
  </clipPath>
 </defs>
</svg>
