<?xml version="1.0" encoding="utf-8" standalone="no"?>
<!DOCTYPE svg PUBLIC "-//W3C//DTD SVG 1.1//EN"
  "http://www.w3.org/Graphics/SVG/1.1/DTD/svg11.dtd">
<!-- Created with matplotlib (https://matplotlib.org/) -->
<svg height="720pt" version="1.1" viewBox="0 0 720 720" width="720pt" xmlns="http://www.w3.org/2000/svg" xmlns:xlink="http://www.w3.org/1999/xlink">
 <defs>
  <style type="text/css">
*{stroke-linecap:butt;stroke-linejoin:round;}
  </style>
 </defs>
 <g id="figure_1">
  <g id="patch_1">
   <path d="M 0 720 
L 720 720 
L 720 0 
L 0 0 
z
" style="fill:none;"/>
  </g>
  <g id="axes_1">
   <g id="patch_2">
    <path clip-path="url(#pc983ab6b21)" d="M 436.95 358.2 
C 436.95 358.2 436.95 358.2 436.95 358.2 
C 436.95 358.2 436.95 358.2 436.95 358.2 
C 436.95 358.2 436.95 358.2 436.95 358.2 
C 436.95 358.2 436.95 358.2 436.95 358.2 
C 436.95 358.2 436.95 358.2 436.95 358.2 
C 436.95 358.2 436.95 358.2 436.95 358.2 
C 436.95 358.2 436.95 358.2 436.95 358.2 
C 436.95 358.2 436.95 358.2 436.95 358.2 
z
" style="fill:none;opacity:0.8;stroke:#0000ff;stroke-linejoin:miter;"/>
   </g>
   <g id="patch_3">
    <path clip-path="url(#pc983ab6b21)" d="M 419.9625 392.175 
C 428.972775 392.175 437.615226 388.59518 443.986453 382.223953 
C 450.35768 375.852726 453.9375 367.210275 453.9375 358.2 
C 453.9375 349.189725 450.35768 340.547274 443.986453 334.176047 
C 437.615226 327.80482 428.972775 324.225 419.9625 324.225 
C 410.952225 324.225 402.309774 327.80482 395.938547 334.176047 
C 389.56732 340.547274 385.9875 349.189725 385.9875 358.2 
C 385.9875 367.210275 389.56732 375.852726 395.938547 382.223953 
C 402.309774 388.59518 410.952225 392.175 419.9625 392.175 
z
" style="fill:none;opacity:0.711674;stroke:#0000ff;stroke-linejoin:miter;"/>
   </g>
   <g id="patch_4">
    <path clip-path="url(#pc983ab6b21)" d="M 402.975 426.15 
C 420.995551 426.15 438.280452 418.990359 451.022906 406.247906 
C 463.765359 393.505452 470.925 376.220551 470.925 358.2 
C 470.925 340.179449 463.765359 322.894548 451.022906 310.152094 
C 438.280452 297.409641 420.995551 290.25 402.975 290.25 
C 384.954449 290.25 367.669548 297.409641 354.927094 310.152094 
C 342.184641 322.894548 335.025 340.179449 335.025 358.2 
C 335.025 376.220551 342.184641 393.505452 354.927094 406.247906 
C 367.669548 418.990359 384.954449 426.15 402.975 426.15 
z
" style="fill:none;opacity:0.628512;stroke:#0000ff;stroke-linejoin:miter;"/>
   </g>
   <g id="patch_5">
    <path clip-path="url(#pc983ab6b21)" d="M 385.9875 460.125 
C 413.018326 460.125 438.945678 449.385539 458.059359 430.271859 
C 477.173039 411.158178 487.9125 385.230826 487.9125 358.2 
C 487.9125 331.169174 477.173039 305.241822 458.059359 286.128141 
C 438.945678 267.014461 413.018326 256.275 385.9875 256.275 
C 358.956674 256.275 333.029322 267.014461 313.915641 286.128141 
C 294.801961 305.241822 284.0625 331.169174 284.0625 358.2 
C 284.0625 385.230826 294.801961 411.158178 313.915641 430.271859 
C 333.029322 449.385539 358.956674 460.125 385.9875 460.125 
z
" style="fill:none;opacity:0.550517;stroke:#0000ff;stroke-linejoin:miter;"/>
   </g>
   <g id="patch_6">
    <path clip-path="url(#pc983ab6b21)" d="M 369 494.1 
C 405.041101 494.1 439.610904 479.780719 465.095812 454.295812 
C 490.580719 428.810904 504.9 394.241101 504.9 358.2 
C 504.9 322.158899 490.580719 287.589096 465.095812 262.104188 
C 439.610904 236.619281 405.041101 222.3 369 222.3 
C 332.958899 222.3 298.389096 236.619281 272.904188 262.104188 
C 247.419281 287.589096 233.1 322.158899 233.1 358.2 
C 233.1 394.241101 247.419281 428.810904 272.904188 454.295812 
C 298.389096 479.780719 332.958899 494.1 369 494.1 
z
" style="fill:none;opacity:0.477686;stroke:#0000ff;stroke-linejoin:miter;"/>
   </g>
   <g id="patch_7">
    <path clip-path="url(#pc983ab6b21)" d="M 352.0125 528.075 
C 397.063877 528.075 440.276131 510.175898 472.132264 478.319764 
C 503.988398 446.463631 521.8875 403.251377 521.8875 358.2 
C 521.8875 313.148623 503.988398 269.936369 472.132264 238.080236 
C 440.276131 206.224102 397.063877 188.325 352.0125 188.325 
C 306.961123 188.325 263.748869 206.224102 231.892736 238.080236 
C 200.036602 269.936369 182.1375 313.148623 182.1375 358.2 
C 182.1375 403.251377 200.036602 446.463631 231.892736 478.319764 
C 263.748869 510.175898 306.961123 528.075 352.0125 528.075 
z
" style="fill:none;opacity:0.410021;stroke:#0000ff;stroke-linejoin:miter;"/>
   </g>
   <g id="patch_8">
    <path clip-path="url(#pc983ab6b21)" d="M 335.025 562.05 
C 389.086652 562.05 440.941357 540.571078 479.168717 502.343717 
C 517.396078 464.116357 538.875 412.261652 538.875 358.2 
C 538.875 304.138348 517.396078 252.283643 479.168717 214.056283 
C 440.941357 175.828922 389.086652 154.35 335.025 154.35 
C 280.963348 154.35 229.108643 175.828922 190.881283 214.056283 
C 152.653922 252.283643 131.175 304.138348 131.175 358.2 
C 131.175 412.261652 152.653922 464.116357 190.881283 502.343717 
C 229.108643 540.571078 280.963348 562.05 335.025 562.05 
z
" style="fill:none;opacity:0.347521;stroke:#0000ff;stroke-linejoin:miter;"/>
   </g>
   <g id="patch_9">
    <path clip-path="url(#pc983ab6b21)" d="M 318.0375 596.025 
C 381.109427 596.025 441.606583 570.966258 486.20517 526.36767 
C 530.803758 481.769083 555.8625 421.271927 555.8625 358.2 
C 555.8625 295.128073 530.803758 234.630917 486.20517 190.03233 
C 441.606583 145.433742 381.109427 120.375 318.0375 120.375 
C 254.965573 120.375 194.468417 145.433742 149.86983 190.03233 
C 105.271242 234.630917 80.2125 295.128073 80.2125 358.2 
C 80.2125 421.271927 105.271242 481.769083 149.86983 526.36767 
C 194.468417 570.966258 254.965573 596.025 318.0375 596.025 
z
" style="fill:none;opacity:0.290186;stroke:#0000ff;stroke-linejoin:miter;"/>
   </g>
   <g id="patch_10">
    <path clip-path="url(#pc983ab6b21)" d="M 301.05 630 
C 373.132203 630 442.271809 601.361437 493.241623 550.391623 
C 544.211437 499.421809 572.85 430.282203 572.85 358.2 
C 572.85 286.117797 544.211437 216.978191 493.241623 166.008377 
C 442.271809 115.038563 373.132203 86.4 301.05 86.4 
C 228.967797 86.4 159.828191 115.038563 108.858377 166.008377 
C 57.888563 216.978191 29.25 286.117797 29.25 358.2 
C 29.25 430.282203 57.888563 499.421809 108.858377 550.391623 
C 159.828191 601.361437 228.967797 630 301.05 630 
z
" style="fill:none;opacity:0.238017;stroke:#0000ff;stroke-linejoin:miter;"/>
   </g>
   <g id="patch_11">
    <path clip-path="url(#pc983ab6b21)" d="M 284.0625 663.975 
C 365.154978 663.975 442.937035 631.756617 500.278076 574.415576 
C 557.619117 517.074535 589.8375 439.292478 589.8375 358.2 
C 589.8375 277.107522 557.619117 199.325465 500.278076 141.984424 
C 442.937035 84.643383 365.154978 52.425 284.0625 52.425 
C 202.970022 52.425 125.187965 84.643383 67.846924 141.984424 
C 10.505883 199.325465 -21.7125 277.107522 -21.7125 358.2 
C -21.7125 439.292478 10.505883 517.074535 67.846924 574.415576 
C 125.187965 631.756617 202.970022 663.975 284.0625 663.975 
z
" style="fill:none;opacity:0.191012;stroke:#0000ff;stroke-linejoin:miter;"/>
   </g>
   <g id="patch_12">
    <path clip-path="url(#pc983ab6b21)" d="M 267.075 697.95 
C 357.177753 697.95 443.602261 662.151797 507.314529 598.439529 
C 571.026797 534.727261 606.825 448.302753 606.825 358.2 
C 606.825 268.097247 571.026797 181.672739 507.314529 117.960471 
C 443.602261 54.248203 357.177753 18.45 267.075 18.45 
C 176.972247 18.45 90.547739 54.248203 26.835471 117.960471 
C -36.876797 181.672739 -72.675 268.097247 -72.675 358.2 
C -72.675 448.302753 -36.876797 534.727261 26.835471 598.439529 
C 90.547739 662.151797 176.972247 697.95 267.075 697.95 
z
" style="fill:none;opacity:0.149174;stroke:#0000ff;stroke-linejoin:miter;"/>
   </g>
   <g id="patch_13">
    <path clip-path="url(#pc983ab6b21)" d="M 436.95 363.636 
C 438.391644 363.636 439.774436 363.063229 440.793832 362.043832 
C 441.813229 361.024436 442.386 359.641644 442.386 358.2 
C 442.386 356.758356 441.813229 355.375564 440.793832 354.356168 
C 439.774436 353.336771 438.391644 352.764 436.95 352.764 
C 435.508356 352.764 434.125564 353.336771 433.106168 354.356168 
C 432.086771 355.375564 431.514 356.758356 431.514 358.2 
C 431.514 359.641644 432.086771 361.024436 433.106168 362.043832 
C 434.125564 363.063229 435.508356 363.636 436.95 363.636 
z
" style="stroke:#000000;stroke-linejoin:miter;"/>
   </g>
  </g>
 </g>
 <defs>
  <clipPath id="pc983ab6b21">
   <rect height="543.6" width="543.6" x="97.2" y="86.4"/>
  </clipPath>
 </defs>
</svg>
